<?xml version="1.0" encoding="UTF-8"?>
<svg width="157px" height="119px" viewBox="0 0 157 119" version="1.1" xmlns="http://www.w3.org/2000/svg" xmlns:xlink="http://www.w3.org/1999/xlink">
    <!-- Generator: Sketch 53.2 (72643) - https://sketchapp.com -->
    <title>resources-icon</title>
    <desc>Created with Sketch.</desc>
    <defs>
        <path d="M2.30749668,10 L112.892503,10 C113.69487,10 113.985828,10.0835431 114.279161,10.2404194 C114.572494,10.3972958 114.802704,10.6275055 114.959581,10.9208389 C115.116457,11.2141722 115.2,11.5051298 115.2,12.3074967 L115.2,85.0925033 C115.2,85.8948702 115.116457,86.1858278 114.959581,86.4791611 C114.802704,86.7724945 114.572494,87.0027042 114.279161,87.1595806 C113.985828,87.3164569 113.69487,87.4 112.892503,87.4 L2.30749668,87.4 C1.50512981,87.4 1.2141722,87.3164569 0.920838867,87.1595806 C0.627505533,87.0027042 0.397295817,86.7724945 0.240419433,86.4791611 C0.08354305,86.1858278 -2.85046868e-15,85.8948702 -2.94873028e-15,85.0925033 L2.84195023e-16,12.3074967 C1.85933422e-16,11.5051298 0.08354305,11.2141722 0.240419433,10.9208389 C0.397295817,10.6275055 0.627505533,10.3972958 0.920838867,10.2404194 C1.2141722,10.0835431 1.50512981,10 2.30749668,10 Z" id="path-1"></path>
        <rect id="path-3" x="82" y="0.9" width="8" height="15" rx="4"></rect>
        <rect id="path-4" x="25" y="0.9" width="8" height="15" rx="4"></rect>
        <linearGradient x1="32.5027687%" y1="-63.6982286%" x2="50%" y2="100%" id="linearGradient-5">
            <stop stop-color="#FFFFFF" stop-opacity="0" offset="0%"></stop>
            <stop stop-color="#E1F2F1" offset="100%"></stop>
        </linearGradient>
        <linearGradient x1="43.0584856%" y1="-15.1343597%" x2="100%" y2="112.909948%" id="linearGradient-6">
            <stop stop-color="#FFFFFF" stop-opacity="0" offset="0%"></stop>
            <stop stop-color="#20AAA3" offset="100%"></stop>
        </linearGradient>
    </defs>
    <g id="2019-after" stroke="none" stroke-width="1" fill="none" fill-rule="evenodd">
        <g id="home-after-week" transform="translate(-207.000000, -501.000000)">
            <g id="green-block" transform="translate(0.000000, 464.000000)">
                <g id="resources-icon" transform="translate(179.000000, 36.000000)">
                    <g id="step2">
                        <rect id="Rectangle-11" fill-rule="nonzero" x="0" y="0" width="188.1" height="122.4"></rect>
                        <circle id="Oval-3" fill="#E1F2F1" fill-rule="nonzero" cx="93.15" cy="60.75" r="58.95"></circle>
                        <g id="browser" transform="translate(36.000000, 16.100000)">
                            <mask id="mask-2" fill="white">
                                <use xlink:href="#path-1"></use>
                            </mask>
                            <g id="Rectangle-5" stroke-linecap="round" stroke-linejoin="round" fill-rule="nonzero">
                                <use fill="#FFFFFF" xlink:href="#path-1"></use>
                                <path stroke="#BAE1DF" stroke-width="1.8" d="M2.30749668,9.1 L112.892503,9.1 C113.759907,9.1 114.222027,9.18923966 114.7036,9.44678756 C115.153775,9.68754376 115.512456,10.0462249 115.753212,10.4963999 C116.01076,10.9779726 116.1,11.4400935 116.1,12.3074967 L116.1,85.0925033 C116.1,85.9599065 116.01076,86.4220274 115.753212,86.9036001 C115.512456,87.3537751 115.153775,87.7124562 114.7036,87.9532124 C114.222027,88.2107603 113.759907,88.3 112.892503,88.3 L2.30749668,88.3 C1.44009348,88.3 0.977972586,88.2107603 0.496399894,87.9532124 C0.0462249346,87.7124562 -0.312456242,87.3537751 -0.553212445,86.9036001 C-0.810760339,86.4220274 -0.9,85.9599065 -0.9,85.0925033 L-0.9,12.3074967 C-0.9,11.4400935 -0.810760339,10.9779726 -0.553212445,10.4963999 C-0.312456242,10.0462249 0.0462249346,9.68754376 0.496399894,9.44678756 C0.977972586,9.18923966 1.44009348,9.1 2.30749668,9.1 Z"></path>
                                <use stroke="#20AAA3" stroke-width="1" xlink:href="#path-1"></use>
                            </g>
                            <g id="Rectangle" fill-rule="nonzero">
                                <rect stroke="#20AAA3" stroke-width="2" stroke-linejoin="square" fill="#E1F2F1" fill-rule="evenodd" x="83" y="1.9" width="6" height="13" rx="3"></rect>
                                <use stroke="#BAE1DF" stroke-width="1" xlink:href="#path-3"></use>
                            </g>
                            <g id="Rectangle" fill-rule="nonzero">
                                <rect stroke="#20AAA3" stroke-width="2" stroke-linejoin="square" fill="#E1F2F1" fill-rule="evenodd" x="26" y="1.9" width="6" height="13" rx="3"></rect>
                                <use stroke="#BAE1DF" stroke-width="1" xlink:href="#path-4"></use>
                            </g>
                            <polygon id="Rectangle-6" fill="#E1F2F1" fill-rule="nonzero" points="7.17428571 39.6425532 25.1742857 39.6425532 25.1742857 54.0425532 7.17428571 54.0425532"></polygon>
                            <polygon id="Rectangle-6" fill="#E1F2F1" fill-rule="nonzero" points="7.17428571 25.9 25.1742857 25.9 25.1742857 31.9 7.17428571 31.9"></polygon>
                            <polygon id="Rectangle-6" fill="#E1F2F1" fill-rule="nonzero" points="7.17428571 55.9 25.1742857 55.9 25.1742857 70.3 7.17428571 70.3"></polygon>
                            <polygon id="Rectangle-6" fill="#E1F2F1" fill-rule="nonzero" points="27.8807143 39.6425532 45.8807143 39.6425532 45.8807143 54.0425532 27.8807143 54.0425532"></polygon>
                            <polygon id="Rectangle-6" fill="#E1F2F1" fill-rule="nonzero" points="27.8807143 25.9 45.8807143 25.9 45.8807143 31.9 27.8807143 31.9"></polygon>
                            <polygon id="Rectangle-6" fill="#E1F2F1" fill-rule="nonzero" points="27.8807143 55.9 45.8807143 55.9 45.8807143 70.3 27.8807143 70.3"></polygon>
                            <polygon id="Rectangle-6" fill="#E1F2F1" fill-rule="nonzero" points="48.5871429 39.6425532 66.5871429 39.6425532 66.5871429 54.0425532 48.5871429 54.0425532"></polygon>
                            <polygon id="Rectangle-6" fill="#E1F2F1" fill-rule="nonzero" points="48.5871429 25.9 66.5871429 25.9 66.5871429 31.9 48.5871429 31.9"></polygon>
                            <polygon id="Rectangle-6" fill="#E1F2F1" fill-rule="nonzero" points="48.5871429 55.9 66.5871429 55.9 66.5871429 70.3 48.5871429 70.3"></polygon>
                            <polygon id="Rectangle-6" fill="#E1F2F1" fill-rule="nonzero" points="69.2935714 39.6425532 87.2935714 39.6425532 87.2935714 54.0425532 69.2935714 54.0425532"></polygon>
                            <polygon id="Rectangle-6" fill="#E1F2F1" fill-rule="nonzero" points="69.2935714 25.9 87.2935714 25.9 87.2935714 31.9 69.2935714 31.9"></polygon>
                            <polygon id="Rectangle-6" fill="#E1F2F1" fill-rule="nonzero" points="69.2935714 55.9 87.2935714 55.9 87.2935714 70.3 69.2935714 70.3"></polygon>
                            <polygon id="Rectangle-6" fill="#E1F2F1" fill-rule="nonzero" points="90 39.6425532 108 39.6425532 108 54.0425532 90 54.0425532"></polygon>
                            <polygon id="Rectangle-6" fill="#E1F2F1" fill-rule="nonzero" points="90 25.9 108 25.9 108 31.9 90 31.9"></polygon>
                            <polygon id="Rectangle-6" fill="#E1F2F1" fill-rule="nonzero" points="90 55.9 108 55.9 108 70.3 90 70.3"></polygon>
                            <g id="Group-3" transform="translate(28.800000, 41.500000)">
                                <ellipse id="Oval-2" fill="#BAE1DF" fill-rule="nonzero" cx="6.58285714" cy="7.4106383" rx="6.58285714" ry="6.58723404"></ellipse>
                                <path d="M16.9714286,4.52230819 C16.9714286,4.74756609 16.875871,4.97282398 16.7038673,5.13500967 L8.48591336,12.8838814 C8.31390968,13.0460671 8.07501567,13.1361702 7.83612166,13.1361702 C7.59722765,13.1361702 7.35833364,13.0460671 7.18632995,12.8838814 L2.42756129,8.39674404 C2.2555576,8.23455835 2.16,8.00930045 2.16,7.78404255 C2.16,7.55878466 2.2555576,7.33352676 2.42756129,7.17134107 L3.7271447,5.9459381 C3.89914839,5.78375242 4.1380424,5.69364926 4.37693641,5.69364926 C4.61583041,5.69364926 4.85472442,5.78375242 5.02672811,5.9459381 L7.83612166,8.6039813 L14.1047005,2.68420374 C14.2767041,2.52201805 14.5155982,2.43191489 14.7544922,2.43191489 C14.9933862,2.43191489 15.2322802,2.52201805 15.4042839,2.68420374 L16.7038673,3.90960671 C16.875871,4.07179239 16.9714286,4.29705029 16.9714286,4.52230819 Z" id="Check---FontAwesome" fill="#20AAA3"></path>
                            </g>
                            <g id="Group-3" transform="translate(71.000000, 39.900000)">
                                <ellipse id="Oval-2" fill="#BAE1DF" fill-rule="nonzero" cx="6.58285714" cy="7.4106383" rx="6.58285714" ry="6.58723404"></ellipse>
                                <path d="M16.9714286,4.52230819 C16.9714286,4.74756609 16.875871,4.97282398 16.7038673,5.13500967 L8.48591336,12.8838814 C8.31390968,13.0460671 8.07501567,13.1361702 7.83612166,13.1361702 C7.59722765,13.1361702 7.35833364,13.0460671 7.18632995,12.8838814 L2.42756129,8.39674404 C2.2555576,8.23455835 2.16,8.00930045 2.16,7.78404255 C2.16,7.55878466 2.2555576,7.33352676 2.42756129,7.17134107 L3.7271447,5.9459381 C3.89914839,5.78375242 4.1380424,5.69364926 4.37693641,5.69364926 C4.61583041,5.69364926 4.85472442,5.78375242 5.02672811,5.9459381 L7.83612166,8.6039813 L14.1047005,2.68420374 C14.2767041,2.52201805 14.5155982,2.43191489 14.7544922,2.43191489 C14.9933862,2.43191489 15.2322802,2.52201805 15.4042839,2.68420374 L16.7038673,3.90960671 C16.875871,4.07179239 16.9714286,4.29705029 16.9714286,4.52230819 Z" id="Check---FontAwesome" fill="#20AAA3"></path>
                            </g>
                            <g id="Group-3" transform="translate(90.000000, 55.900000)">
                                <ellipse id="Oval-2" fill="#BAE1DF" fill-rule="nonzero" cx="6.58285714" cy="7.4106383" rx="6.58285714" ry="6.58723404"></ellipse>
                                <path d="M16.9714286,4.52230819 C16.9714286,4.74756609 16.875871,4.97282398 16.7038673,5.13500967 L8.48591336,12.8838814 C8.31390968,13.0460671 8.07501567,13.1361702 7.83612166,13.1361702 C7.59722765,13.1361702 7.35833364,13.0460671 7.18632995,12.8838814 L2.42756129,8.39674404 C2.2555576,8.23455835 2.16,8.00930045 2.16,7.78404255 C2.16,7.55878466 2.2555576,7.33352676 2.42756129,7.17134107 L3.7271447,5.9459381 C3.89914839,5.78375242 4.1380424,5.69364926 4.37693641,5.69364926 C4.61583041,5.69364926 4.85472442,5.78375242 5.02672811,5.9459381 L7.83612166,8.6039813 L14.1047005,2.68420374 C14.2767041,2.52201805 14.5155982,2.43191489 14.7544922,2.43191489 C14.9933862,2.43191489 15.2322802,2.52201805 15.4042839,2.68420374 L16.7038673,3.90960671 C16.875871,4.07179239 16.9714286,4.29705029 16.9714286,4.52230819 Z" id="Check---FontAwesome" fill="#20AAA3"></path>
                            </g>
                            <g id="Group-3" transform="translate(49.500000, 55.900000)">
                                <ellipse id="Oval-2" fill="#BAE1DF" fill-rule="nonzero" cx="6.58285714" cy="7.4106383" rx="6.58285714" ry="6.58723404"></ellipse>
                                <path d="M16.9714286,4.52230819 C16.9714286,4.74756609 16.875871,4.97282398 16.7038673,5.13500967 L8.48591336,12.8838814 C8.31390968,13.0460671 8.07501567,13.1361702 7.83612166,13.1361702 C7.59722765,13.1361702 7.35833364,13.0460671 7.18632995,12.8838814 L2.42756129,8.39674404 C2.2555576,8.23455835 2.16,8.00930045 2.16,7.78404255 C2.16,7.55878466 2.2555576,7.33352676 2.42756129,7.17134107 L3.7271447,5.9459381 C3.89914839,5.78375242 4.1380424,5.69364926 4.37693641,5.69364926 C4.61583041,5.69364926 4.85472442,5.78375242 5.02672811,5.9459381 L7.83612166,8.6039813 L14.1047005,2.68420374 C14.2767041,2.52201805 14.5155982,2.43191489 14.7544922,2.43191489 C14.9933862,2.43191489 15.2322802,2.52201805 15.4042839,2.68420374 L16.7038673,3.90960671 C16.875871,4.07179239 16.9714286,4.29705029 16.9714286,4.52230819 Z" id="Check---FontAwesome" fill="#20AAA3"></path>
                            </g>
                            <g id="Group-3" transform="translate(9.000000, 37.900000)">
                                <ellipse id="Oval-2" fill="#BAE1DF" fill-rule="nonzero" cx="6.58285714" cy="7.4106383" rx="6.58285714" ry="6.58723404"></ellipse>
                                <path d="M16.9714286,4.52230819 C16.9714286,4.74756609 16.875871,4.97282398 16.7038673,5.13500967 L8.48591336,12.8838814 C8.31390968,13.0460671 8.07501567,13.1361702 7.83612166,13.1361702 C7.59722765,13.1361702 7.35833364,13.0460671 7.18632995,12.8838814 L2.42756129,8.39674404 C2.2555576,8.23455835 2.16,8.00930045 2.16,7.78404255 C2.16,7.55878466 2.2555576,7.33352676 2.42756129,7.17134107 L3.7271447,5.9459381 C3.89914839,5.78375242 4.1380424,5.69364926 4.37693641,5.69364926 C4.61583041,5.69364926 4.85472442,5.78375242 5.02672811,5.9459381 L7.83612166,8.6039813 L14.1047005,2.68420374 C14.2767041,2.52201805 14.5155982,2.43191489 14.7544922,2.43191489 C14.9933862,2.43191489 15.2322802,2.52201805 15.4042839,2.68420374 L16.7038673,3.90960671 C16.875871,4.07179239 16.9714286,4.29705029 16.9714286,4.52230819 Z" id="Check---FontAwesome" fill="#20AAA3"></path>
                            </g>
                            <g id="Group-3" transform="translate(30.000000, 56.900000)">
                                <ellipse id="Oval-2" fill="#BAE1DF" fill-rule="nonzero" cx="6.58285714" cy="7.4106383" rx="6.58285714" ry="6.58723404"></ellipse>
                                <path d="M16.9714286,4.52230819 C16.9714286,4.74756609 16.875871,4.97282398 16.7038673,5.13500967 L8.48591336,12.8838814 C8.31390968,13.0460671 8.07501567,13.1361702 7.83612166,13.1361702 C7.59722765,13.1361702 7.35833364,13.0460671 7.18632995,12.8838814 L2.42756129,8.39674404 C2.2555576,8.23455835 2.16,8.00930045 2.16,7.78404255 C2.16,7.55878466 2.2555576,7.33352676 2.42756129,7.17134107 L3.7271447,5.9459381 C3.89914839,5.78375242 4.1380424,5.69364926 4.37693641,5.69364926 C4.61583041,5.69364926 4.85472442,5.78375242 5.02672811,5.9459381 L7.83612166,8.6039813 L14.1047005,2.68420374 C14.2767041,2.52201805 14.5155982,2.43191489 14.7544922,2.43191489 C14.9933862,2.43191489 15.2322802,2.52201805 15.4042839,2.68420374 L16.7038673,3.90960671 C16.875871,4.07179239 16.9714286,4.29705029 16.9714286,4.52230819 Z" id="Check---FontAwesome" fill="#20AAA3"></path>
                            </g>
                        </g>
                        <g id="pin" transform="translate(41.504642, 83.577028) rotate(-13.000000) translate(-41.504642, -83.577028) translate(30.254642, 67.827028)">
                            <path d="M11.7661164,15.3965038 C12.4320815,15.3965038 13.0504683,15.2304534 13.6212955,14.8983476 C14.1921227,14.5662417 14.6440208,14.1214638 14.9770033,13.5640005 C15.3099858,13.0065371 15.4764746,12.3957088 15.4764746,11.7314971 C15.4764746,11.0672854 15.3099858,10.4505267 14.9770033,9.88120242 C14.6440208,9.31187814 14.1921227,8.86116984 13.6212955,8.52906401 C13.0504683,8.19695818 12.4320815,8.03090775 11.7661164,8.03090775 C11.1001514,8.03090775 10.4877106,8.19695818 9.92877564,8.52906401 C9.3698407,8.86116984 8.92388865,9.31187814 8.59090613,9.88120242 C8.2579236,10.4505267 8.09143484,11.0672854 8.09143484,11.7314971 C8.09143484,12.7515364 8.44819648,13.6173708 9.16173045,14.3290261 C9.87526443,15.0406815 10.7433844,15.3965038 11.7661164,15.3965038 Z M11.7661164,1.37696347 C13.6688737,1.37696347 15.4170057,1.83953251 17.010565,2.76468447 C18.5803397,3.68983643 19.8290054,4.93521462 20.7565996,6.5008564 C21.6841938,8.09022002 22.1479839,9.83374948 22.1479839,11.7314971 C22.1479839,13.1785296 21.7912223,14.8390339 21.0776883,16.7130597 C20.4592922,18.3024233 19.6030642,20.0222312 18.5089788,21.8725352 C17.6051691,23.3432896 16.5705604,24.8733256 15.4051215,26.4626892 C14.5964497,27.577616 13.7402218,28.6688045 12.8364121,29.7362875 L11.7661164,30.9816781 L10.6958208,29.7362875 C9.79201113,28.6688045 8.9357832,27.577616 8.12711136,26.4626892 C6.96167253,24.8733256 5.92706378,23.3432896 5.02325408,21.8725352 C3.92916865,20.0222312 3.07294072,18.3024233 2.45454461,16.7130597 C1.74101063,14.8390339 1.38424899,13.1785296 1.38424899,11.7314971 C1.38424899,9.83374948 1.84803912,8.09022002 2.77563329,6.5008564 C3.70322746,4.93521462 4.95189319,3.68983643 6.52166794,2.76468447 C8.11522716,1.83953251 9.86335918,1.37696347 11.7661164,1.37696347 Z" id="location_on---material" fill="url(#linearGradient-5)"></path>
                            <path d="M10.3818675,14.0195404 C11.0478325,14.0195404 11.6662193,13.8534899 12.2370465,13.5213841 C12.8078737,13.1892783 13.2597718,12.7445003 13.5927543,12.187037 C13.9257368,11.6295736 14.0922256,11.0187453 14.0922256,10.3545336 C14.0922256,9.69032195 13.9257368,9.07356323 13.5927543,8.50423895 C13.2597718,7.93491467 12.8078737,7.48420637 12.2370465,7.15210054 C11.6662193,6.81999471 11.0478325,6.65394428 10.3818675,6.65394428 C9.71590241,6.65394428 9.1034616,6.81999471 8.54452665,7.15210054 C7.9855917,7.48420637 7.53963966,7.93491467 7.20665713,8.50423895 C6.87367461,9.07356323 6.70718585,9.69032195 6.70718585,10.3545336 C6.70718585,11.374573 7.06394748,12.2404073 7.77748146,12.9520627 C8.49101544,13.663718 9.35913542,14.0195404 10.3818675,14.0195404 Z M10.3818675,0 C12.2846247,0 14.0327567,0.462569041 15.626316,1.387721 C17.1960907,2.31287296 18.4447564,3.55825115 19.3723506,5.12389292 C20.2999448,6.71325654 20.7637349,8.45678601 20.7637349,10.3545336 C20.7637349,11.8015662 20.4069733,13.4620704 19.6934393,15.3360962 C19.0750432,16.9254598 18.2188153,18.6452678 17.1247298,20.4955717 C16.2209201,21.9663261 15.1863114,23.4963621 14.0208725,25.0857258 C13.2122007,26.2006525 12.3559728,27.291841 11.4521631,28.359324 L10.3818675,29.6047147 L9.31157184,28.359324 C8.40776214,27.291841 7.55153421,26.2006525 6.74286237,25.0857258 C5.57742354,23.4963621 4.54281479,21.9663261 3.63900509,20.4955717 C2.54491966,18.6452678 1.68869173,16.9254598 1.07029561,15.3360962 C0.356761637,13.4620704 0,11.8015662 0,10.3545336 C0,8.45678601 0.463790128,6.71325654 1.3913843,5.12389292 C2.31897847,3.55825115 3.5676442,2.31287296 5.13741895,1.387721 C6.73097816,0.462569041 8.47911018,0 10.3818675,0 Z" id="location_on---material" stroke="#20AAA3" stroke-width="0.9" fill="#E1F2F1"></path>
                        </g>
                        <g id="pic" transform="translate(154.628363, 78.391967) rotate(15.000000) translate(-154.628363, -78.391967) translate(130.328363, 54.991967)" fill-rule="nonzero">
                            <path d="M2.28252917,2.01116 L45.6350715,2.01116 C46.6291841,2.01116 47.4350715,2.81704745 47.4350715,3.81116 L47.4350715,44.2582188 C47.4350715,45.2523314 46.6291841,46.0582188 45.6350715,46.0582188 L2.28252917,46.0582188 C1.28841662,46.0582188 0.482529167,45.2523314 0.482529167,44.2582188 L0.482529167,3.81116 C0.482529167,2.81704745 1.28841662,2.01116 2.28252917,2.01116 Z" id="Rectangle-4" fill="url(#linearGradient-6)"></path>
                            <path d="M3.44745763,-0.45 L46.8,-0.45 C48.0426407,-0.45 49.05,0.557359313 49.05,1.8 L49.05,42.2470588 C49.05,43.4896995 48.0426407,44.4970588 46.8,44.4970588 L3.44745763,44.4970588 C2.20481694,44.4970588 1.19745763,43.4896995 1.19745763,42.2470588 L1.19745763,1.8 C1.19745763,0.557359313 2.20481694,-0.45 3.44745763,-0.45 Z" id="Rectangle-4" stroke="#E1F2F1" stroke-width="0.9" fill="#FFFFFF" stroke-linecap="round" stroke-linejoin="round"></path>
                            <polygon id="Rectangle-4" fill="#E1F2F1" points="5.79032901 3.44117647 45.1476072 3.44117647 45.1476072 29.5941176 5.79032901 29.5941176"></polygon>
                            <circle id="Oval-4" fill="#BAE1DF" cx="14.85" cy="12.15" r="4.05"></circle>
                            <polygon id="Rectangle-4" fill="#BAE1DF" points="5.79032901 33.0352941 45.1476072 33.0352941 45.1476072 35.7882353 5.79032901 35.7882353"></polygon>
                            <polygon id="Rectangle-4" fill="#BAE1DF" points="5.79032901 38.5411765 28.5761216 38.5411765 28.5761216 41.2941176 5.79032901 41.2941176"></polygon>
                            <polygon id="Path-4" fill="#BAE1DF" points="5.80464083 29.5878356 20.7109986 17.1233304 30.3952657 24.6284476 38.3954048 19.0872103 45.1649804 25.1456279 45.1432265 29.6157062"></polygon>
                        </g>
                    </g>
                </g>
            </g>
        </g>
    </g>
</svg>