<?xml version="1.0" encoding="utf-8"?><svg id="hero-motion" image-rendering="auto" baseProfile="basic" version="1.1" x="0px" y="0px" width="550" height="400" xmlns="http://www.w3.org/2000/svg" xmlns:xlink="http://www.w3.org/1999/xlink"><defs><g id="pin" overflow="visible"><path fill="#E05F41" stroke="none" d="M7.65 -10.45Q14.3 -21.05 14.3 -26.15 14.3 -32 10.15 -36.15 6 -40.3 .15 -40.3 -5.75 -40.3 -9.85 -36.15 -14 -32 -14 -26.15 -14 -21 -7.35 -10.25 -1.05 -.1 .15 -.45 1.55 -.75 7.65 -10.45M6.7 -26.15Q6.7 -23.4 4.8 -21.5 2.85 -19.55 .15 -19.55 -2.6 -19.55 -4.5 -21.5 -6.45 -23.4 -6.45 -26.15 -6.45 -28.85 -4.5 -30.75 -2.6 -32.7 .15 -32.7 2.85 -32.7 4.8 -30.75 6.7 -28.85 6.7 -26.15Z"/><path fill="#BB3C2C" stroke="none" d="M14.65 -26.15Q14.75 -29.45 13.25 -32.65 11.9 -35.8 9.2 -38 6.5 -40.25 3.05 -41 -.35 -41.75 -3.85 -40.75 -7.2 -39.8 -9.85 -37.35 -12.45 -34.95 -13.65 -31.75 -14.9 -28.35 -14.55 -25.05 -14.25 -22.7 -12.55 -18.7 -11.5 -16.45 -9.4 -12.95L-5.9 -7.4Q-3.5 -3.8 -2.15 -2.1 -1.45 -1.2 -1.05 -.8 -.8 -.45 -.4 -.2L-.15 -.05 .15 0 .4 -.05 .85 -.4Q1.5 -1 3.05 -2.9 7.1 -8 10.35 -13.75 12.2 -17.1 13.15 -19.7 14.55 -23.8 14.65 -26.15M12.4 -32.2Q13.95 -29.35 14 -26.15 13.95 -23.95 12.25 -20.05L9.25 -14.35Q5.4 -7.9 2.2 -3.55 .75 -1.65 .2 -1.1L.1 -.95 -.45 -1.45 -1.5 -2.6Q-3.1 -4.45 -5.4 -7.8 -8.75 -12.65 -11.55 -19.15 -13.05 -22.85 -13.35 -25.2 -13.6 -28.4 -12.3 -31.2 -11.05 -34.05 -8.65 -36.05 -6.25 -38.15 -3.3 -38.85 -.45 -39.55 2.7 -39.1 5.55 -38.65 8.25 -36.8 10.85 -35.1 12.4 -32.2Z"/><path fill="#BB3C2C" stroke="none" d="M5.3 -21Q7.6 -23 7.7 -26.15 7.85 -29.2 5.35 -31.35 3.1 -33.15 .15 -33.05 -1.65 -32.95 -2.55 -32.65 -3.95 -32.25 -4.95 -31.25 -7.1 -29.25 -7 -26.15 -6.85 -23.35 -4.75 -21.25 -2.25 -19.15 .15 -19 3.05 -18.9 5.3 -21M5.7 -26.15Q5.85 -23.8 4.3 -22 2.65 -20.2 .15 -20.1 -1.05 -20 -2.25 -20.4 -3.25 -20.75 -4.3 -21.7 -6.05 -23.55 -5.9 -26.15 -5.75 -28.5 -4.05 -30.35 -3.25 -31.15 -2.2 -31.75 -1.05 -32.4 .15 -32.4 2.6 -32.3 4.25 -30.25 5.6 -28.5 5.7 -26.15Z"/></g><g id="FlashAICB_0_Isolation-Mode_.__3CPath.__3E" overflow="visible"><path fill="#FFF" stroke="none" d="M89.65 32L89.65 0 0 0 0 32 47.8 32Q48.35 35.5 51 37.9 53.75 40.3 57.35 40.35L57.35 32 89.65 32Z"/></g></defs><g id="Scene-1" overflow="visible"><path fill="#5E61AB" stroke="none" d="M454.6 91.45Q420.1 70.2 375.35 58.55 329 46.5 278.3 46.5 219.95 46.5 168 62.3 117.8 77.55 82.85 104.65 79.35 107.4 77.05 109.35 70.5 115.15 69.6 122 68.7 128.95 73.75 136.05 76 140.55 72.4 144.2 68.25 147.5 61.05 151.15 57.05 153.2 49.05 157.2 45.95 158.85 43.5 160.55 33.75 165.45 28.2 174.6 22.9 183.15 22.4 193.55 21.9 203.85 26.25 213.1 30.8 222.8 39.7 228.95 42.1 230.85 44.9 232.3 50.65 235.35 58.1 236.6 60.05 237.25 64.7 238.7 68.7 239.95 70.75 240.7 77.1 243 80.65 246.15 84.85 249.9 86 255.6 86.45 258.35 83.95 260.7 82.4 262.2 77.85 264.8 67.65 270.65 65.6 276 65.6 278.75 67.4 281.3 68.55 282.95 71.55 285.8 73.7 287.8 76.4 290.1 111.05 319.45 163.25 336.2 217.1 353.45 278.3 353.45 329.05 353.45 375.35 341.4 420.1 329.75 454.6 308.5 489.1 287.25 508.05 259.75 527.65 231.2 527.65 200 527.65 168.8 508.05 140.25 489.1 112.7 454.6 91.45Z"/><g id="globe" transform="translate(279 195.05)"><path fill="#03AEEF" stroke="none" d="M80.55 -80.6Q47.2 -113.95 0 -113.95 -47.2 -113.95 -80.6 -80.6 -113.95 -47.2 -113.95 0 -113.95 47.2 -80.6 80.55 -47.2 113.95 0 113.95 47.2 113.95 80.55 80.55 113.95 47.2 113.95 0 113.95 -47.2 80.55 -80.6Z"/><path id="Layer21_0_1_STROKES" stroke="#03AEEF" stroke-opacity=".2" stroke-width="12.2" stroke-linejoin="round" stroke-linecap="round" fill="none" d="M113.95 0Q113.95 47.2 80.55 80.55 47.2 113.95 0 113.95 -47.2 113.95 -80.6 80.55 -113.95 47.2 -113.95 0 -113.95 -47.2 -80.6 -80.6 -47.2 -113.95 0 -113.95 47.2 -113.95 80.55 -80.6 113.95 -47.2 113.95 0Z"/></g><g mask="url(#mask_)"><g id="map" transform="translate(-55 188.5)"><animateTransform attributeName="transform" additive="replace" type="translate" repeatCount="indefinite" dur="14.333s" keyTimes="0;.148;.352;.52;.66;.802;.997;1" values="440,188.5;440,188.5;255.95,188.5;255.95,188.5;129.65,188.5;129.65,188.5;-55,188.5;-55,188.5" keySplines=".333 .341 .667 .674;.333 .342 .667 .676;.333 .351 .667 .684;.333 .34 .667 .673;.333 .344 .667 .678;.333 .344 .667 .678;0 0 1 1" calcMode="spline"/><path fill="#68C3EC" stroke="none" d="M-181.85 -111.6L-207.6 -110.6 -232.35 -96.15 -206.6 -88.95 -208.65 -64.15 -212.75 -43.55 -198.35 -24.95 -175.65 -6.4 -156.05 3.9 -154 15.1Q-152.45 26.2 -155 25.55 -157.6 24.95 -149.85 38.1 -146 44.65 -141.6 51.35L-133.35 57.55 -128.2 118.4 -110.65 120.5 -112.7 95.7 -86.95 57.55 -78.65 31.75 -103.45 17.3 -114.8 4.95 -137.45 -5.35 -157.05 -3.3 -176.65 -20.85 -175.65 -37.35 -151.9 -37.35 -134.4 -61.05 -110.65 -70.35 -98.25 -92 -120.95 -101.3 -134.4 -92 -151.9 -98.2 -134.4 -108.55 -141.6 -114.7 -181.85 -111.6Z"/><path fill="#68C3EC" stroke="none" d="M149.25 -113Q132.5 -120.5 129.35 -120.5 124.35 -120.5 53.35 -114.5L12.35 -102.5 -15.65 -90.5 -31.65 -76.5 -30.65 -47.5 -3.65 -48.5 -36.65 -38.5 -50.65 -8.5 -25.65 20.5 -5.65 17.5 11.35 85.5Q16.35 85 21.85 83.5 32.85 80.5 35.35 75.5 37.85 70.5 43.85 47L49.35 24.5 67.35 1.5 44.35 -26.5 66.25 -12.65 80.35 -22.5 104.35 -10.5 116.35 10.5Q115.35 7 114.85 3 113.85 -5 116.35 -7.5 123.6 -14.75 124.6 -15.6 130.1 -20.4 131.35 -18.5 133.35 -15.5 143.35 -5.5L156.35 3.5 162.35 -8.5 178.35 -35.5 187.35 -44.5 187.35 -76.5 177.35 -87.5 196.35 -89.5 205.35 -70.5 206.35 -86.5 218.35 -97.5 165.35 -105.5Q157.6 -109.25 149.25 -113Z"/><path fill="#68C3EC" stroke="none" d="M163.35 25.5L170.35 35.5 184.35 21.5 174.35 10.5 163.35 25.5Z"/><path fill="#68C3EC" stroke="none" d="M207.35 -42.5L200.35 -65.5 196.35 -40.5 207.35 -42.5Z"/><path fill="#68C3EC" stroke="none" d="M164.6 75.65Q164.35 80.75 164.35 85.5L184.35 82.5 195.35 95.5 207.35 95.65Q219.85 95.9 222.35 96.5 224.85 97.15 228.85 81.9L232.35 66.5 207.35 46.5 190.35 50.5 186.5 52.9Q182.25 55.65 180.35 57.5 178.9 58.95 173 60.5 167.4 61.95 166.35 63.5 165.1 65.4 164.6 75.65Z"/><path fill="#68C3EC" stroke="none" d="M148.35 18.55L151.35 31.55 156.35 21.55 150.3 13.85 148.35 18.55Z"/></g></g><g mask="url(#mask_)"><g id="map-copy" transform="translate(440 188.5)"><animateTransform attributeName="transform" additive="replace" type="translate" repeatCount="indefinite" dur="14.333s" keyTimes="0;.802;.997;1" values="625.3,188.5;625.3,188.5;440,188.5;440,188.5" keySplines=".438 .5 .875 1;.438 .5 .875 1;0 0 1 1" calcMode="spline"/><path fill="#68C3EC" stroke="none" d="M-181.85 -111.55L-207.6 -110.55 -232.35 -96.1 -206.6 -88.9 -208.65 -64.1 -212.75 -43.5 -198.35 -24.9 -175.65 -6.35 -156.05 3.95 -154 15.15Q-152.45 26.25 -155 25.6 -157.6 25 -149.85 38.15 -146 44.7 -141.6 51.4L-133.35 57.6 -128.2 118.45 -110.65 120.55 -112.7 95.75 -86.95 57.6 -78.65 31.8 -103.45 17.35 -114.8 5 -137.45 -5.3 -157.05 -3.25 -176.65 -20.8 -175.65 -37.3 -151.9 -37.3 -134.4 -61 -110.65 -70.3 -98.25 -91.95 -120.95 -101.25 -134.4 -91.95 -151.9 -98.15 -134.4 -108.5 -141.6 -114.65 -181.85 -111.55Z"/><path fill="#68C3EC" stroke="none" d="M149.25 -113Q132.5 -120.5 129.35 -120.5 124.35 -120.5 53.35 -114.5L12.35 -102.5 -15.65 -90.5 -31.65 -76.5 -30.65 -47.5 -3.65 -48.5 -36.65 -38.5 -50.65 -8.5 -25.65 20.5 -5.65 17.5 11.35 85.5Q16.35 85 21.85 83.5 32.85 80.5 35.35 75.5 37.85 70.5 43.85 47L49.35 24.5 67.35 1.5 44.35 -26.5 66.25 -12.65 80.35 -22.5 104.35 -10.5 116.35 10.5Q115.35 7 114.85 3 113.85 -5 116.35 -7.5 123.6 -14.75 124.6 -15.6 130.1 -20.4 131.35 -18.5 133.35 -15.5 143.35 -5.5L156.35 3.5 162.35 -8.5 178.35 -35.5 187.35 -44.5 187.35 -76.5 177.35 -87.5 196.35 -89.5 205.35 -70.5 206.35 -86.5 218.35 -97.5 165.35 -105.5Q157.6 -109.25 149.25 -113Z"/><path fill="#68C3EC" stroke="none" d="M163.35 25.5L170.35 35.5 184.35 21.5 174.35 10.5 163.35 25.5Z"/><path fill="#68C3EC" stroke="none" d="M207.35 -42.5L200.35 -65.5 196.35 -40.5 207.35 -42.5Z"/><path fill="#68C3EC" stroke="none" d="M164.6 75.65Q164.35 80.75 164.35 85.5L184.35 82.5 195.35 95.5 207.35 95.65Q219.85 95.9 222.35 96.5 224.85 97.15 228.85 81.9L232.35 66.5 207.35 46.5 190.35 50.5 186.5 52.9Q182.25 55.65 180.35 57.5 178.9 58.95 173 60.5 167.4 61.95 166.35 63.5 165.1 65.4 164.6 75.65Z"/><path fill="#68C3EC" stroke="none" d="M148.35 18.55L151.35 31.55 156.35 21.55 150.3 13.85 148.35 18.55Z"/></g><animate attributeName="display" repeatCount="indefinite" dur="14.333s" keyTimes="0;.802;1" values="none;inline;inline"/></g><mask id="mask_"><g><g><g id="Layer1_0_FILL"><path fill="#FFF" stroke="none" d="M395 193.55Q395 146.15 361.5 112.65 327.95 79.1 280.55 79.1 233.1 79.1 199.6 112.65 166.1 146.15 166.1 193.55 166.1 241 199.6 274.5 233.1 308 280.55 308 327.95 308 361.5 274.5 395 241 395 193.55Z" fill-opacity="1"/></g></g></g></mask><g display="none"><g id="bubble5" transform="translate(99.9 148.05)" opacity="0"><animate attributeName="opacity" repeatCount="indefinite" dur="14.333s" keyTimes="0;.92999;.985;1" values="1;1;0;0"/><use xlink:href="#FlashAICB_0_Isolation-Mode_.__3CPath.__3E" transform="translate(-44.8 -20.15)" opacity=".83"/><path fill="#232020" stroke="none" d="M24.55 -1.45Q23.25 -1.45 22.55 -.85 21.85 -.2 21.85 .7 21.85 1.45 22.3 1.85 22.75 2.25 23.85 2.5 25.35 2.85 25.6 3 25.85 3.15 25.85 3.45 25.85 3.75 25.55 3.9 25.25 4.05 24.75 4.05 23.9 4.05 23.6 3.7 23.45 3.5 23.35 3.05L21.7 3.05Q21.7 4.05 22.4 4.7 23.1 5.3 24.65 5.3 26.1 5.3 26.8 4.7 27.5 4.1 27.5 3.15 27.5 2.45 27.05 1.95 26.55 1.5 25.55 1.25 24.05 .95 23.8 .8 23.55 .65 23.55 .4 23.55 .15 23.8 0 24 -.2 24.55 -.2 25.2 -.2 25.5 .15 25.65 .35 25.7 .65L27.35 .65Q27.25 -.5 26.5 -1 25.7 -1.45 24.55 -1.45M19.6 -1.15Q18.9 -1.45 18.1 -1.45 16.7 -1.45 15.8 -.55 14.95 .3 14.95 2 14.95 3.75 15.9 4.55 16.9 5.3 18.15 5.3 19.7 5.3 20.55 4.4 21.1 3.8 21.15 3.25L19.45 3.25Q19.3 3.5 19.1 3.65 18.75 3.95 18.2 3.95 17.65 3.95 17.3 3.7 16.65 3.35 16.6 2.4L21.25 2.4Q21.25 1.55 21.2 1.1 21.1 .35 20.7 -.2 20.25 -.85 19.6 -1.15M16.65 1.25Q16.75 .65 17.1 .3 17.45 -.1 18.1 -.1 18.7 -.1 19.1 .25 19.5 .6 19.55 1.25L16.65 1.25M-5.15 -.5Q-5.95 -1.5 -7.6 -1.5 -9.25 -1.5 -10.05 -.5 -10.85 .55 -10.85 1.9 -10.85 3.3 -10.05 4.3 -9.25 5.3 -7.6 5.3 -5.95 5.3 -5.15 4.3 -4.35 3.3 -4.35 1.9 -4.35 .55 -5.15 -.5M-6.5 3.4Q-6.85 3.9 -7.6 3.9 -8.35 3.9 -8.75 3.4 -9.15 2.85 -9.15 1.9 -9.15 .95 -8.75 .45 -8.35 -.1 -7.6 -.1 -6.85 -.1 -6.5 .45 -6.1 .95 -6.1 1.9 -6.1 2.85 -6.5 3.4M-12.7 -1Q-13.5 -1.45 -14.65 -1.45 -15.95 -1.45 -16.65 -.85 -17.35 -.2 -17.35 .7 -17.35 1.45 -16.9 1.85 -16.45 2.25 -15.35 2.5 -13.85 2.85 -13.6 3 -13.35 3.15 -13.35 3.45 -13.35 3.75 -13.65 3.9 -13.95 4.05 -14.45 4.05 -15.3 4.05 -15.6 3.7 -15.75 3.5 -15.85 3.05L-17.5 3.05Q-17.5 4.05 -16.8 4.7 -16.1 5.3 -14.55 5.3 -13.1 5.3 -12.4 4.7 -11.7 4.1 -11.7 3.15 -11.7 2.45 -12.15 1.95 -12.65 1.5 -13.65 1.25 -15.15 .95 -15.4 .8 -15.65 .65 -15.65 .4 -15.65 .15 -15.4 0 -15.2 -.2 -14.65 -.2 -14 -.2 -13.7 .15 -13.55 .35 -13.5 .65L-11.85 .65Q-11.95 -.5 -12.7 -1M-21.1 -1.45Q-22.5 -1.45 -23.4 -.55 -24.25 .3 -24.25 2 -24.25 3.75 -23.3 4.55 -22.3 5.3 -21.05 5.3 -19.5 5.3 -18.65 4.4 -18.1 3.8 -18.05 3.25L-19.75 3.25Q-19.9 3.5 -20.1 3.65 -20.45 3.95 -21 3.95 -21.55 3.95 -21.9 3.7 -22.55 3.35 -22.6 2.4L-17.95 2.4Q-17.95 1.55 -18 1.1 -18.1 .35 -18.5 -.2 -18.95 -.85 -19.6 -1.15 -20.3 -1.45 -21.1 -1.45M-20.1 .25Q-19.7 .6 -19.65 1.25L-22.55 1.25Q-22.45 .65 -22.1 .3 -21.75 -.1 -21.1 -.1 -20.5 -.1 -20.1 .25M-26.85 -1.3L-28.45 -1.3 -28.45 5.1 -26.75 5.1 -26.75 2.05Q-26.75 1.3 -26.55 .9 -26.2 .25 -25.2 .25L-25 .25 -24.75 .3 -24.75 -1.45Q-24.8 -1.45 -24.85 -1.45 -24.9 -1.45 -24.95 -1.45 -25.7 -1.45 -26.15 -1.05 -26.45 -.8 -26.85 -.15L-26.85 -1.3M26.2 -12.9Q25.55 -13.45 24.55 -13.45 23.8 -13.45 23.25 -13.05 23 -12.85 22.65 -12.35L22.65 -13.25 21.05 -13.25 21.05 -6.9 22.7 -6.9 22.7 -10.35Q22.7 -10.95 22.9 -11.35 23.2 -12.05 24.05 -12.05 24.7 -12.05 24.95 -11.55 25.1 -11.3 25.1 -10.8L25.1 -6.9 26.8 -6.9 26.8 -11.2Q26.8 -12.4 26.2 -12.9M31.7 -13.2Q31.25 -13.45 30.7 -13.45 29.45 -13.45 28.7 -12.5 27.9 -11.55 27.9 -9.95 27.9 -8.5 28.7 -7.6 29.45 -6.7 30.55 -6.7 31.25 -6.7 31.7 -6.95 32.15 -7.2 32.5 -7.8L32.5 -6.9 34.15 -6.9 34.15 -15.5 32.45 -15.5 32.45 -12.5Q32.15 -12.95 31.7 -13.2M30 -8.65Q29.65 -9.15 29.65 -10.05 29.65 -10.85 30 -11.4 30.35 -12 31.05 -12 31.55 -12 31.9 -11.7 32.5 -11.15 32.5 -10 32.5 -9.15 32.15 -8.65 31.75 -8.1 31.05 -8.1 30.35 -8.1 30 -8.65M13.4 -.9Q12.65 -1.45 11.45 -1.45 10 -1.45 9.2 -.5 8.4 .4 8.4 2.05 8.4 3.5 9.15 4.4 9.85 5.3 11.4 5.3 12.95 5.3 13.75 4.2 14.25 3.55 14.3 2.8L12.6 2.8Q12.55 3.3 12.3 3.6 12.05 3.9 11.45 3.9 10.65 3.9 10.35 3.1 10.15 2.7 10.15 2 10.15 1.25 10.35 .8 10.65 -.05 11.5 -.05 12.1 -.05 12.35 .35 12.55 .65 12.6 1L14.3 1Q14.15 -.35 13.4 -.9M7.7 -1.45Q7.65 -1.45 7.6 -1.45 6.85 -1.45 6.4 -1.05 6.1 -.8 5.7 -.15L5.7 -1.3 4.1 -1.3 4.1 5.1 5.8 5.1 5.8 2.05Q5.8 1.3 6 .9 6.35 .25 7.35 .25L7.55 .25 7.8 .3 7.8 -1.45Q7.75 -1.45 7.7 -1.45M2.55 -1.3L.85 -1.3 .85 2.2Q.85 2.8 .7 3.2 .35 3.85 -.5 3.85 -1.15 3.85 -1.4 3.4 -1.5 3.1 -1.5 2.55L-1.5 -1.3 -3.2 -1.3 -3.2 2.55Q-3.2 3.65 -2.95 4.2 -2.45 5.25 -1.05 5.25 -.55 5.25 -.2 5.1 .2 5 .55 4.65L.8 4.35Q.85 4.25 .9 4.2L.9 5.1 2.55 5.1 2.55 -1.3M16.9 -13.45Q15.3 -13.45 14.6 -12.6 14.2 -12.05 14.15 -11.2L15.75 -11.2Q15.8 -11.6 16 -11.8 16.25 -12.1 16.85 -12.1 17.4 -12.1 17.65 -11.95 17.95 -11.8 17.95 -11.4 17.95 -11.1 17.6 -10.95 17.35 -10.85 16.9 -10.8L16.35 -10.7Q15.35 -10.6 14.85 -10.3 13.95 -9.8 13.95 -8.6 13.95 -7.7 14.5 -7.2 15.1 -6.7 15.95 -6.7 16.65 -6.7 17.2 -7 17.65 -7.25 18 -7.65L18.05 -7.25 18.15 -6.9 19.95 -6.9 19.95 -7.15Q19.8 -7.2 19.7 -7.35 19.6 -7.45 19.6 -7.8L19.6 -11.45Q19.6 -12.6 18.75 -13 17.95 -13.45 16.9 -13.45M17.95 -10L17.95 -9.4Q17.9 -8.55 17.45 -8.25 17 -7.9 16.45 -7.9 16.1 -7.9 15.85 -8.1 15.6 -8.3 15.6 -8.7 15.6 -9.2 16 -9.45 16.25 -9.55 16.8 -9.65L17.6 -9.85 17.95 -10M6.9 -13.45Q5.6 -13.45 4.9 -12.85 4.2 -12.2 4.2 -11.3 4.2 -10.55 4.65 -10.15 5.1 -9.75 6.2 -9.5 7.7 -9.15 7.95 -9 8.2 -8.85 8.2 -8.55 8.2 -8.25 7.9 -8.1 7.6 -7.95 7.1 -7.95 6.25 -7.95 5.95 -8.3 5.8 -8.5 5.7 -8.95L4.05 -8.95Q4.05 -7.95 4.75 -7.3 5.45 -6.7 7 -6.7 8.45 -6.7 9.15 -7.3 9.85 -7.9 9.85 -8.85 9.85 -9.55 9.4 -10.05 8.9 -10.5 7.9 -10.75 6.4 -11.05 6.15 -11.2 5.9 -11.35 5.9 -11.6 5.9 -11.85 6.15 -12 6.35 -12.2 6.9 -12.2 7.55 -12.2 7.85 -11.85 8 -11.65 8.05 -11.35L9.7 -11.35Q9.6 -12.5 8.85 -13 8.05 -13.45 6.9 -13.45M.7 -15L.7 -13.25 -.2 -13.25 -.2 -12.05 .7 -12.05 .7 -8.1Q.7 -7.5 1 -7.2 1.45 -6.75 2.6 -6.8L3.4 -6.85 3.4 -8.1 3.1 -8.1Q2.55 -8.1 2.45 -8.15 2.35 -8.25 2.35 -8.65L2.35 -12.05 3.4 -12.05 3.4 -13.25 2.35 -13.25 2.35 -15 .7 -15M-3.5 -13.45Q-4.95 -13.45 -5.75 -12.5 -6.55 -11.6 -6.55 -9.95 -6.55 -8.5 -5.8 -7.6 -5.1 -6.7 -3.55 -6.7 -2 -6.7 -1.2 -7.8 -.7 -8.45 -.65 -9.2L-2.35 -9.2Q-2.4 -8.7 -2.65 -8.4 -2.9 -8.1 -3.5 -8.1 -4.3 -8.1 -4.6 -8.9 -4.8 -9.3 -4.8 -10 -4.8 -10.75 -4.6 -11.2 -4.3 -12.05 -3.45 -12.05 -2.85 -12.05 -2.6 -11.65 -2.4 -11.35 -2.35 -11L-.65 -11Q-.8 -12.35 -1.55 -12.9 -2.3 -13.45 -3.5 -13.45M-10.15 -13.45Q-11.55 -13.45 -12.45 -12.55 -13.3 -11.7 -13.3 -10 -13.3 -8.25 -12.35 -7.45 -11.35 -6.7 -10.1 -6.7 -8.55 -6.7 -7.7 -7.6 -7.15 -8.2 -7.1 -8.75L-8.8 -8.75Q-8.95 -8.5 -9.15 -8.35 -9.5 -8.05 -10.05 -8.05 -10.6 -8.05 -10.95 -8.3 -11.6 -8.65 -11.65 -9.6L-7 -9.6Q-7 -10.45 -7.05 -10.9 -7.15 -11.65 -7.55 -12.2 -8 -12.85 -8.65 -13.15 -9.35 -13.45 -10.15 -13.45M-11.15 -11.7Q-10.8 -12.1 -10.15 -12.1 -9.55 -12.1 -9.15 -11.75 -8.75 -11.4 -8.7 -10.75L-11.6 -10.75Q-11.5 -11.35 -11.15 -11.7M-14.35 -13.25L-16.05 -13.25 -16.05 -6.25Q-16.05 -5.9 -16.15 -5.75 -16.3 -5.65 -16.55 -5.65L-16.65 -5.65 -16.85 -5.7 -16.85 -4.35 -16.45 -4.35 -16.25 -4.3Q-15.15 -4.3 -14.75 -4.8 -14.35 -5.25 -14.35 -6.2L-14.35 -13.25M-14.35 -15.6L-16.05 -15.6 -16.05 -14.05 -14.35 -14.05 -14.35 -15.6M-20.55 -13.5Q-22.2 -13.5 -23 -12.5 -23.8 -11.45 -23.8 -10.1 -23.8 -8.7 -23 -7.7 -22.2 -6.7 -20.55 -6.7 -18.9 -6.7 -18.1 -7.7 -17.3 -8.7 -17.3 -10.1 -17.3 -11.45 -18.1 -12.5 -18.9 -13.5 -20.55 -13.5M-21.7 -11.55Q-21.3 -12.1 -20.55 -12.1 -19.8 -12.1 -19.45 -11.55 -19.05 -11.05 -19.05 -10.1 -19.05 -9.15 -19.45 -8.6 -19.8 -8.1 -20.55 -8.1 -21.3 -8.1 -21.7 -8.6 -22.1 -9.15 -22.1 -10.1 -22.1 -11.05 -21.7 -11.55M-24.5 -13.45Q-24.55 -13.45 -24.6 -13.45 -25.35 -13.45 -25.8 -13.05 -26.1 -12.8 -26.5 -12.15L-26.5 -13.3 -28.1 -13.3 -28.1 -6.9 -26.4 -6.9 -26.4 -9.95Q-26.4 -10.7 -26.2 -11.1 -25.85 -11.75 -24.85 -11.75L-24.65 -11.75 -24.4 -11.7 -24.4 -13.45Q-24.45 -13.45 -24.5 -13.45M-33.8 -13.3L-35.4 -13.3 -35.4 -4.4 -33.75 -4.4 -33.75 -7.7Q-33.5 -7.3 -33.2 -7.1 -32.7 -6.7 -31.95 -6.7 -30.75 -6.7 -30 -7.6 -29.2 -8.5 -29.2 -10.2 -29.2 -11.75 -30 -12.6 -30.8 -13.45 -31.9 -13.45 -32.7 -13.45 -33.25 -13 -33.55 -12.75 -33.8 -12.35L-33.8 -13.3M-31.3 -11.4Q-30.95 -10.85 -30.95 -10.1 -30.95 -9.2 -31.3 -8.65 -31.7 -8.1 -32.4 -8.1 -32.85 -8.1 -33.25 -8.4 -33.8 -8.85 -33.8 -9.95 -33.8 -10.65 -33.65 -11.1 -33.3 -11.95 -32.4 -11.95 -31.6 -11.95 -31.3 -11.4Z"/></g><animate attributeName="display" repeatCount="indefinite" dur="14.333s" keyTimes="0;.105;.988;1" values="none;inline;none;none"/></g><g display="none"><g id="bubble4" transform="translate(446.35 148.05)" opacity="0"><animate attributeName="opacity" repeatCount="indefinite" dur="14.333s" keyTimes="0;.92999;.985;1" values="1;1;0;0"/><use xlink:href="#FlashAICB_0_Isolation-Mode_.__3CPath.__3E" transform="matrix(-1 0 0 1 44.85 -20.15)" opacity=".83"/><path fill="#232020" stroke="none" d="M34.1 -7.6Q32.8 -7.6 32.1 -7 31.4 -6.35 31.4 -5.45 31.4 -4.7 31.85 -4.3 32.3 -3.9 33.4 -3.65 34.9 -3.3 35.15 -3.15 35.4 -3 35.4 -2.7 35.4 -2.4 35.1 -2.25 34.8 -2.1 34.3 -2.1 33.45 -2.1 33.15 -2.45 33 -2.65 32.9 -3.1L31.25 -3.1Q31.25 -2.1 31.95 -1.45 32.65 -.85 34.2 -.85 35.65 -.85 36.35 -1.45 37.05 -2.05 37.05 -3 37.05 -3.7 36.6 -4.2 36.1 -4.65 35.1 -4.9 33.6 -5.2 33.35 -5.35 33.1 -5.5 33.1 -5.75 33.1 -6 33.35 -6.15 33.55 -6.35 34.1 -6.35 34.75 -6.35 35.05 -6 35.2 -5.8 35.25 -5.5L36.9 -5.5Q36.8 -6.65 36.05 -7.15 35.25 -7.6 34.1 -7.6M27.9 -9.15L27.9 -7.4 27 -7.4 27 -6.2 27.9 -6.2 27.9 -2.25Q27.9 -1.65 28.2 -1.35 28.65 -.9 29.8 -.95L30.6 -1 30.6 -2.25 30.3 -2.25Q29.75 -2.25 29.65 -2.3 29.55 -2.4 29.55 -2.8L29.55 -6.2 30.6 -6.2 30.6 -7.4 29.55 -7.4 29.55 -9.15 27.9 -9.15M22 -7.4L20.4 -7.4 20.4 -1.05 22.05 -1.05 22.05 -4.5Q22.05 -5.1 22.25 -5.5 22.55 -6.2 23.4 -6.2 24.05 -6.2 24.3 -5.7 24.45 -5.45 24.45 -4.95L24.45 -1.05 26.15 -1.05 26.15 -5.35Q26.15 -6.55 25.55 -7.05 24.9 -7.6 23.9 -7.6 23.15 -7.6 22.6 -7.2 22.35 -7 22 -6.5L22 -7.4M17.9 -7.3Q17.2 -7.6 16.4 -7.6 15 -7.6 14.1 -6.7 13.25 -5.85 13.25 -4.15 13.25 -2.4 14.2 -1.6 15.2 -.85 16.45 -.85 18 -.85 18.85 -1.75 19.4 -2.35 19.45 -2.9L17.75 -2.9Q17.6 -2.65 17.4 -2.5 17.05 -2.2 16.5 -2.2 15.95 -2.2 15.6 -2.45 14.95 -2.8 14.9 -3.75L19.55 -3.75Q19.55 -4.6 19.5 -5.05 19.4 -5.8 19 -6.35 18.55 -7 17.9 -7.3M17.4 -5.9Q17.8 -5.55 17.85 -4.9L14.95 -4.9Q15.05 -5.5 15.4 -5.85 15.75 -6.25 16.4 -6.25 17 -6.25 17.4 -5.9M8.35 -7.45L6.45 -7.45 8.75 -1.05 10.5 -1.05 12.8 -7.45 11 -7.45 9.65 -2.75 8.35 -7.45M4.6 -7.3Q3.9 -7.6 3.1 -7.6 1.7 -7.6 .8 -6.7 -.05 -5.85 -.05 -4.15 -.05 -2.4 .9 -1.6 1.9 -.85 3.15 -.85 4.7 -.85 5.55 -1.75 6.1 -2.35 6.15 -2.9L4.45 -2.9Q4.3 -2.65 4.1 -2.5 3.75 -2.2 3.2 -2.2 2.65 -2.2 2.3 -2.45 1.65 -2.8 1.6 -3.75L6.25 -3.75Q6.25 -4.6 6.2 -5.05 6.1 -5.8 5.7 -6.35 5.25 -7 4.6 -7.3M1.65 -4.9Q1.75 -5.5 2.1 -5.85 2.45 -6.25 3.1 -6.25 3.7 -6.25 4.1 -5.9 4.5 -5.55 4.55 -4.9L1.65 -4.9M-5.35 -7.3Q-6.05 -7.6 -6.85 -7.6 -8.25 -7.6 -9.15 -6.7 -10 -5.85 -10 -4.15 -10 -2.4 -9.05 -1.6 -8.05 -.85 -6.8 -.85 -5.25 -.85 -4.4 -1.75 -3.85 -2.35 -3.8 -2.9L-5.5 -2.9Q-5.65 -2.65 -5.85 -2.5 -6.2 -2.2 -6.75 -2.2 -7.3 -2.2 -7.65 -2.45 -8.3 -2.8 -8.35 -3.75L-3.7 -3.75Q-3.7 -4.6 -3.75 -5.05 -3.85 -5.8 -4.25 -6.35 -4.7 -7 -5.35 -7.3M-5.85 -5.9Q-5.45 -5.55 -5.4 -4.9L-8.3 -4.9Q-8.2 -5.5 -7.85 -5.85 -7.5 -6.25 -6.85 -6.25 -6.25 -6.25 -5.85 -5.9M-13.3 -7.6Q-14.05 -7.6 -14.6 -7.2 -14.85 -7 -15.2 -6.5L-15.2 -7.4 -16.8 -7.4 -16.8 -1.05 -15.15 -1.05 -15.15 -4.5Q-15.15 -5.1 -14.95 -5.5 -14.65 -6.2 -13.8 -6.2 -13.15 -6.2 -12.9 -5.7 -12.75 -5.45 -12.75 -4.95L-12.75 -1.05 -11.05 -1.05 -11.05 -5.35Q-11.05 -6.55 -11.65 -7.05 -12.3 -7.6 -13.3 -7.6M-18.4 -8.2L-18.4 -9.75 -20.1 -9.75 -20.1 -8.2 -18.4 -8.2M-20.1 -7.45L-20.1 -1.05 -18.4 -1.05 -18.4 -7.45 -20.1 -7.45M-21.7 -9.7L-23.4 -9.7 -23.4 -1.05 -21.7 -1.05 -21.7 -9.7M-30.7 -7.4L-30.7 -1.05 -29.05 -1.05 -29.05 -4.5Q-29.05 -5.1 -28.85 -5.5 -28.55 -6.2 -27.7 -6.2 -27.05 -6.2 -26.8 -5.7 -26.65 -5.45 -26.65 -4.95L-26.65 -1.05 -24.95 -1.05 -24.95 -5.35Q-24.95 -6.55 -25.55 -7.05 -26.2 -7.6 -27.2 -7.6 -27.95 -7.6 -28.5 -7.2 -28.75 -7 -29.1 -6.5L-29.1 -7.4 -30.7 -7.4M-32.7 -6.65Q-33.5 -7.65 -35.15 -7.65 -36.8 -7.65 -37.6 -6.65 -38.4 -5.6 -38.4 -4.25 -38.4 -2.85 -37.6 -1.85 -36.8 -.85 -35.15 -.85 -33.5 -.85 -32.7 -1.85 -31.9 -2.85 -31.9 -4.25 -31.9 -5.6 -32.7 -6.65M-36.3 -2.75Q-36.7 -3.3 -36.7 -4.25 -36.7 -5.2 -36.3 -5.7 -35.9 -6.25 -35.15 -6.25 -34.4 -6.25 -34.05 -5.7 -33.65 -5.2 -33.65 -4.25 -33.65 -3.3 -34.05 -2.75 -34.4 -2.25 -35.15 -2.25 -35.9 -2.25 -36.3 -2.75Z"/></g><animate attributeName="display" repeatCount="indefinite" dur="14.333s" keyTimes="0;.317;.988;1" values="none;inline;none;none"/></g><g display="none"><g id="bubble3" transform="translate(139.9 288.8)" opacity="0"><animate attributeName="opacity" repeatCount="indefinite" dur="14.333s" keyTimes="0;.92999;.985;1" values="1;1;0;0"/><use xlink:href="#FlashAICB_0_Isolation-Mode_.__3CPath.__3E" transform="matrix(1 0 0 -1 -44.8 20.2)" opacity=".83"/><path fill="#232020" stroke="none" d="M36.95 3.8Q36.85 2.5 36 2 35.2 1.5 33.9 1.5 32.55 1.5 31.8 2.2 31 2.85 31 3.8 31 4.65 31.5 5.05 32 5.5 33.15 5.8 34.8 6.2 35.05 6.35 35.3 6.5 35.3 6.8 35.3 7.1 35 7.3 34.7 7.45 34.15 7.45 33.25 7.45 32.9 7.1 32.7 6.85 32.65 6.4L30.8 6.4Q30.8 7.45 31.6 8.15 32.35 8.85 34 8.85 35.6 8.85 36.35 8.2 37.15 7.55 37.15 6.5 37.15 5.7 36.6 5.2 36.05 4.7 35 4.45 33.35 4.1 33.1 3.95 32.85 3.8 32.85 3.5 32.85 3.25 33.1 3.05 33.35 2.85 33.9 2.85 34.65 2.85 34.95 3.25 35.1 3.45 35.15 3.8L36.95 3.8M29 -.2L27.2 -.2 27.2 1.75 26.25 1.75 26.25 3.05 27.2 3.05 27.2 7.3Q27.2 7.95 27.5 8.25 27.95 8.75 29.25 8.7L30.1 8.65 30.1 7.3 29.75 7.3Q29.2 7.3 29.1 7.2 29 7.1 29 6.7L29 3.05 30.1 3.05 30.1 1.75 29 1.75 29 -.2M24.6 2.1Q23.95 1.5 22.9 1.5 22 1.5 21.45 1.95 21.15 2.15 20.8 2.7L20.8 1.7 19.05 1.7 19.05 8.6 20.85 8.6 20.85 4.85Q20.85 4.2 21.05 3.8 21.4 3 22.3 3 23.05 3 23.3 3.55 23.45 3.85 23.45 4.4L23.45 8.6 25.3 8.6 25.3 3.95Q25.3 2.65 24.6 2.1M17.55 2.85Q17.05 2.15 16.35 1.8 15.65 1.5 14.75 1.5 13.2 1.5 12.25 2.45 11.3 3.4 11.3 5.2 11.3 7.15 12.35 8 13.4 8.85 14.8 8.85 16.45 8.85 17.4 7.85 18 7.2 18.05 6.6L16.2 6.6Q16.05 6.9 15.85 7.05 15.45 7.35 14.85 7.35 14.25 7.35 13.85 7.1 13.15 6.7 13.1 5.65L18.15 5.65Q18.15 4.75 18.1 4.3 18 3.45 17.55 2.85M15.8 3.35Q16.25 3.75 16.3 4.45L13.15 4.45Q13.25 3.8 13.65 3.4 14.05 3 14.75 3 15.35 3 15.8 3.35M6.45 8.6L8.35 8.6 10.85 1.7 8.9 1.7 7.45 6.8 6 1.7 3.95 1.7 6.45 8.6M-.55 7.1Q-1.25 6.7 -1.3 5.65L3.75 5.65Q3.75 4.75 3.7 4.3 3.6 3.45 3.15 2.85 2.65 2.15 1.95 1.8 1.25 1.5 .35 1.5 -1.2 1.5 -2.15 2.45 -3.1 3.4 -3.1 5.2 -3.1 7.15 -2.05 8 -1 8.85 .4 8.85 2.05 8.85 3 7.85 3.6 7.2 3.65 6.6L1.8 6.6Q1.65 6.9 1.45 7.05 1.05 7.35 .45 7.35 -.15 7.35 -.55 7.1M-1.25 4.45Q-1.15 3.8 -.75 3.4 -.35 3 .35 3 .95 3 1.4 3.35 1.85 3.75 1.9 4.45L-1.25 4.45M-7.9 -.75L-9.7 -.75 -9.7 8.6 -7.9 8.6 -7.9 -.75M-13.1 3.7Q-13.1 4.05 -13.5 4.25 -13.7 4.35 -14.2 4.4L-14.85 4.45Q-15.9 4.6 -16.45 4.9 -17.45 5.5 -17.45 6.75 -17.45 7.75 -16.8 8.3 -16.2 8.8 -15.25 8.8 -14.5 8.8 -13.9 8.5 -13.45 8.2 -13.05 7.8L-12.9 8.6 -10.9 8.6 -10.9 8.35Q-11.1 8.25 -11.2 8.1 -11.25 8 -11.3 7.65L-11.3 3.65Q-11.3 2.4 -12.2 1.95 -13.1 1.5 -14.2 1.5 -15.95 1.5 -16.7 2.45 -17.15 3 -17.2 3.9L-15.45 3.9Q-15.4 3.5 -15.2 3.3 -14.95 2.95 -14.3 2.95 -13.7 2.95 -13.4 3.15 -13.1 3.3 -13.1 3.7M-13.1 5.25L-13.1 5.9Q-13.15 6.8 -13.65 7.15 -14.1 7.5 -14.7 7.5 -15.1 7.5 -15.35 7.3 -15.6 7.1 -15.6 6.65 -15.6 6.1 -15.2 5.85 -14.95 5.7 -14.35 5.6L-13.95 5.55 -13.45 5.4 -13.1 5.25M-18.2 6.1L-20.05 6.1Q-20.1 6.65 -20.35 7 -20.6 7.3 -21.25 7.3 -22.15 7.3 -22.5 6.45 -22.65 6 -22.65 5.25 -22.65 4.45 -22.5 3.95 -22.15 3.05 -21.2 3.05 -20.6 3.05 -20.3 3.45 -20.05 3.8 -20 4.15L-18.15 4.15Q-18.3 2.7 -19.15 2.1 -19.95 1.5 -21.25 1.5 -22.8 1.5 -23.7 2.5 -24.55 3.5 -24.55 5.25 -24.55 6.85 -23.75 7.85 -23 8.85 -21.3 8.85 -19.65 8.85 -18.8 7.65 -18.25 6.9 -18.2 6.1M-25.4 5.15Q-25.4 3.65 -26.3 2.55 -27.15 1.45 -28.95 1.45 -30.75 1.45 -31.6 2.55 -32.5 3.65 -32.5 5.15 -32.5 6.65 -31.6 7.75 -30.75 8.85 -28.95 8.85 -27.15 8.85 -26.3 7.75 -25.4 6.65 -25.4 5.15M-30.15 3.55Q-29.75 3 -28.95 3 -28.15 3 -27.75 3.55 -27.3 4.1 -27.3 5.15 -27.3 6.2 -27.75 6.75 -28.15 7.3 -28.95 7.3 -29.75 7.3 -30.15 6.75 -30.6 6.2 -30.6 5.15 -30.6 4.1 -30.15 3.55M-33.8 -.75L-35.6 -.75 -35.6 8.6 -33.8 8.6 -33.8 -.75Z"/></g><animate attributeName="display" repeatCount="indefinite" dur="14.333s" keyTimes="0;.547;.988;1" values="none;inline;none;none"/></g><g display="none"><use xlink:href="#pin" transform="matrix(.171 0 0 .169 285.9 136.4)" opacity="0"><animateTransform attributeName="transform" additive="replace" type="translate" repeatCount="indefinite" dur="14.333s" keyTimes="0;.067;.084;.13099;.131;.16;1" values="286.216,130.017;286.216,130.017;286.25,116.55;286.25,116.55;286.25,116.6;285.952,132.952;285.952,132.952"/><animateTransform attributeName="transform" additive="sum" type="scale" repeatCount="indefinite" dur="14.333s" keyTimes="0;.067;.084;.13099;.16;1" values=".289,.288;.289,.288;1,1;1,1;.171,.169;.171,.169"/><animateTransform attributeName="transform" additive="sum" type="translate" repeatCount="indefinite" dur="14.333s" keyTimes="0;.067;.084;.13099;.16;1" values="-.4,19.9;-.4,19.9;0,20.65;0,20.65;-.6,20.05;-.6,20.05"/><animate attributeName="opacity" repeatCount="indefinite" dur="14.333s" keyTimes="0;.067;.084;.13099;.16;1" values=".14;.14;1;1;0;0"/></use><animate attributeName="display" repeatCount="indefinite" dur="14.333s" keyTimes="0;.067;.163;1" values="none;inline;none;none"/></g><g display="none"><use xlink:href="#pin" transform="matrix(.171 0 0 .169 247.9 136.2)" opacity="0"><animateTransform attributeName="transform" additive="replace" type="translate" repeatCount="indefinite" dur="14.333s" keyTimes="0;.686;.704;.76499;.765;.779;1" values="247.701,130.502;247.701,130.502;247.75,116.05;247.75,116.05;247.75,115.55;247.952,132.76;247.952,132.76"/><animateTransform attributeName="transform" additive="sum" type="scale" repeatCount="indefinite" dur="14.333s" keyTimes="0;.686;.704;.76499;.779;1" values=".289,.288;.289,.288;1,1;1,1;.171,.169;.171,.169"/><animateTransform attributeName="transform" additive="sum" type="translate" repeatCount="indefinite" dur="14.333s" keyTimes="0;.686;.704;.76499;.779;1" values="-.35,19.95;-.35,19.95;0,20.65;0,20.65;-.6,20;-.6,20"/><animate attributeName="opacity" repeatCount="indefinite" dur="14.333s" keyTimes="0;.686;.704;.76499;.779;1" values=".14;.14;1;1;0;0"/></use><animate attributeName="display" repeatCount="indefinite" dur="14.333s" keyTimes="0;.686;.782;1" values="none;inline;none;none"/></g><g display="none"><use xlink:href="#pin" transform="matrix(.171 0 0 .169 247.4 116.4)" opacity="0"><animateTransform attributeName="transform" additive="replace" type="translate" repeatCount="indefinite" dur="14.333s" keyTimes="0;.427;.445;.50599;.506;.52;1" values="247.701,110.502;247.701,110.502;247.25,95.55;247.25,95.55;247.25,95.6;247.452,112.952;247.452,112.952"/><animateTransform attributeName="transform" additive="sum" type="scale" repeatCount="indefinite" dur="14.333s" keyTimes="0;.427;.445;.50599;.52;1" values=".289,.288;.289,.288;1,1;1,1;.171,.169;.171,.169"/><animateTransform attributeName="transform" additive="sum" type="translate" repeatCount="indefinite" dur="14.333s" keyTimes="0;.427;.445;.50599;.52;1" values="-.35,19.95;-.35,19.95;0,20.65;0,20.65;-.6,20.05;-.6,20.05"/><animate attributeName="opacity" repeatCount="indefinite" dur="14.333s" keyTimes="0;.427;.445;.50599;.52;1" values=".14;.14;1;1;0;0"/></use><animate attributeName="display" repeatCount="indefinite" dur="14.333s" keyTimes="0;.427;.523;1" values="none;inline;none;none"/></g><g display="none"><use xlink:href="#pin" transform="matrix(.171 0 0 .169 247.5 168.65)" opacity="0"><animateTransform attributeName="transform" additive="replace" type="translate" repeatCount="indefinite" dur="14.333s" keyTimes="0;.026;.044;.10499;.105;.131;1" values="247.416,163.102;247.416,163.102;247.7,148.15;247.7,148.15;247.55,148.35;247.552,165.202;247.552,165.202"/><animateTransform attributeName="transform" additive="sum" type="scale" repeatCount="indefinite" dur="14.333s" keyTimes="0;.026;.044;.10499;.131;1" values=".289,.288;.289,.288;1,1;1,1;.171,.169;.171,.169"/><animateTransform attributeName="transform" additive="sum" type="translate" repeatCount="indefinite" dur="14.333s" keyTimes="0;.026;.044;.10499;.131;1" values="-.4,19.95;-.4,19.95;0,20.65;0,20.65;-.6,20.05;-.6,20.05"/><animate attributeName="opacity" repeatCount="indefinite" dur="14.333s" keyTimes="0;.026;.044;.10499;.131;1" values=".14;.14;1;1;0;0"/></use><animate attributeName="display" repeatCount="indefinite" dur="14.333s" keyTimes="0;.026;.134;1" values="none;inline;none;none"/></g><g display="none"><use xlink:href="#pin" transform="matrix(.171 0 0 .169 332.4 252.9)" opacity="0"><animateTransform attributeName="transform" additive="replace" type="translate" repeatCount="indefinite" dur="14.333s" keyTimes="0;.669;.686;.74699;.747;.762;1" values="332.201,247.502;332.201,247.502;332.25,233.05;332.25,233.05;332.25,232.6;332.452,249.452;332.452,249.452"/><animateTransform attributeName="transform" additive="sum" type="scale" repeatCount="indefinite" dur="14.333s" keyTimes="0;.669;.686;.74699;.762;1" values=".289,.288;.289,.288;1,1;1,1;.171,.169;.171,.169"/><animateTransform attributeName="transform" additive="sum" type="translate" repeatCount="indefinite" dur="14.333s" keyTimes="0;.669;.686;.74699;.762;1" values="-.35,19.95;-.35,19.95;0,20.65;0,20.65;-.6,20.05;-.6,20.05"/><animate attributeName="opacity" repeatCount="indefinite" dur="14.333s" keyTimes="0;.669;.686;.74699;.762;1" values=".14;.14;1;1;0;0"/></use><animate attributeName="display" repeatCount="indefinite" dur="14.333s" keyTimes="0;.669;.765;1" values="none;inline;none;none"/></g><g display="none"><use xlink:href="#pin" transform="matrix(.171 0 0 .169 331.9 168.75)" opacity="0"><animateTransform attributeName="transform" additive="replace" type="translate" repeatCount="indefinite" dur="14.333s" keyTimes="0;.39;.407;.46799;.483;1" values="332.201,162.452;332.201,162.452;331.75,148.55;331.75,148.55;331.961,165.302;331.961,165.302"/><animateTransform attributeName="transform" additive="sum" type="scale" repeatCount="indefinite" dur="14.333s" keyTimes="0;.39;.407;.46799;.483;1" values=".289,.288;.289,.288;1,1;1,1;.171,.169;.171,.169"/><animateTransform attributeName="transform" additive="sum" type="translate" repeatCount="indefinite" dur="14.333s" keyTimes="0;.39;.407;.46799;.483;1" values="-.35,19.95;-.35,19.95;0,20.65;0,20.65;-.65,20.05;-.65,20.05"/><animate attributeName="opacity" repeatCount="indefinite" dur="14.333s" keyTimes="0;.39;.407;.46799;.483;1" values=".14;.14;1;1;0;0"/></use><animate attributeName="display" repeatCount="indefinite" dur="14.333s" keyTimes="0;.39;.485;1" values="none;inline;none;none"/></g><g display="none"><use xlink:href="#pin" transform="matrix(.171 0 0 .169 316.1 214.8)" opacity="0"><animateTransform attributeName="transform" additive="replace" type="translate" repeatCount="indefinite" dur="14.333s" keyTimes="0;.047;.064;.12499;.125;.14;1" values="315.716,209.317;315.716,209.317;316.05,194.55;316.05,194.55;315.65,195.15;316.152,211.352;316.152,211.352"/><animateTransform attributeName="transform" additive="sum" type="scale" repeatCount="indefinite" dur="14.333s" keyTimes="0;.047;.064;.12499;.14;1" values=".289,.288;.289,.288;1,1;1,1;.171,.169;.171,.169"/><animateTransform attributeName="transform" additive="sum" type="translate" repeatCount="indefinite" dur="14.333s" keyTimes="0;.047;.064;.12499;.14;1" values="-.4,19.9;-.4,19.9;0,20.65;0,20.65;-.6,20.05;-.6,20.05"/><animate attributeName="opacity" repeatCount="indefinite" dur="14.333s" keyTimes="0;.047;.064;.12499;.14;1" values=".14;.14;1;1;0;0"/></use><animate attributeName="display" repeatCount="indefinite" dur="14.333s" keyTimes="0;.047;.142;1" values="none;inline;none;none"/></g><g display="none"><use xlink:href="#pin" transform="matrix(.171 0 0 .169 331.9 136.9)" opacity="0"><animateTransform attributeName="transform" additive="replace" type="translate" repeatCount="indefinite" dur="14.333s" keyTimes="0;.724;.741;.79099;.791;.805;1" values="332.201,130.502;332.201,130.502;332.25,115.55;332.25,115.55;332.25,116.1;331.961,133.452;331.961,133.452"/><animateTransform attributeName="transform" additive="sum" type="scale" repeatCount="indefinite" dur="14.333s" keyTimes="0;.724;.741;.79099;.805;1" values=".289,.288;.289,.288;1,1;1,1;.171,.169;.171,.169"/><animateTransform attributeName="transform" additive="sum" type="translate" repeatCount="indefinite" dur="14.333s" keyTimes="0;.724;.741;.79099;.805;1" values="-.35,19.95;-.35,19.95;0,20.65;0,20.65;-.65,20.05;-.65,20.05"/><animate attributeName="opacity" repeatCount="indefinite" dur="14.333s" keyTimes="0;.724;.741;.79099;.805;1" values=".14;.14;1;1;0;0"/></use><animate attributeName="display" repeatCount="indefinite" dur="14.333s" keyTimes="0;.724;.808;1" values="none;inline;none;none"/></g><g display="none"><use xlink:href="#pin" transform="matrix(.171 0 0 .169 247.4 168.25)" opacity="0"><animateTransform attributeName="transform" additive="replace" type="translate" repeatCount="indefinite" dur="14.333s" keyTimes="0;.358;.375;.43599;.436;.451;1" values="247.216,162.452;247.216,162.452;247.25,148.55;247.25,148.55;247.25,148.1;247.452,164.802;247.452,164.802"/><animateTransform attributeName="transform" additive="sum" type="scale" repeatCount="indefinite" dur="14.333s" keyTimes="0;.358;.375;.43599;.451;1" values=".289,.288;.289,.288;1,1;1,1;.171,.169;.171,.169"/><animateTransform attributeName="transform" additive="sum" type="translate" repeatCount="indefinite" dur="14.333s" keyTimes="0;.358;.375;.43599;.451;1" values="-.4,19.95;-.4,19.95;0,20.65;0,20.65;-.6,20.05;-.6,20.05"/><animate attributeName="opacity" repeatCount="indefinite" dur="14.333s" keyTimes="0;.358;.375;.43599;.451;1" values=".14;.14;1;1;0;0"/></use><animate attributeName="display" repeatCount="indefinite" dur="14.333s" keyTimes="0;.358;.453;1" values="none;inline;none;none"/></g></g></svg>