<?xml version="1.0" encoding="utf-8"?><svg id="hero-motion" image-rendering="auto" baseProfile="basic" version="1.1" x="0px" y="0px" width="550" height="400" xmlns="http://www.w3.org/2000/svg" xmlns:xlink="http://www.w3.org/1999/xlink"><defs><g id="FlashAICB_0_Isolation-Mode_.__3CPath.__3E" overflow="visible"><path fill="#FFF" stroke="none" d="M89.65 32L89.65 0 0 0 0 32 47.8 32Q48.35 35.5 51 37.9 53.75 40.3 57.35 40.35L57.35 32 89.65 32Z"/></g><g id="pin" overflow="visible"><path fill="#E05F41" stroke="none" d="M7.65 -10.45Q14.3 -21.05 14.3 -26.15 14.3 -32 10.15 -36.15 6 -40.3 .15 -40.3 -5.75 -40.3 -9.85 -36.15 -14 -32 -14 -26.15 -14 -21 -7.35 -10.25 -1.05 -.1 .15 -.45 1.55 -.75 7.65 -10.45M6.7 -26.15Q6.7 -23.4 4.8 -21.5 2.85 -19.55 .15 -19.55 -2.6 -19.55 -4.5 -21.5 -6.45 -23.4 -6.45 -26.15 -6.45 -28.85 -4.5 -30.75 -2.6 -32.7 .15 -32.7 2.85 -32.7 4.8 -30.75 6.7 -28.85 6.7 -26.15Z"/><path fill="#BB3C2C" stroke="none" d="M14.65 -26.15Q14.75 -29.45 13.25 -32.65 11.9 -35.8 9.2 -38 6.5 -40.25 3.05 -41 -.35 -41.75 -3.85 -40.75 -7.2 -39.8 -9.85 -37.35 -12.45 -34.95 -13.65 -31.75 -14.9 -28.35 -14.55 -25.05 -14.25 -22.7 -12.55 -18.7 -11.5 -16.45 -9.4 -12.95L-5.9 -7.4Q-3.5 -3.8 -2.15 -2.1 -1.45 -1.2 -1.05 -.8 -.8 -.45 -.4 -.2L-.15 -.05 .15 0 .4 -.05 .85 -.4Q1.5 -1 3.05 -2.9 7.1 -8 10.35 -13.75 12.2 -17.1 13.15 -19.7 14.55 -23.8 14.65 -26.15M12.4 -32.2Q13.95 -29.35 14 -26.15 13.95 -23.95 12.25 -20.05L9.25 -14.35Q5.4 -7.9 2.2 -3.55 .75 -1.65 .2 -1.1L.1 -.95 -.45 -1.45 -1.5 -2.6Q-3.1 -4.45 -5.4 -7.8 -8.75 -12.65 -11.55 -19.15 -13.05 -22.85 -13.35 -25.2 -13.6 -28.4 -12.3 -31.2 -11.05 -34.05 -8.65 -36.05 -6.25 -38.15 -3.3 -38.85 -.45 -39.55 2.7 -39.1 5.55 -38.65 8.25 -36.8 10.85 -35.1 12.4 -32.2Z"/><path fill="#BB3C2C" stroke="none" d="M5.3 -21Q7.6 -23 7.7 -26.15 7.85 -29.2 5.35 -31.35 3.1 -33.15 .15 -33.05 -1.65 -32.95 -2.55 -32.65 -3.95 -32.25 -4.95 -31.25 -7.1 -29.25 -7 -26.15 -6.85 -23.35 -4.75 -21.25 -2.25 -19.15 .15 -19 3.05 -18.9 5.3 -21M5.7 -26.15Q5.85 -23.8 4.3 -22 2.65 -20.2 .15 -20.1 -1.05 -20 -2.25 -20.4 -3.25 -20.75 -4.3 -21.7 -6.05 -23.55 -5.9 -26.15 -5.75 -28.5 -4.05 -30.35 -3.25 -31.15 -2.2 -31.75 -1.05 -32.4 .15 -32.4 2.6 -32.3 4.25 -30.25 5.6 -28.5 5.7 -26.15Z"/></g></defs><g id="Scene-1" overflow="visible"><path fill="#2F3590" fill-opacity=".317" stroke="none" d="M454.6 91.5Q420.1 70.25 375.35 58.6 329 46.55 278.3 46.55 219.95 46.55 168 62.35 117.8 77.6 82.85 104.7 79.35 107.45 77.05 109.4 70.5 115.2 69.6 122.05 68.7 129 73.75 136.1 76 140.6 72.4 144.25 68.25 147.55 61.05 151.2 57.05 153.25 49.05 157.25 45.95 158.9 43.5 160.6 33.75 165.5 28.2 174.65 22.9 183.2 22.4 193.6 21.9 203.9 26.25 213.15 30.8 222.85 39.7 229 42.1 230.9 44.9 232.35 50.65 235.4 58.1 236.65 60.05 237.3 64.7 238.75 68.7 240 70.75 240.75 77.1 243.05 80.65 246.2 84.85 249.95 86 255.65 86.45 258.4 83.95 260.75 82.4 262.25 77.85 264.85 67.65 270.7 65.6 276.05 65.6 278.8 67.4 281.35 68.55 283 71.55 285.85 73.7 287.85 76.4 290.15 111.05 319.5 163.25 336.25 217.1 353.5 278.3 353.5 329.05 353.5 375.35 341.45 420.1 329.8 454.6 308.55 489.1 287.3 508.05 259.8 527.65 231.25 527.65 200.05 527.65 168.85 508.05 140.3 489.1 112.75 454.6 91.5Z"/><g id="globe" transform="translate(279 195.05)"><path fill="#03AEEF" stroke="none" d="M80.55 -80.6Q47.2 -113.95 0 -113.95 -47.2 -113.95 -80.6 -80.6 -113.95 -47.2 -113.95 0 -113.95 47.2 -80.6 80.55 -47.2 113.95 0 113.95 47.2 113.95 80.55 80.55 113.95 47.2 113.95 0 113.95 -47.2 80.55 -80.6Z"/><path id="Layer18_0_1_STROKES" stroke="#03AEEF" stroke-opacity=".2" stroke-width="12.2" stroke-linejoin="round" stroke-linecap="round" fill="none" d="M113.95 0Q113.95 47.2 80.55 80.55 47.2 113.95 0 113.95 -47.2 113.95 -80.6 80.55 -113.95 47.2 -113.95 0 -113.95 -47.2 -80.6 -80.6 -47.2 -113.95 0 -113.95 47.2 -113.95 80.55 -80.6 113.95 -47.2 113.95 0Z"/></g><g mask="url(#mask_)"><g id="map" transform="translate(440 188.5)"><animateTransform attributeName="transform" additive="replace" type="translate" repeatCount="indefinite" dur="8.333s" keyTimes="0;.995;1" values="440,188.5;-55,188.5;-55,188.5" keySplines=".48 .5 .96 1;0 0 1 1" calcMode="spline"/><path fill="#68C3EC" stroke="none" d="M-181.85 -111.6L-207.6 -110.6 -232.35 -96.15 -206.6 -88.95 -208.65 -64.15 -212.75 -43.55 -198.35 -24.95 -175.65 -6.4 -156.05 3.9 -154 15.1Q-152.45 26.2 -155 25.55 -157.6 24.95 -149.85 38.1 -146 44.65 -141.6 51.35L-133.35 57.55 -128.2 118.4 -110.65 120.5 -112.7 95.7 -86.95 57.55 -78.65 31.75 -103.45 17.3 -114.8 4.95 -137.45 -5.35 -157.05 -3.3 -176.65 -20.85 -175.65 -37.35 -151.9 -37.35 -134.4 -61.05 -110.65 -70.35 -98.25 -92 -120.95 -101.3 -134.4 -92 -151.9 -98.2 -134.4 -108.55 -141.6 -114.7 -181.85 -111.6Z"/><path fill="#68C3EC" stroke="none" d="M149.25 -113Q132.5 -120.5 129.35 -120.5 124.35 -120.5 53.35 -114.5L12.35 -102.5 -15.65 -90.5 -31.65 -76.5 -30.65 -47.5 -3.65 -48.5 -36.65 -38.5 -50.65 -8.5 -25.65 20.5 -5.65 17.5 11.35 85.5Q16.35 85 21.85 83.5 32.85 80.5 35.35 75.5 37.85 70.5 43.85 47L49.35 24.5 67.35 1.5 44.35 -26.5 66.25 -12.65 80.35 -22.5 104.35 -10.5 116.35 10.5Q115.35 7 114.85 3 113.85 -5 116.35 -7.5 123.6 -14.75 124.6 -15.6 130.1 -20.4 131.35 -18.5 133.35 -15.5 143.35 -5.5L156.35 3.5 162.35 -8.5 178.35 -35.5 187.35 -44.5 187.35 -76.5 177.35 -87.5 196.35 -89.5 205.35 -70.5 206.35 -86.5 218.35 -97.5 165.35 -105.5Q157.6 -109.25 149.25 -113Z"/><path fill="#68C3EC" stroke="none" d="M163.35 25.5L170.35 35.5 184.35 21.5 174.35 10.5 163.35 25.5Z"/><path fill="#68C3EC" stroke="none" d="M207.35 -42.5L200.35 -65.5 196.35 -40.5 207.35 -42.5Z"/><path fill="#68C3EC" stroke="none" d="M164.6 75.65Q164.35 80.75 164.35 85.5L184.35 82.5 195.35 95.5 207.35 95.65Q219.85 95.9 222.35 96.5 224.85 97.15 228.85 81.9L232.35 66.5 207.35 46.5 190.35 50.5 186.5 52.9Q182.25 55.65 180.35 57.5 178.9 58.95 173 60.5 167.4 61.95 166.35 63.5 165.1 65.4 164.6 75.65Z"/><path fill="#68C3EC" stroke="none" d="M148.35 18.5L151.35 31.5 156.35 21.5 150.3 13.8 148.35 18.5Z"/><g><use xlink:href="#pin" transform="matrix(.171 0 0 .169 -136.9 10.5)"><animateTransform attributeName="transform" additive="replace" type="translate" repeatCount="indefinite" dur="8.333s" keyTimes="0;.005;.035;.13999;.14;.165;1" values="-136.859,7.052;-139.1,6.102;-140.3,-6.85;-140.3,-6.85;-139.45,-10.15;-139.45,6.21;-139.45,6.21"/><animateTransform attributeName="transform" additive="sum" type="scale" repeatCount="indefinite" dur="8.333s" keyTimes="0;.005;.035;.13999;.165;1" values=".171,.169;.289,.288;1,1;1,1;.171,.169;.171,.169"/><animateTransform attributeName="transform" additive="sum" type="translate" repeatCount="indefinite" dur="8.333s" keyTimes="0;.005;.035;.13999;.165;1" values=".05,20.05;0,19.95;0,20.65;0,20.65;0,20;0,20"/><animate attributeName="opacity" repeatCount="indefinite" dur="8.333s" keyTimes="0;.005;.035;.13999;.165;1" values="0;.14;1;1;0;0"/></use><animate attributeName="display" repeatCount="indefinite" dur="8.333s" keyTimes="0;.17;1" values="inline;none;none"/></g><g display="none"><use xlink:href="#pin" transform="matrix(.289 0 0 .288 -8.35 -47.4)"><animateTransform attributeName="transform" additive="replace" type="translate" repeatCount="indefinite" dur="8.333s" keyTimes="0;.225;.255;.35999;.36;.385;1" values="-8.3,-53.198;-8.3,-53.198;-9.45,-73.95;-9.45,-73.95;-10.35,-73.85;-10.35,-56.65;-10.35,-56.65"/><animateTransform attributeName="transform" additive="sum" type="scale" repeatCount="indefinite" dur="8.333s" keyTimes="0;.225;.255;.35999;.385;1" values=".289,.288;.289,.288;1,1;1,1;.171,.169;.171,.169"/><animateTransform attributeName="transform" additive="sum" type="translate" repeatCount="indefinite" dur="8.333s" keyTimes="0;.225;.255;1" values="0,20.3;0,20.3;0,20.65;0,20.65"/><animate attributeName="opacity" repeatCount="indefinite" dur="8.333s" keyTimes="0;.225;.255;.35999;.385;1" values=".14;.14;1;1;0;0"/></use><animate attributeName="display" repeatCount="indefinite" dur="8.333s" keyTimes="0;.225;.39;1" values="none;inline;none;none"/></g><g display="none"><use xlink:href="#pin" transform="matrix(.289 0 0 .288 167.6 -17.25)"><animateTransform attributeName="transform" additive="replace" type="translate" repeatCount="indefinite" dur="8.333s" keyTimes="0;.445;.475;.57999;.58;.605;1" values="167.651,-23.048;167.651,-23.048;169.7,-37.8;169.7,-37.8;169.7,-38.55;170.402,-20.5;170.402,-20.5"/><animateTransform attributeName="transform" additive="sum" type="scale" repeatCount="indefinite" dur="8.333s" keyTimes="0;.445;.475;.57999;.605;1" values=".289,.288;.289,.288;1,1;1,1;.171,.169;.171,.169"/><animateTransform attributeName="transform" additive="sum" type="translate" repeatCount="indefinite" dur="8.333s" keyTimes="0;.445;.475;.57999;.605;1" values="-.35,20.3;-.35,20.3;0,20.65;0,20.65;-.6,20.65;-.6,20.65"/><animate attributeName="opacity" repeatCount="indefinite" dur="8.333s" keyTimes="0;.445;.475;.57999;.605;1" values=".14;.14;1;1;0;0"/></use><animate attributeName="display" repeatCount="indefinite" dur="8.333s" keyTimes="0;.445;.61;1" values="none;inline;none;none"/></g></g></g><g mask="url(#mask_)" display="none"><g id="map-copyo125d200" transform="translate(625.3 188.5)"><animateTransform attributeName="transform" additive="replace" type="translate" repeatCount="indefinite" dur="8.333s" keyTimes="0;.625;.995;1" values="625.3,188.5;625.3,188.5;440,188.5;440,188.5" keySplines=".438 .5 .875 1;.438 .5 .875 1;0 0 1 1" calcMode="spline"/><g display="none" id="Layer6_0_FILL"><path fill="#68C3EC" stroke="none" d="M-181.85 -111.6L-207.6 -110.6 -232.35 -96.15 -206.6 -88.95 -208.65 -64.15 -212.75 -43.55 -198.35 -24.95 -175.65 -6.4 -156.05 3.9 -154 15.1Q-152.45 26.2 -155 25.55 -157.6 24.95 -149.85 38.1 -146 44.65 -141.6 51.35L-133.35 57.55 -128.2 118.4 -110.65 120.5 -112.7 95.7 -86.95 57.55 -78.65 31.75 -103.45 17.3 -114.8 4.95 -137.45 -5.35 -157.05 -3.3 -176.65 -20.85 -175.65 -37.35 -151.9 -37.35 -134.4 -61.05 -110.65 -70.35 -98.25 -92 -120.95 -101.3 -134.4 -92 -151.9 -98.2 -134.4 -108.55 -141.6 -114.7 -181.85 -111.6Z"/><path fill="#68C3EC" stroke="none" d="M149.25 -113Q132.5 -120.5 129.35 -120.5 124.35 -120.5 53.35 -114.5L12.35 -102.5 -15.65 -90.5 -31.65 -76.5 -30.65 -47.5 -3.65 -48.5 -36.65 -38.5 -50.65 -8.5 -25.65 20.5 -5.65 17.5 11.35 85.5Q16.35 85 21.85 83.5 32.85 80.5 35.35 75.5 37.85 70.5 43.85 47L49.35 24.5 67.35 1.5 44.35 -26.5 66.25 -12.65 80.35 -22.5 104.35 -10.5 116.35 10.5Q115.35 7 114.85 3 113.85 -5 116.35 -7.5 123.6 -14.75 124.6 -15.6 130.1 -20.4 131.35 -18.5 133.35 -15.5 143.35 -5.5L156.35 3.5 162.35 -8.5 178.35 -35.5 187.35 -44.5 187.35 -76.5 177.35 -87.5 196.35 -89.5 205.35 -70.5 206.35 -86.5 218.35 -97.5 165.35 -105.5Q157.6 -109.25 149.25 -113Z"/><path fill="#68C3EC" stroke="none" d="M163.35 25.5L170.35 35.5 184.35 21.5 174.35 10.5 163.35 25.5Z"/><path fill="#68C3EC" stroke="none" d="M207.35 -42.5L200.35 -65.5 196.35 -40.5 207.35 -42.5Z"/><path fill="#68C3EC" stroke="none" d="M164.6 75.65Q164.35 80.75 164.35 85.5L184.35 82.5 195.35 95.5 207.35 95.65Q219.85 95.9 222.35 96.5 224.85 97.15 228.85 81.9L232.35 66.5 207.35 46.5 190.35 50.5 186.5 52.9Q182.25 55.65 180.35 57.5 178.9 58.95 173 60.5 167.4 61.95 166.35 63.5 165.1 65.4 164.6 75.65Z"/><path fill="#68C3EC" stroke="none" d="M148.35 18.5L151.35 31.5 156.35 21.5 150.3 13.8 148.35 18.5Z"/><animate attributeName="display" repeatCount="indefinite" dur="8.333s" keyTimes="0;.625;1" values="none;inline;inline"/></g><g display="none"><use xlink:href="#pin" transform="matrix(.171 0 0 .169 -185.1 -44.85)"><animateTransform attributeName="transform" additive="replace" type="translate" repeatCount="indefinite" dur="8.333s" keyTimes="0;.8;.835;.93999;.94;.965;1" values="-185.05,-48.308;-185.05,-48.308;-185.95,-65.65;-185.95,-65.65;-186.8,-65.4;-185.909,-48.258;-185.909,-48.258"/><animateTransform attributeName="transform" additive="sum" type="scale" repeatCount="indefinite" dur="8.333s" keyTimes="0;.8;.835;.93999;.965;1" values=".171,.169;.171,.169;1,1;1,1;.171,.169;.171,.169"/><animateTransform attributeName="transform" additive="sum" type="translate" repeatCount="indefinite" dur="8.333s" keyTimes="0;.8;.835;.93999;.965;1" values="0,20.7;0,20.7;0,20.65;0,20.65;.05,20.7;.05,20.7"/><animate attributeName="opacity" repeatCount="indefinite" dur="8.333s" keyTimes="0;.8;.835;.93999;.965;1" values="0;0;1;1;0;0"/></use><animate attributeName="display" repeatCount="indefinite" dur="8.333s" keyTimes="0;.8;1" values="none;inline;inline"/></g></g><animate attributeName="display" repeatCount="indefinite" dur="8.333s" keyTimes="0;.625;1" values="none;inline;inline"/></g><mask id="mask_"><g><g><g id="Layer1_0_FILL"><path fill="#FFF" stroke="none" d="M395 193.55Q395 146.15 361.5 112.65 327.95 79.1 280.55 79.1 233.1 79.1 199.6 112.65 166.1 146.15 166.1 193.55 166.1 241 199.6 274.5 233.1 308 280.55 308 327.95 308 361.5 274.5 395 241 395 193.55Z" fill-opacity="1"/></g></g></g></mask><g display="none"><g id="bubble5" transform="translate(99.9 148.05)"><animate attributeName="opacity" repeatCount="indefinite" dur="8.333s" keyTimes="0;.87999;.975;1" values="1;1;0;0"/><use xlink:href="#FlashAICB_0_Isolation-Mode_.__3CPath.__3E" transform="translate(-44.8 -20.15)" opacity=".83"/><path fill="#232020" stroke="none" d="M19.4 -5.2Q19.05 -5.45 19.05 -5.95 19.05 -6.5 19.5 -6.85 19.9 -7.2 20.7 -7.2 21.5 -7.2 22 -6.85 22.55 -6.5 22.65 -5.65L23.5 -5.65Q23.35 -6.9 22.6 -7.4 21.9 -7.95 20.7 -7.95 19.5 -7.95 18.85 -7.35 18.15 -6.8 18.15 -5.85 18.15 -5.15 18.5 -4.75 18.85 -4.4 19.35 -4.15 19.9 -3.95 20.5 -3.85L21.6 -3.6Q22.1 -3.45 22.45 -3.2 22.8 -2.95 22.8 -2.4 22.8 -2.15 22.7 -1.9 22.6 -1.65 22.35 -1.45 22.15 -1.3 21.8 -1.15 21.5 -1.05 21 -1.05 20.05 -1.05 19.55 -1.45 19.05 -1.85 18.85 -2.75L18 -2.75Q18 -2.25 18.2 -1.8 18.4 -1.35 18.75 -1 19.1 -.7 19.6 -.5 20.1 -.3 20.75 -.3 21.4 -.3 21.95 -.45 22.5 -.55 22.85 -.85 23.25 -1.1 23.5 -1.5 23.7 -1.9 23.7 -2.4 23.7 -3.1 23.35 -3.5 23 -3.9 22.5 -4.15 22 -4.35 21.4 -4.5L20.25 -4.8Q19.75 -4.95 19.4 -5.2M17 -7.05L17 -7.75 15.65 -7.75 15.65 -9.75 14.8 -9.75 14.8 -7.75 13.8 -7.75 13.8 -7.05 14.8 -7.05 14.8 -1.75Q14.8 -.95 15.15 -.6 15.45 -.3 16.1 -.3L17.05 -.45 17.05 -1.15 16.35 -1.05 15.95 -1.1Q15.8 -1.15 15.75 -1.3L15.65 -1.6 15.65 -7.05 17 -7.05M8.3 -7.65Q7.7 -7.3 7.25 -6.8 6.85 -6.25 6.65 -5.55 6.4 -4.85 6.4 -4.1 6.4 -3.3 6.6 -2.6 6.8 -1.9 7.2 -1.4 7.6 -.9 8.25 -.6 8.85 -.3 9.75 -.3 10.45 -.3 10.95 -.5 11.5 -.7 11.9 -1.05 12.25 -1.4 12.5 -1.9 12.75 -2.4 12.85 -3L11.95 -3Q11.8 -2.1 11.25 -1.6 10.7 -1.05 9.75 -1.05 9.1 -1.05 8.6 -1.3 8.15 -1.6 7.85 -2 7.55 -2.45 7.45 -3 7.3 -3.55 7.3 -4.1 7.3 -4.65 7.45 -5.2 7.6 -5.8 7.9 -6.2 8.15 -6.65 8.65 -6.95 9.1 -7.2 9.75 -7.2 10.6 -7.2 11.1 -6.75 11.65 -6.3 11.9 -5.45L12.75 -5.45Q12.55 -6.75 11.8 -7.35 11 -7.95 9.75 -7.95 8.95 -7.95 8.3 -7.65M4.3 -6.9Q3.45 -7.95 1.95 -7.95 1.2 -7.95 .55 -7.65 -.05 -7.35 -.5 -6.8 -.9 -6.3 -1.15 -5.6 -1.35 -4.9 -1.35 -4.1 -1.35 -3.3 -1.15 -2.6 -1 -1.9 -.55 -1.4 -.15 -.9 .45 -.6 1.1 -.3 1.95 -.3 2.65 -.3 3.15 -.5 3.7 -.65 4.05 -1 4.45 -1.35 4.7 -1.75 4.95 -2.2 5.1 -2.75L4.15 -2.75Q3.95 -1.95 3.35 -1.5 2.8 -1.05 1.95 -1.05 1.35 -1.05 .9 -1.3 .45 -1.55 .15 -1.9 -.15 -2.3 -.3 -2.8 -.5 -3.35 -.5 -3.95L5.15 -3.95Q5.15 -5.9 4.3 -6.9M.25 -6.4Q.55 -6.8 .95 -7 1.4 -7.2 1.95 -7.2 2.5 -7.2 2.95 -7 3.4 -6.8 3.65 -6.45 3.95 -6.1 4.1 -5.65 4.25 -5.15 4.25 -4.65L-.5 -4.65Q-.4 -5.15 -.25 -5.6 -.05 -6.05 .25 -6.4M-3.05 -7.75L-3.85 -7.75 -3.85 .6 -3.9 1.05Q-3.95 1.3 -4.1 1.4 -4.2 1.55 -4.45 1.55L-5.05 1.55 -5.05 2.3 -4.5 2.35Q-4 2.35 -3.7 2.25 -3.4 2.1 -3.25 1.85 -3.1 1.65 -3.05 1.3L-3.05 -7.75M-3 -9.35L-3 -10.6 -3.9 -10.6 -3.9 -9.35 -3 -9.35M-10.45 -7.65Q-11.05 -7.35 -11.5 -6.85 -11.9 -6.3 -12.1 -5.6 -12.3 -4.9 -12.3 -4.1 -12.3 -3.15 -12.05 -2.45 -11.8 -1.75 -11.35 -1.25 -10.85 -.8 -10.25 -.55 -9.65 -.3 -8.95 -.3 -8.2 -.3 -7.6 -.6 -6.95 -.85 -6.5 -1.35 -6.1 -1.85 -5.85 -2.55 -5.6 -3.25 -5.6 -4.1 -5.6 -4.9 -5.8 -5.65 -6 -6.3 -6.4 -6.85 -6.85 -7.35 -7.5 -7.65 -8.1 -7.95 -8.95 -7.95 -9.8 -7.95 -10.45 -7.65M-11.4 -4.1Q-11.4 -4.7 -11.3 -5.25 -11.15 -5.8 -10.85 -6.25 -10.55 -6.65 -10.1 -6.95 -9.6 -7.2 -8.95 -7.2 -8.3 -7.2 -7.85 -6.95 -7.35 -6.7 -7.05 -6.3 -6.75 -5.9 -6.65 -5.35 -6.5 -4.75 -6.5 -4.1 -6.5 -3.55 -6.65 -3 -6.75 -2.45 -7.05 -2 -7.35 -1.6 -7.85 -1.3 -8.3 -1.05 -8.95 -1.05 -9.55 -1.05 -10 -1.3 -10.5 -1.5 -10.8 -1.9 -11.1 -2.3 -11.25 -2.9 -11.4 -3.45 -11.4 -4.1M-13.2 -7.95Q-14.1 -7.95 -14.7 -7.6 -15.25 -7.25 -15.6 -6.4L-15.6 -7.75 -16.45 -7.75 -16.45 -.5 -15.6 -.5 -15.6 -4.05Q-15.6 -4.65 -15.5 -5.2 -15.4 -5.75 -15.15 -6.15 -14.85 -6.6 -14.4 -6.8 -13.95 -7.05 -13.2 -7.05L-13.2 -7.95M-24.1 -7.75L-24.95 -7.75 -24.95 2.35 -24.1 2.35 -24.1 -1.65Q-23.7 -1 -23 -.65 -22.3 -.3 -21.5 -.3 -20.7 -.3 -20.1 -.6 -19.45 -.95 -19.05 -1.45 -18.65 -2 -18.5 -2.7 -18.3 -3.4 -18.3 -4.15 -18.3 -4.95 -18.45 -5.65 -18.65 -6.35 -19.05 -6.85 -19.45 -7.35 -20.05 -7.65 -20.7 -7.95 -21.55 -7.95 -21.9 -7.95 -22.25 -7.85 -22.65 -7.75 -22.95 -7.55 -23.3 -7.4 -23.6 -7.1 -23.9 -6.85 -24.05 -6.45L-24.1 -6.45 -24.1 -7.75M-21.65 -7.2Q-21.1 -7.2 -20.7 -7 -20.25 -6.8 -19.9 -6.45 -19.55 -6.1 -19.35 -5.55 -19.15 -5.05 -19.15 -4.35 -19.15 -3.65 -19.3 -3.05 -19.45 -2.5 -19.75 -2 -20.05 -1.6 -20.55 -1.3 -21 -1.05 -21.65 -1.05 -22.25 -1.05 -22.7 -1.3 -23.15 -1.55 -23.45 -1.95 -23.75 -2.35 -23.95 -2.95 -24.1 -3.5 -24.1 -4.1 -24.1 -4.75 -23.95 -5.35 -23.8 -5.9 -23.45 -6.3 -23.15 -6.7 -22.7 -6.95 -22.25 -7.2 -21.65 -7.2Z"/></g><animate attributeName="display" repeatCount="indefinite" dur="8.333s" keyTimes="0;.11;.98;1" values="none;inline;none;none"/></g><g display="none"><g id="bubble4" transform="translate(446.35 148.05)"><animate attributeName="opacity" repeatCount="indefinite" dur="8.333s" keyTimes="0;.87999;.975;1" values="1;1;0;0"/><use xlink:href="#FlashAICB_0_Isolation-Mode_.__3CPath.__3E" transform="matrix(-1 0 0 1 44.85 -20.15)" opacity=".83"/><path fill="#232020" stroke="none" d="M36.25 -6.85Q36.65 -7.2 37.45 -7.2 38.25 -7.2 38.75 -6.85 39.3 -6.5 39.4 -5.65L40.25 -5.65Q40.1 -6.9 39.35 -7.4 38.65 -7.95 37.45 -7.95 36.25 -7.95 35.6 -7.35 34.9 -6.8 34.9 -5.85 34.9 -5.15 35.25 -4.75 35.6 -4.4 36.1 -4.15 36.65 -3.95 37.25 -3.85L38.35 -3.6Q38.85 -3.45 39.2 -3.2 39.55 -2.95 39.55 -2.4 39.55 -2.15 39.45 -1.9 39.35 -1.65 39.1 -1.45 38.9 -1.3 38.55 -1.15 38.25 -1.05 37.75 -1.05 36.8 -1.05 36.3 -1.45 35.8 -1.85 35.6 -2.75L34.75 -2.75Q34.75 -2.25 34.95 -1.8 35.15 -1.35 35.5 -1 35.85 -.7 36.35 -.5 36.85 -.3 37.5 -.3 38.15 -.3 38.7 -.45 39.25 -.55 39.6 -.85 40 -1.1 40.25 -1.5 40.45 -1.9 40.45 -2.4 40.45 -3.1 40.1 -3.5 39.75 -3.9 39.25 -4.15 38.75 -4.35 38.15 -4.5L37 -4.8Q36.5 -4.95 36.15 -5.2 35.8 -5.45 35.8 -5.95 35.8 -6.5 36.25 -6.85M32.4 -9.75L31.55 -9.75 31.55 -7.75 30.55 -7.75 30.55 -7.05 31.55 -7.05 31.55 -1.75Q31.55 -.95 31.9 -.6 32.2 -.3 32.85 -.3L33.8 -.45 33.8 -1.15 33.1 -1.05 32.7 -1.1Q32.55 -1.15 32.5 -1.3L32.4 -1.6 32.4 -7.05 33.75 -7.05 33.75 -7.75 32.4 -7.75 32.4 -9.75M26.55 -7.2Q27.55 -7.2 28 -6.7 28.4 -6.2 28.4 -5.25L28.4 -.5 29.25 -.5 29.2 -6.1Q29.15 -6.5 28.9 -6.9 28.5 -7.5 27.95 -7.7 27.35 -7.95 26.7 -7.95 25.95 -7.95 25.4 -7.6 24.85 -7.25 24.35 -6.75L24.35 -7.75 23.5 -7.75 23.5 -.5 24.35 -.5 24.35 -5.1Q24.4 -5.45 24.55 -5.8 24.65 -6.05 24.8 -6.3 25 -6.55 25.25 -6.75 25.5 -6.95 25.85 -7.1 26.15 -7.2 26.55 -7.2M17.3 -7.65Q16.7 -7.35 16.25 -6.8 15.85 -6.3 15.6 -5.6 15.4 -4.9 15.4 -4.1 15.4 -3.3 15.6 -2.6 15.75 -1.9 16.2 -1.4 16.6 -.9 17.2 -.6 17.85 -.3 18.7 -.3 19.4 -.3 19.9 -.5 20.45 -.65 20.8 -1 21.2 -1.35 21.45 -1.75 21.7 -2.2 21.85 -2.75L20.9 -2.75Q20.7 -1.95 20.1 -1.5 19.55 -1.05 18.7 -1.05 18.1 -1.05 17.65 -1.3 17.2 -1.55 16.9 -1.9 16.6 -2.3 16.45 -2.8 16.25 -3.35 16.25 -3.95L21.9 -3.95Q21.9 -5.9 21.05 -6.9 20.2 -7.95 18.7 -7.95 17.95 -7.95 17.3 -7.65M17 -6.4Q17.3 -6.8 17.7 -7 18.15 -7.2 18.7 -7.2 19.25 -7.2 19.7 -7 20.15 -6.8 20.4 -6.45 20.7 -6.1 20.85 -5.65 21 -5.15 21 -4.65L16.25 -4.65Q16.35 -5.15 16.5 -5.6 16.7 -6.05 17 -6.4M8.9 -7.75L8 -7.75 10.75 -.5 11.7 -.5 14.5 -7.75 13.6 -7.75 11.25 -1.55 8.9 -7.75M2.55 -7.65Q1.95 -7.35 1.5 -6.8 1.1 -6.3 .85 -5.6 .65 -4.9 .65 -4.1 .65 -3.3 .85 -2.6 1 -1.9 1.45 -1.4 1.85 -.9 2.45 -.6 3.1 -.3 3.95 -.3 4.65 -.3 5.15 -.5 5.7 -.65 6.05 -1 6.45 -1.35 6.7 -1.75 6.95 -2.2 7.1 -2.75L6.15 -2.75Q5.95 -1.95 5.35 -1.5 4.8 -1.05 3.95 -1.05 3.35 -1.05 2.9 -1.3 2.45 -1.55 2.15 -1.9 1.85 -2.3 1.7 -2.8 1.5 -3.35 1.5 -3.95L7.15 -3.95Q7.15 -5.9 6.3 -6.9 5.45 -7.95 3.95 -7.95 3.2 -7.95 2.55 -7.65M2.25 -6.4Q2.55 -6.8 2.95 -7 3.4 -7.2 3.95 -7.2 4.5 -7.2 4.95 -7 5.4 -6.8 5.65 -6.45 5.95 -6.1 6.1 -5.65 6.25 -5.15 6.25 -4.65L1.5 -4.65Q1.6 -5.15 1.75 -5.6 1.95 -6.05 2.25 -6.4M-10.75 -2.6Q-10.6 -1.9 -10.15 -1.4 -9.75 -.9 -9.15 -.6 -8.5 -.3 -7.65 -.3 -6.95 -.3 -6.45 -.5 -5.9 -.65 -5.55 -1 -5.15 -1.35 -4.9 -1.75 -4.65 -2.2 -4.5 -2.75L-5.45 -2.75Q-5.65 -1.95 -6.25 -1.5 -6.8 -1.05 -7.65 -1.05 -8.25 -1.05 -8.7 -1.3 -9.15 -1.55 -9.45 -1.9 -9.75 -2.3 -9.9 -2.8 -10.1 -3.35 -10.1 -3.95L-4.45 -3.95Q-4.45 -5.9 -5.3 -6.9 -6.15 -7.95 -7.65 -7.95 -8.4 -7.95 -9.05 -7.65 -9.65 -7.35 -10.1 -6.8 -10.5 -6.3 -10.75 -5.6 -10.95 -4.9 -10.95 -4.1 -10.95 -3.3 -10.75 -2.6M-9.35 -6.4Q-9.05 -6.8 -8.65 -7 -8.2 -7.2 -7.65 -7.2 -7.1 -7.2 -6.65 -7 -6.2 -6.8 -5.95 -6.45 -5.65 -6.1 -5.5 -5.65 -5.35 -5.15 -5.35 -4.65L-10.1 -4.65Q-10 -5.15 -9.85 -5.6 -9.65 -6.05 -9.35 -6.4M-12.95 -6.9Q-13.35 -7.5 -13.9 -7.7 -14.5 -7.95 -15.15 -7.95 -15.9 -7.95 -16.45 -7.6 -17 -7.25 -17.5 -6.75L-17.5 -7.75 -18.35 -7.75 -18.35 -.5 -17.5 -.5 -17.5 -5.1Q-17.45 -5.45 -17.3 -5.8 -17.2 -6.05 -17.05 -6.3 -16.85 -6.55 -16.6 -6.75 -16.35 -6.95 -16 -7.1 -15.7 -7.2 -15.3 -7.2 -14.3 -7.2 -13.85 -6.7 -13.45 -6.2 -13.45 -5.25L-13.45 -.5 -12.6 -.5 -12.65 -6.1Q-12.7 -6.5 -12.95 -6.9M-20.45 -7.75L-21.3 -7.75 -21.3 -.5 -20.45 -.5 -20.45 -7.75M-21.35 -9.35L-20.45 -9.35 -20.45 -10.6 -21.35 -10.6 -21.35 -9.35M-23.55 -10.6L-24.4 -10.6 -24.4 -.5 -23.55 -.5 -23.55 -10.6M-31.45 -7.75L-32.3 -7.75 -32.3 -.5 -31.45 -.5 -31.45 -5.1Q-31.4 -5.45 -31.25 -5.8 -31.15 -6.05 -31 -6.3 -30.8 -6.55 -30.55 -6.75 -30.3 -6.95 -29.95 -7.1 -29.65 -7.2 -29.25 -7.2 -28.25 -7.2 -27.8 -6.7 -27.4 -6.2 -27.4 -5.25L-27.4 -.5 -26.55 -.5 -26.6 -6.1Q-26.65 -6.5 -26.9 -6.9 -27.3 -7.5 -27.85 -7.7 -28.45 -7.95 -29.1 -7.95 -29.85 -7.95 -30.4 -7.6 -30.95 -7.25 -31.45 -6.75L-31.45 -7.75M-35.7 -7.65Q-36.3 -7.95 -37.15 -7.95 -38 -7.95 -38.65 -7.65 -39.25 -7.35 -39.7 -6.85 -40.1 -6.3 -40.3 -5.6 -40.5 -4.9 -40.5 -4.1 -40.5 -3.15 -40.25 -2.45 -40 -1.75 -39.55 -1.25 -39.05 -.8 -38.45 -.55 -37.85 -.3 -37.15 -.3 -36.4 -.3 -35.8 -.6 -35.15 -.85 -34.7 -1.35 -34.3 -1.85 -34.05 -2.55 -33.8 -3.25 -33.8 -4.1 -33.8 -4.9 -34 -5.65 -34.2 -6.3 -34.6 -6.85 -35.05 -7.35 -35.7 -7.65M-37.15 -7.2Q-36.5 -7.2 -36.05 -6.95 -35.55 -6.7 -35.25 -6.3 -34.95 -5.9 -34.85 -5.35 -34.7 -4.75 -34.7 -4.1 -34.7 -3.55 -34.85 -3 -34.95 -2.45 -35.25 -2 -35.55 -1.6 -36.05 -1.3 -36.5 -1.05 -37.15 -1.05 -37.75 -1.05 -38.2 -1.3 -38.7 -1.5 -39 -1.9 -39.3 -2.3 -39.45 -2.9 -39.6 -3.45 -39.6 -4.1 -39.6 -4.7 -39.5 -5.25 -39.35 -5.8 -39.05 -6.25 -38.75 -6.65 -38.3 -6.95 -37.8 -7.2 -37.15 -7.2Z"/></g><animate attributeName="display" repeatCount="indefinite" dur="8.333s" keyTimes="0;.295;.98;1" values="none;inline;none;none"/></g><g display="none"><g id="bubble3" transform="translate(139.9 288.8)"><animate attributeName="opacity" repeatCount="indefinite" dur="8.333s" keyTimes="0;.87999;.975;1" values="1;1;0;0"/><use xlink:href="#FlashAICB_0_Isolation-Mode_.__3CPath.__3E" transform="matrix(1 0 0 -1 -44.8 20.2)" opacity=".83"/><path fill="#232020" stroke="none" d="M36.9 4.2Q36.75 2.95 36 2.45 35.3 1.9 34.1 1.9 32.9 1.9 32.25 2.5 31.55 3.05 31.55 4 31.55 4.7 31.9 5.1 32.25 5.45 32.75 5.7 33.3 5.9 33.9 6L35 6.25Q35.5 6.4 35.85 6.65 36.2 6.9 36.2 7.45 36.2 7.7 36.1 7.95 36 8.2 35.75 8.4 35.55 8.55 35.2 8.7 34.9 8.8 34.4 8.8 33.45 8.8 32.95 8.4 32.45 8 32.25 7.1L31.4 7.1Q31.4 7.6 31.6 8.05 31.8 8.5 32.15 8.85 32.5 9.15 33 9.35 33.5 9.55 34.15 9.55 34.8 9.55 35.35 9.4 35.9 9.3 36.25 9 36.65 8.75 36.9 8.35 37.1 7.95 37.1 7.45 37.1 6.75 36.75 6.35 36.4 5.95 35.9 5.7 35.4 5.5 34.8 5.35L33.65 5.05Q33.15 4.9 32.8 4.65 32.45 4.4 32.45 3.9 32.45 3.35 32.9 3 33.3 2.65 34.1 2.65 34.9 2.65 35.4 3 35.95 3.35 36.05 4.2L36.9 4.2M30.4 2.8L30.4 2.1 29.05 2.1 29.05 .1 28.2 .1 28.2 2.1 27.2 2.1 27.2 2.8 28.2 2.8 28.2 8.1Q28.2 8.9 28.55 9.25 28.85 9.55 29.5 9.55L30.45 9.4 30.45 8.7 29.75 8.8 29.35 8.75Q29.2 8.7 29.15 8.55L29.05 8.25 29.05 2.8 30.4 2.8M25.85 3.75Q25.8 3.35 25.55 2.95 25.15 2.35 24.6 2.15 24 1.9 23.35 1.9 22.6 1.9 22.05 2.25 21.5 2.6 21 3.1L21 2.1 20.15 2.1 20.15 9.35 21 9.35 21 4.75Q21.05 4.4 21.2 4.05 21.3 3.8 21.45 3.55 21.65 3.3 21.9 3.1 22.15 2.9 22.5 2.75 22.8 2.65 23.2 2.65 24.2 2.65 24.65 3.15 25.05 3.65 25.05 4.6L25.05 9.35 25.9 9.35 25.85 3.75M17.7 2.95Q16.85 1.9 15.35 1.9 14.6 1.9 13.95 2.2 13.35 2.5 12.9 3.05 12.5 3.55 12.25 4.25 12.05 4.95 12.05 5.75 12.05 6.55 12.25 7.25 12.4 7.95 12.85 8.45 13.25 8.95 13.85 9.25 14.5 9.55 15.35 9.55 16.05 9.55 16.55 9.35 17.1 9.2 17.45 8.85 17.85 8.5 18.1 8.1 18.35 7.65 18.5 7.1L17.55 7.1Q17.35 7.9 16.75 8.35 16.2 8.8 15.35 8.8 14.75 8.8 14.3 8.55 13.85 8.3 13.55 7.95 13.25 7.55 13.1 7.05 12.9 6.5 12.9 5.9L18.55 5.9Q18.55 3.95 17.7 2.95M15.35 2.65Q15.9 2.65 16.35 2.85 16.8 3.05 17.05 3.4 17.35 3.75 17.5 4.2 17.65 4.7 17.65 5.2L12.9 5.2Q13 4.7 13.15 4.25 13.35 3.8 13.65 3.45 13.95 3.05 14.35 2.85 14.8 2.65 15.35 2.65M11.15 2.1L10.25 2.1 7.9 8.3 5.55 2.1 4.65 2.1 7.4 9.35 8.35 9.35 11.15 2.1M-.8 2.2Q-1.4 2.5 -1.85 3.05 -2.25 3.55 -2.5 4.25 -2.7 4.95 -2.7 5.75 -2.7 6.55 -2.5 7.25 -2.35 7.95 -1.9 8.45 -1.5 8.95 -.9 9.25 -.25 9.55 .6 9.55 1.3 9.55 1.8 9.35 2.35 9.2 2.7 8.85 3.1 8.5 3.35 8.1 3.6 7.65 3.75 7.1L2.8 7.1Q2.6 7.9 2 8.35 1.45 8.8 .6 8.8 0 8.8 -.45 8.55 -.9 8.3 -1.2 7.95 -1.5 7.55 -1.65 7.05 -1.85 6.5 -1.85 5.9L3.8 5.9Q3.8 3.95 2.95 2.95 2.1 1.9 .6 1.9 -.15 1.9 -.8 2.2M-1.85 5.2Q-1.75 4.7 -1.6 4.25 -1.4 3.8 -1.1 3.45 -.8 3.05 -.4 2.85 .05 2.65 .6 2.65 1.15 2.65 1.6 2.85 2.05 3.05 2.3 3.4 2.6 3.75 2.75 4.2 2.9 4.7 2.9 5.2L-1.85 5.2M-8.3 -.75L-9.15 -.75 -9.15 9.35 -8.3 9.35 -8.3 -.75M-14.1 2.65Q-13.1 2.65 -12.7 3.05 -12.3 3.5 -12.3 4.15L-12.35 4.55Q-12.4 4.8 -12.6 4.9L-13.15 5.05 -14.85 5.3Q-17.4 5.6 -17.4 7.45 -17.4 8 -17.2 8.4 -17 8.75 -16.7 9.05 -16.35 9.3 -15.9 9.4 -15.45 9.55 -15 9.55 -14.2 9.55 -13.5 9.25 -12.8 8.95 -12.3 8.35L-12.25 8.7 -12.15 9.05 -11.95 9.3Q-11.8 9.4 -11.6 9.4L-11.25 9.45 -10.85 9.4 -10.55 9.3 -10.55 8.65Q-11.1 8.85 -11.3 8.75 -11.45 8.6 -11.45 8.1L-11.45 4.15Q-11.45 3.55 -11.65 3.1 -11.85 2.65 -12.2 2.4 -12.55 2.15 -13.05 2 -13.55 1.9 -14.1 1.9 -14.65 1.9 -15.2 2.05 -15.75 2.15 -16.1 2.45 -16.55 2.75 -16.8 3.2 -17 3.65 -17.05 4.3L-16.2 4.3Q-16.15 3.8 -16 3.5 -15.8 3.2 -15.55 3 -15.25 2.8 -14.9 2.75 -14.55 2.65 -14.1 2.65M-14.45 5.95L-13.35 5.85Q-12.85 5.75 -12.3 5.55L-12.3 6.7Q-12.3 7.2 -12.5 7.6 -12.75 8 -13.1 8.3 -13.5 8.55 -13.95 8.65 -14.45 8.8 -14.95 8.8L-15.5 8.7Q-15.8 8.65 -16.05 8.5 -16.25 8.3 -16.4 8.05 -16.5 7.85 -16.5 7.5 -16.5 6.75 -15.95 6.4 -15.45 6 -14.45 5.95M-18.8 4.4Q-19 3.1 -19.75 2.5 -20.55 1.9 -21.8 1.9 -22.6 1.9 -23.25 2.2 -23.85 2.55 -24.3 3.05 -24.7 3.6 -24.9 4.3 -25.15 5 -25.15 5.75 -25.15 6.55 -24.95 7.25 -24.75 7.95 -24.35 8.45 -23.95 8.95 -23.3 9.25 -22.7 9.55 -21.8 9.55 -21.1 9.55 -20.6 9.35 -20.05 9.15 -19.65 8.8 -19.3 8.45 -19.05 7.95 -18.8 7.45 -18.7 6.85L-19.6 6.85Q-19.75 7.75 -20.3 8.25 -20.85 8.8 -21.8 8.8 -22.45 8.8 -22.95 8.55 -23.4 8.25 -23.7 7.85 -24 7.4 -24.1 6.85 -24.25 6.3 -24.25 5.75 -24.25 5.2 -24.1 4.65 -23.95 4.05 -23.65 3.65 -23.4 3.2 -22.9 2.9 -22.45 2.65 -21.8 2.65 -20.95 2.65 -20.45 3.1 -19.9 3.55 -19.65 4.4L-18.8 4.4M-26.3 5.75Q-26.3 4.95 -26.5 4.2 -26.7 3.55 -27.1 3 -27.55 2.5 -28.2 2.2 -28.8 1.9 -29.65 1.9 -30.5 1.9 -31.15 2.2 -31.75 2.5 -32.2 3 -32.6 3.55 -32.8 4.25 -33 4.95 -33 5.75 -33 6.7 -32.75 7.4 -32.5 8.1 -32.05 8.6 -31.55 9.05 -30.95 9.3 -30.35 9.55 -29.65 9.55 -28.9 9.55 -28.3 9.25 -27.65 9 -27.2 8.5 -26.8 8 -26.55 7.3 -26.3 6.6 -26.3 5.75M-27.35 4.5Q-27.2 5.1 -27.2 5.75 -27.2 6.3 -27.35 6.85 -27.45 7.4 -27.75 7.85 -28.05 8.25 -28.55 8.55 -29 8.8 -29.65 8.8 -30.25 8.8 -30.7 8.55 -31.2 8.35 -31.5 7.95 -31.8 7.55 -31.95 6.95 -32.1 6.4 -32.1 5.75 -32.1 5.15 -32 4.6 -31.85 4.05 -31.55 3.6 -31.25 3.2 -30.8 2.9 -30.3 2.65 -29.65 2.65 -29 2.65 -28.55 2.9 -28.05 3.15 -27.75 3.55 -27.45 3.95 -27.35 4.5M-34.65 -.75L-35.5 -.75 -35.5 9.35 -34.65 9.35 -34.65 -.75Z"/></g><animate attributeName="display" repeatCount="indefinite" dur="8.333s" keyTimes="0;.445;.98;1" values="none;inline;none;none"/></g></g></svg>