<?xml version="1.0" encoding="UTF-8"?>
<svg width="366px" height="181px" viewBox="0 0 366 181" version="1.1" xmlns="http://www.w3.org/2000/svg" xmlns:xlink="http://www.w3.org/1999/xlink">
    <!-- Generator: Sketch 60.1 (88133) - https://sketch.com -->
    <title>banner</title>
    <desc>Created with Sketch.</desc>
    <defs>
        <radialGradient cx="50.1275751%" cy="50.021964%" fx="50.1275751%" fy="50.021964%" r="56.2310833%" gradientTransform="translate(0.501276,0.500220),scale(1.000000,0.940842),rotate(-57.247240),translate(-0.501276,-0.500220)" id="radialGradient-1">
            <stop stop-color="#FFFFFF" offset="0%"></stop>
            <stop stop-color="#FDFDFD" offset="52%"></stop>
            <stop stop-color="#F6F7F7" offset="71%"></stop>
            <stop stop-color="#EBEBEC" offset="85%"></stop>
            <stop stop-color="#DADBDC" offset="95%"></stop>
            <stop stop-color="#D0D2D3" offset="100%"></stop>
        </radialGradient>
    </defs>
    <g id="2020" stroke="none" stroke-width="1" fill="none" fill-rule="evenodd">
        <g id="home-after-week" transform="translate(-563.000000, -198.000000)">
            <g id="banner" transform="translate(563.000000, 198.000000)">
                <g id="O" fill-rule="nonzero">
                    <g id="oeweek-promo">
                        <g id="Group" opacity="0.3" style="mix-blend-mode: multiply;" transform="translate(2.163522, 1.082803)" fill="#2E3191">
                            <path d="M73.5958071,167.827918 C60.4748598,168.099395 47.9827058,162.194131 39.8329443,151.867611 C30.1459748,139.506661 27.1266597,121.872969 31.5770044,103.27629 C34.352562,91.981498 39.4107573,81.3798412 46.4376962,72.129222 L47.6328418,65.8145604 L11.4639623,74.9866063 C9.26522832,75.535458 6.93722457,75.0724129 5.11306614,73.7233989 C3.28890771,72.374385 2.15825731,70.2796628 2.02860238,68.0089053 L0.81773119,46.7442824 C0.621378852,43.1063925 3.01085976,39.8353589 6.52612392,38.9298887 L153.576208,1.04191916 C154.193168,0.88554157 154.826959,0.805119352 155.46328,0.805119352 C158.927837,0.811668276 161.95463,3.15698373 162.838586,6.51988809 L168.04376,26.5689386 C168.554078,28.5412167 168.260181,30.6363503 167.227141,32.3904477 C166.194101,34.1445452 164.507149,35.4128845 162.5398,35.9146378 L161.533361,36.1830109 L161.533361,36.8144771 C164.642708,38.8624381 166.511821,42.3479713 166.502651,46.0812429 C166.519053,48.9194963 165.416736,51.6490995 163.436159,53.6746235 L168.263918,83.2745997 C168.627411,85.4751912 168.012782,87.7252159 166.581969,89.4318517 C165.151157,91.1384875 163.047665,92.1305654 160.825709,92.1466992 L147.285968,92.2572058 C146.152715,92.2726595 145.030172,92.0354172 143.999317,91.562593 C143.92493,96.7380122 143.281524,101.889363 142.080794,106.923007 C133.872031,141.037967 103.788959,167.827918 73.5958071,167.827918 Z M138.841321,66.5091732 C139.682333,68.2475613 140.432929,70.0285852 141.090082,71.8450622 L143.102958,54.1797964 C140.227241,51.9578344 138.627135,48.4558254 138.825595,44.8183106 C138.894909,43.8267264 139.117742,42.8520445 139.48607,41.9293529 L134.343799,43.2554319 L138.715516,64.7252813 C138.827154,65.3128805 138.86938,65.9116455 138.841321,66.5091732 Z M16.6691358,57.8580868 L55.4327393,48.0230014 C57.5297307,47.4589094 59.7671347,47.828522 61.573492,49.0374356 C63.3798492,50.2463491 64.5802505,52.1775049 64.8680992,54.337663 C76.0804519,46.444336 88.2520662,42.3240193 100.124894,42.3240193 C106.839299,42.2940452 113.471601,43.8060117 119.514559,46.7442824 L117.941999,39.1824751 C117.1272,35.1903455 119.57662,31.2588353 123.508861,30.247229 L144.675518,24.81662 C145.570775,22.6329328 147.423354,20.9888712 149.691985,20.3647836 L150.604069,20.1121972 L149.990771,17.7284124 L16.3546238,52.0959581 L16.6691358,57.8580868 Z" id="Shape"></path>
                            <path d="M155.46328,1.3734389 C158.666759,1.37713421 161.464446,3.55003021 162.272464,6.66196797 L167.493364,26.7110185 C167.974065,28.5351036 167.70535,30.4765522 166.74748,32.099976 C165.789609,33.7233997 164.222744,34.8929407 162.398269,35.3463182 L160.951514,35.7409846 L160.951514,37.1144235 C164.043281,39.0355718 165.919047,42.4310368 165.905078,46.0812429 C165.903029,48.8620412 164.766418,51.5206276 162.759958,53.4378237 L167.619168,83.4324662 C167.955101,85.4694542 167.38551,87.5519539 166.06051,89.1311202 C164.73551,90.7102865 162.788039,91.6276821 160.731356,91.6415263 L147.20734,91.7520329 C145.839736,91.7476195 144.504251,91.3355285 143.370294,90.5680338 C143.389734,96.0050743 142.772195,101.425547 141.530398,106.717781 C133.400263,140.659087 103.553075,167.243812 73.6115327,167.243812 C60.6708909,167.531624 48.341272,161.725478 40.2889867,151.551878 C30.6963708,139.348795 27.7085069,121.809822 32.1274004,103.46573 C34.8920409,92.1988629 39.946033,81.6270422 46.9723666,72.4133817 L48.3562194,65.0252277 L11.3067063,74.4972201 C10.7406343,74.6364059 10.1596873,74.7053299 9.57689029,74.7024466 C8.07672121,74.7070158 6.61515846,74.225319 5.40960634,73.3290077 C3.67705317,72.0476403 2.62289263,70.0416107 2.54754717,67.8826121 L1.38385278,46.7127091 C1.18946623,43.3388073 3.40519567,40.300211 6.66765432,39.4666349 L153.717738,1.5786654 C154.288881,1.4362225 154.874791,1.36203699 155.46328,1.35765224 M16.1344654,58.5842729 L55.5742697,48.5755343 C57.9017431,48.0031203 60.3599496,48.6437862 62.1161193,50.2804929 C63.5029541,51.6047082 64.2874839,53.4423848 64.286252,55.3637955 C75.1683671,47.5494018 87.5758654,42.8923388 100.046266,42.8923388 C107.111349,42.8400888 114.08166,44.5257457 120.348015,47.8019882 L118.571023,39.0719686 C117.825664,35.380022 120.09374,31.749507 123.729019,30.8155485 L145.131561,25.2586463 C145.914743,23.1259774 147.669222,21.4997194 149.849241,20.8857432 L151.311721,20.4752902 L150.415362,17.0022263 L15.7255998,51.7170784 L16.1030142,58.5842729 M141.357417,74.5130067 L143.747708,53.9903566 C140.849895,51.9101616 139.217322,48.483347 139.423168,44.9130305 C139.530821,43.5933216 139.90538,42.3095041 140.52396,41.1400202 L133.667598,42.8291922 L138.149394,64.7252813 C138.263868,65.3391184 138.300852,65.9649879 138.259474,66.5881064 C139.533941,69.1226485 140.586284,71.76372 141.404594,74.4814334 M155.557633,0.205226502 C154.87355,0.20357677 154.191984,0.288440275 153.529031,0.457812965 L6.38459352,38.3615691 C2.60535203,39.3456729 0.0361615397,42.8615171 0.235883997,46.7758557 L1.41530398,67.9931186 C1.64113654,72.3534968 5.22750947,75.7734321 9.57689029,75.775939 C10.2558988,75.7793484 10.9324871,75.6944465 11.5897671,75.5233526 L46.8937386,66.5723198 L45.9030259,71.9239955 C38.8678616,81.2148389 33.7999603,91.8520119 31.0108828,103.18157 C26.5290869,121.841395 29.5798532,139.727674 39.3139995,152.214918 C47.587687,162.698995 60.27526,168.687643 73.5958071,168.396238 C104.040568,168.396238 134.37525,141.432633 142.63119,106.986154 C143.777857,102.188691 144.420872,97.2838619 144.549713,92.3519257 C145.422626,92.6658761 146.342999,92.8260981 147.270242,92.8255253 L160.809984,92.7150188 C163.19774,92.7017615 165.458477,91.6334154 166.990144,89.7944878 C168.529328,87.9618246 169.195491,85.5462582 168.814314,83.1798798 L164.096634,53.83249 C166.043055,51.7248671 167.121884,48.9552764 167.115949,46.0812429 C167.129213,42.3179642 165.31622,38.7839222 162.256739,36.6092506 L162.744232,36.4829573 C164.846092,35.9291073 166.650809,34.5759763 167.776424,32.709947 C168.891713,30.8049611 169.20307,28.5317576 168.641332,26.3952854 L163.388982,6.31466159 C162.451131,2.71941948 159.228173,0.202222411 155.526182,0.173653194 L155.557633,0.205226502 Z M16.9521966,52.601131 L149.613357,18.4388118 L149.943594,19.7017442 L149.56618,19.8122507 C147.227406,20.4534413 145.295709,22.1089949 144.298104,24.3272338 L123.445959,29.6946961 C119.222772,30.7838773 116.589247,35.0027736 117.454505,39.2929817 L118.75973,45.7812965 C112.88316,43.1066603 106.498449,41.7439685 100.046266,41.7872731 C88.299243,41.7872731 76.2848847,45.7970832 65.1826112,53.3904637 C64.8183574,51.8813726 64.0263566,50.5105525 62.9023993,49.4438002 C61.3897425,48.0084888 59.3855049,47.2115937 57.3040857,47.217882 C56.6303382,47.2158312 55.9591221,47.3007222 55.3069345,47.4704685 L17.2038062,57.1319007 L16.9521966,52.601131 Z M135.035726,43.6816715 L138.636888,42.7502589 C138.451792,43.4152632 138.335852,44.0977354 138.290925,44.7867373 C138.061235,48.503482 139.644629,52.1005561 142.536837,54.4323829 L140.791295,69.4612775 C140.38243,68.4509316 139.910662,67.4405857 139.407442,66.3828799 C139.439068,65.7591285 139.396838,65.1338133 139.281638,64.5200548 L135.035726,43.6658849 L135.035726,43.6816715 Z" id="Shape"></path>
                        </g>
                        <path d="M73.966429,166.742317 C60.8255243,167.018302 48.3127161,161.122465 40.1505966,150.808831 C30.4214605,138.484414 27.4303022,120.785794 31.8855538,102.314928 C34.667656,91.0355563 39.7310009,80.4472453 46.7626309,71.2044426 L47.9590942,64.9003928 L11.7503352,74.0570251 C11.1620262,74.1929792 10.5593322,74.25649 9.95564021,74.2461466 C5.8808071,74.2865843 2.49240263,71.1164591 2.25734318,67.0437698 L1.09236572,45.8621626 C0.902042207,42.2322501 3.29156537,38.9702524 6.80705247,38.060901 L154.035015,0.252362551 C154.650119,0.081570719 155.285852,-0.00328628162 155.924168,9.73251527e-05 C159.399529,0.00658564661 162.430208,2.3663535 163.291863,5.73688584 L168.502776,25.768004 C169.02219,27.7353454 168.731429,29.8290573 167.69565,31.579952 C166.659872,33.3308467 164.965686,34.5925195 162.992747,35.0822375 L161.985199,35.3501596 L161.985199,35.9805646 C165.07004,38.0066531 166.937403,41.4437495 166.959968,45.1371968 C166.947141,47.9710119 165.815295,50.684741 163.81138,52.6862964 L168.628719,82.2838101 C168.987491,84.478265 168.369824,86.7200507 166.938027,88.4200827 C165.50623,90.1201146 163.403473,91.1083991 161.182309,91.1252398 L147.627639,91.2355607 C146.492996,91.2348265 145.373333,90.9761608 144.353108,90.4790747 C144.279667,95.6458683 143.635537,100.788675 142.432469,105.813676 C134.324856,140.013146 104.192871,166.742317 73.966429,166.742317 Z M139.268139,65.6253586 C140.116526,67.3525051 140.868104,69.1256416 141.519379,70.9365205 L143.581704,53.3167014 C140.692154,51.0986466 139.083589,47.5948714 139.283882,43.9551875 C139.35336,42.9703816 139.576464,42.0025427 139.945085,41.0868449 L134.797144,42.3949352 L139.142195,63.7656639 C139.266831,64.3771658 139.309187,65.0026116 139.268139,65.6253586 Z M16.9612479,56.9572901 L55.7675918,47.1387326 C56.3817228,46.9945285 57.010208,46.9205084 57.6410015,46.9180909 C59.5781021,46.9122165 61.4434832,47.651285 62.8519143,48.9826672 C64.1030653,50.1554692 64.9097145,51.7259753 65.1346404,53.4270223 C76.3593557,45.5469601 88.5443902,41.4493277 100.446052,41.4493277 C107.207188,41.3989217 113.888362,42.9146147 119.967296,45.8779227 L118.393002,38.313063 C117.561542,34.3111328 120.035722,30.3662133 123.997488,29.3770724 L145.155998,23.9398295 C146.046975,21.7620378 147.895909,20.1206277 150.162252,19.4954744 L151.075343,19.2433125 L150.461368,16.8792938 L16.6463892,51.2521251 L16.9612479,56.9572901 Z" id="Shape" fill="#FFFFFF"></path>
                        <path d="M155.304551,1.24377352 C158.502659,1.25125608 161.296794,3.40870128 162.115902,6.50323248 L167.322731,26.5168123 C167.794695,28.3358519 167.522013,30.2682106 166.565177,31.8852243 C165.608341,33.5022381 164.046461,34.6702132 162.226016,35.1300524 L160.778801,35.5237106 L160.778801,36.8778946 C163.85335,38.7854821 165.735819,42.13808 165.765402,45.7588222 C165.76031,48.5364758 164.624174,51.1920047 162.619281,53.1123563 L167.495768,82.9516433 C167.826215,84.9824972 167.254391,87.0565492 165.930145,88.6302853 C164.605898,90.2040214 162.661236,91.1205653 160.605764,91.1397326 L147.061715,91.2499569 C145.696276,91.2437064 144.362333,90.8387456 143.223448,90.0847288 C143.22752,95.5314505 142.588623,100.959575 141.320045,106.256205 C133.203055,140.236776 103.362102,166.690603 73.4110346,166.690603 C60.4500109,166.954982 48.1134882,161.127302 40.0778879,150.944277 C30.4822204,138.756621 27.493406,121.262454 31.9137053,102.965223 C34.6822199,91.7282139 39.737537,81.1839897 46.763394,71.9922007 L48.147687,64.654413 L11.0234652,74.1022083 C10.5071627,74.2182295 9.97955654,74.2763242 9.45040492,74.2754179 C5.71290301,74.2728966 2.62739076,71.350131 2.41882561,67.6147222 L1.16037741,46.4516605 C0.979977301,43.0940076 3.19213116,40.0756173 6.44585984,39.2398434 L153.558454,1.46440828 C154.128133,1.31367836 154.715324,1.23954416 155.304551,1.24377352 M15.9156825,58.3558827 L55.3680335,48.3884586 C55.9336569,48.2444776 56.5147792,48.1704426 57.0983998,48.16801 C58.9547769,48.1596159 60.7377716,48.8930027 62.0519175,50.2055061 C63.3660635,51.5180095 64.1027274,53.3011318 64.0985179,55.1593786 C74.9683642,47.3334548 87.3955402,42.6095571 99.8541773,42.6095571 C106.920847,42.563182 113.892013,44.2442041 120.162385,47.5066644 L118.400558,38.830439 C117.645353,35.1511783 119.909314,31.526606 123.544465,30.5951107 L144.969545,25.099643 C145.737569,22.9589197 147.497947,21.326006 149.688726,20.7221645 L151.151672,20.3285064 L150.239297,16.8485684 L15.5224175,51.4904847 L15.9156825,58.3558827 M141.17847,74.2596716 L143.569522,53.7894483 C140.674376,51.71296 139.046856,48.294131 139.259337,44.7353111 C139.355178,43.4168029 139.730558,42.133866 140.360479,40.9719392 L133.533397,42.6095571 L137.985158,64.4812034 C138.094575,65.0941188 138.126287,65.7184059 138.079541,66.3392698 C139.360222,68.8647092 140.413108,71.4995555 141.225662,74.2124326 M155.304551,0.0944779537 C154.620138,0.0909519385 153.938118,0.175628122 153.275303,0.346419163 L6.162709,38.1376006 C2.37739245,39.1018511 -0.198740297,42.6104763 0.0120434302,46.5146459 L1.19183862,67.6777075 C1.43560748,72.0512009 5.0747564,75.4580734 9.45040492,75.4091533 C10.1232947,75.4093191 10.7938556,75.3300398 11.4481914,75.1729585 L46.7004716,66.2290455 L45.6307906,71.5670499 C38.5947892,80.8329199 33.5302394,91.4437356 30.7496407,102.744775 C26.3293414,121.341185 29.3653477,139.229011 39.1812436,151.700101 C47.4379314,162.145449 60.1077695,168.113686 73.4110346,167.824338 C103.865481,167.824338 134.194083,140.929614 142.452649,106.586878 C143.607341,101.797757 144.25066,96.8994238 144.371782,91.9742879 C145.244107,92.292495 146.164747,92.4576301 147.093177,92.462424 L160.637225,92.3521997 C163.027409,92.3266569 165.28881,91.2637704 166.835083,89.4391295 C168.374909,87.6115592 169.036198,85.1997606 168.644102,82.841419 L163.924921,53.5532534 C165.870956,51.4566931 166.950286,48.6994002 166.945197,45.8375538 C166.981678,42.0454817 165.144827,38.4800793 162.037249,36.3110269 L162.509167,36.1850563 C164.619145,35.6481717 166.429767,34.2945113 167.54296,32.4216844 C168.655611,30.5208626 168.972269,28.256755 168.423874,26.1231542 L163.201314,6.12532066 C162.263165,2.53926291 159.03918,0.0284962353 155.336012,0 L155.304551,0.0944779537 Z M16.7336739,52.32504 L149.452767,18.2499914 L149.78311,19.5096974 L149.452767,19.6199217 C147.118493,20.2693673 145.189876,21.9175336 144.183015,24.1233708 L123.261314,29.4928679 C119.033955,30.5652209 116.394891,34.7739161 117.267954,39.0508875 L118.573594,45.4911347 C112.699225,42.8092498 106.310502,41.4442435 99.8541773,41.491568 C88.1191479,41.491568 76.085237,45.4911347 64.9794317,53.0808636 C64.6086439,51.5872779 63.8169169,50.2317984 62.6984943,49.1757749 C61.1836011,47.7468908 59.179872,46.9524858 57.0983998,46.955543 C56.4197165,46.9607523 55.7439645,47.0453058 55.0848827,47.2074842 L16.9853635,56.7812501 L16.7336739,52.2620547 L16.7336739,52.32504 Z M134.870498,43.428366 L138.441345,42.4993328 C138.25619,43.1626383 138.140213,43.843367 138.095272,44.5306088 C137.868188,48.2373785 139.451565,51.8240846 142.342535,54.1516138 L140.596438,69.1578621 C140.187442,68.1605948 139.731255,67.1108397 139.227875,66.008597 C139.24768,65.3911656 139.200208,64.7734124 139.0863,64.1662769 L134.870498,43.428366 L134.870498,43.428366 Z" id="Shape" fill="#A6A8AB"></path>
                        <ellipse id="Oval" fill="#6159A5" cx="88.163522" cy="101.242038" rx="28.6666667" ry="28.6942675"></ellipse>
                        <path d="M154.363126,25.9872611 L154.548685,40.5078218 C154.548685,40.5078218 159.388661,41.5326171 159.357734,44.7961958 C159.326808,48.0597746 155.615644,48.4539266 155.615644,48.4539266 L161.18239,83.2496675 L147.930442,83.3757962 L151.889017,48.6904179 C151.889017,48.6904179 146.909872,47.3975992 147.126357,44.1182544 C147.342841,40.8389095 152.461155,40.539354 152.461155,40.539354 L152.321986,26.5548401 L154.363126,25.9872611 Z" id="Combined-Shape" fill="#6159A5"></path>
                        <polyline id="Combined-Shape-2" fill="#6159A5" points="8.65408805 45.2423151 9.91426198 66.3177329 57.6275974 54.3441337 52.1615929 83.3757962 131.710072 65.0466168 125.913272 36.6269731 154.172672 29.4239823 156.220455 28.7648851 161.18239 27.5251546 155.96842 7.57961783 8.65408805 45.2423151"></polyline>
                        <g id="Group" opacity="0.3" style="mix-blend-mode: multiply;" transform="translate(34.616352, 49.808917)" fill="#2E3191">
                            <path d="M40.0816315,111.917581 C27.6712875,111.917581 16.9618535,106.949149 9.93772475,97.9556583 C1.68516093,87.3741558 -0.740210877,72.2015705 3.26007769,56.2900096 C11.0244173,25.7718873 39.8926415,0.961172673 67.7214206,0.961172673 C80.1160155,0.961172673 90.8254495,5.91388186 97.8653274,14.9230957 C106.14939,25.4888753 108.669256,40.6614606 104.574473,56.5730216 C96.888879,87.0911439 67.941909,111.917581 40.0816315,111.917581 Z M60.5555494,29.262368 C49.4208879,29.262368 37.6562597,39.9224849 34.3174362,53.0039264 C32.5220311,60.0635023 33.4984795,66.6671146 36.9790455,71.1324143 C39.6821276,74.5787841 43.8563895,76.5487787 48.2397003,76.4467498 C59.3743618,76.4467498 71.1547392,65.8023558 74.4778135,52.7051915 C76.2732186,45.6613385 75.3125194,39.0420033 71.8319534,34.5767036 C69.1389153,31.1437899 64.985373,29.1753144 60.6185461,29.262368 L60.5555494,29.262368 Z" id="Shape"></path>
                            <path d="M67.7214206,1.54291947 C95.3769589,1.54291947 111.598602,26.1177908 103.944506,56.4315156 C96.2904107,86.7452404 67.7214206,111.320112 40.0186349,111.320112 C12.3158491,111.320112 -3.87429523,86.7452404 3.79554939,56.4315156 C11.465394,26.1177908 40.0973807,1.54291947 67.7214206,1.54291947 M48.2711987,77.0127738 C59.673596,77.0127738 71.6587125,66.195428 75.0447836,52.8466975 C78.4308546,39.497967 71.8949501,28.6648984 60.5555494,28.6648984 C49.2161487,28.6648984 37.1522863,39.497967 33.7819645,52.8466975 C30.4116426,66.195428 36.931798,77.0127738 48.2869478,77.0127738 M67.7214206,0.363702993 C39.5934073,0.363702993 10.4101998,25.394538 2.64586016,56.1485036 C-1.40167592,72.2330163 1.0709434,87.5942762 9.43375139,98.3015618 C16.5681243,107.452282 27.4350499,112.452159 40.034384,112.452159 C68.1466482,112.452159 97.3456049,87.4213245 105.094195,56.6673589 C109.157481,40.5828462 106.669112,25.2215862 98.3220533,14.5143007 C91.1719312,5.36358084 80.3050055,0.363702993 67.7214206,0.363702993 Z M48.2711987,75.8335573 C44.0593559,75.9621747 40.0391849,74.0752047 37.4515205,70.755065 C34.0811987,66.4155484 33.1519978,60.0006108 34.9001554,53.1139866 C38.1759822,40.2683884 49.6886238,29.8283919 60.5712986,29.8283919 C64.7842095,29.6946234 68.8066044,31.5826371 71.3909767,34.9068842 C74.7612986,39.230678 75.6904994,45.6613385 73.9265927,52.5322398 C70.666515,65.3778379 59.1538735,75.8335573 48.2711987,75.8335573 L48.2711987,75.8335573 Z" id="Shape"></path>
                        </g>
                        <path d="M73.2395608,160.254777 C60.858569,160.254777 50.1744645,155.276524 43.1669488,146.220846 C34.9339035,135.600574 32.4985562,120.349736 36.5050954,104.356112 C44.1882235,73.6805936 73.0510178,48.7261146 100.923961,48.7261146 C113.304953,48.7261146 123.989058,53.7201712 130.996573,62.7600458 C139.229618,73.380318 141.664966,88.6469594 137.658427,104.640584 C129.896739,135.300298 101.08108,160.254777 73.2395608,160.254777 Z M93.6650549,77.1890764 C82.5567285,77.1890764 70.8199254,87.8883685 67.4889986,101.053081 C65.6978399,108.133262 66.656267,114.786737 70.1286009,119.275066 C72.8333993,122.737712 77.0015,124.716863 81.3783346,124.61681 C92.486661,124.61681 104.223464,113.901714 107.554391,100.752805 C109.34555,93.6568199 108.387122,87.0191498 104.914788,82.5308205 C102.224962,79.0841736 98.0833379,77.1065457 93.7279025,77.1890764 L93.6650549,77.1890764 Z" id="Shape" fill="url(#radialGradient-1)"></path>
                        <path d="M101.426489,48.8122346 C129.034184,48.8122346 145.218547,73.5175693 137.566328,103.972739 C129.91411,134.427909 101.426489,159.117447 73.7873682,159.117447 C46.1482475,159.117447 29.9953105,134.427909 37.6475287,103.972739 C45.2997469,73.5175693 73.7873682,48.8122346 101.426489,48.8122346 M82.0209664,124.634234 C93.3971593,124.634234 105.370445,113.750618 108.733022,100.339602 C112.095598,86.9285854 105.590427,76.0607655 94.2770859,76.0607655 C82.9637448,76.0607655 70.927607,86.9285854 67.5650306,100.339602 C64.2024542,113.750618 70.7076253,124.634234 82.0209664,124.634234 M101.426489,47.6433121 C73.3788309,47.6433121 44.2626906,72.7909418 36.5161946,103.688406 C32.4779604,119.84797 34.9448972,135.280906 43.2727733,146.038152 C50.4064633,155.23157 61.2484152,160.254777 73.8187941,160.254777 C101.866452,160.254777 130.982592,135.107147 138.729088,104.209683 C142.767323,88.0501191 140.300386,72.6171831 131.97251,61.8599369 C124.83882,52.6665195 113.996868,47.6433121 101.426489,47.6433121 Z M82.0209664,123.465311 C77.8215993,123.60239 73.8120493,121.704506 71.2418664,118.363123 C67.8792901,114.03495 66.9522246,107.574284 68.6649388,100.671323 C71.9332373,87.7657866 83.419421,77.2612805 94.2770859,77.2612805 C98.4748464,77.1319982 102.481048,79.0282973 105.056186,82.3634692 C108.418762,86.7232342 109.345828,93.1681041 107.601688,100.086862 C104.333389,112.992398 92.8472053,123.481107 81.9895404,123.481107 L82.0209664,123.465311 Z" id="Shape" fill="#A6A8AB"></path>
                    </g>
                    <g id="oeweek" transform="translate(113.000000, 80.000000)">
                        <path d="M170.867542,23.6644406 L166.92257,18.6377899 L169.610939,16.0935313 C171.512682,14.3571542 172.602645,11.8851486 172.611555,9.28821952 C172.636366,6.88097882 171.70401,4.565317 170.025463,2.86523228 C168.346916,1.16514756 166.064065,0.224345453 163.693481,0.255714826 C161.127016,0.254894753 158.673185,1.32596217 156.907825,3.2175721 L156.009164,4.12236923 C153.159519,0.0567901624 147.642811,-0.971071501 143.557371,1.80237659 C142.185998,0.933544638 140.604272,0.467764947 138.987905,0.456780855 L125.279509,0.456780855 C123.55913,0.462783703 121.876159,0.967150334 120.42826,1.91064291 C119.004335,0.964090482 117.339845,0.458918064 115.637937,0.456780855 L101.929541,0.456780855 C100.350544,0.459807309 98.8004004,0.886672856 97.4362333,1.69411027 C93.2684343,-1.00865677 87.7351077,0.194370137 85.0225191,4.39303504 C83.3380749,1.75161584 80.4448097,0.163159004 77.3458172,0.178381738 L76.9193338,0.178381738 C73.8257407,0.168433922 70.9393824,1.7562492 69.2578635,4.39303504 C66.6854492,0.406644302 61.5462062,-0.934025265 57.4001009,1.29971152 C56.2372104,0.734527551 54.9652057,0.438692862 53.6759866,0.433580929 L39.9675905,0.433580929 C36.8909649,0.43483882 34.0243427,2.01834794 32.3518149,4.64050092 C28.7709941,1.61046329 24.2488191,-0.0334383192 19.5877749,0.00051563494 C8.60582646,0.00051563494 0,8.5690218 0,19.5657869 C0,30.5625521 8.57536335,38.9918587 19.5192329,38.9918587 C24.1973315,39.0312647 28.7380831,37.3874756 32.3365833,34.3518734 C34.0009711,36.9869136 36.8694824,38.5831173 39.9523589,38.5897266 L53.8739968,38.5897266 C56.7743423,38.5912131 59.4903289,37.1457718 61.1394467,34.7230722 C62.8302694,37.3733007 65.7216572,38.9808389 68.8313801,38.999798 L69.3949475,38.999798 C72.506213,39.0177815 75.4084242,37.4113887 77.0792651,34.7462721 C78.7480604,37.4136107 81.6515865,39.0207313 84.7635827,38.999798 L85.3271501,38.999798 C88.9540098,38.9528192 92.2236592,36.7706018 93.7045033,33.4084097 C95.2204658,36.5752241 98.378184,38.5908789 101.845767,38.6051932 L115.759789,38.6051932 C117.428902,38.6026858 119.062304,38.1142279 120.466339,37.197731 C121.89229,38.1092602 123.541238,38.5968443 125.226199,38.6051932 L139.170684,38.6051932 C140.761853,38.5960491 142.320507,38.1469022 143.679223,37.3059974 C145.146232,38.3051315 146.870689,38.8430947 148.637093,38.8526591 C151.70796,38.8435246 154.569016,37.268901 156.252868,34.6612057 L156.519421,35.0092046 C158.817036,38.2598452 162.915033,39.6379319 166.669236,38.4224156 C170.423439,37.2068992 172.979474,33.6744049 172.99998,29.6732216 C173.004519,27.4784426 172.249793,25.3517551 170.867542,23.6644406 L170.867542,23.6644406 Z M19.5649276,20.9655158 C18.4911032,20.9655158 18.4377928,19.7745863 18.4377928,19.4652539 C18.4377928,18.8388559 18.6205714,18.0964583 19.4963856,18.0964583 C20.57021,18.0964583 20.6235204,19.2951211 20.6235204,19.64312 C20.6235204,20.2308515 20.4407418,20.9655158 19.5649276,20.9655158 Z" id="Shape" stroke="#A6A8AB" stroke-width="1.36" fill="#FFFFFF" stroke-linejoin="round"></path>
                        <path d="M6.4875,19.5695187 L6.4875,19.5 C6.4875,12.3550208 11.9640828,6.5 19.4962598,6.5 C27.0284367,6.5 32.4375,12.2777778 32.4375,19.4304813 L32.4375,19.5 C32.4375,26.6449792 26.9609172,32.5 19.4287402,32.5 C11.8965633,32.5 6.4875,26.7144979 6.4875,19.5695187 Z M26.818376,19.5695187 L26.818376,19.5 C26.818376,15.1898396 23.7499892,11.5980392 19.4287402,11.5980392 C15.1074913,11.5980392 12.0991219,15.1203209 12.0991219,19.4304813 L12.0991219,19.5 C12.0991219,23.8101604 15.1675087,27.4019608 19.4962598,27.4019608 C23.8250108,27.4019608 26.818376,23.8796791 26.818376,19.5695187 Z" id="Shape" fill="#333333"></path>
                        <path d="M36.7625,28.6756243 L36.7625,9.24469122 C36.7563532,8.51723122 37.0460894,7.81766669 37.5669739,7.3025374 C38.0878585,6.78740812 38.7964071,6.49971791 39.5340697,6.5038425 L53.5078718,6.5038425 C54.4243027,6.45318132 55.2939818,6.90654742 55.7676729,7.68188307 C56.2413641,8.45721872 56.2413641,9.42733957 55.7676729,10.2026752 C55.2939818,10.9780109 54.4243027,11.431377 53.5078718,11.3807158 L42.2511979,11.3807158 L42.2511979,16.4336771 L51.8853581,16.4336771 C53.2616488,16.4336771 54.3773528,17.5339717 54.3773528,18.8912538 C54.3732556,19.5382932 54.1081484,20.1571086 53.6405786,20.6110382 C53.1730088,21.0649677 52.5414427,21.3166673 51.8853581,21.3105504 L42.2511979,21.3105504 L42.2511979,26.5395998 L53.6941892,26.5395998 C54.3618069,26.5293431 55.0056732,26.7837306 55.4814419,27.245732 C55.9572107,27.7077334 56.225,28.3386996 56.225,28.9971764 C56.2229805,29.6448572 55.9585327,30.2648726 55.4905063,30.7192454 C55.0224799,31.1736183 54.3897076,31.4246488 53.7330053,31.4166667 L39.5340697,31.4166667 C38.7964071,31.4205976 38.0878585,31.1329074 37.5669739,30.6177781 C37.0460894,30.1026489 36.7563532,29.4030843 36.7625,28.6756243 Z" id="Path" fill="#333333"></path>
                        <path d="M58.5948073,10.347594 C58.4744348,10.0102324 58.40456,9.65654847 58.3875,9.29826948 C58.3952253,8.55260808 58.7007423,7.84185813 59.2344625,7.32790977 C59.7681826,6.8139614 60.4846601,6.5405768 61.2207002,6.5700258 C62.4492009,6.55847047 63.5377989,7.36915781 63.8926613,8.55985595 L68.8603592,24.0587674 L73.8510913,8.69976588 C74.1835862,7.4139947 75.3253819,6.51285241 76.6382232,6.5 L77.0681939,6.5 C78.3885544,6.49075536 79.542165,7.40122235 79.8553258,8.69976588 L84.8537359,24.0587674 L89.8137557,8.55985595 C90.1572088,7.38109701 91.225659,6.57145451 92.4396486,6.5700258 C93.1514392,6.55330989 93.8399106,6.82736917 94.3498162,7.33040472 C94.8597219,7.83344028 95.1481278,8.52309667 95.15,9.24386007 C95.1293158,9.6118114 95.0595816,9.97524211 94.9426927,10.3242757 L87.9403117,30.23035 C87.579256,31.5366575 86.4232956,32.4552185 85.0840774,32.5 L84.5159017,32.5 C83.1772533,32.4722029 82.0213797,31.5437272 81.6903796,30.23035 L76.76875,15.7341264 L71.8394424,30.23035 C71.5138771,31.5440483 70.3592571,32.4740442 69.0215983,32.5 L68.4534226,32.5 C67.1113319,32.4585548 65.951419,31.539324 65.5895102,30.23035 L58.5948073,10.347594 Z" id="Path" fill="#333333"></path>
                        <path d="M99.475,28.6756243 L99.475,9.24469122 C99.468825,8.51589437 99.7597379,7.81514921 100.28252,7.29979345 C100.805301,6.7844377 101.516144,6.49765719 102.255442,6.5038425 L116.23482,6.5038425 C117.151617,6.45318132 118.021643,6.90654742 118.495523,7.68188307 C118.969403,8.45721872 118.969403,9.42733957 118.495523,10.2026752 C118.021643,10.9780109 117.151617,11.431377 116.23482,11.3807158 L104.973655,11.3807158 L104.973655,16.4336771 L114.611659,16.4336771 C115.280259,16.4234384 115.925169,16.6775883 116.402355,17.1393645 C116.879541,17.6011407 117.14925,18.232075 117.151246,18.8912538 C117.147147,19.5382932 116.881934,20.1571086 116.414178,20.6110382 C115.946422,21.0649677 115.314604,21.3166673 114.658257,21.3105504 L105.00472,21.3105504 L105.00472,26.5395998 L116.444511,26.5395998 C117.821351,26.5395998 118.9375,27.6398943 118.9375,28.9971764 C118.93548,29.6448572 118.670926,30.2648726 118.202713,30.7192454 C117.7345,31.1736183 117.101475,31.4246488 116.444511,31.4166667 L102.255442,31.4166667 C101.516144,31.4226584 100.805301,31.1358778 100.28252,30.6205221 C99.7597379,30.1051663 99.468825,29.4044212 99.475,28.6756243 Z" id="Path" fill="#333333"></path>
                        <path d="M122.18125,28.6756997 L122.18125,9.24470055 C122.173034,8.51661108 122.462895,7.81582471 122.985701,7.30023503 C123.508507,6.78464536 124.220278,6.49762508 124.960647,6.50384251 L138.973519,6.50384251 C139.892513,6.45318116 140.764623,6.90654881 141.239639,7.68188709 C141.714654,8.45722537 141.714654,9.42734952 141.239639,10.2026878 C140.764623,10.9780261 139.892513,11.4313937 138.973519,11.3807324 L127.685372,11.3807324 L127.685372,16.4337109 L137.346469,16.4337109 C138.726608,16.4337109 139.845431,17.5340092 139.845431,18.8912959 C139.841323,19.5383375 139.575474,20.157155 139.106597,20.6110861 C138.63772,21.0650172 138.004388,21.3167176 137.346469,21.3106007 L127.677587,21.3106007 L127.677587,26.5396679 L139.152573,26.5396679 C140.52967,26.5438869 141.64375,27.6429504 141.64375,28.9972529 C141.641706,29.6435941 141.377587,30.2624341 140.909944,30.7165852 C140.442301,31.1707363 139.80977,31.4226777 139.152573,31.4166667 L124.921722,31.4166667 C124.188097,31.4125277 123.486385,31.120991 122.972027,30.6065279 C122.45767,30.0920648 122.173126,29.3971431 122.18125,28.6756997 Z" id="Path" fill="#333333"></path>
                        <path d="M145.96875,9.21705151 C145.96875,7.72935256 147.179333,6.52333426 148.672662,6.52333426 C150.165991,6.52333426 151.376574,7.72935256 151.376574,9.21705151 L151.376574,17.4336416 L161.338752,7.56921889 C161.906735,6.90772352 162.731009,6.51903786 163.6046,6.50076121 C164.271293,6.48414524 164.915749,6.74015944 165.388033,7.20924054 C165.860316,7.67832163 166.119248,8.31957051 166.104586,8.98379667 C166.089356,9.77266564 165.727716,10.5152199 165.115166,11.0153711 L158.204329,17.4562146 L165.757156,26.8992737 C166.230852,27.4165033 166.499332,28.0878462 166.5125,28.7878855 C166.51735,29.5043334 166.226519,30.1913129 165.708086,30.6878723 C165.189652,31.1844317 164.489173,31.4469361 163.770763,31.4138836 C162.844105,31.3930002 161.991169,30.9058274 161.504915,30.1196954 L154.480786,20.9550373 L151.376574,23.8067659 L151.376574,28.7051176 C151.376574,30.1928166 150.165991,31.3988349 148.672662,31.3988349 C147.179333,31.3988349 145.96875,30.1928166 145.96875,28.7051176 L145.96875,9.21705151 Z" id="Path" fill="#333333"></path>
                    </g>
                </g>
                <g id="pic" transform="translate(265.000000, 44.000000) rotate(15.000000) translate(-265.000000, -44.000000) translate(248.000000, 28.000000)" fill-rule="nonzero">
                    <polygon id="Rectangle-4" fill="#FFFFFF" points="0.806925289 0.341943744 33.8069253 0.341943744 33.8069253 31.3419437 0.806925289 31.3419437"></polygon>
                    <polygon id="Rectangle-4" fill="#CDCAE2" points="3.72053785 2.09001187 31.7205378 2.09001187 31.7205378 21.0900119 3.72053785 21.0900119"></polygon>
                    <circle id="Oval-4" fill="#6159A5" cx="9.79437136" cy="9.05507897" r="3"></circle>
                    <polygon id="Rectangle-4" fill="#6159A5" points="3.09207261 23.6993609 31.0920726 23.6993609 31.0920726 25.6993609 3.09207261 25.6993609"></polygon>
                    <polygon id="Rectangle-4" fill="#6159A5" points="3.81415574 27.1841268 19.8141557 27.1841268 19.8141557 29.1841268 3.81415574 29.1841268"></polygon>
                    <polygon id="Path-4" fill="#6159A5" points="3.08278142 21.4172 13.6868062 12.4372791 20.5759612 17.8442614 26.267068 13.8521356 31.0827814 18.2168585 31.0673062 21.4372791"></polygon>
                </g>
                <path d="M319.980676,57 C320.702097,57 321.371978,56.8421916 321.990338,56.52657 C322.608699,56.2109485 323.098227,55.7882474 323.458937,55.2584541 C323.819648,54.7286608 324,54.1481513 324,53.5169082 C324,52.8856651 323.819648,52.2995196 323.458937,51.7584541 C323.098227,51.2173886 322.608699,50.7890515 321.990338,50.47343 C321.371978,50.1578084 320.702097,50 319.980676,50 C319.259256,50 318.595816,50.1578084 317.990338,50.47343 C317.38486,50.7890515 316.901773,51.2173886 316.541063,51.7584541 C316.180352,52.2995196 316,52.8856651 316,53.5169082 C316,54.4863172 316.38647,55.3091754 317.15942,55.9855072 C317.932371,56.6618391 318.87278,57 319.980676,57 Z M320,44 C321.83277,44 323.516602,44.4531205 325.051546,45.359375 C326.563581,46.2656295 327.766319,47.4855693 328.659794,49.0192308 C329.553269,50.5761296 330,52.2840452 330,54.1430288 C330,55.5605039 329.656361,57.1870902 328.969072,59.0228365 C328.373422,60.5797353 327.548688,62.264414 326.494845,64.0769231 C325.62428,65.5176354 324.627726,67.0164185 323.505155,68.5733173 C322.726227,69.6654702 321.901493,70.7343698 321.030928,71.7800481 L320,73 L318.969072,71.7800481 C318.098507,70.7343698 317.273773,69.6654702 316.494845,68.5733173 C315.372274,67.0164185 314.37572,65.5176354 313.505155,64.0769231 C312.451312,62.264414 311.626578,60.5797353 311.030928,59.0228365 C310.343639,57.1870902 310,55.5605039 310,54.1430288 C310,52.2840452 310.446731,50.5761296 311.340206,49.0192308 C312.233681,47.4855693 313.436419,46.2656295 314.948454,45.359375 C316.483398,44.4531205 318.16723,44 320,44 Z" id="location_on---material" stroke="#6159A5" stroke-width="0.9" fill="#D1CEE7"></path>
                <path d="M356.984541,153.310345 C357.561678,153.310345 358.097582,153.185186 358.592271,152.934866 C359.086959,152.684545 359.478581,152.3493 359.76715,151.929119 C360.055718,151.508938 360.2,151.048534 360.2,150.547893 C360.2,150.047252 360.055718,149.582378 359.76715,149.153257 C359.478581,148.724136 359.086959,148.38442 358.592271,148.1341 C358.097582,147.883779 357.561678,147.758621 356.984541,147.758621 C356.407405,147.758621 355.876653,147.883779 355.392271,148.1341 C354.907888,148.38442 354.521419,148.724136 354.23285,149.153257 C353.944282,149.582378 353.8,150.047252 353.8,150.547893 C353.8,151.316734 354.109176,151.969346 354.727536,152.505747 C355.345897,153.042148 356.098224,153.310345 356.984541,153.310345 Z M357,143 C358.466216,143 359.813281,143.359371 361.041237,144.078125 C362.250865,144.796879 363.213055,145.764417 363.927835,146.980769 C364.642615,148.215551 365,149.570105 365,151.044471 C365,152.168675 364.725089,153.458727 364.175258,154.914663 C363.698738,156.149445 363.03895,157.48557 362.195876,158.923077 C361.499424,160.065711 360.702181,161.254401 359.804124,162.489183 C359.180982,163.355373 358.521195,164.203121 357.824742,165.032452 L357,166 L356.175258,165.032452 C355.478805,164.203121 354.819018,163.355373 354.195876,162.489183 C353.297819,161.254401 352.500576,160.065711 351.804124,158.923077 C350.96105,157.48557 350.301262,156.149445 349.824742,154.914663 C349.274911,153.458727 349,152.168675 349,151.044471 C349,149.570105 349.357385,148.215551 350.072165,146.980769 C350.786945,145.764417 351.749135,144.796879 352.958763,144.078125 C354.186719,143.359371 355.533784,143 357,143 Z" id="location_on---material" stroke="#6159A5" stroke-width="0.72" fill="#D1CEE7"></path>
                <g id="Group-2" transform="translate(286.000000, 147.000000)" fill-rule="nonzero">
                    <rect id="Rectangle" fill="#FFFFFF" x="0" y="0" width="42" height="34"></rect>
                    <rect id="Rectangle" fill="#6159A5" x="0" y="0" width="42" height="8"></rect>
                    <rect id="Rectangle" fill="#6159A5" x="4" y="13" width="36" height="5"></rect>
                    <rect id="Rectangle" fill="#E0E0E0" x="2" y="20" width="17" height="1"></rect>
                    <rect id="Rectangle" fill="#E0E0E0" x="3" y="27" width="9" height="1"></rect>
                </g>
                <g id="Group-4" transform="translate(320.000000, 93.000000)" fill-rule="nonzero">
                    <rect id="Rectangle" fill="#F5F5F5" x="0" y="0" width="37" height="38"></rect>
                    <rect id="Rectangle" fill="#6159A5" x="6" y="7" width="25" height="12"></rect>
                    <rect id="Rectangle" fill="#6159A5" x="14" y="25" width="10" height="2"></rect>
                    <rect id="Rectangle" fill="#BDBDBD" x="10" y="30" width="18" height="1"></rect>
                </g>
                <text id="2020" font-family="GothamRounded-Bold, Gotham Rounded" font-size="45" font-weight="bold" letter-spacing="-2.3" fill="#6159A5">
                    <tspan x="143" y="161">2020</tspan>
                </text>
            </g>
        </g>
    </g>
</svg>