<?xml version="1.0" encoding="UTF-8"?>
<svg width="310px" height="161px" viewBox="0 0 310 161" version="1.1" xmlns="http://www.w3.org/2000/svg" xmlns:xlink="http://www.w3.org/1999/xlink">
    <!-- Generator: Sketch 51.3 (57544) - http://www.bohemiancoding.com/sketch -->
    <title>logo-2019</title>
    <desc>Created with Sketch.</desc>
    <defs></defs>
    <g id="OEWEEK" stroke="none" stroke-width="1" fill="none" fill-rule="evenodd">
        <g id="oeweek/logo-fc">
            <g id="Group-8" stroke-width="1">
                <path d="M193.338,27.429 C194.064,27.065 194.726,26.635 195.254,26.173 C195.783,25.71 196.245,25.215 196.643,24.719 C197.039,24.19 197.336,23.661 197.601,23.1 C197.832,22.538 198.03,21.976 198.195,21.381 C198.262,21.117 198.295,20.786 198.327,20.423 C198.36,20.059 198.295,19.729 198.229,19.399 C198.129,19.068 197.964,18.803 197.732,18.572 C197.501,18.341 197.171,18.242 196.774,18.242 C196.312,18.242 195.915,18.374 195.585,18.638 C195.254,18.903 194.924,19.233 194.692,19.663 C194.428,20.092 194.229,20.621 194.064,21.216 C193.899,21.811 193.767,22.439 193.668,23.133 C193.568,23.827 193.503,24.521 193.437,25.248 C193.338,25.942 193.338,26.702 193.338,27.429 Z M186.86,40.779 C186.86,40.879 186.894,41.044 186.927,41.276 C186.959,41.507 187.025,41.705 187.125,41.936 C187.224,42.168 187.356,42.366 187.521,42.531 C187.687,42.696 187.885,42.796 188.116,42.796 C188.314,42.796 188.513,42.696 188.645,42.465 C188.777,42.234 188.876,41.936 188.976,41.54 C189.074,41.143 189.107,40.714 189.174,40.251 C189.207,39.755 189.239,39.259 189.272,38.764 C189.306,38.268 189.306,37.773 189.306,37.277 C189.306,36.781 189.339,36.351 189.339,35.988 C189.372,35.327 189.405,34.765 189.438,34.302 C189.471,33.84 189.471,33.444 189.471,33.146 C189.471,32.816 189.504,32.518 189.504,32.287 C189.272,32.683 189.041,33.179 188.81,33.708 C188.579,34.237 188.381,34.798 188.183,35.393 C187.983,35.988 187.818,36.549 187.653,37.145 C187.488,37.739 187.356,38.268 187.224,38.764 C187.092,39.259 187.025,39.689 186.959,40.052 C186.894,40.35 186.86,40.614 186.86,40.779 Z M195.65,29.279 C196.906,29.279 198.03,29.147 199.055,28.916 C200.079,28.685 201.004,28.321 201.83,27.924 C202.656,27.495 203.417,26.999 204.078,26.437 C204.738,25.876 205.366,25.281 205.896,24.62 L206.094,28.85 C205.697,29.345 205.234,29.808 204.673,30.238 C204.11,30.7 203.482,31.097 202.822,31.427 C202.161,31.758 201.467,32.055 200.707,32.254 C199.979,32.452 199.253,32.551 198.525,32.551 C198.427,32.551 198.327,32.551 198.195,32.518 C198.063,32.485 197.832,32.452 197.534,32.386 C197.204,32.32 196.741,32.254 196.146,32.121 C195.552,32.022 194.726,31.89 193.701,31.725 L193.701,32.055 C193.701,34.302 193.503,36.351 193.14,38.169 C192.775,40.02 192.247,41.573 191.619,42.862 C190.991,44.151 190.264,45.175 189.438,45.869 C188.611,46.563 187.785,46.926 186.894,46.926 C186.199,46.926 185.604,46.761 185.142,46.398 C184.679,46.067 184.282,45.571 184.019,45.009 C183.754,44.415 183.556,43.721 183.424,42.961 C183.291,42.168 183.258,41.341 183.258,40.482 C183.258,39.987 183.324,39.392 183.489,38.764 C183.654,38.136 183.853,37.475 184.15,36.748 C184.415,36.054 184.712,35.327 185.076,34.6 C185.406,33.873 185.77,33.179 186.133,32.485 C186.959,30.899 187.918,29.279 189.009,27.594 C189.141,26.635 189.272,25.644 189.438,24.62 C189.57,23.595 189.769,22.637 189.967,21.678 C190.198,20.72 190.462,19.828 190.793,18.969 C191.123,18.11 191.553,17.383 192.049,16.755 C192.577,16.127 193.172,15.631 193.899,15.268 C194.626,14.904 195.485,14.706 196.51,14.706 C197.271,14.706 197.964,14.805 198.625,15.003 C199.286,15.201 199.848,15.532 200.344,15.994 C200.839,16.457 201.235,17.052 201.5,17.779 C201.798,18.506 201.93,19.399 201.93,20.456 C201.93,21.282 201.798,22.108 201.566,22.902 C201.335,23.695 200.938,24.422 200.409,25.149 C199.881,25.876 199.22,26.536 198.394,27.164 C197.567,27.792 196.609,28.354 195.519,28.85 L195.65,29.279 Z" id="Fill-263" fill="#20AAA3"></path>
                <path d="M207.746,23.86 C208.176,23.86 208.671,23.76 209.2,23.529 C209.729,23.298 210.225,23.001 210.654,22.637 C211.116,22.274 211.48,21.877 211.811,21.48 C212.108,21.051 212.273,20.654 212.273,20.258 C212.273,19.696 212.174,19.233 211.976,18.87 C211.777,18.506 211.514,18.341 211.216,18.341 C210.688,18.341 210.225,18.44 209.861,18.638 C209.497,18.837 209.167,19.101 208.902,19.399 C208.638,19.729 208.439,20.059 208.274,20.489 C208.109,20.885 208.011,21.282 207.911,21.712 C207.845,22.108 207.779,22.505 207.746,22.902 C207.746,23.265 207.746,23.595 207.746,23.86 Z M210.191,32.584 C209.035,32.584 208.011,32.386 207.151,31.956 C206.292,31.527 205.564,30.965 204.97,30.271 C204.375,29.577 203.945,28.751 203.648,27.792 C203.351,26.867 203.219,25.876 203.219,24.851 C203.219,24.157 203.284,23.43 203.417,22.67 C203.549,21.91 203.747,21.15 204.045,20.39 C204.309,19.663 204.673,18.936 205.103,18.275 C205.532,17.614 206.027,17.019 206.589,16.49 C207.151,15.962 207.779,15.565 208.473,15.268 C209.167,14.97 209.96,14.805 210.786,14.805 C211.48,14.805 212.108,14.904 212.703,15.135 C213.298,15.367 213.826,15.664 214.256,16.061 C214.686,16.457 215.049,16.953 215.28,17.515 C215.512,18.076 215.645,18.704 215.645,19.431 C215.645,20.192 215.445,20.951 215.082,21.745 C214.719,22.505 214.19,23.232 213.529,23.926 C212.868,24.62 212.075,25.215 211.149,25.743 C210.225,26.272 209.233,26.702 208.143,26.999 C208.341,27.33 208.506,27.627 208.704,27.825 C208.869,28.057 209.067,28.222 209.266,28.354 C209.464,28.487 209.63,28.552 209.861,28.618 C210.06,28.652 210.29,28.685 210.521,28.685 C211.249,28.685 212.042,28.552 212.868,28.255 C213.694,27.958 214.487,27.594 215.28,27.132 C216.073,26.669 216.801,26.206 217.495,25.677 C218.188,25.149 218.783,24.653 219.246,24.19 L221.626,26.669 C220.535,27.792 219.378,28.784 218.155,29.643 C217.627,30.007 217.065,30.37 216.438,30.734 C215.81,31.097 215.182,31.394 214.521,31.692 C213.859,31.956 213.133,32.188 212.438,32.353 C211.679,32.518 210.951,32.584 210.191,32.584 Z" id="Fill-264" fill="#20AAA3"></path>
                <path d="M218.52,28.717 C218.52,27.891 218.552,26.966 218.651,25.876 C218.75,24.818 218.883,23.728 219.015,22.604 C219.147,21.513 219.346,20.423 219.511,19.399 C219.709,18.374 219.874,17.482 220.039,16.755 C220.172,16.193 220.436,15.697 220.832,15.334 C221.229,14.937 221.758,14.772 222.419,14.772 C223.08,14.772 223.542,14.97 223.807,15.4 C224.071,15.796 224.203,16.358 224.203,17.019 C224.203,17.217 224.17,17.448 224.137,17.779 C224.104,18.11 224.038,18.44 224.005,18.803 C223.938,19.167 223.906,19.564 223.84,19.96 C223.773,20.357 223.707,20.72 223.675,21.084 C223.608,21.414 223.575,21.712 223.542,21.976 C223.509,22.24 223.477,22.405 223.477,22.472 L223.84,22.472 C223.906,22.34 224.038,22.108 224.203,21.811 C224.368,21.513 224.534,21.15 224.765,20.753 C224.963,20.357 225.194,19.927 225.426,19.498 C225.657,19.068 225.889,18.638 226.087,18.242 C226.285,17.845 226.483,17.482 226.648,17.184 C226.813,16.887 226.946,16.655 227.045,16.49 C227.441,15.829 227.904,15.367 228.4,15.102 C228.896,14.871 229.458,14.739 230.086,14.739 C230.714,14.739 231.209,15.003 231.572,15.532 C231.937,16.061 232.135,16.755 232.135,17.68 C232.135,17.812 232.102,18.044 232.035,18.374 C231.97,18.704 231.903,19.068 231.837,19.53 C231.771,19.993 231.639,20.456 231.54,20.985 C231.44,21.513 231.342,22.075 231.242,22.604 C231.144,23.166 231.077,23.695 231.044,24.256 C230.978,24.785 230.944,25.314 230.944,25.743 C230.944,26.504 231.044,27.132 231.242,27.627 C231.44,28.123 231.738,28.354 232.135,28.354 C232.333,28.354 232.531,28.288 232.763,28.189 C232.994,28.09 233.258,27.924 233.556,27.759 C233.82,27.594 234.117,27.362 234.415,27.132 C234.712,26.9 234.977,26.669 235.273,26.404 C235.935,25.809 236.629,25.182 237.323,24.455 L237.653,28.618 L236.728,29.313 C236.232,29.709 235.703,30.072 235.175,30.469 C234.646,30.865 234.117,31.196 233.522,31.493 C232.961,31.791 232.366,32.055 231.738,32.22 C231.11,32.419 230.482,32.518 229.788,32.518 C229.094,32.518 228.532,32.022 228.069,31.031 C227.607,30.039 227.376,28.618 227.376,26.735 C227.376,26.008 227.409,25.182 227.508,24.322 C227.607,23.463 227.739,22.538 227.871,21.547 L227.574,21.547 L222.716,31.196 C222.484,31.692 222.188,32.055 221.89,32.22 C221.593,32.419 221.229,32.485 220.8,32.485 C220.304,32.485 219.874,32.386 219.577,32.154 C219.279,31.923 219.015,31.659 218.85,31.295 C218.685,30.932 218.585,30.502 218.52,30.039 C218.552,29.676 218.52,29.213 218.52,28.717" id="Fill-265" fill="#20AAA3"></path>
                <path d="M172.353,33.642 C173.344,33.642 174.27,33.444 175.129,33.08 C175.988,32.683 176.748,32.188 177.475,31.493 C178.202,30.833 178.83,30.039 179.425,29.147 C180.02,28.255 180.548,27.297 180.978,26.272 C181.44,25.248 181.837,24.19 182.168,23.067 C182.498,21.976 182.796,20.885 183.026,19.795 C183.258,18.704 183.424,17.68 183.522,16.689 C183.622,15.697 183.688,14.772 183.688,13.979 C183.688,12.789 183.556,11.665 183.291,10.641 C183.026,9.616 182.63,8.691 182.102,7.931 C181.573,7.171 180.912,6.543 180.119,6.113 C179.325,5.684 178.4,5.453 177.343,5.453 C176.219,5.453 175.096,5.717 174.038,6.279 C172.98,6.841 171.989,7.568 171.031,8.493 C170.105,9.418 169.246,10.509 168.453,11.732 C167.66,12.954 166.999,14.243 166.438,15.631 C165.876,16.986 165.446,18.374 165.148,19.795 C164.851,21.216 164.686,22.538 164.686,23.827 C164.686,25.215 164.851,26.536 165.215,27.726 C165.578,28.916 166.074,29.973 166.734,30.865 C167.396,31.758 168.188,32.419 169.147,32.947 C170.072,33.41 171.163,33.642 172.353,33.642 Z M171.923,38.169 C170.072,38.169 168.42,37.805 166.933,37.046 C165.446,36.285 164.19,35.228 163.166,33.873 C162.142,32.518 161.315,30.899 160.786,29.048 C160.225,27.164 159.96,25.115 159.96,22.868 C159.96,21.678 160.06,20.456 160.225,19.2 C160.39,17.945 160.654,16.721 161.018,15.466 C161.381,14.21 161.811,13.02 162.34,11.798 C162.868,10.608 163.463,9.485 164.19,8.427 C164.884,7.369 165.677,6.378 166.536,5.486 C167.396,4.593 168.354,3.8 169.411,3.173 C170.469,2.511 171.593,2.016 172.782,1.652 C173.972,1.289 175.294,1.091 176.682,1.091 C178.532,1.091 180.185,1.421 181.672,2.082 C183.126,2.743 184.382,3.668 185.373,4.891 C186.364,6.081 187.157,7.534 187.687,9.187 C188.215,10.839 188.479,12.69 188.479,14.673 C188.479,16.325 188.314,18.044 187.983,19.861 C187.653,21.646 187.19,23.43 186.563,25.149 C185.935,26.867 185.142,28.552 184.217,30.106 C183.291,31.692 182.2,33.047 180.978,34.237 C179.755,35.426 178.4,36.351 176.88,37.078 C175.294,37.805 173.675,38.169 171.923,38.169 Z" id="Fill-266" fill="#20AAA3"></path>
                <path d="M182.63,70.125 C181.639,71.183 180.516,72.108 179.26,72.901 C178.004,73.695 176.682,74.355 175.327,74.917 C173.972,75.446 172.584,75.876 171.163,76.14 C169.742,76.404 168.387,76.536 167.065,76.536 C165.611,76.536 164.224,76.371 162.935,76.041 C161.646,75.71 160.521,75.181 159.563,74.487 C158.605,73.794 157.845,72.901 157.283,71.844 C156.722,70.753 156.424,69.497 156.424,68.01 C156.424,66.755 156.655,65.565 157.085,64.408 C157.548,63.252 158.242,62.227 159.167,61.335 C160.125,60.443 161.315,59.716 162.802,59.187 C164.289,58.658 166.041,58.361 168.123,58.295 C166.768,58.295 165.578,58.096 164.554,57.7 C163.529,57.303 162.703,56.775 162.042,56.113 C161.381,55.452 160.886,54.693 160.555,53.8 C160.225,52.908 160.06,51.983 160.06,50.991 C160.06,50.066 160.225,49.207 160.555,48.446 C160.886,47.687 161.315,46.992 161.877,46.364 C162.438,45.737 163.1,45.208 163.859,44.745 C164.62,44.283 165.446,43.919 166.338,43.589 C167.23,43.291 168.188,43.06 169.147,42.895 C170.139,42.73 171.13,42.663 172.121,42.663 C173.575,42.663 174.996,42.829 176.352,43.126 C177.739,43.457 178.962,43.919 180.053,44.547 C181.144,45.175 182.002,45.968 182.663,46.926 C183.324,47.885 183.654,48.975 183.654,50.231 C183.654,50.661 183.489,51.123 183.192,51.553 C182.895,51.983 182.531,52.379 182.102,52.71 C181.672,53.04 181.242,53.338 180.779,53.536 C180.317,53.734 179.921,53.833 179.623,53.833 C179.358,53.833 179.227,53.602 179.227,53.139 C179.227,52.743 179.293,52.214 179.425,51.553 C179.557,50.925 179.788,50.099 180.086,49.14 C179.755,48.876 179.26,48.612 178.632,48.314 C178.004,48.05 177.276,47.786 176.45,47.588 C175.624,47.356 174.765,47.191 173.873,47.026 C172.947,46.893 172.056,46.827 171.163,46.827 C170.337,46.827 169.544,46.893 168.783,47.059 C168.023,47.191 167.362,47.455 166.801,47.786 C166.239,48.116 165.776,48.579 165.413,49.14 C165.082,49.702 164.917,50.396 164.917,51.19 C164.917,51.85 165.05,52.412 165.28,52.875 C165.512,53.338 165.843,53.734 166.239,54.031 C166.636,54.362 167.099,54.626 167.627,54.824 C168.155,55.023 168.685,55.221 169.246,55.386 C169.808,55.551 170.337,55.717 170.898,55.849 C171.428,55.981 171.923,56.179 172.386,56.345 C172.849,56.543 173.212,56.775 173.542,57.039 C173.84,57.303 174.071,57.667 174.17,58.063 C174.203,58.328 174.203,58.592 174.236,58.856 C174.27,59.121 174.27,59.385 174.27,59.616 C174.27,60.31 174.138,60.806 173.873,61.136 C173.608,61.467 173.112,61.599 172.353,61.599 C172.022,61.599 171.626,61.566 171.163,61.533 C170.7,61.5 170.237,61.467 169.808,61.467 C168.816,61.467 167.858,61.599 166.9,61.863 C165.941,62.128 165.082,62.491 164.355,62.987 C163.596,63.483 163,64.111 162.538,64.838 C162.075,65.565 161.844,66.424 161.844,67.415 C161.844,68.341 161.976,69.101 162.24,69.729 C162.505,70.357 162.868,70.852 163.331,71.216 C163.794,71.579 164.355,71.877 164.983,72.009 C165.611,72.174 166.305,72.24 167.032,72.24 C167.925,72.24 168.816,72.141 169.808,71.976 C170.767,71.811 171.725,71.579 172.684,71.249 C173.642,70.951 174.566,70.588 175.492,70.158 C176.385,69.729 177.243,69.299 178.037,68.837 C178.83,68.374 179.491,67.845 180.086,67.349 C180.681,66.82 181.144,66.292 181.44,65.763 L182.63,70.125" id="Fill-267" fill="#20AAA3"></path>
                <path d="M197.634,47.29 C197.699,46.431 197.732,45.737 197.732,45.241 C197.732,44.58 197.667,44.117 197.567,43.853 C197.436,43.589 197.271,43.457 197.071,43.457 C196.675,43.457 196.312,43.721 195.981,44.216 C195.65,44.712 195.387,45.373 195.122,46.133 C194.891,46.926 194.659,47.786 194.461,48.711 C194.263,49.636 194.131,50.562 193.998,51.421 C193.866,52.313 193.767,53.073 193.701,53.8 C193.635,54.527 193.568,54.99 193.568,55.287 C193.536,55.882 193.47,56.477 193.437,57.039 C193.403,57.601 193.37,58.129 193.37,58.592 C193.37,59.054 193.338,59.451 193.338,59.815 C193.338,60.145 193.338,60.443 193.338,60.608 L193.338,60.806 C194.031,59.187 194.692,57.601 195.287,56.014 C195.519,55.32 195.783,54.626 196.047,53.866 C196.312,53.106 196.543,52.379 196.741,51.619 C196.939,50.859 197.138,50.132 197.303,49.405 C197.469,48.645 197.567,47.951 197.634,47.29 Z M188.909,60.74 C188.083,61.136 187.356,61.665 186.729,62.293 C186.101,62.954 185.571,63.648 185.142,64.408 C184.712,65.168 184.382,65.928 184.184,66.689 C183.952,67.448 183.853,68.142 183.853,68.77 C183.853,69.002 183.886,69.266 183.952,69.497 C184.019,69.729 184.117,69.96 184.25,70.158 C184.382,70.357 184.613,70.522 184.878,70.654 C185.142,70.786 185.505,70.852 185.935,70.852 C186.166,70.852 186.364,70.786 186.596,70.687 C186.827,70.588 187.025,70.423 187.224,70.258 C187.422,70.092 187.62,69.861 187.785,69.63 C187.951,69.398 188.116,69.167 188.281,68.903 C188.611,68.341 188.942,67.68 189.239,66.986 C189.207,66.82 189.174,66.523 189.141,66.16 C189.107,65.796 189.107,65.366 189.074,64.904 C189.074,64.441 189.041,63.945 189.041,63.483 C189.041,62.987 189.009,62.525 189.009,62.128 C189.009,61.732 189.009,61.401 188.976,61.136 C188.942,60.839 188.942,60.74 188.909,60.74 Z M201.665,71.117 C200.773,71.811 199.914,72.405 199.055,72.934 C198.691,73.166 198.327,73.364 197.931,73.595 C197.534,73.826 197.138,73.992 196.774,74.157 C196.378,74.322 196.015,74.454 195.65,74.553 C195.287,74.653 194.957,74.719 194.626,74.719 C194.461,74.719 194.196,74.686 193.866,74.62 C193.536,74.553 193.14,74.388 192.742,74.157 C192.346,73.925 191.949,73.595 191.553,73.166 C191.156,72.736 190.793,72.174 190.495,71.447 C190.033,71.877 189.537,72.306 189.041,72.703 C188.513,73.099 187.983,73.463 187.455,73.76 C186.894,74.058 186.364,74.289 185.803,74.487 C185.241,74.653 184.679,74.752 184.117,74.752 C183.324,74.752 182.63,74.587 182.035,74.223 C181.44,73.893 180.945,73.43 180.581,72.835 C180.185,72.273 179.888,71.612 179.722,70.885 C179.523,70.158 179.425,69.398 179.425,68.638 C179.425,67.845 179.523,67.052 179.722,66.226 C179.921,65.433 180.218,64.639 180.614,63.88 C181.011,63.119 181.474,62.392 182.035,61.732 C182.598,61.07 183.226,60.443 183.919,59.947 C184.613,59.418 185.373,58.988 186.232,58.625 C187.059,58.295 187.951,58.063 188.876,57.964 C188.909,56.378 189.041,54.824 189.306,53.271 C189.537,51.718 189.867,50.264 190.297,48.843 C190.727,47.422 191.189,46.166 191.718,44.977 C192.28,43.787 192.875,42.762 193.536,41.903 C194.196,41.044 194.891,40.35 195.618,39.887 C196.345,39.392 197.138,39.16 197.931,39.16 C198.525,39.16 199.021,39.326 199.418,39.623 C199.814,39.921 200.146,40.317 200.409,40.813 C200.674,41.308 200.839,41.903 200.972,42.564 C201.07,43.225 201.137,43.919 201.137,44.613 C201.137,45.043 201.104,45.506 201.07,45.935 C200.905,47.687 200.607,49.339 200.178,50.892 C199.749,52.445 199.253,53.966 198.658,55.42 C198.063,56.906 197.436,58.361 196.774,59.781 C196.08,61.236 195.419,62.723 194.792,64.276 C194.726,64.441 194.659,64.673 194.593,64.904 C194.527,65.135 194.461,65.433 194.428,65.697 C194.362,65.994 194.329,66.292 194.296,66.589 C194.263,66.887 194.229,67.184 194.229,67.482 C194.229,67.845 194.263,68.175 194.296,68.506 C194.329,68.837 194.395,69.101 194.494,69.365 C194.593,69.63 194.726,69.828 194.891,69.96 C195.056,70.092 195.254,70.192 195.519,70.192 C195.75,70.192 196.015,70.158 196.278,70.059 C196.543,69.96 196.841,69.828 197.171,69.663 C197.469,69.497 197.799,69.332 198.097,69.101 C198.427,68.903 198.724,68.704 199.021,68.473 C199.716,67.977 200.409,67.415 201.137,66.788 L201.665,71.117 Z" id="Fill-268" fill="#20AAA3"></path>
                <path d="M214.521,58.162 C214.521,58.493 214.487,58.955 214.421,59.517 C214.355,60.079 214.256,60.707 214.124,61.401 C213.992,62.095 213.893,62.789 213.761,63.516 C213.628,64.243 213.496,64.937 213.396,65.565 C213.265,66.193 213.198,66.755 213.1,67.217 C213.033,67.68 213,68.01 213,68.209 C213,68.539 213,68.869 213.033,69.167 C213.033,69.465 213.1,69.695 213.133,69.927 C213.198,70.158 213.298,70.323 213.43,70.423 C213.563,70.555 213.761,70.588 213.992,70.588 C214.256,70.588 214.587,70.522 214.983,70.39 C215.38,70.258 215.776,70.059 216.239,69.828 C216.669,69.596 217.131,69.332 217.594,69.035 C218.057,68.737 218.486,68.44 218.916,68.11 C219.346,67.779 219.709,67.482 220.039,67.151 C220.37,66.82 220.667,66.556 220.865,66.259 C220.865,66.655 220.865,67.052 220.865,67.383 C220.865,67.713 220.865,68.043 220.865,68.341 C220.865,68.638 220.865,68.968 220.865,69.266 C220.865,69.596 220.865,69.96 220.865,70.357 C220.602,70.621 220.271,70.919 219.841,71.216 C219.444,71.513 218.981,71.844 218.52,72.141 C218.023,72.439 217.527,72.736 216.966,73.033 C216.404,73.331 215.875,73.562 215.313,73.794 C214.752,74.025 214.223,74.19 213.661,74.322 C213.133,74.454 212.604,74.521 212.142,74.521 C211.679,74.521 211.282,74.422 210.951,74.256 C210.621,74.058 210.323,73.826 210.092,73.463 C209.861,73.133 209.663,72.736 209.464,72.273 C209.299,71.811 209.167,71.282 209.035,70.72 C208.605,71.315 208.109,71.844 207.613,72.34 C207.118,72.835 206.622,73.265 206.094,73.595 C205.564,73.959 205.069,74.223 204.54,74.454 C204.012,74.653 203.516,74.752 203.021,74.752 C202.624,74.752 202.228,74.686 201.863,74.553 C201.5,74.422 201.202,74.19 200.905,73.86 C200.641,73.529 200.409,73.099 200.244,72.604 C200.079,72.075 200.013,71.414 200.013,70.654 C200.013,69.695 200.112,68.506 200.344,67.019 C200.575,65.532 200.839,63.88 201.17,61.963 C201.202,61.764 201.235,61.533 201.302,61.203 C201.368,60.872 201.467,60.542 201.566,60.178 C201.698,59.815 201.83,59.418 201.996,59.054 C202.161,58.658 202.359,58.328 202.624,58.03 C202.854,57.733 203.119,57.468 203.45,57.27 C203.78,57.072 204.11,56.973 204.507,56.94 C205.168,56.973 205.631,57.039 205.929,57.204 C206.226,57.336 206.358,57.534 206.358,57.733 C206.259,58.394 206.127,59.121 205.994,59.914 C205.862,60.707 205.73,61.533 205.598,62.359 C205.466,63.185 205.333,63.979 205.201,64.738 C205.069,65.499 204.97,66.193 204.871,66.82 C204.771,67.415 204.706,67.911 204.64,68.275 C204.573,68.638 204.54,68.837 204.54,68.837 C204.54,69.068 204.573,69.266 204.606,69.465 C204.64,69.663 204.706,69.861 204.805,70.026 C204.904,70.192 205.003,70.323 205.135,70.423 C205.268,70.522 205.433,70.555 205.631,70.555 C205.896,70.555 206.192,70.489 206.457,70.357 C206.755,70.224 207.019,70.026 207.25,69.729 C207.515,69.465 207.713,69.134 207.911,68.737 C208.109,68.341 208.241,67.911 208.341,67.415 L210.158,57.997 C210.225,57.7 210.456,57.435 210.918,57.237 C211.348,57.039 211.844,56.94 212.405,56.94 C213.033,56.94 213.529,57.039 213.893,57.27 C214.322,57.534 214.521,57.799 214.521,58.162" id="Fill-269" fill="#20AAA3"></path>
                <path d="M224.203,74.752 C223.08,74.752 222.055,74.553 221.196,74.124 C220.337,73.695 219.609,73.133 219.048,72.439 C218.453,71.745 218.023,70.919 217.726,69.993 C217.429,69.068 217.297,68.11 217.264,67.085 C217.264,66.358 217.329,65.631 217.495,64.838 C217.627,64.045 217.858,63.285 218.155,62.558 C218.453,61.798 218.816,61.104 219.246,60.409 C219.676,59.716 220.172,59.121 220.733,58.625 C221.295,58.096 221.923,57.7 222.617,57.402 C223.311,57.105 224.071,56.94 224.897,56.94 C225.591,56.94 226.252,57.039 226.847,57.27 C227.441,57.502 227.971,57.799 228.4,58.162 C228.83,58.559 229.16,58.988 229.392,59.517 C229.623,60.046 229.755,60.608 229.755,61.203 C229.755,61.633 229.689,62.029 229.59,62.459 C229.49,62.855 229.325,63.218 229.094,63.549 C228.863,63.88 228.632,64.144 228.301,64.342 C228.004,64.54 227.64,64.639 227.276,64.639 C226.682,64.639 226.318,64.474 226.12,64.177 C225.955,63.88 225.855,63.45 225.855,62.888 C225.855,62.657 225.855,62.425 225.889,62.194 C225.922,61.963 225.922,61.732 225.922,61.533 C225.922,61.236 225.889,61.005 225.822,60.806 C225.757,60.608 225.624,60.508 225.426,60.508 C224.931,60.508 224.501,60.641 224.137,60.872 C223.773,61.104 223.477,61.434 223.212,61.831 C222.947,62.227 222.749,62.657 222.617,63.153 C222.484,63.648 222.353,64.111 222.254,64.607 C222.154,65.102 222.121,65.565 222.088,65.994 C222.055,66.424 222.055,66.788 222.055,67.085 C222.055,67.515 222.088,67.977 222.188,68.473 C222.254,68.968 222.419,69.398 222.65,69.795 C222.881,70.192 223.179,70.522 223.575,70.786 C223.972,71.05 224.468,71.183 225.063,71.183 C225.657,71.183 226.318,70.985 227.012,70.621 C227.739,70.258 228.434,69.795 229.16,69.233 C229.888,68.671 230.581,68.076 231.242,67.383 C231.903,66.721 232.465,66.093 232.928,65.499 L234.217,67.647 C233.291,68.968 232.3,70.158 231.209,71.183 C230.746,71.612 230.251,72.075 229.722,72.472 C229.193,72.901 228.632,73.265 228.037,73.595 C227.441,73.925 226.847,74.19 226.186,74.388 C225.525,74.653 224.864,74.752 224.203,74.752" id="Fill-270" fill="#20AAA3"></path>
                <path d="M235.671,68.737 C235.671,69.035 235.703,69.332 235.736,69.63 C235.77,69.927 235.869,70.192 235.968,70.423 C236.067,70.654 236.232,70.852 236.397,70.985 C236.596,71.117 236.827,71.183 237.092,71.183 C237.554,71.183 237.951,70.985 238.348,70.588 C238.711,70.192 239.041,69.729 239.306,69.167 C239.57,68.605 239.802,68.043 239.967,67.448 C240.132,66.854 240.23,66.358 240.297,65.962 L241.421,60.508 C240.925,60.508 240.43,60.641 239.934,60.905 C239.438,61.17 239.008,61.5 238.578,61.93 C238.149,62.359 237.752,62.855 237.389,63.417 C237.025,63.979 236.728,64.573 236.464,65.168 C236.199,65.796 236.001,66.391 235.869,67.019 C235.77,67.614 235.671,68.175 235.671,68.737 Z M251.533,70.192 C251.235,70.588 250.872,71.05 250.409,71.579 C249.946,72.108 249.385,72.604 248.79,73.099 C248.195,73.595 247.567,73.992 246.873,74.322 C246.18,74.653 245.519,74.818 244.824,74.818 C243.998,74.818 243.337,74.553 242.775,74.025 C242.247,73.496 241.751,72.736 241.354,71.745 C241.058,72.075 240.693,72.439 240.264,72.802 C239.834,73.166 239.372,73.496 238.843,73.76 C238.314,74.058 237.785,74.289 237.224,74.487 C236.662,74.686 236.101,74.752 235.571,74.752 C234.977,74.752 234.415,74.62 233.853,74.388 C233.291,74.157 232.796,73.794 232.366,73.364 C231.937,72.934 231.572,72.372 231.342,71.712 C231.077,71.05 230.944,70.323 230.944,69.53 C230.944,68.605 231.077,67.647 231.342,66.689 C231.605,65.697 231.97,64.772 232.432,63.813 C232.895,62.888 233.423,61.996 234.051,61.17 C234.679,60.343 235.373,59.616 236.101,58.988 C236.827,58.361 237.62,57.865 238.446,57.502 C239.272,57.138 240.099,56.94 240.958,56.94 C241.256,56.94 241.454,57.006 241.619,57.105 C241.784,57.204 241.916,57.336 242.016,57.468 C242.114,57.601 242.214,57.766 242.313,57.898 C242.412,58.03 242.544,58.129 242.677,58.195 C242.809,58.261 242.974,58.295 243.139,58.328 C243.305,58.361 243.437,58.361 243.602,58.361 C243.734,58.361 243.866,58.361 244.031,58.361 C244.163,58.361 244.296,58.361 244.461,58.361 C244.659,58.361 244.824,58.394 244.989,58.427 C245.155,58.46 245.287,58.559 245.419,58.658 C245.552,58.79 245.65,58.955 245.717,59.187 C245.783,59.418 245.815,59.716 245.815,60.079 C245.815,60.674 245.75,61.335 245.617,62.062 C245.485,62.789 245.354,63.516 245.221,64.276 C245.089,65.036 244.924,65.796 244.824,66.556 C244.692,67.316 244.626,68.043 244.626,68.704 C244.626,69.299 244.692,69.729 244.791,70.059 C244.891,70.39 245.122,70.555 245.452,70.555 C245.717,70.555 245.981,70.489 246.278,70.357 C246.576,70.224 246.84,70.059 247.138,69.861 C247.436,69.663 247.732,69.398 247.997,69.134 C248.294,68.869 248.559,68.605 248.823,68.308 C249.418,67.647 250.046,66.887 250.674,66.061 L251.533,70.192 Z" id="Fill-271" fill="#20AAA3"></path>
                <path d="M258.804,47.091 C258.804,46.96 258.804,46.794 258.771,46.629 C258.737,46.464 258.704,46.299 258.638,46.166 C258.572,46.034 258.473,45.902 258.341,45.803 C258.208,45.704 258.043,45.671 257.779,45.671 C257.448,45.671 257.118,45.968 256.82,46.53 C256.49,47.091 256.192,47.819 255.862,48.711 C255.564,49.603 255.268,50.562 255.003,51.619 C254.738,52.676 254.507,53.701 254.275,54.725 C254.475,54.758 254.64,54.758 254.838,54.792 C255.036,54.824 255.201,54.824 255.399,54.858 C255.763,54.23 256.159,53.536 256.556,52.809 C256.953,52.082 257.316,51.355 257.646,50.628 C257.978,49.934 258.241,49.24 258.439,48.645 C258.704,48.017 258.804,47.488 258.804,47.091 Z M264.752,70.588 C263.563,71.282 262.505,71.877 261.579,72.405 C260.654,72.934 259.828,73.364 259.101,73.695 C258.374,74.025 257.746,74.289 257.184,74.487 C256.622,74.653 256.127,74.752 255.664,74.752 C254.738,74.752 253.879,74.454 253.186,73.893 C252.458,73.331 251.863,72.505 251.4,71.447 C250.905,70.39 250.542,69.068 250.311,67.548 C250.079,66.028 249.946,64.309 249.946,62.425 C249.946,61.698 249.979,60.905 250.046,60.046 C250.112,59.22 250.178,58.361 250.311,57.534 C249.946,57.502 249.649,57.435 249.451,57.402 C249.253,57.369 249.021,57.303 248.79,57.27 C248.559,57.237 248.262,57.171 247.931,57.138 C247.567,57.105 247.071,57.039 246.411,56.94 C246.113,56.906 245.882,56.841 245.717,56.741 C245.552,56.642 245.452,56.51 245.354,56.378 C245.287,56.246 245.221,56.08 245.221,55.948 C245.221,55.783 245.188,55.651 245.188,55.551 C245.188,55.32 245.32,55.122 245.552,54.99 C245.783,54.858 246.113,54.758 246.477,54.693 C246.84,54.626 247.27,54.593 247.732,54.593 C248.195,54.593 248.625,54.593 249.021,54.593 C249.451,54.593 249.814,54.626 250.145,54.626 C250.476,54.626 250.707,54.626 250.806,54.593 C251.137,52.941 251.566,51.321 252.062,49.736 C252.558,48.182 253.152,46.794 253.78,45.571 C254.408,44.349 255.102,43.39 255.862,42.631 C256.622,41.903 257.415,41.54 258.241,41.54 C258.771,41.54 259.266,41.672 259.695,41.969 C260.125,42.267 260.521,42.663 260.819,43.159 C261.116,43.655 261.381,44.216 261.546,44.878 C261.711,45.538 261.811,46.233 261.811,46.96 C261.811,47.554 261.711,48.215 261.546,48.876 C261.381,49.537 261.149,50.231 260.853,50.925 C260.555,51.619 260.191,52.346 259.795,53.04 C259.398,53.767 258.969,54.461 258.539,55.188 C258.638,55.188 258.836,55.221 259.101,55.221 C259.365,55.221 259.662,55.221 259.993,55.254 C260.323,55.254 260.687,55.287 261.084,55.287 C261.48,55.32 261.877,55.32 262.24,55.32 C262.604,55.32 262.967,55.353 263.265,55.353 C263.595,55.353 263.859,55.386 264.058,55.386 C264.289,55.386 264.487,55.519 264.587,55.75 C264.686,55.981 264.752,56.278 264.752,56.642 C264.752,57.072 264.619,57.435 264.389,57.7 C264.157,57.964 263.859,58.096 263.563,58.096 L256.457,58.096 C256.094,58.592 255.729,59.088 255.366,59.55 C255.003,60.013 254.673,60.443 254.342,60.839 C254.309,61.599 254.243,62.359 254.21,63.086 C254.21,63.417 254.177,63.747 254.177,64.078 C254.177,64.408 254.144,64.738 254.144,65.102 C254.144,65.433 254.11,65.763 254.11,66.061 C254.11,66.358 254.11,66.655 254.11,66.92 C254.11,67.581 254.177,68.142 254.309,68.605 C254.441,69.068 254.606,69.431 254.838,69.729 C255.069,70.026 255.366,70.224 255.697,70.357 C256.027,70.489 256.424,70.555 256.854,70.555 C257.118,70.555 257.448,70.489 257.812,70.357 C258.208,70.224 258.638,70.059 259.101,69.861 C259.563,69.63 260.059,69.398 260.555,69.101 C261.084,68.803 261.579,68.473 262.075,68.142 C262.57,67.779 263.066,67.415 263.496,67.019 C263.959,66.622 264.355,66.226 264.752,65.829 L264.752,70.588 Z" id="Fill-272" fill="#20AAA3"></path>
                <path d="M267.164,51.718 C267.164,51.421 267.23,51.123 267.362,50.76 C267.494,50.396 267.692,50.066 267.957,49.736 C268.222,49.405 268.618,49.14 269.081,48.942 C269.544,48.711 270.139,48.612 270.799,48.612 C271.229,48.612 271.625,48.645 272.022,48.744 C272.419,48.843 272.749,49.008 273.014,49.207 C273.311,49.405 273.509,49.669 273.675,50 C273.84,50.33 273.938,50.727 273.938,51.19 C273.938,51.619 273.873,52.016 273.74,52.412 C273.608,52.809 273.377,53.172 273.079,53.47 C272.782,53.767 272.419,54.031 271.956,54.23 C271.493,54.428 270.965,54.527 270.337,54.527 C269.246,54.527 268.453,54.263 267.924,53.767 C267.429,53.238 267.164,52.577 267.164,51.718 Z M275.459,70.786 C275.029,71.183 274.468,71.646 273.807,72.108 C273.146,72.571 272.419,73 271.658,73.397 C270.898,73.794 270.105,74.124 269.313,74.355 C268.519,74.62 267.759,74.752 267.032,74.752 C266.404,74.752 265.842,74.653 265.413,74.487 C264.983,74.322 264.619,74.058 264.355,73.727 C264.091,73.397 263.893,73 263.761,72.538 C263.628,72.075 263.595,71.579 263.595,71.018 C263.595,70.224 263.694,69.332 263.859,68.308 C264.024,67.283 264.256,66.193 264.521,65.102 C264.785,64.011 265.049,62.888 265.347,61.798 C265.644,60.707 265.908,59.682 266.106,58.757 C266.206,58.427 266.371,58.162 266.636,57.931 C266.899,57.7 267.197,57.502 267.527,57.369 C267.858,57.237 268.188,57.138 268.552,57.039 C268.916,56.973 269.213,56.94 269.511,56.94 C270.039,56.94 270.37,57.039 270.568,57.237 C270.767,57.435 270.832,57.7 270.832,57.997 C270.832,58.261 270.767,58.658 270.634,59.187 C270.502,59.716 270.37,60.278 270.171,60.938 C269.973,61.599 269.774,62.293 269.576,63.02 C269.378,63.78 269.18,64.508 268.981,65.267 C268.783,66.028 268.651,66.755 268.52,67.448 C268.387,68.142 268.32,68.803 268.32,69.365 C268.32,69.927 268.387,70.357 268.52,70.687 C268.651,71.018 268.883,71.183 269.279,71.183 C269.709,71.183 270.204,71.018 270.767,70.72 C271.295,70.423 271.856,70.026 272.419,69.596 C272.98,69.167 273.509,68.704 274.038,68.241 C274.566,67.779 275.029,67.383 275.459,67.052 L275.459,70.786 Z" id="Fill-273" fill="#20AAA3"></path>
                <path d="M279.788,71.15 C280.218,71.15 280.614,70.951 281.011,70.522 C281.407,70.092 281.738,69.564 282.035,68.903 C282.333,68.241 282.564,67.548 282.763,66.755 C282.928,65.962 283.026,65.235 283.026,64.508 C283.026,63.945 282.993,63.417 282.895,62.921 C282.795,62.425 282.663,61.996 282.498,61.665 C282.333,61.302 282.102,61.037 281.837,60.806 C281.572,60.608 281.242,60.476 280.846,60.476 C280.35,60.476 279.854,60.707 279.392,61.136 C278.929,61.566 278.532,62.128 278.202,62.789 C277.871,63.45 277.574,64.21 277.376,65.036 C277.178,65.862 277.078,66.622 277.078,67.383 C277.078,67.911 277.145,68.374 277.243,68.837 C277.343,69.299 277.508,69.695 277.706,70.026 C277.904,70.357 278.202,70.654 278.532,70.852 C278.896,71.05 279.325,71.15 279.788,71.15 Z M285.505,60.839 C285.868,61.566 286.133,62.326 286.298,63.119 C286.464,63.912 286.563,64.673 286.563,65.4 C286.563,66.127 286.496,66.854 286.331,67.614 C286.166,68.341 285.935,69.068 285.638,69.762 C285.34,70.456 284.977,71.117 284.514,71.712 C284.084,72.306 283.589,72.835 283.026,73.298 C282.465,73.727 281.837,74.091 281.176,74.355 C280.515,74.62 279.788,74.752 279.028,74.752 C277.938,74.752 277.012,74.521 276.252,74.025 C275.492,73.562 274.831,72.934 274.335,72.174 C273.84,71.414 273.476,70.555 273.245,69.564 C273.014,68.605 272.914,67.614 272.914,66.622 C272.914,65.267 273.112,63.979 273.509,62.822 C273.905,61.633 274.501,60.608 275.261,59.749 C276.021,58.889 276.946,58.195 278.036,57.7 C279.127,57.204 280.383,56.94 281.737,56.94 C282.928,56.94 284.018,57.138 285.042,57.502 C286.067,57.865 287.025,58.361 287.918,58.955 C288.81,59.583 289.636,60.278 290.429,61.07 C291.189,61.863 291.916,62.69 292.577,63.516 L292.214,66.127 C291.883,65.697 291.421,65.201 290.858,64.673 C290.297,64.144 289.702,63.648 289.041,63.153 C288.413,62.657 287.785,62.194 287.157,61.764 C286.529,61.335 286.001,60.971 285.571,60.674 L285.505,60.839 Z" id="Fill-274" fill="#20AAA3"></path>
                <path d="M290.33,70.852 C290.33,70.026 290.363,69.101 290.462,68.01 C290.562,66.953 290.693,65.862 290.825,64.738 C290.958,63.648 291.156,62.558 291.321,61.533 C291.52,60.508 291.685,59.616 291.851,58.889 C291.982,58.328 292.247,57.832 292.644,57.468 C293.04,57.072 293.568,56.906 294.229,56.906 C294.891,56.906 295.354,57.105 295.617,57.534 C295.882,57.931 296.014,58.493 296.014,59.154 C296.014,59.352 295.981,59.583 295.948,59.914 C295.915,60.244 295.849,60.575 295.815,60.938 C295.75,61.302 295.717,61.698 295.65,62.095 C295.584,62.491 295.519,62.855 295.485,63.218 C295.452,63.582 295.386,63.846 295.354,64.111 C295.32,64.375 295.287,64.54 295.287,64.607 L295.65,64.607 C295.717,64.474 295.849,64.243 296.014,63.945 C296.18,63.648 296.345,63.285 296.576,62.888 C296.774,62.491 297.006,62.062 297.236,61.633 C297.468,61.203 297.699,60.773 297.897,60.377 C298.096,59.98 298.294,59.616 298.46,59.319 C298.625,59.022 298.757,58.79 298.856,58.625 C299.253,57.964 299.715,57.502 300.211,57.237 C300.707,57.006 301.269,56.874 301.896,56.874 C302.524,56.874 303.02,57.138 303.384,57.667 C303.747,58.195 303.945,58.889 303.945,59.815 C303.945,59.947 303.912,60.178 303.846,60.508 C303.78,60.839 303.714,61.203 303.647,61.665 C303.549,62.095 303.449,62.591 303.351,63.119 C303.251,63.648 303.152,64.21 303.053,64.738 C302.954,65.3 302.888,65.829 302.854,66.391 C302.789,66.92 302.756,67.448 302.756,67.878 C302.756,68.638 302.854,69.266 303.053,69.762 C303.251,70.258 303.549,70.489 303.945,70.489 C304.144,70.489 304.342,70.423 304.573,70.323 C304.805,70.224 305.069,70.059 305.366,69.894 C305.631,69.729 305.928,69.497 306.226,69.266 C306.523,69.035 306.787,68.803 307.085,68.539 C307.746,67.944 308.439,67.316 309.134,66.556 L309.464,70.72 L308.539,71.414 C308.043,71.811 307.515,72.174 306.985,72.571 C306.457,72.967 305.928,73.298 305.333,73.595 C304.771,73.893 304.177,74.157 303.549,74.322 C302.921,74.521 302.293,74.62 301.599,74.62 C300.905,74.62 300.343,74.124 299.881,73.133 C299.418,72.141 299.187,70.72 299.187,68.837 C299.187,68.11 299.22,67.283 299.318,66.424 C299.418,65.565 299.55,64.639 299.683,63.648 L299.385,63.648 L294.593,73.397 C294.361,73.893 294.064,74.256 293.767,74.422 C293.47,74.62 293.105,74.686 292.677,74.686 C292.181,74.686 291.751,74.587 291.453,74.355 C291.156,74.124 290.892,73.86 290.727,73.496 C290.562,73.133 290.462,72.703 290.396,72.24 C290.363,71.811 290.33,71.348 290.33,70.852" id="Fill-275" fill="#20AAA3"></path>
                <path d="M168.685,84.368 C168.685,84.798 168.585,85.426 168.387,86.252 C168.188,87.078 167.925,88.037 167.627,89.16 C167.329,90.251 166.999,91.441 166.636,92.729 C166.272,94.018 165.941,95.307 165.645,96.629 C165.347,97.951 165.082,99.239 164.884,100.528 C164.686,101.817 164.587,102.974 164.587,104.065 C164.587,104.957 164.652,105.783 164.752,106.576 C164.884,107.336 165.05,108.03 165.313,108.592 C165.545,109.153 165.876,109.616 166.239,109.947 C166.603,110.277 167.065,110.443 167.561,110.443 C168.057,110.443 168.553,110.277 169.048,109.98 C169.511,109.682 169.974,109.253 170.436,108.724 C170.865,108.195 171.295,107.568 171.725,106.841 C172.121,106.113 172.518,105.32 172.914,104.461 C173.312,103.602 173.642,102.71 173.972,101.784 C174.303,100.859 174.633,99.901 174.931,98.942 C175.955,95.571 176.88,91.738 177.706,87.475 C177.839,86.781 178.037,86.219 178.235,85.723 C178.434,85.261 178.697,84.897 178.962,84.6 C179.26,84.336 179.59,84.137 179.953,84.005 C180.317,83.906 180.779,83.84 181.275,83.84 C181.738,83.84 182.135,83.873 182.432,83.972 C182.729,84.071 182.961,84.17 183.159,84.336 C183.324,84.501 183.456,84.666 183.522,84.864 C183.589,85.063 183.622,85.294 183.622,85.558 C183.622,85.657 183.589,86.021 183.489,86.649 C183.391,87.277 183.258,88.103 183.093,89.094 C182.928,90.086 182.763,91.209 182.598,92.465 C182.432,93.721 182.233,95.009 182.102,96.364 C181.937,97.686 181.837,99.008 181.738,100.297 C181.639,101.586 181.605,102.776 181.605,103.866 C181.605,104.99 181.639,105.981 181.738,106.873 C181.804,107.766 181.97,108.526 182.135,109.153 C182.333,109.781 182.564,110.277 182.895,110.608 C183.192,110.938 183.589,111.103 184.052,111.103 C184.845,111.103 185.571,110.806 186.199,110.178 C186.86,109.55 187.422,108.724 187.983,107.699 C188.513,106.675 189.009,105.486 189.405,104.097 C189.835,102.742 190.264,100.958 190.661,98.777 C191.058,96.596 191.288,95.505 191.288,95.505 C191.288,95.505 191.421,94.316 191.718,91.936 C192.016,89.557 192.214,87.904 192.313,87.045 C192.412,86.153 192.512,85.459 192.577,84.964 C192.61,84.402 192.742,83.972 192.941,83.641 C193.14,83.311 193.403,83.047 193.734,82.882 C194.064,82.683 194.428,82.584 194.824,82.518 C195.221,82.452 195.65,82.419 196.08,82.419 C196.411,82.419 196.708,82.452 197.006,82.518 C197.271,82.584 197.534,82.683 197.732,82.848 C197.931,83.013 198.097,83.212 198.195,83.476 C198.295,83.74 198.36,84.071 198.36,84.467 C198.36,85.558 198.262,86.781 198.03,88.103 C197.832,89.424 197.567,90.747 197.237,92.069 C196.906,93.39 195.122,101.85 194.957,102.611 C194.792,103.37 194.726,103.866 194.726,104.131 C194.726,104.725 194.792,105.221 194.924,105.651 C195.056,106.08 195.254,106.411 195.485,106.675 C195.717,106.94 195.981,107.138 196.312,107.27 C196.643,107.402 196.973,107.468 197.336,107.468 C197.699,107.468 198.063,107.369 198.427,107.204 C198.79,107.039 199.153,106.807 199.518,106.51 C199.848,106.213 200.178,105.849 200.476,105.452 C200.773,105.023 201.004,104.593 201.203,104.065 L201.533,107.865 C200.607,108.823 199.683,109.616 198.691,110.178 C197.732,110.74 196.808,111.004 195.948,111.004 C195.552,111.004 195.155,110.938 194.792,110.839 C194.428,110.707 194.131,110.542 193.833,110.277 C193.568,110.013 193.338,109.716 193.14,109.286 C192.94,108.889 192.842,108.426 192.742,107.865 C192.114,108.923 191.454,109.881 190.76,110.707 C190.065,111.566 189.306,112.26 188.513,112.855 C187.72,113.45 186.894,113.912 186.034,114.243 C185.175,114.573 184.282,114.738 183.357,114.738 C182.2,114.738 181.176,114.441 180.383,113.813 C179.557,113.185 178.896,112.359 178.4,111.301 C177.871,110.244 177.508,108.988 177.276,107.568 C177.045,106.146 176.913,104.593 176.913,102.974 C176.913,102.379 176.946,101.817 177.013,101.288 C177.078,100.76 177.111,100.297 177.145,99.901 C176.715,102.71 176.153,105.089 175.459,106.972 C174.798,108.856 174.005,110.409 173.08,111.533 C172.154,112.69 171.13,113.516 169.974,113.979 C168.816,114.474 167.495,114.706 166.074,114.706 C165.248,114.706 164.487,114.441 163.728,113.912 C163,113.383 162.34,112.591 161.777,111.5 C161.216,110.443 160.753,109.121 160.423,107.501 C160.093,105.915 159.927,104.031 159.927,101.883 C159.927,100.561 159.993,99.239 160.158,97.852 C160.291,96.464 160.521,95.109 160.786,93.721 C161.051,92.333 161.414,90.978 161.811,89.59 C162.207,88.235 162.67,86.913 163.199,85.624 C163.496,84.897 163.826,84.336 164.124,83.939 C164.422,83.542 164.752,83.245 165.082,83.047 C165.413,82.848 165.743,82.749 166.041,82.716 C166.371,82.683 166.702,82.65 167.032,82.65 C167.297,82.65 167.561,82.683 167.759,82.716 C167.99,82.749 168.188,82.848 168.321,82.947 C168.486,83.08 168.585,83.245 168.685,83.443 C168.651,83.708 168.685,84.005 168.685,84.368" id="Fill-276" fill="#20AAA3"></path>
                <path d="M202.756,104.097 C203.219,104.097 203.681,103.998 204.21,103.767 C204.738,103.536 205.234,103.271 205.664,102.908 C206.127,102.544 206.557,102.082 206.985,101.487 C207.415,100.892 207.646,100.396 207.646,100.033 C207.646,99.504 207.548,99.041 207.35,98.678 C207.151,98.314 206.887,98.149 206.589,98.149 C206.061,98.149 205.598,98.248 205.234,98.446 C204.871,98.645 204.54,98.876 204.276,99.207 C204.012,99.504 203.813,99.867 203.648,100.264 C203.482,100.661 203.317,101.156 203.119,101.718 C202.921,102.313 202.789,102.776 202.789,103.139 C202.756,103.503 202.756,103.833 202.756,104.097 Z M205.234,112.921 C204.078,112.921 203.086,112.723 202.194,112.293 C201.335,111.863 200.607,111.301 200.013,110.575 C199.451,109.848 199.021,109.022 198.724,108.063 C198.427,107.105 198.295,106.113 198.295,105.089 C198.295,104.395 198.427,103.602 198.691,102.643 C198.955,101.685 199.22,100.859 199.484,100.132 C199.749,99.405 200.112,98.711 200.542,98.05 C200.972,97.389 201.434,96.794 201.996,96.299 C202.558,95.803 203.186,95.373 203.88,95.076 C204.573,94.778 205.333,94.613 206.192,94.613 C206.887,94.613 207.515,94.712 208.109,94.944 C208.704,95.175 209.233,95.472 209.663,95.869 C210.092,96.265 210.456,96.761 210.688,97.323 C210.918,97.884 211.051,98.512 211.051,99.239 C211.051,100 210.786,100.826 210.29,101.751 C209.795,102.676 209.2,103.469 208.539,104.131 C207.878,104.792 207.085,105.386 206.159,105.915 C205.234,106.444 204.243,106.841 203.152,107.138 C203.351,107.468 203.516,107.733 203.714,107.964 C203.88,108.195 204.078,108.361 204.276,108.46 C204.475,108.592 204.673,108.658 204.871,108.724 C205.069,108.757 205.301,108.79 205.532,108.79 C206.259,108.79 207.052,108.658 207.878,108.361 C208.704,108.063 209.497,107.699 210.29,107.27 C211.084,106.841 211.811,106.344 212.505,105.849 C213.198,105.32 213.794,104.858 214.256,104.395 L216.636,106.807 C215.545,107.964 214.389,108.988 213.166,109.881 C212.637,110.244 212.075,110.641 211.447,111.004 C210.819,111.368 210.191,111.698 209.53,111.996 C208.869,112.293 208.143,112.525 207.448,112.69 C206.688,112.855 205.961,112.921 205.234,112.921 Z" id="Fill-277" fill="#20AAA3"></path>
                <path d="M216.734,104.097 C217.164,104.097 217.66,103.998 218.188,103.767 C218.718,103.536 219.213,103.271 219.643,102.908 C220.105,102.544 220.535,102.082 220.965,101.487 C221.395,100.892 221.626,100.396 221.626,100.033 C221.626,99.504 221.526,99.041 221.328,98.678 C221.13,98.314 220.865,98.149 220.568,98.149 C220.039,98.149 219.576,98.248 219.213,98.446 C218.85,98.645 218.52,98.876 218.255,99.207 C217.99,99.504 217.792,99.867 217.66,100.264 C217.495,100.661 217.329,101.156 217.131,101.718 C216.933,102.313 216.801,102.776 216.801,103.139 C216.734,103.503 216.734,103.833 216.734,104.097 Z M219.213,112.921 C218.057,112.921 217.032,112.723 216.173,112.293 C215.313,111.863 214.587,111.301 213.992,110.575 C213.43,109.848 212.968,109.022 212.703,108.063 C212.405,107.105 212.273,106.113 212.273,105.089 C212.273,104.395 212.405,103.602 212.67,102.643 C212.935,101.685 213.198,100.859 213.463,100.132 C213.728,99.405 214.091,98.711 214.487,98.05 C214.917,97.389 215.38,96.794 215.941,96.299 C216.503,95.803 217.131,95.373 217.825,95.076 C218.52,94.778 219.279,94.613 220.139,94.613 C220.832,94.613 221.493,94.712 222.055,94.944 C222.65,95.175 223.179,95.472 223.608,95.869 C224.038,96.265 224.401,96.761 224.633,97.323 C224.897,97.884 224.996,98.512 224.996,99.239 C224.996,100 224.732,100.826 224.236,101.751 C223.74,102.676 223.146,103.469 222.484,104.131 C221.824,104.792 221.03,105.386 220.105,105.915 C219.18,106.444 218.188,106.841 217.098,107.138 C217.297,107.468 217.462,107.733 217.66,107.964 C217.825,108.195 218.023,108.361 218.222,108.46 C218.42,108.592 218.618,108.658 218.816,108.724 C219.015,108.757 219.246,108.79 219.478,108.79 C220.204,108.79 220.998,108.658 221.824,108.361 C222.65,108.063 223.443,107.699 224.236,107.27 C224.996,106.841 225.757,106.344 226.45,105.849 C227.145,105.32 227.739,104.858 228.202,104.395 L230.581,106.807 C229.49,107.964 228.334,108.988 227.111,109.881 C226.583,110.244 226.021,110.641 225.393,111.004 C224.765,111.368 224.137,111.698 223.477,111.996 C222.815,112.293 222.088,112.525 221.395,112.69 C220.7,112.855 219.94,112.921 219.213,112.921 Z" id="Fill-278" fill="#20AAA3"></path>
                <path d="M242.677,111.136 C238.281,109.781 234.845,104.031 234.315,102.544 C235.538,101.189 239.867,96.926 240.43,96.166 C240.43,96.166 240.826,95.704 240.727,95.704 C241.123,95.043 241.189,94.481 240.462,94.382 C238.744,94.151 231.54,101.883 231.176,102.148 C230.879,102.379 230.746,102.71 230.746,103.073 C230.581,103.238 230.449,103.403 230.316,103.569 C230.383,103.469 230.581,103.469 230.813,103.469 C231.176,105.221 233.654,107.733 234.447,108.526 C238.348,112.425 240.032,112.789 241.949,112.789 C243.602,112.789 244.229,111.599 242.677,111.136" id="Fill-282" fill="#20AAA3"></path>
                <path d="M242.677,111.136 L242.822,110.662 C240.778,110.038 238.867,108.329 237.429,106.575 C236.709,105.699 236.104,104.817 235.65,104.067 C235.198,103.32 234.893,102.692 234.782,102.378 L234.315,102.544 L234.683,102.876 C235.277,102.217 236.669,100.808 237.974,99.479 C238.627,98.814 239.26,98.166 239.767,97.635 C240.277,97.099 240.647,96.701 240.828,96.461 L240.43,96.166 L240.813,96.479 C240.817,96.474 240.896,96.378 240.98,96.26 L241.108,96.066 L241.17,95.944 C241.188,95.892 241.218,95.839 241.222,95.704 L240.727,95.704 L241.151,95.958 C241.351,95.615 241.507,95.285 241.514,94.897 C241.518,94.667 241.433,94.393 241.236,94.204 C241.041,94.014 240.791,93.925 240.527,93.89 L240.382,93.88 C239.985,93.887 239.635,94.045 239.228,94.266 C238.526,94.658 237.693,95.303 236.806,96.062 C235.477,97.198 234.041,98.589 232.906,99.719 C232.339,100.283 231.847,100.782 231.483,101.15 C231.302,101.334 231.151,101.485 231.042,101.592 L230.912,101.719 L230.877,101.751 L230.872,101.756 L231.017,101.93 L230.883,101.747 L230.872,101.756 L231.017,101.93 L230.883,101.747 L230.87,101.757 C230.442,102.085 230.244,102.592 230.25,103.073 L230.746,103.073 L230.395,102.723 C230.206,102.912 230.062,103.094 229.93,103.258 L230.316,103.569 L230.728,103.844 L230.454,103.661 L230.589,103.965 L230.728,103.844 L230.454,103.661 L230.589,103.965 L230.541,103.858 L230.564,103.974 L230.589,103.965 L230.541,103.858 L230.564,103.974 C230.579,103.969 230.684,103.964 230.813,103.965 L230.813,103.469 L230.326,103.57 C230.552,104.609 231.301,105.691 232.083,106.668 C232.866,107.638 233.696,108.475 234.097,108.876 C236.066,110.844 237.495,111.945 238.719,112.562 C239.94,113.182 240.962,113.288 241.949,113.284 C242.518,113.283 243.002,113.164 243.38,112.945 C243.567,112.835 243.73,112.698 243.855,112.526 C243.979,112.355 244.062,112.141 244.061,111.913 C244.063,111.607 243.909,111.32 243.688,111.119 C243.465,110.914 243.176,110.768 242.817,110.661 L242.677,111.136 L242.822,110.662 L242.677,111.136 L242.535,111.612 C242.792,111.687 242.947,111.782 243.015,111.846 L243.067,111.91 L243.069,111.916 L243.083,111.912 L243.069,111.913 L243.069,111.916 L243.083,111.912 L243.069,111.913 L243.05,111.948 C243.015,111.999 242.906,112.094 242.717,112.167 C242.529,112.24 242.268,112.293 241.949,112.293 C241.019,112.289 240.239,112.214 239.164,111.676 C238.092,111.137 236.728,110.106 234.797,108.175 C234.404,107.782 233.599,106.967 232.854,106.045 C232.107,105.131 231.436,104.081 231.298,103.368 L231.215,102.973 L230.813,102.973 C230.695,102.974 230.574,102.971 230.432,102.991 C230.36,103.002 230.281,103.017 230.188,103.058 C230.098,103.097 229.985,103.171 229.904,103.292 L230.702,103.879 C230.836,103.713 230.955,103.565 231.097,103.423 L231.241,103.278 L231.241,103.073 C231.247,102.826 231.314,102.673 231.48,102.538 L231.176,102.148 L231.468,102.548 L231.663,102.373 C232.213,101.837 234.033,99.94 235.938,98.169 C236.888,97.286 237.858,96.437 238.682,95.82 C239.092,95.511 239.468,95.262 239.772,95.098 C240.075,94.93 240.319,94.864 240.382,94.871 L240.396,94.873 L240.523,94.903 L240.543,94.913 L240.585,94.86 L240.523,94.886 L240.543,94.913 L240.585,94.86 L240.523,94.886 L240.552,94.873 L240.521,94.879 L240.523,94.886 L240.552,94.873 L240.521,94.879 L240.522,94.897 C240.529,94.958 240.461,95.189 240.301,95.449 L240.23,95.568 L240.23,95.704 L240.6,95.704 L240.257,95.559 C240.254,95.572 240.234,95.592 240.23,95.704 L240.6,95.704 L240.257,95.559 L240.316,95.584 L240.259,95.554 L240.257,95.559 L240.316,95.584 L240.259,95.554 L240.141,95.729 L240.072,95.819 L240.045,95.853 L240.03,95.871 C239.93,96.01 239.547,96.431 239.05,96.95 C237.543,98.528 234.886,101.173 233.947,102.212 L233.748,102.431 L233.848,102.71 C234.002,103.14 234.325,103.788 234.803,104.58 C235.518,105.762 236.575,107.238 237.887,108.563 C239.199,109.885 240.766,111.064 242.53,111.61 L242.535,111.612 L242.677,111.136" id="Fill-283" fill="#1EABA3"></path>
                <path d="M233.688,83.146 C233.456,82.981 232.432,83.509 232.233,83.609 C232.002,83.708 231.837,83.84 231.672,83.972 C231.605,84.005 230.978,86.285 230.912,87.442 C230.714,90.548 230.284,101.916 228.202,104.263 C226.748,105.915 223.675,109.649 221.824,110.905 C221.428,111.17 222.221,110.905 222.286,110.905 C222.749,110.806 223.377,110.542 223.773,110.244 C225.987,108.757 226.913,108.823 228.532,106.807 C229.093,107.079 227.964,111.156 228.546,112.557 C229.097,113.883 231.313,112.789 231.374,112.326 C231.94,108.001 233.423,92.729 233.754,89.491 C233.886,88.433 234.778,83.972 233.688,83.146" id="Fill-284" fill="#20AAA3"></path>
                <path d="M233.688,83.146 L233.977,82.743 C233.812,82.63 233.668,82.619 233.555,82.617 C233.373,82.619 233.227,82.658 233.073,82.704 C232.625,82.845 232.141,83.099 232.005,83.168 L232.233,83.609 L232.038,83.153 C231.737,83.281 231.525,83.454 231.361,83.585 L231.672,83.972 L231.449,83.528 C231.342,83.586 231.311,83.632 231.284,83.661 L231.215,83.77 C231.175,83.854 231.157,83.911 231.126,84.005 C230.929,84.627 230.482,86.348 230.417,87.414 L230.417,87.41 C230.317,88.973 230.161,92.579 229.771,96.082 C229.575,97.832 229.322,99.555 228.993,100.969 C228.672,102.379 228.239,103.489 227.831,103.934 L227.829,103.935 C227.096,104.769 225.968,106.111 224.795,107.399 C223.627,108.684 222.396,109.921 221.545,110.494 L221.824,110.905 L221.551,110.491 L221.405,110.601 L221.313,110.703 C221.28,110.755 221.221,110.837 221.216,111.006 C221.212,111.116 221.265,111.258 221.342,111.34 C221.461,111.467 221.563,111.487 221.62,111.503 L221.751,111.517 C221.854,111.515 221.912,111.501 221.98,111.488 C222.078,111.467 222.177,111.441 222.255,111.421 L222.347,111.397 L222.36,111.394 L222.286,111.018 L222.286,111.401 L222.36,111.394 L222.286,111.018 L222.286,111.401 L222.338,111.401 L222.39,111.389 C222.936,111.268 223.586,110.998 224.07,110.641 L223.773,110.244 L224.05,110.655 C225.127,109.932 225.883,109.591 226.628,109.15 C227.374,108.711 228.082,108.163 228.918,107.117 L228.532,106.807 L228.314,107.253 L228.451,106.972 L228.181,107.134 L228.314,107.253 L228.451,106.972 L228.181,107.134 L228.31,107.057 L228.171,107.116 L228.181,107.134 L228.31,107.057 L228.171,107.116 L228.18,107.112 L228.171,107.116 L228.18,107.112 L228.171,107.116 C228.179,107.134 228.198,107.258 228.196,107.424 C228.197,107.823 228.12,108.475 228.039,109.177 C227.958,109.883 227.875,110.647 227.875,111.333 C227.878,111.854 227.914,112.33 228.089,112.751 L228.088,112.747 C228.221,113.073 228.455,113.332 228.729,113.481 C229.002,113.633 229.298,113.685 229.579,113.686 C230.099,113.683 230.592,113.517 230.993,113.31 C231.194,113.204 231.371,113.089 231.519,112.958 L231.722,112.737 C231.781,112.651 231.842,112.548 231.864,112.394 L231.865,112.39 C232.434,108.043 233.915,92.779 234.246,89.541 L233.754,89.491 L234.245,89.552 C234.283,89.244 234.402,88.559 234.51,87.762 C234.617,86.961 234.717,86.037 234.717,85.194 C234.717,84.699 234.684,84.232 234.587,83.818 C234.487,83.407 234.334,83.023 233.986,82.751 L233.977,82.743 L233.688,83.146 L233.388,83.54 C233.441,83.573 233.555,83.741 233.622,84.044 C233.692,84.341 233.726,84.746 233.726,85.194 C233.726,85.96 233.633,86.851 233.527,87.629 C233.422,88.411 233.307,89.07 233.262,89.429 L233.261,89.44 C232.93,92.678 231.446,107.958 230.882,112.262 L230.883,112.258 L231.089,112.287 L230.914,112.162 L230.883,112.258 L231.089,112.287 L230.914,112.162 C230.907,112.187 230.689,112.37 230.425,112.485 C230.158,112.609 229.832,112.696 229.579,112.694 C229.42,112.695 229.296,112.663 229.211,112.615 C229.126,112.565 229.063,112.507 229.003,112.367 L229.002,112.363 C228.917,112.174 228.863,111.792 228.866,111.333 C228.866,110.726 228.943,109.989 229.023,109.29 C229.104,108.588 229.187,107.932 229.188,107.424 C229.187,107.235 229.178,107.066 229.138,106.895 C229.116,106.81 229.088,106.721 229.032,106.627 C228.978,106.534 228.886,106.428 228.749,106.362 L228.393,106.189 L228.146,106.497 C227.362,107.467 226.798,107.894 226.122,108.298 C225.447,108.699 224.633,109.069 223.496,109.833 L223.476,109.847 C223.167,110.085 222.562,110.343 222.182,110.42 L222.286,110.905 L222.286,110.409 C222.188,110.412 222.181,110.421 222.149,110.425 C222.067,110.444 221.978,110.469 221.884,110.493 L221.765,110.52 L221.733,110.526 L221.732,110.526 L221.751,110.755 L221.751,110.525 L221.732,110.526 L221.751,110.755 L221.751,110.525 L221.751,110.936 L221.895,110.553 C221.8,110.521 221.77,110.528 221.751,110.525 L221.751,110.936 L221.895,110.553 L221.728,111 L222.086,110.685 L221.895,110.553 L221.728,111 L222.086,110.685 L221.722,111.005 L222.207,111.006 C222.211,110.901 222.16,110.764 222.086,110.685 L221.722,111.005 L222.207,111.006 L221.739,111.006 L222.123,111.276 C222.146,111.237 222.202,111.165 222.207,111.006 L221.739,111.006 L222.123,111.276 L221.866,111.095 L222.064,111.341 L222.123,111.276 L221.866,111.095 L222.064,111.341 L222.097,111.319 L222.103,111.315 C223.102,110.633 224.333,109.375 225.528,108.066 C226.718,106.76 227.854,105.409 228.574,104.59 L228.572,104.591 C229.205,103.862 229.607,102.672 229.958,101.194 C230.983,96.78 231.256,89.797 231.406,87.473 L231.406,87.47 C231.435,86.956 231.603,86.103 231.773,85.402 C231.858,85.049 231.943,84.731 232.01,84.505 C232.043,84.391 232.071,84.3 232.091,84.246 L232.106,84.203 L231.841,84.086 L232.091,84.233 L232.106,84.203 L231.841,84.086 L232.091,84.233 L231.71,84.009 L232.052,84.288 L232.091,84.233 L231.71,84.009 L232.052,84.288 L231.675,83.981 L231.894,84.415 C231.999,84.358 232.027,84.315 232.052,84.288 L231.675,83.981 L231.894,84.415 L231.939,84.392 L231.981,84.359 C232.147,84.225 232.266,84.133 232.428,84.064 L232.461,84.049 C232.542,84.007 232.772,83.888 233.017,83.783 C233.139,83.732 233.264,83.683 233.367,83.651 C233.468,83.618 233.554,83.607 233.555,83.609 L233.555,83.33 L233.397,83.548 C233.5,83.616 233.552,83.606 233.555,83.609 L233.555,83.33 L233.397,83.548 L233.688,83.146 L233.388,83.54 L233.688,83.146" id="Fill-285" fill="#1CACA3"></path>
                <path d="M0.542,52.875 L131.97,0.198 L139.207,18.044 L134.778,19.795 L137.29,33.08 C137.29,33.08 141.982,33.212 142.479,36.219 C142.974,39.226 139.57,40.185 139.57,40.185 L150.377,71.15 L138.017,73.43 L136.134,41.011 C136.134,41.011 131.275,40.648 130.945,37.607 C130.614,34.567 135.34,33.444 135.34,33.444 L132.961,20.654 L107.746,30.734 L116.536,56.312 C116.536,56.312 117.76,57.237 119.412,59.55 C120.304,60.773 121.956,63.185 121.956,63.185 L129.293,61.93 L143.47,138.07 L20.701,160.971 L6.523,84.765 L42.115,78.288 C42.115,78.288 43.371,75.38 44.527,73.529 C45.685,71.678 46.741,70.092 46.741,70.092 L46.841,55.353 L4.178,72.273 L0.542,52.875" id="Combined-Shape" fill="#E15E3B"></path>
                <path d="M115.843,121.943 C97.567,145.769 68.982,155.585 49.418,142.002 C29.854,128.42 29.558,99.207 44.692,73.265 C59.762,47.422 92.214,38.665 111.778,52.247 C131.342,65.829 134.15,98.083 115.843,121.943" id="Fill-287" fill="#FFFFFF"></path>
                <path d="M85.671,110.508 C84.382,111.037 83.061,111.533 81.573,111.863 C81.177,111.929 80.78,112.028 80.351,112.095 C80.119,112.161 79.821,112.194 79.524,112.194 C79.425,112.227 79.193,112.161 79.16,112.227 C79.028,112.26 78.797,112.194 78.698,112.26 C78.467,112.293 78.104,112.194 77.938,112.293 C77.607,112.293 77.244,112.293 76.913,112.293 C76.748,112.194 76.385,112.293 76.153,112.26 C76.087,112.161 75.823,112.26 75.69,112.227 C74.468,112.128 73.41,111.897 72.419,111.566 C72.32,111.5 72.221,111.467 72.089,111.467 C71.956,111.467 71.824,111.401 71.758,111.368 L71.758,111.335 C71.328,111.236 70.965,111.037 70.568,110.872 C70.271,110.773 70.04,110.575 69.742,110.508 L69.742,110.443 C68.651,109.914 67.76,109.187 66.867,108.46 C66.834,108.327 66.735,108.295 66.636,108.228 L66.636,108.195 C66.306,108.03 66.206,107.667 65.876,107.501 C65.776,107.435 65.711,107.303 65.645,107.204 C65.513,107.071 65.446,106.906 65.313,106.841 C65.215,106.741 65.182,106.609 65.05,106.543 C64.455,105.849 63.992,104.99 63.529,104.164 C63.397,103.932 63.265,103.668 63.166,103.403 C63.133,103.304 63.133,103.172 63.066,103.139 C62.604,102.181 62.24,101.123 62.009,99.966 C61.91,99.405 61.811,98.843 61.712,98.314 C61.646,98.149 61.646,97.918 61.646,97.653 C61.646,97.191 61.58,96.827 61.58,96.364 C61.547,96.199 61.646,95.935 61.547,95.836 C61.547,95.505 61.547,95.175 61.547,94.844 C61.612,94.415 61.612,93.919 61.612,93.456 C61.712,93.39 61.612,93.192 61.646,93.093 C61.712,91.969 61.91,90.978 62.175,90.02 C62.24,89.854 62.307,89.689 62.34,89.491 C62.34,89.359 62.373,89.293 62.406,89.226 L62.438,89.226 C62.438,88.962 62.571,88.83 62.604,88.632 L62.637,88.532 C62.703,88.433 62.736,88.334 62.736,88.202 C62.835,87.871 62.935,87.541 63.066,87.243 L63.1,87.243 C63.133,87.012 63.265,86.913 63.298,86.682 L63.364,86.517 L63.397,86.517 C63.397,86.384 63.496,86.318 63.496,86.186 L63.529,86.12 L63.563,86.12 C63.563,86.021 63.629,85.955 63.629,85.856 L63.662,85.757 L63.694,85.757 C63.827,85.426 63.992,85.129 64.157,84.798 L64.19,84.732 L64.224,84.732 C64.95,83.212 65.876,81.923 66.834,80.667 L66.9,80.568 L66.934,80.568 C67.065,80.337 67.264,80.205 67.396,79.973 C67.562,79.94 67.528,79.742 67.66,79.676 C67.825,79.544 67.925,79.379 68.09,79.213 C68.189,79.147 68.288,79.048 68.354,78.949 C68.52,78.817 68.618,78.652 68.784,78.486 C69.016,78.288 69.214,78.056 69.444,77.858 C69.511,77.759 69.61,77.693 69.709,77.627 L69.742,77.627 C69.94,77.429 70.172,77.263 70.337,77.065 C70.568,76.801 70.898,76.603 71.13,76.338 L71.296,76.305 L71.296,76.272 C71.626,76.041 71.923,75.809 72.254,75.545 C72.254,75.446 72.419,75.479 72.419,75.38 L72.485,75.38 C72.717,75.248 72.948,75.082 73.179,74.917 L73.212,74.851 C73.84,74.487 74.435,74.091 75.096,73.76 C75.228,73.695 75.394,73.661 75.459,73.562 L75.459,73.529 C75.79,73.397 76.087,73.232 76.418,73.099 C76.483,73.033 76.583,72.967 76.715,72.934 C76.848,72.934 76.913,72.868 76.979,72.835 C77.111,72.835 77.145,72.736 77.244,72.736 C77.641,72.604 78.037,72.505 78.334,72.273 C78.467,72.273 78.565,72.273 78.632,72.207 C78.896,72.141 79.128,72.075 79.326,71.976 L79.491,71.943 C79.756,71.877 80.053,71.811 80.284,71.712 C80.647,71.646 80.945,71.513 81.342,71.447 C81.705,71.381 82.036,71.315 82.399,71.249 C82.763,71.282 82.895,71.117 83.226,71.15 C83.357,71.117 83.556,71.183 83.589,71.117 C83.721,71.084 83.952,71.15 84.019,71.084 C84.25,71.05 84.58,71.15 84.745,71.05 C85.175,71.05 85.604,71.05 86.034,71.05 C86.167,71.15 86.464,71.05 86.695,71.084 C86.762,71.183 87.025,71.084 87.158,71.117 C87.984,71.183 88.711,71.315 89.405,71.48 L89.405,71.513 C89.835,71.579 90.132,71.745 90.496,71.811 L90.595,71.844 L90.595,71.877 C90.76,71.844 90.76,71.976 90.893,71.943 L90.991,71.976 L90.991,72.009 C91.354,72.108 91.619,72.306 91.982,72.372 C93.999,73.364 95.585,74.752 96.907,76.404 C96.907,76.503 96.973,76.536 97.006,76.57 C97.039,76.735 97.138,76.801 97.237,76.9 C97.369,77.131 97.534,77.329 97.667,77.528 C97.733,77.66 97.799,77.792 97.898,77.891 C97.964,78.024 98.03,78.155 98.13,78.255 C98.162,78.42 98.262,78.519 98.328,78.618 C98.427,78.717 98.46,78.85 98.526,78.982 C98.56,79.114 98.592,79.246 98.691,79.312 C98.79,79.379 98.758,79.577 98.856,79.643 C98.89,79.742 98.89,79.874 98.956,79.907 C99.021,79.973 99.055,80.072 99.055,80.172 C99.055,80.304 99.088,80.403 99.154,80.469 L99.22,80.568 C99.253,80.833 99.386,80.998 99.418,81.262 C99.451,81.394 99.451,81.56 99.518,81.626 C99.584,81.725 99.616,81.89 99.616,82.055 C99.616,82.187 99.649,82.286 99.683,82.353 C99.716,82.551 99.749,82.782 99.848,82.947 C99.914,83.112 99.947,83.344 99.947,83.542 C99.947,83.708 99.947,83.84 100.013,83.972 C100.013,84.203 100.046,84.435 100.079,84.6 C100.112,84.699 100.046,84.864 100.112,84.897 C100.146,85.029 100.079,85.228 100.146,85.261 C100.179,85.393 100.112,85.624 100.179,85.691 C100.212,85.856 100.146,86.12 100.212,86.219 C100.212,86.384 100.212,86.517 100.212,86.682 C100.212,87.211 100.212,87.706 100.212,88.235 C100.212,88.731 100.146,89.16 100.146,89.689 C100.112,90.284 100.046,90.846 99.914,91.341 C99.848,91.441 99.848,91.606 99.848,91.771 C99.848,92.002 99.814,92.2 99.749,92.366 L99.716,92.366 C99.749,92.498 99.649,92.564 99.683,92.696 C99.649,92.994 99.584,93.258 99.484,93.489 L99.451,93.489 C99.418,93.886 99.253,94.183 99.187,94.547 L99.187,94.646 L99.154,94.646 C99.121,94.91 98.988,95.076 98.956,95.34 L98.89,95.34 C98.923,95.505 98.79,95.505 98.823,95.637 L98.79,95.836 C98.625,95.935 98.625,96.166 98.56,96.364 L98.56,96.43 L98.46,96.695 C98.097,97.422 97.799,98.182 97.436,98.843 C97.402,99.008 97.271,99.074 97.237,99.207 L97.204,99.207 C97.039,99.735 96.676,100.066 96.478,100.561 L96.444,100.628 C95.75,101.619 95.056,102.611 94.329,103.569 C94.197,103.569 94.197,103.668 94.131,103.767 C93.933,104.031 93.668,104.263 93.47,104.527 C93.371,104.56 93.305,104.659 93.238,104.758 C92.842,105.155 92.445,105.551 92.049,105.981 C92.016,106.08 91.95,106.08 91.851,106.146 C91.619,106.312 91.421,106.51 91.189,106.708 C90.925,106.906 90.727,107.138 90.463,107.303 L90.363,107.402 C90.066,107.6 89.769,107.799 89.537,108.03 C88.646,108.559 87.819,109.153 86.927,109.649 C86.762,109.716 86.596,109.781 86.464,109.881 C86.299,109.98 86.134,110.079 85.936,110.145 C85.902,110.409 85.704,110.376 85.671,110.508" id="Fill-288" fill="#E15E3B"></path>
            </g>
            <path d="M171.288,122 C172.354672,122 173.330662,122.159674 174.216,122.479026 C175.101338,122.798378 175.858664,123.250335 176.488,123.834912 C177.117336,124.419489 177.607998,125.123135 177.96,125.945873 C178.312002,126.76861 178.488,127.683351 178.488,128.690122 C178.488,129.556161 178.362668,130.357236 178.112,131.093369 C177.861332,131.829503 177.525335,132.53315 177.104,133.20433 C176.682665,133.875511 176.189336,134.525031 175.624,135.152909 C175.058664,135.780788 174.46667,136.419483 173.848,137.069012 L168.632,142.476319 C169.144003,142.324762 169.645331,142.20839 170.136,142.127199 C170.626669,142.046008 171.095998,142.005413 171.544,142.005413 L177.48,142.005413 C177.906669,142.005413 178.245332,142.127198 178.496,142.370771 C178.746668,142.614345 178.872,142.936399 178.872,143.336942 L178.872,145.740189 L163,145.740189 L163,144.40866 C163,144.138023 163.055999,143.856564 163.168,143.564276 C163.280001,143.271988 163.458665,143.001354 163.704,142.752368 L170.728,135.607578 C171.31467,135.00135 171.839998,134.422195 172.304,133.870095 C172.768002,133.317995 173.157332,132.771315 173.472,132.230041 C173.786668,131.688766 174.026666,131.13938 174.192,130.581867 C174.357334,130.024354 174.44,129.43708 174.44,128.820027 C174.44,128.257101 174.360001,127.761842 174.2,127.334235 C174.039999,126.906628 173.810668,126.546686 173.512,126.254398 C173.213332,125.962109 172.858669,125.742897 172.448,125.596752 C172.037331,125.450608 171.576003,125.377537 171.064,125.377537 C170.114662,125.377537 169.333336,125.621107 168.72,126.108254 C168.106664,126.595402 167.677335,127.250334 167.432,128.073072 C167.314666,128.48444 167.138668,128.779431 166.904,128.958051 C166.669332,129.136672 166.370668,129.225981 166.008,129.225981 C165.847999,129.225981 165.672001,129.209743 165.48,129.177267 L163.4,128.803789 C163.560001,127.677938 163.869331,126.690126 164.328,125.840325 C164.786669,124.990523 165.359997,124.281464 166.048,123.713126 C166.736003,123.144787 167.525329,122.717187 168.416,122.430311 C169.306671,122.143436 170.263995,122 171.288,122 Z M197.976,134 C197.976,136.046018 197.760002,137.824079 197.328,139.334235 C196.895998,140.844392 196.29867,142.092011 195.536,143.077131 C194.77333,144.062251 193.872005,144.795667 192.832,145.277402 C191.791995,145.759136 190.669339,146 189.464,146 C188.258661,146 187.141338,145.759136 186.112,145.277402 C185.082662,144.795667 184.189337,144.062251 183.432,143.077131 C182.674663,142.092011 182.082669,140.844392 181.656,139.334235 C181.229331,137.824079 181.016,136.046018 181.016,134 C181.016,131.943156 181.229331,130.162389 181.656,128.657645 C182.082669,127.152902 182.674663,125.907989 183.432,124.922869 C184.189337,123.937749 185.082662,123.204333 186.112,122.722598 C187.141338,122.240864 188.258661,122 189.464,122 C190.669339,122 191.791995,122.240864 192.832,122.722598 C193.872005,123.204333 194.77333,123.937749 195.536,124.922869 C196.29867,125.907989 196.895998,127.152902 197.328,128.657645 C197.760002,130.162389 197.976,131.943156 197.976,134 Z M193.896,134 C193.896,132.300397 193.773335,130.893104 193.528,129.778078 C193.282665,128.663053 192.954669,127.775375 192.544,127.11502 C192.133331,126.454665 191.661336,125.991882 191.128,125.726658 C190.594664,125.461433 190.040003,125.328823 189.464,125.328823 C188.898664,125.328823 188.352003,125.461433 187.824,125.726658 C187.295997,125.991882 186.829335,126.454665 186.424,127.11502 C186.018665,127.775375 185.696001,128.663053 185.456,129.778078 C185.215999,130.893104 185.096,132.300397 185.096,134 C185.096,135.699603 185.215999,137.106896 185.456,138.221922 C185.696001,139.336947 186.018665,140.224625 186.424,140.88498 C186.829335,141.545335 187.295997,142.008118 187.824,142.273342 C188.352003,142.538567 188.898664,142.671177 189.464,142.671177 C190.040003,142.671177 190.594664,142.538567 191.128,142.273342 C191.661336,142.008118 192.133331,141.545335 192.544,140.88498 C192.954669,140.224625 193.282665,139.336947 193.528,138.221922 C193.773335,137.106896 193.896,135.699603 193.896,134 Z M203.08,142.73613 L207.768,142.73613 L207.768,129.047361 C207.768,128.516912 207.784,127.959408 207.816,127.374831 L204.488,130.200271 C204.349333,130.319351 204.208001,130.400541 204.064,130.443843 C203.919999,130.487145 203.778667,130.508796 203.64,130.508796 C203.426666,130.508796 203.232001,130.462788 203.056,130.370771 C202.879999,130.278755 202.749334,130.173208 202.664,130.054127 L201.416,128.316644 L208.472,122.227334 L211.72,122.227334 L211.72,142.73613 L215.88,142.73613 L215.88,145.740189 L203.08,145.740189 L203.08,142.73613 Z M225.816,136.370771 C225.015996,136.370771 224.232004,136.230042 223.464,135.948579 C222.695996,135.667116 222.01067,135.242222 221.408,134.673884 C220.80533,134.105545 220.322668,133.401899 219.96,132.562923 C219.597332,131.723947 219.416,130.741548 219.416,129.615697 C219.416,128.565624 219.607998,127.580519 219.992,126.660352 C220.376002,125.740185 220.914663,124.933698 221.608,124.240866 C222.301337,123.548034 223.133328,123.001355 224.104,122.600812 C225.074672,122.200269 226.146661,122 227.32,122 C228.504006,122 229.567995,122.189443 230.512,122.568336 C231.456005,122.947228 232.26133,123.477669 232.928,124.159675 C233.59467,124.841681 234.106665,125.658994 234.464,126.611637 C234.821335,127.564281 235,128.608925 235,129.745602 C235,130.47091 234.938667,131.158319 234.816,131.807848 C234.693333,132.457378 234.517334,133.082541 234.288,133.683356 C234.058666,134.284171 233.784002,134.868739 233.464,135.437077 C233.143998,136.005416 232.786669,136.576452 232.392,137.150203 L227.096,144.814614 C226.914666,145.074426 226.645335,145.293639 226.288,145.47226 C225.930665,145.65088 225.522669,145.740189 225.064,145.740189 L221.432,145.740189 L228.616,136.630582 C228.797334,136.403246 228.967999,136.181327 229.128,135.964817 C229.288001,135.748307 229.442666,135.531801 229.592,135.315291 C229.058664,135.661707 228.472003,135.924221 227.832,136.102842 C227.191997,136.281462 226.520004,136.370771 225.816,136.370771 Z M231.208,129.339648 C231.208,128.700944 231.112001,128.129908 230.92,127.626522 C230.727999,127.123137 230.456002,126.698243 230.104,126.351827 C229.751998,126.005411 229.333336,125.74019 228.848,125.556157 C228.362664,125.372124 227.832003,125.280108 227.256,125.280108 C226.658664,125.280108 226.120002,125.380243 225.64,125.580514 C225.159998,125.780786 224.752002,126.059538 224.416,126.416779 C224.079998,126.774021 223.821334,127.198915 223.64,127.691475 C223.458666,128.184035 223.368,128.722595 223.368,129.307172 C223.368,130.617057 223.70133,131.615693 224.368,132.303112 C225.03467,132.990531 225.981327,133.334235 227.208,133.334235 C227.848003,133.334235 228.415998,133.231395 228.912,133.02571 C229.408002,132.820026 229.826665,132.538567 230.168,132.181326 C230.509335,131.824085 230.767999,131.401897 230.944,130.91475 C231.120001,130.427602 231.208,129.902574 231.208,129.339648 Z" id="2019" fill="#E15E3B"></path>
        </g>
    </g>
</svg>