<?xml version="1.0" encoding="utf-8"?>
<!-- Generator: Adobe Illustrator 21.1.0, SVG Export Plug-In . SVG Version: 6.00 Build 0)  -->
<svg version="1.1" id="Layer_1" xmlns="http://www.w3.org/2000/svg" xmlns:xlink="http://www.w3.org/1999/xlink" x="0px" y="0px"
	 viewBox="0 0 640 386" style="enable-background:new 0 0 640 386;" xml:space="preserve">
<style type="text/css">
	.st0{fill:#F75A36;}
	.st1{fill:#00B0AD;}
	.st2{fill:#00B0AC;}
	.st3{fill-rule:evenodd;clip-rule:evenodd;fill:#F1592A;}
	.st4{fill-rule:evenodd;clip-rule:evenodd;fill:#FFFFFF;}
</style>
<symbol  id="oew2018-logo" viewBox="-467.4 -264.4 934.9 528.8">
	<g>
		<g>
			<path class="st0" d="M57.2-227.6V-264h-4.3v26.7c0,0.4,0,0.7,0,1.1c0,0.4,0.1,0.8,0.1,1.2l-12.5-22.8c-0.4-0.8-1-1.1-1.8-1.1H38
				c-0.8,0-1.4,0.4-1.8,1.1l-12.8,22.9c0.1-0.9,0.2-1.7,0.2-2.5V-264h-4.3v36.4h3.6c0.4,0,0.8,0,1-0.1c0.2-0.1,0.5-0.3,0.7-0.7
				l12.6-22.4c0.2-0.4,0.4-0.8,0.6-1.3c0.2-0.4,0.4-0.9,0.5-1.3c0.2,0.5,0.3,0.9,0.5,1.4c0.2,0.4,0.4,0.9,0.6,1.3l12.3,22.4
				c0.2,0.4,0.4,0.6,0.7,0.7c0.2,0.1,0.6,0.1,1,0.1H57.2z"/>
			<path class="st0" d="M93.5-264h-3.8c-0.4,0-0.8,0.1-1.1,0.3c-0.3,0.2-0.5,0.5-0.6,0.8l-3.4,8.8H68.3l-3.4-8.8
				c-0.1-0.3-0.3-0.6-0.6-0.8c-0.3-0.2-0.6-0.4-1.1-0.4h-3.8L74-227.6h5L93.5-264z M83.3-250.5l-5.7,14.8c-0.2,0.4-0.3,1-0.5,1.5
				c-0.2,0.6-0.4,1.2-0.5,1.9c-0.4-1.4-0.7-2.5-1.1-3.4l-5.7-14.8H83.3z"/>
			<path class="st0" d="M122.7-264h-4.4c-0.9,0-1.6,0.3-2,1l-9.4,13c-0.3,0.4-0.6,0.7-0.9,0.9c-0.3,0.2-0.8,0.3-1.5,0.3h-3.7V-264
				h-4.9v36.4h10.3c2.3,0,4.3-0.2,6-0.7c1.7-0.5,3.1-1.1,4.2-2c1.1-0.9,1.9-1.9,2.4-3.2c0.5-1.2,0.8-2.6,0.8-4.2
				c0-1.3-0.2-2.5-0.6-3.6c-0.4-1.1-1-2.1-1.8-3c-0.8-0.9-1.7-1.6-2.8-2.3c-1.1-0.6-2.4-1.1-3.8-1.4c0.6-0.4,1.2-0.9,1.6-1.5
				L122.7-264z M105.9-245.2c1.4,0,2.7,0.2,3.8,0.5c1.1,0.3,2,0.8,2.7,1.5c0.7,0.6,1.3,1.4,1.7,2.3c0.4,0.9,0.6,1.9,0.6,2.9
				c0,2.2-0.7,3.8-2.1,4.9c-1.4,1.1-3.6,1.7-6.4,1.7h-5.4v-13.7H105.9z"/>
			<path class="st0" d="M150.3-256.5c0.3,0,0.5-0.1,0.7-0.3l2-2.1c-1.5-1.7-3.3-3.1-5.4-4c-2.1-1-4.7-1.4-7.7-1.4
				c-2.6,0-5,0.5-7.1,1.4c-2.1,0.9-4,2.2-5.5,3.8c-1.5,1.6-2.7,3.6-3.5,5.9c-0.8,2.3-1.2,4.8-1.2,7.5c0,2.7,0.4,5.3,1.3,7.5
				c0.9,2.3,2.1,4.3,3.6,5.9c1.6,1.6,3.4,2.9,5.6,3.8c2.2,0.9,4.6,1.4,7.2,1.4c2.6,0,4.9-0.4,6.9-1.2c2-0.8,3.7-2,5.2-3.4l-1.6-2.3
				c-0.1-0.2-0.2-0.3-0.4-0.4c-0.2-0.1-0.4-0.2-0.6-0.2c-0.3,0-0.7,0.2-1.1,0.5c-0.4,0.3-1,0.7-1.7,1.1c-0.7,0.4-1.6,0.8-2.7,1.1
				c-1.1,0.3-2.4,0.5-3.9,0.5c-1.9,0-3.6-0.3-5.2-1c-1.6-0.7-2.9-1.6-4-2.8c-1.1-1.2-2-2.7-2.6-4.5c-0.6-1.8-0.9-3.8-0.9-6
				c0-2.3,0.3-4.3,1-6.1c0.7-1.8,1.5-3.3,2.7-4.5c1.1-1.2,2.5-2.2,4-2.8c1.5-0.6,3.2-1,5-1c1.1,0,2.1,0.1,2.9,0.2
				c0.9,0.1,1.7,0.3,2.4,0.6c0.7,0.3,1.4,0.6,2.1,1c0.6,0.4,1.3,0.9,1.9,1.5C149.7-256.6,150-256.5,150.3-256.5z"/>
			<path class="st0" d="M185.6-227.6V-264h-4.9v16.6H161V-264h-4.9v36.4h4.9v-16.2h19.6v16.2H185.6z"/>
			<path class="st0" d="M217.8-241.4c1.9,0.4,3.6,0.6,5.2,0.6c1.9,0,3.6-0.3,5-0.8c1.5-0.6,2.7-1.3,3.6-2.3c1-1,1.7-2.1,2.2-3.5
				c0.5-1.3,0.7-2.8,0.7-4.4c0-1.9-0.3-3.7-1-5.2c-0.7-1.6-1.6-2.9-2.8-4c-1.2-1.1-2.6-2-4.2-2.6c-1.6-0.6-3.3-0.9-5.2-0.9
				c-1.1,0-2.1,0.1-3.1,0.3c-1,0.2-1.9,0.5-2.8,0.9c-0.9,0.4-1.6,0.8-2.4,1.2c-0.7,0.5-1.4,0.9-1.9,1.4l1.4,1.9
				c0.3,0.4,0.7,0.7,1.2,0.7c0.3,0,0.7-0.1,1.1-0.4c0.4-0.3,0.9-0.6,1.5-0.9c0.6-0.3,1.3-0.6,2.1-0.9c0.8-0.3,1.8-0.4,2.9-0.4
				c1.3,0,2.4,0.2,3.4,0.6c1,0.4,1.9,1,2.6,1.7c0.7,0.8,1.3,1.7,1.7,2.7c0.4,1,0.6,2.2,0.6,3.5c0,1.1-0.2,2.2-0.5,3.1
				c-0.3,0.9-0.8,1.7-1.5,2.3c-0.7,0.6-1.5,1.1-2.5,1.5c-1,0.4-2.2,0.5-3.5,0.5c-0.9,0-1.9-0.1-2.9-0.2c-1-0.2-2-0.4-3-0.7l-2.8,0.8
				l2.9,17h17.2v-2c0-0.6-0.2-1.2-0.6-1.6c-0.4-0.4-1.1-0.6-2-0.6h-11.4L217.8-241.4z"/>
			<path class="st0" d="M249.2-246.9h12.5v-3.8h-12.5V-246.9z"/>
			<path class="st0" d="M290.6-249.5c0.4,0.5,0.7,1,1,1.4c0.3,0.4,0.6,0.9,0.9,1.3c-0.9-0.7-2-1.3-3.1-1.7c-1.2-0.4-2.4-0.6-3.7-0.6
				c-1.4,0-2.7,0.2-3.9,0.7c-1.2,0.5-2.3,1.1-3.2,2c-0.9,0.9-1.7,2-2.2,3.3c-0.6,1.3-0.8,2.8-0.8,4.5c0,1.6,0.3,3.1,0.9,4.5
				c0.6,1.4,1.4,2.6,2.5,3.6s2.3,1.8,3.8,2.4s3.1,0.9,4.9,0.9c1.7,0,3.3-0.3,4.7-0.9c1.4-0.6,2.6-1.4,3.7-2.4c1-1,1.8-2.3,2.4-3.7
				c0.5-1.4,0.8-3,0.8-4.8c0-1.1-0.1-2-0.3-3c-0.2-0.9-0.5-1.9-0.8-2.8c-0.4-0.9-0.8-1.8-1.3-2.7c-0.5-0.9-1.1-1.8-1.8-2.7
				l-8.9-12.8c-0.2-0.3-0.5-0.6-0.9-0.8c-0.4-0.2-0.9-0.3-1.4-0.3h-4.2L290.6-249.5z M280-238.3c0-1.2,0.2-2.2,0.5-3.1
				c0.3-0.9,0.8-1.7,1.4-2.3c0.6-0.6,1.4-1.1,2.3-1.4c0.9-0.3,1.9-0.5,3-0.5c1.2,0,2.3,0.2,3.2,0.6c0.9,0.4,1.7,0.9,2.4,1.6
				s1.1,1.4,1.5,2.3c0.3,0.9,0.5,1.8,0.5,2.7c0,1.1-0.2,2.2-0.5,3.1c-0.4,0.9-0.9,1.7-1.5,2.4c-0.6,0.6-1.4,1.1-2.3,1.5
				c-0.9,0.3-1.9,0.5-2.9,0.5c-1.1,0-2.1-0.2-3-0.5c-0.9-0.4-1.7-0.9-2.4-1.5c-0.7-0.6-1.2-1.4-1.5-2.3
				C280.2-236.3,280-237.2,280-238.3z"/>
		</g>
	</g>
	<g>
		<g>
			<path class="st1" d="M123,176.5c3.8,0,7.2,0.4,10.3,1.1c3.1,0.7,5.9,1.8,8.4,3c2.5,1.3,4.8,2.8,6.8,4.5c2,1.7,3.9,3.5,5.5,5.5
				l0.6-12.8c-1.2-1.5-2.6-2.9-4.3-4.2c-1.7-1.4-3.6-2.6-5.6-3.6c-2-1-4.1-1.9-6.4-2.5c-2.2-0.6-4.4-0.9-6.6-0.9c-0.3,0-0.6,0-1,0.1
				c-0.4,0.1-1.1,0.2-2,0.4c-1,0.2-2.4,0.4-4.2,0.8c-1.8,0.3-4.3,0.7-7.4,1.2v-1c0-6.8-0.6-13-1.7-18.5c-1.1-5.6-2.7-10.3-4.6-14.2
				c-1.9-3.9-4.1-7-6.6-9.1s-5-3.2-7.7-3.2c-2.1,0-3.9,0.5-5.3,1.6c-1.4,1-2.6,2.5-3.4,4.2c-0.8,1.8-1.4,3.9-1.8,6.2
				c-0.4,2.4-0.5,4.9-0.5,7.5c0,1.5,0.2,3.3,0.7,5.2c0.5,1.9,1.1,3.9,2,6.1c0.8,2.1,1.7,4.3,2.8,6.5c1,2.2,2.1,4.3,3.2,6.4
				c2.5,4.8,5.4,9.7,8.7,14.8c0.4,2.9,0.8,5.9,1.3,9c0.4,3.1,1,6,1.6,8.9c0.7,2.9,1.5,5.6,2.5,8.2c1,2.6,2.3,4.8,3.8,6.7
				c1.6,1.9,3.4,3.4,5.6,4.5c2.2,1.1,4.8,1.7,7.9,1.7c2.3,0,4.4-0.3,6.4-0.9c2-0.6,3.7-1.6,5.2-3c1.5-1.4,2.7-3.2,3.5-5.4
				c0.9-2.2,1.3-4.9,1.3-8.1c0-2.5-0.4-5-1.1-7.4c-0.7-2.4-1.9-4.6-3.5-6.8c-1.6-2.2-3.6-4.2-6.1-6.1c-2.5-1.9-5.4-3.6-8.7-5.1
				L123,176.5z M96.4,141.7c0-0.3,0.1-0.8,0.2-1.5c0.1-0.7,0.3-1.3,0.6-2c0.3-0.7,0.7-1.3,1.2-1.8c0.5-0.5,1.1-0.8,1.8-0.8
				c0.6,0,1.2,0.3,1.6,1c0.4,0.7,0.7,1.6,1,2.8c0.3,1.2,0.4,2.5,0.6,3.9c0.1,1.5,0.2,3,0.3,4.5c0.1,1.5,0.1,3,0.1,4.5
				c0,1.5,0.1,2.8,0.1,3.9c0.1,2,0.2,3.7,0.3,5.1c0.1,1.4,0.1,2.6,0.1,3.5c0,1,0.1,1.9,0.1,2.6c-0.7-1.2-1.4-2.7-2.1-4.3
				s-1.3-3.3-1.9-5.1c-0.6-1.8-1.1-3.5-1.6-5.3c-0.5-1.8-0.9-3.4-1.3-4.9c-0.4-1.5-0.6-2.8-0.8-3.9C96.5,143,96.4,142.2,96.4,141.7z
				 M116,182.1c2.2,1.1,4.2,2.4,5.8,3.8c1.6,1.4,3,2.9,4.2,4.4c1.2,1.6,2.1,3.2,2.9,4.9c0.7,1.7,1.3,3.4,1.8,5.2
				c0.2,0.8,0.3,1.8,0.4,2.9c0.1,1.1-0.1,2.1-0.3,3.1c-0.3,1-0.8,1.8-1.5,2.5c-0.7,0.7-1.7,1-2.9,1c-1.4,0-2.6-0.4-3.6-1.2
				c-1-0.8-2-1.8-2.7-3.1c-0.8-1.3-1.4-2.9-1.9-4.7c-0.5-1.8-0.9-3.7-1.2-5.8c-0.3-2.1-0.5-4.2-0.7-6.4
				C116,186.6,116,184.3,116,182.1z"/>
			<path class="st1" d="M167,166.5c-3.5,0-6.6,0.6-9.2,1.9c-2.6,1.3-4.8,3-6.6,5.1s-3.1,4.6-4,7.5c-0.9,2.8-1.3,5.8-1.3,8.9
				c0,2.1,0.2,4.3,0.6,6.6c0.4,2.3,1,4.6,1.9,6.9c0.8,2.2,1.9,4.4,3.2,6.4c1.3,2,2.8,3.8,4.5,5.4c1.7,1.6,3.6,2.8,5.7,3.7
				c2.1,0.9,4.5,1.4,7,1.4c2.1,0,4-0.3,5.8-1s3.4-1.6,4.7-2.8c1.3-1.2,2.4-2.7,3.1-4.4c0.7-1.7,1.1-3.6,1.1-5.8c0-2.3-0.6-4.6-1.7-7
				c-1.1-2.3-2.7-4.5-4.7-6.6c-2-2.1-4.4-3.9-7.2-5.5c-2.8-1.6-5.8-2.9-9.1-3.8c0.6-1,1.1-1.9,1.7-2.5c0.5-0.7,1.1-1.2,1.7-1.6
				c0.6-0.4,1.1-0.6,1.8-0.8c0.6-0.1,1.3-0.2,2-0.2c2.2,0,4.6,0.4,7.1,1.3c2.5,0.9,4.9,2,7.3,3.4s4.6,2.8,6.7,4.4
				c2.1,1.6,3.9,3.1,5.3,4.5l7.2-7.5c-3.3-3.4-6.8-6.4-10.5-9c-1.6-1.1-3.3-2.2-5.2-3.3c-1.9-1.1-3.8-2-5.8-2.9
				c-2-0.8-4.2-1.5-6.3-2C171.5,166.7,169.3,166.5,167,166.5z M159.6,192.9c1.3,0,2.8,0.3,4.4,1c1.6,0.7,3.1,1.6,4.4,2.7
				c1.4,1.1,2.5,2.3,3.5,3.5c0.9,1.3,1.4,2.5,1.4,3.7c0,1.7-0.3,3.1-0.9,4.2c-0.6,1.1-1.4,1.6-2.3,1.6c-1.6,0-3-0.3-4.1-0.9
				c-1.1-0.6-2.1-1.4-2.9-2.3c-0.8-1-1.4-2-1.9-3.3c-0.5-1.2-0.8-2.4-1.1-3.7c-0.2-1.2-0.4-2.4-0.5-3.6
				C159.6,194.7,159.6,193.7,159.6,192.9z"/>
			<path class="st1" d="M192.2,178.2c0,2.5,0.1,5.3,0.4,8.6c0.3,3.2,0.7,6.5,1.1,9.9c0.4,3.3,1,6.6,1.5,9.7c0.6,3.1,1.1,5.8,1.6,8
				c0.4,1.7,1.2,3.2,2.4,4.3c1.2,1.2,2.8,1.7,4.8,1.7c2,0,3.4-0.6,4.2-1.9c0.8-1.2,1.2-2.9,1.2-4.9c0-0.6-0.1-1.3-0.2-2.3
				c-0.1-1-0.3-2-0.4-3.1c-0.2-1.1-0.3-2.3-0.5-3.5c-0.2-1.2-0.4-2.3-0.5-3.4c-0.2-1-0.3-1.9-0.4-2.7c-0.1-0.8-0.2-1.3-0.2-1.5h1.1
				c0.2,0.4,0.6,1.1,1.1,2c0.5,0.9,1,2,1.7,3.2c0.6,1.2,1.3,2.5,2,3.8c0.7,1.3,1.4,2.6,2,3.8c0.6,1.2,1.2,2.3,1.7,3.2
				c0.5,0.9,0.9,1.6,1.2,2.1c1.2,2,2.6,3.4,4.1,4.2c1.5,0.7,3.2,1.1,5.1,1.1c1.9,0,3.4-0.8,4.5-2.4c1.1-1.6,1.7-3.7,1.7-6.5
				c0-0.4-0.1-1.1-0.3-2.1c-0.2-1-0.4-2.1-0.6-3.5s-0.6-2.8-0.9-4.4c-0.3-1.6-0.6-3.3-0.9-4.9c-0.3-1.7-0.5-3.3-0.6-5
				c-0.2-1.6-0.3-3.2-0.3-4.5c0-2.3,0.3-4.2,0.9-5.7c0.6-1.5,1.5-2.2,2.7-2.2c0.6,0,1.2,0.2,1.9,0.5c0.7,0.3,1.5,0.8,2.4,1.3
				c0.8,0.5,1.7,1.2,2.6,1.9c0.9,0.7,1.7,1.4,2.6,2.2c2,1.8,4.1,3.7,6.2,5.9l1-12.6l-2.8-2.1c-1.5-1.2-3.1-2.3-4.7-3.5
				c-1.6-1.2-3.2-2.2-5-3.1c-1.7-0.9-3.5-1.7-5.4-2.2c-1.9-0.6-3.8-0.9-5.9-0.9c-2.1,0-3.8,1.5-5.2,4.5c-1.4,3-2.1,7.3-2.1,13
				c0,2.2,0.1,4.7,0.4,7.3c0.3,2.6,0.7,5.4,1.1,8.4h-0.9l-14.7-29.2c-0.7-1.5-1.6-2.6-2.5-3.1c-0.9-0.6-2-0.8-3.3-0.8
				c-1.5,0-2.8,0.3-3.7,1c-0.9,0.7-1.7,1.5-2.2,2.6c-0.5,1.1-0.8,2.4-1,3.8C192.3,175.3,192.2,176.7,192.2,178.2z"/>
		</g>
		<g>
			<path class="st1" d="M51.2,149.6c-5.6,0-10.6,1.1-15.1,3.4c-4.5,2.3-8.3,5.5-11.4,9.6c-3.1,4.1-5.6,9-7.2,14.6
				c-1.7,5.7-2.5,11.9-2.5,18.7c0,3.6,0.3,7.3,0.8,11.1c0.5,3.8,1.3,7.5,2.4,11.3c1.1,3.8,2.4,7.4,4,11.1c1.6,3.6,3.4,7,5.6,10.2
				c2.1,3.2,4.5,6.2,7.1,8.9c2.6,2.7,5.5,5.1,8.7,7c3.2,2,6.6,3.5,10.2,4.6c3.6,1.1,7.6,1.7,11.8,1.7c5.6,0,10.6-1,15.1-3
				c4.4-2,8.2-4.8,11.2-8.5c3-3.6,5.4-8,7-13c1.6-5,2.4-10.6,2.4-16.6c0-5-0.5-10.2-1.5-15.7c-1-5.4-2.4-10.8-4.3-16
				s-4.3-10.3-7.1-15c-2.8-4.8-6.1-8.9-9.8-12.5c-3.7-3.6-7.8-6.4-12.4-8.6C61.4,150.7,56.5,149.6,51.2,149.6z M52.5,163.3
				c3,0,5.8,0.6,8.4,1.7c2.6,1.2,4.9,2.7,7.1,4.8c2.2,2,4.1,4.4,5.9,7.1s3.4,5.6,4.7,8.7c1.4,3.1,2.6,6.3,3.6,9.7
				c1,3.3,1.9,6.6,2.6,9.9c0.7,3.3,1.2,6.4,1.5,9.4c0.3,3,0.5,5.8,0.5,8.2c0,3.6-0.4,7-1.2,10.1s-2,5.9-3.6,8.2
				c-1.6,2.3-3.6,4.2-6,5.5c-2.4,1.3-5.2,2-8.4,2c-3.4,0-6.8-0.8-10-2.5c-3.2-1.7-6.2-3.9-9.1-6.7c-2.8-2.8-5.4-6.1-7.8-9.8
				s-4.4-7.6-6.1-11.8c-1.7-4.1-3-8.3-3.9-12.6c-0.9-4.3-1.4-8.3-1.4-12.2c0-4.2,0.5-8.2,1.6-11.8c1.1-3.6,2.6-6.8,4.6-9.5
				c2-2.7,4.4-4.7,7.3-6.3C45.6,164,48.9,163.3,52.5,163.3z"/>
		</g>
		<g>
			<g>
				<path class="st2" d="M83.6,52.9c-3-3.2-6.4-6-10.2-8.4c-3.8-2.4-7.8-4.4-11.9-6.1c-4.1-1.6-8.3-2.9-12.6-3.7
					c-4.3-0.8-8.4-1.2-12.4-1.2c-4.4,0-8.6,0.5-12.5,1.5c-3.9,1-7.3,2.6-10.2,4.7c-2.9,2.1-5.2,4.8-6.9,8C5.2,51,4.3,54.8,4.3,59.3
					c0,3.8,0.7,7.4,2,10.9c1.4,3.5,3.5,6.6,6.3,9.3c2.9,2.7,6.5,4.9,11,6.5c4.5,1.6,9.8,2.5,16.1,2.7c-4.1,0-7.7,0.6-10.8,1.8
					c-3.1,1.2-5.6,2.8-7.6,4.8c-2,2-3.5,4.3-4.5,7c-1,2.7-1.5,5.5-1.5,8.5c0,2.8,0.5,5.4,1.5,7.7c1,2.3,2.3,4.4,4,6.3
					c1.7,1.9,3.7,3.5,6,4.9c2.3,1.4,4.8,2.5,7.5,3.5c2.7,0.9,5.6,1.6,8.5,2.1c3,0.5,6,0.7,9,0.7c4.4,0,8.7-0.5,12.8-1.4
					c4.2-1,7.9-2.4,11.2-4.3c3.3-1.9,5.9-4.3,7.9-7.2c2-2.9,3-6.2,3-10c0-1.3-0.5-2.7-1.4-4c-0.9-1.3-2-2.5-3.3-3.5
					c-1.3-1-2.6-1.9-4-2.5c-1.4-0.6-2.6-0.9-3.5-0.9c-0.8,0-1.2,0.7-1.2,2.1c0,1.2,0.2,2.8,0.6,4.8c0.4,1.9,1.1,4.4,2,7.3
					c-1,0.8-2.5,1.6-4.4,2.5c-1.9,0.8-4.1,1.6-6.6,2.2c-2.5,0.7-5.1,1.2-7.8,1.7c-2.8,0.4-5.5,0.6-8.2,0.6c-2.5,0-4.9-0.2-7.2-0.7
					c-2.3-0.4-4.3-1.2-6-2.2s-3.1-2.4-4.2-4.1c-1-1.7-1.5-3.8-1.5-6.2c0-2,0.4-3.7,1.1-5.1c0.7-1.4,1.7-2.6,2.9-3.5
					c1.2-1,2.6-1.8,4.2-2.4c1.6-0.6,3.2-1.2,4.9-1.7c1.7-0.5,3.3-1,5-1.4c1.6-0.4,3.1-1,4.5-1.5c1.4-0.6,2.5-1.3,3.5-2.1
					c0.9-0.8,1.6-1.9,1.9-3.1c0.1-0.8,0.1-1.6,0.2-2.4c0.1-0.8,0.1-1.6,0.1-2.3c0-2.1-0.4-3.6-1.2-4.6c-0.8-1-2.3-1.4-4.6-1.4
					c-1,0-2.2,0.1-3.6,0.2c-1.4,0.1-2.8,0.2-4.1,0.2c-3,0-5.9-0.4-8.8-1.2c-2.9-0.8-5.5-1.9-7.7-3.4c-2.3-1.5-4.1-3.4-5.5-5.6
					c-1.4-2.2-2.1-4.8-2.1-7.8c0-2.8,0.4-5.1,1.2-7c0.8-1.9,1.9-3.4,3.3-4.5c1.4-1.1,3.1-2,5-2.4c1.9-0.5,4-0.7,6.2-0.7
					c2.7,0,5.4,0.3,8.4,0.8c2.9,0.5,5.8,1.2,8.7,2.2c2.9,0.9,5.7,2,8.5,3.3c2.7,1.3,5.3,2.6,7.7,4c2.4,1.4,4.4,3,6.2,4.5
					c1.8,1.6,3.2,3.2,4.1,4.8L83.6,52.9z"/>
				<path class="st2" d="M141.2,49.9c-2.7-2.1-5.3-3.9-7.9-5.5c-1.1-0.7-2.2-1.3-3.4-2c-1.2-0.7-2.4-1.2-3.5-1.7
					c-1.2-0.5-2.3-0.9-3.4-1.2c-1.1-0.3-2.1-0.5-3.1-0.5c-0.5,0-1.3,0.1-2.3,0.3c-1,0.2-2.2,0.7-3.4,1.4c-1.2,0.7-2.4,1.7-3.6,3
					c-1.2,1.3-2.3,3-3.2,5.2c-1.4-1.3-2.9-2.6-4.4-3.8c-1.6-1.2-3.2-2.3-4.8-3.2c-1.7-0.9-3.3-1.6-5-2.2c-1.7-0.5-3.4-0.8-5.1-0.8
					c-2.4,0-4.5,0.5-6.3,1.6c-1.8,1-3.3,2.4-4.4,4.2c-1.2,1.7-2.1,3.7-2.6,5.9c-0.6,2.2-0.9,4.5-0.9,6.8c0,2.4,0.3,4.8,0.9,7.3
					c0.6,2.4,1.5,4.8,2.7,7.1c1.2,2.3,2.6,4.5,4.3,6.5c1.7,2,3.6,3.9,5.7,5.4c2.1,1.6,4.4,2.9,7,4c2.5,1,5.2,1.7,8,2
					c0.1,4.8,0.5,9.5,1.3,14.2c0.7,4.7,1.7,9.1,3,13.4s2.7,8.1,4.3,11.7c1.7,3.6,3.5,6.7,5.5,9.3c2,2.6,4.1,4.7,6.3,6.1
					c2.2,1.5,4.6,2.2,7,2.2c1.8,0,3.3-0.5,4.5-1.4c1.2-0.9,2.2-2.1,3-3.6c0.8-1.5,1.3-3.3,1.7-5.3c0.3-2,0.5-4.1,0.5-6.2
					c0-1.3-0.1-2.7-0.2-4c-0.5-5.3-1.4-10.3-2.7-15c-1.3-4.7-2.8-9.3-4.6-13.7c-1.8-4.5-3.7-8.9-5.7-13.2c-2.1-4.4-4.1-8.9-6-13.6
					c-0.2-0.5-0.4-1.2-0.6-1.9c-0.2-0.7-0.4-1.6-0.5-2.4c-0.2-0.9-0.3-1.8-0.4-2.7c-0.1-0.9-0.2-1.8-0.2-2.7c0-1.1,0.1-2.1,0.2-3.1
					c0.1-1,0.3-1.8,0.6-2.6c0.3-0.8,0.7-1.4,1.2-1.8c0.5-0.4,1.1-0.7,1.9-0.7c0.7,0,1.5,0.1,2.3,0.4c0.8,0.3,1.7,0.7,2.7,1.2
					c0.9,0.5,1.9,1,2.8,1.7c1,0.6,1.9,1.2,2.8,1.9c2.1,1.5,4.2,3.2,6.4,5.1L141.2,49.9z M102.6,81.3c-2.5-1.2-4.7-2.8-6.6-4.7
					c-1.9-2-3.5-4.1-4.8-6.4c-1.3-2.3-2.3-4.6-2.9-6.9c-0.7-2.3-1-4.4-1-6.3c0-0.7,0.1-1.5,0.3-2.2s0.5-1.4,0.9-2
					c0.4-0.6,1.1-1.1,1.9-1.5c0.8-0.4,1.9-0.6,3.2-0.6c0.7,0,1.3,0.2,2,0.5c0.7,0.3,1.3,0.8,1.9,1.3c0.6,0.5,1.2,1.2,1.7,1.9
					c0.5,0.7,1,1.4,1.5,2.2c1,1.7,2,3.7,2.9,5.8c-0.1,0.5-0.2,1.4-0.3,2.5c-0.1,1.1-0.1,2.4-0.2,3.8c0,1.4-0.1,2.9-0.1,4.3
					c0,1.5-0.1,2.9-0.1,4.1c0,1.2,0,2.2-0.1,3C102.7,81,102.7,81.3,102.6,81.3z M129,122c0.2,2.6,0.3,4.7,0.3,6.2
					c0,2-0.2,3.4-0.5,4.2c-0.4,0.8-0.9,1.2-1.5,1.2c-1.2,0-2.3-0.8-3.3-2.3c-1-1.5-1.8-3.5-2.6-5.8c-0.7-2.4-1.4-5-2-7.8
					c-0.6-2.8-1-5.6-1.4-8.2c-0.4-2.7-0.7-5-0.9-7.2s-0.4-3.6-0.4-4.5c-0.1-1.8-0.3-3.6-0.4-5.3c-0.1-1.7-0.2-3.3-0.2-4.7
					c0-1.4-0.1-2.6-0.1-3.7c0-1,0-1.9,0-2.4v-0.6c2.1,4.9,4.1,9.7,5.9,14.5c0.7,2.1,1.5,4.2,2.3,6.5c0.8,2.3,1.5,4.5,2.1,6.8
					c0.6,2.3,1.2,4.5,1.7,6.7C128.5,117.9,128.8,120,129,122z"/>
				<path class="st2" d="M180.1,89.1c0-1-0.1-2.4-0.3-4.1c-0.2-1.7-0.5-3.6-0.9-5.7s-0.7-4.2-1.1-6.4c-0.4-2.2-0.8-4.3-1.1-6.2
					c-0.4-1.9-0.6-3.6-0.9-5c-0.2-1.4-0.3-2.4-0.3-3c0-1,0-2,0.1-2.9c0-0.9,0.2-1.6,0.3-2.3c0.2-0.7,0.5-1.2,0.9-1.5
					c0.4-0.4,1-0.5,1.7-0.5c0.8,0,1.8,0.2,3,0.6c1.2,0.4,2.4,1,3.8,1.7c1.3,0.7,2.7,1.5,4.1,2.4c1.4,0.9,2.7,1.8,4,2.8
					c1.3,1,2.4,1.9,3.4,2.9c1,1,1.9,1.8,2.5,2.7c0-1.2,0-2.4,0-3.4s0-2,0-2.9c0-0.9,0-1.9,0-2.8c0-1,0-2.1,0-3.3
					c-0.8-0.8-1.8-1.7-3.1-2.6c-1.2-0.9-2.6-1.9-4-2.8c-1.5-0.9-3-1.8-4.7-2.7c-1.7-0.9-3.3-1.6-5-2.3c-1.7-0.7-3.3-1.2-5-1.6
					c-1.6-0.4-3.2-0.6-4.6-0.6c-1.4,0-2.6,0.3-3.6,0.8c-1,0.6-1.9,1.3-2.6,2.4c-0.7,1-1.3,2.2-1.9,3.6c-0.5,1.4-0.9,3-1.3,4.7
					c-1.3-1.8-2.8-3.4-4.3-4.9c-1.5-1.5-3-2.8-4.6-3.8c-1.6-1.1-3.1-1.9-4.7-2.6c-1.6-0.6-3.1-0.9-4.6-0.9c-1.2,0-2.4,0.2-3.5,0.6
					c-1.1,0.4-2,1.1-2.9,2.1c-0.8,1-1.5,2.3-2,3.8c-0.5,1.6-0.7,3.6-0.7,5.9c0,2.9,0.3,6.5,1,11c0.7,4.5,1.5,9.5,2.5,15.3
					c0.1,0.6,0.2,1.3,0.4,2.3c0.2,1,0.5,2,0.8,3.1c0.4,1.1,0.8,2.3,1.3,3.4c0.5,1.2,1.1,2.2,1.9,3.1c0.7,0.9,1.5,1.7,2.5,2.3
					c1,0.6,2,0.9,3.2,1c2-0.1,3.4-0.3,4.3-0.8c0.9-0.4,1.3-1,1.3-1.6c-0.3-2-0.7-4.2-1.1-6.6c-0.4-2.4-0.8-4.9-1.2-7.4
					c-0.4-2.5-0.8-4.9-1.2-7.2c-0.4-2.3-0.7-4.4-1-6.3c-0.3-1.8-0.5-3.3-0.7-4.4c-0.2-1.1-0.3-1.7-0.3-1.7c0-0.7,0.1-1.3,0.2-1.9
					c0.1-0.6,0.3-1.2,0.6-1.7c0.3-0.5,0.6-0.9,1-1.2c0.4-0.3,0.9-0.4,1.5-0.4c0.8,0,1.7,0.2,2.5,0.6c0.9,0.4,1.7,1,2.4,1.9
					c0.8,0.8,1.4,1.8,2,3c0.6,1.2,1,2.5,1.3,4l5.5,28.5c0.2,0.9,0.9,1.7,2.3,2.3c1.3,0.6,2.8,0.9,4.5,0.9c1.9,0,3.4-0.3,4.5-1
					C179.5,91,180.1,90.2,180.1,89.1z"/>
				<path class="st2" d="M209.4,38.9c-3.4,0-6.5,0.6-9.1,1.9c-2.6,1.3-4.8,3-6.5,5.1c-1.8,2.1-3.1,4.6-4,7.4
					c-0.9,2.8-1.3,5.7-1.4,8.8c0,2.2,0.2,4.4,0.7,6.8c0.4,2.4,1.1,4.7,2,6.9c0.9,2.3,2,4.4,3.3,6.5c1.3,2.1,2.8,3.9,4.5,5.4
					c1.7,1.6,3.6,2.8,5.7,3.7c2.1,0.9,4.4,1.4,6.9,1.4c2.1,0,4.1-0.3,5.9-1c1.8-0.7,3.4-1.6,4.7-2.7c1.3-1.2,2.3-2.5,3-4.1
					c0.7-1.6,1.1-3.3,1.1-5.1c0-1.3-0.2-2.5-0.5-3.8c-0.3-1.2-0.8-2.3-1.5-3.3c-0.7-1-1.4-1.8-2.4-2.4c-0.9-0.6-2-0.9-3.1-0.9
					c-1.8,0-2.9,0.5-3.5,1.4c-0.5,0.9-0.8,2.2-0.8,3.9c0,0.7,0,1.4,0.1,2.1c0.1,0.7,0.1,1.4,0.1,2c0,0.9-0.1,1.6-0.3,2.2
					c-0.2,0.6-0.6,0.9-1.2,0.9c-1.5,0-2.8-0.4-3.9-1.1c-1.1-0.7-2-1.7-2.8-2.9c-0.8-1.2-1.4-2.5-1.8-4c-0.4-1.5-0.8-2.9-1.1-4.4
					s-0.4-2.9-0.5-4.2s-0.1-2.4-0.1-3.3c0-1.3,0.1-2.7,0.4-4.2c0.2-1.5,0.7-2.8,1.4-4c0.7-1.2,1.6-2.2,2.8-3
					c1.2-0.8,2.7-1.2,4.5-1.2c1.8,0,3.8,0.6,5.9,1.7c2.2,1.1,4.3,2.5,6.5,4.2c2.2,1.7,4.3,3.5,6.3,5.6c2,2,3.7,3.9,5.1,5.7l3.9-6.5
					c-2.8-4-5.8-7.6-9.1-10.7c-1.4-1.3-2.9-2.7-4.5-3.9c-1.6-1.3-3.3-2.4-5.1-3.4c-1.8-1-3.6-1.8-5.6-2.4
					C213.4,39.2,211.4,38.9,209.4,38.9z"/>
				<path class="st2" d="M292.1,52.7c-0.9-1.2-2-2.6-3.4-4.2c-1.4-1.6-3.1-3.1-4.9-4.6c-1.8-1.5-3.7-2.7-5.8-3.7
					c-2.1-1-4.1-1.5-6.2-1.5c-2.5,0-4.5,0.8-6.2,2.4c-1.6,1.6-3.1,3.9-4.3,6.9c-0.9-1-2-2.1-3.3-3.2c-1.3-1.1-2.7-2.1-4.3-2.9
					c-1.6-0.9-3.2-1.6-4.9-2.2c-1.7-0.6-3.4-0.8-5-0.8c-1.8,0-3.5,0.4-5.2,1.1c-1.7,0.7-3.2,1.8-4.5,3.1s-2.4,3-3.1,5
					c-0.8,2-1.2,4.2-1.2,6.6c0,2.8,0.4,5.7,1.2,8.6c0.8,3,1.9,5.8,3.3,8.7c1.4,2.8,3,5.5,4.9,8c1.9,2.5,4,4.7,6.2,6.6
					c2.2,1.9,4.6,3.4,7.1,4.5c2.5,1.1,5,1.7,7.6,1.7c0.9,0,1.5-0.2,2-0.5c0.5-0.3,0.9-0.7,1.2-1.1c0.3-0.4,0.6-0.9,0.9-1.3
					c0.3-0.4,0.7-0.7,1.1-0.9c0.4-0.2,0.9-0.3,1.4-0.4c0.5-0.1,0.9-0.1,1.4-0.1c0.4,0,0.8,0,1.3,0c0.4,0,0.8,0,1.3,0
					c0.6,0,1.1-0.1,1.6-0.2c0.5-0.1,0.9-0.4,1.3-0.7c0.4-0.4,0.7-0.9,0.9-1.6c0.2-0.7,0.3-1.6,0.3-2.7c0-1.8-0.2-3.8-0.6-6
					c-0.4-2.2-0.8-4.4-1.2-6.7c-0.4-2.3-0.9-4.6-1.2-6.9c-0.4-2.3-0.6-4.5-0.6-6.5c0-1.8,0.2-3.1,0.5-4.1c0.3-1,1-1.5,2-1.5
					c0.8,0,1.6,0.2,2.5,0.6s1.7,0.9,2.6,1.5c0.9,0.6,1.8,1.4,2.6,2.2c0.9,0.8,1.7,1.6,2.5,2.5c1.8,2,3.7,4.3,5.6,6.8L292.1,52.7z
					 M244.1,57.1c0-0.9,0.1-1.8,0.2-2.7c0.1-0.9,0.4-1.7,0.7-2.4c0.3-0.7,0.8-1.3,1.3-1.7c0.6-0.4,1.3-0.6,2.1-0.6
					c1.4,0,2.6,0.6,3.8,1.8c1.1,1.2,2.1,2.6,2.9,4.3c0.8,1.7,1.5,3.4,2,5.2c0.5,1.8,0.8,3.3,1,4.5l3.4,16.5c-1.5,0-3-0.4-4.5-1.2
					c-1.5-0.8-2.8-1.8-4.1-3.1c-1.3-1.3-2.5-2.8-3.6-4.5c-1.1-1.7-2-3.5-2.8-5.3c-0.8-1.9-1.4-3.7-1.8-5.6
					C244.4,60.5,244.1,58.8,244.1,57.1z"/>
				<path class="st2" d="M332.1,51.5c-3.6-2.1-6.8-3.9-9.6-5.5c-2.8-1.6-5.3-2.9-7.5-3.9c-2.2-1-4.1-1.8-5.8-2.4
					c-1.7-0.5-3.2-0.8-4.6-0.8c-2.8,0-5.4,0.9-7.5,2.6c-2.2,1.7-4,4.2-5.4,7.4c-1.5,3.2-2.6,7.2-3.3,11.8c-0.7,4.6-1.1,9.8-1.1,15.5
					c0,2.2,0.1,4.6,0.3,7.2c0.2,2.5,0.4,5.1,0.8,7.6c-1.1,0.1-2,0.3-2.6,0.4c-0.6,0.1-1.3,0.3-2,0.4c-0.7,0.1-1.6,0.3-2.6,0.4
					c-1.1,0.1-2.6,0.3-4.6,0.6c-0.9,0.1-1.6,0.3-2.1,0.6c-0.5,0.3-0.8,0.7-1.1,1.1c-0.2,0.4-0.4,0.9-0.4,1.3c0,0.5-0.1,0.9-0.1,1.2
					c0,0.7,0.4,1.3,1.1,1.7c0.7,0.4,1.7,0.7,2.8,0.9c1.1,0.2,2.4,0.3,3.8,0.3c1.4,0,2.7,0,3.9,0c1.3,0,2.4-0.1,3.4-0.1
					c1,0,1.7,0,2,0.1c1,5,2.3,9.9,3.8,14.7c1.5,4.7,3.3,8.9,5.2,12.6c1.9,3.7,4,6.6,6.3,8.9c2.3,2.2,4.7,3.3,7.2,3.3
					c1.6,0,3.1-0.4,4.4-1.3c1.3-0.9,2.5-2.1,3.4-3.6c0.9-1.5,1.7-3.2,2.2-5.2c0.5-2,0.8-4.1,0.8-6.3c0-1.8-0.3-3.8-0.8-5.8
					c-0.5-2-1.2-4.1-2.1-6.2c-0.9-2.1-2-4.3-3.2-6.4c-1.2-2.2-2.5-4.3-3.8-6.5c0.3,0,0.9-0.1,1.7-0.1c0.8,0,1.7,0,2.7-0.1
					c1,0,2.1-0.1,3.3-0.1c1.2-0.1,2.4-0.1,3.5-0.1c1.1,0,2.2-0.1,3.1-0.1c1,0,1.8-0.1,2.4-0.1c0.7,0,1.3-0.4,1.6-1.1
					c0.3-0.7,0.5-1.6,0.5-2.7c0-1.3-0.4-2.4-1.1-3.2c-0.7-0.8-1.6-1.2-2.5-1.2l-21.5,0c-1.1-1.5-2.2-3-3.3-4.4
					c-1.1-1.4-2.1-2.7-3.1-3.9c-0.1-2.3-0.3-4.6-0.4-6.8c0-1-0.1-2-0.1-3c0-1-0.1-2-0.1-3.1c0-1-0.1-2-0.1-2.9c0-0.9,0-1.8,0-2.6
					c0-2,0.2-3.7,0.6-5.1c0.4-1.4,0.9-2.5,1.6-3.4c0.7-0.9,1.6-1.5,2.6-1.9c1-0.4,2.2-0.6,3.5-0.6c0.8,0,1.8,0.2,2.9,0.6
					c1.2,0.4,2.5,0.9,3.9,1.5c1.4,0.7,2.9,1.4,4.4,2.3c1.6,0.9,3.1,1.9,4.6,2.9c1.5,1.1,3,2.2,4.3,3.4c1.4,1.2,2.6,2.4,3.8,3.6
					L332.1,51.5z M314.1,122.6c0,0.4,0,0.9-0.1,1.4c-0.1,0.5-0.2,1-0.4,1.4c-0.2,0.4-0.5,0.8-0.9,1.1c-0.4,0.3-0.9,0.4-1.7,0.4
					c-1,0-2-0.9-2.9-2.6c-1-1.7-1.9-3.9-2.9-6.6c-0.9-2.7-1.8-5.6-2.6-8.8c-0.8-3.2-1.5-6.3-2.2-9.4c0.6-0.1,1.1-0.1,1.7-0.2
					c0.6-0.1,1.1-0.1,1.7-0.2c1.1,1.9,2.3,4,3.5,6.2c1.2,2.2,2.3,4.4,3.3,6.6c1,2.1,1.8,4.2,2.4,6
					C313.8,119.8,314.1,121.4,314.1,122.6z"/>
				<path class="st2" d="M364.5,50.9c-1.3-1.2-3-2.6-5-4c-2-1.4-4.2-2.7-6.5-3.9c-2.3-1.2-4.7-2.2-7.1-2.9c-2.4-0.8-4.7-1.2-6.9-1.2
					c-1.9,0-3.6,0.3-4.9,0.8c-1.3,0.5-2.4,1.3-3.2,2.3c-0.8,1-1.4,2.2-1.8,3.6c-0.4,1.4-0.5,2.9-0.5,4.6c0,2.4,0.3,5.1,0.8,8.2
					c0.5,3.1,1.2,6.4,2,9.7c0.8,3.3,1.6,6.7,2.5,10c0.9,3.3,1.7,6.4,2.3,9.2c0.3,1,0.8,1.8,1.6,2.5c0.8,0.7,1.7,1.3,2.7,1.7
					c1,0.4,2,0.7,3.1,1c1.1,0.2,2,0.3,2.9,0.3c1.6,0,2.6-0.3,3.2-0.9c0.6-0.6,0.8-1.4,0.8-2.3c0-0.8-0.2-2-0.6-3.6
					c-0.4-1.6-0.8-3.3-1.4-5.3c-0.6-2-1.2-4.1-1.8-6.3c-0.6-2.3-1.2-4.5-1.8-6.8c-0.6-2.3-1-4.5-1.4-6.6s-0.6-4.1-0.6-5.8
					c0-1.7,0.2-3,0.6-4c0.4-1,1.1-1.5,2.3-1.5c1.3,0,2.8,0.5,4.5,1.4c1.6,0.9,3.3,2.1,5,3.4s3.3,2.7,4.9,4.1c1.6,1.4,3,2.6,4.3,3.6
					L364.5,50.9z M339.4,108.6c0,0.9,0.2,1.8,0.6,2.9c0.4,1.1,1,2.1,1.8,3.1c0.8,1,2,1.8,3.4,2.4c1.4,0.7,3.2,1,5.2,1
					c1.3,0,2.5-0.1,3.7-0.4c1.2-0.3,2.2-0.8,3-1.4c0.9-0.6,1.5-1.4,2-2.4c0.5-1,0.8-2.2,0.8-3.6c0-1.3-0.2-2.5-0.6-3.7
					c-0.4-1.2-1.1-2.3-2-3.2c-0.9-0.9-2-1.7-3.4-2.3c-1.4-0.6-3-0.9-4.9-0.9c-3.3,0-5.7,0.8-7.3,2.3
					C340.2,104,339.4,106,339.4,108.6z"/>
				<path class="st2" d="M394.9,81c1.1-2.2,1.9-4.5,2.4-6.9c0.5-2.4,0.8-4.7,0.8-6.9c0-2.2-0.2-4.4-0.7-6.7
					c-0.5-2.2-1.2-4.4-2.1-6.5c-0.9-2.1-2-4.1-3.4-5.9c-1.3-1.8-2.8-3.4-4.5-4.8c-1.7-1.3-3.6-2.4-5.6-3.2c-2-0.8-4.2-1.2-6.5-1.2
					c-3.3,0-6.1,0.7-8.4,2.2c-2.3,1.4-4.3,3.3-5.8,5.6s-2.6,4.9-3.3,7.9c-0.7,2.9-1,5.9-1,8.9c0,4.1,0.6,8,1.8,11.5
					c1.2,3.6,3,6.7,5.3,9.3s5.1,4.7,8.4,6.2c3.3,1.5,7.1,2.3,11.2,2.3c3.6,0,6.9-0.6,10-1.7c3.1-1.1,6-2.6,8.7-4.4
					c2.7-1.9,5.2-4,7.6-6.4c2.3-2.4,4.5-4.9,6.5-7.4l-1.1-7.9c-1,1.3-2.4,2.8-4.1,4.4c-1.7,1.6-3.5,3.1-5.5,4.6
					c-1.9,1.5-3.8,2.9-5.7,4.2c-1.9,1.3-3.5,2.4-4.8,3.3L394.9,81z M377.6,49.8c1.3,0,2.5,0.6,3.7,1.9c1.2,1.3,2.2,2.9,3.1,4.9
					c0.9,2,1.6,4.1,2.2,6.5c0.5,2.4,0.8,4.6,0.8,6.8c0,1.7-0.1,3.3-0.4,4.8c-0.3,1.5-0.7,2.8-1.2,3.8c-0.5,1.1-1.2,1.9-2,2.6
					c-0.8,0.6-1.8,1-3,1c-1.5,0-3-0.7-4.4-2c-1.4-1.3-2.6-3-3.6-5c-1-2-1.9-4.3-2.5-6.8c-0.6-2.5-0.9-4.8-0.9-7.1
					c0-1.6,0.2-3,0.5-4.4c0.3-1.4,0.8-2.6,1.4-3.6c0.6-1,1.5-1.9,2.5-2.5C374.9,50.1,376.2,49.8,377.6,49.8z"/>
				<path class="st2" d="M409.5,50.7c0,2.5,0.1,5.3,0.4,8.6c0.3,3.2,0.7,6.5,1.1,9.9c0.4,3.3,1,6.6,1.5,9.7c0.6,3.1,1.1,5.8,1.6,8
					c0.4,1.7,1.2,3.2,2.4,4.3c1.2,1.2,2.8,1.7,4.8,1.7c2,0,3.4-0.6,4.2-1.9c0.8-1.2,1.2-2.9,1.2-4.9c0-0.6-0.1-1.3-0.2-2.3
					c-0.1-1-0.3-2-0.4-3.1c-0.2-1.1-0.3-2.3-0.5-3.5c-0.2-1.2-0.4-2.3-0.5-3.4s-0.3-1.9-0.4-2.7c-0.1-0.8-0.2-1.3-0.2-1.5h1.1
					c0.2,0.4,0.6,1.1,1.1,2c0.5,0.9,1,2,1.7,3.2c0.6,1.2,1.3,2.5,2,3.8c0.7,1.3,1.4,2.6,2,3.8c0.6,1.2,1.2,2.3,1.7,3.2
					c0.5,0.9,0.9,1.6,1.2,2.1c1.2,2,2.6,3.4,4.1,4.2c1.5,0.7,3.2,1.1,5.1,1.1c1.9,0,3.4-0.8,4.5-2.4c1.1-1.6,1.7-3.7,1.7-6.5
					c0-0.4-0.1-1.1-0.3-2.1c-0.2-1-0.4-2.1-0.6-3.5c-0.3-1.3-0.6-2.8-0.9-4.4c-0.3-1.6-0.6-3.3-0.9-4.9c-0.3-1.7-0.5-3.3-0.6-5
					c-0.2-1.6-0.3-3.2-0.3-4.5c0-2.3,0.3-4.2,0.9-5.7c0.6-1.5,1.5-2.2,2.7-2.2c0.6,0,1.2,0.2,1.9,0.5c0.7,0.3,1.5,0.8,2.4,1.3
					c0.8,0.5,1.7,1.2,2.6,1.9c0.9,0.7,1.7,1.4,2.6,2.2c2,1.8,4.1,3.7,6.2,6l1-12.6l-2.8-2.1c-1.5-1.2-3.1-2.3-4.7-3.5
					c-1.6-1.2-3.2-2.2-5-3.1c-1.7-0.9-3.5-1.7-5.4-2.2c-1.9-0.6-3.8-0.9-5.9-0.9c-2.1,0-3.8,1.5-5.2,4.5c-1.4,3-2.1,7.3-2.1,13
					c0,2.2,0.1,4.7,0.4,7.3c0.3,2.6,0.7,5.4,1.1,8.4l-0.9,0L422.4,43c-0.7-1.5-1.6-2.6-2.5-3.1c-0.9-0.6-2-0.8-3.3-0.8
					c-1.5,0-2.8,0.3-3.7,1c-0.9,0.7-1.7,1.5-2.2,2.6c-0.5,1.1-0.8,2.4-1,3.8C409.6,47.8,409.5,49.2,409.5,50.7z"/>
			</g>
		</g>
		<g>
			<g>
				<path class="st2" d="M41.4,9.8c0-1.3-0.3-3.2-0.9-5.7c-0.6-2.5-1.4-5.4-2.3-8.8c-0.9-3.3-1.9-6.9-3-10.8
					c-1.1-3.9-2.1-7.8-3-11.8c-0.9-4-1.7-7.9-2.3-11.8c-0.6-3.9-0.9-7.4-0.9-10.7c0-2.7,0.2-5.2,0.5-7.6c0.4-2.3,0.9-4.4,1.7-6.1
					c0.7-1.7,1.7-3.1,2.8-4.1c1.1-1,2.5-1.5,4-1.5c1.5,0,3,0.5,4.5,1.4c1.4,0.9,2.8,2.2,4.2,3.8c1.3,1.6,2.6,3.5,3.9,5.7
					c1.2,2.2,2.4,4.6,3.6,7.2c1.2,2.6,2.2,5.3,3.2,8.1c1,2.8,2,5.7,2.9,8.6c3.1,10.2,5.9,21.8,8.4,34.7c0.4,2.1,1,3.8,1.6,5.3
					c0.6,1.4,1.4,2.5,2.2,3.4c0.9,0.8,1.9,1.4,3,1.8c1.1,0.3,2.5,0.5,4,0.5c1.4,0,2.6-0.1,3.5-0.4c0.9-0.3,1.6-0.6,2.2-1.1
					c0.5-0.5,0.9-1,1.1-1.6c0.2-0.6,0.3-1.3,0.3-2.1c0-0.3-0.1-1.4-0.4-3.3c-0.3-1.9-0.7-4.4-1.2-7.4c-0.5-3-1-6.4-1.5-10.2
					c-0.5-3.8-1.1-7.7-1.5-11.8c-0.5-4-0.8-8-1.1-11.9c-0.3-3.9-0.4-7.5-0.4-10.8c0-3.4,0.1-6.4,0.4-9.1c0.2-2.7,0.7-5,1.2-6.9
					c0.6-1.9,1.3-3.4,2.3-4.4c0.9-1,2.1-1.5,3.5-1.5c2.4,0,4.6,0.9,6.5,2.8c2,1.9,3.7,4.4,5.4,7.5c1.6,3.1,3.1,6.7,4.3,10.9
					c1.3,4.1,2.6,9.5,3.8,16.1c1.2,6.6,1.9,9.9,1.9,9.9c0,0,0.4,3.6,1.3,10.8c0.9,7.2,1.5,12.2,1.8,14.8c0.3,2.7,0.6,4.8,0.8,6.3
					c0.1,1.7,0.5,3,1.1,4c0.6,1,1.4,1.8,2.4,2.3c1,0.6,2.1,0.9,3.3,1.1c1.2,0.2,2.5,0.3,3.8,0.3c1,0,1.9-0.1,2.8-0.3
					c0.8-0.2,1.6-0.5,2.2-1c0.6-0.5,1.1-1.1,1.4-1.9c0.3-0.8,0.5-1.8,0.5-3c0-3.3-0.3-7-1-11c-0.6-4-1.4-8-2.4-12
					c-1-4-6.4-29.6-6.9-31.9c-0.5-2.3-0.7-3.8-0.7-4.6c0-1.8,0.2-3.3,0.6-4.6c0.4-1.3,1-2.3,1.7-3.1c0.7-0.8,1.5-1.4,2.5-1.8
					c1-0.4,2-0.6,3.1-0.6c1.1,0,2.2,0.3,3.3,0.8c1.1,0.5,2.2,1.2,3.3,2.1c1,0.9,2,2,2.9,3.2c0.9,1.3,1.6,2.6,2.2,4.2l1-11.5
					c-2.8-2.9-5.6-5.3-8.6-7c-2.9-1.7-5.7-2.5-8.3-2.5c-1.2,0-2.4,0.2-3.5,0.5c-1.1,0.4-2,0.9-2.9,1.7c-0.8,0.8-1.5,1.7-2.1,3
					c-0.6,1.2-0.9,2.6-1.2,4.3c-1.9-3.2-3.9-6.1-6-8.6c-2.1-2.6-4.4-4.7-6.8-6.5c-2.4-1.8-4.9-3.2-7.5-4.2c-2.6-1-5.3-1.5-8.1-1.5
					c-3.5,0-6.6,0.9-9,2.8c-2.5,1.9-4.5,4.4-6,7.6c-1.6,3.2-2.7,7-3.4,11.3c-0.7,4.3-1.1,9-1.1,13.9c0,1.8,0.1,3.5,0.3,5.1
					c0.2,1.6,0.3,3,0.4,4.2c-1.3-8.5-3-15.7-5.1-21.4c-2-5.7-4.4-10.4-7.2-13.8c-2.8-3.5-5.9-6-9.4-7.4c-3.5-1.5-7.5-2.2-11.8-2.2
					c-2.5,0-4.8,0.8-7.1,2.4c-2.2,1.6-4.2,4-5.9,7.3c-1.7,3.2-3.1,7.2-4.1,12.1c-1,4.8-1.5,10.5-1.5,17c0,4,0.2,8,0.7,12.2
					c0.4,4.2,1.1,8.3,1.9,12.5c0.8,4.2,1.9,8.3,3.1,12.5c1.2,4.1,2.6,8.1,4.2,12c0.9,2.2,1.9,3.9,2.8,5.1c0.9,1.2,1.9,2.1,2.9,2.7
					c1,0.6,2,0.9,2.9,1c1,0.1,2,0.2,3,0.2c0.8,0,1.6-0.1,2.2-0.2c0.7-0.1,1.3-0.4,1.7-0.7c0.5-0.4,0.8-0.9,1.1-1.5
					C41.3,11.8,41.4,10.9,41.4,9.8z"/>
				<path class="st2" d="M152-76.6c-3.5,0-6.5,0.6-9.2,1.9c-2.6,1.3-4.8,3-6.6,5.2c-1.7,2.2-3,4.7-3.9,7.6c-0.9,2.9-1.3,5.9-1.3,9
					c0,2.1,0.4,4.5,1.2,7.4c0.8,2.9,1.6,5.4,2.4,7.6c0.8,2.2,1.9,4.3,3.2,6.3c1.3,2,2.7,3.8,4.4,5.3c1.7,1.5,3.6,2.8,5.7,3.7
					c2.1,0.9,4.4,1.4,7,1.4c2.1,0,4-0.3,5.8-1c1.8-0.7,3.4-1.6,4.7-2.8c1.3-1.2,2.4-2.7,3.1-4.4c0.7-1.7,1.1-3.6,1.1-5.8
					c0-2.3-0.8-4.8-2.3-7.6c-1.5-2.8-3.3-5.2-5.3-7.2c-2-2-4.4-3.8-7.2-5.4c-2.8-1.6-5.8-2.8-9.1-3.7c0.6-1,1.1-1.8,1.7-2.5
					c0.5-0.7,1.1-1.2,1.7-1.5c0.6-0.4,1.2-0.6,1.8-0.8c0.6-0.1,1.3-0.2,2-0.2c2.2,0,4.6,0.4,7.1,1.3c2.5,0.9,4.9,2,7.3,3.3
					c2.4,1.3,4.6,2.8,6.7,4.3c2.1,1.6,3.9,3,5.3,4.4l7.2-7.3c-3.3-3.5-6.8-6.6-10.5-9.3c-1.6-1.1-3.3-2.3-5.2-3.4
					c-1.9-1.1-3.8-2.1-5.8-3c-2-0.9-4.2-1.6-6.3-2.1C156.4-76.4,154.2-76.6,152-76.6z M144.5-49.9c1.4,0,2.8,0.3,4.4,1
					c1.6,0.7,3.1,1.5,4.4,2.6c1.4,1.1,2.7,2.5,4,4.3c1.3,1.8,2,3.3,2,4.4c0,1.6-0.3,3-0.9,4.1c-0.6,1.1-1.4,1.6-2.3,1.6
					c-1.6,0-3-0.3-4.1-0.9c-1.1-0.6-2.1-1.3-2.9-2.3c-0.8-0.9-1.4-2-1.9-3.2c-0.5-1.2-1-2.7-1.6-4.4c-0.6-1.8-1-3.2-1-4.3
					C144.5-48.1,144.5-49.1,144.5-49.9z"/>
				<path class="st2" d="M194.3-76.6c-3.5,0-6.6,0.6-9.2,1.9c-2.6,1.3-4.8,3-6.6,5.2c-1.7,2.2-3.1,4.7-3.9,7.6
					c-0.9,2.9-1.3,5.9-1.3,9c0,2.1,0.4,4.5,1.2,7.4c0.8,2.9,1.6,5.4,2.4,7.6c0.8,2.2,1.9,4.3,3.1,6.3c1.3,2,2.7,3.8,4.4,5.3
					c1.7,1.5,3.6,2.8,5.7,3.7c2.1,0.9,4.4,1.4,7,1.4c2.1,0,4.1-0.3,5.8-1c1.8-0.7,3.4-1.6,4.7-2.8c1.3-1.2,2.4-2.7,3.1-4.4
					c0.8-1.7,1.1-3.6,1.1-5.8c0-2.3-0.8-4.8-2.3-7.6c-1.5-2.8-3.3-5.2-5.3-7.2c-2-2-4.4-3.8-7.2-5.4c-2.8-1.6-5.8-2.8-9.1-3.7
					c0.6-1,1.1-1.8,1.7-2.5c0.5-0.7,1.1-1.2,1.7-1.5c0.6-0.4,1.2-0.6,1.8-0.8c0.6-0.1,1.3-0.2,2-0.2c2.2,0,4.6,0.4,7.1,1.3
					c2.5,0.9,4.9,2,7.3,3.3c2.3,1.3,4.6,2.8,6.7,4.3c2.1,1.6,3.9,3,5.3,4.4l7.2-7.3c-3.3-3.5-6.8-6.6-10.5-9.3
					c-1.6-1.1-3.3-2.3-5.2-3.4c-1.9-1.1-3.8-2.1-5.8-3c-2-0.9-4.2-1.6-6.3-2.1C198.8-76.4,196.5-76.6,194.3-76.6z M186.8-49.9
					c1.3,0,2.8,0.3,4.4,1c1.6,0.7,3.1,1.5,4.4,2.6c1.4,1.1,2.7,2.5,4,4.3c1.3,1.8,2,3.3,2,4.4c0,1.6-0.3,3-0.9,4.1
					c-0.6,1.1-1.4,1.6-2.3,1.6c-1.6,0-3-0.3-4.1-0.9c-1.1-0.6-2.1-1.3-2.9-2.3c-0.8-0.9-1.4-2-1.8-3.2c-0.5-1.2-1-2.7-1.6-4.4
					c-0.6-1.8-1-3.2-1-4.3C186.8-48.1,186.8-49.1,186.8-49.9z"/>
			</g>
		</g>
		<g>
			<path class="st0" d="M69-178.1c1.5,0,2.7-0.4,3.5-1.2c0.9-0.8,1.3-1.9,1.3-3.3v-8.2H18.7v4.6c0,0.9,0.2,1.9,0.6,2.9
				c0.4,1,1,1.9,1.9,2.7l24.4,24.4c2,2.1,3.9,4.1,5.5,5.9c1.6,1.9,3,3.8,4,5.6c1.1,1.9,1.9,3.7,2.5,5.6c0.6,1.9,0.9,3.9,0.9,6
				c0,1.9-0.3,3.6-0.8,5.1c-0.6,1.5-1.3,2.7-2.4,3.7c-1,1-2.2,1.7-3.7,2.2c-1.4,0.5-3,0.7-4.8,0.7c-1.6,0-3.1-0.2-4.5-0.7
				c-1.4-0.5-2.6-1.1-3.7-1.9c-1.1-0.8-2-1.8-2.7-2.9c-0.7-1.1-1.3-2.3-1.7-3.7c-0.6-1.7-1.4-2.8-2.4-3.4c-1-0.6-2.4-0.7-4.3-0.4
				l-7.2,1.3c0.6,3.8,1.6,7.2,3.2,10.1c1.6,2.9,3.6,5.3,6,7.3c2.4,1.9,5.1,3.4,8.2,4.4c3.1,1,6.4,1.5,10,1.5c3.7,0,7.1-0.5,10.2-1.6
				c3.1-1.1,5.7-2.6,7.9-4.6c2.2-2,3.9-4.4,5.1-7.2c1.2-2.8,1.8-5.9,1.8-9.4c0-3-0.4-5.7-1.3-8.2c-0.9-2.5-2-4.9-3.5-7.2
				c-1.5-2.3-3.2-4.5-5.1-6.7c-2-2.1-4-4.3-6.2-6.6l-18.1-18.5c1.7,0.5,3.5,0.9,5.2,1.2c1.7,0.3,3.4,0.4,4.9,0.4H69z"/>
			<path class="st0" d="M135-150.7c0-7-0.7-13.1-2.2-18.2s-3.6-9.4-6.2-12.8c-2.6-3.4-5.8-5.9-9.4-7.5c-3.6-1.6-7.5-2.5-11.7-2.5
				c-4.2,0-8.1,0.8-11.6,2.5c-3.6,1.6-6.7,4.2-9.3,7.5c-2.6,3.4-4.7,7.6-6.2,12.8c-1.5,5.2-2.2,11.2-2.2,18.2c0,7,0.7,13.1,2.2,18.3
				c1.5,5.1,3.5,9.4,6.2,12.8c2.6,3.4,5.7,5.9,9.3,7.5c3.6,1.6,7.4,2.5,11.6,2.5c4.2,0,8.1-0.8,11.7-2.5c3.6-1.6,6.7-4.2,9.4-7.5
				c2.6-3.4,4.7-7.6,6.2-12.8C134.2-137.6,135-143.7,135-150.7z M120.8-150.7c0,5.8-0.4,10.6-1.3,14.4c-0.9,3.8-2,6.8-3.4,9.1
				c-1.4,2.3-3.1,3.8-4.9,4.7c-1.9,0.9-3.8,1.4-5.8,1.4c-2,0-3.9-0.5-5.7-1.4c-1.8-0.9-3.5-2.5-4.9-4.7c-1.4-2.3-2.5-5.3-3.4-9.1
				c-0.8-3.8-1.2-8.6-1.2-14.4s0.4-10.6,1.2-14.4c0.8-3.8,2-6.8,3.4-9.1c1.4-2.3,3-3.8,4.9-4.7c1.8-0.9,3.7-1.4,5.7-1.4
				c2,0,3.9,0.5,5.8,1.4c1.9,0.9,3.5,2.5,4.9,4.7c1.4,2.3,2.6,5.3,3.4,9.1C120.4-161.4,120.8-156.6,120.8-150.7z"/>
			<path class="st0" d="M189.7-180.6v-10.3h-44.4v10.3h16.3v46.8c0,1.9,0.1,3.8,0.2,5.7l-11.5-9.7c-0.7-0.5-1.3-0.8-2-1
				c-0.6-0.1-1.3-0.1-1.8,0c-0.6,0.1-1.1,0.3-1.5,0.6c-0.4,0.3-0.8,0.6-1,0.9l-4.3,5.9l24.5,20.8h11.3v-70.1H189.7z"/>
			<path class="st0" d="M236.8-149c4.9-1.6,8.5-4,10.8-7.3c2.3-3.3,3.5-7.3,3.5-12c0-3.6-0.7-6.8-2-9.7c-1.4-2.9-3.2-5.3-5.7-7.4
				c-2.4-2-5.4-3.6-8.8-4.7c-3.4-1.1-7.2-1.7-11.4-1.7c-4.1,0-7.9,0.6-11.4,1.7c-3.4,1.1-6.4,2.7-8.8,4.7c-2.4,2-4.3,4.5-5.7,7.4
				c-1.4,2.9-2,6.1-2,9.7c0,4.7,1.2,8.7,3.5,12c2.3,3.3,5.9,5.7,10.8,7.3c-3.9,1.6-6.8,3.9-8.7,6.9c-1.9,3-2.9,6.6-2.9,10.8
				c0,3,0.6,5.9,1.9,8.5c1.2,2.6,3,4.9,5.2,6.9c2.2,1.9,4.9,3.5,8,4.6c3.1,1.1,6.5,1.6,10.2,1.6c3.7,0,7.1-0.5,10.2-1.6
				c3.1-1.1,5.7-2.6,8-4.6c2.2-1.9,4-4.2,5.2-6.9c1.2-2.6,1.9-5.5,1.9-8.5c0-4.2-1-7.8-2.9-10.8C243.6-145.1,240.7-147.4,236.8-149z
				 M223.2-181.1c2.3,0,4.2,0.3,5.9,1c1.7,0.6,3.1,1.5,4.3,2.7c1.2,1.1,2,2.5,2.6,4.1c0.6,1.6,0.9,3.3,0.9,5.2c0,4.4-1.2,7.7-3.7,10
				c-2.4,2.3-5.8,3.4-10.1,3.4s-7.7-1.1-10.1-3.4c-2.4-2.3-3.7-5.6-3.7-10c0-1.9,0.3-3.6,0.9-5.2c0.6-1.6,1.5-3,2.6-4.1
				c1.2-1.1,2.6-2,4.3-2.7C219-180.7,221-181.1,223.2-181.1z M223.2-120c-2,0-3.8-0.3-5.3-0.9c-1.5-0.6-2.7-1.5-3.7-2.5
				c-1-1.1-1.7-2.3-2.2-3.6c-0.5-1.4-0.7-2.8-0.7-4.3c0-1.6,0.2-3.1,0.6-4.6c0.4-1.5,1-2.8,2-4c0.9-1.2,2.1-2.1,3.7-2.8
				c1.5-0.7,3.4-1.1,5.6-1.1s4.1,0.4,5.6,1.1c1.5,0.7,2.7,1.6,3.7,2.8c0.9,1.2,1.6,2.5,2,4c0.4,1.5,0.6,3,0.6,4.6
				c0,1.5-0.2,3-0.7,4.3c-0.5,1.4-1.2,2.6-2.2,3.6c-1,1.1-2.2,1.9-3.7,2.5C227-120.4,225.3-120,223.2-120z"/>
		</g>
		<path class="st2" d="M265.3-71.2c-13.3,4.1-23.7,21.5-25.3,26c3.7,4.1,16.8,17,18.5,19.3c0,0,1.2,1.4,0.9,1.4c1.2,2,1.4,3.7-0.8,4
			c-5.2,0.7-27-22.7-28.1-23.5c-0.9-0.7-1.3-1.7-1.3-2.8c-0.5-0.5-0.9-1-1.3-1.5c0.2,0.3,0.8,0.3,1.5,0.3c1.1-5.3,8.6-12.9,11-15.3
			c11.8-11.8,16.9-12.9,22.7-12.9C268.1-76.2,270-72.6,265.3-71.2z"/>
		<path class="st2" d="M238.1,13.5c-0.7,0.5-3.8-1.1-4.4-1.4c-0.7-0.3-1.2-0.7-1.7-1.1c-0.2-0.1-0.4-0.1-0.6-0.2
			c0.1-0.1,0.1-0.2,0.2-0.2c-2.1-2.5-1.7-6.6-1.9-10.1c-0.6-9.4-1.9-43.8-8.2-50.9c-4.4-5-13.7-16.3-19.3-20.1c-1.2-0.8,1.2,0,1.4,0
			c1.4,0.3,3.3,1.1,4.5,2c6.7,4.5,9.5,4.3,14.4,10.4c3.3-1.6,3.3-1.6,1.9-19.4c0,0.4,6.7,1.3,6.7,2.7c0,13.2,6.2,59.3,7.2,69.1
			C238.7-2.5,241.4,11,238.1,13.5z"/>
		<path class="st3" d="M-467.4,105.1l397.7,159.4l21.9-54l-13.4-5.3l7.6-40.2c0,0,14.2-0.4,15.7-9.5c1.5-9.1-8.8-12-8.8-12L-14,49.8
			l-37.4-6.9l-5.7,98.1c0,0-14.7,1.1-15.7,10.3c-1,9.2,13.3,12.6,13.3,12.6l-7.2,38.7l-76.3-30.5l26.6-77.4c0,0,3.7-2.8,8.7-9.8
			c2.7-3.7,7.7-11,7.7-11l22.2,3.8l42.9-230.4l-371.5-69.3L-449.3,8.6l107.7,19.6c0,0,3.8,8.8,7.3,14.4c3.5,5.6,6.7,10.4,6.7,10.4
			l0.3,44.6l-129.1-51.2L-467.4,105.1z"/>
		<path class="st4" d="M-118.5-103.9c-55.3-72.1-141.8-101.8-201-60.7c-59.2,41.1-60.1,129.5-14.3,208
			c45.6,78.2,143.8,104.7,203,63.6C-71.6,65.9-63.1-31.7-118.5-103.9z"/>
		<path class="st3" d="M-209.8-69.3c-3.9-1.6-7.9-3.1-12.4-4.1c-1.2-0.2-2.4-0.5-3.7-0.7c-0.7-0.2-1.6-0.3-2.5-0.3
			c-0.3-0.1-1,0.1-1.1-0.1c-0.4-0.1-1.1,0.1-1.4-0.1c-0.7-0.1-1.8,0.2-2.3-0.1c-1,0-2.1,0-3.1,0c-0.5,0.3-1.6,0-2.3,0.1
			c-0.2,0.3-1,0-1.4,0.1c-3.7,0.3-6.9,1-9.9,2c-0.3,0.2-0.6,0.3-1,0.3c-0.4,0-0.8,0.2-1,0.3c0,0,0,0.1,0,0.1
			c-1.3,0.3-2.4,0.9-3.6,1.4c-0.9,0.3-1.6,0.9-2.5,1.1c0,0,0,0.1,0,0.1c0,0,0,0.1,0,0.1c-3.3,1.6-6,3.8-8.7,6
			c-0.1,0.4-0.4,0.5-0.7,0.7c0,0,0,0.1,0,0.1c-1,0.5-1.3,1.6-2.3,2.1c-0.3,0.2-0.5,0.6-0.7,0.9c-0.4,0.4-0.6,0.9-1,1.1
			c-0.3,0.3-0.4,0.7-0.8,0.9c-1.8,2.1-3.2,4.7-4.6,7.2c-0.4,0.7-0.8,1.5-1.1,2.3c-0.1,0.3-0.1,0.7-0.3,0.8c-1.4,2.9-2.5,6.1-3.2,9.6
			c-0.3,1.7-0.6,3.4-0.9,5c-0.2,0.5-0.2,1.2-0.2,2c0,1.4-0.2,2.5-0.2,3.9c-0.1,0.5,0.2,1.3-0.1,1.6c0,1,0,2,0,3
			c0.2,1.3,0.2,2.8,0.2,4.2c0.3,0.2,0,0.8,0.1,1.1c0.2,3.4,0.8,6.4,1.6,9.3c0.2,0.5,0.4,1,0.5,1.6c0,0.4,0.1,0.6,0.2,0.8
			c0,0,0.1,0,0.1,0c0,0.8,0.4,1.2,0.5,1.8c0,0.2,0,0.3,0.1,0.3c0.2,0.3,0.3,0.6,0.3,1c0.3,1,0.6,2,1,2.9c0,0,0.1,0,0.1,0
			c0.1,0.7,0.5,1,0.6,1.7c0,0.2,0.1,0.4,0.2,0.5c0,0,0.1,0,0.1,0c0,0.4,0.3,0.6,0.3,1c0,0.1,0,0.2,0.1,0.2c0,0,0.1,0,0.1,0
			c0,0.3,0.2,0.5,0.2,0.8c0,0.2,0,0.3,0.1,0.3c0,0,0.1,0,0.1,0c0.4,1,0.9,1.9,1.4,2.9c0,0.1,0,0.2,0.1,0.2c0,0,0.1,0,0.1,0
			c2.2,4.6,5,8.5,7.9,12.3c0.1,0.1,0.2,0.2,0.2,0.3c0,0,0.1,0,0.1,0c0.4,0.7,1,1.1,1.4,1.8c0.5,0.1,0.4,0.7,0.8,0.9
			c0.5,0.4,0.8,0.9,1.3,1.4c0.3,0.2,0.6,0.5,0.8,0.8c0.5,0.4,0.8,0.9,1.3,1.4c0.7,0.6,1.3,1.3,2,1.9c0.2,0.3,0.5,0.5,0.8,0.7
			c0,0,0.1,0,0.1,0c0.6,0.6,1.3,1.1,1.8,1.7c0.7,0.8,1.7,1.4,2.4,2.2c0.1,0.1,0.3,0.1,0.5,0.1c0,0,0,0.1,0,0.1
			c1,0.7,1.9,1.4,2.9,2.2c0,0.3,0.5,0.2,0.5,0.5c0.1,0,0.2,0,0.2,0c0.7,0.4,1.4,0.9,2.1,1.4c0,0.1,0.1,0.1,0.1,0.2
			c1.9,1.1,3.7,2.3,5.7,3.3c0.4,0.2,0.9,0.3,1.1,0.6c0,0,0,0.1,0,0.1c1,0.4,1.9,0.9,2.9,1.3c0.2,0.2,0.5,0.4,0.9,0.5
			c0.4,0,0.6,0.2,0.8,0.3c0.4,0,0.5,0.3,0.8,0.3c1.2,0.4,2.4,0.7,3.3,1.4c0.4,0,0.7,0,0.9,0.2c0.8,0.2,1.5,0.4,2.1,0.7
			c0,0.2,0.3,0.1,0.5,0.1c0.8,0.2,1.7,0.4,2.4,0.7c1.1,0.2,2,0.6,3.2,0.8c1.1,0.2,2.1,0.4,3.2,0.6c1.1-0.1,1.5,0.4,2.5,0.3
			c0.4,0.1,1-0.1,1.1,0.1c0.4,0.1,1.1-0.1,1.3,0.1c0.7,0.1,1.7-0.2,2.2,0.1c1.3,0,2.6,0,3.9,0c0.4-0.3,1.3,0,2-0.1
			c0.2-0.3,1,0,1.4-0.1c2.5-0.2,4.7-0.6,6.8-1.1c0,0,0-0.1,0-0.1c1.3-0.2,2.2-0.7,3.3-0.9c0-0.1,0.2-0.1,0.3-0.1c0,0,0-0.1,0-0.1
			c0.5,0.1,0.5-0.3,0.9-0.2c0-0.1,0.2-0.1,0.3-0.1c0,0,0-0.1,0-0.1c1.1-0.3,1.9-0.9,3-1.1c6.1-3,10.9-7.2,14.9-12.2
			c0-0.3,0.2-0.4,0.3-0.5c0.1-0.5,0.4-0.7,0.7-1c0.4-0.7,0.9-1.3,1.3-1.9c0.2-0.4,0.4-0.8,0.7-1.1c0.2-0.4,0.4-0.8,0.7-1.1
			c0.1-0.5,0.4-0.8,0.6-1.1c0.3-0.3,0.4-0.7,0.6-1.1c0.1-0.4,0.2-0.8,0.5-1c0.3-0.2,0.2-0.8,0.5-1c0.1-0.3,0.1-0.7,0.3-0.8
			c0.2-0.2,0.3-0.5,0.3-0.8c0-0.4,0.1-0.7,0.3-0.9c0.2,0,0-0.3,0.2-0.3c0.1-0.8,0.5-1.3,0.6-2.1c0.1-0.4,0.1-0.9,0.3-1.1
			c0.2-0.3,0.3-0.8,0.3-1.3c0-0.4,0.1-0.7,0.2-0.9c0.1-0.6,0.2-1.3,0.5-1.8c0.2-0.5,0.3-1.2,0.3-1.8c0-0.5,0-0.9,0.2-1.3
			c0-0.7,0.1-1.4,0.2-1.9c0.1-0.3-0.1-0.8,0.1-0.9c0.1-0.4-0.1-1,0.1-1.1c0.1-0.4-0.1-1.1,0.1-1.3c0.1-0.5-0.1-1.3,0.1-1.6
			c0-0.5,0-0.9,0-1.4c0-1.6,0-3.1,0-4.7c0-1.5-0.2-2.8-0.2-4.4c-0.1-1.8-0.3-3.5-0.7-5c-0.2-0.3-0.2-0.8-0.2-1.3
			c0-0.7-0.1-1.3-0.3-1.8c0,0-0.1,0-0.1,0c0.1-0.4-0.2-0.6-0.1-1c-0.1-0.9-0.3-1.7-0.6-2.4c0,0-0.1,0-0.1,0
			c-0.1-1.2-0.6-2.1-0.8-3.2c0-0.1,0-0.2,0-0.3c0,0-0.1,0-0.1,0c-0.1-0.8-0.5-1.3-0.6-2.1c0,0-0.1,0-0.1,0c0,0-0.1,0-0.1,0
			c0.1-0.5-0.3-0.5-0.2-0.9c-0.2,0-0.1-0.4-0.1-0.6c-0.5-0.3-0.5-1-0.7-1.6c0-0.1,0-0.2,0-0.2c-0.2-0.2-0.1-0.6-0.3-0.8
			c-1.1-2.2-2-4.5-3.1-6.5c-0.1-0.5-0.5-0.7-0.6-1.1c0,0-0.1,0-0.1,0c-0.5-1.6-1.6-2.6-2.2-4.1c0-0.1,0-0.2-0.1-0.2
			c-2.1-3-4.2-6-6.4-8.9c-0.4,0-0.4-0.3-0.6-0.6c-0.6-0.8-1.4-1.5-2-2.3c-0.3-0.1-0.5-0.4-0.7-0.7c-1.2-1.2-2.4-2.4-3.6-3.7
			c-0.1-0.3-0.3-0.3-0.6-0.5c-0.7-0.5-1.3-1.1-2-1.7c-0.8-0.6-1.4-1.3-2.2-1.8c-0.2-0.1-0.3-0.2-0.3-0.3c-0.9-0.6-1.8-1.2-2.5-1.9
			c-2.7-1.6-5.2-3.4-7.9-4.9c-0.5-0.2-1-0.4-1.4-0.7c-0.5-0.3-1-0.6-1.6-0.8C-209.1-69-209.7-68.9-209.8-69.3z"/>
	</g>
</symbol>
<use xlink:href="#oew2018-logo"  width="934.9" height="528.8" x="-467.4" y="-264.4" transform="matrix(0.643 0 0 -0.643 320.143 199.2713)" style="overflow:visible;"/>
</svg>
