<?xml version="1.0" encoding="UTF-8"?>
<svg width="263px" height="74px" viewBox="0 0 263 74" version="1.1" xmlns="http://www.w3.org/2000/svg" xmlns:xlink="http://www.w3.org/1999/xlink">
    <!-- Generator: Sketch 60.1 (88133) - https://sketch.com -->
    <title>oeweek</title>
    <desc>Created with Sketch.</desc>
    <g id="2020" stroke="none" stroke-width="1" fill="none" fill-rule="evenodd">
        <g id="home-after-week" transform="translate(-44.000000, -24.000000)" fill-rule="nonzero">
            <g id="oeweek" transform="translate(43.000000, 24.000000)">
                <rect id="Rectangle" fill="#E5E5E5" x="13.52" y="0" width="72.69" height="72.86" rx="1.36"></rect>
                <path d="M13.35,62.86 L86.35,62.86 L86.35,71.54 C86.35,72.4181328 85.6381328,73.13 84.76,73.13 L14.94,73.13 C14.0618672,73.13 13.35,72.4181328 13.35,71.54 L13.35,62.86 Z" id="Path" fill="#664BDA"></path>
                <g id="Icon-link" transform="translate(0.330000, 3.310000)" fill="#0D6AE5">
                    <g id="Icon">
                        <path d="M50.3706,66.2362 C44.8833,66.2362 39.865,62.6048 36.2336,55.9986 C32.8836,49.9686 31.0679,41.9621 31.0679,33.5201 C31.0679,25.0781 32.9037,17.085 36.2336,11.0349 C39.865,4.4354 44.89,0.7973 50.3706,0.7973 C51.9728333,0.7973 53.2717,2.09616671 53.2717,3.6984 C53.2717,5.30063329 51.9728333,6.5995 50.3706,6.5995 C47.0943,6.5995 43.8783,9.1656 41.3122,13.8288 C38.4446,19.0414 36.85,26.0295 36.85,33.5 C36.85,40.9705 38.4312,47.972 41.2988,53.1846 C43.8649,57.8746 47.0809,60.4206 50.3572,60.4206 C53.6335,60.4206 56.8562,57.8478 59.4223,53.1846 C62.31,47.9921 63.8845,41.004 63.8845,33.5 C63.8331062,32.4314906 64.3738988,31.4214009 65.2916375,30.871756 C66.2093761,30.3221111 67.3551239,30.3221111 68.2728625,30.871756 C69.1906012,31.4214009 69.7313938,32.4314906 69.68,33.5 C69.68,41.942 67.8442,49.9284 64.5143,55.9785 C60.8829,62.6048 55.8646,66.2362 50.3706,66.2362 Z" id="Path"></path>
                        <path d="M8.2745,48.3271 C8.25277766,48.2803104 8.25206437,48.2264725 8.27253949,48.1791238 C8.2930146,48.1317751 8.33273022,48.0954201 8.3817,48.0792 C18.9526254,45.1809169 29.7951752,43.3846776 40.736,42.7192 C43.9587,42.5182 47.2283,42.4244 50.4644,42.4244 C58.7265909,42.4264538 66.9763532,43.0648416 75.1405,44.3339 L78.0081,44.7761 L77.1103,50.5113 L74.2427,50.0624 C66.3751334,48.8454371 58.4255298,48.2361691 50.4644,48.24 C47.3489,48.24 44.1932,48.3405 41.0844,48.5281 C30.9171965,49.153011 20.8375302,50.7891892 10.9947,53.4124 C10.8879123,53.4429033 10.7746918,53.3919541 10.7267,53.2918 L8.2745,48.3271 Z" id="Path"></path>
                        <path d="M0.67,36.5351 C0.647617337,36.492882 0.644331524,36.4431143 0.660969383,36.3983201 C0.677607242,36.3535258 0.712584606,36.3179701 0.7571,36.3006 C2.9279,35.5904 5.1523,34.9204 7.3834,34.2906 L7.3834,34.2906 L8.2879,34.0427 C18.9096547,31.1372703 29.8040375,29.3409995 40.7963,28.6827 C43.8448,28.5085 46.9402,28.4147 50.0155,28.4147 C54.3839,28.4147 58.8193,28.6023 63.2078,28.9574 L63.7572,29.0043 L65.0235,29.1115 L65.1173,29.1115 C67.8777,29.3661 70.7252,29.7145 73.5928,30.1366 L75.3482,30.3845 L75.3482,30.3845 C76.0182,30.485 76.6882,30.5922 77.3582,30.7061 L77.3984,30.7061 L80.467,31.2622 L82.7986,31.6106 C83.0282983,31.6602088 83.1858243,31.8721528 83.1671,32.1064 L82.7651,37.5937 L79.3682,36.9639 C78.3967,36.7763 77.3582,36.5887 76.2527,36.4011 L74.3097,36.18 C73.3985,36.0326 72.4404,35.8919 71.2746,35.7311 C70.2696,35.5904 69.3852,35.4765 68.5946,35.3827 L66.6449,35.1683 C61.155049,34.5765898 55.6376432,34.2769009 50.116,34.2705 C34.3740095,34.272967 18.7257682,36.6930777 3.7185,41.4462 C3.60008599,41.4873605 3.46933119,41.4361956 3.4103,41.3256 L0.67,36.5351 Z" id="Path"></path>
                        <path d="M57.7808,15.745 C57.7883472,15.6877057 57.771683,15.6298573 57.7348124,15.5853583 C57.6979418,15.5408593 57.6441988,15.5137334 57.5865,15.5105 C55.0673,15.3899 52.528,15.3296 50.0222,15.3296 C46.9402,15.3296 43.818,15.4234 40.7561,15.5976 C29.8024826,16.2435824 18.9446661,18.0172951 8.3549,20.8906 C8.3271539,20.8976264 8.30413417,20.9169365 8.29238873,20.9430374 C8.28064329,20.9691384 8.28145759,20.9991738 8.2946,21.0246 L10.8607,26.13 C10.8865512,26.1781326 10.941531,26.2028735 10.9947,26.1903 C20.8443021,23.5928752 30.9287318,21.9858305 41.0978,21.3931 C44.0458,21.2189 47.0474,21.1318 50.0222,21.1318 C51.3622,21.1318 54.806,21.1988 56.6284,21.239 C56.9307325,21.2440934 57.1867627,21.0171576 57.218,20.7164 L57.7808,15.745 Z" id="Path"></path>
                        <path d="M53.0774,66.2898 C39.3270374,67.4507783 26.3159426,59.8980018 20.5049505,47.3819036 C14.6939584,34.8658055 17.3209272,20.0525662 27.0814,10.2979 C37.4595709,-0.0796023843 53.4590692,-2.32150065 66.2898,4.8039 C70.9061825,7.3714354 74.8396116,11.0084788 77.7602,15.41 C77.8605626,15.573371 77.8131091,15.7869116 77.653,15.8924 L73.2042,18.7667 C73.1255672,18.8188947 73.0291232,18.8369549 72.9369325,18.8167487 C72.8447418,18.7965425 72.7646931,18.739799 72.7151,18.6595 C67.6291717,11.0117087 58.9943861,6.4854693 49.8114083,6.65369049 C40.6284305,6.82191168 32.1652132,11.6613661 27.3628,19.4903 C25.8744712,21.8588419 24.7962827,24.461444 24.1736,27.1886 C21.9829113,36.3021754 24.6865275,45.8993265 31.312311,52.5292109 C37.9380944,59.1590953 47.5335709,61.8686493 56.6485,59.6836 C59.3661609,59.0574585 61.9593851,57.979402 64.32,56.4944 C72.3110503,51.600434 77.1832411,42.9040809 77.184,33.5335 L77.184,31.7379 L81.5859,31.5034 L83.0532,31.7178 C83.1289376,31.7305716 83.185069,31.7951227 83.1872011,31.8719 L83.1872011,33.5335 C83.1915527,50.6191928 70.1030075,64.8581553 53.0774,66.2898 Z" id="Path"></path>
                    </g>
                </g>
                <path d="M97.41,19.93 L97.41,19.93 C97.41,15.6497932 100.879793,12.18 105.16,12.18 C109.440207,12.18 112.91,15.6497932 112.91,19.93 L112.91,19.93 C112.91,24.2102068 109.440207,27.68 105.16,27.68 C100.879793,27.68 97.41,24.2102068 97.41,19.93 L97.41,19.93 Z M109.56,19.93 L109.56,19.93 C109.614496,18.7243022 109.174696,17.5485656 108.342284,16.6746275 C107.509873,15.8006895 106.356921,15.3042179 105.15,15.299977 C103.958236,15.2961342 102.816834,15.7802801 101.991299,16.6398191 C101.165764,17.499358 100.728059,18.6593624 100.78,19.85 L100.78,19.85 C100.725678,21.047877 101.160378,22.2164184 101.984378,23.087558 C102.808378,23.9586976 103.950955,24.4576665 105.15,24.47 C106.346871,24.4847509 107.497169,24.0067984 108.331167,23.1482154 C109.165165,22.2896325 109.609507,21.1259375 109.56,19.93 L109.56,19.93 Z" id="Shape" fill="#333333"></path>
                <path d="M115.23,17.47 C115.295714,16.6433362 115.985728,16.005996 116.815,16.005996 C117.644272,16.005996 118.334286,16.6433362 118.4,17.47 L118.4,17.62 C119.172526,16.4582395 120.485121,15.7717673 121.88,15.8 C124.48,15.8 126.96,17.8 126.96,21.57 L126.96,21.62 C126.96,25.35 124.53,27.39 121.88,27.39 C120.520585,27.4177094 119.228879,26.7978387 118.4,25.72 L118.4,29.06 C118.334286,29.8866638 117.644272,30.524004 116.815,30.524004 C115.985728,30.524004 115.295714,29.8866638 115.23,29.06 L115.23,17.47 Z M123.8,21.62 L123.8,21.57 C123.927628,20.5194789 123.438894,19.4893741 122.544489,18.9237579 C121.650083,18.3581417 120.509917,18.3581417 119.615511,18.9237579 C118.721106,19.4893741 118.232372,20.5194789 118.36,21.57 L118.36,21.62 C118.232372,22.6705211 118.721106,23.7006259 119.615511,24.2662421 C120.509917,24.8318583 121.650083,24.8318583 122.544489,24.2662421 C123.438894,23.7006259 123.927628,22.6705211 123.8,21.62 L123.8,21.62 Z" id="Shape" fill="#333333"></path>
                <path d="M134.38,27.43 C132.823691,27.5007581 131.308667,26.9176703 130.20137,25.8217696 C129.094074,24.7258689 128.495345,23.2169576 128.55,21.66 L128.55,21.66 C128.47918,20.1478072 129.028032,18.6721182 130.069802,17.5737298 C131.111572,16.4753415 132.556178,15.8492336 134.07,15.84 C135.50427,15.8153836 136.887043,16.3742951 137.901374,17.3886262 C138.915705,18.4029572 139.474616,19.7857305 139.45,21.22 C139.472577,21.6226238 139.325295,22.0162667 139.043977,22.3051882 C138.762659,22.5941098 138.373083,22.7518341 137.97,22.74 L131.7,22.74 C131.904523,24.0674204 133.089819,25.0182627 134.43,24.93 C135.242336,24.9359099 136.033677,24.6721297 136.68,24.18 C136.897881,24.0060919 137.171516,23.9172494 137.45,23.93 C137.78142,23.9243384 138.100652,24.0548857 138.333138,24.2911519 C138.565624,24.5274181 138.691006,24.8487142 138.68,25.18 C138.680242,25.5388453 138.527468,25.8807698 138.26,26.12 C137.168525,27.0131041 135.789461,27.4787158 134.38,27.43 L134.38,27.43 Z M136.38,20.72 C136.369328,19.4177721 135.322091,18.3616608 134.02,18.34 C132.715862,18.3802781 131.662007,19.416714 131.6,20.72 L136.38,20.72 Z" id="Shape" fill="#333333"></path>
                <path d="M141.66,17.47 C141.725714,16.6433362 142.415728,16.005996 143.245,16.005996 C144.074272,16.005996 144.764286,16.6433362 144.83,17.47 L144.83,17.59 C145.568233,16.4762685 146.813825,15.8046994 148.15,15.8 C150.54,15.8 151.94,17.39 151.94,19.95 L151.94,25.72 C151.874286,26.5466638 151.184272,27.184004 150.355,27.184004 C149.525728,27.184004 148.835714,26.5466638 148.77,25.72 L148.77,21 C148.77,19.5 148.06,18.73 146.86,18.73 C145.66,18.73 144.86,19.5 144.86,21 L144.86,25.77 C144.794286,26.5966638 144.104272,27.234004 143.275,27.234004 C142.445728,27.234004 141.755714,26.5966638 141.69,25.77 L141.66,17.47 Z" id="Path" fill="#333333"></path>
                <path d="M160.81,25.58 L160.81,14.2 C160.807318,13.7721848 160.976081,13.3611147 161.278598,13.0585977 C161.581115,12.7560807 161.992185,12.5873177 162.42,12.5899685 L170.5,12.5899685 C171.281563,12.5950932 171.918456,13.2187177 171.94,14 C171.937357,14.3792625 171.784156,14.7419404 171.514102,15.0082441 C171.244047,15.2745477 170.879262,15.4226615 170.5,15.42 L164,15.42 L164,18.42 L169.56,18.42 C169.942729,18.4173141 170.310561,18.5681653 170.581198,18.8388021 C170.851835,19.1094389 171.002686,19.4772712 171,19.86 C170.997373,20.2383617 170.843851,20.6000285 170.573501,20.8647461 C170.303152,21.1294638 169.938333,21.2753383 169.56,21.27 L164,21.27 L164,24.34 L170.61,24.34 C171.399767,24.34 172.040037,24.9802328 172.040037,25.77 C172.042728,26.1491772 171.892617,26.5134718 171.623553,26.7806551 C171.354488,27.0478383 170.989149,27.1953883 170.61,27.1901426 L162.42,27.1901426 C161.991361,27.1954265 161.578691,27.0275451 161.275573,26.7244272 C160.972455,26.4213093 160.804574,26.0086391 160.81,25.58 L160.81,25.58 Z" id="Path" fill="#333333"></path>
                <path d="M185.26,25.72 C185.194286,26.5466638 184.504272,27.184004 183.675,27.184004 C182.845728,27.184004 182.155714,26.5466638 182.09,25.72 L182.09,25.58 C181.312583,26.7350905 180.002084,27.4167006 178.61,27.39 C176.01,27.39 173.53,25.39 173.53,21.62 L173.53,21.57 C173.53,17.84 175.96,15.8 178.61,15.8 C179.969415,15.7722906 181.261121,16.3921613 182.09,17.47 L182.09,13.47 C182.042597,12.8736794 182.333903,12.301217 182.843872,11.9885239 C183.353841,11.6758307 183.996159,11.6758307 184.506128,11.9885239 C185.016097,12.301217 185.307403,12.8736794 185.26,13.47 L185.26,25.72 Z M176.69,21.57 L176.69,21.62 C176.562372,22.6705211 177.051106,23.7006259 177.945511,24.2662421 C178.839917,24.8318583 179.980083,24.8318583 180.874489,24.2662421 C181.768894,23.7006259 182.257628,22.6705211 182.13,21.62 L182.13,21.57 C182.257628,20.5194789 181.768894,19.4893741 180.874489,18.9237579 C179.980083,18.3581417 178.839917,18.3581417 177.945511,18.9237579 C177.051106,19.4893741 176.562372,20.5194789 176.69,21.57 L176.69,21.57 Z" id="Shape" fill="#333333"></path>
                <path d="M198.03,25.72 C198.03,26.5926099 197.32261,27.3 196.45,27.3 C195.57739,27.3 194.87,26.5926099 194.87,25.72 L194.87,25.6 C194.139669,26.702057 192.911965,27.3720541 191.59,27.39 C189.2,27.39 187.8,25.8 187.8,23.24 L187.8,17.47 C187.865714,16.6433362 188.555728,16.005996 189.385,16.005996 C190.214272,16.005996 190.904286,16.6433362 190.97,17.47 L190.97,22.24 C190.97,23.74 191.68,24.51 192.89,24.51 C194.1,24.51 194.89,23.74 194.89,22.24 L194.89,17.47 C194.89,16.5973901 195.59739,15.89 196.47,15.89 C197.34261,15.89 198.05,16.5973901 198.05,17.47 L198.03,25.72 Z" id="Path" fill="#333333"></path>
                <path d="M200.15,21.66 L200.15,21.66 C200.127951,20.1028093 200.73958,18.6034972 201.844555,17.5060644 C202.949531,16.4086316 204.452997,15.8072861 206.01,15.84 C207.390625,15.7730656 208.747362,16.2181891 209.82,17.09 C210.140569,17.3608228 210.323844,17.7603639 210.32,18.18 C210.317373,18.5583617 210.163851,18.9200285 209.893501,19.1847461 C209.623152,19.4494638 209.258333,19.5953383 208.88,19.59 C208.550111,19.5939608 208.228866,19.4845256 207.97,19.28 C207.412111,18.8075524 206.700907,18.5550749 205.97,18.57 C205.211983,18.6061805 204.499698,18.9431815 203.990998,19.506318 C203.482298,20.0694546 203.219196,20.812218 203.26,21.57 L203.26,21.62 C203.198976,22.4106689 203.468981,23.1911809 204.005531,23.7751291 C204.542081,24.3590773 205.297002,24.694033 206.09,24.7 C206.853115,24.7003853 207.591085,24.4271944 208.17,23.93 C208.418579,23.7444252 208.719804,23.6428491 209.03,23.64 C209.586746,23.6443946 210.082771,23.9926005 210.276071,24.5147312 C210.46937,25.0368619 210.319667,25.6241248 209.9,25.99 C208.816574,26.9916882 207.373291,27.5112701 205.9,27.43 C204.36741,27.4435606 202.893932,26.8393557 201.812067,25.7537283 C200.730203,24.6681009 200.131118,23.1925341 200.15,21.66 L200.15,21.66 Z" id="Path" fill="#333333"></path>
                <path d="M211.69,24 L211.69,24 C211.69,21.56 213.54,20.44 216.19,20.44 C217.119229,20.4303032 218.043043,20.5825801 218.92,20.89 L218.92,20.71 C218.92,19.39 218.11,18.71 216.52,18.71 C215.778452,18.7008732 215.039882,18.8054196 214.33,19.02 C214.185688,19.0722401 214.033475,19.0993004 213.88,19.1 C213.532703,19.1080789 213.196826,18.9757435 212.948376,18.7329404 C212.699927,18.4901373 212.559906,18.1573911 212.56,17.81 C212.56302,17.2610625 212.905462,16.771291 213.42,16.58 C214.559362,16.163472 215.767346,15.9666656 216.98,16 C218.35381,15.891258 219.713301,16.3420176 220.75,17.25 C221.61763,18.2245187 222.054076,19.5086093 221.96,20.81 L221.96,25.89 C221.960035,26.2966183 221.79715,26.6862984 221.507755,26.9719356 C221.218359,27.2575729 220.826583,27.4153502 220.42,27.41 C220.027381,27.4407254 219.639803,27.3058504 219.351079,27.038021 C219.062355,26.7701915 218.8988,26.3938181 218.9,26 L218.9,26 C218.042506,26.9551566 216.802367,27.4761618 215.52,27.42 C213.42,27.39 211.69,26.18 211.69,24 Z M218.96,23.27 L218.96,22.71 C218.330262,22.4309888 217.648776,22.2878767 216.96,22.2899767 C215.6,22.2899767 214.77,22.83 214.77,23.83 L214.77,23.88 C214.77,24.73 215.48,25.23 216.5,25.23 C217.96,25.2 218.96,24.39 218.96,23.24 L218.96,23.27 Z" id="Shape" fill="#333333"></path>
                <path d="M224.9,24 L224.9,18.72 L224.8,18.72 C224.288114,18.7640153 223.795117,18.5158088 223.525615,18.0783928 C223.256113,17.6409768 223.256113,17.0890232 223.525615,16.6516072 C223.795117,16.2141912 224.288114,15.9659847 224.8,16.01 L224.9,16.01 L224.9,14.61 C224.965714,13.7833362 225.655728,13.145996 226.485,13.145996 C227.314272,13.145996 228.004286,13.7833362 228.07,14.61 L228.07,16 L229.46,16 C229.971886,15.9559847 230.464883,16.2041912 230.734385,16.6416072 C231.003887,17.0790232 231.003887,17.6309768 230.734385,18.0683928 C230.464883,18.5058088 229.971886,18.7540153 229.46,18.71 L228.07,18.71 L228.07,23.48 C228.07,24.21 228.38,24.57 229.07,24.57 L229.44,24.57 C230.166749,24.575444 230.754556,25.1632511 230.76,25.89 C230.751661,26.4127643 230.433277,26.8805128 229.95,27.08 C229.368456,27.2977216 228.750829,27.4029219 228.13,27.39 C226.21,27.37 224.9,26.6 224.9,24 Z" id="Path" fill="#333333"></path>
                <path d="M232.78,13.34 C232.937794,12.486569 233.682104,11.8672614 234.55,11.8672614 C235.417896,11.8672614 236.162206,12.486569 236.32,13.34 L236.32,13.39 C236.187993,14.2656492 235.435544,14.9131667 234.55,14.9131667 C233.664456,14.9131667 232.912007,14.2656492 232.78,13.39 L232.78,13.34 Z M232.97,17.47 C232.97,16.5973901 233.67739,15.89 234.55,15.89 C235.42261,15.89 236.13,16.5973901 236.13,17.47 L236.13,25.72 C236.13,26.5926099 235.42261,27.3 234.55,27.3 C233.67739,27.3 232.97,26.5926099 232.97,25.72 L232.97,17.47 Z" id="Shape" fill="#333333"></path>
                <path d="M238.36,21.66 L238.36,21.66 C238.372567,20.0765922 239.024306,18.565421 240.16727,17.469532 C241.310233,16.3736429 242.847463,15.7859993 244.43,15.84 C245.99664,15.7887083 247.517539,16.3726077 248.647358,17.4591168 C249.777177,18.5456259 250.420048,20.0425519 250.43,21.61 L250.43,21.66 C250.298072,24.902977 247.630659,27.4640833 244.385,27.4640833 C241.139341,27.4640833 238.471928,24.902977 238.34,21.66 L238.36,21.66 Z M247.36,21.66 L247.36,21.66 C247.384194,20.8608753 247.088412,20.08515 246.538306,19.5050042 C245.9882,18.9248584 245.229282,18.5882886 244.43,18.57 C243.640566,18.5609348 242.882259,18.877466 242.333549,19.4450974 C241.784839,20.0127287 241.494187,20.7813266 241.53,21.57 L241.53,21.62 C241.508528,22.4191158 241.806882,23.1937524 242.358851,23.7720058 C242.91082,24.3502593 243.67075,24.6843003 244.47,24.7 C245.259023,24.6988055 246.0125,24.3716975 246.552147,23.7960749 C247.091793,23.2204523 247.36966,22.4474601 247.32,21.66 L247.36,21.66 Z" id="Shape" fill="#333333"></path>
                <path d="M252.99,17.47 C253.055714,16.6433362 253.745728,16.005996 254.575,16.005996 C255.404272,16.005996 256.094286,16.6433362 256.16,17.47 L256.16,17.59 C256.888343,16.4908358 258.111594,15.8212275 259.43,15.8 C261.82,15.8 263.22,17.39 263.22,19.95 L263.22,25.72 C263.154286,26.5466638 262.464272,27.184004 261.635,27.184004 C260.805728,27.184004 260.115714,26.5466638 260.05,25.72 L260.05,21 C260.05,19.5 259.34,18.73 258.14,18.73 C256.94,18.73 256.14,19.5 256.14,21 L256.14,25.77 C256.074286,26.5966638 255.384272,27.234004 254.555,27.234004 C253.725728,27.234004 253.035714,26.5966638 252.97,25.77 L252.99,17.47 Z" id="Path" fill="#333333"></path>
                <path d="M97.64,41 C97.5142939,40.6526823 97.4401728,40.2888152 97.42,39.92 C97.4327119,39.1444738 97.7587771,38.4071123 98.3239228,37.8758753 C98.8890685,37.3446383 99.6451705,37.0647627 100.42,37.1 C101.713358,37.0836264 102.862288,37.9229159 103.24,39.16 L108.46,55.28 L113.72,39.28 C114.064418,37.9588076 115.244929,37.02747 116.61,36.999961 L117.07,36.999961 C118.459046,36.9929538 119.671273,37.9403935 120,39.29 L125.25,55.29 L130.48,39.17 C130.847823,37.9431829 131.97924,37.1047952 133.26,37.11 C134.010232,37.0830222 134.73968,37.359521 135.283526,37.8770217 C135.827372,38.3945224 136.139722,39.1093536 136.15,39.86 C136.130583,40.2419305 136.056496,40.6191028 135.93,40.98 L128.56,61.65 C128.192882,63.0141625 126.972249,63.9743935 125.56,64.01 L124.96,64.01 C123.538071,64.0016673 122.30289,63.0299916 121.96,61.65 L116.77,46.58 L111.58,61.65 C111.233971,63.0279599 110.000693,63.9981387 108.58,64.01 L107.98,64.01 C106.567751,63.9743935 105.347118,63.0141625 104.98,61.65 L97.64,41 Z" id="Path" fill="#333333"></path>
                <path d="M142.43993,60.71 L142.43993,40.19 C142.434628,39.4218902 142.737384,38.6836823 143.280533,38.1405334 C143.823682,37.5973844 144.56189,37.2946284 145.33,37.2999297 L159.91,37.2999297 C161.342034,37.3055079 162.500011,38.4679558 162.5,39.9 C162.497381,40.582449 162.222379,41.2356033 161.736071,41.7144012 C161.249762,42.1931992 160.592407,42.4580025 159.91,42.45 L148.15,42.45 L148.15,47.78 L158.15,47.78 C159.579757,47.790946 160.734564,48.9502119 160.74,50.38 C160.734716,51.0616129 160.458869,51.7132073 159.973145,52.1914295 C159.487421,52.6696517 158.831613,52.935325 158.15,52.93 L148.15,52.93 L148.15,58.45 L160.15,58.45 C161.579757,58.460946 162.734564,59.6202119 162.74,61.05 C162.734716,61.7316129 162.458869,62.3832073 161.973145,62.8614295 C161.487421,63.3396517 160.831613,63.605325 160.15,63.6000785 L145.33,63.6000785 C144.56189,63.6053716 143.823682,63.3026156 143.280533,62.7594666 C142.737384,62.2163177 142.434628,61.4781098 142.43993,60.71 Z" id="Path" fill="#333333"></path>
                <path d="M169.49993,60.71 L169.49993,40.19 C169.494628,39.4218902 169.797384,38.6836823 170.340533,38.1405334 C170.883682,37.5973844 171.62189,37.2946284 172.39,37.2999297 L186.97,37.2999297 C188.399757,37.310946 189.554564,38.4702119 189.56,39.9 C189.554716,40.5816129 189.278869,41.2332073 188.793145,41.7114295 C188.307421,42.1896517 187.651613,42.455325 186.97,42.45 L175.25,42.45 L175.25,47.78 L185.25,47.78 C186.679757,47.790946 187.834564,48.9502119 187.84,50.38 C187.834716,51.0616129 187.558869,51.7132073 187.073145,52.1914295 C186.587421,52.6696517 185.931613,52.935325 185.25,52.93 L175.25,52.93 L175.25,58.45 L187.15,58.45 C188.583663,58.4554825 189.744517,59.6163367 189.75,61.05 C189.744729,61.7333627 189.467506,62.3864866 188.979613,62.8649973 C188.491719,63.343508 187.833336,63.6079976 187.15,63.6001762 L172.39,63.6001762 C171.62189,63.6053716 170.883682,63.3026156 170.340533,62.7594666 C169.797384,62.2163177 169.494628,61.4781098 169.49993,60.71 Z" id="Path" fill="#333333"></path>
                <path d="M196.56,40 C196.56,38.4038971 197.853897,37.11 199.45,37.11 C201.046103,37.11 202.34,38.4038971 202.34,40 L202.34,48.8 L213.01,38.2 C213.624717,37.4935399 214.513554,37.0855493 215.45,37.08 C216.167262,37.0521885 216.86411,37.3221417 217.375445,37.8259017 C217.88678,38.3296616 218.167104,39.0224031 218.15,39.74 C218.137043,40.5855834 217.753092,41.3827384 217.1,41.92 L209.7,48.84 L217.74,59 C218.235839,59.5496235 218.516396,60.2598935 218.530095,61 C218.536325,61.7691544 218.225958,62.5070399 217.671762,63.0404301 C217.117566,63.5738202 216.36835,63.855738 215.6,63.82 C214.602034,63.8056819 213.679485,63.2860421 213.15,62.44 L205.64,52.59 L202.33,55.67 L202.33,60.93 C202.33,62.5261029 201.036103,63.82 199.44,63.82 C197.843897,63.82 196.55,62.5261029 196.55,60.93 L196.56,40 Z" id="Path" fill="#333333"></path>
            </g>
        </g>
    </g>
</svg>