<?xml version="1.0" encoding="UTF-8" standalone="no"?>
<svg width="183px" height="50px" viewBox="0 0 183 50" version="1.1" xmlns="http://www.w3.org/2000/svg" xmlns:xlink="http://www.w3.org/1999/xlink" xmlns:sketch="http://www.bohemiancoding.com/sketch/ns">
    <!-- Generator: Sketch 3.4.4 (17249) - http://www.bohemiancoding.com/sketch -->
    <title>oec-logo</title>
    <desc>Created with Sketch.</desc>
    <defs>
        <path id="path-1" d="M0,0.328099174 L182.921571,0.328099174 L182.921571,50 L0,50 L0,0.328099174 Z"></path>
    </defs>
    <g id="Pages" stroke="none" stroke-width="1" fill="none" fill-rule="evenodd" sketch:type="MSPage">
        <g id="Project-Page" sketch:type="MSArtboardGroup" transform="translate(-51.000000, -1587.000000)">
            <g id="oec-logo" sketch:type="MSLayerGroup" transform="translate(51.000000, 1587.000000)">
                <path id="Fill-1" fill="#86B73F" sketch:type="MSShapeGroup" d="M24.6405973,1.69929752 C24.6347878,1.6972314 24.6248286,1.69516529 24.619849,1.6935124 C24.8767129,1.7472314 24.8767129,1.7472314 25.0908354,1.83938017 L25.0032776,1.80590909 C24.8949714,1.76871901 24.8231823,1.74557851 24.6405973,1.69929752"></path>
                <path d="M15.3383048,0.903512397 C15.3254408,0.907644628 15.3075973,0.912190083 15.2943184,0.915909091 C17.2874,0.33161157 17.373298,0.33161157 18.1949306,0.328305785 L18.458019,0.332438017 L18.3912095,0.332438017 C17.8521687,0.357231405 17.0670531,0.442768595 15.3383048,0.903512397 M20.5672912,0.519214876 C20.5116857,0.509710744 20.4369918,0.499793388 20.3801415,0.491115702 C20.6511143,0.535330579 21.0137946,0.58946281 21.2831075,0.641528926 L21.5507605,0.696487603 C22.1437469,0.841942149 22.8172367,1.0072314 24.1530122,1.53491736 C23.6762163,1.35020661 22.2238354,0.791942149 20.5672912,0.519214876" id="Fill-3" fill="#86B73F" sketch:type="MSShapeGroup"></path>
                <path id="Fill-5" fill="#86B73F" sketch:type="MSShapeGroup" d="M12.3278095,1.28524793 C12.3211701,1.28731405 12.3116259,1.29061983 12.3041565,1.2935124 C12.4962857,1.22987603 12.7519048,1.14640496 12.9456939,1.08442149 L12.9643673,1.07987603 C13.212932,1.04516529 13.212932,1.04516529 14.6346054,1.02285124 C14.1312517,1.04681818 12.9519184,1.10012397 12.3278095,1.28524793"></path>
                <path d="M28.1224524,3.57756198 C28.6872211,4.00855372 29.9732007,5.05772727 29.9827449,5.06599174 C28.7162687,3.97508264 28.6668878,3.93210744 27.7888197,3.33252066 L27.7398537,3.30028926 C27.8062483,3.34533058 27.9054252,3.41309917 28.1224524,3.57756198" id="Fill-7" fill="#86B73F" sketch:type="MSShapeGroup"></path>
                <path d="M24.3674667,1.63330579 L24.3674667,1.63330579 C24.4172626,1.6514876 24.4678884,1.67049587 24.5185143,1.6907438 C24.4662286,1.67628099 24.4172626,1.65231405 24.3674667,1.63330579 M24.7023442,1.77008264 C24.6517184,1.74818182 24.5840789,1.72132231 24.534698,1.70107438 C25.8600993,2.20024793 29.1852218,3.69322314 31.7393374,7.05272727 C34.0589973,10.1064463 35.111766,12.9221488 35.4765211,16.411405 C35.0416367,12.2498347 33.1688952,10.3349587 31.6372558,9.95892562 C30.572868,9.6977686 29.5956231,10.0738017 28.2635823,10.322562 C33.6452762,8.29157025 28.5897456,3.66553719 25.4820653,2.12876033 C25.4181605,2.09735537 25.0853578,1.93413223 24.7023442,1.77008264" id="Fill-9" fill="#1D5DA2" sketch:type="MSShapeGroup"></path>
                <path d="M19.0653218,1.14863636 C19.4483354,1.69739669 21.4945327,1.96103306 21.6410156,1.48045455 C21.7202741,1.21764463 21.0235463,0.839132231 20.0031449,0.745743802 C19.1292265,0.694504132 18.904315,0.918471074 19.0653218,1.14863636" id="Fill-11" fill="#86B73F" sketch:type="MSShapeGroup"></path>
                <path d="M14.8176054,1.04355372 L14.8176054,1.04355372 C14.8607619,1.03859504 14.9022585,1.03570248 14.945,1.0307438 C14.9068231,1.04066116 14.9068231,1.04066116 14.8176054,1.04355372 M15.0869184,1.03570248 C15.0441769,1.03570248 14.9860816,1.03735537 14.9429252,1.03859504 C15.591517,0.969173554 18.9286735,0.723305785 20.9321293,2.59809917 C21.6985714,0.923305785 24.3244762,1.63322314 24.6211769,1.72041322 C22.850517,1.31752066 21.9753537,2.68198347 23.4526327,5.11173554 C24.5722109,6.9522314 27.743381,9.83818182 28.2633333,10.3224793 C23.131034,6.31876033 21.9434014,5.11173554 21.4039456,4.44190083 C21.0956259,5.07123967 20.0245986,6.52991736 14.9719728,9.41917355 C20.4441293,5.74975207 20.5412313,2.07123967 16.7364082,1.20760331 C16.5027823,1.15512397 15.8749388,1.03322314 15.0869184,1.03570248" id="Fill-13" fill="#86B73F" sketch:type="MSShapeGroup"></path>
                <path d="M8.66158503,3.41673554 C8.5204966,3.62169421 8.59311565,3.72210744 8.85620408,3.6857438 C9.66414286,3.57045455 11.297449,2.38946281 10.9634014,2.16301653 C10.8322721,2.07210744 10.4297551,2.23946281 10.2778776,2.30227273 C9.47367347,2.66260331 8.85620408,3.13533058 8.66158503,3.41673554" id="Fill-15" fill="#1D5DA2" sketch:type="MSShapeGroup"></path>
                <path d="M6.58513673,4.58297521 L6.6440619,4.53297521 L6.65070136,4.52760331 C6.72332041,4.46892562 8.42883061,3.10818182 8.90396667,4.5453719 C10.7206878,2.18049587 13.8258782,1.27966942 15.0757558,1.00239669 C11.0061844,2.11644628 7.91344286,5.59702479 11.9830143,8.12099174 C12.681402,8.55404959 14.036681,9.2131405 14.8504293,9.46231405 C9.66584422,8.31272727 8.75665374,7.05487603 8.46368776,6.53710744 C7.09969456,9.10404959 5.0593068,11.7738843 3.56501429,14.2507438 C6.15315714,9.18132231 6.59717075,8.35404959 6.97147007,7.19909091 C7.98896667,4.05239669 6.85403469,4.42264463 6.84200068,4.42595041 C6.7295449,4.46644628 6.62040884,4.55487603 6.58513673,4.58297521" id="Fill-17" fill="#1D5DA2" sketch:type="MSShapeGroup"></path>
                <path d="M0.754532653,22.9261983 C-0.528542177,17.6241322 0.551614286,14.4410744 1.10185918,12.5621488 C0.991893197,13.2840496 0.747063265,14.627438 3.26632177,14.2985124 C-0.525222449,13.9059504 2.70487279,9.0468595 3.78585918,7.56710744 L3.6916619,7.69272727 C2.83102245,8.94975207 2.57249864,9.32950413 1.73800204,10.997686 C1.09272993,12.5402479 1.08733537,12.9534711 0.636267347,14.6505785 C0.220056463,16.438595 0.491859184,20.9456198 0.754532653,22.9261983 C0.754532653,22.9261983 0.48397483,20.431157 0.480655102,20.3753719" id="Fill-19" fill="#86B73F" sketch:type="MSShapeGroup"></path>
                <path d="M31.9304707,13.6155785 C31.9769469,15.0453306 32.9795048,16.377562 33.5554776,15.7726033 C34.062151,15.2411983 33.8015524,13.4370661 32.9139401,12.6428512 C32.1968789,12.1226033 31.9072327,12.8994628 31.9304707,13.6155785" id="Fill-21" fill="#1D5DA2" sketch:type="MSShapeGroup"></path>
                <path d="M28.3080252,10.3914876 C28.2565694,10.3456198 28.3756646,10.3914876 28.3080252,10.3914876 C28.6151,10.3914876 32.2580864,12.6336364 32.4676442,17.6216529 C34.0424401,14.8447934 35.1956306,15.9943802 35.4749027,16.4836364 C35.4728279,16.4803306 35.4782224,16.4869421 35.4749027,16.4836364 C35.3724061,16.3964463 34.6316918,15.8282645 33.2768279,19.081157 C32.9070932,19.9679339 32.8099912,20.3063636 30.8426374,28.2877686 C31.2090524,25.8666942 31.3198483,23.0733058 31.5933109,20.6447934 C31.0468007,21.3464463 29.8629027,22.8018182 25.9331748,24.1559504 C33.7054878,20.2067769 31.4152905,13.1381818 28.3528415,10.4009917" id="Fill-23" fill="#1D5DA2" sketch:type="MSShapeGroup"></path>
                <path d="M20.484049,10.5452479 C20.7205796,12.0179752 22.6717497,12.6340909 23.4680694,11.4886364 C24.1054571,10.5704545 23.4643347,9.075 22.0202531,8.89442149 C20.7716204,8.86136364 20.3703483,9.83946281 20.484049,10.5452479" id="Fill-25" fill="#86B73F" sketch:type="MSShapeGroup"></path>
                <path d="M14.8512177,9.46214876 L14.8503878,9.46214876 C14.9105578,9.46338843 14.9719728,9.46752066 15.0325578,9.47330579 C15.0221837,9.47661157 15.0113946,9.4807438 15.0006054,9.48570248 C14.9972857,9.48694215 14.9927211,9.48983471 14.9885714,9.48983471 C14.9636735,9.48859504 14.9420952,9.47950413 14.9176122,9.47371901 C14.895619,9.47 14.8732109,9.46545455 14.8512177,9.46214876 M15.2458503,9.5522314 C15.1823605,9.53528926 15.0985374,9.51586777 15.0346327,9.50057851 C15.0869184,9.49933884 20.3835442,9.60595041 22.1326259,14.0919008 C23.7974694,10.0580165 28.1239048,10.3770248 28.3081497,10.3914876 C25.5370068,10.747686 21.2790408,14.9096694 25.8656599,24.1142149 C24.6249116,22.3398347 22.7297619,19.4968595 22.0504626,17.3840496 C21.6632993,18.266281 20.7495442,20.1216529 16.9970068,23.458843 C23.2426599,16.1580165 19.7220884,10.7592562 15.2458503,9.5522314" id="Fill-27" fill="#86B73F" sketch:type="MSShapeGroup"></path>
                <path d="M7.33522925,13.4126033 C7.65765782,14.6580579 9.15319524,14.6014463 9.87482109,13.3150826 C10.5947871,12.0328512 9.84286871,10.6299587 8.63656259,11.0055785 C8.59257619,11.0200413 8.53240612,11.0440083 8.48924966,11.0609504 C7.40950816,11.5911157 7.16467823,12.7559917 7.33522925,13.4126033" id="Fill-29" fill="#1D5DA2" sketch:type="MSShapeGroup"></path>
                <path d="M3.6978034,14.3901653 C3.65796667,14.3926446 3.60485102,14.3996694 3.56501429,14.4046281 C3.59489184,14.3860331 6.93370816,12.7992562 9.3280619,16.1645455 C9.82602109,11.6149587 14.023402,9.80421488 14.9176537,9.47363636 C10.0451231,12.1368595 9.14132721,19.2310744 16.8970415,23.4885124 C15.6052524,22.9938843 11.9900687,21.474876 10.2277082,19.3000826 C10.2144293,20.2732231 9.99491224,20.6608264 8.90396667,26.8926446 C9.34175578,15.5447107 5.47468776,14.2521488 3.6978034,14.3901653" id="Fill-31" fill="#1D5DA2" sketch:type="MSShapeGroup"></path>
                <path d="M0.431979592,20.938595 C0.580952381,21.497686 0.827442177,21.6563636 1.01791156,21.3195868 C1.44283673,20.5666942 1.20796599,18.2584298 0.718306122,18.3803306 C0.614979592,18.4055372 0.546095238,18.5452066 0.504183673,18.6286777 C0.220761905,19.3472727 0.292136054,20.4117355 0.431979592,20.938595" id="Fill-33" fill="#86B73F" sketch:type="MSShapeGroup"></path>
                <path d="M6.5952619,31.5054132 C5.64664966,30.0496281 5.65577891,30.369876 3.05145238,25.5777273 C3.4440102,26.3008678 5.31343197,26.8756612 8.90413265,26.9847521 C1.38411905,25.6103719 1.21190816,18.0868182 3.42948639,14.4285537 C3.13610544,14.7835124 0.309357143,21.0182231 1.58579252,23.2992149 C0.928901361,22.1227686 0.638840136,21.6979752 0.637180272,21.7116116 C0.626806122,21.7888843 0.813955782,24.2202893 1.85303061,26.3277273 C3.22034354,29.1037603 5.78109864,30.9136777 6.5952619,31.5054132" id="Fill-35" fill="#86B73F" sketch:type="MSShapeGroup"></path>
                <path d="M8.65025646,32.3585124 C9.0328551,32.687438 9.25320204,32.6940496 9.17394354,32.3754545 C8.99550816,31.6642975 7.61948095,30.1440496 7.41946735,30.4378512 C7.37672585,30.5006612 7.41407279,30.6283471 7.43814082,30.7039669 C7.67342653,31.3316529 8.28840612,32.0477686 8.65025646,32.3585124" id="Fill-37" fill="#86B73F" sketch:type="MSShapeGroup"></path>
                <path d="M18.4919218,36.2304545 C17.2383095,36.1230165 15.3763571,36.2754959 13.3521531,34.8304545 C13.9160918,35.2337603 16.8814388,35.9709504 18.8853095,34.5130992 C14.0692143,36.7639256 9.68385374,30.5031818 8.90413265,26.9845868 C8.93732993,27.3593802 8.16715306,31.0180579 11.3242143,33.8577273 C9.35354082,33.0969835 7.31439796,32.6378926 7.32352721,32.6457438 C7.58744558,32.8589669 7.38494218,32.6804545 7.43266327,32.7329339 L7.76339116,33.0002893 C8.06009184,33.2453306 10.1652143,34.7994628 12.1371327,35.377562 C14.8576497,36.1763223 17.756602,36.3651653 18.4919218,36.2304545" id="Fill-39" fill="#86B73F" sketch:type="MSShapeGroup"></path>
                <path d="M19.9495728,36.0190083 C21.0786952,35.857438 22.7377293,35.6524793 24.8129741,34.4169421 C24.2332667,34.7607438 21.0135456,35.5702479 19.5312871,34.5809917 C23.3419197,35.996281 29.4543687,31.1590909 30.8403551,28.4144628 C30.7374435,28.7016529 30.1486068,31.1623967 26.7977565,33.5429752 C28.6900014,32.8330579 30.329117,30.9454545 30.3199878,31.1123967 C30.3129333,31.2384298 30.3718585,31.0702479 30.3199878,31.1123967 C30.0809673,31.4789256 28.3082327,33.353719 25.7258993,34.5834711 C23.0896204,35.8396694 20.5716068,36.0764463 19.9495728,36.0190083" id="Fill-41" fill="#86B73F" sketch:type="MSShapeGroup"></path>
                <path d="M30.8403966,30.5401653 C31.8064374,29.5719835 32.2977571,29.1033884 33.9999476,25.41 C33.7459884,25.9616529 32.7152129,27.3794215 30.8428864,28.287686 C34.373002,26.574876 35.9544374,19.337686 35.4751517,16.4835537 C35.5295122,16.8042149 36.2723014,20.7257025 34.1368864,25.6054545 C33.2729272,27.5798347 31.5006075,30.1695041 30.8403966,30.5401653" id="Fill-43" fill="#86B73F" sketch:type="MSShapeGroup"></path>
                <path d="M27.4639429,26.7773554 C26.986732,27.5806612 26.7290381,28.6442975 27.5153986,28.4657851 C28.5528136,28.2277686 29.8022762,26.3624793 29.1292014,25.6893388 C28.5901605,25.3409917 27.8382422,26.1492562 27.4639429,26.7773554" id="Fill-45" fill="#1D5DA2" sketch:type="MSShapeGroup"></path>
                <path d="M25.9369925,24.267562 C25.9141694,24.2274793 25.9369925,24.267562 25.9125095,24.2274793 C25.9403122,24.247314 28.2873599,26.3055785 25.7618769,29.9258264 C28.7292986,27.5997934 30.2202714,27.9745868 30.8427204,28.406405 C30.8427204,28.4092975 30.8414755,28.4126033 30.8402306,28.4142562 C29.2430265,28.0547521 26.7212782,29.9989669 25.0535299,31.2878099 C23.076217,32.8130165 21.3690469,34.128719 19.2564551,34.6518595 C19.3340537,34.6316116 19.4369653,34.6035124 19.514149,34.5807851 C21.0101014,34.0956612 21.9130673,33.4216942 23.369598,32.0927686 C22.0134891,32.9704545 20.551149,33.6663223 19.2564551,34.6518595 L19.3332238,34.5911157 C20.5698224,33.632438 21.9126524,32.8299587 23.1019449,31.8039256 C24.3804551,30.7018595 24.9717816,29.8679752 25.1676456,29.5597107 C26.6963803,27.1497934 26.4955367,25.2886364 25.9369925,24.267562" id="Fill-47" fill="#1D5DA2" sketch:type="MSShapeGroup"></path>
                <path d="M20.4200197,24.8873967 C20.4225095,25.9407025 21.0665367,26.8886364 21.8524823,26.067562 C22.661666,25.2283058 22.8417612,23.2989669 21.649149,23.1150826 C20.8482646,23.1171488 20.4179449,24.0311983 20.4200197,24.8873967" id="Fill-49" fill="#86B73F" sketch:type="MSShapeGroup"></path>
                <path d="M17.0419476,23.5764876 C16.9971313,23.5541736 17.0419476,23.5764876 16.9971313,23.555 C17.0344782,23.5591322 20.6957231,24.0715289 20.8828728,28.2595455 C22.3576619,24.5740083 25.2931313,24.2504545 25.8657844,24.2219421 C22.552281,25.1872314 21.3156823,29.4351653 20.8496755,31.0347521 C20.3903082,32.6116116 20.0591653,33.7488017 19.2566211,34.6516942 C19.2931381,34.6062397 19.3437639,34.5442562 19.3827707,34.4996281 C20.0579204,33.547562 20.1417435,32.7128512 20.3081449,31.0479752 C19.2001857,33.9252479 19.2001857,33.9252479 19.2566211,34.6516942 C19.2537163,34.6306198 19.2491517,34.6025207 19.2470769,34.5806198 C19.0636619,32.2281405 20.3670701,30.0252479 19.8836347,27.6434298 C19.5002061,25.7554132 18.5453694,24.2971488 17.0419476,23.5764876" id="Fill-51" fill="#86B73F" sketch:type="MSShapeGroup"></path>
                <path d="M12.3278095,26.652686 C12.9303401,27.5407025 14.0345646,28.0679752 14.2051156,27.017562 C14.3794014,25.956405 13.4262245,24.2440083 12.358517,24.6030992 C11.7045306,24.9510331 11.8306803,25.9183884 12.3278095,26.652686" id="Fill-53" fill="#1D5DA2" sketch:type="MSShapeGroup"></path>
                <path d="M9.31320612,26.9621901 C9.27004966,26.960124 9.02770952,26.9873967 8.9841381,26.9849174 C9.01028095,26.9741736 11.8532129,26.0039256 14.8359884,29.2390496 C13.4861041,25.5646694 16.3983354,23.8592975 16.9971313,23.5547521 C16.3593286,24.0737603 14.9397299,25.5803719 15.5036687,28.3506198 C16.0273558,30.9233471 18.221281,32.4126033 19.2566211,34.6518595 C19.2317231,34.6059917 19.2001857,34.5452479 19.1773626,34.5010331 C18.9445667,34.1208678 18.9445667,34.1208678 16.5157707,31.6617769 C17.3278592,33.0088843 17.915451,33.9836777 19.2566211,34.6518595 L19.1636687,34.6097107 C15.4194306,32.7076446 14.1500497,27.3316116 9.31320612,26.9621901" id="Fill-55" fill="#1D5DA2" sketch:type="MSShapeGroup"></path>
                <path id="Fill-57" fill="#86B73F" sketch:type="MSShapeGroup"></path>
                <path d="M3.30794286,8.98355372 C2.97597007,9.34966942 2.77927619,9.49429752 2.76682721,9.3814876 C2.71495646,8.90008264 4.47192245,6.65008264 4.6835551,6.9261157 C4.71799728,6.9707438 4.67193605,7.08520661 4.6433034,7.15504132 C4.34701769,7.7777686 3.51459592,8.75586777 3.30794286,8.98355372" id="Fill-59" fill="#86B73F" sketch:type="MSShapeGroup"></path>
                <path d="M4.1516517,10.3844215 C3.08352925,9.96665289 1.58052245,10.3583884 0.489161905,14.6042562 C0.965957823,12.892686 1.05185578,12.583595 1.73820952,10.9976446 C2.47477415,9.54309917 2.65113469,9.1972314 3.69186939,7.69268595 L3.7856517,7.56706612 C4.65127075,6.42119835 5.5973932,5.41995868 6.67962449,4.5042562 C3.94707347,6.82285124 2.5034068,9.53731405 1.96187619,10.5596281 C2.33825034,9.95921488 2.90799864,9.04805785 4.17032517,10.3930992 C4.16534558,10.3914463 4.15663129,10.3877273 4.1516517,10.3844215" id="Fill-61" fill="#86B73F" sketch:type="MSShapeGroup"></path>
                <path d="M45.1534864,11.4090083 C45.1534864,12.7338017 45.5999898,13.8234711 46.4934116,14.6771901 C47.3801939,15.5313223 48.4068197,15.958595 49.5683095,15.958595 C50.8293912,15.958595 51.8941939,15.5230579 52.7610578,14.6540496 C53.6270918,13.7742975 54.0615612,12.7028099 54.0615612,11.4404132 C54.0615612,10.1619008 53.6329014,9.09082645 52.7768265,8.22636364 C51.9249014,7.35694215 50.8708878,6.92264463 49.6152007,6.92264463 C48.3636633,6.92264463 47.3084048,7.35694215 46.4461054,8.22636364 C45.5838061,9.08586777 45.1534864,10.1466116 45.1534864,11.4090083 M43.3234864,11.3895868 C43.3234864,9.70115702 43.9438605,8.2507438 45.1841939,7.03917355 C46.4199626,5.82677686 47.9051259,5.22057851 49.6388537,5.22057851 C51.3514184,5.22057851 52.8208129,5.83214876 54.0462075,7.05446281 C55.2757517,8.27719008 55.8915612,9.7453719 55.8915612,11.4598347 C55.8915612,13.1846281 55.2732619,14.647438 54.0387381,15.8495041 C52.7971599,17.0561157 51.2995476,17.6598347 49.5454864,17.6598347 C47.9935136,17.6598347 46.5988129,17.1234711 45.3634592,16.0515702 C44.0036156,14.8656198 43.3234864,13.3110744 43.3234864,11.3895868" id="Fill-63" fill="#3A5F76" sketch:type="MSShapeGroup"></path>
                <path d="M59.6679592,10.892686 L60.3455986,10.892686 C62.012102,10.892686 62.8453537,10.2530165 62.8453537,8.97409091 C62.8453537,7.73566116 61.9863741,7.11665289 60.267585,7.11665289 L59.6679592,7.11665289 L59.6679592,10.892686 Z M59.6679592,12.5707851 L59.6679592,17.4418595 L57.8545578,17.4418595 L57.8545578,5.44681818 L59.9086395,5.44681818 C60.9165918,5.44681818 61.6776395,5.51665289 62.1909524,5.65632231 C62.7100748,5.79599174 63.1665374,6.06004132 63.5611701,6.44847107 C64.2512585,7.12161157 64.5969252,7.97119835 64.5969252,8.99681818 C64.5969252,10.0951653 64.2280204,10.965 63.4906259,11.607562 C62.7540612,12.2497107 61.7598027,12.5707851 60.5095102,12.5707851 L59.6679592,12.5707851 Z" id="Fill-65" fill="#3A5F76" sketch:type="MSShapeGroup"></path>
                <path d="M72.7811333,7.14805785 L67.9613034,7.14805785 L67.9613034,10.0302893 L72.6400449,10.0302893 L72.6400449,11.7315289 L67.9613034,11.7315289 L67.9613034,15.7406198 L72.7811333,15.7406198 L72.7811333,17.4418595 L66.1466571,17.4418595 L66.1466571,5.44681818 L72.7811333,5.44681818 L72.7811333,7.14805785 Z" id="Fill-67" fill="#3A5F76" sketch:type="MSShapeGroup"></path>
                <path d="M74.8438048,17.4416942 L74.8438048,4.63095041 L83.6116211,13.7826033 L83.6116211,5.44665289 L85.4262673,5.44665289 L85.4262673,18.1722727 L76.658451,9.04334711 L76.658451,17.4416942 L74.8438048,17.4416942 Z" id="Fill-69" fill="#3A5F76" sketch:type="MSShapeGroup"></path>
                <path d="M99.2242599,7.14805785 L94.4052599,7.14805785 L94.4052599,10.0302893 L99.0844163,10.0302893 L99.0844163,11.7315289 L94.4052599,11.7315289 L94.4052599,15.7406198 L99.2242599,15.7406198 L99.2242599,17.4418595 L92.5910286,17.4418595 L92.5910286,5.44681818 L99.2242599,5.44681818 L99.2242599,7.14805785 Z" id="Fill-71" fill="#3A5F76" sketch:type="MSShapeGroup"></path>
                <path d="M103.101993,15.7405785 L103.92072,15.7405785 C104.734884,15.7405785 105.412108,15.6550413 105.952394,15.4839669 C106.492265,15.3029752 106.98068,15.0153719 107.416809,14.6215702 C108.309401,13.8083471 108.755904,12.7492562 108.755904,11.4442975 C108.755904,10.128595 108.314795,9.06165289 107.432578,8.24347107 C106.637918,7.51289256 105.466884,7.14801653 103.92072,7.14801653 L103.101993,7.14801653 L103.101993,15.7405785 Z M101.288591,17.4418182 L101.288591,5.44677686 L103.811584,5.44677686 C105.019965,5.44677686 105.976047,5.5653719 106.67651,5.80380165 C107.429258,6.0368595 108.111462,6.43272727 108.724367,6.99305785 C109.96553,8.12157025 110.585489,9.60545455 110.585489,11.4442975 C110.585489,13.2880992 109.939387,14.7794215 108.646768,15.9190909 C107.997761,16.4889256 107.318462,16.8856198 106.606795,17.1075207 C105.94202,17.3306612 104.999217,17.4418182 103.780462,17.4418182 L101.288591,17.4418182 Z" id="Fill-73" fill="#3A5F76" sketch:type="MSShapeGroup"></path>
                <path d="M114.362012,5.44673554 L114.362012,12.666157 C114.362012,13.6959091 114.530488,14.4496281 114.86827,14.9256612 C115.371624,15.6136777 116.079971,15.958719 116.993726,15.958719 C117.912876,15.958719 118.624127,15.6136777 119.127481,14.9256612 C119.464433,14.4645041 119.633324,13.7116116 119.633324,12.666157 L119.633324,5.44673554 L121.447556,5.44673554 L121.447556,13.1686364 C121.447556,14.432686 121.052923,15.473595 120.264073,16.2921901 C119.376046,17.2037603 118.28593,17.6599587 116.993726,17.6599587 C115.701522,17.6599587 114.613066,17.2037603 113.731263,16.2921901 C112.942413,15.473595 112.54778,14.432686 112.54778,13.1686364 L112.54778,5.44673554 L114.362012,5.44673554 Z" id="Fill-75" fill="#3A5F76" sketch:type="MSShapeGroup"></path>
                <path d="M132.895264,6.08735537 L132.895264,8.22785124 C131.846645,7.3522314 130.761094,6.91504132 129.639441,6.91504132 C128.404087,6.91504132 127.362107,7.35760331 126.517237,8.2431405 C125.666141,9.12371901 125.240386,10.2009917 125.240386,11.4749587 C125.240386,12.7340496 125.666141,13.7960331 126.517237,14.6609091 C127.368747,15.5253719 128.411556,15.9584298 129.64691,15.9584298 C130.285543,15.9584298 130.828733,15.8542975 131.274822,15.6472727 C131.523801,15.5439669 131.78191,15.4038843 132.049148,15.2278512 C132.317216,15.0518182 132.598148,14.8394215 132.895264,14.5906612 L132.895264,16.777438 C131.856189,17.3654545 130.766073,17.6596694 129.624087,17.6596694 C127.906128,17.6596694 126.438393,17.0609091 125.225033,15.8646281 C124.014992,14.6580165 123.410386,13.2026446 123.410386,11.4985124 C123.410386,9.97082645 123.915815,8.60842975 124.929992,7.41214876 C126.17406,5.94603306 127.785788,5.21297521 129.764761,5.21297521 C130.844087,5.21297521 131.887312,5.50471074 132.895264,6.08735537" id="Fill-77" fill="#3A5F76" sketch:type="MSShapeGroup"></path>
                <path d="M141.474603,12.8270661 L139.692739,8.7481405 L137.824147,12.8270661 L141.474603,12.8270661 Z M142.214902,14.5283058 L137.067664,14.5283058 L135.729399,17.4415289 L133.774909,17.4415289 L139.723031,4.6927686 L145.462426,17.4415289 L143.477229,17.4415289 L142.214902,14.5283058 Z" id="Fill-79" fill="#3A5F76" sketch:type="MSShapeGroup"></path>
                <path d="M149.294512,7.14805785 L149.294512,17.4418595 L147.479036,17.4418595 L147.479036,7.14805785 L144.715363,7.14805785 L144.715363,5.44681818 L152.050301,5.44681818 L152.050301,7.14805785 L149.294512,7.14805785 Z" id="Fill-81" fill="#3A5F76" sketch:type="MSShapeGroup"></path>
                <mask id="mask-2" sketch:name="Clip 84" fill="white">
                    <use xlink:href="#path-1"></use>
                </mask>
                <g id="Clip-84"></g>
                <path d="M155.164497,17.4417355 L153.351095,17.4417355 L153.351095,5.44669421 L155.164497,5.44669421 L155.164497,17.4417355 Z" id="Fill-83" fill="#3A5F76" sketch:type="MSShapeGroup" mask="url(#mask-2)"></path>
                <path d="M158.963967,11.4090083 C158.963967,12.7338017 159.411715,13.8234711 160.303892,14.6771901 C161.191919,15.5313223 162.216885,15.958595 163.38045,15.958595 C164.641116,15.958595 165.705089,15.5230579 166.571538,14.6540496 C167.439232,13.7742975 167.872871,12.7028099 167.872871,11.4404132 C167.872871,10.1619008 167.444212,9.09082645 166.586892,8.22636364 C165.735797,7.35694215 164.682198,6.92264463 163.426511,6.92264463 C162.175388,6.92264463 161.1193,7.35694215 160.257001,8.22636364 C159.395531,9.08586777 158.963967,10.1466116 158.963967,11.4090083 M157.134797,11.3895868 C157.134797,9.70115702 157.755586,8.2507438 158.996334,7.03917355 C160.230443,5.82677686 161.716436,5.22057851 163.450164,5.22057851 C165.163144,5.22057851 166.631708,5.83214876 167.857103,7.05446281 C169.087477,8.27719008 169.702041,9.7453719 169.702041,11.4598347 C169.702041,13.1846281 169.084157,14.647438 167.848803,15.8495041 C166.608885,17.0561157 165.110858,17.6598347 163.356382,17.6598347 C161.804409,17.6598347 160.409708,17.1234711 159.174769,16.0515702 C157.815341,14.8656198 157.134797,13.3110744 157.134797,11.3895868" id="Fill-85" fill="#3A5F76" sketch:type="MSShapeGroup" mask="url(#mask-2)"></path>
                <path d="M171.664997,17.4416942 L171.664997,4.63095041 L180.432398,13.7826033 L180.432398,5.44665289 L182.246214,5.44665289 L182.246214,18.1722727 L173.479228,9.04334711 L173.479228,17.4416942 L171.664997,17.4416942 Z" id="Fill-86" fill="#3A5F76" sketch:type="MSShapeGroup" mask="url(#mask-2)"></path>
                <path d="M50.9013878,21.4881818 L50.9013878,23.1344628 C50.0938639,22.4609091 49.2601973,22.1249587 48.3983129,22.1249587 C47.4472109,22.1249587 46.6467415,22.4650413 45.9964898,23.1464463 C45.3416735,23.8233058 45.0146803,24.6522314 45.0146803,25.6319835 C45.0146803,26.6001653 45.3416735,27.416281 45.9964898,28.0819835 C46.6504762,28.747686 47.4530204,29.0799174 48.4041224,29.0799174 C48.8946122,29.0799174 49.3116531,29.0001653 49.6556599,28.8402479 C49.8461293,28.7613223 50.0453129,28.6534711 50.251551,28.5183471 C50.4565442,28.3832231 50.6727415,28.22 50.9013878,28.0282645 L50.9013878,29.7104959 C50.1021633,30.162562 49.2643469,30.388595 48.3858639,30.388595 C47.0650272,30.388595 45.9354898,29.9278512 45.0030612,29.008843 C44.0714626,28.0799174 43.6062857,26.9613223 43.6062857,25.6501653 C43.6062857,24.4749587 43.9955238,23.4278512 44.774,22.5067769 C45.7325714,21.3799174 46.9720748,20.8158678 48.4937551,20.8158678 C49.324102,20.8158678 50.1262313,21.0402479 50.9013878,21.4881818" id="Fill-87" fill="#3A5F76" sketch:type="MSShapeGroup" mask="url(#mask-2)"></path>
                <path d="M59.6809061,25.5810744 C59.6809061,26.6000826 60.024083,27.4380992 60.7100218,28.0947107 C61.3938857,28.7517355 62.1814912,29.0798347 63.0765728,29.0798347 C64.0467633,29.0798347 64.8650762,28.745124 65.5315116,28.0773554 C66.1983619,27.4004959 66.5315796,26.5765289 66.5315796,25.6054545 C66.5315796,24.6219835 66.2025116,23.7984298 65.5439605,23.1335537 C64.8887293,22.4649587 64.0774707,22.1310744 63.1130898,22.1310744 C62.1491238,22.1310744 61.3370354,22.4649587 60.6751646,23.1335537 C60.011219,23.7942975 59.6809061,24.6108264 59.6809061,25.5810744 M58.2729265,25.5666116 C58.2729265,24.2678512 58.7509673,23.152562 59.7041442,22.2207438 C60.6540014,21.2880992 61.7959878,20.8215702 63.1305184,20.8215702 C64.4476204,20.8215702 65.5767429,21.2922314 66.5187156,22.232314 C67.4648381,23.1723967 67.9391442,24.3017355 67.9391442,25.6203306 C67.9391442,26.9459504 67.4635932,28.0723967 66.5137361,28.9963636 C65.5597293,29.9244628 64.4086136,30.3885124 63.0583143,30.3885124 C61.8648721,30.3885124 60.7926,29.9761157 59.8431578,29.1509091 C58.7957837,28.2401653 58.2729265,27.0442975 58.2729265,25.5666116" id="Fill-88" fill="#3A5F76" sketch:type="MSShapeGroup" mask="url(#mask-2)"></path>
                <path d="M75.8256973,30.2213636 L75.8256973,20.3680579 L82.5693095,27.4069008 L82.5693095,20.9953306 L83.9644252,20.9953306 L83.9644252,30.7829339 L77.219983,23.7618595 L77.219983,30.2213636 L75.8256973,30.2213636 Z" id="Fill-89" fill="#3A5F76" sketch:type="MSShapeGroup" mask="url(#mask-2)"></path>
                <path d="M97.5413238,22.3638843 L96.4088816,23.0328926 C96.1976639,22.6663636 95.9951605,22.4271074 95.8038612,22.3163636 C95.6050925,22.1882645 95.3465687,22.1246281 95.0316095,22.1246281 C94.6440313,22.1246281 94.3232626,22.2345455 94.0672286,22.4531405 C93.8124395,22.6684298 93.6838,22.9395041 93.6838,23.2663636 C93.6838,23.7171901 94.0190925,24.0791736 94.6905075,24.3552066 L95.6125619,24.7312397 C96.3628204,25.0353719 96.9114054,25.4039669 97.2591469,25.8407438 C97.6073034,26.2775207 97.7811741,26.8126446 97.7811741,27.4465289 C97.7811741,28.2952893 97.4977524,28.9977686 96.9296639,29.5514876 C96.3582558,30.1093388 95.6503238,30.3882645 94.8046231,30.3882645 C94.001249,30.3882645 93.3393782,30.1502479 92.8161061,29.6742149 C92.3011333,29.1994215 91.9795347,28.5295868 91.8504803,27.6704959 L93.2646844,27.3589256 C93.3290041,27.9006612 93.4398,28.2746281 93.6003918,28.4824793 C93.8875483,28.8804132 94.3070789,29.0795868 94.8577388,29.0795868 C95.2926231,29.0795868 95.6548884,28.9349587 95.9408,28.6444628 C96.2296163,28.3539669 96.3727796,27.9845455 96.3727796,27.5390909 C96.3727796,27.3597521 96.3482966,27.1961157 96.2972558,27.0473554 C96.2487048,26.8977686 96.1698612,26.7601653 96.0636299,26.6349587 C95.9586435,26.5093388 95.8221197,26.3915702 95.6548884,26.2828926 C95.4859973,26.1733884 95.2863986,26.0680165 95.0556776,25.968843 L94.1630857,25.5990083 C92.8974395,25.0659504 92.2650313,24.2853719 92.2650313,23.257686 C92.2650313,22.5655372 92.5297796,21.9857851 93.061351,21.5209091 C93.5925075,21.0506612 94.2531333,20.8159504 95.0436435,20.8159504 C96.1096912,20.8159504 96.9425279,21.3320661 97.5413238,22.3638843" id="Fill-90" fill="#3A5F76" sketch:type="MSShapeGroup" mask="url(#mask-2)"></path>
                <path d="M106.540899,25.5810744 C106.540899,26.6000826 106.885735,27.4380992 107.571674,28.0947107 C108.254708,28.7517355 109.042729,29.0798347 109.937395,29.0798347 C110.907171,29.0798347 111.726314,28.745124 112.393579,28.0773554 C113.058354,27.4004959 113.393647,26.5765289 113.393647,25.6054545 C113.393647,24.6219835 113.063334,23.7984298 112.404783,23.1335537 C111.749967,22.4649587 110.939538,22.1310744 109.973497,22.1310744 C109.010361,22.1310744 108.198688,22.4649587 107.535157,23.1335537 C106.872041,23.7942975 106.540899,24.6108264 106.540899,25.5810744 M105.134164,25.5666116 C105.134164,24.2678512 105.61179,23.152562 106.565382,22.2207438 C107.515239,21.2880992 108.658055,20.8215702 109.991756,20.8215702 C111.309688,20.8215702 112.43798,21.2922314 113.380783,22.232314 C114.32649,23.1723967 114.799967,24.3017355 114.799967,25.6203306 C114.799967,26.9459504 114.324416,28.0723967 113.375388,28.9963636 C112.420967,29.9244628 111.268606,30.3885124 109.919552,30.3885124 C108.72528,30.3885124 107.653837,29.9761157 106.70315,29.1509091 C105.657436,28.2401653 105.134164,27.0442975 105.134164,25.5666116" id="Fill-91" fill="#3A5F76" sketch:type="MSShapeGroup" mask="url(#mask-2)"></path>
                <path d="M124.082507,25.2318182 L124.52569,25.2318182 C125.847772,25.2318182 126.507983,24.7280992 126.507983,23.7198347 C126.507983,22.7756198 125.865616,22.303719 124.580051,22.303719 L124.082507,22.303719 L124.082507,25.2318182 Z M125.819554,26.2896694 L128.682405,30.2214876 L126.97565,30.2214876 L124.334391,26.4446281 L124.082507,26.4446281 L124.082507,30.2214876 L122.687806,30.2214876 L122.687806,20.9954545 L124.322357,20.9954545 C125.543602,20.9954545 126.42582,21.2239669 126.969425,21.6826446 C127.568221,22.192562 127.868241,22.8652893 127.868241,23.7020661 C127.868241,24.3549587 127.680262,24.9173554 127.305133,25.3871901 C126.929173,25.8578512 126.434534,26.1578512 125.819554,26.2896694 L125.819554,26.2896694 Z" id="Fill-92" fill="#3A5F76" sketch:type="MSShapeGroup" mask="url(#mask-2)"></path>
                <path d="M138.647232,22.3037603 L138.647232,30.2215289 L137.252116,30.2215289 L137.252116,22.3037603 L135.125831,22.3037603 L135.125831,20.9954959 L140.767293,20.9954959 L140.767293,22.3037603 L138.647232,22.3037603 Z" id="Fill-93" fill="#3A5F76" sketch:type="MSShapeGroup" mask="url(#mask-2)"></path>
                <path d="M149.540048,30.2214876 L148.144932,30.2214876 L148.144932,20.9954545 L149.540048,20.9954545 L149.540048,30.2214876 Z" id="Fill-94" fill="#3A5F76" sketch:type="MSShapeGroup" mask="url(#mask-2)"></path>
                <path d="M159.290171,20.9954545 L159.290171,26.5483471 C159.290171,27.3404959 159.419641,27.9202479 159.678995,28.2859504 C160.066573,28.8152893 160.611423,29.0797521 161.313961,29.0797521 C162.020648,29.0797521 162.567573,28.8152893 162.954321,28.2859504 C163.214505,27.931405 163.344389,27.3528926 163.344389,26.5483471 L163.344389,20.9954545 L164.73909,20.9954545 L164.73909,26.935124 C164.73909,27.9070248 164.43575,28.7078512 163.829899,29.3371901 C163.146865,30.0380165 162.309049,30.3884298 161.313961,30.3884298 C160.319287,30.3884298 159.483131,30.0380165 158.805076,29.3371901 C158.198811,28.7078512 157.895471,27.9070248 157.895471,26.935124 L157.895471,20.9954545 L159.290171,20.9954545 Z" id="Fill-95" fill="#3A5F76" sketch:type="MSShapeGroup" mask="url(#mask-2)"></path>
                <path d="M172.764407,30.2213636 L174.711428,20.3019421 L177.885088,27.4730165 L181.172863,20.3019421 L182.921945,30.2213636 L181.489067,30.2213636 L180.59689,24.6523554 L177.860605,30.6457438 L175.201503,24.646157 L174.207659,30.2213636 L172.764407,30.2213636 Z" id="Fill-96" fill="#3A5F76" sketch:type="MSShapeGroup" mask="url(#mask-2)"></path>
                <path d="M1.91029592,43.9872727 L1.91029592,48.2819008 L1.15339796,48.2819008 L1.15339796,43.9872727 L-0.000207482993,43.9872727 L-0.000207482993,43.2769421 L3.0597517,43.2769421 L3.0597517,43.9872727 L1.91029592,43.9872727 Z" id="Fill-97" fill="#3A5F76" sketch:type="MSShapeGroup" mask="url(#mask-2)"></path>
                <path d="M5.25919592,42.807314 L5.99036599,42.807314 L5.99036599,45.3874793 C6.25054966,45.1540083 6.53687619,45.0370661 6.85100544,45.0370661 C7.20870612,45.0370661 7.49461769,45.1527686 7.70874014,45.3841736 C7.8909102,45.5854132 7.98220272,45.9060744 7.98220272,46.3465702 L7.98220272,48.2816942 L7.25061769,48.2816942 L7.25061769,46.4147521 C7.25061769,46.1618595 7.20580136,45.9792149 7.11616871,45.8651653 C7.02612109,45.7519421 6.88129796,45.6949174 6.68252925,45.6949174 C6.4269102,45.6949174 6.24722993,45.7742562 6.14307347,45.9316942 C6.0414068,46.0920248 5.99036599,46.366405 5.99036599,46.7556612 L5.99036599,48.2816942 L5.25919592,48.2816942 L5.25919592,42.807314 Z" id="Fill-98" fill="#3A5F76" sketch:type="MSShapeGroup" mask="url(#mask-2)"></path>
                <path d="M12.7022333,46.2785537 C12.6001517,45.8897107 12.3544918,45.6950826 11.9648388,45.6950826 C11.8760361,45.6950826 11.7926279,45.708719 11.7146143,45.7359917 C11.6366007,45.7628512 11.5656415,45.8016942 11.5017367,45.8525207 C11.437832,45.9033471 11.3830565,45.9640909 11.3378252,46.0355785 C11.2921789,46.1066529 11.2577367,46.1880579 11.2340837,46.2785537 L12.7022333,46.2785537 Z M13.4529068,46.8748347 L11.1851177,46.8748347 C11.2042061,47.1347521 11.2892741,47.3405372 11.4382469,47.4942562 C11.5876347,47.6459091 11.779349,47.7211157 12.0133898,47.7211157 C12.1951449,47.7211157 12.3457776,47.6781405 12.4652878,47.5917769 C12.5818932,47.5054132 12.7146823,47.3450826 12.8649,47.1120248 L13.4819544,47.4554132 C13.3860973,47.6173967 13.2856755,47.7562397 13.1794442,47.8715289 C13.0736279,47.9876446 12.9595122,48.0822727 12.8383422,48.1574793 C12.7171721,48.2318595 12.5860429,48.2859917 12.4453694,48.3207025 C12.3046959,48.355 12.1519884,48.3727686 11.9872469,48.3727686 C11.5154306,48.3727686 11.1365667,48.2211157 10.8502401,47.9190496 C10.5647435,47.6140909 10.4215803,47.2099587 10.4215803,46.7062397 C10.4215803,46.2074793 10.5601789,45.8033471 10.8373762,45.4942562 C11.1166483,45.1897107 11.486798,45.0372314 11.9482401,45.0372314 C12.4142469,45.0372314 12.7823218,45.1855785 13.0532946,45.4810331 C13.3213626,45.7752479 13.4553966,46.182686 13.4553966,46.7029339 L13.4529068,46.8748347 Z" id="Fill-99" fill="#3A5F76" sketch:type="MSShapeGroup" mask="url(#mask-2)"></path>
                <path d="M22.3506075,45.6756612 L24.4229476,45.6756612 L24.4229476,45.8409504 C24.4229476,46.2173967 24.3789612,46.5500413 24.2897435,46.8392975 C24.2030156,47.1074793 24.0569476,47.3578926 23.8511245,47.5917769 C23.3851177,48.1145041 22.7929612,48.3760744 22.0742401,48.3760744 C21.3729476,48.3760744 20.7712469,48.1231818 20.2712129,47.6173967 C19.7707639,47.1099587 19.5213694,46.5004545 19.5213694,45.7892975 C19.5213694,45.0632645 19.7753286,44.4471488 20.2844918,43.9417769 C20.7932401,43.4339256 21.4123694,43.1802066 22.1427095,43.1802066 C22.5344374,43.1802066 22.9004374,43.2595455 23.2407095,43.4190496 C23.5652129,43.5781405 23.8847367,43.836405 24.198866,44.1946694 L23.6594102,44.7099587 C23.2477639,44.1632645 22.7469,43.8897107 22.1551585,43.8897107 C21.624832,43.8897107 21.1799884,44.0727686 20.8202129,44.4376446 C20.4608524,44.7963223 20.2811721,45.2459091 20.2811721,45.786405 C20.2811721,46.3434298 20.4816007,46.8033471 20.8820429,47.1640909 C21.2567571,47.4988017 21.6630088,47.6657438 22.099968,47.6657438 C22.4726075,47.6657438 22.807485,47.5409504 23.1037707,47.2909504 C23.4004714,47.0388843 23.5664578,46.7368182 23.601315,46.3859917 L22.3506075,46.3859917 L22.3506075,45.6756612 Z" id="Fill-100" fill="#3A5F76" sketch:type="MSShapeGroup" mask="url(#mask-2)"></path>
                <path d="M27.6292653,48.2818182 L26.8980952,48.2818182 L26.8980952,42.807438 L27.6292653,42.807438 L27.6292653,48.2818182 Z" id="Fill-101" fill="#3A5F76" sketch:type="MSShapeGroup" mask="url(#mask-2)"></path>
                <path d="M30.8160796,46.6933884 C30.8160796,47.0090909 30.9003177,47.2586777 31.0692088,47.4421488 C31.2422497,47.6285124 31.4713109,47.7210744 31.7547327,47.7210744 C32.0406442,47.7210744 32.2692905,47.6297521 32.4402565,47.4454545 C32.6112224,47.2619835 32.6971204,47.0169421 32.6971204,46.7099174 C32.6971204,46.4033058 32.6112224,46.157438 32.4402565,45.9743802 C32.2672156,45.7884298 32.0385694,45.6950413 31.7547327,45.6950413 C31.4754605,45.6950413 31.2488891,45.7884298 31.0758483,45.9743802 C30.9023925,46.1599174 30.8160796,46.3995868 30.8160796,46.6933884 M30.0687259,46.6805785 C30.0687259,46.2243802 30.2322224,45.8371901 30.5592156,45.5169421 C30.8866238,45.1971074 31.2849912,45.0371901 31.7547327,45.0371901 C32.226549,45.0371901 32.6274061,45.1987603 32.9564741,45.5202479 C33.2818075,45.8421488 33.4440592,46.2376033 33.4440592,46.7061983 C33.4440592,47.1801653 33.2805626,47.5764463 32.9531544,47.8958678 C32.6240864,48.2140496 32.2207395,48.3727273 31.7418687,48.3727273 C31.2675626,48.3727273 30.8700252,48.2107438 30.5492565,47.8863636 C30.2289027,47.5665289 30.0687259,47.164876 30.0687259,46.6805785" id="Fill-102" fill="#3A5F76" sketch:type="MSShapeGroup" mask="url(#mask-2)"></path>
                <path d="M38.3494966,46.7260744 C38.3494966,46.4240083 38.2673333,46.1769008 38.1021769,45.9872314 C37.9357755,45.7926033 37.7266327,45.6950826 37.4755782,45.6950826 C37.2070952,45.6950826 36.9884082,45.7892975 36.819102,45.977314 C36.6522857,46.1632645 36.5692925,46.4054132 36.5692925,46.7029339 C36.5692925,47.0099587 36.6514558,47.2554132 36.8161973,47.4392975 C36.9805238,47.627314 37.1971361,47.7211157 37.466034,47.7211157 C37.7187483,47.7211157 37.9291361,47.627314 38.0959524,47.4392975 C38.2652585,47.2492149 38.3494966,47.0111983 38.3494966,46.7260744 L38.3494966,46.7260744 Z M36.6112041,42.8074793 L36.6112041,45.4913636 C36.9037551,45.1884711 37.234898,45.0372314 37.6054626,45.0372314 C38.0320476,45.0372314 38.3872585,45.1963223 38.6706803,45.5132645 C38.954517,45.8289669 39.0968503,46.2227686 39.0968503,46.6934298 C39.0968503,47.1802066 38.9532721,47.5818595 38.6681905,47.8992149 C38.3839388,48.2149174 38.0258231,48.3727686 37.5921837,48.3727686 C37.2265986,48.3727686 36.8991905,48.2322727 36.6112041,47.951281 L36.6112041,48.2818595 L35.880449,48.2818595 L35.880449,42.8074793 L36.6112041,42.8074793 Z" id="Fill-103" fill="#3A5F76" sketch:type="MSShapeGroup" mask="url(#mask-2)"></path>
                <path d="M42.1312061,46.6933884 C42.1312061,46.9958678 42.2121245,47.242562 42.3747912,47.4326446 C42.5411925,47.6252066 42.7515803,47.7210744 43.0042946,47.7210744 C43.2756823,47.7210744 43.4943694,47.6285124 43.6611857,47.4421488 C43.8275871,47.2504132 43.9109952,47.0057851 43.9109952,46.7099174 C43.9109952,46.4136364 43.8275871,46.1694215 43.6611857,45.977686 C43.4943694,45.7892562 43.2777571,45.6950413 43.011349,45.6950413 C42.7598796,45.6950413 42.5499068,45.7900826 42.3814306,45.9805785 C42.2141993,46.1727273 42.1312061,46.4103306 42.1312061,46.6933884 L42.1312061,46.6933884 Z M43.8657639,45.1247934 L44.5998388,45.1247934 L44.5998388,48.2818182 L43.8657639,48.2818182 L43.8657639,47.9512397 C43.5644986,48.2326446 43.2408252,48.3727273 42.8943286,48.3727273 C42.4569544,48.3727273 42.0951041,48.214876 41.8096075,47.8991736 C41.5257707,47.577686 41.3838524,47.1756198 41.3838524,46.6933884 C41.3838524,46.2202479 41.5257707,45.8256198 41.8096075,45.5103306 C42.0926143,45.1950413 42.4482401,45.0371901 42.8752401,45.0371901 C43.2429,45.0371901 43.5736279,45.1884298 43.8657639,45.4913223 L43.8657639,45.1247934 Z" id="Fill-104" fill="#3A5F76" sketch:type="MSShapeGroup" mask="url(#mask-2)"></path>
                <path d="M47.9165374,48.2818182 L47.1853673,48.2818182 L47.1853673,42.807438 L47.9165374,42.807438 L47.9165374,48.2818182 Z" id="Fill-105" fill="#3A5F76" sketch:type="MSShapeGroup" mask="url(#mask-2)"></path>
                <path d="M54.3613327,48.2817355 L54.3613327,42.9366942 L58.0196728,46.7557025 L58.0196728,43.2771901 L58.7765707,43.2771901 L58.7765707,48.5866942 L55.1186456,44.7780165 L55.1186456,48.2817355 L54.3613327,48.2817355 Z" id="Fill-106" fill="#3A5F76" sketch:type="MSShapeGroup" mask="url(#mask-2)"></path>
                <path d="M63.7077776,46.2785537 C63.6056959,45.8897107 63.3600361,45.6950826 62.970383,45.6950826 C62.8815803,45.6950826 62.7981721,45.708719 62.7201585,45.7359917 C62.6421449,45.7628512 62.5711857,45.8016942 62.507281,45.8525207 C62.4433762,45.9033471 62.3890156,45.9640909 62.3433694,46.0355785 C62.2981381,46.1066529 62.263281,46.1880579 62.2396279,46.2785537 L63.7077776,46.2785537 Z M64.458451,46.8748347 L62.1906619,46.8748347 C62.2101653,47.1347521 62.2948184,47.3405372 62.4442061,47.4942562 C62.5931789,47.6459091 62.7848932,47.7211157 63.018934,47.7211157 C63.2006891,47.7211157 63.3517367,47.6781405 63.470832,47.5917769 C63.5874374,47.5054132 63.7202265,47.3450826 63.8704442,47.1120248 L64.4874986,47.4554132 C64.3924714,47.6173967 64.2912197,47.7562397 64.1849884,47.8715289 C64.0791721,47.9876446 63.9654714,48.0822727 63.8438864,48.1574793 C63.7231313,48.2318595 63.592002,48.2859917 63.4509136,48.3207025 C63.3102401,48.355 63.1575327,48.3727686 62.9927912,48.3727686 C62.5209748,48.3727686 62.1421109,48.2211157 61.8557844,47.9190496 C61.5702878,47.6140909 61.4271245,47.2099587 61.4271245,46.7062397 C61.4271245,46.2074793 61.5661381,45.8033471 61.8429204,45.4942562 C62.1226075,45.1897107 62.4923422,45.0372314 62.9541993,45.0372314 C63.4197912,45.0372314 63.787866,45.1855785 64.0588388,45.4810331 C64.3269068,45.7752479 64.4613558,46.182686 64.4613558,46.7029339 L64.458451,46.8748347 Z" id="Fill-107" fill="#3A5F76" sketch:type="MSShapeGroup" mask="url(#mask-2)"></path>
                <path d="M67.7330306,45.8056198 L67.7330306,48.2816529 L67.0014456,48.2816529 L67.0014456,45.8056198 L66.6898061,45.8056198 L66.6898061,45.1250413 L67.0014456,45.1250413 L67.0014456,43.9680165 L67.7330306,43.9680165 L67.7330306,45.1250413 L68.301119,45.1250413 L68.301119,45.8056198 L67.7330306,45.8056198 Z" id="Fill-108" fill="#3A5F76" sketch:type="MSShapeGroup" mask="url(#mask-2)"></path>
                <path d="M70.857849,45.1248347 L71.6861211,46.9269008 L72.5795429,44.836405 L73.4796041,46.9269008 L74.298332,45.1248347 L75.1170599,45.1248347 L73.4601007,48.5186364 L72.5795429,46.4859917 L71.6894408,48.5186364 L70.0362163,45.1248347 L70.857849,45.1248347 Z" id="Fill-109" fill="#3A5F76" sketch:type="MSShapeGroup" mask="url(#mask-2)"></path>
                <path d="M77.7518034,46.6933884 C77.7518034,47.0090909 77.8360415,47.2586777 78.0045177,47.4421488 C78.1779735,47.6285124 78.4066197,47.7210744 78.6904565,47.7210744 C78.976368,47.7210744 79.2045993,47.6297521 79.3759803,47.4454545 C79.5469463,47.2619835 79.6324293,47.0169421 79.6324293,46.7099174 C79.6324293,46.4033058 79.5469463,46.157438 79.3759803,45.9743802 C79.2025245,45.7884298 78.9742932,45.6950413 78.6904565,45.6950413 C78.4107694,45.6950413 78.1846129,45.7884298 78.0111571,45.9743802 C77.8381163,46.1599174 77.7518034,46.3995868 77.7518034,46.6933884 M77.0044497,46.6805785 C77.0044497,46.2243802 77.1679463,45.8371901 77.4949395,45.5169421 C77.8219327,45.1971074 78.2203,45.0371901 78.6904565,45.0371901 C79.1622728,45.0371901 79.5631299,45.1987603 79.892198,45.5202479 C80.2171163,45.8421488 80.379368,46.2376033 80.379368,46.7061983 C80.379368,47.1801653 80.2162864,47.5764463 79.8888782,47.8958678 C79.5598102,48.2140496 79.1560483,48.3727273 78.6771776,48.3727273 C78.2032864,48.3727273 77.805749,48.2107438 77.4849803,47.8863636 C77.1646265,47.5665289 77.0044497,47.164876 77.0044497,46.6805785" id="Fill-110" fill="#3A5F76" sketch:type="MSShapeGroup" mask="url(#mask-2)"></path>
                <path d="M82.8160898,45.1248347 L83.5468449,45.1248347 L83.5468449,45.4070661 C83.6812939,45.2665702 83.8003891,45.1702893 83.9041306,45.1182231 C84.0103619,45.0645041 84.1360966,45.0372314 84.2809197,45.0372314 C84.4738789,45.0372314 84.6751374,45.1000413 84.8851102,45.2252479 L84.5510626,45.8926033 C84.4124639,45.7934298 84.277185,45.7442562 84.1448109,45.7442562 C83.7460286,45.7442562 83.5468449,46.0446694 83.5468449,46.6450826 L83.5468449,48.2818595 L82.8160898,48.2818595 L82.8160898,45.1248347 Z" id="Fill-111" fill="#3A5F76" sketch:type="MSShapeGroup" mask="url(#mask-2)"></path>
                <path d="M87.7993333,42.807314 L87.7993333,46.1457438 L88.8288639,45.1246694 L89.8102585,45.1246694 L88.4363061,46.4502893 L89.9110952,48.2816942 L88.962483,48.2816942 L87.9163537,46.949876 L87.7993333,47.066405 L87.7993333,48.2816942 L87.0681633,48.2816942 L87.0681633,42.807314 L87.7993333,42.807314 Z" id="Fill-112" fill="#3A5F76" sketch:type="MSShapeGroup" mask="url(#mask-2)"></path>
                <path d="M96.5184741,45.8056198 L96.5184741,48.2816529 L95.7839844,48.2816529 L95.7839844,45.8056198 L95.5242156,45.8056198 L95.5242156,45.1250413 L95.7839844,45.1250413 L95.7839844,43.9056198 C95.7839844,43.5085124 95.8536986,43.2279339 95.9922973,43.0630579 C96.1827667,42.8345455 96.4599639,42.7196694 96.8238891,42.7196694 C96.9537735,42.7196694 97.1172701,42.757686 97.3143789,42.8333058 L97.3143789,43.5787603 L97.239685,43.5403306 C97.081583,43.4601653 96.9516986,43.4200826 96.850032,43.4200826 C96.7197327,43.4200826 96.6321748,43.4663636 96.5865286,43.5593388 C96.5412973,43.6498347 96.5184741,43.8250413 96.5184741,44.0841322 L96.5184741,45.1250413 L97.3143789,45.1250413 L97.3143789,45.8056198 L96.5184741,45.8056198 Z" id="Fill-113" fill="#3A5F76" sketch:type="MSShapeGroup" mask="url(#mask-2)"></path>
                <path d="M100.078924,46.6933884 C100.078924,47.0090909 100.163162,47.2586777 100.332053,47.4421488 C100.505094,47.6285124 100.734155,47.7210744 101.017577,47.7210744 C101.303488,47.7210744 101.532135,47.6297521 101.703101,47.4454545 C101.874482,47.2619835 101.959965,47.0169421 101.959965,46.7099174 C101.959965,46.4033058 101.874482,46.157438 101.703101,45.9743802 C101.53006,45.7884298 101.301414,45.6950413 101.017577,45.6950413 C100.738305,45.6950413 100.511733,45.7884298 100.338693,45.9743802 C100.165652,46.1599174 100.078924,46.3995868 100.078924,46.6933884 M99.3315701,46.6805785 C99.3315701,46.2243802 99.4950667,45.8371901 99.8224748,45.5169421 C100.149468,45.1971074 100.547835,45.0371901 101.017577,45.0371901 C101.489393,45.0371901 101.89025,45.1987603 102.219318,45.5202479 C102.544652,45.8421488 102.706903,46.2376033 102.706903,46.7061983 C102.706903,47.1801653 102.543407,47.5764463 102.215999,47.8958678 C101.886931,48.2140496 101.483584,48.3727273 101.004713,48.3727273 C100.530407,48.3727273 100.132869,48.2107438 99.8121007,47.8863636 C99.4917469,47.5665289 99.3315701,47.164876 99.3315701,46.6805785" id="Fill-114" fill="#3A5F76" sketch:type="MSShapeGroup" mask="url(#mask-2)"></path>
                <path d="M105.143625,45.1248347 L105.874795,45.1248347 L105.874795,45.4070661 C106.009244,45.2665702 106.127924,45.1702893 106.232081,45.1182231 C106.338312,45.0645041 106.464047,45.0372314 106.608455,45.0372314 C106.801414,45.0372314 107.002673,45.1000413 107.213061,45.2252479 L106.878598,45.8926033 C106.739999,45.7934298 106.60472,45.7442562 106.472346,45.7442562 C106.073564,45.7442562 105.874795,46.0446694 105.874795,46.6450826 L105.874795,48.2818595 L105.143625,48.2818595 L105.143625,45.1248347 Z" id="Fill-115" fill="#3A5F76" sketch:type="MSShapeGroup" mask="url(#mask-2)"></path>
                <path d="M113.664578,45.7648347 C113.664578,46.3177273 113.850483,46.7722727 114.223537,47.1284711 C114.593687,47.4846694 115.021517,47.6627686 115.506612,47.6627686 C116.032789,47.6627686 116.476388,47.4813636 116.838238,47.1185537 C117.200503,46.7516116 117.380599,46.3049174 117.380599,45.7780579 C117.380599,45.2445868 117.202163,44.7978926 116.844878,44.4371488 C116.489667,44.0743388 116.049803,43.8929339 115.525701,43.8929339 C115.004088,43.8929339 114.56298,44.0743388 114.203619,44.4371488 C113.844673,44.7954132 113.664578,45.2383884 113.664578,45.7648347 M112.901041,45.7573967 C112.901041,45.052438 113.159565,44.4474793 113.677027,43.9416942 C114.19283,43.4359091 114.812374,43.1834298 115.53566,43.1834298 C116.250646,43.1834298 116.863136,43.4383884 117.374374,43.9483058 C117.887687,44.4582231 118.144136,45.0706198 118.144136,45.7863223 C118.144136,46.5053306 117.886442,47.1160744 117.371469,47.617314 C116.853592,48.1210331 116.228653,48.3730992 115.496653,48.3730992 C114.848891,48.3730992 114.267939,48.1491322 113.752136,47.7016116 C113.184878,47.2065702 112.901041,46.5586364 112.901041,45.7573967" id="Fill-116" fill="#3A5F76" sketch:type="MSShapeGroup" mask="url(#mask-2)"></path>
                <path d="M123.088871,46.7228512 C123.088871,46.4207851 123.006707,46.1736777 122.841966,45.9840083 C122.675565,45.7914463 122.465177,45.6951653 122.211633,45.6951653 C121.94315,45.6951653 121.725707,45.7881405 121.559306,45.9740909 C121.392075,46.1600413 121.309082,46.4042562 121.309082,46.7063223 C121.309082,47.0026033 121.392075,47.2472314 121.559306,47.4389669 C121.723218,47.6269835 121.93983,47.7211983 122.208313,47.7211983 C122.461857,47.7211983 122.671,47.626157 122.835741,47.4360744 C123.004633,47.2459917 123.088871,47.0079752 123.088871,46.7228512 L123.088871,46.7228512 Z M121.350578,50.000124 L120.620238,50.000124 L120.620238,45.1249174 L121.350578,45.1249174 L121.350578,45.4683058 C121.63898,45.1811157 121.965973,45.037314 122.331973,45.037314 C122.767272,45.037314 123.125803,45.1972314 123.407565,45.5170661 C123.693061,45.8348347 123.836224,46.2356612 123.836224,46.7195455 C123.836224,47.1930992 123.694306,47.587314 123.410054,47.9021901 C123.129122,48.2158264 122.773912,48.3728512 122.345252,48.3728512 C121.974687,48.3728512 121.643544,48.2249174 121.350578,47.9286364 L121.350578,50.000124 Z" id="Fill-117" fill="#3A5F76" sketch:type="MSShapeGroup" mask="url(#mask-2)"></path>
                <path d="M128.403589,46.2785537 C128.301507,45.8897107 128.055848,45.6950826 127.666195,45.6950826 C127.577392,45.6950826 127.493984,45.708719 127.41597,45.7359917 C127.337956,45.7628512 127.266997,45.8016942 127.203093,45.8525207 C127.139188,45.9033471 127.084412,45.9640909 127.038766,46.0355785 C126.993535,46.1066529 126.958678,46.1880579 126.935439,46.2785537 L128.403589,46.2785537 Z M129.154263,46.8748347 L126.886473,46.8748347 C126.905977,47.1347521 126.99063,47.3405372 127.139603,47.4942562 C127.28899,47.6459091 127.480705,47.7211157 127.714746,47.7211157 C127.896501,47.7211157 128.047133,47.6781405 128.166644,47.5917769 C128.283249,47.5054132 128.416038,47.3450826 128.566256,47.1120248 L129.18331,47.4554132 C129.087453,47.6173967 128.987031,47.7562397 128.8808,47.8715289 C128.774984,47.9876446 128.660868,48.0822727 128.539698,48.1574793 C128.418528,48.2318595 128.287399,48.2859917 128.146725,48.3207025 C128.006052,48.355 127.853344,48.3727686 127.688603,48.3727686 C127.216786,48.3727686 126.837922,48.2211157 126.551596,47.9190496 C126.265684,47.6140909 126.122936,47.2099587 126.122936,46.7062397 C126.122936,46.2074793 126.261535,45.8033471 126.538732,45.4942562 C126.818004,45.1897107 127.188154,45.0372314 127.649596,45.0372314 C128.115603,45.0372314 128.483678,45.1855785 128.75465,45.4810331 C129.022718,45.7752479 129.156752,46.182686 129.156752,46.7029339 L129.154263,46.8748347 Z" id="Fill-118" fill="#3A5F76" sketch:type="MSShapeGroup" mask="url(#mask-2)"></path>
                <path d="M131.616339,45.1248347 L132.350829,45.1248347 L132.350829,45.4165702 C132.606033,45.1640909 132.894019,45.0372314 133.214788,45.0372314 C133.582863,45.0372314 133.870019,45.1525207 134.075427,45.3843388 C134.253033,45.5810331 134.341835,45.9016942 134.341835,46.3467355 L134.341835,48.2818595 L133.607761,48.2818595 L133.607761,46.5207025 C133.607761,46.2099587 133.564189,45.9950826 133.477876,45.8764876 C133.393223,45.7554132 133.239686,45.6950826 133.016849,45.6950826 C132.774094,45.6950826 132.601883,45.7748347 132.499801,45.9347521 C132.400624,46.0921901 132.350829,46.3678099 132.350829,46.7603719 L132.350829,48.2818595 L131.616339,48.2818595 L131.616339,45.1248347 Z" id="Fill-119" fill="#3A5F76" sketch:type="MSShapeGroup" mask="url(#mask-2)"></path>
                <path d="M143.551881,43.9872727 L141.540541,43.9872727 L141.540541,45.1897521 L143.493371,45.1897521 L143.493371,45.8996694 L141.540541,45.8996694 L141.540541,47.5723967 L143.551881,47.5723967 L143.551881,48.2819008 L140.783643,48.2819008 L140.783643,43.2769421 L143.551881,43.2769421 L143.551881,43.9872727 Z" id="Fill-120" fill="#3A5F76" sketch:type="MSShapeGroup" mask="url(#mask-2)"></path>
                <path d="M146.667363,46.6933884 C146.667363,46.9958678 146.748281,47.242562 146.910948,47.4326446 C147.077349,47.6252066 147.287737,47.7210744 147.540866,47.7210744 C147.811839,47.7210744 148.030526,47.6285124 148.196927,47.4421488 C148.364159,47.2504132 148.447567,47.0057851 148.447567,46.7099174 C148.447567,46.4136364 148.364159,46.1694215 148.196927,45.977686 C148.030526,45.7892562 147.813914,45.6950413 147.547505,45.6950413 C147.296036,45.6950413 147.086063,45.7900826 146.917587,45.9805785 C146.750356,46.1727273 146.667363,46.4103306 146.667363,46.6933884 L146.667363,46.6933884 Z M148.40192,42.807438 L149.135995,42.807438 L149.135995,48.2818182 L148.40192,48.2818182 L148.40192,47.9512397 C148.113519,48.2326446 147.787771,48.3727273 147.423846,48.3727273 C146.990621,48.3727273 146.631261,48.214876 146.345764,47.8991736 C146.061927,47.577686 145.920009,47.1756198 145.920009,46.6933884 C145.920009,46.2227273 146.061927,45.8289256 146.345764,45.5136364 C146.626696,45.196281 146.981492,45.0371901 147.408077,45.0371901 C147.778227,45.0371901 148.109784,45.1884298 148.40192,45.4913223 L148.40192,42.807438 Z" id="Fill-121" fill="#3A5F76" sketch:type="MSShapeGroup" mask="url(#mask-2)"></path>
                <path d="M152.452569,45.1248347 L152.452569,46.9368182 C152.452569,47.4595455 152.659637,47.7211157 153.072944,47.7211157 C153.486665,47.7211157 153.693318,47.4595455 153.693318,46.9368182 L153.693318,45.1248347 L154.424488,45.1248347 L154.424488,46.9533471 C154.424488,47.2058264 154.393365,47.423595 154.329876,47.6078926 C154.269705,47.7719421 154.164719,47.9202893 154.015331,48.0516942 C153.768427,48.2657438 153.453882,48.3727686 153.072944,48.3727686 C152.69408,48.3727686 152.381195,48.2657438 152.13429,48.0516942 C151.982413,47.9202893 151.875352,47.7719421 151.812692,47.6078926 C151.751692,47.4607851 151.721399,47.2426033 151.721399,46.9533471 L151.721399,45.1248347 L152.452569,45.1248347 Z" id="Fill-122" fill="#3A5F76" sketch:type="MSShapeGroup" mask="url(#mask-2)"></path>
                <path d="M159.472964,45.2608264 L159.472964,46.2302479 C159.306563,46.0269421 159.15676,45.8880992 159.024801,45.8120661 C158.894501,45.7339669 158.742209,45.695124 158.566678,45.695124 C158.291556,45.695124 158.06291,45.791405 157.881569,45.9839669 C157.699814,46.1761157 157.608522,46.417438 157.608522,46.706281 C157.608522,47.002562 157.69608,47.2459504 157.87161,47.4360331 C158.049216,47.6265289 158.275372,47.721157 158.55008,47.721157 C158.72561,47.721157 158.880807,47.6835537 159.014841,47.6079339 C159.145141,47.5343802 159.297848,47.391405 159.472964,47.1802479 L159.472964,48.1430579 C159.176263,48.2959504 158.879563,48.3728099 158.582862,48.3728099 C158.093617,48.3728099 157.684046,48.2145455 157.354978,47.8992562 C157.025495,47.5819008 156.861168,47.1872727 156.861168,46.7161983 C156.861168,46.2455372 157.027569,45.8476033 157.361617,45.5236364 C157.69525,45.1996694 158.104406,45.0372727 158.589501,45.0372727 C158.901556,45.0372727 159.195767,45.1120661 159.472964,45.2608264" id="Fill-123" fill="#3A5F76" sketch:type="MSShapeGroup" mask="url(#mask-2)"></path>
                <path d="M162.442129,46.6933884 C162.442129,46.9958678 162.523462,47.242562 162.686129,47.4326446 C162.85253,47.6252066 163.062918,47.7210744 163.315632,47.7210744 C163.586605,47.7210744 163.805707,47.6285124 163.972523,47.4421488 C164.138924,47.2504132 164.222333,47.0057851 164.222333,46.7099174 C164.222333,46.4136364 164.138924,46.1694215 163.972523,45.977686 C163.805707,45.7892562 163.589095,45.6950413 163.322271,45.6950413 C163.071217,45.6950413 162.861244,45.7900826 162.692768,45.9805785 C162.525537,46.1727273 162.442129,46.4103306 162.442129,46.6933884 L162.442129,46.6933884 Z M164.177101,45.1247934 L164.911176,45.1247934 L164.911176,48.2818182 L164.177101,48.2818182 L164.177101,47.9512397 C163.875836,48.2326446 163.552163,48.3727273 163.205666,48.3727273 C162.768292,48.3727273 162.406441,48.214876 162.12053,47.8991736 C161.837108,47.577686 161.694775,47.1756198 161.694775,46.6933884 C161.694775,46.2202479 161.837108,45.8256198 162.12053,45.5103306 C162.403952,45.1950413 162.759578,45.0371901 163.186163,45.0371901 C163.554237,45.0371901 163.884965,45.1884298 164.177101,45.4913223 L164.177101,45.1247934 Z" id="Fill-124" fill="#3A5F76" sketch:type="MSShapeGroup" mask="url(#mask-2)"></path>
                <path d="M168.250449,45.8056198 L168.250449,48.2816529 L167.519279,48.2816529 L167.519279,45.8056198 L167.207224,45.8056198 L167.207224,45.1250413 L167.519279,45.1250413 L167.519279,43.9680165 L168.250449,43.9680165 L168.250449,45.1250413 L168.818952,45.1250413 L168.818952,45.8056198 L168.250449,45.8056198 Z" id="Fill-125" fill="#3A5F76" sketch:type="MSShapeGroup" mask="url(#mask-2)"></path>
                <path d="M171.71002,48.2818182 L170.979265,48.2818182 L170.979265,45.1247934 L171.71002,45.1247934 L171.71002,48.2818182 Z M170.869299,43.8119835 C170.869299,43.6847107 170.915361,43.5739669 171.008728,43.481405 C171.101265,43.3884298 171.213306,43.342562 171.342776,43.342562 C171.47515,43.342562 171.58802,43.3884298 171.680973,43.481405 C171.773925,43.572314 171.820816,43.6838843 171.820816,43.8152893 C171.820816,43.9471074 171.773925,44.0595041 171.680973,44.1528926 C171.590095,44.2454545 171.478054,44.2917355 171.346095,44.2917355 C171.214551,44.2917355 171.101265,44.2454545 171.008728,44.1528926 C170.915361,44.0595041 170.869299,43.946281 170.869299,43.8119835 L170.869299,43.8119835 Z" id="Fill-126" fill="#3A5F76" sketch:type="MSShapeGroup" mask="url(#mask-2)"></path>
                <path d="M174.897623,46.6933884 C174.897623,47.0090909 174.981861,47.2586777 175.150337,47.4421488 C175.323793,47.6285124 175.552439,47.7210744 175.836276,47.7210744 C176.122188,47.7210744 176.350419,47.6297521 176.5218,47.4454545 C176.692766,47.2619835 176.778249,47.0169421 176.778249,46.7099174 C176.778249,46.4033058 176.692766,46.157438 176.5218,45.9743802 C176.348344,45.7884298 176.120113,45.6950413 175.836276,45.6950413 C175.556589,45.6950413 175.330433,45.7884298 175.156977,45.9743802 C174.983936,46.1599174 174.897623,46.3995868 174.897623,46.6933884 M174.150269,46.6805785 C174.150269,46.2243802 174.313766,45.8371901 174.640759,45.5169421 C174.967752,45.1971074 175.36612,45.0371901 175.836276,45.0371901 C176.308093,45.0371901 176.70895,45.1987603 177.038018,45.5202479 C177.362936,45.8421488 177.525188,46.2376033 177.525188,46.7061983 C177.525188,47.1801653 177.361691,47.5764463 177.034698,47.8958678 C176.70563,48.2140496 176.301868,48.3727273 175.822997,48.3727273 C175.349106,48.3727273 174.951569,48.2107438 174.6308,47.8863636 C174.310446,47.5665289 174.150269,47.164876 174.150269,46.6805785" id="Fill-127" fill="#3A5F76" sketch:type="MSShapeGroup" mask="url(#mask-2)"></path>
                <path d="M179.96191,45.1248347 L180.695569,45.1248347 L180.695569,45.4165702 C180.951603,45.1640909 181.23959,45.0372314 181.560359,45.0372314 C181.928433,45.0372314 182.215175,45.1525207 182.420998,45.3843388 C182.598603,45.5810331 182.687406,45.9016942 182.687406,46.3467355 L182.687406,48.2818595 L181.952916,48.2818595 L181.952916,46.5207025 C181.952916,46.2099587 181.90976,45.9950826 181.823032,45.8764876 C181.738379,45.7554132 181.585256,45.6950826 181.362005,45.6950826 C181.11925,45.6950826 180.947454,45.7748347 180.845372,45.9347521 C180.74578,46.0921901 180.695569,46.3678099 180.695569,46.7603719 L180.695569,48.2818595 L179.96191,48.2818595 L179.96191,45.1248347 Z" id="Fill-128" fill="#3A5F76" sketch:type="MSShapeGroup" mask="url(#mask-2)"></path>
            </g>
        </g>
    </g>
</svg>