<?xml version="1.0" encoding="UTF-8"?>
<svg width="329px" height="98px" viewBox="0 0 329 98" version="1.1" xmlns="http://www.w3.org/2000/svg" xmlns:xlink="http://www.w3.org/1999/xlink">
    <!-- Generator: Sketch 60.1 (88133) - https://sketch.com -->
    <title>oeg-mainH-RGB</title>
    <desc>Created with Sketch.</desc>
    <g id="2020" stroke="none" stroke-width="1" fill="none" fill-rule="evenodd">
        <g id="home-after-week" transform="translate(-70.000000, -1440.000000)" fill-rule="nonzero">
            <g id="oeg-mainH-RGB" transform="translate(69.000000, 1440.000000)">
                <path d="M75.43,97.76 C67.21,97.76 59.69,92.34 54.25,82.5 C49.25,73.5 46.52,61.57 46.52,48.97 C46.52,36.37 49.27,24.48 54.25,15.45 C59.69,5.61 67.21,0.19 75.43,0.19 C77.0247902,0.113292826 78.5323868,0.920446044 79.3527523,2.29020521 C80.1731178,3.65996437 80.1731178,5.37003563 79.3527523,6.73979479 C78.5323868,8.10955396 77.0247902,8.91670717 75.43,8.84 C70.52,8.84 65.7,12.67 61.86,19.62 C57.57,27.39 55.2,37.81 55.2,49 C55.2,60.19 57.57,70.59 61.86,78.36 C65.7,85.36 70.52,89.14 75.43,89.14 C80.34,89.14 85.16,85.28 89,78.33 C93.3,70.56 95.66,60.13 95.66,48.97 C95.66,46.5730842 97.6030842,44.63 100,44.63 C102.396916,44.63 104.34,46.5730842 104.34,48.97 C104.34,61.57 101.6,73.47 96.61,82.5 C91.17,92.34 83.65,97.76 75.43,97.76 Z" id="Path" fill="#0D6AE5"></path>
                <path d="M12.39,71.05 C12.3497827,70.9812963 12.3446909,70.897546 12.3762886,70.8244762 C12.4078864,70.7514063 12.4723957,70.6977538 12.55,70.68 C28.3828915,66.3587505 44.6183729,63.6779693 61,62.68 C65.82,62.39 70.72,62.24 75.57,62.24 C87.9581413,62.2405114 100.327915,63.1933183 112.57,65.09 L116.86,65.75 L115.52,74.3 L111.23,73.64 C99.4483314,71.8093779 87.5430404,70.8899859 75.62,70.89 C70.95,70.89 66.23,71.03 61.62,71.32 C46.395513,72.2442848 31.3009759,74.6829938 16.56,78.6 C16.4012867,78.6375328 16.2371679,78.5636793 16.16,78.42 L12.39,71.05 Z" id="Path" fill="#0D6AE5"></path>
                <path d="M1,53.47 C0.967044497,53.4056822 0.96353435,53.3302501 0.990374468,53.2631498 C1.01721458,53.1960495 1.07177858,53.143847 1.14,53.12 C4.39,52.12 7.71,51.12 11.05,50.12 L11.05,50.12 L12.41,49.74 C28.3210498,45.4308678 44.6339429,42.7734881 61.09,41.81 C65.65,41.54 70.29,41.41 74.89,41.41 C81.43,41.41 88.08,41.68 94.65,42.22 L95.48,42.29 L97.37,42.45 L97.51,42.45 C101.64,42.84 105.91,43.35 110.21,43.98 L112.83,44.35 L112.83,44.35 C113.816667,44.5033333 114.816667,44.6633333 115.83,44.83 L115.89,44.83 C117.44,45.1 118.99,45.38 120.48,45.66 L123.98,46.18 C124.322833,46.2540429 124.557947,46.5703774 124.53,46.92 L123.93,55.1 L118.84,54.16 C117.39,53.88 115.84,53.61 114.17,53.32 L111.27,52.86 C109.91,52.65 108.47,52.43 106.73,52.19 L102.73,51.67 L99.8,51.36 C91.5618346,50.496542 83.2832572,50.0759369 75,50.1 C66.6485468,50.1035529 58.3032718,50.5541977 50,51.45 C34.9182214,53.0958727 20.0359418,56.2277501 5.57,60.8 C5.39336886,60.8571266 5.2009514,60.7818328 5.11,60.62 L1,53.47 Z" id="Path" fill="#0D6AE5"></path>
                <path d="M86.53,22.47 C86.5382982,22.3834406 86.5110129,22.2972314 86.4544225,22.2312093 C86.3978321,22.1651871 86.3168102,22.1250379 86.23,22.12 C82.46,21.95 78.66,21.86 74.91,21.86 C70.29,21.86 65.62,21.99 61.03,22.26 C44.6285162,23.2157536 28.3692466,25.859728 12.51,30.15 C12.4685879,30.1604872 12.4342301,30.1893081 12.4166996,30.2282648 C12.3991691,30.2672215 12.4003845,30.3120504 12.42,30.35 L16.26,38 C16.3021299,38.0734372 16.3877663,38.1101385 16.47,38.09 C31.2182083,34.206942 46.3156586,31.7984515 61.54,30.9 C65.96,30.64 70.45,30.51 74.9,30.51 C76.9,30.51 82.07,30.61 84.79,30.67 C85.2450455,30.6828884 85.6330899,30.3428045 85.68,29.89 L86.53,22.47 Z" id="Path" fill="#0D6AE5"></path>
                <path d="M79.48,97.83 C61.5555256,99.3268714 44.2517574,90.8828661 34.4020724,75.83258 C24.5523874,60.7822939 23.7402766,41.5452958 32.2864481,25.7184086 C40.8326196,9.89152132 57.3631426,0.0191646308 75.35,-6.798477e-05 C91.8708568,-0.0274105585 107.303527,8.23539637 116.44,22 C116.515103,22.1137994 116.54151,22.2529334 116.513327,22.3863366 C116.485143,22.5197399 116.404715,22.6363029 116.29,22.71 L109.62,27 C109.376659,27.1584031 109.051165,27.0915208 108.89,26.85 C101.242838,15.4501125 88.329126,8.71461071 74.604234,8.96731531 C60.8793419,9.2200199 48.2223286,16.4263334 41,28.1 C38.7609989,31.6233994 37.137835,35.5020847 36.2,39.57 C32.928668,53.1602955 36.9891468,67.472441 46.91,77.32 C56.8401289,87.2122908 71.186328,91.2539001 84.82,88 C88.9043907,87.080393 92.8030829,85.4742535 96.35,83.25 C108.293998,75.9678225 115.581145,62.9888956 115.58,49 L115.58,46.32 L122.18,45.97 L124.37,46.29 C124.483041,46.3090621 124.566819,46.405407 124.57,46.52 L124.57,49 C124.519686,74.5235317 104.918713,95.7503119 79.48,97.83 Z" id="Path" fill="#0D6AE5"></path>
                <g id="Type_2-link" transform="translate(135.760000, 25.340000)" fill="#333333">
                    <g id="Type_2">
                        <path d="M17.29,57.095 C12.9696831,57.2343473 8.76945741,55.6601163 5.605,52.7155 C2.5175098,49.8431271 0.820620437,45.7775187 0.95,41.5625 L0.95,41.477 C0.870031196,37.302962 2.54089025,33.2860101 5.5575,30.4 C8.63213981,27.388046 12.7974561,25.7527737 17.1,25.8685 C21.5614605,25.7726391 25.9002806,27.3328544 29.279,30.248 L24.4055,36.1 C22.4135391,34.3046115 19.8383349,33.2920804 17.157,33.25 C15.0719338,33.2119815 13.0751477,34.0905674 11.6945,35.6535 C10.2249569,37.2491863 9.43741226,39.356124 9.5,41.5245 L9.5,41.61 C9.42105854,43.8345437 10.2510915,45.9953733 11.799,47.595 C13.3374711,49.1574087 15.4594917,50.004839 17.651,49.932 C19.3407984,49.9984143 21.0127209,49.5655648 22.458,48.6875 L22.458,45.0395 L16.5205,45.0395 L16.5205,38.95 L30.324,38.95 L30.324,52.459 C26.6747265,55.5153835 22.0496631,57.1604498 17.29,57.095 Z" id="Path"></path>
                        <path d="M38.3515,53.086 L38.3515,26.486 L46.664,26.486 L46.664,49.2005 L61.2085,49.2005 L61.2085,56.487 L41.8,56.487 C40.889797,56.4997136 40.0124863,56.1470154 39.3643646,55.507821 C38.7162429,54.8686266 38.3515,53.9962918 38.3515,53.086 Z" id="Path"></path>
                        <path d="M92.1975,52.5445 C89.1213811,55.5682101 84.9478328,57.2108803 80.636,57.095 C76.3464212,57.2159946 72.1913814,55.5910038 69.122,52.592 C66.1078443,49.724007 64.4361805,45.7223539 64.5145,41.5625 L64.5145,41.477 C64.4386056,37.2941892 66.128487,33.2729612 69.1695,30.4 C72.2527806,27.3774789 76.4342074,25.7412684 80.75,25.8685 C85.0371784,25.7602615 89.1849576,27.3953777 92.245,30.4 C95.2678116,33.2500274 96.9564844,37.2373629 96.9,41.3915 L96.9,41.477 C96.9609333,45.663763 95.2535606,49.682125 92.1975,52.5445 Z M75.2115,47.2055 C76.6392614,48.715997 78.6233626,49.5758342 80.7018292,49.5848795 C82.7802958,49.5937829 84.7717481,48.7511114 86.2125,47.253 C87.643037,45.7050263 88.4133021,43.6600748 88.3595,41.553 L88.3595,41.4675 C88.394016,39.356726 87.6111033,37.3143449 86.1745,35.7675 C84.7652707,34.2018093 82.7418431,33.3306595 80.636,33.383 C78.5597715,33.3190994 76.5610573,34.1742015 75.1735,35.72 C73.7559081,37.2746424 72.9935318,39.3167218 73.0455,41.42 L73.0455,41.5055 C73.0087819,43.6131441 73.7843543,45.6541242 75.2115,47.2055 L75.2115,47.2055 Z" id="Shape"></path>
                        <path d="M103.151,56.487 L103.151,26.467 L118.5505,26.467 C122.208,26.467 124.944,27.3695 126.7395,29.1745 C128.015239,30.4574903 128.703012,32.2113133 128.6395,34.0195 L128.6395,34.105 C128.6395,37.221 127.094167,39.4376667 124.0035,40.755 C125.698332,41.2281862 127.232136,42.1543803 128.44,43.434 C129.510409,44.741782 130.055649,46.401206 129.9695,48.089 L129.9695,48.1745 C130.052428,50.5738798 128.924624,52.8544722 126.9675,54.245 C124.966167,55.7143333 122.176333,56.449 118.598,56.449 L103.151,56.487 Z M111.264,38.437 L116.489,38.437 C119.123667,38.437 120.441,37.563 120.441,35.815 L120.441,35.7295 C120.441,34.0195 119.1775,33.1645 116.641,33.1645 L111.2355,33.1645 L111.264,38.437 Z M111.264,49.837 L117.6955,49.837 C118.721551,49.8931995 119.741714,49.6488886 120.631,49.134 C121.320572,48.689009 121.72205,47.9113727 121.6855,47.0915 L121.6855,47.006 C121.6855,45.2073333 120.327,44.308 117.61,44.308 L111.264,44.308 L111.264,49.837 Z" id="Shape"></path>
                        <path d="M133.209,56.487 L145.9865,26.258 L154.014,26.258 L166.7915,56.487 L157.871,56.487 L155.686,51.129 L144.1055,51.129 L141.9585,56.487 L133.209,56.487 Z M146.509,44.65 L153.2445,44.65 L149.9005,36.1 L146.509,44.65 Z" id="Shape"></path>
                        <path d="M171.1995,53.086 L171.1995,26.486 L179.55,26.486 L179.55,49.2005 L194.085,49.2005 L194.085,56.487 L174.6005,56.487 C172.72218,56.487 171.1995,54.9643204 171.1995,53.086 Z" id="Path"></path>
                        <path d="M17.4325,15.409 C15.7175364,17.1565489 13.353661,18.1131098 10.906,18.05 C8.47273244,18.1262064 6.11667762,17.1906635 4.3985,15.466 C2.6876985,13.8011248 1.75082749,11.4968355 1.8145,9.1105 L1.8145,9.063 C1.76788249,6.67695598 2.71403518,4.37866507 4.427,2.717 C6.1487508,0.982814637 8.51069103,0.0373509356 10.9535,0.1045 C13.3855665,0.0351251265 15.7390099,0.969631122 17.461,2.6885 C19.1557483,4.35242282 20.0903794,6.64089439 20.045,9.0155 L20.045,9.0155 C20.1014368,11.4172896 19.1547767,13.734025 17.4325,15.409 Z M7.2295,12.9295 C8.18310573,13.9707605 9.54211538,14.5462595 10.9535,14.5065 C12.354926,14.5581547 13.7075539,13.9878951 14.649,12.9485 C15.6098855,11.9194582 16.1313623,10.5561204 16.1025,9.1485 L16.1025,9.063 C16.135122,7.63421006 15.6064909,6.24953749 14.63,5.206 C13.6781246,4.16122771 12.3188771,3.58216055 10.906,3.6195 C9.50367721,3.57792151 8.15218161,4.14624274 7.201,5.1775 C6.24872231,6.21122691 5.73154007,7.5722328 5.757,8.9775 L5.757,8.9775 C5.70113965,10.4384937 6.23125727,11.861261 7.2295,12.9295 L7.2295,12.9295 Z" id="Shape"></path>
                        <path d="M22.933,20.7005 L22.933,3.648 L26.657,3.648 L26.657,5.548 C27.5782682,4.19652467 29.1160472,3.39730772 30.7515,3.42 C32.3482632,3.40427419 33.878403,4.05906377 34.9695,5.225 C36.1912173,6.5786693 36.8236306,8.36310012 36.727,10.184 L36.727,10.184 C36.8395302,12.0226143 36.2098467,13.8295322 34.979,15.2 C33.8932375,16.3813739 32.3558992,17.0446749 30.7515,17.024 C29.1546922,17.0428334 27.6405199,16.3156091 26.657,15.0575 L26.657,20.7005 L22.933,20.7005 Z M27.55,12.844 C28.1166095,13.5000534 28.9442144,13.8721279 29.811,13.8605 C30.6820593,13.8762229 31.5159257,13.5079319 32.091,12.8535 C32.7415226,12.1392648 33.0830442,11.1966652 33.041,10.2315 L33.041,10.2315 C33.0779845,9.27281821 32.7368057,8.33798831 32.091,7.6285 C31.5202886,6.9659356 30.685387,6.59022988 29.811,6.6025 C28.946747,6.58348363 28.11859,6.948847 27.55,7.6 C26.9077122,8.31161207 26.5670744,9.24495966 26.6,10.203 L26.6,10.203 C26.5601114,11.1735405 26.901016,12.1212554 27.55,12.844 L27.55,12.844 Z" id="Shape"></path>
                        <path d="M45.6,17.1 C43.7668701,17.1613499 41.9874175,16.4756263 40.6695,15.2 C39.3839078,13.9078776 38.6953233,12.1382154 38.7695,10.317 L38.7695,10.26 C38.7264188,8.46609725 39.3880546,6.72674558 40.6125,5.415 C41.7988889,4.10390987 43.5000568,3.37830971 45.2675,3.4295 C47.087963,3.31404627 48.8537204,4.07685346 50.0175,5.4815 C51.1357409,6.93143487 51.7165707,8.72428536 51.661,10.5545 C51.661,10.754 51.661,11.077 51.661,11.5045 L42.465,11.5045 C42.5975651,12.2476838 42.9877401,12.9203993 43.567,13.4045 C44.1733581,13.8597001 44.9184389,14.0912793 45.676,14.06 C46.8729737,14.0464295 48.0163931,13.5617562 48.8585,12.711 L50.9865,14.611 C49.6937566,16.2561049 47.6906654,17.1816956 45.6,17.1 Z M42.4175,9.177 L48.0225,9.177 C47.9496729,8.42133283 47.6367176,7.70886014 47.1295,7.144 C46.6351166,6.62894387 45.9427129,6.3519824 45.2295,6.384 C44.51917,6.35797202 43.8303011,6.63007523 43.3295,7.1345 C42.8174698,7.70196335 42.4982193,8.41695134 42.4175,9.177 Z" id="Shape"></path>
                        <path d="M54.321,16.777 L54.321,3.648 L58.045,3.648 L58.045,5.548 C58.9065334,4.25930258 60.3426977,3.47207178 61.8925,3.439 C63.1244041,3.36814274 64.3255595,3.84027319 65.1795,4.731 C66.0083343,5.73435368 66.4289116,7.01304421 66.3575,8.3125 L66.3575,16.8625 L62.6335,16.8625 L62.6335,9.5 C62.680587,8.78906356 62.4716527,8.0847529 62.0445,7.5145 C61.6187656,7.04612123 61.004445,6.79480827 60.3725,6.8305 C59.7330293,6.79953387 59.1119216,7.04936492 58.672,7.5145 C58.220067,8.07356882 57.996107,8.78277561 58.045,9.5 L58.045,16.8245 L54.321,16.777 Z" id="Path"></path>
                        <polygon id="Path" points="75.4395 16.777 75.4395 0.6935 87.571 0.6935 87.571 3.8 78.9545 3.8 78.9545 7.106 86.5545 7.106 86.5545 10.2505 78.9545 10.2505 78.9545 13.6325 87.685 13.6325 87.685 16.777"></polygon>
                        <path d="M95.6175,17.005 C94.1173197,17.0210166 92.6808547,16.3994692 91.6655,15.295 C90.5115325,14.0278476 89.9128321,12.3514865 90.003,10.64 L90.003,10.64 C89.9150656,8.93224744 90.5058313,7.25898043 91.6465,5.985 C92.6684278,4.87858054 94.1114512,4.25718292 95.6175,4.275 C97.1003335,4.27163471 98.5020638,4.95147395 99.4175,6.118 L99.4175,0 L102.904,0 L102.904,16.777 L99.4175,16.777 L99.4175,15.01 C98.5625118,16.266784 97.1375042,17.014913 95.6175,17.005 Z M94.373,13.091 C94.9139072,13.7012291 95.6902991,14.0505298 96.50575,14.0505298 C97.3212009,14.0505298 98.0975928,13.7012291 98.6385,13.091 C99.2266956,12.4129806 99.5356639,11.5370047 99.503,10.64 L99.503,10.64 C99.5361056,9.7457955 99.2269295,8.87262786 98.6385,8.1985 C98.1038183,7.58371974 97.3251691,7.23610849 96.5105,7.2485 C95.693326,7.23719172 94.912197,7.58436017 94.373,8.1985 C93.776543,8.87601976 93.4635954,9.7570352 93.499,10.659 L93.499,10.659 C93.4699834,11.5513895 93.7825791,12.4212209 94.373,13.091 L94.373,13.091 Z" id="Shape"></path>
                        <path d="M110.485,17.005 C109.329673,17.0747097 108.202737,16.6295005 107.407,15.789 C106.622529,14.8542261 106.22792,13.6533896 106.305,12.4355 L106.305,4.4555 L109.7915,4.4555 L109.7915,11.3335 C109.742415,12.0123074 109.937865,12.6862713 110.3425,13.2335 C110.741563,13.6722205 111.318047,13.9063079 111.91,13.87 C112.509493,13.9015056 113.092717,13.6689102 113.506,13.2335 C113.938029,12.6987635 114.148804,12.0188446 114.095,11.3335 L114.095,4.4555 L117.591,4.4555 L117.591,16.8055 L114.095,16.8055 L114.095,15.029 C113.281733,16.2323846 111.936965,16.9684682 110.485,17.005 Z" id="Path"></path>
                        <path d="M126.844,17.1 C125.142274,17.1309034 123.500479,16.4717941 122.292513,15.272776 C121.084547,14.073758 120.41325,12.4369086 120.4315,10.735 L120.4315,10.64 C120.490494,7.96156346 122.166676,5.58600899 124.670348,4.63252713 C127.17402,3.67904526 130.005778,4.33782631 131.8315,6.2985 L129.675,8.5975 C128.977826,7.76507002 127.957853,7.27064233 126.8725,7.239 C126.052635,7.21428511 125.266049,7.56387865 124.735,8.189 C124.166395,8.84411696 123.861654,9.68723201 123.88,10.5545 L123.88,10.5545 C123.848886,11.4426684 124.158116,12.3091938 124.7445,12.977 C125.316413,13.6183269 126.147156,13.9673788 127.0055,13.927 C128.091133,13.8826039 129.115357,13.4114611 129.8555,12.616 L131.898,14.687 C131.284075,15.3704179 130.553967,15.9397089 129.7415,16.3685 C128.845864,16.8347884 127.853639,17.0852845 126.844,17.1 L126.844,17.1 Z" id="Path"></path>
                        <path d="M137.9685,17.005 C136.880777,17.0560473 135.810239,16.7194 134.9475,16.055 C134.132394,15.3708309 133.685682,14.3437439 133.741,13.281 L133.741,13.281 C133.66604,12.1347993 134.17309,11.0278603 135.09,10.336 C136.164217,9.64121658 137.432538,9.308324 138.7095,9.386 C139.734129,9.38782424 140.751503,9.55792142 141.721,9.8895 L141.721,9.6805 C141.721,8.1795 140.8375,7.429 139.0705,7.429 C137.907005,7.45323308 136.756433,7.67820527 135.6695,8.094 L134.7955,5.434 C136.296417,4.79328058 137.913608,4.46984237 139.5455,4.484 C141.048818,4.30805214 142.559496,4.74652552 143.735,5.7 C144.696141,6.77524312 145.179556,8.19463154 145.0745,9.633 L145.0745,16.777 L141.6925,16.777 L141.6925,15.447 C140.744568,16.4942099 139.37974,17.065209 137.9685,17.005 Z M139.023,14.592 C139.73528,14.6254367 140.437073,14.4105336 141.0085,13.984 C141.491465,13.6171923 141.770306,13.0418625 141.759,12.4355 L141.759,11.8085 C141.060355,11.4954793 140.301458,11.3398083 139.536,11.3525 C138.913556,11.3183017 138.295048,11.470448 137.7595,11.7895 C137.339958,12.0694784 137.098283,12.5492221 137.123,13.053 L137.123,13.053 C137.106816,13.4809516 137.302198,13.8894766 137.6455,14.1455 C138.042304,14.4432492 138.526978,14.6003504 139.023,14.592 L139.023,14.592 Z" id="Shape"></path>
                        <path d="M152.4465,16.986 C151.48981,17.0463846 150.544916,16.7483534 149.796,16.15 C149.095261,15.3743327 148.75081,14.340977 148.846,13.3 L148.846,7.448 L147.3735,7.448 L147.3735,4.4555 L148.846,4.4555 L148.846,1.311 L152.342,1.311 L152.342,4.4555 L155.2395,4.4555 L155.2395,7.448 L152.342,7.448 L152.342,12.711 C152.342,13.509 152.7125,13.908 153.463,13.908 C154.066611,13.90762 154.660696,13.7574667 155.192,13.471 L155.192,16.2735 C154.358543,16.7559789 153.409397,17.0022972 152.4465,16.986 Z" id="Path"></path>
                        <path d="M158.65,3.1065 L158.65,0 L162.3265,0 L162.3265,3.1065 L158.65,3.1065 Z M158.745,16.777 L158.745,4.427 L162.2315,4.427 L162.2315,16.777 L158.745,16.777 Z" id="Shape"></path>
                        <path d="M176.434,15.2 C173.746382,17.6633213 169.621618,17.6633213 166.934,15.2 C165.693275,14.030643 165.003386,12.3921576 165.034,10.6875 L165.034,10.64 C164.997368,8.92311522 165.687364,7.27057338 166.934,6.0895 C169.618084,3.61710855 173.749916,3.61710855 176.434,6.0895 C177.672744,7.26023128 178.362246,8.89779932 178.334,10.602 L178.334,10.602 C178.380568,12.3346089 177.69005,14.0056627 176.434,15.2 L176.434,15.2 Z M171.684,14.0505 C172.558413,14.0880435 173.405434,13.7409035 174.002,13.1005 C174.587496,12.4428744 174.900079,11.5866691 174.876,10.7065 L174.876,10.64 C174.882869,9.74597661 174.542257,8.88422868 173.926,8.2365 C173.314415,7.60856054 172.475052,7.25437996 171.5985,7.25437996 C170.721948,7.25437996 169.882585,7.60856054 169.271,8.2365 C168.684412,8.88969279 168.371481,9.74344951 168.397,10.621 L168.397,10.621 C168.388125,11.5153964 168.729024,12.377871 169.347,13.0245 C169.944419,13.6991925 170.811855,14.0719459 171.7125,14.041 L171.684,14.0505 Z" id="Shape"></path>
                        <path d="M180.899,16.777 L180.899,4.427 L184.395,4.427 L184.395,6.2035 C185.210446,5.00251094 186.553878,4.26715835 188.005,4.2275 C189.159068,4.1656075 190.282839,4.60956641 191.083,5.4435 C191.859578,6.3863598 192.252974,7.58689451 192.185,8.8065 L192.185,16.777 L188.689,16.777 L188.689,9.9085 C188.746898,9.22879191 188.550563,8.55177418 188.138,8.0085 C187.747936,7.56183091 187.171688,7.32289911 186.58,7.3625 C185.979019,7.33343138 185.395562,7.5695926 184.984,8.0085 C184.54572,8.5398815 184.334144,9.22238647 184.395,9.9085 L184.395,16.777 L180.899,16.777 Z" id="Path"></path>
                    </g>
                </g>
            </g>
        </g>
    </g>
</svg>