<?xml version="1.0" encoding="UTF-8"?>
<svg width="349px" height="174px" viewBox="0 0 349 174" version="1.1" xmlns="http://www.w3.org/2000/svg" xmlns:xlink="http://www.w3.org/1999/xlink">
    <!-- Generator: Sketch 54.1 (76490) - https://sketchapp.com -->
    <title>hero-graphic</title>
    <desc>Created with Sketch.</desc>
    <defs>
        <linearGradient x1="22.681264%" y1="11.2856658%" x2="89.0273327%" y2="82.3008662%" id="linearGradient-1">
            <stop stop-color="#FFFFFF" stop-opacity="0" offset="0%"></stop>
            <stop stop-color="#E1F2F1" offset="100%"></stop>
        </linearGradient>
        <path d="M11.0612378,1.23517787 L23.8612378,1.23517787 C29.1631714,1.23517787 33.4612378,5.53324427 33.4612378,10.8351779 L33.4612378,26.0351779 C33.4612378,31.3371115 29.1631714,35.6351779 23.8612378,35.6351779 L11.0612378,35.6351779 C5.75930419,35.6351779 1.46123779,31.3371115 1.46123779,26.0351779 L1.46123779,10.8351779 C1.46123779,5.53324427 5.75930419,1.23517787 11.0612378,1.23517787 Z" id="path-2"></path>
        <linearGradient x1="50%" y1="3.061617e-15%" x2="50%" y2="100%" id="linearGradient-4">
            <stop stop-color="#FFFFFF" stop-opacity="0" offset="0%"></stop>
            <stop stop-color="#E1F2F1" offset="100%"></stop>
        </linearGradient>
    </defs>
    <g id="2019-after" stroke="none" stroke-width="1" fill="none" fill-rule="evenodd">
        <g id="home-after-week" transform="translate(-575.000000, -163.000000)">
            <g id="hero-graphic" transform="translate(575.000000, 163.000000)">
                <g id="Group-6" transform="translate(0.000000, 4.800000)">
                    <rect id="Rectangle" fill="#E1F2F1" fill-rule="nonzero" x="0" y="0" width="193.6" height="162.4" rx="4.8"></rect>
                    <polyline id="Line" stroke="#FFFFFF" stroke-width="1.6" stroke-linecap="square" stroke-linejoin="round" fill-rule="nonzero" points="64 90.8 95.7640625 74 127.528125 90.8"></polyline>
                    <text id="6,494" font-family="Montserrat-Bold, Montserrat" font-size="24.9584" font-weight="bold" fill="#DC765A">
                        <tspan x="93.8201368" y="48.2">6,494</tspan>
                    </text>
                    <g id="org" transform="translate(40.000000, 33.600000)">
                        <path d="M11.8612378,0.435177866 L23.8612378,0.435177866 C30.046827,0.435177866 35.0612378,5.44958867 35.0612378,11.6351779 L35.0612378,26.0351779 C35.0612378,32.2207671 30.046827,37.2351779 23.8612378,37.2351779 L11.8612378,37.2351779 C5.67564859,37.2351779 0.661237785,32.2207671 0.661237785,26.0351779 L0.661237785,11.6351779 C0.661237785,5.44958867 5.67564859,0.435177866 11.8612378,0.435177866 Z" id="Rectangle-path" fill="url(#linearGradient-1)" fill-rule="nonzero"></path>
                        <mask id="mask-3" fill="white">
                            <use xlink:href="#path-2"></use>
                        </mask>
                        <use id="Rectangle-path" fill="#20AAA3" fill-rule="nonzero" xlink:href="#path-2"></use>
                        <g id="Group-5" mask="url(#mask-3)" fill="#FFFFFF" fill-rule="nonzero">
                            <g transform="translate(0.800000, 8.800000)">
                                <path d="M7.2,5.6 L24.8,5.6 L24.8,14.4034916 C21.8666667,15.4678305 18.9333333,16 16,16 C13.0666667,16 10.1333333,15.4678305 7.2,14.4034916 L7.2,5.6 Z" id="Rectangle-8" stroke="none"></path>
                                <path d="M-2.13322534,3.41476755 L16.4492254,-0.625055211 L34.5143188,3.41517325 L16.4506968,10.1527912 L-2.13322534,3.41476755 Z" id="Rectangle-7" stroke="#20AAA3" stroke-width="1.6" stroke-linecap="round"></path>
                                <rect id="Rectangle-9" stroke="none" x="28.8" y="4" width="1" height="8.8"></rect>
                                <polygon id="Rectangle-9" stroke="none" points="27.9516528 16 30.4 16 29.7699603 12.8 28.5816926 12.8"></polygon>
                            </g>
                        </g>
                    </g>
                    <g id="user" transform="translate(13.600000, 18.400000)" fill-rule="nonzero">
                        <path d="M11.8612378,0.435177866 L23.8612378,0.435177866 C30.046827,0.435177866 35.0612378,5.44958867 35.0612378,11.6351779 L35.0612378,26.0351779 C35.0612378,32.2207671 30.046827,37.2351779 23.8612378,37.2351779 L11.8612378,37.2351779 C5.67564859,37.2351779 0.661237785,32.2207671 0.661237785,26.0351779 L0.661237785,11.6351779 C0.661237785,5.44958867 5.67564859,0.435177866 11.8612378,0.435177866 Z" id="Rectangle-path" fill="url(#linearGradient-4)"></path>
                        <path d="M11.0612378,1.23517787 L23.8612378,1.23517787 C29.1631714,1.23517787 33.4612378,5.53324427 33.4612378,10.8351779 L33.4612378,26.0351779 C33.4612378,31.3371115 29.1631714,35.6351779 23.8612378,35.6351779 L11.0612378,35.6351779 C5.75930419,35.6351779 1.46123779,31.3371115 1.46123779,26.0351779 L1.46123779,10.8351779 C1.46123779,5.53324427 5.75930419,1.23517787 11.0612378,1.23517787 Z" id="Rectangle-path" fill="#20AAA3"></path>
                        <path d="M11.6816837,16.1969756 C11.222784,15.2721662 11.0118055,14.2354442 11.0709919,13.1961113 C11.1364428,12.1509133 11.5914486,11.173822 12.338816,10.473553 C13.1724219,9.73301711 14.3032467,9.4716515 15.3945971,9.37968953 C16.4859475,9.28772756 17.593552,9.34338876 18.6686482,9.12316404 C20.4630293,8.74454301 22.0370116,7.63232679 23.0386938,6.03517787 C23.1465,6.90739989 23.1386867,7.79093121 23.0154736,8.66093413 C22.8529321,9.52247259 22.428002,10.3694907 21.7104972,10.8389808 C22.5789335,10.4203118 22.4860526,11.4028529 22.2956468,11.9909255 C22.7275429,12.5330171 23.7724528,12.622559 23.8258593,13.3243741 C23.9131651,14.0239478 23.8383178,14.735141 23.6075893,15.3983585 C23.3452008,16.0445124 23.6261654,17.1843568 22.9551011,17.2351779" id="Shape" stroke="#FFFFFF" stroke-width="0.8" fill="#FFFFFF"></path>
                        <path d="M20.2610898,25.7634506 L20.2610898,24.5320975 C24.1614146,23.5536851 26.7044634,19.9102016 26.1968881,16.027745 C25.6893128,12.1452885 22.2894759,9.23517787 18.2612378,9.23517787 C14.2329997,9.23517787 10.8331628,12.1452885 10.3255875,16.027745 C9.81801221,19.9102016 12.361061,23.5536851 16.2613858,24.5320975 L16.2613858,25.7634506 C12.8775597,26.6520231 10.523302,29.629475 10.5118113,33.0349917 L10.5118113,36.4351779 L26.0106643,36.4351779 L26.0106643,33.0349917 C25.9991736,29.629475 23.6449159,26.6520231 20.2610898,25.7634506 L20.2610898,25.7634506 Z" id="Shape" fill="#FFFFFF"></path>
                        <path d="M22.4,9.6 C22.4,9.6 26.8124916,9.95390565 23.6714414,16" id="Shape" fill="#FFFFFF"></path>
                    </g>
                    <text id="123" font-family="Montserrat-Bold, Montserrat" font-size="24.9584" font-weight="bold" fill="#20AAA3">
                        <tspan x="32.807656" y="121.8">123</tspan>
                    </text>
                    <text id="18" font-family="Montserrat-Bold, Montserrat" font-size="24.9584" font-weight="bold" fill="#20AAA3">
                        <tspan x="122.446923" y="121.8">18</tspan>
                    </text>
                    <path d="M89.3688,55.752 C91.5576,55.752 93.012,57.3504 93.012,59.7552 C93.012,62.1168 91.6008,63.6864 89.4264,63.6864 C88.4184,63.6864 87.5976,63.2832 87.0504,62.5632 L87.0504,66.3936 L84.5592,66.3936 L84.5592,55.8384 L87.0504,55.8384 L87.0504,56.8608 C87.5976,56.1552 88.3896,55.752 89.3688,55.752 Z M88.764,61.7136 C89.8008,61.7136 90.5064,60.8784 90.5064,59.6832 C90.5064,58.5024 89.8008,57.6672 88.764,57.6672 C87.756,57.6672 87.0504,58.5024 87.0504,59.6832 C87.0504,60.8928 87.756,61.7136 88.764,61.7136 Z M97.836,55.7232 C99.9672,55.7232 101.2056,56.7744 101.22,58.5312 L101.22,63.6 L98.7864,63.6 L98.7864,62.7072 C98.2824,63.3696 97.4616,63.7152 96.4104,63.7152 C94.7544,63.7152 93.7464,62.7072 93.7464,61.2816 C93.7464,59.8128 94.7976,58.9488 96.7272,58.9344 L98.772,58.9344 L98.772,58.8192 C98.772,58.056 98.268,57.5952 97.26,57.5952 C96.612,57.5952 95.7624,57.8256 94.9416,58.2432 L94.236,56.6016 C95.4456,56.04 96.54,55.7232 97.836,55.7232 Z M97.1736,62.0304 C97.9512,62.0304 98.6136,61.5984 98.772,60.9648 L98.772,60.2736 L97.2024,60.2736 C96.4536,60.2736 96.0792,60.5328 96.0792,61.1088 C96.0792,61.6704 96.4824,62.0304 97.1736,62.0304 Z M105.4824,55.8384 L105.4824,57.1488 C106.0152,56.2416 106.8936,55.7376 108.0024,55.7232 L108.0024,57.9696 C106.5624,57.84 105.612,58.5168 105.4824,59.6112 L105.4824,63.6 L102.9912,63.6 L102.9912,55.8384 L105.4824,55.8384 Z M113.6616,61.4544 L114.1512,63.1824 C113.5896,63.5136 112.8264,63.7152 112.0776,63.7152 C110.58,63.7152 109.5,62.8656 109.5,61.2528 L109.5,57.8256 L108.42,57.8256 L108.42,56.1984 L109.5,56.1984 L109.5,54.0384 L111.9768,54.0384 L111.9768,56.184 L114.0072,56.184 L114.0072,57.8256 L111.9768,57.8256 L111.9768,60.864 C111.9768,61.4688 112.236,61.728 112.6968,61.7136 C112.956,61.7136 113.2872,61.6128 113.6616,61.4544 Z M116.6568,52.296 C117.42,52.296 117.9672,52.8432 117.9672,53.6064 C117.9672,54.384 117.42,54.9312 116.6568,54.9312 C115.8936,54.9312 115.3464,54.384 115.3464,53.6064 C115.3464,52.8432 115.8936,52.296 116.6568,52.296 Z M117.8808,63.6 L115.404,63.6 L115.404,55.8384 L117.8808,55.8384 L117.8808,63.6 Z M123.2664,55.752 C124.8072,55.752 126.0456,56.3856 126.7224,57.4944 L124.9368,58.5744 C124.5768,58.0704 124.044,57.768 123.3672,57.768 C122.4024,57.768 121.74,58.56 121.74,59.7264 C121.74,60.9216 122.4024,61.6992 123.3672,61.6992 C124.0728,61.6992 124.62,61.4112 124.9512,60.8208 L126.7656,61.8864 C126.132,63.024 124.8792,63.6864 123.2376,63.6864 C120.8472,63.6864 119.2344,62.1024 119.2344,59.7408 C119.2344,57.3504 120.8616,55.752 123.2664,55.752 Z M129.228,52.296 C129.9912,52.296 130.5384,52.8432 130.5384,53.6064 C130.5384,54.384 129.9912,54.9312 129.228,54.9312 C128.4648,54.9312 127.9176,54.384 127.9176,53.6064 C127.9176,52.8432 128.4648,52.296 129.228,52.296 Z M130.452,63.6 L127.9752,63.6 L127.9752,55.8384 L130.452,55.8384 L130.452,63.6 Z M137.3352,55.752 C139.524,55.752 140.9784,57.3504 140.9784,59.7552 C140.9784,62.1168 139.5672,63.6864 137.3928,63.6864 C136.3848,63.6864 135.564,63.2832 135.0168,62.5632 L135.0168,66.3936 L132.5256,66.3936 L132.5256,55.8384 L135.0168,55.8384 L135.0168,56.8608 C135.564,56.1552 136.356,55.752 137.3352,55.752 Z M136.7304,61.7136 C137.7672,61.7136 138.4728,60.8784 138.4728,59.6832 C138.4728,58.5024 137.7672,57.6672 136.7304,57.6672 C135.7224,57.6672 135.0168,58.5024 135.0168,59.6832 C135.0168,60.8928 135.7224,61.7136 136.7304,61.7136 Z M145.8024,55.7232 C147.9336,55.7232 149.172,56.7744 149.1864,58.5312 L149.1864,63.6 L146.7528,63.6 L146.7528,62.7072 C146.2488,63.3696 145.428,63.7152 144.3768,63.7152 C142.7208,63.7152 141.7128,62.7072 141.7128,61.2816 C141.7128,59.8128 142.764,58.9488 144.6936,58.9344 L146.7384,58.9344 L146.7384,58.8192 C146.7384,58.056 146.2344,57.5952 145.2264,57.5952 C144.5784,57.5952 143.7288,57.8256 142.908,58.2432 L142.2024,56.6016 C143.412,56.04 144.5064,55.7232 145.8024,55.7232 Z M145.14,62.0304 C145.9176,62.0304 146.58,61.5984 146.7384,60.9648 L146.7384,60.2736 L145.1688,60.2736 C144.42,60.2736 144.0456,60.5328 144.0456,61.1088 C144.0456,61.6704 144.4488,62.0304 145.14,62.0304 Z M156.0408,55.7232 C157.7544,55.7232 158.8776,56.8896 158.8776,58.704 L158.8776,63.6 L156.4008,63.6 L156.4008,59.3952 C156.4008,58.488 155.868,57.9264 155.0328,57.9264 C154.1256,57.9264 153.5496,58.5744 153.4488,59.496 L153.4488,63.6 L150.9576,63.6 L150.9576,55.8384 L153.4488,55.8384 L153.4488,57.1056 C153.996,56.1984 154.8888,55.7376 156.0408,55.7232 Z M165.1704,61.4544 L165.66,63.1824 C165.0984,63.5136 164.3352,63.7152 163.5864,63.7152 C162.0888,63.7152 161.0088,62.8656 161.0088,61.2528 L161.0088,57.8256 L159.9288,57.8256 L159.9288,56.1984 L161.0088,56.1984 L161.0088,54.0384 L163.4856,54.0384 L163.4856,56.184 L165.516,56.184 L165.516,57.8256 L163.4856,57.8256 L163.4856,60.864 C163.4856,61.4688 163.7448,61.728 164.2056,61.7136 C164.4648,61.7136 164.796,61.6128 165.1704,61.4544 Z M169.692,55.7232 C170.8152,55.7232 171.9384,56.04 172.8888,56.6016 L172.0392,58.2144 C171.1032,57.7104 170.2392,57.4368 169.5912,57.4368 C169.1448,57.4368 168.828,57.6096 168.828,57.9696 C168.828,59.0352 172.9176,58.5168 172.9032,61.224 C172.9032,62.8224 171.5064,63.7008 169.6344,63.7008 C168.3384,63.7008 167.0856,63.3264 166.1496,62.6064 L166.9416,61.0224 C167.82,61.6416 168.828,61.9872 169.692,61.9872 C170.1816,61.9872 170.5416,61.8144 170.5416,61.4544 C170.5416,60.3168 166.524,60.9072 166.5384,58.1856 C166.5384,56.5872 167.892,55.7232 169.692,55.7232 Z" id="participants" fill="#20AAA3" fill-rule="nonzero"></path>
                    <path d="M22.052,127.752 C23.5928,127.752 24.8312,128.3856 25.508,129.4944 L23.7224,130.5744 C23.3624,130.0704 22.8296,129.768 22.1528,129.768 C21.188,129.768 20.5256,130.56 20.5256,131.7264 C20.5256,132.9216 21.188,133.6992 22.1528,133.6992 C22.8584,133.6992 23.4056,133.4112 23.7368,132.8208 L25.5512,133.8864 C24.9176,135.024 23.6648,135.6864 22.0232,135.6864 C19.6328,135.6864 18.02,134.1024 18.02,131.7408 C18.02,129.3504 19.6472,127.752 22.052,127.752 Z M30.3608,127.752 C32.8952,127.752 34.5944,129.3216 34.5944,131.712 C34.5944,134.1024 32.8952,135.6864 30.3608,135.6864 C27.812,135.6864 26.1128,134.1024 26.1128,131.712 C26.1128,129.3216 27.812,127.752 30.3608,127.752 Z M30.3608,129.7248 C29.324,129.7248 28.6184,130.5456 28.6184,131.7408 C28.6184,132.9504 29.324,133.7568 30.3608,133.7568 C31.3832,133.7568 32.0888,132.9504 32.0888,131.7408 C32.0888,130.5456 31.3832,129.7248 30.3608,129.7248 Z M43.4936,127.8384 L43.4936,135.6 L41.0024,135.6 L41.0024,134.3184 C40.4696,135.24 39.6056,135.7008 38.4824,135.7008 C36.7976,135.7008 35.7032,134.5488 35.7032,132.7344 L35.7032,127.8384 L38.1944,127.8384 L38.1944,132.0288 C38.1944,132.9504 38.6984,133.512 39.4904,133.512 C40.4408,133.4976 41.0024,132.72 41.0024,131.6688 L41.0024,127.8384 L43.4936,127.8384 Z M50.564,127.7232 C52.2776,127.7232 53.4008,128.8896 53.4008,130.704 L53.4008,135.6 L50.924,135.6 L50.924,131.3952 C50.924,130.488 50.3912,129.9264 49.556,129.9264 C48.6488,129.9264 48.0728,130.5744 47.972,131.496 L47.972,135.6 L45.4808,135.6 L45.4808,127.8384 L47.972,127.8384 L47.972,129.1056 C48.5192,128.1984 49.412,127.7376 50.564,127.7232 Z M59.6936,133.4544 L60.1832,135.1824 C59.6216,135.5136 58.8584,135.7152 58.1096,135.7152 C56.612,135.7152 55.532,134.8656 55.532,133.2528 L55.532,129.8256 L54.452,129.8256 L54.452,128.1984 L55.532,128.1984 L55.532,126.0384 L58.0088,126.0384 L58.0088,128.184 L60.0392,128.184 L60.0392,129.8256 L58.0088,129.8256 L58.0088,132.864 C58.0088,133.4688 58.268,133.728 58.7288,133.7136 C58.988,133.7136 59.3192,133.6128 59.6936,133.4544 Z M63.9272,127.8384 L63.9272,129.1488 C64.46,128.2416 65.3384,127.7376 66.4472,127.7232 L66.4472,129.9696 C65.0072,129.84 64.0568,130.5168 63.9272,131.6112 L63.9272,135.6 L61.436,135.6 L61.436,127.8384 L63.9272,127.8384 Z M68.8376,124.296 C69.6008,124.296 70.148,124.8432 70.148,125.6064 C70.148,126.384 69.6008,126.9312 68.8376,126.9312 C68.0744,126.9312 67.5272,126.384 67.5272,125.6064 C67.5272,124.8432 68.0744,124.296 68.8376,124.296 Z M70.0616,135.6 L67.5848,135.6 L67.5848,127.8384 L70.0616,127.8384 L70.0616,135.6 Z M75.4616,127.752 C78.1976,127.752 79.5512,129.552 79.3784,132.3888 L73.9208,132.3888 C74.1656,133.3104 74.828,133.8288 75.7496,133.8288 C76.4264,133.8288 77.0888,133.5552 77.6072,133.0368 L78.9176,134.3184 C78.1256,135.1824 76.9592,135.6864 75.5336,135.6864 C72.9992,135.6864 71.4152,134.1024 71.4152,131.7408 C71.4152,129.336 73.0568,127.752 75.4616,127.752 Z M73.8776,131.0496 L76.988,131.0496 C76.988,130.0992 76.3832,129.48 75.4904,129.48 C74.6264,129.48 74.036,130.1136 73.8776,131.0496 Z M83.5112,127.7232 C84.6344,127.7232 85.7576,128.04 86.708,128.6016 L85.8584,130.2144 C84.9224,129.7104 84.0584,129.4368 83.4104,129.4368 C82.964,129.4368 82.6472,129.6096 82.6472,129.9696 C82.6472,131.0352 86.7368,130.5168 86.7224,133.224 C86.7224,134.8224 85.3256,135.7008 83.4536,135.7008 C82.1576,135.7008 80.9048,135.3264 79.9688,134.6064 L80.7608,133.0224 C81.6392,133.6416 82.6472,133.9872 83.5112,133.9872 C84.0008,133.9872 84.3608,133.8144 84.3608,133.4544 C84.3608,132.3168 80.3432,132.9072 80.3576,130.1856 C80.3576,128.5872 81.7112,127.7232 83.5112,127.7232 Z" id="countries" fill="#20AAA3" fill-rule="nonzero"></path>
                    <path d="M105.0592,135.4 L102.8448,135.4 L102.8448,125.9024 L105.0592,125.9024 L105.0592,135.4 Z M109.9872,128.3984 C111.8816,128.3984 112.9824,129.3328 112.9952,130.8944 L112.9952,135.4 L110.832,135.4 L110.832,134.6064 C110.384,135.1952 109.6544,135.5024 108.72,135.5024 C107.248,135.5024 106.352,134.6064 106.352,133.3392 C106.352,132.0336 107.2864,131.2656 109.0016,131.2528 L110.8192,131.2528 L110.8192,131.1504 C110.8192,130.472 110.3712,130.0624 109.4752,130.0624 C108.8992,130.0624 108.144,130.2672 107.4144,130.6384 L106.7872,129.1792 C107.8624,128.68 108.8352,128.3984 109.9872,128.3984 Z M109.3984,134.0048 C110.0896,134.0048 110.6784,133.6208 110.8192,133.0576 L110.8192,132.4432 L109.424,132.4432 C108.7584,132.4432 108.4256,132.6736 108.4256,133.1856 C108.4256,133.6848 108.784,134.0048 109.3984,134.0048 Z M119.088,128.3984 C120.6112,128.3984 121.6096,129.4352 121.6096,131.048 L121.6096,135.4 L119.408,135.4 L119.408,131.6624 C119.408,130.856 118.9344,130.3568 118.192,130.3568 C117.3856,130.3568 116.8736,130.9328 116.784,131.752 L116.784,135.4 L114.5696,135.4 L114.5696,128.5008 L116.784,128.5008 L116.784,129.6272 C117.2704,128.8208 118.064,128.4112 119.088,128.3984 Z M129.776,128.5008 L129.776,134.7728 C129.776,136.7312 128.2656,137.9728 126.0384,137.9728 C124.8352,137.9728 123.7472,137.5888 122.9664,137.064 L123.7344,135.5664 C124.3616,136.0016 125.1296,136.2576 125.872,136.2576 C126.9344,136.2576 127.5744,135.6944 127.5744,134.8368 L127.5744,134.1072 C127.1264,134.696 126.448,135.0288 125.5904,135.0288 C123.8496,135.0288 122.6208,133.6976 122.6208,131.688 C122.6208,129.7296 123.8112,128.424 125.5392,128.424 C126.4224,128.4112 127.1136,128.744 127.5744,129.3456 L127.5744,128.5008 L129.776,128.5008 Z M126.1408,133.4288 C126.9984,133.4288 127.5744,132.7376 127.5744,131.752 C127.5744,130.7408 126.9984,130.0624 126.1408,130.0624 C125.2704,130.0624 124.6816,130.7536 124.6816,131.752 C124.6816,132.7376 125.2704,133.4288 126.1408,133.4288 Z M138.1856,128.5008 L138.1856,135.4 L135.9712,135.4 L135.9712,134.2608 C135.4976,135.08 134.7296,135.4896 133.7312,135.4896 C132.2336,135.4896 131.2608,134.4656 131.2608,132.8528 L131.2608,128.5008 L133.4752,128.5008 L133.4752,132.2256 C133.4752,133.0448 133.9232,133.544 134.6272,133.544 C135.472,133.5312 135.9712,132.84 135.9712,131.9056 L135.9712,128.5008 L138.1856,128.5008 Z M143.0496,128.3984 C144.944,128.3984 146.0448,129.3328 146.0576,130.8944 L146.0576,135.4 L143.8944,135.4 L143.8944,134.6064 C143.4464,135.1952 142.7168,135.5024 141.7824,135.5024 C140.3104,135.5024 139.4144,134.6064 139.4144,133.3392 C139.4144,132.0336 140.3488,131.2656 142.064,131.2528 L143.8816,131.2528 L143.8816,131.1504 C143.8816,130.472 143.4336,130.0624 142.5376,130.0624 C141.9616,130.0624 141.2064,130.2672 140.4768,130.6384 L139.8496,129.1792 C140.9248,128.68 141.8976,128.3984 143.0496,128.3984 Z M142.4608,134.0048 C143.152,134.0048 143.7408,133.6208 143.8816,133.0576 L143.8816,132.4432 L142.4864,132.4432 C141.8208,132.4432 141.488,132.6736 141.488,133.1856 C141.488,133.6848 141.8464,134.0048 142.4608,134.0048 Z M154.224,128.5008 L154.224,134.7728 C154.224,136.7312 152.7136,137.9728 150.4864,137.9728 C149.2832,137.9728 148.1952,137.5888 147.4144,137.064 L148.1824,135.5664 C148.8096,136.0016 149.5776,136.2576 150.32,136.2576 C151.3824,136.2576 152.0224,135.6944 152.0224,134.8368 L152.0224,134.1072 C151.5744,134.696 150.896,135.0288 150.0384,135.0288 C148.2976,135.0288 147.0688,133.6976 147.0688,131.688 C147.0688,129.7296 148.2592,128.424 149.9872,128.424 C150.8704,128.4112 151.5616,128.744 152.0224,129.3456 L152.0224,128.5008 L154.224,128.5008 Z M150.5888,133.4288 C151.4464,133.4288 152.0224,132.7376 152.0224,131.752 C152.0224,130.7408 151.4464,130.0624 150.5888,130.0624 C149.7184,130.0624 149.1296,130.7536 149.1296,131.752 C149.1296,132.7376 149.7184,133.4288 150.5888,133.4288 Z M158.9344,128.424 C161.3664,128.424 162.5696,130.024 162.416,132.5456 L157.5648,132.5456 C157.7824,133.3648 158.3712,133.8256 159.1904,133.8256 C159.792,133.8256 160.3808,133.5824 160.8416,133.1216 L162.0064,134.2608 C161.3024,135.0288 160.2656,135.4768 158.9984,135.4768 C156.7456,135.4768 155.3376,134.0688 155.3376,131.9696 C155.3376,129.832 156.7968,128.424 158.9344,128.424 Z M157.5264,131.3552 L160.2912,131.3552 C160.2912,130.5104 159.7536,129.96 158.96,129.96 C158.192,129.96 157.6672,130.5232 157.5264,131.3552 Z M166.0896,128.3984 C167.088,128.3984 168.0864,128.68 168.9312,129.1792 L168.176,130.6128 C167.344,130.1648 166.576,129.9216 166,129.9216 C165.6032,129.9216 165.3216,130.0752 165.3216,130.3952 C165.3216,131.3424 168.9568,130.8816 168.944,133.288 C168.944,134.7088 167.7024,135.4896 166.0384,135.4896 C164.8864,135.4896 163.7728,135.1568 162.9408,134.5168 L163.6448,133.1088 C164.4256,133.6592 165.3216,133.9664 166.0896,133.9664 C166.5248,133.9664 166.8448,133.8128 166.8448,133.4928 C166.8448,132.4816 163.2736,133.0064 163.2864,130.5872 C163.2864,129.1664 164.4896,128.3984 166.0896,128.3984 Z" id="languages" fill="#20AAA3" fill-rule="nonzero"></path>
                </g>
                <g id="Group" transform="translate(204.800000, 0.000000)">
                    <g id="Group-8">
                        <ellipse id="Oval" fill="#E1F2F1" fill-rule="nonzero" cx="52.36" cy="52.8" rx="52.36" ry="52.8"></ellipse>
                        <text id="190" font-family="Montserrat-Bold, Montserrat" font-size="27.45424" font-weight="bold" fill="#E25E3B">
                            <tspan x="27.4987214" y="50.88">190</tspan>
                        </text>
                        <path d="M28.09488,57.5272 C31.10448,57.5272 32.59344,59.5072 32.40336,62.62768 L26.4,62.62768 C26.66928,63.64144 27.39792,64.21168 28.41168,64.21168 C29.15616,64.21168 29.8848,63.91072 30.45504,63.34048 L31.89648,64.75024 C31.02528,65.70064 29.74224,66.25504 28.17408,66.25504 C25.38624,66.25504 23.64384,64.51264 23.64384,61.91488 C23.64384,59.2696 25.4496,57.5272 28.09488,57.5272 Z M26.35248,61.15456 L29.77392,61.15456 C29.77392,60.10912 29.10864,59.428 28.12656,59.428 C27.17616,59.428 26.52672,60.12496 26.35248,61.15456 Z M38.73936,66.16 L35.93568,66.16 L32.72016,57.62224 L35.53968,57.62224 L37.37712,63.65728 L39.2304,57.62224 L41.95488,57.62224 L38.73936,66.16 Z M46.6752,57.5272 C49.6848,57.5272 51.17376,59.5072 50.98368,62.62768 L44.98032,62.62768 C45.2496,63.64144 45.97824,64.21168 46.992,64.21168 C47.73648,64.21168 48.46512,63.91072 49.03536,63.34048 L50.4768,64.75024 C49.6056,65.70064 48.32256,66.25504 46.7544,66.25504 C43.96656,66.25504 42.22416,64.51264 42.22416,61.91488 C42.22416,59.2696 44.02992,57.5272 46.6752,57.5272 Z M44.9328,61.15456 L48.35424,61.15456 C48.35424,60.10912 47.68896,59.428 46.70688,59.428 C45.75648,59.428 45.10704,60.12496 44.9328,61.15456 Z M58.06416,57.49552 C59.94912,57.49552 61.18464,58.77856 61.18464,60.7744 L61.18464,66.16 L58.46016,66.16 L58.46016,61.53472 C58.46016,60.5368 57.87408,59.91904 56.95536,59.91904 C55.95744,59.91904 55.32384,60.63184 55.21296,61.6456 L55.21296,66.16 L52.47264,66.16 L52.47264,57.62224 L55.21296,57.62224 L55.21296,59.01616 C55.81488,58.01824 56.79696,57.51136 58.06416,57.49552 Z M68.10672,63.79984 L68.64528,65.70064 C68.02752,66.06496 67.188,66.28672 66.36432,66.28672 C64.71696,66.28672 63.52896,65.35216 63.52896,63.57808 L63.52896,59.80816 L62.34096,59.80816 L62.34096,58.01824 L63.52896,58.01824 L63.52896,55.64224 L66.25344,55.64224 L66.25344,58.0024 L68.48688,58.0024 L68.48688,59.80816 L66.25344,59.80816 L66.25344,63.1504 C66.25344,63.81568 66.53856,64.1008 67.04544,64.08496 C67.33056,64.08496 67.69488,63.97408 68.10672,63.79984 Z M73.08048,57.49552 C74.316,57.49552 75.55152,57.844 76.59696,58.46176 L75.6624,60.23584 C74.6328,59.68144 73.6824,59.38048 72.9696,59.38048 C72.47856,59.38048 72.13008,59.57056 72.13008,59.96656 C72.13008,61.13872 76.62864,60.56848 76.6128,63.5464 C76.6128,65.30464 75.07632,66.27088 73.01712,66.27088 C71.59152,66.27088 70.21344,65.85904 69.18384,65.06704 L70.05504,63.32464 C71.02128,64.00576 72.13008,64.38592 73.08048,64.38592 C73.61904,64.38592 74.01504,64.19584 74.01504,63.79984 C74.01504,62.54848 69.59568,63.19792 69.61152,60.20416 C69.61152,58.44592 71.10048,57.49552 73.08048,57.49552 Z" id="events" fill="#20AAA3" fill-rule="nonzero"></path>
                    </g>
                    <g id="Group-4" transform="translate(88.000000, 3.200000)">
                        <circle id="Oval" fill="#20AAA3" fill-rule="nonzero" cx="24.64" cy="24.64" r="24.64"></circle>
                        <text id="81" font-family="Montserrat-Bold, Montserrat" font-size="23.056" font-weight="bold" fill="#EDEDED">
                            <tspan x="12.929488" y="26.52">81</tspan>
                        </text>
                        <path d="M12.6698,36.76 L10.3862,36.76 L10.3862,26.9656 L12.6698,26.9656 L12.6698,36.76 Z M17.8574,29.566 C20.1806,29.566 21.7382,31.0048 21.7382,33.196 C21.7382,35.3872 20.1806,36.8392 17.8574,36.8392 C15.521,36.8392 13.9634,35.3872 13.9634,33.196 C13.9634,31.0048 15.521,29.566 17.8574,29.566 Z M17.8574,31.3744 C16.907,31.3744 16.2602,32.1268 16.2602,33.2224 C16.2602,34.3312 16.907,35.0704 17.8574,35.0704 C18.7946,35.0704 19.4414,34.3312 19.4414,33.2224 C19.4414,32.1268 18.7946,31.3744 17.8574,31.3744 Z M26.0678,29.566 C27.4802,29.566 28.6154,30.1468 29.2358,31.1632 L27.599,32.1532 C27.269,31.6912 26.7806,31.414 26.1602,31.414 C25.2758,31.414 24.6686,32.14 24.6686,33.2092 C24.6686,34.3048 25.2758,35.0176 26.1602,35.0176 C26.807,35.0176 27.3086,34.7536 27.6122,34.2124 L29.2754,35.1892 C28.6946,36.232 27.5462,36.8392 26.0414,36.8392 C23.8502,36.8392 22.3718,35.3872 22.3718,33.2224 C22.3718,31.0312 23.8634,29.566 26.0678,29.566 Z M33.5786,29.5396 C35.5322,29.5396 36.6674,30.5032 36.6806,32.1136 L36.6806,36.76 L34.4498,36.76 L34.4498,35.9416 C33.9878,36.5488 33.2354,36.8656 32.2718,36.8656 C30.7538,36.8656 29.8298,35.9416 29.8298,34.6348 C29.8298,33.2884 30.7934,32.4964 32.5622,32.4832 L34.4366,32.4832 L34.4366,32.3776 C34.4366,31.678 33.9746,31.2556 33.0506,31.2556 C32.4566,31.2556 31.6778,31.4668 30.9254,31.8496 L30.2786,30.3448 C31.3874,29.83 32.3906,29.5396 33.5786,29.5396 Z M32.9714,35.3212 C33.6842,35.3212 34.2914,34.9252 34.4366,34.3444 L34.4366,33.7108 L32.9978,33.7108 C32.3114,33.7108 31.9682,33.9484 31.9682,34.4764 C31.9682,34.9912 32.3378,35.3212 32.9714,35.3212 Z M40.6538,36.76 L38.3702,36.76 L38.3702,26.9656 L40.6538,26.9656 L40.6538,36.76 Z" id="local" fill="#EDEDED" fill-rule="nonzero"></path>
                    </g>
                    <g id="Group-7" transform="translate(81.600000, 48.800000)">
                        <ellipse id="Oval" fill="#20AAA3" fill-rule="nonzero" cx="31.24" cy="31.68" rx="31.24" ry="31.68"></ellipse>
                        <text id="109" font-family="Montserrat-Bold, Montserrat" font-size="27.45424" font-weight="bold" fill="#EDEDED">
                            <tspan x="7.25872136" y="35.92">109</tspan>
                        </text>
                        <path d="M12.64384,41.5264 C15.12192,41.5264 16.78336,43.06112 16.78336,45.3984 C16.78336,47.73568 15.12192,49.28448 12.64384,49.28448 C10.15168,49.28448 8.49024,47.73568 8.49024,45.3984 C8.49024,43.06112 10.15168,41.5264 12.64384,41.5264 Z M12.64384,43.45536 C11.63008,43.45536 10.94016,44.25792 10.94016,45.42656 C10.94016,46.60928 11.63008,47.39776 12.64384,47.39776 C13.64352,47.39776 14.33344,46.60928 14.33344,45.42656 C14.33344,44.25792 13.64352,43.45536 12.64384,43.45536 Z M23.06304,41.49824 C24.73856,41.49824 25.8368,42.63872 25.8368,44.4128 L25.8368,49.2 L23.41504,49.2 L23.41504,45.08864 C23.41504,44.2016 22.89408,43.65248 22.07744,43.65248 C21.1904,43.65248 20.6272,44.28608 20.52864,45.1872 L20.52864,49.2 L18.0928,49.2 L18.0928,41.61088 L20.52864,41.61088 L20.52864,42.84992 C21.06368,41.96288 21.93664,41.51232 23.06304,41.49824 Z M30.07488,49.2 L27.63904,49.2 L27.63904,38.75264 L30.07488,38.75264 L30.07488,49.2 Z M33.31328,38.1472 C34.05952,38.1472 34.59456,38.68224 34.59456,39.42848 C34.59456,40.1888 34.05952,40.72384 33.31328,40.72384 C32.56704,40.72384 32.032,40.1888 32.032,39.42848 C32.032,38.68224 32.56704,38.1472 33.31328,38.1472 Z M34.51008,49.2 L32.08832,49.2 L32.08832,41.61088 L34.51008,41.61088 L34.51008,49.2 Z M41.43744,41.49824 C43.11296,41.49824 44.2112,42.63872 44.2112,44.4128 L44.2112,49.2 L41.78944,49.2 L41.78944,45.08864 C41.78944,44.2016 41.26848,43.65248 40.45184,43.65248 C39.5648,43.65248 39.0016,44.28608 38.90304,45.1872 L38.90304,49.2 L36.4672,49.2 L36.4672,41.61088 L38.90304,41.61088 L38.90304,42.84992 C39.43808,41.96288 40.31104,41.51232 41.43744,41.49824 Z M49.26592,41.5264 C51.94112,41.5264 53.26464,43.2864 53.09568,46.06016 L47.75936,46.06016 C47.99872,46.96128 48.6464,47.46816 49.54752,47.46816 C50.20928,47.46816 50.85696,47.20064 51.36384,46.69376 L52.64512,47.94688 C51.87072,48.79168 50.73024,49.28448 49.33632,49.28448 C46.85824,49.28448 45.30944,47.73568 45.30944,45.42656 C45.30944,43.0752 46.91456,41.5264 49.26592,41.5264 Z M47.71712,44.75072 L50.7584,44.75072 C50.7584,43.82144 50.16704,43.216 49.29408,43.216 C48.44928,43.216 47.872,43.83552 47.71712,44.75072 Z" id="online" fill="#E1F2F1" fill-rule="nonzero"></path>
                    </g>
                </g>
                <g id="Group-2" transform="translate(215.000000, 86.000000)">
                    <ellipse id="Oval" fill="#E1F2F1" fill-rule="nonzero" cx="43.56" cy="44" rx="43.56" ry="44"></ellipse>
                    <text id="73" font-family="Montserrat-Bold, Montserrat" font-size="27.45424" font-weight="bold" fill="#E25E3B">
                        <tspan x="27.7463578" y="43.84">73</tspan>
                    </text>
                    <path d="M14.9908,49.8852 L14.9908,51.0864 C15.4792,50.2548 16.2844,49.7928 17.3008,49.7796 L17.3008,51.8388 C15.9808,51.72 15.1096,52.3404 14.9908,53.3436 L14.9908,57 L12.7072,57 L12.7072,49.8852 L14.9908,49.8852 Z M21.4588,49.806 C23.9668,49.806 25.2076,51.456 25.0492,54.0564 L20.0464,54.0564 C20.2708,54.9012 20.878,55.3764 21.7228,55.3764 C22.3432,55.3764 22.9504,55.1256 23.4256,54.6504 L24.6268,55.8252 C23.9008,56.6172 22.8316,57.0792 21.5248,57.0792 C19.2016,57.0792 17.7496,55.6272 17.7496,53.4624 C17.7496,51.258 19.2544,49.806 21.4588,49.806 Z M20.0068,52.8288 L22.858,52.8288 C22.858,51.9576 22.3036,51.39 21.4852,51.39 C20.6932,51.39 20.152,51.9708 20.0068,52.8288 Z M28.8376,49.7796 C29.8672,49.7796 30.8968,50.07 31.768,50.5848 L30.9892,52.0632 C30.1312,51.6012 29.3392,51.3504 28.7452,51.3504 C28.336,51.3504 28.0456,51.5088 28.0456,51.8388 C28.0456,52.8156 31.7944,52.3404 31.7812,54.822 C31.7812,56.2872 30.5008,57.0924 28.7848,57.0924 C27.5968,57.0924 26.4484,56.7492 25.5904,56.0892 L26.3164,54.6372 C27.1216,55.2048 28.0456,55.5216 28.8376,55.5216 C29.2864,55.5216 29.6164,55.3632 29.6164,55.0332 C29.6164,53.9904 25.9336,54.5316 25.9468,52.0368 C25.9468,50.5716 27.1876,49.7796 28.8376,49.7796 Z M36.3616,49.806 C38.6848,49.806 40.2424,51.2448 40.2424,53.436 C40.2424,55.6272 38.6848,57.0792 36.3616,57.0792 C34.0252,57.0792 32.4676,55.6272 32.4676,53.436 C32.4676,51.2448 34.0252,49.806 36.3616,49.806 Z M36.3616,51.6144 C35.4112,51.6144 34.7644,52.3668 34.7644,53.4624 C34.7644,54.5712 35.4112,55.3104 36.3616,55.3104 C37.2988,55.3104 37.9456,54.5712 37.9456,53.4624 C37.9456,52.3668 37.2988,51.6144 36.3616,51.6144 Z M48.4,49.8852 L48.4,57 L46.1164,57 L46.1164,55.8252 C45.628,56.67 44.836,57.0924 43.8064,57.0924 C42.262,57.0924 41.2588,56.0364 41.2588,54.3732 L41.2588,49.8852 L43.5424,49.8852 L43.5424,53.7264 C43.5424,54.5712 44.0044,55.086 44.7304,55.086 C45.6016,55.0728 46.1164,54.36 46.1164,53.3964 L46.1164,49.8852 L48.4,49.8852 Z M52.5052,49.8852 L52.5052,51.0864 C52.9936,50.2548 53.7988,49.7928 54.8152,49.7796 L54.8152,51.8388 C53.4952,51.72 52.624,52.3404 52.5052,53.3436 L52.5052,57 L50.2216,57 L50.2216,49.8852 L52.5052,49.8852 Z M58.96,49.806 C60.3724,49.806 61.5076,50.3868 62.128,51.4032 L60.4912,52.3932 C60.1612,51.9312 59.6728,51.654 59.0524,51.654 C58.168,51.654 57.5608,52.38 57.5608,53.4492 C57.5608,54.5448 58.168,55.2576 59.0524,55.2576 C59.6992,55.2576 60.2008,54.9936 60.5044,54.4524 L62.1676,55.4292 C61.5868,56.472 60.4384,57.0792 58.9336,57.0792 C56.7424,57.0792 55.264,55.6272 55.264,53.4624 C55.264,51.2712 56.7556,49.806 58.96,49.806 Z M66.3916,49.806 C68.8996,49.806 70.1404,51.456 69.982,54.0564 L64.9792,54.0564 C65.2036,54.9012 65.8108,55.3764 66.6556,55.3764 C67.276,55.3764 67.8832,55.1256 68.3584,54.6504 L69.5596,55.8252 C68.8336,56.6172 67.7644,57.0792 66.4576,57.0792 C64.1344,57.0792 62.6824,55.6272 62.6824,53.4624 C62.6824,51.258 64.1872,49.806 66.3916,49.806 Z M64.9396,52.8288 L67.7908,52.8288 C67.7908,51.9576 67.2364,51.39 66.418,51.39 C65.626,51.39 65.0848,51.9708 64.9396,52.8288 Z M73.7704,49.7796 C74.8,49.7796 75.8296,50.07 76.7008,50.5848 L75.922,52.0632 C75.064,51.6012 74.272,51.3504 73.678,51.3504 C73.2688,51.3504 72.9784,51.5088 72.9784,51.8388 C72.9784,52.8156 76.7272,52.3404 76.714,54.822 C76.714,56.2872 75.4336,57.0924 73.7176,57.0924 C72.5296,57.0924 71.3812,56.7492 70.5232,56.0892 L71.2492,54.6372 C72.0544,55.2048 72.9784,55.5216 73.7704,55.5216 C74.2192,55.5216 74.5492,55.3632 74.5492,55.0332 C74.5492,53.9904 70.8664,54.5316 70.8796,52.0368 C70.8796,50.5716 72.1204,49.7796 73.7704,49.7796 Z" id="resources" fill="#20AAA3" fill-rule="nonzero"></path>
                </g>
            </g>
        </g>
    </g>
</svg>