<?xml version="1.0" encoding="UTF-8"?>
<svg width="349px" height="174px" viewBox="0 0 349 174" version="1.1" xmlns="http://www.w3.org/2000/svg" xmlns:xlink="http://www.w3.org/1999/xlink">
    <!-- Generator: Sketch 53.2 (72643) - https://sketchapp.com -->
    <title>hero-graphic</title>
    <desc>Created with Sketch.</desc>
    <defs>
        <linearGradient x1="22.681264%" y1="11.2856658%" x2="89.0273327%" y2="82.3008662%" id="linearGradient-1">
            <stop stop-color="#FFFFFF" stop-opacity="0" offset="0%"></stop>
            <stop stop-color="#E1F2F1" offset="100%"></stop>
        </linearGradient>
        <path d="M11.0612378,1.23517787 L23.8612378,1.23517787 C29.1631714,1.23517787 33.4612378,5.53324427 33.4612378,10.8351779 L33.4612378,26.0351779 C33.4612378,31.3371115 29.1631714,35.6351779 23.8612378,35.6351779 L11.0612378,35.6351779 C5.75930419,35.6351779 1.46123779,31.3371115 1.46123779,26.0351779 L1.46123779,10.8351779 C1.46123779,5.53324427 5.75930419,1.23517787 11.0612378,1.23517787 Z" id="path-2"></path>
        <linearGradient x1="50%" y1="3.061617e-15%" x2="50%" y2="100%" id="linearGradient-4">
            <stop stop-color="#FFFFFF" stop-opacity="0" offset="0%"></stop>
            <stop stop-color="#E1F2F1" offset="100%"></stop>
        </linearGradient>
    </defs>
    <g id="2019-after" stroke="none" stroke-width="1" fill="none" fill-rule="evenodd">
        <g id="home-after-week" transform="translate(-575.000000, -163.000000)">
            <g id="hero-graphic" transform="translate(575.000000, 163.000000)">
                <g id="Group-6" transform="translate(0.000000, 4.800000)">
                    <rect id="Rectangle" fill="#E1F2F1" fill-rule="nonzero" x="0" y="0" width="193.6" height="162.4" rx="4.8"></rect>
                    <polyline id="Line" stroke="#FFFFFF" stroke-width="1.6" stroke-linecap="square" stroke-linejoin="round" fill-rule="nonzero" points="64 90.8 95.7640625 74 127.528125 90.8"></polyline>
                    <text id="6,494" font-family="Montserrat-Bold, Montserrat" font-size="24.9584" font-weight="bold" fill="#DC765A">
                        <tspan x="93.8201368" y="48.2">6,494</tspan>
                    </text>
                    <g id="org" transform="translate(40.000000, 33.600000)">
                        <path d="M11.8612378,0.435177866 L23.8612378,0.435177866 C30.046827,0.435177866 35.0612378,5.44958867 35.0612378,11.6351779 L35.0612378,26.0351779 C35.0612378,32.2207671 30.046827,37.2351779 23.8612378,37.2351779 L11.8612378,37.2351779 C5.67564859,37.2351779 0.661237785,32.2207671 0.661237785,26.0351779 L0.661237785,11.6351779 C0.661237785,5.44958867 5.67564859,0.435177866 11.8612378,0.435177866 Z" id="Rectangle-path" fill="url(#linearGradient-1)" fill-rule="nonzero"></path>
                        <mask id="mask-3" fill="white">
                            <use xlink:href="#path-2"></use>
                        </mask>
                        <use id="Rectangle-path" fill="#20AAA3" fill-rule="nonzero" xlink:href="#path-2"></use>
                        <g id="Group-5" mask="url(#mask-3)" fill="#FFFFFF" fill-rule="nonzero">
                            <g transform="translate(0.800000, 8.800000)">
                                <path d="M7.2,5.6 L24.8,5.6 L24.8,14.4034916 C21.8666667,15.4678305 18.9333333,16 16,16 C13.0666667,16 10.1333333,15.4678305 7.2,14.4034916 L7.2,5.6 Z" id="Rectangle-8" stroke="none"></path>
                                <path d="M-2.13322534,3.41476755 L16.4492254,-0.625055211 L34.5143188,3.41517325 L16.4506968,10.1527912 L-2.13322534,3.41476755 Z" id="Rectangle-7" stroke="#20AAA3" stroke-width="1.6" stroke-linecap="round"></path>
                                <rect id="Rectangle-9" stroke="none" x="28.8" y="4" width="1" height="8.8"></rect>
                                <polygon id="Rectangle-9" stroke="none" points="27.9516528 16 30.4 16 29.7699603 12.8 28.5816926 12.8"></polygon>
                            </g>
                        </g>
                    </g>
                    <g id="user" transform="translate(13.600000, 18.400000)" fill-rule="nonzero">
                        <path d="M11.8612378,0.435177866 L23.8612378,0.435177866 C30.046827,0.435177866 35.0612378,5.44958867 35.0612378,11.6351779 L35.0612378,26.0351779 C35.0612378,32.2207671 30.046827,37.2351779 23.8612378,37.2351779 L11.8612378,37.2351779 C5.67564859,37.2351779 0.661237785,32.2207671 0.661237785,26.0351779 L0.661237785,11.6351779 C0.661237785,5.44958867 5.67564859,0.435177866 11.8612378,0.435177866 Z" id="Rectangle-path" fill="url(#linearGradient-4)"></path>
                        <path d="M11.0612378,1.23517787 L23.8612378,1.23517787 C29.1631714,1.23517787 33.4612378,5.53324427 33.4612378,10.8351779 L33.4612378,26.0351779 C33.4612378,31.3371115 29.1631714,35.6351779 23.8612378,35.6351779 L11.0612378,35.6351779 C5.75930419,35.6351779 1.46123779,31.3371115 1.46123779,26.0351779 L1.46123779,10.8351779 C1.46123779,5.53324427 5.75930419,1.23517787 11.0612378,1.23517787 Z" id="Rectangle-path" fill="#20AAA3"></path>
                        <path d="M11.6816837,16.1969756 C11.222784,15.2721662 11.0118055,14.2354442 11.0709919,13.1961113 C11.1364428,12.1509133 11.5914486,11.173822 12.338816,10.473553 C13.1724219,9.73301711 14.3032467,9.4716515 15.3945971,9.37968953 C16.4859475,9.28772756 17.593552,9.34338876 18.6686482,9.12316404 C20.4630293,8.74454301 22.0370116,7.63232679 23.0386938,6.03517787 C23.1465,6.90739989 23.1386867,7.79093121 23.0154736,8.66093413 C22.8529321,9.52247259 22.428002,10.3694907 21.7104972,10.8389808 C22.5789335,10.4203118 22.4860526,11.4028529 22.2956468,11.9909255 C22.7275429,12.5330171 23.7724528,12.622559 23.8258593,13.3243741 C23.9131651,14.0239478 23.8383178,14.735141 23.6075893,15.3983585 C23.3452008,16.0445124 23.6261654,17.1843568 22.9551011,17.2351779" id="Shape" stroke="#FFFFFF" stroke-width="0.8" fill="#FFFFFF"></path>
                        <path d="M20.2610898,25.7634506 L20.2610898,24.5320975 C24.1614146,23.5536851 26.7044634,19.9102016 26.1968881,16.027745 C25.6893128,12.1452885 22.2894759,9.23517787 18.2612378,9.23517787 C14.2329997,9.23517787 10.8331628,12.1452885 10.3255875,16.027745 C9.81801221,19.9102016 12.361061,23.5536851 16.2613858,24.5320975 L16.2613858,25.7634506 C12.8775597,26.6520231 10.523302,29.629475 10.5118113,33.0349917 L10.5118113,36.4351779 L26.0106643,36.4351779 L26.0106643,33.0349917 C25.9991736,29.629475 23.6449159,26.6520231 20.2610898,25.7634506 L20.2610898,25.7634506 Z" id="Shape" fill="#FFFFFF"></path>
                        <path d="M22.4,9.6 C22.4,9.6 26.8124916,9.95390565 23.6714414,16" id="Shape" fill="#FFFFFF"></path>
                    </g>
                    <text id="123" font-family="Montserrat-Bold, Montserrat" font-size="24.9584" font-weight="bold" fill="#20AAA3">
                        <tspan x="32.807656" y="121.8">123</tspan>
                    </text>
                    <text id="18" font-family="Montserrat-Bold, Montserrat" font-size="24.9584" font-weight="bold" fill="#20AAA3">
                        <tspan x="122.446923" y="121.8">18</tspan>
                    </text>
                    <text id="participants" font-family="Montserrat-Bold, Montserrat" font-size="14.4" font-weight="bold" fill="#20AAA3">
                        <tspan x="83.4936" y="63.6">participants</tspan>
                    </text>
                    <text id="countries" font-family="Montserrat-Bold, Montserrat" font-size="14.4" font-weight="bold" fill="#20AAA3">
                        <tspan x="17.6744" y="135.6">countries</tspan>
                    </text>
                    <text id="languages" font-family="Montserrat-Bold, Montserrat" font-size="12.8" font-weight="bold" fill="#20AAA3">
                        <tspan x="101.8976" y="135.4">languages</tspan>
                    </text>
                </g>
                <g id="Group" transform="translate(204.800000, 0.000000)">
                    <g id="Group-8">
                        <ellipse id="Oval" fill="#E1F2F1" fill-rule="nonzero" cx="52.36" cy="52.8" rx="52.36" ry="52.8"></ellipse>
                        <text id="190" font-family="Montserrat-Bold, Montserrat" font-size="27.45424" font-weight="bold" fill="#E25E3B">
                            <tspan x="27.4987214" y="50.88">190</tspan>
                        </text>
                        <text id="events" font-family="Montserrat-Bold, Montserrat" font-size="15.84" font-weight="bold" fill="#20AAA3">
                            <tspan x="23.26368" y="66.16">events</tspan>
                        </text>
                    </g>
                    <g id="Group-4" transform="translate(88.000000, 3.200000)">
                        <circle id="Oval" fill="#20AAA3" fill-rule="nonzero" cx="24.64" cy="24.64" r="24.64"></circle>
                        <text id="81" font-family="Montserrat-Bold, Montserrat" font-size="23.056" font-weight="bold" fill="#EDEDED">
                            <tspan x="12.929488" y="26.52">81</tspan>
                        </text>
                        <text id="local" font-family="Montserrat-Bold, Montserrat" font-size="13.2" font-weight="bold" fill="#EDEDED">
                            <tspan x="9.4094" y="36.76">local</tspan>
                        </text>
                    </g>
                    <g id="Group-7" transform="translate(81.600000, 48.800000)">
                        <ellipse id="Oval" fill="#20AAA3" fill-rule="nonzero" cx="31.24" cy="31.68" rx="31.24" ry="31.68"></ellipse>
                        <text id="109" font-family="Montserrat-Bold, Montserrat" font-size="27.45424" font-weight="bold" fill="#EDEDED">
                            <tspan x="7.25872136" y="35.92">109</tspan>
                        </text>
                        <text id="online" font-family="Montserrat-Bold, Montserrat" font-size="14.08" font-weight="bold" fill="#E1F2F1">
                            <tspan x="8.15232" y="49.2">online</tspan>
                        </text>
                    </g>
                </g>
                <g id="Group-2" transform="translate(215.000000, 86.000000)">
                    <ellipse id="Oval" fill="#E1F2F1" fill-rule="nonzero" cx="43.56" cy="44" rx="43.56" ry="44"></ellipse>
                    <text id="73" font-family="Montserrat-Bold, Montserrat" font-size="27.45424" font-weight="bold" fill="#E25E3B">
                        <tspan x="27.7463578" y="43.84">73</tspan>
                    </text>
                    <text id="resources" font-family="Montserrat-Bold, Montserrat" font-size="13.2" font-weight="bold" fill="#20AAA3">
                        <tspan x="11.7964" y="57">resources</tspan>
                    </text>
                </g>
            </g>
        </g>
    </g>
</svg>