<?xml version="1.0" encoding="UTF-8"?>
<svg width="349px" height="263px" viewBox="0 0 349 263" version="1.1" xmlns="http://www.w3.org/2000/svg" xmlns:xlink="http://www.w3.org/1999/xlink">
    <!-- Generator: Sketch 53.2 (72643) - https://sketchapp.com -->
    <title>Group 9</title>
    <desc>Created with Sketch.</desc>
    <defs>
        <path d="M0.137100902,10.1701217 C0.137100902,15.7151232 4.61629809,20.2097537 10.1420605,20.2097537 L10.1420605,20.2097537 C15.6669714,20.2097537 20.1470202,15.7151232 20.1470202,10.1701217 L20.1470202,10.1701217 C20.1470202,4.62341092 15.6669714,0.127925748 10.1420605,0.127925748 L10.1420605,0.127925748 C4.61629809,0.127925748 0.137100902,4.62341092 0.137100902,10.1701217 L0.137100902,10.1701217 Z" id="path-1"></path>
        <path d="M0.137180845,16.6681092 C0.137180845,25.7507734 6.86074634,33.1140714 15.153797,33.1140714 L15.153797,33.1140714 C23.4459957,33.1140714 30.1695612,25.7507734 30.1695612,16.6681092 L30.1695612,16.6681092 C30.1695612,7.58544498 23.4459957,0.223008426 15.153797,0.223008426 L15.153797,0.223008426 C6.86074634,0.223008426 0.137180845,7.58544498 0.137180845,16.6681092 L0.137180845,16.6681092 Z" id="path-3"></path>
        <path d="M0.0891937751,10.2265289 C0.0891937751,15.7723851 4.5855336,20.2670156 10.1305351,20.2670156 L10.1305351,20.2670156 C15.6772459,20.2670156 20.1718764,15.7723851 20.1718764,10.2265289 L20.1718764,10.2265289 C20.1718764,4.68152746 15.6772459,0.185187631 10.1305351,0.185187631 L10.1305351,0.185187631 C4.5855336,0.185187631 0.0891937751,4.68152746 0.0891937751,10.2265289 L0.0891937751,10.2265289 Z" id="path-5"></path>
        <path d="M0.0362369953,10.0752856 C0.0362369953,15.6260172 4.53481884,20.124599 10.0855505,20.124599 L10.0855505,20.124599 C15.6354267,20.124599 20.1365747,15.6260172 20.1365747,10.0752856 L20.1365747,10.0752856 C20.1365747,4.52540937 15.6354267,0.0251167131 10.0855505,0.0251167131 L10.0855505,0.0251167131 C4.53481884,0.0251167131 0.0362369953,4.52540937 0.0362369953,10.0752856 L0.0362369953,10.0752856 Z" id="path-7"></path>
        <path d="M0.249741694,12.6975767 C0.249741694,19.6488487 5.3214851,25.2845982 11.5786639,25.2845982 L11.5786639,25.2845982 C17.8358427,25.2845982 22.9075861,19.6488487 22.9075861,12.6975767 L22.9075861,12.6975767 C22.9075861,5.74716183 17.8358427,0.111412323 11.5786639,0.111412323 L11.5786639,0.111412323 C5.3214851,0.111412323 0.249741694,5.74716183 0.249741694,12.6975767 L0.249741694,12.6975767 Z" id="path-9"></path>
        <polygon id="path-11" points="0.190808218 0.100391983 268.730622 0.100391983 268.730622 63.0590952 0.190808218 63.0590952"></polygon>
        <polygon id="path-13" points="0 0.126795812 63.8872278 0.126795812 63.8872278 62.9887022 0 62.9887022"></polygon>
        <path d="M9.4948641,18.9232279 L5.04695045,18.9661597 L5.0357812,17.808979 L15.2695988,17.7102009 L15.280768,18.8673816 L10.8328544,18.9103135 L10.9438488,30.4097975 L9.60585856,30.422712 L9.4948641,18.9232279 Z M21.7609383,20.6691577 C22.9541586,20.6482062 23.9093812,20.9780513 24.6266347,21.6587029 C25.3438882,22.3393545 25.7141491,23.3425654 25.7374285,24.6683658 L25.8342491,30.1824624 L24.5506397,30.205001 L24.4560412,24.8174574 C24.4386875,23.8291335 24.1783835,23.0801875 23.6751214,22.570597 C23.1718593,22.0610064 22.4622352,21.8142568 21.5462277,21.8303408 C20.5217456,21.8483294 19.7165552,22.1668882 19.1306324,22.7860268 C18.5447096,23.4051655 18.26117,24.2510686 18.2800052,25.3237616 L18.3676199,30.313567 L17.0840105,30.3361056 L16.8484666,16.9214837 L18.132076,16.8989451 L18.2298489,22.4672788 C18.5696431,21.9067159 19.0442323,21.4703852 19.6536308,21.1582738 C20.2630293,20.8461624 20.9654581,20.6831253 21.7609383,20.6691577 Z M32.2191669,20.4400327 C33.4603568,20.4072569 34.4205169,20.6924114 35.0996761,21.2955047 C35.7788353,21.898598 36.1344793,22.8086756 36.1666187,24.0257647 L36.3222233,29.9183748 L35.0930899,29.9508322 L35.0539501,28.4686419 C34.7777875,28.9703449 34.3632003,29.3671683 33.8101761,29.6591241 C33.257152,29.9510798 32.5950374,30.1072381 31.8238126,30.1276036 C30.7633785,30.1556063 29.9131817,29.9248264 29.2731967,29.4352571 C28.6332116,28.9456878 28.3022458,28.2851747 28.2802892,27.453698 C28.258969,26.646322 28.5340034,25.9878943 29.1054005,25.4783952 C29.6767976,24.968896 30.6011529,24.6972853 31.8784939,24.6635549 L34.8971009,24.5838433 L34.8818269,24.0054276 C34.8601885,23.1860013 34.6147673,22.568449 34.1455561,22.1527523 C33.6763449,21.7370556 33.0019102,21.5408249 32.1222319,21.5640543 C31.5197126,21.5799649 30.9439278,21.694653 30.3948605,21.9081221 C29.8457932,22.1215912 29.3770492,22.4083026 28.9886146,22.7682648 L28.3849012,21.8255379 C28.8560975,21.4030963 29.4261545,21.0715044 30.0950893,20.8307524 C30.764024,20.5900004 31.4720428,20.4597618 32.2191669,20.4400327 Z M31.9959134,29.1101257 C32.7189367,29.091033 33.335147,28.908955 33.8445628,28.5638863 C34.3539787,28.2188175 34.7269366,27.7296392 34.9634477,27.0963366 L34.9223986,25.5418444 L31.9399426,25.6206013 C30.3131403,25.6635599 29.5147071,26.2513985 29.5446189,27.384135 C29.5592567,27.9384528 29.7816703,28.3697042 30.2118664,28.677902 C30.6420626,28.9860999 31.236739,29.130173 31.9959134,29.1101257 Z M44.1252967,20.0602711 C45.3179172,20.0170272 46.2791364,20.3289658 47.0089831,20.9960962 C47.7388298,21.6632266 48.1277717,22.6593438 48.1758205,23.9844777 L48.3756586,29.4958024 L47.0926945,29.5423221 L46.8974428,24.1574868 C46.8616246,23.1696597 46.5873715,22.4257085 46.0746753,21.9256107 C45.561979,21.4255129 44.8478681,21.1920661 43.9323211,21.2252635 C42.908354,21.2623921 42.1092567,21.5959408 41.5350052,22.2259197 C40.9607537,22.8558985 40.6930699,23.7069521 40.7319457,24.7791059 L40.9127829,29.766403 L39.6298188,29.8129227 L39.2851798,20.3081463 L40.5139341,20.2635922 L40.5774892,22.0163742 C40.905876,21.4254665 41.3744764,20.9591535 41.9833046,20.6174212 C42.5921328,20.2756888 43.3061231,20.089974 44.1252967,20.0602711 Z M54.9811099,24.4199922 L52.8390835,26.5851671 L52.9675059,29.2943939 L51.6851385,29.3551805 L51.0498757,15.9535387 L52.332243,15.8927521 L52.7628862,24.9776925 L58.188486,19.5252077 L59.7778991,19.4498666 L55.898131,23.5257253 L60.6075254,28.9322427 L59.0361739,29.0067277 L54.9811099,24.4199922 Z M74.2705597,18.5647652 L70.2039912,29.4965604 C69.8759234,30.4113864 69.4711816,31.0714007 68.9897535,31.4766231 C68.5083254,31.8818455 67.912734,32.1071339 67.2029613,32.1524951 C66.7458196,32.1817108 66.3141464,32.1368247 65.9079289,32.0178357 C65.5017114,31.8988466 65.1450215,31.7042205 64.8378484,31.4339514 L65.3722107,30.4395105 C65.8841659,30.889959 66.4769758,31.0936529 67.1506584,31.0505982 C67.58374,31.0229202 67.9459702,30.8789803 68.2373596,30.6187741 C68.5287491,30.358568 68.7883185,29.931293 69.0160755,29.3369365 L69.3722945,28.390118 L64.5262716,19.187517 L65.8616,19.1021769 L69.9500057,26.9399397 L73.0074112,18.6454922 L74.2705597,18.5647652 Z M80.1161264,27.7355492 C79.2027083,27.8062314 78.3633998,27.6626187 77.5981757,27.3047068 C76.8329515,26.9467949 76.2116563,26.4175534 75.7342715,25.7169662 C75.2568866,25.0163791 74.9823922,24.2033794 74.9107799,23.2779427 C74.8391677,22.3525061 74.98532,21.5069558 75.3492412,20.7412666 C75.7131624,19.9755775 76.2458736,19.360059 76.9473908,18.8946928 C77.6489079,18.4293267 78.4563634,18.1613065 79.3697814,18.0906242 C80.2831994,18.019942 81.1222754,18.16055 81.8870346,18.5124526 C82.6517937,18.8643552 83.2698518,19.3908247 83.7412273,20.0918768 C84.2126028,20.7929289 84.4840926,21.6061611 84.5557049,22.5315978 C84.6273171,23.4570345 84.4841695,24.3023522 84.1262576,25.0675764 C83.7683457,25.8328005 83.2388716,26.4510911 82.5378195,26.9224666 C81.8367673,27.3938421 81.0295444,27.6648669 80.1161264,27.7355492 Z M80.028239,26.5997916 C80.7012839,26.54771 81.2933547,26.3477411 81.8044692,25.999879 C82.3155837,25.6520169 82.6995128,25.1840291 82.9562678,24.5959014 C83.2130229,24.0077737 83.3134981,23.35316 83.2576963,22.6320405 C83.2018945,21.910921 83.0019077,21.2795576 82.6577299,20.7379314 C82.313552,20.1963052 81.8621968,19.7929534 81.3036508,19.527864 C80.7451048,19.2627745 80.1293186,19.1562722 79.4562737,19.2083539 C78.7832288,19.2604355 78.191158,19.4604044 77.6800435,19.8082665 C77.168929,20.1561286 76.7819953,20.6243489 76.5192309,21.2129416 C76.2564665,21.8015343 76.1529868,22.4563806 76.2087885,23.1775001 C76.2645903,23.8986196 76.4675817,24.5297504 76.8177689,25.0709116 C77.1679561,25.6120728 77.6223159,26.0151921 78.1808619,26.2802815 C78.7394079,26.545371 79.3551941,26.6518733 80.028239,26.5997916 Z M94.9864697,16.7729925 L95.8863048,26.2413528 L94.6622582,26.3576813 L94.4980298,24.6296155 C94.2167584,25.2375738 93.7972277,25.7284942 93.2394251,26.1023915 C92.6816226,26.4762887 92.0247149,26.6991592 91.2686823,26.7710095 C90.0326291,26.8884791 89.0248134,26.6361321 88.245205,26.013961 C87.4655966,25.3917899 87.0125025,24.4146904 86.8859091,23.082633 L86.3641415,17.5924241 L87.6421902,17.4709634 L88.1519827,22.8351676 C88.2466426,23.8312105 88.5644988,24.5638522 89.1055607,25.0331147 C89.6466225,25.5023771 90.3731622,25.6936672 91.2852015,25.6069907 C92.2812444,25.5123307 93.0384697,25.1346218 93.5569002,24.4738527 C94.0753307,23.8130835 94.2832212,22.9426887 94.1805779,21.8626422 L93.708421,16.8944531 L94.9864697,16.7729925 Z M105.466392,12.667513 C104.915815,12.7334525 104.517815,12.9328756 104.272379,13.2657885 C104.026943,13.5987013 103.939346,14.0583927 104.009586,14.6448764 L104.142897,15.7579929 L107.051363,15.4096621 L107.180375,16.4868716 L104.307816,16.8309021 L105.309805,25.1972295 L104.035107,25.349893 L103.033118,16.9835656 L101.34549,17.1856835 L101.216478,16.1084739 L102.904107,15.906356 L102.764344,14.739379 C102.661135,13.8776071 102.827782,13.1656372 103.264292,12.603448 C103.700803,12.0412588 104.373872,11.7056975 105.28352,11.596754 C105.642591,11.55375 105.995781,11.5630478 106.343099,11.6246477 C106.690417,11.6862475 106.989245,11.7991803 107.239593,11.9634493 L106.922669,12.9665889 C106.514358,12.699831 106.028937,12.60014 105.466392,12.667513 Z M113.433972,24.2094842 C112.526488,24.3351876 111.68004,24.2425124 110.894602,23.9314559 C110.109164,23.6203995 109.457048,23.1296358 108.938234,22.4591503 C108.41942,21.7886647 108.09634,20.9937216 107.968982,20.0742971 C107.841625,19.1548725 107.936458,18.3020406 108.253485,17.5157756 C108.570512,16.7295106 109.065087,16.0829512 109.737227,15.5760781 C110.409366,15.0692049 111.199166,14.7529214 112.10665,14.627218 C113.014134,14.5015146 113.860169,14.5912047 114.64478,14.8962909 C115.429391,15.201377 116.078109,15.6895691 116.590952,16.3608816 C117.103795,17.0321942 117.423891,17.8275508 117.551248,18.7469753 C117.678606,19.6663999 117.586758,20.5188183 117.275701,21.3042563 C116.964645,22.0896943 116.473468,22.7388253 115.802155,23.2516687 C115.130842,23.7645122 114.341456,24.0837808 113.433972,24.2094842 Z M113.277671,23.0811052 C113.946343,22.9884816 114.52526,22.7531297 115.014439,22.3750423 C115.503618,21.996955 115.85859,21.5066401 116.079367,20.9040832 C116.300144,20.3015262 116.360912,19.6420402 116.261672,18.9256055 C116.162433,18.2091708 115.924691,17.5910341 115.548439,17.0711767 C115.172187,16.5513193 114.697301,16.1759552 114.123769,15.9450731 C113.550236,15.714191 112.929143,15.6450627 112.260471,15.7376862 C111.591798,15.8303098 111.012881,16.0656617 110.523702,16.4437491 C110.034524,16.8218365 109.676566,17.3125648 109.449819,17.9159488 C109.223072,18.5193327 109.159319,19.1792322 109.258558,19.8956669 C109.357798,20.6121015 109.598525,21.2298248 109.980747,21.7488552 C110.36297,22.2678856 110.84084,22.6428362 111.414373,22.8737183 C111.987905,23.1046005 112.608998,23.1737287 113.277671,23.0811052 Z M120.611515,15.3310819 C120.806621,14.6521572 121.172591,14.1042659 121.709436,13.6873916 C122.246281,13.2705173 122.949001,12.9915875 123.817618,12.8505939 L124.017519,14.0821191 L123.711202,14.1135218 C122.723597,14.2738296 121.999434,14.7027862 121.53869,15.4004045 C121.077946,16.0980227 120.936422,16.9941657 121.114113,18.0888602 L121.890539,22.8721754 L120.623318,23.0778706 L119.099435,13.689722 L120.313112,13.4927182 L120.611515,15.3310819 Z M135.248329,10.827114 C136.126904,10.672712 136.957308,10.7317813 137.739564,11.0043239 C138.521821,11.2768665 139.178413,11.7397755 139.70936,12.393065 C140.240307,13.0463545 140.587149,13.8360204 140.749897,14.7620862 C140.914732,15.7000247 140.858954,16.5665672 140.582562,17.3617396 C140.306169,18.1569121 139.849718,18.8154289 139.213194,19.3373099 C138.57667,19.8591909 137.813196,20.1983706 136.922748,20.3548592 C136.162899,20.4883961 135.449619,20.4515804 134.782885,20.2444109 C134.116152,20.0372415 133.533689,19.6653375 133.03548,19.1286879 L133.952498,24.3466866 L132.688068,24.5688993 L130.434644,11.7465133 L131.645647,11.5336899 L131.971142,13.3858123 C132.242568,12.7016666 132.66072,12.1386143 133.225611,11.6966384 C133.790502,11.2546625 134.464735,10.964824 135.248329,10.827114 Z M136.636529,19.2485492 C137.289524,19.1337909 137.856545,18.8780929 138.337607,18.4814475 C138.81867,18.084802 139.161539,17.5808768 139.366225,16.9696566 C139.570911,16.3584365 139.610658,15.6966572 139.485468,14.9842988 C139.360277,14.2719405 139.097798,13.6663346 138.698022,13.167463 C138.298247,12.6685914 137.804108,12.3117632 137.21559,12.0969677 C136.627072,11.8821723 136.006324,11.8321544 135.353329,11.9469127 C134.688461,12.0637575 134.118995,12.3229453 133.644912,12.7244838 C133.170828,13.1260222 132.830927,13.6294259 132.625198,14.2347097 C132.419469,14.8399935 132.3792,15.4988047 132.504391,16.211163 C132.629582,16.9235214 132.892582,17.5320954 133.293401,18.0369033 C133.694219,18.5417112 134.18539,18.899061 134.766929,19.1089635 C135.348467,19.3188659 135.971661,19.365394 136.636529,19.2485492 Z M145.987586,9.17789414 C147.218483,9.01504836 148.203266,9.19786878 148.941964,9.72636089 C149.680662,10.254853 150.129846,11.1225842 150.28953,12.3295805 L151.062648,18.1733253 L149.843708,18.3345893 L149.649242,16.8646903 C149.427253,17.3926037 149.056598,17.830743 148.537266,18.1791213 C148.017933,18.5274996 147.375861,18.7522782 146.611032,18.853464 C145.559392,18.9925943 144.689671,18.8523087 144.001844,18.4326029 C143.314017,18.012897 142.915564,17.3907626 142.806473,16.566181 C142.700545,15.7655003 142.904965,15.0818459 143.41974,14.5151973 C143.934515,13.9485487 144.825263,13.5814355 146.092012,13.4138466 L149.085587,13.0178013 L149.009698,12.4441822 C148.902188,11.631551 148.593316,11.0431632 148.083072,10.6790009 C147.572828,10.3148387 146.881525,10.1904669 146.009141,10.3058819 C145.411618,10.3849333 144.851048,10.5594112 144.327414,10.829321 C143.80378,11.0992308 143.367712,11.4335493 143.019197,11.8322865 L142.319886,10.9581187 C142.74415,10.4885621 143.276262,10.0989791 143.916239,9.78935809 C144.556215,9.4797371 145.246657,9.27591782 145.987586,9.17789414 Z M146.675408,17.8235437 C147.392436,17.728682 147.986136,17.482944 148.456528,17.0863223 C148.926919,16.6897005 149.246483,16.1640848 149.415229,15.5094594 L149.211278,13.967858 L146.253554,14.3591602 C144.640242,14.5725989 143.907906,15.2409797 144.056522,16.3643228 C144.12925,16.9140439 144.395691,17.3195739 144.855854,17.5809251 C145.316017,17.8422763 145.922529,17.9231484 146.675408,17.8235437 Z M154.770564,10.0545606 C155.004586,9.38804799 155.401612,8.86222569 155.961655,8.4770779 C156.521698,8.0919301 157.239365,7.85408379 158.114679,7.76353182 L158.243063,9.00455238 L157.935444,9.01819759 C156.940225,9.12115394 156.192478,9.50753683 155.692182,10.1773579 C155.191887,10.8471789 154.998802,11.7336435 155.112922,12.8367785 L155.611576,17.6569743 L154.334584,17.7890803 L153.355883,8.32854667 L154.578918,8.20202263 L154.770564,10.0545606 Z M166.594404,16.0782649 C166.372039,16.3144015 166.088387,16.5042029 165.743439,16.6476746 C165.398491,16.7911463 165.033807,16.8787961 164.649375,16.9106265 C163.760378,16.9842343 163.055726,16.8006655 162.535399,16.3599144 C162.015072,15.9191632 161.718606,15.2603056 161.645993,14.3833217 L161.171523,8.65292101 L159.477631,8.79317312 L159.388108,7.71196544 L161.082,7.57171334 L160.910415,5.49939863 L162.189845,5.39346353 L162.36143,7.46577823 L165.24465,7.22705124 L165.334173,8.30825891 L162.450952,8.5469859 L162.919454,14.205306 C162.966205,14.7699395 163.142921,15.1877274 163.449608,15.4586822 C163.756295,15.7296369 164.173929,15.8432292 164.702522,15.7994623 C164.966818,15.7775789 165.218619,15.7143953 165.457933,15.6099096 C165.697246,15.5054239 165.900535,15.3676352 166.067806,15.1965395 L166.594404,16.0782649 Z M168.152366,7.01403309 L169.433257,6.92755156 L170.073951,16.41697 L168.79306,16.5034515 L168.152366,7.01403309 Z M168.661756,4.89550057 C168.397157,4.91336539 168.168567,4.83818515 167.975979,4.66995762 C167.78339,4.50173008 167.678571,4.2913338 167.661518,4.03876246 C167.645277,3.79821833 167.721269,3.58165519 167.889497,3.38906654 C168.057725,3.19647788 168.274134,3.09125273 168.538733,3.07338791 C168.803331,3.05552309 169.031719,3.12769656 169.223901,3.2899105 C169.416084,3.45212443 169.520294,3.65350044 169.536535,3.89404457 C169.5544,4.15864311 169.479219,4.38723328 169.310992,4.57982194 C169.142764,4.77241059 168.926354,4.87763575 168.661756,4.89550057 Z M177.41496,16.1108807 C176.475885,16.1580389 175.62587,15.9955416 174.86489,15.6233838 C174.10391,15.251226 173.494148,14.7055236 173.035586,13.9862602 C172.577024,13.2669968 172.32447,12.4438598 172.277916,11.5168247 C172.231362,10.5897896 172.400333,9.74850206 172.784832,8.99293688 C173.169332,8.23737171 173.721507,7.63633683 174.441375,7.18981422 C175.161243,6.74329162 175.990702,6.49645492 176.929777,6.44929673 C177.748457,6.40818446 178.487851,6.53097592 179.147982,6.81767479 C179.808113,7.10437367 180.340198,7.54535045 180.744254,8.14061837 L179.819773,8.83880849 C179.483169,8.38499061 179.06819,8.05279419 178.574824,7.84220924 C178.081458,7.63162429 177.551856,7.5405411 176.986004,7.56895693 C176.299757,7.60341869 175.690454,7.78790384 175.158078,8.12241793 C174.625702,8.45693201 174.220225,8.91481704 173.941635,9.49608675 C173.663046,10.0773565 173.541891,10.7291641 173.578167,11.4515291 C173.615047,12.1859335 173.801043,12.8253341 174.136162,13.3697499 C174.471281,13.9141657 174.920439,14.3261155 175.483649,14.6056117 C176.04686,14.8851079 176.671579,15.0076233 177.357826,14.9731615 C177.923679,14.9447457 178.441642,14.8040735 178.911731,14.5511409 C179.381821,14.2982083 179.761583,13.9291192 180.051028,13.4438625 L181.040805,14.045923 C180.698417,14.6786756 180.210177,15.1708908 179.57607,15.5225834 C178.941964,15.8742759 178.221601,16.0703731 177.41496,16.1108807 Z M183.13919,6.23819346 L184.422233,6.19392012 L184.75023,15.6992854 L183.467187,15.7435587 L183.13919,6.23819346 Z M183.718037,4.13757579 C183.452994,4.14672151 183.227002,4.06405782 183.040055,3.88958227 C182.853108,3.71510671 182.755271,3.50137425 182.746541,3.24837847 C182.738227,3.00743011 182.821306,2.79348565 182.995782,2.60653867 C183.170257,2.41959168 183.390013,2.32154681 183.655056,2.3124011 C183.9201,2.30325538 184.145987,2.38290726 184.332727,2.5513591 C184.519466,2.71981095 184.616991,2.92450799 184.625305,3.16545635 C184.634451,3.43049954 184.551787,3.65649124 184.377312,3.84343822 C184.202836,4.03038521 183.98308,4.12843008 183.718037,4.13757579 Z M192.868512,5.93998759 C193.760402,5.92369519 194.571601,6.11082182 195.302131,6.50137311 C196.032661,6.8919244 196.609527,7.45105243 197.032744,8.17877395 C197.455962,8.90649548 197.676155,9.74039426 197.693328,10.6804953 C197.710721,11.6326489 197.521242,12.4800595 197.124884,13.2227524 C196.728527,13.9654453 196.17548,14.5452138 195.465727,14.9620751 C194.755974,15.3789364 193.949139,15.5956201 193.045195,15.6121327 C192.27383,15.6262234 191.574887,15.4792436 190.948345,15.171189 C190.321803,14.8631343 189.804058,14.4054059 189.395094,13.7979899 L189.491857,19.0950713 L188.208264,19.118519 L187.970484,6.10180038 L189.199841,6.0793434 L189.234187,7.95953609 C189.608421,7.32575669 190.108828,6.83435888 190.735424,6.48532791 C191.362019,6.13629694 192.073042,5.95451865 192.868512,5.93998759 Z M192.933996,14.474821 C193.596887,14.4627118 194.1967,14.2980356 194.733452,13.9807873 C195.270204,13.663539 195.68707,13.2188788 195.984062,12.6467934 C196.281055,12.074708 196.422945,11.4270977 196.409735,10.703943 C196.396524,9.98078839 196.231133,9.34180536 195.913554,8.78697478 C195.595976,8.2321442 195.163148,7.80300561 194.615057,7.49954614 C194.066967,7.19608667 193.461485,7.05041372 192.798593,7.06252294 C192.123649,7.07485233 191.520878,7.24259674 190.990263,7.56576122 C190.459647,7.88892569 190.045794,8.33353082 189.748692,8.89958995 C189.451589,9.46564908 189.309644,10.1102463 189.322854,10.833401 C189.336064,11.5565556 189.501511,12.1985517 189.8192,12.7594086 C190.136888,13.3202655 190.566703,13.7494591 191.108657,14.0470024 C191.650611,14.3445456 192.259051,14.4871504 192.933996,14.474821 Z M203.506498,5.84627043 C204.748119,5.84789048 205.700012,6.15953376 206.362204,6.7812096 C207.024395,7.40288544 207.354692,8.32246576 207.353103,9.53997814 L207.345412,15.4346373 L206.115851,15.433033 L206.117786,13.9503273 C205.827831,14.4441875 205.40241,14.8293738 204.841511,15.1058977 C204.280611,15.3824216 203.614425,15.5201782 202.842932,15.5191716 C201.782129,15.5177874 200.938651,15.2635441 200.312474,14.7564339 C199.686296,14.2493238 199.373755,13.5798958 199.37484,12.7481299 C199.375894,11.9404732 199.669063,11.2899172 200.254355,10.7964423 C200.839646,10.3029674 201.771171,10.0570673 203.048956,10.0587346 L206.068613,10.0626746 L206.069368,9.48405772 C206.070438,8.66434641 205.842218,8.04023252 205.384702,7.61169731 C204.927187,7.1831621 204.258447,6.96832362 203.378463,6.96717543 C202.775734,6.96638899 202.196993,7.06508281 201.642223,7.26325983 C201.087453,7.46143684 200.610946,7.73505311 200.212689,8.08411682 L199.635323,7.12502769 C200.11804,6.71580119 200.697064,6.40012822 201.372412,6.17799934 C202.047759,5.95587045 202.759114,5.84529525 203.506498,5.84627043 Z M203.043152,14.5068516 C203.766427,14.5077953 204.387445,14.3428574 204.906224,14.0120328 C205.425004,13.6812082 205.81137,13.2025493 206.065334,12.5760415 L206.067363,11.0210087 L203.083869,11.0171159 C201.456501,11.0149925 200.64209,11.5804875 200.640612,12.7136179 C200.639888,13.2681285 200.85027,13.7053756 201.271764,14.0253724 C201.693257,14.3453692 202.283714,14.5058607 203.043152,14.5068516 Z M215.684038,14.9596567 C215.439706,15.1729834 215.138896,15.334219 214.781602,15.4433684 C214.424307,15.5525177 214.052813,15.6041866 213.66711,15.5983765 C212.775172,15.5849406 212.09178,15.3335306 211.616914,14.8441391 C211.142047,14.3547477 210.911245,13.6701196 210.924499,12.7902345 L211.011106,7.04087692 L209.31161,7.01527619 L209.327951,5.93049174 L211.027447,5.95609247 L211.058767,3.87692227 L212.342429,3.896259 L212.311109,5.97542919 L215.203867,6.01900491 L215.187526,7.10378936 L212.294768,7.06021364 L212.20925,12.7372523 C212.200717,13.3037536 212.335849,13.7367832 212.614651,14.0363539 C212.893454,14.3359246 213.29802,14.4897022 213.828361,14.4976911 C214.093532,14.5016855 214.350295,14.4633581 214.598657,14.3827077 C214.847019,14.3020573 215.062776,14.1847496 215.245935,14.0307812 L215.684038,14.9596567 Z M218.053589,6.07742986 L219.337038,6.10775522 L219.112374,15.616124 L217.828925,15.5857986 L218.053589,6.07742986 Z M218.75347,4.01398023 C218.488343,4.0077158 218.267535,3.91206524 218.091037,3.72702567 C217.91454,3.5419861 217.829283,3.32293174 217.835262,3.06985602 C217.840957,2.82883153 217.936323,2.62007383 218.121363,2.44357665 C218.306402,2.26707948 218.531482,2.18196438 218.796609,2.18822881 C219.061736,2.19449323 219.282616,2.28713103 219.459256,2.46614499 C219.635895,2.64515894 219.721366,2.85517502 219.715671,3.09619952 C219.709407,3.36132646 219.613756,3.58213521 219.428717,3.75863238 C219.243677,3.93512955 219.018597,4.02024465 218.75347,4.01398023 Z M227.676529,6.30823532 C228.869204,6.3499436 229.805796,6.72947264 230.486334,7.44683383 C231.166872,8.16419502 231.483966,9.18545762 231.437623,10.5106523 L231.244881,16.0222297 L229.961858,15.977362 L230.150176,10.5922797 C230.184723,9.60440734 229.964089,8.84283069 229.488268,8.30752693 C229.012448,7.77222317 228.316754,7.4885663 227.401165,7.45654782 C226.377151,7.42073768 225.556349,7.69659381 224.938736,8.28412449 C224.321123,8.87165516 223.993574,9.70150952 223.956079,10.7737125 L223.781663,15.7612383 L222.49864,15.7163705 L222.831041,6.21115825 L224.059852,6.2541302 L223.998553,8.00699254 C224.368145,7.44094336 224.868732,7.0091479 225.500328,6.71159319 C226.131924,6.41403848 226.857317,6.27958721 227.676529,6.30823532 Z M243.864745,7.10479339 L243.448315,15.4481955 C243.367793,17.0615021 242.913862,18.236735 242.08651,18.9739296 C241.259157,19.7111241 240.050885,20.0400562 238.461658,19.9607358 C237.582767,19.9168692 236.755497,19.7458329 235.979822,19.4476217 C235.204148,19.1494106 234.580926,18.7592397 234.110137,18.2770974 L234.808946,17.3343437 C235.246019,17.7665248 235.786919,18.1133612 236.43166,18.3748634 C237.076401,18.6363655 237.759949,18.7851417 238.482325,18.8211965 C239.686285,18.8812877 240.585154,18.6455375 241.178957,18.1139389 C241.772761,17.5823403 242.099103,16.7266134 242.157992,15.5467325 L242.218383,14.3367586 C241.791031,14.9189085 241.247492,15.3504175 240.587749,15.6312983 C239.928007,15.9121791 239.206859,16.0330881 238.424285,15.9940288 C237.533355,15.9495613 236.733468,15.71351 236.024602,15.2858677 C235.315736,14.8582255 234.771205,14.281889 234.390992,13.5568408 C234.010779,12.8317926 233.842909,12.0238154 233.887376,11.1328849 C233.931844,10.2419544 234.179183,9.45771822 234.629402,8.78015281 C235.079622,8.1025874 235.675525,7.58920613 236.41713,7.23999362 C237.158735,6.8907811 237.981011,6.73871133 238.883981,6.78377974 C239.690634,6.82404086 240.410907,7.02292768 241.044821,7.38044618 C241.678735,7.73796467 242.179014,8.23364137 242.545674,8.86749115 L242.636712,7.04350065 L243.864745,7.10479339 Z M238.607486,14.8626017 C239.293744,14.8968537 239.921135,14.7803173 240.489679,14.512989 C241.058223,14.2456607 241.509213,13.8547929 241.842663,13.3403737 C242.176113,12.8259545 242.359661,12.2316449 242.393312,11.5574273 C242.426963,10.8832096 242.303355,10.2765869 242.022485,9.73754095 C241.741615,9.19849503 241.334646,8.76782265 240.801567,8.44551091 C240.268487,8.12319918 239.652808,7.94461953 238.954511,7.90976663 C238.268254,7.87551463 237.644023,7.98919139 237.081799,8.25080033 C236.519575,8.51240926 236.071745,8.9004175 235.738295,9.41483671 C235.404845,9.92925591 235.221298,10.5235654 235.187647,11.1977831 C235.153995,11.8720008 235.277453,12.4816334 235.558023,13.0266991 C235.838592,13.5717648 236.245411,14.005447 236.77849,14.3277588 C237.31157,14.6500705 237.921229,14.8283497 238.607486,14.8626017 Z" id="path-15"></path>
        <filter x="-0.6%" y="-11.7%" width="102.5%" height="116.7%" filterUnits="objectBoundingBox" id="filter-16">
            <feOffset dx="2" dy="-1" in="SourceAlpha" result="shadowOffsetOuter1"></feOffset>
            <feGaussianBlur stdDeviation="0.5" in="shadowOffsetOuter1" result="shadowBlurOuter1"></feGaussianBlur>
            <feColorMatrix values="0 0 0 0 0.730309311   0 0 0 0 0.262336346   0 0 0 0 0.137422866  0 0 0 1 0" type="matrix" in="shadowBlurOuter1"></feColorMatrix>
        </filter>
        <filter x="-5.9%" y="-14.1%" width="111.9%" height="128.2%" filterUnits="objectBoundingBox" id="filter-17">
            <feOffset dx="0" dy="2" in="SourceAlpha" result="shadowOffsetOuter1"></feOffset>
            <feGaussianBlur stdDeviation="2" in="shadowOffsetOuter1" result="shadowBlurOuter1"></feGaussianBlur>
            <feColorMatrix values="0 0 0 0 0   0 0 0 0 0   0 0 0 0 0  0 0 0 0.5 0" type="matrix" in="shadowBlurOuter1" result="shadowMatrixOuter1"></feColorMatrix>
            <feMerge>
                <feMergeNode in="shadowMatrixOuter1"></feMergeNode>
                <feMergeNode in="SourceGraphic"></feMergeNode>
            </feMerge>
        </filter>
    </defs>
    <g id="2019-after" stroke="none" stroke-width="1" fill="none" fill-rule="evenodd">
        <g id="home-after-week" transform="translate(-75.000000, -149.000000)">
            <g id="Group-9" transform="translate(75.000000, 149.000000)">
                <g id="globe">
                    <g id="Group-40" transform="translate(52.712571, 0.000000)">
                        <g id="Group-11" transform="translate(20.437402, 4.379443)">
                            <path d="M213.216269,106.517743 C213.216269,165.327024 165.529587,213.002093 106.704065,213.002093 C47.8794,213.002093 0.192717372,165.327024 0.192717372,106.517743 C0.192717372,47.7084612 47.8794,0.0333919943 106.704065,0.0333919943 C165.529587,0.0333919943 213.216269,47.7084612 213.216269,106.517743" id="Fill-1" fill="#ACD8EB"></path>
                            <path d="M201.926938,106.517743 C201.926938,159.093746 159.294633,201.715669 106.70411,201.715669 C54.1143534,201.715669 11.4820486,159.093746 11.4820486,106.517743 C11.4820486,53.9417387 54.1143534,11.3198164 106.70411,11.3198164 C159.294633,11.3198164 201.926938,53.9417387 201.926938,106.517743" id="Fill-1" stroke="#E25E3B" stroke-width="0.995328" opacity="0.121316964"></path>
                            <path d="M197.080086,106.517743 C197.080086,156.418111 156.618086,196.869529 106.703807,196.869529 C56.7903858,196.869529 16.3275291,156.418111 16.3275291,106.517743 C16.3275291,56.6173739 56.7903858,16.1650986 106.703807,16.1650986 C156.618086,16.1650986 197.080086,56.6173739 197.080086,106.517743" id="Fill-3" fill="#00AEEF"></path>
                            <path d="M196.365849,106.517743 C196.340983,100.651901 195.811951,94.7766306 194.603835,89.0350837 C193.405152,83.2952513 191.626847,77.6814276 189.286071,72.3204789 C186.950438,66.9603875 184.126073,61.8180256 180.811258,57.0168306 C179.970979,55.8253182 179.108407,54.6500926 178.292136,53.4405789 C177.42785,52.2670678 176.524979,51.1209871 175.643543,49.9577624 L172.826037,46.6052408 L169.845619,43.391586 C161.682053,35.0287118 151.855935,28.2310906 141.04549,23.6296239 C130.253909,18.9707246 118.475428,16.6459896 106.704665,16.5937002 C94.915038,16.5782706 83.1905757,19.2158848 72.4890242,23.9339311 C67.1361049,26.3015262 62.0164059,29.1517268 57.1856598,32.4228141 C52.3600584,35.6990447 47.811406,39.38759 43.6803208,43.5098801 C35.3701343,51.6910272 28.5673053,61.4785731 24.02294,72.2801904 C19.4811471,83.0800933 17.226113,94.80749 17.2123942,106.517743 C17.1420851,118.226281 19.2565011,129.991394 23.6585334,140.906163 C25.8295396,146.375119 28.6504758,151.578342 31.9052702,156.481544 C35.1772132,161.377032 38.9919077,165.898778 43.1710089,170.033927 C51.5377855,178.311081 61.6288487,184.764106 72.4890242,189.100697 C83.3706354,193.401285 95.0367927,195.636014 106.704665,195.548579 C118.354531,195.490289 130.040409,193.452717 140.920305,189.103269 C151.801917,184.798394 161.778942,178.119924 169.880774,169.678187 C173.914112,165.440175 177.517022,160.814706 180.64406,155.906361 C183.763381,150.989444 186.411974,145.80165 188.636141,140.444987 C190.809719,135.066894 192.63261,129.549935 194.066228,123.894108 C194.374902,122.469437 194.734164,121.050765 195.006826,119.61495 C195.248621,118.175706 195.526427,116.736462 195.740784,115.286074 C195.896836,113.8314 196.063177,112.375012 196.195221,110.914338 L196.365849,106.517743 Z M197.79518,106.517743 L197.741162,110.988914 L197.544811,115.462658 C197.461641,116.954191 197.312449,118.442296 197.198411,119.937258 C197.052648,121.428792 196.81857,122.909182 196.629936,124.399858 C195.76565,130.345419 194.142539,136.203546 191.784614,141.750508 C189.481564,147.319757 186.517438,152.6087 183.057718,157.522189 C179.608287,162.44425 175.667551,167.004571 171.3384,171.135433 C162.705821,179.420301 152.648198,186.158776 141.66541,190.900824 C130.690339,195.630871 118.717223,198.241054 106.704665,198.191337 C94.7075406,198.09533 82.7147034,195.682303 71.7413475,190.903395 C66.249525,188.538372 61.0003544,185.631596 56.0915825,182.247358 C51.1862403,178.857119 46.6144374,175.003133 42.4259045,170.778836 C34.0882804,162.285667 27.4080634,152.222959 22.7367989,141.288475 C20.4063112,135.817804 18.596282,130.116546 17.3590142,124.28585 C16.1234614,118.452582 15.5086859,112.487306 15.4443788,106.517743 C15.4383769,94.5700447 17.8331716,82.6437768 22.3732497,71.5961423 C26.8781733,60.537364 33.4949406,50.2955004 41.9165926,41.7466131 C46.1557137,37.5086006 50.7952534,33.6571867 55.8034869,30.3578117 C60.8057184,27.051579 66.1646396,24.292242 71.7413475,22.13209 C82.8947632,17.7714974 94.8301527,15.7604987 106.704665,15.736497 C118.596326,15.6919225 130.477697,18.0166575 141.540226,22.4363971 C152.59418,26.88271 162.803568,33.5011757 171.374412,41.8649072 L174.510024,45.0785619 L177.486155,48.4430844 C178.422465,49.6123095 179.379354,50.7669622 180.298517,51.951617 C181.181667,53.1611307 182.077678,54.3663583 182.89052,55.6255898 C186.154746,60.6539437 188.9431,65.9900335 191.134684,71.5549965 C195.512708,82.686637 197.763455,94.5983324 197.79518,106.517743 L197.79518,106.517743 Z" id="Fill-5" fill="#231F20"></path>
                            <path d="M27.2169429,75.7429484 C28.4739315,77.6630835 29.8964035,79.4649246 30.4820264,82.0631074 C31.5358047,86.7425796 30.9776195,91.7623614 31.3737509,96.5172674 L44.3586316,110.117653 L56.1071019,115.680902 L58.58078,136.080623 L65.3818942,160.188605 C68.8278949,164.520053 72.2756105,168.852358 75.7224687,173.183805 C77.0540534,174.857923 82.0331344,182.938778 84.8394943,181.970995 C90.666571,179.961711 78.966974,167.572553 81.4680897,163.262536 C81.8410707,162.621348 92.6095015,144.073185 93.8253335,141.643872 C95.0608864,139.17084 97.5345645,123.098281 90.7334503,118.771119 C83.9314787,114.443958 67.2365096,111.35374 67.2365096,111.35374 L69.7101877,101.46333 C69.7101877,101.46333 69.0919826,90.3351181 70.9508852,89.0964595 C74.2871352,86.8557304 76.9520196,78.7354447 78.9241026,75.1317625 C82.5424463,68.5167256 84.6585771,61.4833735 84.2512991,53.870552 C84.0678096,50.4537401 83.2892655,46.8286279 80.8233043,44.4541751 C76.8208332,40.601904 70.368692,41.6014029 64.9566102,42.8606344 C53.7869033,45.4596744 41.8961001,48.1512924 33.2652358,56.874192 C28.9420868,61.245071 24.9078909,68.0744087 25.6015496,72.7187355 C25.7764648,73.8913895 26.5987377,74.7991677 27.2169429,75.7429484" id="Fill-7" fill="#64C2EE"></path>
                            <path d="M109.28252,66.2274787 L103.099611,78.5909202 L106.8097,96.5176103 C106.8097,96.5176103 109.901583,107.644108 112.374404,107.026921 C114.847224,106.408021 127.2139,107.026921 127.2139,107.026921 L130.30664,117.534518 L119.176375,128.661872 L118.557313,150.915724 L132.161256,166.988284 L137.107755,178.732824 C137.107755,178.732824 145.145279,173.169576 147.000752,171.315445 C148.855367,169.461315 151.947251,152.770712 153.802724,149.679637 C155.657339,146.588562 154.420929,125.570798 154.420929,125.570798 C154.420929,125.570798 150.092635,118.153419 151.947251,115.680387 C153.802724,113.208213 165.550336,100.226728 165.551194,100.226728 C175.596813,100.225871 191.542391,98.8011996 191.944524,86.0100137 C192.078283,81.7660008 190.636948,77.6342815 188.957247,73.734007 C181.555934,56.5402256 171.785549,42.1194965 155.781666,32.342237 C151.308467,29.6086161 147.957641,27.1870171 142.801073,24.8759973 C142.057683,42.1374978 121.102157,55.5930161 109.28252,66.2274787" id="Fill-9" fill="#64C2EE"></path>
                        </g>
                        <g id="Group-14" transform="translate(28.612362, 42.918543)">
                            <mask id="mask-2" fill="white">
                                <use xlink:href="#path-1"></use>
                            </mask>
                            <g id="Clip-13"></g>
                            <polygon id="Fill-12" fill="#E25E3B" mask="url(#mask-2)" points="-6.11589243 26.4863399 26.4000135 26.4863399 26.4000135 -6.1486604 -6.11589243 -6.1486604"></polygon>
                        </g>
                        <g id="Group-17" transform="translate(28.612362, 199.118684)">
                            <mask id="mask-4" fill="white">
                                <use xlink:href="#path-3"></use>
                            </mask>
                            <g id="Clip-16"></g>
                            <polygon id="Fill-15" fill="#E25E3B" mask="url(#mask-4)" points="-6.11945855 39.4393752 36.4262005 39.4393752 36.4262005 -6.10315678 -6.11945855 -6.10315678"></polygon>
                        </g>
                        <g id="Group-20" transform="translate(202.330276, 0.000000)">
                            <mask id="mask-6" fill="white">
                                <use xlink:href="#path-5"></use>
                            </mask>
                            <g id="Clip-19"></g>
                            <polygon id="Fill-18" fill="#E25E3B" mask="url(#mask-6)" points="-6.18653771 26.5436017 26.4476079 26.5436017 26.4476079 -6.09139851 -6.18653771 -6.09139851"></polygon>
                        </g>
                        <g id="Group-23" transform="translate(204.957942, 113.573560)">
                            <mask id="mask-8" fill="white">
                                <use xlink:href="#path-7"></use>
                            </mask>
                            <g id="Clip-22"></g>
                            <polygon id="Fill-21" fill="#E25E3B" mask="url(#mask-8)" points="-6.24501162 26.4067031 26.4178233 26.4067031 26.4178233 -6.25698731 -6.24501162 -6.25698731"></polygon>
                        </g>
                        <g id="Group-26" transform="translate(88.756716, 98.391491)">
                            <mask id="mask-10" fill="white">
                                <use xlink:href="#path-9"></use>
                            </mask>
                            <g id="Clip-25"></g>
                            <polygon id="Fill-24" fill="#E25E3B" mask="url(#mask-10)" points="-6.0451516 31.5776804 29.2016222 31.5776804 29.2016222 -6.18166989 -6.0451516 -6.18166989"></polygon>
                        </g>
                        <g id="Group-39" transform="translate(0.000000, 9.926738)">
                            <path d="M215.090295,0.280977825 L215.090295,114.032813 L41.2725818,206.920221 L101.241871,99.7145257 L41.2725818,42.207159 L215.090295,0.280977825 Z" id="Stroke-27" stroke="#E25E3B" stroke-width="1.91102976" stroke-linecap="round" stroke-linejoin="round" stroke-dasharray="6.635519714355469,6.635519714355469"></path>
                            <path d="M210.051616,113.680024 L99.2118197,98.2661387 L210.051616,0.280806235" id="Stroke-29" stroke="#E25E3B" stroke-width="1.65888" stroke-linecap="round" stroke-linejoin="round" stroke-dasharray="6.635519714355469,6.635519714355469"></path>
                            <path d="M228.663624,26.3660665 C226.360841,23.2585804 222.103478,22.5104501 218.869289,24.4965987 C218.529661,23.6051912 218.073393,22.742096 217.478185,21.9390571 C215.437842,19.1859034 212.323723,17.7085177 209.144424,17.6364501 C207.522612,12.974363 203.101439,9.621504 197.8878,9.621504 C192.301084,9.621504 187.624332,13.4693988 186.328426,18.6565497 C185.138869,18.0851566 183.811231,17.7557048 182.403831,17.7557048 C177.381447,17.7557048 173.310194,21.8283818 173.310194,26.8516648 C173.310194,28.8952958 173.992024,30.774201 175.128407,32.2927682 C171.816172,33.1232614 169.869312,34.127918 169.869312,35.2115058 C169.869312,38.0624655 183.294069,40.3737762 199.85267,40.3737762 C216.412129,40.3737762 229.836029,38.0624655 229.836029,35.2115058 C229.836029,34.864037 229.630193,34.5260057 229.251971,34.1982697 C230.523862,31.7625566 230.409795,28.7211325 228.663624,26.3660665" id="Fill-31" fill="#F1F2F2"></path>
                            <path d="M0.729952581,96.4800635 C0.729952581,99.4176759 15.845133,101.79848 34.4903907,101.79848 C53.1356485,101.79848 68.2508289,99.4176759 68.2508289,96.4800635 C68.2508289,95.3767429 66.1161441,94.3523535 62.4625656,93.5012695 C63.4076932,92.3533357 63.9977547,90.9034043 63.9977547,89.2999004 C63.9977547,85.6287428 61.0225753,82.6525227 57.3518438,82.6525227 C57.0525248,82.6525227 56.7669282,82.7014257 56.4787586,82.7400333 C56.5242139,82.3616785 56.5542316,81.9790339 56.5542316,81.5886677 C56.5542316,76.3011369 52.2694245,72.0148309 46.9846002,72.0148309 C41.699776,72.0148309 37.4141112,76.3011369 37.4141112,81.5886677 C37.4141112,81.8263192 37.4329795,82.058823 37.4501324,82.2930427 C35.7056773,80.8559805 33.4706478,79.9928853 31.0349288,79.9928853 C26.8701923,79.9928853 23.2963749,82.5152511 21.750894,86.115199 C20.3692238,84.9664073 18.6170499,84.2474472 16.6796241,84.2474472 C13.8965578,84.2474472 11.4531199,85.6785037 10.0259944,87.8405316 C9.00282085,86.6291096 7.49078822,85.8432297 5.780639,85.8432297 C2.69739606,85.8432297 0.1982111,88.3432888 0.1982111,91.4276103 C0.1982111,92.8998483 0.779696139,94.229667 1.71110138,95.22746 C1.09273749,95.6298374 0.729952581,96.0476579 0.729952581,96.4800635" id="Fill-33" fill="#F1F2F2"></path>
                            <path d="M231.589119,117.751071 C234.013688,119.426643 236.337913,121.281526 238.32251,123.490741 C239.308804,124.597493 240.188751,125.808915 240.889449,127.128438 C241.585001,128.445388 242.093586,129.891029 242.221375,131.400159 C242.352595,132.902425 242.149333,134.451021 241.56699,135.852049 C240.994939,137.254793 240.145868,138.534851 239.128698,139.641603 C237.090928,141.864545 234.562583,143.540975 231.946758,144.950583 C226.662791,147.724327 220.948286,149.483978 215.206335,150.91246 C209.44809,152.314347 203.604937,153.319003 197.736912,154.082577 C185.997433,155.612297 174.152462,156.096179 162.332364,156.078163 C150.507977,156.039555 138.691309,155.421833 126.920954,154.320228 C115.155745,153.164573 103.436849,151.531041 91.8165822,149.34928 C80.2040343,147.147786 68.6600983,144.481285 57.3794601,140.900212 C51.7404274,139.116539 46.1605725,137.129533 40.7025035,134.833665 C35.2521533,132.531792 29.8961443,129.94937 24.8926285,126.746652 C22.4011624,125.137142 20.0014646,123.362906 17.8333316,121.318417 C15.6969315,119.267065 13.7097621,116.929158 12.6171192,114.111658 C12.0810894,112.712345 11.7809128,111.198926 11.8975529,109.694086 C11.9790294,108.190104 12.473892,106.727303 13.220903,105.440382 C14.7432274,102.851954 17.1223417,100.943879 19.608662,99.3892778 C17.1686547,101.01423 14.8581522,102.992658 13.4464643,105.568216 C12.7483392,106.843984 12.3006472,108.266461 12.2543342,109.714677 C12.1737154,111.162034 12.4944756,112.60596 13.0399394,113.944358 C14.1497353,116.63574 16.1343318,118.877557 18.2741624,120.843114 C20.4440107,122.802667 22.8462815,124.499687 25.3420359,126.036271 C30.3309717,129.12145 35.6732582,131.62151 41.1158896,133.831582 C46.5653821,136.038224 52.1375183,137.940293 57.7696897,139.639029 C80.3266779,146.376492 103.653834,150.383107 127.083907,152.61377 C138.801946,153.762562 150.56887,154.429187 162.34094,154.519272 C174.110438,154.614504 185.889369,154.09373 197.57739,152.777638 C203.417112,152.097286 209.231962,151.17585 214.95676,149.863191 C220.666119,148.527366 226.337743,146.844931 231.560816,144.209316 C234.153485,142.883787 236.650955,141.299158 238.656134,139.20405 C239.657009,138.161644 240.488927,136.960517 241.060121,135.64271 C241.640748,134.327476 241.862879,132.872397 241.77111,131.437909 C241.571279,128.53204 239.996638,125.883556 238.127824,123.659756 C236.228134,121.416223 233.964802,119.496137 231.589119,117.751071" id="Fill-35" fill="#FFFFFF"></path>
                            <path d="M228.775777,138.328429 C229.551091,137.497078 230.035662,136.389467 230.035662,135.162602 C230.035662,132.591333 227.953293,130.509095 225.383781,130.509095 C223.959229,130.509095 222.699345,131.162851 221.845985,132.172655 C220.657286,130.371823 218.620373,129.179276 216.301294,129.179276 C214.686343,129.179276 213.226627,129.777265 212.075664,130.734735 C210.787478,127.73535 207.809725,125.633379 204.338826,125.633379 C202.308774,125.633379 200.446821,126.352339 198.992251,127.550034 C199.006831,127.35528 199.022269,127.160525 199.022269,126.963198 C199.022269,122.556779 195.451882,118.985143 191.047862,118.985143 C186.642984,118.985143 183.072597,122.556779 183.072597,126.963198 C183.072597,127.28836 183.097469,127.607516 183.135205,127.922383 C182.895064,127.890639 182.657496,127.849457 182.408778,127.849457 C179.349549,127.849457 176.87009,130.329784 176.87009,133.389225 C176.87009,134.725049 177.361522,135.933897 178.148843,136.890509 C175.105051,137.598315 173.325433,138.453689 173.325433,139.372551 C173.325433,141.820275 185.920845,143.804708 201.458845,143.804708 C216.996846,143.804708 229.592258,141.820275 229.592258,139.372551 C229.592258,139.012213 229.290366,138.664744 228.775777,138.328429" id="Fill-37" fill="#F1F2F2"></path>
                        </g>
                    </g>
                    <g id="Group-15" transform="translate(0.000000, 64.364544)">
                        <path d="M331.096386,56.9758691 C335.496433,48.1075001 339.896481,39.3403394 344.296528,30.6852306 C344.296528,30.3653404 319.132858,31.2265138 312.396184,30.1900333 L312.396184,9.17577618 C222.931247,0.16643867 133.465412,28.5598583 43.9995765,21.6361327 L43.9995765,37.4860605 C38.4995171,43.781753 0,30.2270828 0,29.4418155 C5.50005939,40.2846481 11.0001188,50.9503663 16.4992795,61.4534285 C11.0001188,67.1716921 5.50005939,72.7291069 0,78.1076 C6.60007127,76.7747241 59.3997428,93.3602187 59.3997428,92.1728296 C59.3997428,92.1836733 64.570877,85.6918899 64.184435,70.1898653 C138.322,71.8661262 212.458667,53.0450147 286.594435,55.1098428 C287.192971,66.1822011 290.396845,77.3512494 290.396845,77.354864 C290.397744,76.4602558 337.697356,85.3286247 348.696576,81.4257833 C342.829846,73.0788174 336.963116,64.9369788 331.096386,56.9758691" id="Fill-1" fill="#411793" opacity="0.399107143" style="mix-blend-mode: multiply;"></path>
                        <g id="Group-5" transform="translate(43.667343, 0.000000)">
                            <mask id="mask-12" fill="white">
                                <use xlink:href="#path-11"></use>
                            </mask>
                            <g id="Clip-4"></g>
                            <path d="M268.730622,49.4866451 C179.217051,40.4694553 89.7034802,68.8876218 0.190808218,61.9587661 L0.190808218,14.3566866 C89.7034802,21.2864467 179.217051,-7.13171982 268.730622,1.88546996 L268.730622,49.4866451 Z" id="Fill-3" fill="#E25E3B" mask="url(#mask-12)"></path>
                        </g>
                        <path d="M290.333982,69.8275539 C290.334876,68.9358625 337.42499,77.7753165 348.375493,73.8852001 C342.534747,65.5663499 336.694002,57.4501567 330.853257,49.5150039 C335.234711,40.67555 339.614375,31.9378749 343.995828,23.3100851 C343.995828,22.9921386 318.943612,23.8496034 312.235882,22.8174031 L312.235882,49.2754182 C303.840705,48.4287617 295.444634,47.9135622 287.048563,47.6685722 C288.144597,55.0506962 289.238842,62.436423 290.333982,69.8275539" id="Fill-6" fill="#E25E3B"></path>
                        <path d="M312.414151,49.5049241 C305.023093,56.1193988 297.631129,62.9842921 290.239165,70.0590687 C290.239165,70.0554655 287.008805,58.9217453 286.406396,47.8844093 C295.075648,48.1231177 303.745805,48.6419707 312.414151,49.5049241" id="Fill-8" fill="#C44928"></path>
                        <g id="Group-12" transform="translate(0.000000, 22.174659)">
                            <mask id="mask-14" fill="white">
                                <use xlink:href="#path-13"></use>
                            </mask>
                            <g id="Clip-11"></g>
                            <path d="M59.4811314,62.9278233 C59.4811314,64.115633 6.60887461,47.5125322 -0.000269981397,48.8468957 C5.50735051,43.461495 11.014971,37.8987823 16.5225915,32.1741366 C11.014971,21.6593521 5.50735051,10.98173 -0.000269981397,0.126795812 C-0.000269981397,0.912939473 38.5521736,14.482738 44.0597941,8.17911425 L44.0597941,39.9252055 C50.6689386,40.4363346 57.2780832,40.7547726 63.8872278,40.9112776" id="Fill-10" fill="#E25E3B" mask="url(#mask-14)"></path>
                        </g>
                        <path d="M43.9884263,62.0247718 C49.1275993,69.7412445 54.2667724,77.3419567 59.4059454,84.8421636 C59.4059454,84.8520346 64.5829065,78.4062359 64.196029,63.0118773 C57.4607612,62.860222 50.7245937,62.5416561 43.9884263,62.0247718" id="Fill-13" fill="#C44928"></path>
                    </g>
                    <g id="Group-16" transform="translate(51.425280, 80.455680)" fill-rule="nonzero">
                        <path d="M0.2322432,30.4793521 C55.5803459,30.2167376 98.7252365,27.0812539 129.666915,21.0729011 C160.608594,15.0645484 201.931073,13.8342746 253.634354,17.3820798" id="Path-4"></path>
                        <g id="Thankyouforparticipating">
                            <use fill="black" fill-opacity="1" filter="url(#filter-16)" xlink:href="#path-15"></use>
                            <use fill="#FFFFFF" xlink:href="#path-15"></use>
                        </g>
                    </g>
                </g>
                <g id="Home-text" filter="url(#filter-17)" transform="translate(79.000000, 172.000000)" fill-rule="nonzero">
                    <rect id="Background" fill="#FFFFFF" x="0.5" y="0.428571792" width="201" height="84" rx="4"></rect>
                    <g id="Join-us-again-next-y" transform="translate(16.777344, 21.552010)">
                        <path d="M6.578125,8.0546875 C6.578125,9.02344234 6.43489727,9.77603898 6.1484375,10.3125 C5.61718484,11.2916716 4.60677828,11.78125 3.1171875,11.78125 C2.2578082,11.78125 1.52344055,11.5481794 0.9140625,11.0820313 C0.304684453,10.6158831 0,9.7864643 0,8.59375 L0,7.7734375 L1.4609375,7.7734375 L1.4609375,8.59375 C1.4609375,9.21875313 1.60025902,9.68880051 1.87890625,10.0039063 C2.15755348,10.319012 2.59114289,10.4765625 3.1796875,10.4765625 C4.00781664,10.4765625 4.54947789,10.1927112 4.8046875,9.625 C4.96093828,9.27603992 5.0390625,8.61719234 5.0390625,7.6484375 L5.0390625,2.66453526e-14 L6.578125,2.66453526e-14 L6.578125,8.0546875 Z M12.078125,10.5703125 C13.0104213,10.5703125 13.6497379,10.2174514 13.9960938,9.51171875 C14.3424496,8.80598605 14.515625,8.02083766 14.515625,7.15625 C14.515625,6.37499609 14.3906263,5.73958578 14.140625,5.25 C13.7447897,4.47916281 13.0625048,4.09375 12.09375,4.09375 C11.2343707,4.09375 10.609377,4.42187172 10.21875,5.078125 C9.82812305,5.73437828 9.6328125,6.52603703 9.6328125,7.453125 C9.6328125,8.34375445 9.82812305,9.08593453 10.21875,9.6796875 C10.609377,10.2734405 11.2291624,10.5703125 12.078125,10.5703125 Z M12.1328125,2.8671875 C13.2109429,2.8671875 14.1223921,3.22655891 14.8671875,3.9453125 C15.6119829,4.66406609 15.984375,5.72134719 15.984375,7.1171875 C15.984375,8.46615258 15.6562533,9.58072477 15,10.4609375 C14.3437467,11.3411502 13.3255277,11.78125 11.9453125,11.78125 C10.7942651,11.78125 9.88021172,11.391931 9.203125,10.6132813 C8.52603828,9.83463152 8.1875,8.78906906 8.1875,7.4765625 C8.1875,6.07030547 8.54426727,4.950525 9.2578125,4.1171875 C9.97135773,3.28385 10.9296815,2.8671875 12.1328125,2.8671875 Z M17.65625,3.1484375 L19.0859375,3.1484375 L19.0859375,11.4765625 L17.65625,11.4765625 L17.65625,3.1484375 Z M17.65625,2.66453526e-14 L19.0859375,2.66453526e-14 L19.0859375,1.59375 L17.65625,1.59375 L17.65625,2.66453526e-14 Z M21.2109375,3.109375 L22.546875,3.109375 L22.546875,4.296875 C22.9427103,3.80728922 23.361977,3.45573023 23.8046875,3.2421875 C24.247398,3.02864477 24.7395806,2.921875 25.28125,2.921875 C26.4687559,2.921875 27.2708313,3.33593336 27.6875,4.1640625 C27.9166678,4.61718977 28.03125,5.26562078 28.03125,6.109375 L28.03125,11.4765625 L26.6015625,11.4765625 L26.6015625,6.203125 C26.6015625,5.69270578 26.5260424,5.28125156 26.375,4.96875 C26.1249988,4.44791406 25.6718783,4.1875 25.015625,4.1875 C24.68229,4.1875 24.4088552,4.22135383 24.1953125,4.2890625 C23.8098939,4.40364641 23.4713556,4.63281078 23.1796875,4.9765625 C22.9453113,5.25260555 22.7929691,5.53775895 22.7226562,5.83203125 C22.6523434,6.12630355 22.6171875,6.54687227 22.6171875,7.09375 L22.6171875,11.4765625 L21.2109375,11.4765625 L21.2109375,3.109375 Z M35.9609375,3.109375 L35.9609375,8.6640625 C35.9609375,9.09114797 36.0286452,9.44010281 36.1640625,9.7109375 C36.4140637,10.21094 36.8802049,10.4609375 37.5625,10.4609375 C38.5416716,10.4609375 39.2083316,10.0234419 39.5625,9.1484375 C39.7552093,8.67968516 39.8515625,8.03646242 39.8515625,7.21875 L39.8515625,3.109375 L41.2578125,3.109375 L41.2578125,11.4765625 L39.9296875,11.4765625 L39.9453125,10.2421875 C39.7630199,10.5598974 39.5364597,10.8281239 39.265625,11.046875 C38.729164,11.4843772 38.0781288,11.703125 37.3125,11.703125 C36.1197857,11.703125 35.3072938,11.3046915 34.875,10.5078125 C34.6406238,10.080727 34.5234375,9.51042023 34.5234375,8.796875 L34.5234375,3.109375 L35.9609375,3.109375 Z M44.2890625,8.8515625 C44.3307294,9.32031484 44.4479157,9.67968625 44.640625,9.9296875 C44.9947934,10.3828148 45.6093706,10.609375 46.484375,10.609375 C47.0052109,10.609375 47.4635397,10.4960949 47.859375,10.2695313 C48.2552103,10.0429676 48.453125,9.6927107 48.453125,9.21875 C48.453125,8.8593732 48.2942724,8.58593844 47.9765625,8.3984375 C47.7734365,8.28385359 47.3723988,8.15104242 46.7734375,8 L45.65625,7.71875 C44.9427048,7.54166578 44.4166684,7.34375109 44.078125,7.125 C43.4739553,6.74478977 43.171875,6.21875336 43.171875,5.546875 C43.171875,4.75520438 43.4570284,4.11458578 44.0273438,3.625 C44.5976591,3.13541422 45.3645785,2.890625 46.328125,2.890625 C47.588548,2.890625 48.497393,3.26041297 49.0546875,4 C49.4036476,4.46875234 49.5729167,4.97395563 49.5625,5.515625 L48.234375,5.515625 C48.2083332,5.19791508 48.0963552,4.90885547 47.8984375,4.6484375 C47.5755192,4.27864398 47.015629,4.09375 46.21875,4.09375 C45.6874973,4.09375 45.2851576,4.19531148 45.0117188,4.3984375 C44.7382799,4.60156352 44.6015625,4.86979 44.6015625,5.203125 C44.6015625,5.56771016 44.7812482,5.85937391 45.140625,6.078125 C45.3489594,6.20833398 45.656248,6.32291617 46.0625,6.421875 L46.9921875,6.6484375 C48.0026092,6.89323039 48.6796858,7.13020719 49.0234375,7.359375 C49.5703152,7.7187518 49.84375,8.28385031 49.84375,9.0546875 C49.84375,9.79948289 49.5612007,10.4427056 48.9960938,10.984375 C48.4309868,11.5260444 47.5703183,11.796875 46.4140625,11.796875 C45.1692646,11.796875 44.287763,11.5143257 43.7695312,10.9492188 C43.2512995,10.3841118 42.9739585,9.6849 42.9375,8.8515625 L44.2890625,8.8515625 Z M56.9765625,9.25 C56.9765625,9.65625203 57.1249985,9.97656133 57.421875,10.2109375 C57.7187515,10.4453137 58.0703105,10.5625 58.4765625,10.5625 C58.9713566,10.5625 59.4505185,10.4479178 59.9140625,10.21875 C60.6953164,9.83853977 61.0859375,9.21615016 61.0859375,8.3515625 L61.0859375,7.21875 C60.9140616,7.32812555 60.6927097,7.41927047 60.421875,7.4921875 C60.1510403,7.56510453 59.885418,7.61718734 59.625,7.6484375 L58.7734375,7.7578125 C58.2630183,7.82552117 57.8802096,7.93229094 57.625,8.078125 C57.1927062,8.32291789 56.9765625,8.71353898 56.9765625,9.25 Z M60.3828125,6.40625 C60.7057308,6.36458313 60.9218745,6.22916781 61.03125,6 C61.0937503,5.87499938 61.125,5.69531367 61.125,5.4609375 C61.125,4.98176844 60.9544288,4.63411566 60.6132812,4.41796875 C60.2721337,4.20182184 59.7838573,4.09375 59.1484375,4.09375 C58.4140588,4.09375 57.8932307,4.29166469 57.5859375,4.6875 C57.4140616,4.90625109 57.3020836,5.23176867 57.25,5.6640625 L55.9375,5.6640625 C55.9635418,4.63280734 56.2981739,3.9153666 56.9414062,3.51171875 C57.5846386,3.1080709 58.3307249,2.90625 59.1796875,2.90625 C60.1640674,2.90625 60.9635386,3.09374813 61.578125,3.46875 C62.187503,3.84375188 62.4921875,4.42707938 62.4921875,5.21875 L62.4921875,10.0390625 C62.4921875,10.1848966 62.5221351,10.3020829 62.5820312,10.390625 C62.6419274,10.4791671 62.7682282,10.5234375 62.9609375,10.5234375 C63.0234378,10.5234375 63.0937496,10.5195313 63.171875,10.5117188 C63.2500004,10.5039062 63.3333329,10.4921876 63.421875,10.4765625 L63.421875,11.515625 C63.2031239,11.5781253 63.0364589,11.6171874 62.921875,11.6328125 C62.8072911,11.6484376 62.6510427,11.65625 62.453125,11.65625 C61.9687476,11.65625 61.6171886,11.4843767 61.3984375,11.140625 C61.2838536,10.9583324 61.2031252,10.7005225 61.15625,10.3671875 C60.8697902,10.7421894 60.458336,11.067707 59.921875,11.34375 C59.385414,11.619793 58.7942741,11.7578125 58.1484375,11.7578125 C57.372392,11.7578125 56.7382837,11.5221378 56.2460938,11.0507813 C55.7539038,10.5794247 55.5078125,9.98958688 55.5078125,9.28125 C55.5078125,8.50520445 55.7499976,7.90364797 56.234375,7.4765625 C56.7187524,7.04947703 57.3541627,6.78645883 58.140625,6.6875 L60.3828125,6.40625 Z M67.75,2.9609375 C68.4062533,2.9609375 68.9791642,3.12239422 69.46875,3.4453125 C69.7343763,3.62760508 70.005207,3.89322742 70.28125,4.2421875 L70.28125,3.1875 L71.578125,3.1875 L71.578125,10.796875 C71.578125,11.8593803 71.4218766,12.6979136 71.109375,13.3125 C70.5260387,14.4479223 69.4244873,15.015625 67.8046875,15.015625 C66.9036413,15.015625 66.1458364,14.8138041 65.53125,14.4101563 C64.9166636,14.0065084 64.572917,13.3750043 64.5,12.515625 L65.9296875,12.515625 C65.9973962,12.8906269 66.1328115,13.1796865 66.3359375,13.3828125 C66.6536474,13.6953141 67.1536424,13.8515625 67.8359375,13.8515625 C68.9140679,13.8515625 69.61979,13.471358 69.953125,12.7109375 C70.1510427,12.2630186 70.2421876,11.4635474 70.2265625,10.3125 C69.9453111,10.7395855 69.6067728,11.0572906 69.2109375,11.265625 C68.8151022,11.4739594 68.2916699,11.578125 67.640625,11.578125 C66.7343705,11.578125 65.9414096,11.2565136 65.2617188,10.6132813 C64.5820279,9.97004887 64.2421875,8.90625742 64.2421875,7.421875 C64.2421875,6.02082633 64.584632,4.92708727 65.2695312,4.140625 C65.9544305,3.35416273 66.7812452,2.9609375 67.75,2.9609375 Z M70.28125,7.2578125 C70.28125,6.22134898 70.0677105,5.4531275 69.640625,4.953125 C69.2135395,4.4531225 68.6692741,4.203125 68.0078125,4.203125 C67.0182242,4.203125 66.3411477,4.66666203 65.9765625,5.59375 C65.7838532,6.08854414 65.6875,6.73697516 65.6875,7.5390625 C65.6875,8.48177555 65.8789043,9.19921629 66.2617188,9.69140625 C66.6445332,10.1835962 67.1588509,10.4296875 67.8046875,10.4296875 C68.8151092,10.4296875 69.5260396,9.97396289 69.9375,9.0625 C70.1666678,8.54687242 70.28125,7.94531594 70.28125,7.2578125 Z M74.7734375,9.25 C74.7734375,9.65625203 74.9218735,9.97656133 75.21875,10.2109375 C75.5156265,10.4453137 75.8671855,10.5625 76.2734375,10.5625 C76.7682316,10.5625 77.2473935,10.4479178 77.7109375,10.21875 C78.4921914,9.83853977 78.8828125,9.21615016 78.8828125,8.3515625 L78.8828125,7.21875 C78.7109366,7.32812555 78.4895847,7.41927047 78.21875,7.4921875 C77.9479153,7.56510453 77.682293,7.61718734 77.421875,7.6484375 L76.5703125,7.7578125 C76.0598933,7.82552117 75.6770846,7.93229094 75.421875,8.078125 C74.9895812,8.32291789 74.7734375,8.71353898 74.7734375,9.25 Z M78.1796875,6.40625 C78.5026058,6.36458313 78.7187495,6.22916781 78.828125,6 C78.8906253,5.87499938 78.921875,5.69531367 78.921875,5.4609375 C78.921875,4.98176844 78.7513038,4.63411566 78.4101562,4.41796875 C78.0690087,4.20182184 77.5807323,4.09375 76.9453125,4.09375 C76.2109338,4.09375 75.6901057,4.29166469 75.3828125,4.6875 C75.2109366,4.90625109 75.0989586,5.23176867 75.046875,5.6640625 L73.734375,5.6640625 C73.7604168,4.63280734 74.0950489,3.9153666 74.7382812,3.51171875 C75.3815136,3.1080709 76.1275999,2.90625 76.9765625,2.90625 C77.9609424,2.90625 78.7604136,3.09374813 79.375,3.46875 C79.984378,3.84375188 80.2890625,4.42707938 80.2890625,5.21875 L80.2890625,10.0390625 C80.2890625,10.1848966 80.3190101,10.3020829 80.3789062,10.390625 C80.4388024,10.4791671 80.5651032,10.5234375 80.7578125,10.5234375 C80.8203128,10.5234375 80.8906246,10.5195313 80.96875,10.5117188 C81.0468754,10.5039062 81.1302079,10.4921876 81.21875,10.4765625 L81.21875,11.515625 C80.9999989,11.5781253 80.8333339,11.6171874 80.71875,11.6328125 C80.6041661,11.6484376 80.4479177,11.65625 80.25,11.65625 C79.7656226,11.65625 79.4140636,11.4843767 79.1953125,11.140625 C79.0807286,10.9583324 79.0000002,10.7005225 78.953125,10.3671875 C78.6666652,10.7421894 78.255211,11.067707 77.71875,11.34375 C77.182289,11.619793 76.5911491,11.7578125 75.9453125,11.7578125 C75.169267,11.7578125 74.5351587,11.5221378 74.0429688,11.0507813 C73.5507788,10.5794247 73.3046875,9.98958688 73.3046875,9.28125 C73.3046875,8.50520445 73.5468726,7.90364797 74.03125,7.4765625 C74.5156274,7.04947703 75.1510377,6.78645883 75.9375,6.6875 L78.1796875,6.40625 Z M82.59375,3.1484375 L84.0234375,3.1484375 L84.0234375,11.4765625 L82.59375,11.4765625 L82.59375,3.1484375 Z M82.59375,2.66453526e-14 L84.0234375,2.66453526e-14 L84.0234375,1.59375 L82.59375,1.59375 L82.59375,2.66453526e-14 Z M86.1484375,3.109375 L87.484375,3.109375 L87.484375,4.296875 C87.8802103,3.80728922 88.299477,3.45573023 88.7421875,3.2421875 C89.184898,3.02864477 89.6770806,2.921875 90.21875,2.921875 C91.4062559,2.921875 92.2083313,3.33593336 92.625,4.1640625 C92.8541678,4.61718977 92.96875,5.26562078 92.96875,6.109375 L92.96875,11.4765625 L91.5390625,11.4765625 L91.5390625,6.203125 C91.5390625,5.69270578 91.4635424,5.28125156 91.3125,4.96875 C91.0624988,4.44791406 90.6093783,4.1875 89.953125,4.1875 C89.61979,4.1875 89.3463552,4.22135383 89.1328125,4.2890625 C88.7473939,4.40364641 88.4088556,4.63281078 88.1171875,4.9765625 C87.8828113,5.25260555 87.7304691,5.53775895 87.6601562,5.83203125 C87.5898434,6.12630355 87.5546875,6.54687227 87.5546875,7.09375 L87.5546875,11.4765625 L86.1484375,11.4765625 L86.1484375,3.109375 Z M99.4921875,3.109375 L100.828125,3.109375 L100.828125,4.296875 C101.22396,3.80728922 101.643227,3.45573023 102.085938,3.2421875 C102.528648,3.02864477 103.020831,2.921875 103.5625,2.921875 C104.750006,2.921875 105.552081,3.33593336 105.96875,4.1640625 C106.197918,4.61718977 106.3125,5.26562078 106.3125,6.109375 L106.3125,11.4765625 L104.882812,11.4765625 L104.882812,6.203125 C104.882812,5.69270578 104.807292,5.28125156 104.65625,4.96875 C104.406249,4.44791406 103.953128,4.1875 103.296875,4.1875 C102.96354,4.1875 102.690105,4.22135383 102.476562,4.2890625 C102.091144,4.40364641 101.752606,4.63281078 101.460938,4.9765625 C101.226561,5.25260555 101.074219,5.53775895 101.003906,5.83203125 C100.933593,6.12630355 100.898438,6.54687227 100.898438,7.09375 L100.898438,11.4765625 L99.4921875,11.4765625 L99.4921875,3.109375 Z M111.875,2.921875 C112.468753,2.921875 113.044268,3.06119652 113.601562,3.33984375 C114.158857,3.61849098 114.583332,3.97916445 114.875,4.421875 C115.156251,4.84375211 115.34375,5.33593469 115.4375,5.8984375 C115.520834,6.28385609 115.5625,6.89843328 115.5625,7.7421875 L109.429688,7.7421875 C109.455729,8.59115008 109.656248,9.27213285 110.03125,9.78515625 C110.406252,10.2981796 110.986975,10.5546875 111.773438,10.5546875 C112.507816,10.5546875 113.093748,10.3125024 113.53125,9.828125 C113.781251,9.54687359 113.958333,9.22135602 114.0625,8.8515625 L115.445312,8.8515625 C115.408854,9.1588557 115.287761,9.5013002 115.082031,9.87890625 C114.876301,10.2565123 114.645835,10.565103 114.390625,10.8046875 C113.96354,11.2213563 113.434899,11.5026034 112.804688,11.6484375 C112.466144,11.7317713 112.083335,11.7734375 111.65625,11.7734375 C110.614578,11.7734375 109.731774,11.394535 109.007812,10.6367188 C108.283851,9.87890246 107.921875,8.81771516 107.921875,7.453125 C107.921875,6.10936828 108.286455,5.01823336 109.015625,4.1796875 C109.744795,3.34114164 110.697911,2.921875 111.875,2.921875 Z M114.117188,6.625 C114.059896,6.01562195 113.927084,5.52864766 113.71875,5.1640625 C113.333331,4.48697578 112.690109,4.1484375 111.789062,4.1484375 C111.143226,4.1484375 110.601565,4.38150809 110.164062,4.84765625 C109.72656,5.31380441 109.494792,5.90624641 109.46875,6.625 L114.117188,6.625 Z M116.492188,3.109375 L118.3125,3.109375 L120.234375,6.0546875 L122.179688,3.109375 L123.890625,3.1484375 L121.070312,7.1875 L124.015625,11.4765625 L122.21875,11.4765625 L120.140625,8.3359375 L118.125,11.4765625 L116.34375,11.4765625 L119.289062,7.1875 L116.492188,3.109375 Z M125.570312,0.7734375 L126.992188,0.7734375 L126.992188,3.109375 L128.328125,3.109375 L128.328125,4.2578125 L126.992188,4.2578125 L126.992188,9.71875 C126.992188,10.0104181 127.091145,10.2057287 127.289062,10.3046875 C127.398438,10.3619795 127.580728,10.390625 127.835938,10.390625 C127.903646,10.390625 127.976562,10.3893229 128.054688,10.3867188 C128.132813,10.3841146 128.223958,10.3776042 128.328125,10.3671875 L128.328125,11.4765625 C128.166666,11.5234377 127.998699,11.5572916 127.824219,11.578125 C127.649739,11.5989584 127.460939,11.609375 127.257812,11.609375 C126.601559,11.609375 126.156251,11.4414079 125.921875,11.1054688 C125.687499,10.7695296 125.570312,10.333336 125.570312,9.796875 L125.570312,4.2578125 L124.4375,4.2578125 L124.4375,3.109375 L125.570312,3.109375 L125.570312,0.7734375 Z M139.40625,3.109375 L140.960938,3.109375 C140.76302,3.64583602 140.32292,4.86978211 139.640625,6.78125 C139.130206,8.21875719 138.703127,9.39062047 138.359375,10.296875 C137.546871,12.4323023 136.97396,13.7343727 136.640625,14.203125 C136.30729,14.6718773 135.734379,14.90625 134.921875,14.90625 C134.723957,14.90625 134.571615,14.8984376 134.464844,14.8828125 C134.358072,14.8671874 134.226563,14.8385419 134.070312,14.796875 L134.070312,13.515625 C134.315105,13.5833337 134.492187,13.6249999 134.601562,13.640625 C134.710938,13.6562501 134.807291,13.6640625 134.890625,13.6640625 C135.151043,13.6640625 135.342447,13.6210942 135.464844,13.5351563 C135.58724,13.4492183 135.690104,13.3437506 135.773438,13.21875 C135.799479,13.1770831 135.893228,12.9635436 136.054688,12.578125 C136.216147,12.1927064 136.333333,11.9062509 136.40625,11.71875 L133.3125,3.109375 L134.90625,3.109375 L137.148438,9.921875 L139.40625,3.109375 Z M145.664062,2.921875 C146.257815,2.921875 146.833331,3.06119652 147.390625,3.33984375 C147.947919,3.61849098 148.372394,3.97916445 148.664062,4.421875 C148.945314,4.84375211 149.132812,5.33593469 149.226562,5.8984375 C149.309896,6.28385609 149.351562,6.89843328 149.351562,7.7421875 L143.21875,7.7421875 C143.244792,8.59115008 143.445311,9.27213285 143.820312,9.78515625 C144.195314,10.2981796 144.776038,10.5546875 145.5625,10.5546875 C146.296879,10.5546875 146.88281,10.3125024 147.320312,9.828125 C147.570314,9.54687359 147.747395,9.22135602 147.851562,8.8515625 L149.234375,8.8515625 C149.197916,9.1588557 149.076824,9.5013002 148.871094,9.87890625 C148.665364,10.2565123 148.434897,10.565103 148.179688,10.8046875 C147.752602,11.2213563 147.223961,11.5026034 146.59375,11.6484375 C146.255207,11.7317713 145.872398,11.7734375 145.445312,11.7734375 C144.403641,11.7734375 143.520837,11.394535 142.796875,10.6367188 C142.072913,9.87890246 141.710938,8.81771516 141.710938,7.453125 C141.710938,6.10936828 142.075517,5.01823336 142.804688,4.1796875 C143.533858,3.34114164 144.486973,2.921875 145.664062,2.921875 Z M147.90625,6.625 C147.848958,6.01562195 147.716147,5.52864766 147.507812,5.1640625 C147.122394,4.48697578 146.479171,4.1484375 145.578125,4.1484375 C144.932288,4.1484375 144.390627,4.38150809 143.953125,4.84765625 C143.515623,5.31380441 143.283854,5.90624641 143.257812,6.625 L147.90625,6.625 Z M152.15625,9.25 C152.15625,9.65625203 152.304686,9.97656133 152.601562,10.2109375 C152.898439,10.4453137 153.249998,10.5625 153.65625,10.5625 C154.151044,10.5625 154.630206,10.4479178 155.09375,10.21875 C155.875004,9.83853977 156.265625,9.21615016 156.265625,8.3515625 L156.265625,7.21875 C156.093749,7.32812555 155.872397,7.41927047 155.601562,7.4921875 C155.330728,7.56510453 155.065105,7.61718734 154.804688,7.6484375 L153.953125,7.7578125 C153.442706,7.82552117 153.059897,7.93229094 152.804688,8.078125 C152.372394,8.32291789 152.15625,8.71353898 152.15625,9.25 Z M155.5625,6.40625 C155.885418,6.36458313 156.101562,6.22916781 156.210938,6 C156.273438,5.87499938 156.304688,5.69531367 156.304688,5.4609375 C156.304688,4.98176844 156.134116,4.63411566 155.792969,4.41796875 C155.451821,4.20182184 154.963545,4.09375 154.328125,4.09375 C153.593746,4.09375 153.072918,4.29166469 152.765625,4.6875 C152.593749,4.90625109 152.481771,5.23176867 152.429688,5.6640625 L151.117188,5.6640625 C151.143229,4.63280734 151.477861,3.9153666 152.121094,3.51171875 C152.764326,3.1080709 153.510412,2.90625 154.359375,2.90625 C155.343755,2.90625 156.143226,3.09374813 156.757812,3.46875 C157.367191,3.84375188 157.671875,4.42707938 157.671875,5.21875 L157.671875,10.0390625 C157.671875,10.1848966 157.701823,10.3020829 157.761719,10.390625 C157.821615,10.4791671 157.947916,10.5234375 158.140625,10.5234375 C158.203125,10.5234375 158.273437,10.5195313 158.351562,10.5117188 C158.429688,10.5039062 158.51302,10.4921876 158.601562,10.4765625 L158.601562,11.515625 C158.382811,11.5781253 158.216146,11.6171874 158.101562,11.6328125 C157.986979,11.6484376 157.83073,11.65625 157.632812,11.65625 C157.148435,11.65625 156.796876,11.4843767 156.578125,11.140625 C156.463541,10.9583324 156.382813,10.7005225 156.335938,10.3671875 C156.049478,10.7421894 155.638024,11.067707 155.101562,11.34375 C154.565101,11.619793 153.973962,11.7578125 153.328125,11.7578125 C152.552079,11.7578125 151.917971,11.5221378 151.425781,11.0507813 C150.933591,10.5794247 150.6875,9.98958688 150.6875,9.28125 C150.6875,8.50520445 150.929685,7.90364797 151.414062,7.4765625 C151.89844,7.04947703 152.53385,6.78645883 153.320312,6.6875 L155.5625,6.40625 Z M160.015625,3.109375 L161.351562,3.109375 L161.351562,4.5546875 C161.460938,4.27343609 161.729165,3.9309916 162.15625,3.52734375 C162.583335,3.1236959 163.075518,2.921875 163.632812,2.921875 C163.658854,2.921875 163.703125,2.92447914 163.765625,2.9296875 C163.828125,2.93489586 163.934895,2.94531242 164.085938,2.9609375 L164.085938,4.4453125 C164.002604,4.42968742 163.925782,4.41927086 163.855469,4.4140625 C163.785156,4.40885414 163.708334,4.40625 163.625,4.40625 C162.916663,4.40625 162.372398,4.6341123 161.992188,5.08984375 C161.611977,5.5455752 161.421875,6.07030953 161.421875,6.6640625 L161.421875,11.4765625 L160.015625,11.4765625 L160.015625,3.109375 Z M166.125,2.66453526e-14 L167.710938,2.66453526e-14 L167.710938,3.7734375 L167.328125,8.7421875 L166.53125,8.7421875 L166.125,3.7734375 L166.125,2.66453526e-14 Z M166.125,9.8515625 L167.679688,9.8515625 L167.679688,11.4765625 L166.125,11.4765625 L166.125,9.8515625 Z" id="Joinusagainnextyear!" fill="#4A4A4A"></path>
                        <path d="M20.7998047,26.6820316 L25.1259766,26.6820316 L25.1259766,41.0765629 L22.3232422,41.0765629 L22.3232422,31.3402348 C22.3232422,31.0602854 22.3264974,30.6680368 22.3330078,30.1634769 C22.3395183,29.6589171 22.3427734,29.2699236 22.3427734,28.9964848 L19.6181641,41.0765629 L16.6982422,41.0765629 L13.9931641,28.9964848 C13.9931641,29.2699236 13.9964192,29.6589171 14.0029297,30.1634769 C14.0094401,30.6680368 14.0126953,31.0602854 14.0126953,31.3402348 L14.0126953,41.0765629 L11.2099609,41.0765629 L11.2099609,26.6820316 L15.5849609,26.6820316 L18.2021484,38.000391 L20.7998047,26.6820316 Z M33.5634766,35.9007816 C33.3876944,36.0114593 33.2102874,36.1009766 33.03125,36.1693363 C32.8522126,36.237696 32.6064469,36.301172 32.2939453,36.359766 L31.6689453,36.4769535 C31.0830049,36.5811207 30.6630872,36.7080725 30.4091797,36.8578129 C29.97949,37.1117204 29.7646484,37.5055967 29.7646484,38.0394535 C29.7646484,38.5147163 29.8964831,38.8581373 30.1601562,39.0697269 C30.4238294,39.2813165 30.7444643,39.3871098 31.1220703,39.3871098 C31.7210316,39.3871098 32.2727839,39.2113303 32.7773438,38.859766 C33.2819036,38.5082017 33.5439452,37.8669321 33.5634766,36.9359379 L33.5634766,35.9007816 Z M31.8740234,34.6019535 C32.3883489,34.536849 32.7561838,34.4554696 32.9775391,34.3578129 C33.3746765,34.1885412 33.5732422,33.924872 33.5732422,33.5667973 C33.5732422,33.1305972 33.4218765,32.8294934 33.1191406,32.6634769 C32.8164047,32.4974605 32.3720732,32.4144535 31.7861328,32.4144535 C31.1285774,32.4144535 30.6630873,32.5772123 30.3896484,32.9027348 C30.194335,33.1436214 30.0641279,33.469139 29.9990234,33.8792973 L27.3134766,33.8792973 C27.3720706,32.948303 27.6324847,32.1833367 28.0947266,31.5843754 C28.8304073,30.6468707 30.0934155,30.1781254 31.8837891,30.1781254 C33.0491595,30.1781254 34.0843054,30.4092429 34.9892578,30.8714848 C35.8942103,31.3337267 36.3466797,32.2061138 36.3466797,33.4886723 L36.3466797,38.3714848 C36.3466797,38.7100281 36.35319,39.1201803 36.3662109,39.6019535 C36.3857423,39.9665387 36.4410803,40.213932 36.5322266,40.344141 C36.6233729,40.47435 36.7600902,40.5817708 36.9423828,40.6664066 L36.9423828,41.0765629 L33.9150391,41.0765629 C33.8304032,40.8617181 33.7718101,40.6598972 33.7392578,40.4710941 C33.7067056,40.2822911 33.6806642,40.0674495 33.6611328,39.8265629 C33.2770163,40.2432316 32.8343124,40.5980458 32.3330078,40.891016 C31.7340465,41.2360698 31.0569699,41.4085941 30.3017578,41.4085941 C29.3382113,41.4085941 28.5423208,41.1335318 27.9140625,40.5833988 C27.2858042,40.0332659 26.9716797,39.2536513 26.9716797,38.2445316 C26.9716797,36.9359313 27.4762319,35.9886752 28.4853516,35.4027348 C29.0387397,35.0837227 29.8525337,34.8558604 30.9267578,34.719141 L31.8740234,34.6019535 Z M44.5986328,30.1781254 C44.6507164,30.1781254 44.6946613,30.179753 44.7304688,30.1830082 C44.7662762,30.1862634 44.846028,30.1911462 44.9697266,30.1976566 L44.9697266,33.0492191 C44.7939444,33.0296878 44.637696,33.0166671 44.5009766,33.0101566 C44.3642571,33.0036462 44.2535812,33.000391 44.1689453,33.000391 C43.049148,33.000391 42.2972024,33.3649707 41.9130859,34.094141 C41.6982411,34.5042993 41.5908203,35.1358034 41.5908203,35.9886723 L41.5908203,41.0765629 L38.7880859,41.0765629 L38.7880859,30.4320316 L41.4443359,30.4320316 L41.4443359,32.2875004 C41.8740256,31.5778614 42.2483708,31.0928402 42.5673828,30.8324223 C43.0882188,30.3962222 43.7652953,30.1781254 44.5986328,30.1781254 Z M52.9580078,34.250391 C52.9059242,33.8532536 52.772462,33.4951843 52.5576172,33.1761723 C52.2451156,32.7464826 51.7600944,32.531641 51.1025391,32.531641 C50.1650344,32.531641 49.5237647,32.9971311 49.1787109,33.9281254 C48.9964184,34.4229195 48.9052734,35.080465 48.9052734,35.9007816 C48.9052734,36.6820355 48.9964184,37.3102845 49.1787109,37.7855473 C49.5107438,38.6709684 50.1357376,39.1136723 51.0537109,39.1136723 C51.7047559,39.1136723 52.1669908,38.9378928 52.4404297,38.5863285 C52.7138686,38.2347642 52.8798825,37.7790396 52.9384766,37.219141 L55.7802734,37.219141 C55.7151689,38.0654994 55.4091824,38.8662726 54.8623047,39.6214848 C53.9899045,40.8389388 52.6975997,41.4476566 50.9853516,41.4476566 C49.2731034,41.4476566 48.0133504,40.9398492 47.2060547,39.9242191 C46.398759,38.9085891 45.9951172,37.5902429 45.9951172,35.969141 C45.9951172,34.1397048 46.4410763,32.717193 47.3330078,31.7015629 C48.2249394,30.6859328 49.4553958,30.1781254 51.0244141,30.1781254 C52.3590562,30.1781254 53.4511676,30.4776016 54.3007812,31.0765629 C55.1503949,31.6755242 55.6533195,32.7334563 55.8095703,34.250391 L52.9580078,34.250391 Z M63.5927734,30.1585941 C64.2503288,30.1585941 64.8476536,30.2725253 65.3847656,30.500391 C65.9218777,30.7282567 66.362954,31.0765605 66.7080078,31.5453129 C67.000978,31.9424503 67.1800127,32.3509748 67.2451172,32.7708988 C67.3102217,33.1908228 67.3427734,33.8760373 67.3427734,34.8265629 L67.3427734,41.0765629 L64.5009766,41.0765629 L64.5009766,34.6019535 C64.5009766,34.029034 64.4033213,33.566799 64.2080078,33.2152348 C63.9541003,32.7204406 63.4723343,32.4730473 62.7626953,32.4730473 C62.0270146,32.4730473 61.4687519,32.718813 61.0878906,33.2103519 C60.7070293,33.7018909 60.5166016,34.4033812 60.5166016,35.3148441 L60.5166016,41.0765629 L57.7431641,41.0765629 L57.7431641,26.7308598 L60.5166016,26.7308598 L60.5166016,31.8187504 C60.9202494,31.2002577 61.3873671,30.7689469 61.9179688,30.5248051 C62.4485704,30.2806632 63.006833,30.1585941 63.5927734,30.1585941 Z M74.8232422,41.0765629 C74.849284,40.0609328 75.0673808,39.1332077 75.4775391,38.2933598 C75.8746765,37.3493446 76.8121671,36.3500057 78.2900391,35.2953129 C79.5725976,34.3773395 80.4026674,33.719794 80.7802734,33.3226566 C81.3597034,32.704164 81.6494141,32.0270874 81.6494141,31.2914066 C81.6494141,30.6924453 81.4834001,30.1944034 81.1513672,29.797266 C80.8193343,29.4001286 80.3440786,29.2015629 79.7255859,29.2015629 C78.8792275,29.2015629 78.3030614,29.5173149 77.9970703,30.1488285 C77.8212882,30.5134137 77.7171226,31.092835 77.6845703,31.8871098 L74.9794922,31.8871098 C75.0250653,30.6826767 75.2431621,29.7093791 75.6337891,28.9671879 C76.3759803,27.5544204 77.6943265,26.8480473 79.5888672,26.8480473 C81.0862705,26.8480473 82.2776648,27.2630822 83.1630859,28.0931644 C84.048507,28.9232467 84.4912109,30.0218685 84.4912109,31.3890629 C84.4912109,32.4372452 84.1787141,33.3682255 83.5537109,34.1820316 C83.1435526,34.7223989 82.4697312,35.3246064 81.5322266,35.9886723 L80.4189453,36.7796879 C79.7223272,37.274482 79.245444,37.6325514 78.9882812,37.8539066 C78.7311185,38.0752619 78.5146493,38.3324208 78.3388672,38.625391 L84.5205078,38.625391 L84.5205078,41.0765629 L74.8232422,41.0765629 Z M85.7802734,34.1820316 L91.3857422,34.1820316 L91.3857422,36.8187504 L85.7802734,36.8187504 L85.7802734,34.1820316 Z M95.3994141,36.594141 C95.3994141,37.3558636 95.6044901,37.9776021 96.0146484,38.4593754 C96.4248067,38.9411486 96.9456349,39.1820316 97.5771484,39.1820316 C98.1956411,39.1820316 98.6822899,38.9492866 99.0371094,38.4837894 C99.3919289,38.0182923 99.5693359,37.4144572 99.5693359,36.672266 C99.5693359,35.845439 99.367515,35.2123073 98.9638672,34.7728519 C98.5602193,34.3333966 98.0654326,34.1136723 97.4794922,34.1136723 C97.0042294,34.1136723 96.5843117,34.2569 96.2197266,34.5433598 C95.6728488,34.966539 95.3994141,35.6501259 95.3994141,36.594141 Z M99.3154297,30.4808598 C99.3154297,30.252994 99.2275399,30.0023455 99.0517578,29.7289066 C98.7522771,29.2861961 98.2998077,29.0648441 97.6943359,29.0648441 C96.7893835,29.0648441 96.1448587,29.5726516 95.7607422,30.5882816 C95.5524078,31.1481803 95.4091801,31.9749949 95.3310547,33.0687504 C95.6761085,32.6585921 96.0764951,32.3591159 96.5322266,32.1703129 C96.987958,31.9815099 97.5087861,31.8871098 98.0947266,31.8871098 C99.3512433,31.8871098 100.381506,32.3135378 101.185547,33.1664066 C101.989587,34.0192755 102.391602,35.1097594 102.391602,36.437891 C102.391602,37.7595122 101.997725,38.9248651 101.209961,39.9339848 C100.422197,40.9431044 99.1982505,41.4476566 97.5380859,41.4476566 C95.7542229,41.4476566 94.4391318,40.7022214 93.5927734,39.2113285 C92.9352181,38.0459581 92.6064453,36.5420669 92.6064453,34.6996098 C92.6064453,33.6188752 92.6520178,32.7399777 92.7431641,32.062891 C92.9059253,30.8584579 93.2216773,29.8558638 93.6904297,29.0550785 C94.0940775,28.3714813 94.6230436,27.8213566 95.2773438,27.4046879 C95.9316439,26.9880191 96.7145137,26.7796879 97.6259766,26.7796879 C98.9410873,26.7796879 99.9892539,27.1165986 100.770508,27.7904301 C101.551762,28.4642616 101.99121,29.3610625 102.088867,30.4808598 L99.3154297,30.4808598 Z M104.256836,43.391016 C104.816735,43.2347652 105.228514,42.9743512 105.492188,42.609766 C105.755861,42.2451809 105.907226,41.7341183 105.946289,41.0765629 L104.256836,41.0765629 L104.256836,38.1664066 L107.264648,38.1664066 L107.264648,40.6859379 C107.264648,41.1286484 107.206055,41.5908834 107.088867,42.0726566 C106.971679,42.5544299 106.753582,42.9710924 106.43457,43.3226566 C106.089517,43.7002627 105.684247,43.9850906 105.21875,44.1771488 C104.753253,44.3692071 104.432618,44.4652348 104.256836,44.4652348 L104.256836,43.391016 Z M114.842773,41.0765629 C114.868815,40.0609328 115.086912,39.1332077 115.49707,38.2933598 C115.894208,37.3493446 116.831698,36.3500057 118.30957,35.2953129 C119.592129,34.3773395 120.422199,33.719794 120.799805,33.3226566 C121.379235,32.704164 121.668945,32.0270874 121.668945,31.2914066 C121.668945,30.6924453 121.502931,30.1944034 121.170898,29.797266 C120.838866,29.4001286 120.36361,29.2015629 119.745117,29.2015629 C118.898759,29.2015629 118.322593,29.5173149 118.016602,30.1488285 C117.840819,30.5134137 117.736654,31.092835 117.704102,31.8871098 L114.999023,31.8871098 C115.044597,30.6826767 115.262693,29.7093791 115.65332,28.9671879 C116.395512,27.5544204 117.713858,26.8480473 119.608398,26.8480473 C121.105802,26.8480473 122.297196,27.2630822 123.182617,28.0931644 C124.068038,28.9232467 124.510742,30.0218685 124.510742,31.3890629 C124.510742,32.4372452 124.198245,33.3682255 123.573242,34.1820316 C123.163084,34.7223989 122.489262,35.3246064 121.551758,35.9886723 L120.438477,36.7796879 C119.741858,37.274482 119.264975,37.6325514 119.007812,37.8539066 C118.75065,38.0752619 118.534181,38.3324208 118.358398,38.625391 L124.540039,38.625391 L124.540039,41.0765629 L114.842773,41.0765629 Z M128.807617,34.1332035 C128.807617,35.7608158 128.941079,37.0059205 129.208008,37.8685551 C129.474936,38.7311896 130.021806,39.1625004 130.848633,39.1625004 C131.67546,39.1625004 132.217447,38.7311896 132.474609,37.8685551 C132.731772,37.0059205 132.860352,35.7608158 132.860352,34.1332035 C132.860352,32.4274658 132.731772,31.1644576 132.474609,30.344141 C132.217447,29.5238244 131.67546,29.1136723 130.848633,29.1136723 C130.021806,29.1136723 129.474936,29.5238244 129.208008,30.344141 C128.941079,31.1644576 128.807617,32.4274658 128.807617,34.1332035 Z M130.848633,26.8187504 C132.652027,26.8187504 133.916663,27.4535097 134.642578,28.7230473 C135.368493,29.9925849 135.731445,31.7959522 135.731445,34.1332035 C135.731445,36.4704548 135.368493,38.270567 134.642578,39.5335941 C133.916663,40.7966213 132.652027,41.4281254 130.848633,41.4281254 C129.045238,41.4281254 127.780603,40.7966213 127.054688,39.5335941 C126.328772,38.270567 125.96582,36.4704548 125.96582,34.1332035 C125.96582,31.7959522 126.328772,29.9925849 127.054688,28.7230473 C127.780603,27.4535097 129.045238,26.8187504 130.848633,26.8187504 Z M137.088867,41.0765629 C137.114909,40.0609328 137.333006,39.1332077 137.743164,38.2933598 C138.140301,37.3493446 139.077792,36.3500057 140.555664,35.2953129 C141.838223,34.3773395 142.668292,33.719794 143.045898,33.3226566 C143.625328,32.704164 143.915039,32.0270874 143.915039,31.2914066 C143.915039,30.6924453 143.749025,30.1944034 143.416992,29.797266 C143.084959,29.4001286 142.609704,29.2015629 141.991211,29.2015629 C141.144853,29.2015629 140.568686,29.5173149 140.262695,30.1488285 C140.086913,30.5134137 139.982748,31.092835 139.950195,31.8871098 L137.245117,31.8871098 C137.29069,30.6826767 137.508787,29.7093791 137.899414,28.9671879 C138.641605,27.5544204 139.959951,26.8480473 141.854492,26.8480473 C143.351896,26.8480473 144.54329,27.2630822 145.428711,28.0931644 C146.314132,28.9232467 146.756836,30.0218685 146.756836,31.3890629 C146.756836,32.4372452 146.444339,33.3682255 145.819336,34.1820316 C145.409178,34.7223989 144.735356,35.3246064 143.797852,35.9886723 L142.68457,36.7796879 C141.987952,37.274482 141.511069,37.6325514 141.253906,37.8539066 C140.996744,38.0752619 140.780274,38.3324208 140.604492,38.625391 L146.786133,38.625391 L146.786133,41.0765629 L137.088867,41.0765629 Z M151.053711,34.1332035 C151.053711,35.7608158 151.187173,37.0059205 151.454102,37.8685551 C151.72103,38.7311896 152.2679,39.1625004 153.094727,39.1625004 C153.921554,39.1625004 154.46354,38.7311896 154.720703,37.8685551 C154.977866,37.0059205 155.106445,35.7608158 155.106445,34.1332035 C155.106445,32.4274658 154.977866,31.1644576 154.720703,30.344141 C154.46354,29.5238244 153.921554,29.1136723 153.094727,29.1136723 C152.2679,29.1136723 151.72103,29.5238244 151.454102,30.344141 C151.187173,31.1644576 151.053711,32.4274658 151.053711,34.1332035 Z M153.094727,26.8187504 C154.898121,26.8187504 156.162757,27.4535097 156.888672,28.7230473 C157.614587,29.9925849 157.977539,31.7959522 157.977539,34.1332035 C157.977539,36.4704548 157.614587,38.270567 156.888672,39.5335941 C156.162757,40.7966213 154.898121,41.4281254 153.094727,41.4281254 C151.291332,41.4281254 150.026696,40.7966213 149.300781,39.5335941 C148.574866,38.270567 148.211914,36.4704548 148.211914,34.1332035 C148.211914,31.7959522 148.574866,29.9925849 149.300781,28.7230473 C150.026696,27.4535097 151.291332,26.8187504 153.094727,26.8187504 Z" id="March2-6,2020" fill="#E25E3B"></path>
                    </g>
                </g>
            </g>
        </g>
    </g>
</svg>