<?xml version="1.0" encoding="UTF-8"?>
<svg width="42px" height="42px" viewBox="0 0 42 42" version="1.1" xmlns="http://www.w3.org/2000/svg" xmlns:xlink="http://www.w3.org/1999/xlink">
    <!-- Generator: Sketch 48.2 (47327) - http://www.bohemiancoding.com/sketch -->
    <title>offline</title>
    <desc>Created with Sketch.</desc>
    <defs>
        <polygon id="path-1" points="0 0 42 0 42 42 0 42"></polygon>
    </defs>
    <g id="event-page-vr-5b" stroke="none" stroke-width="1" fill="none" fill-rule="evenodd" transform="translate(-256.000000, -1559.000000)">
        <g id="offline" transform="translate(256.000000, 1559.000000)">
            <mask id="mask-2" fill="white">
                <use xlink:href="#path-1"></use>
            </mask>
            <g id="Clip-2"></g>
            <path d="M14.0714286,40 L28,40 L28,31.1111111 L14.0714286,31.1111111 L14.0714286,40 Z M27.6645121,30 L13.3354879,30 C13.1502986,30 13,30.1726399 13,30.3857876 L13,39.6142124 C13,39.8273601 13.1502986,40 13.3354879,40 L27.6645121,40 C27.8497014,40 28,39.8273601 28,39.6142124 L28,30.3857876 C28,30.1726399 27.8497014,30 27.6645121,30 Z" id="Fill-1" stroke="#E79918" fill="#E79918" mask="url(#mask-2)"></path>
            <path d="M25.6858292,4.94137415 C25.1582391,2.96156 23.4565617,1.45893676 21.3787173,1.23538354 L40.7694877,1.23538354 L40.7694877,4.94137415 L25.6858292,4.94137415 Z M39.1288577,31.0482929 L31.0254877,31.0482929 L31.0254877,29.1891367 L32.9479241,29.1891367 C33.255871,29.1891367 33.5057989,28.9383794 33.5057989,28.6290535 L33.5057989,22.3255569 C33.5057989,22.016231 33.255871,21.7654737 32.9479241,21.7654737 L29.0770702,21.7654737 L29.0770702,14.2653194 C29.0770702,12.8975962 27.9688121,11.7849509 26.606482,11.7849509 L15.3933586,11.7849509 C14.0310285,11.7849509 12.9227704,12.8975962 12.9227704,14.2653194 L12.9227704,21.7654737 L8.59748767,21.7654737 C8.2893814,21.7654737 8.0396129,22.016231 8.0396129,22.3255569 L8.0396129,28.6290535 C8.0396129,28.9383794 8.2893814,29.1891367 8.59748767,29.1891367 L10.9743529,29.1891367 L10.9743529,31.0482929 L2.87098292,31.0482929 L2.87098292,6.17675769 L9.26805313,6.17675769 C9.94913852,6.05337936 10.6541328,6.05033891 11.3203947,6.17675769 L15.8265882,6.17675769 C15.8262694,6.1983609 15.8248349,6.21980409 15.8248349,6.24156732 C15.8248349,9.01829986 18.0748235,11.2773555 20.8406072,11.2773555 C23.6062315,11.2773555 25.8562201,9.01829986 25.8562201,6.24156732 C25.8562201,6.21980409 25.854945,6.1983609 25.8546262,6.17675769 L39.1288577,6.17675769 L39.1288577,31.0482929 Z M12.0901025,40.8798336 L29.9097381,40.8798336 L29.9097381,29.1891367 L12.0901025,29.1891367 L12.0901025,40.8798336 Z M13.4806452,22.8856402 L28.5191954,22.8856402 L32.3900493,22.8856402 L32.3900493,28.0689702 L30.5031575,28.0689702 C30.4950816,28.0684368 24.1714383,28.0672633 11.5322277,28.0654497 C11.5241518,28.0654497 10.7318634,28.0666232 9.15536243,28.0689702 L9.15536243,22.8856402 L13.4806452,22.8856402 Z M27.9613207,21.7654737 L14.0385199,21.7654737 L14.0385199,14.2653194 C14.0385199,13.515288 14.6462846,12.9051173 15.3933586,12.9051173 L26.606482,12.9051173 C27.353556,12.9051173 27.9613207,13.515288 27.9613207,14.2653194 L27.9613207,21.7654737 Z M20.8406072,2.32610559 C22.9909753,2.32610559 24.7404706,4.08268657 24.7404706,6.24156732 C24.7404706,8.40060809 22.9909753,10.1571891 20.8406072,10.1571891 C18.6900797,10.1571891 16.9405844,8.40060809 16.9405844,6.24156732 C16.9405844,4.08268657 18.6900797,2.32610559 20.8406072,2.32610559 Z M1.23035294,4.94137415 L1.23035294,1.23538354 L20.3024972,1.23538354 C18.2244934,1.45893676 16.5228159,2.96156 15.9952258,4.94137415 L1.23035294,4.94137415 Z M41.3847438,6.17675769 C41.7245693,6.17675769 42,5.90007658 42,5.55890589 L42,0.617531748 C42,0.276681107 41.7245693,0 41.3847438,0 L0.615096774,0 C0.27543074,0 0,0.276681107 0,0.617531748 L0,5.55890589 C0,5.90007658 0.27543074,6.17675769 0.615096774,6.17675769 L1.64062998,6.17675769 L1.64062998,31.0482929 L0.615096774,31.0482929 C0.27543074,31.0482929 0,31.324814 0,31.6658246 C0,32.0069953 0.27543074,32.2835164 0.615096774,32.2835164 L10.9743529,32.2835164 L10.9743529,41.4399168 C10.9743529,41.7492427 11.2242808,42 11.5322277,42 L30.4676129,42 C30.7757192,42 31.0254877,41.7492427 31.0254877,41.4399168 L31.0254877,32.2835164 L41.3847438,32.2835164 C41.7245693,32.2835164 42,32.0069953 42,31.6658246 C42,31.324814 41.7245693,31.0482929 41.3847438,31.0482929 L40.35937,31.0482929 L40.35937,6.17675769 L41.3847438,6.17675769 Z" id="Fill-3" stroke="#E79918" fill="#E79918" mask="url(#mask-2)"></path>
        </g>
    </g>
</svg>