<?xml version="1.0" encoding="UTF-8"?>
<svg width="51px" height="57px" viewBox="0 0 51 57" version="1.1" xmlns="http://www.w3.org/2000/svg" xmlns:xlink="http://www.w3.org/1999/xlink">
    <!-- Generator: Sketch 48.2 (47327) - http://www.bohemiancoding.com/sketch -->
    <title>online</title>
    <desc>Created with Sketch.</desc>
    <defs>
        <polygon id="path-1" points="0.00430966934 0.0575561165 9.97531915 0.0575561165 9.97531915 10.8071107 0.00430966934 10.8071107"></polygon>
        <polygon id="path-3" points="0 0.0561154123 9.96955745 0.0561154123 9.96955745 10.8064697 0 10.8064697"></polygon>
        <polygon id="path-5" points="0 57 51 57 51 0 0 0"></polygon>
    </defs>
    <g id="event-page-vr-5b" stroke="none" stroke-width="1" fill="none" fill-rule="evenodd" transform="translate(-256.000000, -745.000000)">
        <g id="online" transform="translate(256.000000, 745.000000)">
            <path d="M25.009177,1.75171789 C26.799715,1.7593932 28.238781,3.22964091 28.2229412,5.03483049 C28.2075295,6.79396823 26.8007852,8.20750395 25.0374317,8.23543354 C23.2509607,8.26378954 21.7710109,6.80526799 21.7660877,5.01116496 C21.7609505,3.21684873 23.2265588,1.74382938 25.009177,1.75171789 M24.9642262,9.99990136 C27.7257003,10.0171708 29.9957129,7.76468137 29.9999939,5.00285005 C30.004275,2.24528278 27.7383293,-0.0112575036 24.975785,4.22540553e-05 C22.2453483,0.0111288087 20.0219988,2.21756639 20.0001656,4.93739673 C19.9779043,7.71393907 22.2025381,9.98263192 24.9642262,9.99990136" id="Fill-1" fill="#1FB9A5"></path>
            <path d="M25.0159455,55.251119 C23.1836736,55.2583683 21.7211138,53.7394189 21.7738379,51.8838016 C21.8231329,50.1360715 23.2895505,48.7360965 25.0418789,48.7638145 C26.8450026,48.7923854 28.2627683,50.2603763 28.2353345,52.069939 C28.2091868,53.8097801 26.7573433,55.2442961 25.0159455,55.251119 M25.182691,47.0039311 C22.4211021,46.8947646 20.0926657,49.0727642 20.0026488,51.8494738 C19.913275,54.6133905 22.0966127,56.9201724 24.875562,56.9979962 C27.6058594,57.0747539 29.8925022,54.9368389 29.996236,52.2104482 C30.102113,49.4290479 27.9616404,47.1139505 25.182691,47.0039311" id="Fill-3" fill="#1FB9A5"></path>
            <g id="Group-7" transform="translate(41.000000, 12.000000)">
                <mask id="mask-2" fill="white">
                    <use xlink:href="#path-1"></use>
                </mask>
                <g id="Clip-6"></g>
                <path d="M4.90738298,1.98373542 C6.7116383,1.94111042 8.18334043,3.44971458 8.23121277,5.39052708 C8.27738298,7.27175625 6.78291489,8.92336042 5.02185106,8.93756875 C3.2522766,8.95177708 1.75738298,7.35929792 1.75334043,5.45583958 C1.74951064,3.58583958 3.16738298,2.02475625 4.90738298,1.98373542 M4.99525532,10.8071104 C7.7622766,10.8064229 9.99142553,8.39146458 9.97525532,5.41229792 C9.95929787,2.46361042 7.65525532,0.0177145833 4.9316383,0.0580479167 C2.24334043,0.0979229167 0.020787234,2.52090208 0.00440425532,5.42971458 C-0.0124042553,8.41002708 2.21312766,10.8080271 4.99525532,10.8071104" id="Fill-5" fill="#1FB9A5" mask="url(#mask-2)"></path>
            </g>
            <g id="Group-10" transform="translate(0.000000, 12.000000)">
                <mask id="mask-4" fill="white">
                    <use xlink:href="#path-3"></use>
                </mask>
                <g id="Clip-9"></g>
                <path d="M4.92785106,1.98238333 C6.71657447,1.94846667 8.19402128,3.49121667 8.22253191,5.42332083 C8.24997872,7.27315417 6.82210638,8.87571667 5.09295745,8.93575833 C3.33125532,8.99694583 1.80529787,7.44915417 1.74125532,5.5363 C1.67806383,3.63857083 3.13231915,2.0163 4.92785106,1.98238333 M4.95189362,10.8064458 C7.74104255,10.8151542 9.9657234,8.44259167 9.96955319,5.45540417 C9.97317021,2.51702917 7.67168085,0.0360708333 4.96104255,0.0562375 C2.25253191,0.0764041667 0.0287021277,2.4638625 0.000191489362,5.3823 C-0.0287446809,8.36421667 2.19295745,10.7977375 4.95189362,10.8064458" id="Fill-8" fill="#1FB9A5" mask="url(#mask-4)"></path>
            </g>
            <path d="M4.97854816,43.211096 C3.21935575,43.1989444 1.79185286,41.7983083 1.74895094,40.042077 C1.70604901,38.2879775 3.19950561,36.7540998 4.96510128,36.7389636 C6.73880777,36.7238273 8.24037518,38.2048348 8.24656501,39.9753496 C8.2525414,41.7546051 6.76933004,43.2232477 4.97854816,43.211096 M4.98452454,35.0000004 C2.21745704,35.0010663 -0.0253958785,37.2640422 0.000217211564,40.0290726 C0.0254034168,42.7399536 2.24136259,44.9607186 4.96019211,44.9995185 C7.66898983,45.0383185 9.9961525,42.726736 9.99999447,39.9930441 C10.0040499,37.2150093 7.7780589,34.9989345 4.98452454,35.0000004" id="Fill-11" fill="#1FB9A5"></path>
            <path d="M45.8830946,43.2060982 C44.1326631,43.1453455 42.7302693,41.6815246 42.7550225,39.9414386 C42.7804158,38.1582929 44.2871568,36.7017197 46.0655424,36.7405161 C47.8321915,36.7788863 49.3165267,38.3350087 49.2488823,40.0772263 C49.1786773,41.8846732 47.6896475,43.2687694 45.8830946,43.2060982 M46.0034461,35.0000039 C43.2144494,35.0036277 40.9819717,37.238049 41.0001097,40.0077337 C41.0180344,42.751412 43.3339473,45.0397646 46.0523122,44.999476 C48.7730244,44.9591873 50.9888578,42.7277504 50.999954,40.0166868 C51.0116904,37.2420992 48.7749449,34.9965932 46.0034461,35.0000039" id="Fill-13" fill="#1FB9A5"></path>
            <mask id="mask-6" fill="white">
                <use xlink:href="#path-5"></use>
            </mask>
            <g id="Clip-16"></g>
            <polygon id="Fill-15" fill="#1FB9A5" mask="url(#mask-6)" points="24 17 26 17 26 12 24 12"></polygon>
            <polygon id="Fill-17" fill="#1FB9A5" mask="url(#mask-6)" points="24 45 26 45 26 40 24 40"></polygon>
            <path d="M40,21.5635158 C39.6738708,21.0021006 39.4208619,20.5665008 39.091713,20 C37.6780553,20.8391376 36.3597343,21.6218905 35,22.4291874 C35.3388551,23.0222222 35.6032958,23.4845771 35.8975023,24 C37.306199,23.1632946 38.6225788,22.3816473 40,21.5635158" id="Fill-18" fill="#1FB9A5" mask="url(#mask-6)"></path>
            <path d="M10,21.5856613 C11.4325721,22.4251812 12.7405349,23.19168 14.1194859,24 C14.4264502,23.4485811 14.6980288,22.9606683 15,22.4183216 C13.5804533,21.5818997 12.2750955,20.8129668 10.8952761,20 C10.5768062,20.5640316 10.3019712,21.0508381 10,21.5856613" id="Fill-19" fill="#1FB9A5" mask="url(#mask-6)"></path>
            <path d="M10,35.4205298 C10.2948557,35.9461369 10.5563968,36.4125828 10.8858651,37 C12.3259637,36.1439294 13.6436205,35.3607064 15,34.5543046 C14.6538744,33.9582781 14.3877904,33.5 14.0972613,33 C12.6956691,33.8280353 11.3946697,34.5966887 10,35.4205298" id="Fill-20" fill="#1FB9A5" mask="url(#mask-6)"></path>
            <path d="M40,35.4125789 C38.567474,34.5703687 37.2649221,33.8043406 35.8966263,33 C35.5949394,33.5277378 35.3285035,33.9941313 35,34.5685971 C36.3838668,35.3877754 37.7093426,36.1721847 39.108564,37 C39.4271194,36.4328424 39.7002595,35.9462961 40,35.4125789" id="Fill-21" fill="#1FB9A5" mask="url(#mask-6)"></path>
            <path d="M1,30 C1.78525,29.9441072 2.3925,29.9007745 3,29.8576512 L3,28.113879 C2.3265,28.0755704 1.7125,28.0406113 1,28 L1,30 Z" id="Fill-22" fill="#1FB9A5" mask="url(#mask-6)"></path>
            <path d="M50,28 C49.2665,28.0402991 48.6405,28.0747819 48,28.1100956 L48,29.8934358 C48.677,29.9295804 49.26675,29.9609472 50,30 L50,28 Z" id="Fill-23" fill="#1FB9A5" mask="url(#mask-6)"></path>
            <path d="M48.6182616,24 C47.9939407,24.1497737 47.5119097,24.2654989 47,24.3883094 C47.1063519,24.965558 47.1926452,25.4343633 47.2966987,26 C47.8763059,25.9240307 48.3976181,25.8555402 49,25.7766188 C48.8591726,25.1216296 48.7419557,24.5762645 48.6182616,24" id="Fill-24" fill="#1FB9A5" mask="url(#mask-6)"></path>
            <path d="M3,32.6063809 C2.89194827,32.0262282 2.80496454,31.5596007 2.7008761,31 C2.11514393,31.0839695 1.59365874,31.1585437 1,31.2434919 C1.14518148,31.8909767 1.26616604,32.4308084 1.39382562,33 C2.01793909,32.8471325 2.49770547,32.729497 3,32.6063809" id="Fill-25" fill="#1FB9A5" mask="url(#mask-6)"></path>
            <path d="M36,47.7607478 C36.3469683,48.196347 36.6222468,48.5418282 36.9873289,49 C37.7080534,48.7074179 38.3331066,48.4534333 39,48.1825622 C38.5884854,47.7512708 38.2540182,47.4007926 37.8718428,47 C37.2064801,47.2705264 36.6214814,47.5083139 36,47.7607478" id="Fill-26" fill="#1FB9A5" mask="url(#mask-6)"></path>
            <path d="M12,48.1928485 C12.7281231,48.4832494 13.3327664,48.7247006 14.022621,49 C14.3624458,48.5601458 14.6627264,48.1713244 15,47.7345947 C14.325708,47.4707516 13.7623948,47.2503038 13.1227996,47 C12.7457267,47.4007985 12.4120248,47.7552508 12,48.1928485" id="Fill-27" fill="#1FB9A5" mask="url(#mask-6)"></path>
            <path d="M39,46.3570056 C39.4421973,46.9412649 39.8277154,47.451082 40.2429463,48 C40.8991261,47.4518339 41.4284644,47.0096917 42,46.5324589 C41.5383271,46.0133679 41.1535581,45.5810009 40.6372035,45 C40.0636704,45.4754783 39.5632959,45.8900493 39,46.3570056" id="Fill-28" fill="#1FB9A5" mask="url(#mask-6)"></path>
            <path d="M9,46.547996 C9.62430203,47.0607949 10.1620968,47.5031155 10.7671473,48 C11.2001833,47.421775 11.567964,46.9309532 12,46.3542439 C11.3944495,45.8507915 10.9179098,45.4541933 10.3716143,45 C9.89407451,45.5390704 9.46778898,46.020293 9,46.547996" id="Fill-29" fill="#1FB9A5" mask="url(#mask-6)"></path>
            <path d="M15,8.24954431 C14.6536403,7.81086711 14.3595277,7.43902439 14.0126582,7 C13.3099992,7.28348234 12.678447,7.53814773 12,7.81173509 C12.4090562,8.24242687 12.7487894,8.60055551 13.1280265,9 C13.7797129,8.73873796 14.3470393,8.51132714 15,8.24954431" id="Fill-30" fill="#1FB9A5" mask="url(#mask-6)"></path>
            <path d="M39,7.81001652 C38.2788706,7.52065038 37.6742411,7.27788888 36.9816008,7 C36.6460912,7.43248413 36.3439037,7.82201548 36,8.26528128 C36.667458,8.52717155 37.2306257,8.74802191 37.8734102,9 C38.2450399,8.60751239 38.5802951,8.25345622 39,7.81001652" id="Fill-31" fill="#1FB9A5" mask="url(#mask-6)"></path>
            <path d="M12,10.6421026 C11.5683256,10.0663984 11.1840879,9.55432596 10.7681425,9 C10.1387317,9.51961771 9.62866178,9.94064386 9,10.4597586 C9.48685087,11.0045272 9.89855193,11.4650402 10.3766644,12 C10.9356691,11.5324447 11.4340047,11.1154427 12,10.6421026" id="Fill-32" fill="#1FB9A5" mask="url(#mask-6)"></path>
            <path d="M42,10.4442118 C41.3608903,9.92528062 40.8209355,9.48676495 40.2212367,9 C39.7811899,9.587033 39.4134382,10.0775674 39,10.6289161 C39.5284077,11.0784889 39.9968203,11.4770481 40.6115806,12 C41.107104,11.4446306 41.5340976,10.9664098 42,10.4442118" id="Fill-33" fill="#1FB9A5" mask="url(#mask-6)"></path>
            <path d="M48.6817077,33 C48.7939343,32.3720374 48.8898869,31.8346943 49,31.2190799 C48.3961746,31.1408086 47.8876678,31.0746863 47.3119518,31 C47.2071225,31.5568612 47.1170876,32.0360486 47,32.6582354 C47.6008665,32.7803226 48.0983832,32.8814977 48.6817077,33" id="Fill-34" fill="#1FB9A5" mask="url(#mask-6)"></path>
            <path d="M3,24.3325508 C2.39788394,24.212514 1.89644117,24.1124834 1.331944,24 C1.21759111,24.637338 1.12290264,25.1660712 1,25.8513831 C1.66816287,25.9075227 2.20252218,25.9524344 2.77043924,26 C2.85764668,25.3659283 2.92497595,24.8774115 3,24.3325508" id="Fill-35" fill="#1FB9A5" mask="url(#mask-6)"></path>
            <path d="M35,6.58175012 C34.4685466,6.37959757 34.0056038,6.2034628 33.4701735,6 C33.3063991,6.50556855 33.1608821,6.95460927 33,7.45138044 C33.5291034,7.65278428 33.9616775,7.81750117 34.4412509,8 C34.6393709,7.49723912 34.8033261,7.08114179 35,6.58175012" id="Fill-36" fill="#1FB9A5" mask="url(#mask-6)"></path>
            <path d="M18,7.43918481 C17.8303994,6.92024085 17.6918953,6.4963409 17.5298007,6 C16.9881154,6.22121352 16.5159503,6.41408059 16,6.62491894 C16.2192834,7.14682723 16.3912072,7.55609078 16.577607,8 C17.0710392,7.80546549 17.4794031,7.64446503 18,7.43918481" id="Fill-37" fill="#1FB9A5" mask="url(#mask-6)"></path>
            <path d="M16,50.4051408 C16.5500315,50.6171735 17.0097995,50.7943696 17.5431089,51 C17.706554,50.4734959 17.8466241,50.0226909 18,49.5283872 C17.4568012,49.328406 17.0256226,49.1694756 16.5649555,49 C16.3718421,49.4805574 16.2132518,49.8748705 16,50.4051408" id="Fill-38" fill="#1FB9A5" mask="url(#mask-6)"></path>
            <path d="M33,49.5637982 C33.1661456,50.0751113 33.3038857,50.4994436 33.4662796,51 C34.0041983,50.7817136 34.4767307,50.5899481 35,50.3777819 C34.780795,49.8583086 34.6078607,49.4489985 34.4183117,49 C33.9118356,49.2014095 33.4837874,49.3716617 33,49.5637982" id="Fill-39" fill="#1FB9A5" mask="url(#mask-6)"></path>
            <path d="M31.4558824,32.4397059 C31.4558824,33.1561765 31.0544118,33.7793382 30.4663235,34.0947794 C29.8826471,33.1751471 28.4618382,31.5017647 25.6892647,31.5019853 C22.3872794,31.5019853 21.0553676,33.0147794 20.4963971,34.0740441 C19.9290441,33.7522059 19.5441176,33.1407353 19.5441176,32.4397059 L19.5441176,24.1985294 C19.5441176,23.1628676 20.3836765,22.3235294 21.4191176,22.3235294 L29.5808824,22.3235294 C30.6163235,22.3235294 31.4558824,23.1628676 31.4558824,24.1985294 L31.4558824,32.4397059 Z M22.1664706,34.4558824 C22.5963971,33.7116176 23.7280147,33.3158824 25.6760294,33.3158824 C27.2117647,33.3158824 28.0749265,33.7034559 28.4470588,34.4558824 L22.1664706,34.4558824 Z M29.5808824,21 L21.4191176,21 C19.5306618,21 18,22.5306618 18,24.4191176 L18,32.5808824 C18,34.4691176 19.5306618,36 21.4191176,36 L29.5808824,36 C31.4693382,36 33,34.4691176 33,32.5808824 L33,24.4191176 C33,22.5306618 31.4693382,21 29.5808824,21 Z" id="Fill-40" fill="#1FB9A5" mask="url(#mask-6)"></path>
            <path d="M23.000182,27.4782431 C23.0169573,26.0915743 24.1402713,24.9897714 25.5269263,25.0000716 C26.9161135,25.0106937 28.0141062,26.1330971 27.999863,27.5281348 C27.9853033,28.9325071 26.8819298,30.0137095 25.4778664,29.9998686 C24.0855141,29.9860277 22.9837232,28.8649118 23.000182,27.4782431 Z M22.0000014,27.504591 C22.0019409,29.4298677 23.5765949,31.0016898 25.5020609,30.9999986 C27.423163,30.9985491 29.0014536,29.4177879 28.999999,27.49686 C28.9990292,25.5768984 27.4168596,23.9975868 25.4969697,24.0000028 C23.5765949,24.0024187 21.9983043,25.5841462 22.0000014,27.504591 Z" id="Fill-41" fill="#1FB9A5" mask="url(#mask-6)"></path>
        </g>
    </g>
</svg>