<?xml version="1.0" encoding="UTF-8"?>
<svg width="17px" height="17px" viewBox="0 0 17 17" version="1.1" xmlns="http://www.w3.org/2000/svg" xmlns:xlink="http://www.w3.org/1999/xlink">
    <!-- Generator: Sketch 52.3 (67297) - http://www.bohemiancoding.com/sketch -->
    <title>check</title>
    <desc>Created with Sketch.</desc>
    <g id="Page-2" stroke="none" stroke-width="1" fill="none" fill-rule="evenodd">
        <g id="submit-your-entry" transform="translate(-181.000000, -593.000000)">
            <g id="check" transform="translate(181.000000, 593.000000)">
                <circle id="Oval-2" fill="#20AAA3" fill-rule="nonzero" cx="8.5" cy="8.5" r="8.5"></circle>
                <path d="M14,6.56228956 C14,6.73063973 13.9290323,6.8989899 13.8012903,7.02020202 L7.69806452,12.8114478 C7.57032258,12.9326599 7.39290323,13 7.21548387,13 C7.03806452,13 6.86064516,12.9326599 6.73290323,12.8114478 L3.19870968,9.45791246 C3.07096774,9.33670034 3,9.16835017 3,9 C3,8.83164983 3.07096774,8.66329966 3.19870968,8.54208754 L4.16387097,7.62626263 C4.2916129,7.50505051 4.46903226,7.43771044 4.64645161,7.43771044 C4.82387097,7.43771044 5.00129032,7.50505051 5.12903226,7.62626263 L7.21548387,9.61279461 L11.8709677,5.18855219 C11.9987097,5.06734007 12.176129,5 12.3535484,5 C12.5309677,5 12.7083871,5.06734007 12.836129,5.18855219 L13.8012903,6.1043771 C13.9290323,6.22558923 14,6.39393939 14,6.56228956 Z" id="Check---FontAwesome" fill="#FFFFFF"></path>
            </g>
        </g>
    </g>
</svg>