<?xml version="1.0" encoding="UTF-8"?>
<svg width="26px" height="20px" viewBox="0 0 26 20" version="1.1" xmlns="http://www.w3.org/2000/svg" xmlns:xlink="http://www.w3.org/1999/xlink">
    <!-- Generator: Sketch 53.2 (72643) - https://sketchapp.com -->
    <title>Shape</title>
    <desc>Created with Sketch.</desc>
    <g id="2019-after" stroke="none" stroke-width="1" fill="none" fill-rule="evenodd">
        <g id="home-after-week" transform="translate(-842.000000, -378.000000)" fill="#E1F2F1" fill-rule="nonzero">
            <g id="SUMMARY" transform="translate(621.000000, 362.000000)">
                <path d="M246,32.8 L224.4,32.8 L224.4,17.6 C224.4,17.158 224.042,16.8 223.6,16.8 L222,16.8 C221.558,16.8 221.2,17.158 221.2,17.6 L221.2,34.4 C221.2,35.2835 221.9165,36 222.8,36 L246,36 C246.442,36 246.8,35.642 246.8,35.2 L246.8,33.6 C246.8,33.158 246.442,32.8 246,32.8 Z M244.400473,18.4 L238.497281,18.4 C237.428247,18.4 236.892729,19.6925289 237.648754,20.4485457 L239.268807,22.0685819 L235.600187,25.7376638 L231.931568,22.0690819 C231.306548,21.4440679 230.293515,21.4440679 229.668994,22.0690819 L226.234383,25.5036586 C225.921872,25.8161655 225.921872,26.3226768 226.234383,26.6351838 L227.365419,27.7662091 C227.67793,28.078716 228.184446,28.078716 228.496956,27.7662091 L230.800031,25.4626576 L234.46865,29.1312395 C235.093671,29.7562535 236.106704,29.7562535 236.731224,29.1312395 L241.53138,24.3311324 L243.151433,25.9511686 C243.907457,26.7071854 245.199999,26.1716735 245.199999,25.1026496 L245.199999,19.2000179 C245.200499,18.758008 244.842488,18.4 244.400473,18.4 Z" id="Shape"></path>
            </g>
        </g>
    </g>
</svg>