<svg width="204" height="163" viewBox="0 0 204 163" fill="none" xmlns="http://www.w3.org/2000/svg">
<circle cx="102.706" cy="82.3529" r="80" fill="#B9EDB6"/>
<path d="M175.073 33.5119L174.664 34.3138L175.073 33.5119C174.732 33.3384 174.378 33.2742 174.022 33.2451C173.685 33.2176 173.276 33.2176 172.801 33.2176L172.767 33.2176H27.9386L27.9039 33.2176C27.4295 33.2176 27.0202 33.2176 26.6831 33.2451C26.3273 33.2742 25.9734 33.3384 25.6328 33.5119C25.1248 33.7708 24.7117 34.1838 24.4529 34.6918C24.2794 35.0324 24.2152 35.3863 24.1861 35.7421C24.1586 36.0792 24.1586 36.4885 24.1586 36.9629L24.1586 36.9976V132.414L24.1586 132.449C24.1586 132.923 24.1586 133.332 24.1861 133.67C24.2152 134.025 24.2794 134.379 24.4529 134.72C24.7117 135.228 25.1248 135.641 25.6328 135.9C25.9734 136.073 26.3273 136.137 26.6831 136.167C27.0202 136.194 27.4294 136.194 27.9038 136.194H27.9386H172.767H172.802C173.276 136.194 173.685 136.194 174.022 136.167C174.378 136.137 174.732 136.073 175.073 135.9C175.581 135.641 175.994 135.228 176.253 134.72C176.426 134.379 176.49 134.025 176.519 133.67C176.547 133.333 176.547 132.923 176.547 132.449V132.414V36.9976V36.9628C176.547 36.4884 176.547 36.0792 176.519 35.7421C176.49 35.3863 176.426 35.0324 176.253 34.6919C175.994 34.1838 175.581 33.7708 175.073 33.5119Z" fill="white" stroke="#2DAA2A" stroke-width="1.8" stroke-linecap="round" stroke-linejoin="round"/>
<rect x="133.248" y="23.2222" width="8.45752" height="17.6078" rx="3" fill="#DBF5D6" stroke="#2DAA2A" stroke-width="2" stroke-linecap="round" stroke-linejoin="round"/>
<rect x="58.7383" y="23.2222" width="8.45752" height="17.6078" rx="3" fill="#DBF5D6" stroke="#2DAA2A" stroke-width="2" stroke-linecap="round" stroke-linejoin="round"/>
<path d="M34.437 72.8661H57.9664V91.6896H34.437V72.8661Z" fill="#DBF5D6"/>
<path d="M34.437 54.902H57.9664V62.7451H34.437V54.902Z" fill="#DBF5D6"/>
<path d="M34.437 94.1177H57.9664V112.941H34.437V94.1177Z" fill="#DBF5D6"/>
<path d="M61.5039 72.8661H85.0333V91.6896H61.5039V72.8661Z" fill="#DBF5D6"/>
<path d="M61.5039 54.902H85.0333V62.7451H61.5039V54.902Z" fill="#DBF5D6"/>
<path d="M61.5039 94.1177H85.0333V112.941H61.5039V94.1177Z" fill="#DBF5D6"/>
<path d="M88.5713 72.8661H112.101V91.6896H88.5713V72.8661Z" fill="#DBF5D6"/>
<path d="M88.5713 54.902H112.101V62.7451H88.5713V54.902Z" fill="#DBF5D6"/>
<path d="M88.5713 94.1177H112.101V112.941H88.5713V94.1177Z" fill="#DBF5D6"/>
<path d="M115.638 72.8661H139.168V91.6896H115.638V72.8661Z" fill="#DBF5D6"/>
<path d="M115.638 54.902H139.168V62.7451H115.638V54.902Z" fill="#DBF5D6"/>
<path d="M115.638 94.1177H139.168V112.941H115.638V94.1177Z" fill="#DBF5D6"/>
<path d="M142.706 72.8661H166.235V91.6896H142.706V72.8661Z" fill="#DBF5D6"/>
<path d="M142.706 54.902H166.235V62.7451H142.706V54.902Z" fill="#DBF5D6"/>
<path d="M142.706 94.1177H166.235V112.941H142.706V94.1177Z" fill="#DBF5D6"/>
<ellipse cx="71.3106" cy="84.9812" rx="8.60504" ry="8.61076" fill="#B9EDB6"/>
<path fill-rule="evenodd" clip-rule="evenodd" d="M84.8906 81.2056C84.8906 81.5001 84.7657 81.7945 84.5409 82.0065L73.7985 92.1358C73.5736 92.3478 73.2613 92.4656 72.9491 92.4656C72.6368 92.4656 72.3245 92.3478 72.0997 92.1358L65.8791 86.2702C65.6542 86.0582 65.5293 85.7638 65.5293 85.4693C65.5293 85.1749 65.6542 84.8804 65.8791 84.6684L67.5779 83.0666C67.8027 82.8546 68.115 82.7368 68.4273 82.7368C68.7395 82.7368 69.0518 82.8546 69.2767 83.0666L72.9491 86.5411L81.1433 78.8029C81.3681 78.5909 81.6804 78.4731 81.9927 78.4731C82.305 78.4731 82.6172 78.5909 82.8421 78.8029L84.5409 80.4047C84.7657 80.6167 84.8906 80.9112 84.8906 81.2056Z" fill="#2DAA2A"/>
<ellipse cx="126.474" cy="82.8898" rx="8.60504" ry="8.61076" fill="#B9EDB6"/>
<path fill-rule="evenodd" clip-rule="evenodd" d="M140.054 79.1142C140.054 79.4086 139.929 79.7031 139.704 79.9151L128.962 90.0444C128.737 90.2564 128.425 90.3741 128.113 90.3741C127.8 90.3741 127.488 90.2564 127.263 90.0444L121.043 84.1788C120.818 83.9668 120.693 83.6724 120.693 83.3779C120.693 83.0834 120.818 82.789 121.043 82.577L122.741 80.9751C122.966 80.7631 123.279 80.6454 123.591 80.6454C123.903 80.6454 124.215 80.7631 124.44 80.9751L128.113 84.4497L136.307 76.7114C136.532 76.4994 136.844 76.3817 137.156 76.3817C137.469 76.3817 137.781 76.4994 138.006 76.7114L139.704 78.3133C139.929 78.5253 140.054 78.8197 140.054 79.1142Z" fill="#2DAA2A"/>
<ellipse cx="151.311" cy="103.805" rx="8.60504" ry="8.61076" fill="#B9EDB6"/>
<path fill-rule="evenodd" clip-rule="evenodd" d="M164.891 100.029C164.891 100.324 164.766 100.618 164.541 100.83L153.798 110.959C153.574 111.171 153.261 111.289 152.949 111.289C152.637 111.289 152.325 111.171 152.1 110.959L145.879 105.094C145.654 104.882 145.529 104.587 145.529 104.293C145.529 103.998 145.654 103.704 145.879 103.492L147.578 101.89C147.803 101.678 148.115 101.56 148.427 101.56C148.74 101.56 149.052 101.678 149.277 101.89L152.949 105.365L161.143 97.6264C161.368 97.4144 161.68 97.2966 161.993 97.2966C162.305 97.2966 162.617 97.4144 162.842 97.6264L164.541 99.2283C164.766 99.4403 164.891 99.7347 164.891 100.029Z" fill="#2DAA2A"/>
<ellipse cx="98.3697" cy="103.805" rx="8.60504" ry="8.61076" fill="#B9EDB6"/>
<path fill-rule="evenodd" clip-rule="evenodd" d="M111.95 100.029C111.95 100.324 111.825 100.618 111.6 100.83L100.858 110.959C100.633 111.171 100.32 111.289 100.008 111.289C99.6959 111.289 99.3836 111.171 99.1587 110.959L92.9381 105.094C92.7133 104.882 92.5884 104.587 92.5884 104.293C92.5884 103.998 92.7133 103.704 92.9381 103.492L94.6369 101.89C94.8618 101.678 95.1741 101.56 95.4863 101.56C95.7986 101.56 96.1109 101.678 96.3357 101.89L100.008 105.365L108.202 97.6264C108.427 97.4144 108.739 97.2966 109.052 97.2966C109.364 97.2966 109.676 97.4144 109.901 97.6264L111.6 99.2283C111.825 99.4403 111.95 99.7347 111.95 100.029Z" fill="#2DAA2A"/>
<ellipse cx="45.4283" cy="80.2754" rx="8.60504" ry="8.61076" fill="#B9EDB6"/>
<path fill-rule="evenodd" clip-rule="evenodd" d="M59.0083 76.4998C59.0083 76.7943 58.8834 77.0887 58.6586 77.3007L47.9161 87.43C47.6913 87.642 47.379 87.7598 47.0667 87.7598C46.7545 87.7598 46.4422 87.642 46.2173 87.43L39.9967 81.5644C39.7719 81.3524 39.647 81.058 39.647 80.7635C39.647 80.4691 39.7719 80.1746 39.9967 79.9626L41.6955 78.3608C41.9204 78.1488 42.2326 78.031 42.5449 78.031C42.8572 78.031 43.1695 78.1488 43.3943 78.3608L47.0667 81.8353L55.261 74.0971C55.4858 73.8851 55.7981 73.7673 56.1104 73.7673C56.4226 73.7673 56.7349 73.8851 56.9598 74.0971L58.6586 75.6989C58.8834 75.9109 59.0083 76.2054 59.0083 76.4998Z" fill="#2DAA2A"/>
<ellipse cx="72.8795" cy="105.112" rx="8.60504" ry="8.61076" fill="#B9EDB6"/>
<path fill-rule="evenodd" clip-rule="evenodd" d="M86.4595 101.336C86.4595 101.631 86.3346 101.925 86.1097 102.137L75.3673 112.267C75.1425 112.479 74.8302 112.596 74.5179 112.596C74.2056 112.596 73.8934 112.479 73.6685 112.267L67.4479 106.401C67.2231 106.189 67.0981 105.895 67.0981 105.6C67.0981 105.306 67.2231 105.011 67.4479 104.799L69.1467 103.197C69.3715 102.985 69.6838 102.868 69.9961 102.868C70.3084 102.868 70.6207 102.985 70.8455 103.197L74.5179 106.672L82.7121 98.9336C82.937 98.7216 83.2493 98.6038 83.5615 98.6038C83.8738 98.6038 84.1861 98.7216 84.4109 98.9336L86.1097 100.535C86.3346 100.747 86.4595 101.042 86.4595 101.336Z" fill="#2DAA2A"/>
<path fill-rule="evenodd" clip-rule="evenodd" d="M20.8683 108.526C21.637 108.118 22.2488 107.546 22.7038 106.813C23.1589 106.079 23.4075 105.289 23.4497 104.441C23.4919 103.593 23.3092 102.786 22.9016 102.019C22.494 101.253 21.9233 100.643 21.1896 100.19C20.4559 99.7374 19.6577 99.4945 18.7951 99.4615C17.9324 99.4285 17.1168 99.6164 16.3482 100.025C15.5795 100.434 14.9746 101.001 14.5333 101.728C14.092 102.454 13.8538 103.248 13.8189 104.109C13.784 104.971 13.9703 105.785 14.3779 106.551C15.0039 107.729 15.947 108.509 17.2073 108.892C18.4676 109.276 19.6879 109.154 20.8683 108.526ZM12.2648 92.3452C14.4609 91.1775 16.7624 90.6386 19.1694 90.7284C21.549 90.8329 23.7545 91.504 25.7859 92.7417C27.8319 94.0069 29.4371 95.7346 30.6018 97.925C31.4898 99.5951 32.0971 101.731 32.4236 104.331C32.6852 106.545 32.7524 109.056 32.6251 111.863C32.4846 114.115 32.2294 116.516 31.8597 119.065C31.6105 120.849 31.2919 122.633 30.9039 124.42L30.4328 126.514L28.4332 125.734C26.735 125.056 25.0771 124.322 23.4595 123.532C21.139 122.413 19.0059 121.282 17.0602 120.139C14.6619 118.675 12.6182 117.215 10.9291 115.76C8.95551 114.035 7.52471 112.338 6.63668 110.667C5.47206 108.477 4.93737 106.18 5.03261 103.776C5.1424 101.4 5.81931 99.1965 7.06336 97.1653C8.33486 95.1196 10.0686 93.5129 12.2648 92.3452Z" fill="url(#paint0_linear)"/>
<path fill-rule="evenodd" clip-rule="evenodd" d="M18.4255 107.787C19.1942 107.378 19.806 106.807 20.261 106.073C20.7161 105.339 20.9647 104.549 21.0069 103.701C21.0491 102.853 20.8664 102.046 20.4588 101.279C20.0512 100.513 19.4805 99.9031 18.7468 99.4504C18.0131 98.9976 17.2149 98.7547 16.3523 98.7217C15.4896 98.6887 14.674 98.8766 13.9054 99.2853C13.1367 99.694 12.5318 100.261 12.0905 100.988C11.6492 101.714 11.411 102.508 11.3761 103.369C11.3412 104.231 11.5275 105.045 11.9351 105.812C12.5611 106.989 13.5042 107.769 14.7645 108.153C16.0248 108.536 17.2451 108.414 18.4255 107.787ZM9.8219 91.6055C12.018 90.4378 14.3196 89.8988 16.7266 89.9887C19.1061 90.0931 21.3116 90.7642 23.343 92.002C25.389 93.2671 26.9943 94.9949 28.1589 97.1852C29.0469 98.8554 29.6542 100.991 29.9807 103.592C30.2423 105.806 30.3095 108.316 30.1823 111.123C30.0417 113.375 29.7865 115.776 29.4168 118.326C29.1676 120.109 28.8491 121.894 28.461 123.68L27.99 125.775L25.9904 124.994C24.2921 124.317 22.6342 123.583 21.0166 122.792C18.6961 121.673 16.5631 120.542 14.6173 119.399C12.219 117.935 10.1754 116.475 8.48625 115.02C6.51264 113.295 5.08184 111.598 4.19381 109.928C3.02919 107.737 2.4945 105.44 2.58974 103.037C2.69953 100.66 3.37644 98.4567 4.62049 96.4256C5.89199 94.3798 7.62577 92.7732 9.8219 91.6055Z" fill="#DBF5D6"/>
<path d="M16.7266 89.9887L16.7463 89.5391L16.7433 89.539L16.7266 89.9887ZM23.343 92.002L23.5797 91.6192L23.5772 91.6177L23.343 92.002ZM29.9807 103.592L30.4276 103.539L30.4272 103.536L29.9807 103.592ZM30.1823 111.123L30.6315 111.151L30.6318 111.143L30.1823 111.123ZM29.4168 118.326L28.9714 118.261L28.9711 118.263L29.4168 118.326ZM28.461 123.68L28.9 123.779L28.9007 123.776L28.461 123.68ZM27.99 125.775L27.8263 126.194L28.3141 126.384L28.429 125.873L27.99 125.775ZM25.9904 124.994L25.8236 125.412L25.8267 125.413L25.9904 124.994ZM21.0166 122.792L21.2142 122.388L21.2121 122.387L21.0166 122.792ZM14.6173 119.399L14.3828 119.783L14.3894 119.787L14.6173 119.399ZM8.48625 115.02L8.1901 115.359L8.19257 115.361L8.48625 115.02ZM2.58974 103.037L2.14021 103.016L2.14009 103.019L2.58974 103.037ZM4.62049 96.4256L4.23829 96.188L4.23675 96.1906L4.62049 96.4256ZM18.6368 108.184C19.475 107.738 20.1462 107.112 20.6435 106.31L19.8786 105.836C19.4659 106.501 18.9134 107.017 18.2143 107.389L18.6368 108.184ZM20.6435 106.31C21.1379 105.513 21.4103 104.649 21.4563 103.723L20.5575 103.679C20.5191 104.449 20.2942 105.166 19.8786 105.836L20.6435 106.31ZM21.4563 103.723C21.5027 102.793 21.301 101.905 20.8561 101.068L20.0615 101.491C20.4319 102.187 20.5955 102.914 20.5575 103.679L21.4563 103.723ZM20.8561 101.068C20.4113 100.232 19.7853 99.5624 18.9831 99.0674L18.5105 99.8333C19.1757 100.244 19.6911 100.794 20.0615 101.491L20.8561 101.068ZM18.9831 99.0674C18.1833 98.5738 17.3096 98.308 16.3695 98.2721L16.3351 99.1714C17.1203 99.2015 17.8429 99.4214 18.5105 99.8333L18.9831 99.0674ZM16.3695 98.2721C15.4267 98.236 14.5323 98.4423 13.6941 98.888L14.1166 99.6826C14.8157 99.3109 15.5526 99.1415 16.3351 99.1714L16.3695 98.2721ZM13.6941 98.888C12.8558 99.3337 12.1902 99.9569 11.7059 100.754L12.475 101.221C12.8733 100.566 13.4176 100.054 14.1166 99.6826L13.6941 98.888ZM11.7059 100.754C11.2244 101.547 10.9644 102.415 10.9265 103.351L11.8257 103.388C11.8576 102.601 12.0739 101.882 12.475 101.221L11.7059 100.754ZM10.9265 103.351C10.8883 104.293 11.093 105.186 11.5378 106.023L12.3325 105.6C11.962 104.904 11.7941 104.169 11.8257 103.388L10.9265 103.351ZM11.5378 106.023C12.2191 107.304 13.2573 108.164 14.6335 108.583L14.8955 107.722C13.7512 107.374 12.9031 106.673 12.3325 105.6L11.5378 106.023ZM14.6335 108.583C16.0097 109.002 17.3529 108.866 18.6368 108.184L18.2143 107.389C17.1373 107.962 16.0399 108.07 14.8955 107.722L14.6335 108.583ZM10.0332 92.0028C12.1616 90.8711 14.3847 90.3516 16.7098 90.4384L16.7433 89.539C14.2544 89.4461 11.8744 90.0044 9.61064 91.2081L10.0332 92.0028ZM16.7068 90.4382C19.0107 90.5394 21.1423 91.188 23.1089 92.3863L23.5772 91.6177C21.4808 90.3404 19.2016 89.6469 16.7463 89.5391L16.7068 90.4382ZM23.1063 92.3847C25.0823 93.6066 26.6331 95.2742 27.7616 97.3965L28.5562 96.974C27.3554 94.7155 25.6956 92.9277 23.5797 91.6193L23.1063 92.3847ZM27.7616 97.3965C28.6161 99.0036 29.2121 101.082 29.5342 103.648L30.4272 103.536C30.0963 100.9 29.4778 98.7071 28.5562 96.974L27.7616 97.3965ZM29.5338 103.644C29.792 105.829 29.8592 108.314 29.7327 111.103L30.6318 111.143C30.7599 108.318 30.6927 105.782 30.4276 103.539L29.5338 103.644ZM29.7331 111.095C29.5934 113.333 29.3397 115.722 28.9714 118.261L29.8621 118.39C30.2334 115.83 30.49 113.417 30.6314 111.151L29.7331 111.095ZM28.9711 118.263C28.7236 120.035 28.407 121.809 28.0213 123.585L28.9007 123.776C29.2912 121.978 29.6117 120.182 29.8625 118.388L28.9711 118.263ZM28.022 123.582L27.5509 125.676L28.429 125.873L28.9 123.779L28.022 123.582ZM28.1536 125.355L26.154 124.575L25.8267 125.413L27.8263 126.194L28.1536 125.355ZM26.1571 124.576C24.4691 123.903 22.8215 123.173 21.2142 122.388L20.8191 123.196C22.4469 123.992 24.1151 124.73 25.8236 125.412L26.1571 124.576ZM21.2121 122.387C18.9012 121.272 16.779 120.147 14.8452 119.011L14.3894 119.787C16.3471 120.937 18.4911 122.074 20.8212 123.197L21.2121 122.387ZM14.8518 119.015C12.4693 117.56 10.4465 116.115 8.77993 114.68L8.19257 115.361C9.90426 116.836 11.9688 118.309 14.3828 119.783L14.8518 119.015ZM8.7824 114.682C6.83523 112.98 5.44565 111.324 4.59114 109.716L3.79649 110.139C4.71803 111.872 6.19005 113.611 8.1901 115.359L8.7824 114.682ZM4.59114 109.716C3.46271 107.594 2.9474 105.376 3.03938 103.055L2.14009 103.019C2.0416 105.505 2.59566 107.881 3.79649 110.139L4.59114 109.716ZM3.03926 103.057C3.14554 100.757 3.79978 98.6271 5.00423 96.6606L4.23675 96.1906C2.95311 98.2863 2.25352 100.564 2.14022 103.016L3.03926 103.057ZM5.00268 96.6631C6.23088 94.6871 7.90471 93.1345 10.0332 92.0028L9.61064 91.2081C7.34683 92.4118 5.55309 94.0726 4.2383 96.188L5.00268 96.6631Z" fill="#2DAA2A"/>
<path d="M137.218 66.5328C137.476 65.5726 138.463 65.0027 139.423 65.26L195.23 80.2135C196.19 80.4708 196.76 81.4578 196.503 82.418L182.532 134.557C182.275 135.517 181.288 136.087 180.328 135.829L124.521 120.876C123.56 120.619 122.99 119.632 123.248 118.671L137.218 66.5328Z" fill="url(#paint1_linear)"/>
<path d="M141.69 62.6801C140.49 62.3585 139.256 63.0708 138.934 64.2711L124.964 116.41C124.642 117.61 125.355 118.844 126.555 119.165L182.362 134.119C183.562 134.44 184.796 133.728 185.118 132.528L199.088 80.3892C199.41 79.1889 198.698 77.9552 197.497 77.6336L141.69 62.6801Z" fill="white" stroke="#DBF5D6" stroke-width="0.9" stroke-linecap="round" stroke-linejoin="round"/>
<path d="M143.902 68.3955L193.596 81.7111L184.748 114.733L135.054 101.417L143.902 68.3955Z" fill="#DBF5D6"/>
<circle cx="152.395" cy="82.4568" r="5.29412" transform="rotate(15 152.395 82.4568)" fill="#B9EDB6"/>
<path d="M133.89 105.762L183.584 119.078L182.653 122.554L132.958 109.238L133.89 105.762Z" fill="#B9EDB6"/>
<path d="M132.027 112.714L160.797 120.423L159.866 123.899L131.095 116.19L132.027 112.714Z" fill="#B9EDB6"/>
<path d="M135.074 101.414L158.112 90.7193L167.801 103.472L179.777 99.1821L186.275 109.122L184.735 114.759L135.074 101.414Z" fill="#B9EDB6"/>
<defs>
<linearGradient id="paint0_linear" x1="-24.2163" y1="91.619" x2="20.7589" y2="136.261" gradientUnits="userSpaceOnUse">
<stop stop-color="white" stop-opacity="0.01"/>
<stop offset="1" stop-color="#DBF5D6"/>
</linearGradient>
<linearGradient id="paint1_linear" x1="119.419" y1="62.5585" x2="127.576" y2="152.876" gradientUnits="userSpaceOnUse">
<stop stop-color="white" stop-opacity="0.01"/>
<stop offset="1" stop-color="#2DAA2A"/>
</linearGradient>
</defs>
</svg>
