<svg width="246" height="160" viewBox="0 0 246 160" fill="none" xmlns="http://www.w3.org/2000/svg">
<g id="events-icon">
<g id="step2">
<circle id="Oval 3" cx="121.823" cy="79.4117" r="77.0588" fill="#E8F0E8"/>
<g id="browser">
<g id="Rectangle 5">
<path d="M197.132 33.5119L196.723 34.3138L197.132 33.5119C196.791 33.3384 196.437 33.2742 196.081 33.2451C195.744 33.2176 195.335 33.2176 194.861 33.2176L194.826 33.2176H49.9976L49.9629 33.2176C49.4885 33.2176 49.0792 33.2176 48.7421 33.2451C48.3863 33.2742 48.0324 33.3384 47.6919 33.5119C47.1838 33.7708 46.7708 34.1838 46.5119 34.6918C46.3384 35.0324 46.2742 35.3863 46.2451 35.7421C46.2176 36.0792 46.2176 36.4885 46.2176 36.9629L46.2176 36.9976V132.414L46.2176 132.449C46.2176 132.923 46.2176 133.332 46.2451 133.67C46.2742 134.025 46.3384 134.379 46.5119 134.72C46.7708 135.228 47.1838 135.641 47.6919 135.9C48.0324 136.073 48.3863 136.137 48.7421 136.167C49.0792 136.194 49.4885 136.194 49.9628 136.194H49.9976H194.826H194.861C195.335 136.194 195.744 136.194 196.081 136.167C196.437 136.137 196.791 136.073 197.132 135.9C197.64 135.641 198.053 135.228 198.312 134.72C198.485 134.379 198.549 134.025 198.578 133.67C198.606 133.333 198.606 132.923 198.606 132.449V132.414V36.9976V36.9628C198.606 36.4884 198.606 36.0792 198.578 35.7421C198.549 35.3863 198.485 35.0324 198.312 34.6919C198.053 34.1838 197.64 33.7708 197.132 33.5119Z" fill="white"/>
<path d="M197.132 33.5119L196.723 34.3138L197.132 33.5119C196.791 33.3384 196.437 33.2742 196.081 33.2451C195.744 33.2176 195.335 33.2176 194.861 33.2176L194.826 33.2176H49.9976L49.9629 33.2176C49.4885 33.2176 49.0792 33.2176 48.7421 33.2451C48.3863 33.2742 48.0324 33.3384 47.6919 33.5119C47.1838 33.7708 46.7708 34.1838 46.5119 34.6918C46.3384 35.0324 46.2742 35.3863 46.2451 35.7421C46.2176 36.0792 46.2176 36.4885 46.2176 36.9629L46.2176 36.9976V132.414L46.2176 132.449C46.2176 132.923 46.2176 133.332 46.2451 133.67C46.2742 134.025 46.3384 134.379 46.5119 134.72C46.7708 135.228 47.1838 135.641 47.6919 135.9C48.0324 136.073 48.3863 136.137 48.7421 136.167C49.0792 136.194 49.4885 136.194 49.9628 136.194H49.9976H194.826H194.861C195.335 136.194 195.744 136.194 196.081 136.167C196.437 136.137 196.791 136.073 197.132 135.9C197.64 135.641 198.053 135.228 198.312 134.72C198.485 134.379 198.549 134.025 198.578 133.67C198.606 133.333 198.606 132.923 198.606 132.449V132.414V36.9976V36.9628C198.606 36.4884 198.606 36.0792 198.578 35.7421C198.549 35.3863 198.485 35.0324 198.312 34.6919C198.053 34.1838 197.64 33.7708 197.132 33.5119Z" stroke="#C0DAC0" stroke-width="1.8" stroke-linecap="round" stroke-linejoin="round"/>
<path d="M197.132 33.5119L196.723 34.3138L197.132 33.5119C196.791 33.3384 196.437 33.2742 196.081 33.2451C195.744 33.2176 195.335 33.2176 194.861 33.2176L194.826 33.2176H49.9976L49.9629 33.2176C49.4885 33.2176 49.0792 33.2176 48.7421 33.2451C48.3863 33.2742 48.0324 33.3384 47.6919 33.5119C47.1838 33.7708 46.7708 34.1838 46.5119 34.6918C46.3384 35.0324 46.2742 35.3863 46.2451 35.7421C46.2176 36.0792 46.2176 36.4885 46.2176 36.9629L46.2176 36.9976V132.414L46.2176 132.449C46.2176 132.923 46.2176 133.332 46.2451 133.67C46.2742 134.025 46.3384 134.379 46.5119 134.72C46.7708 135.228 47.1838 135.641 47.6919 135.9C48.0324 136.073 48.3863 136.137 48.7421 136.167C49.0792 136.194 49.4885 136.194 49.9628 136.194H49.9976H194.826H194.861C195.335 136.194 195.744 136.194 196.081 136.167C196.437 136.137 196.791 136.073 197.132 135.9C197.64 135.641 198.053 135.228 198.312 134.72C198.485 134.379 198.549 134.025 198.578 133.67C198.606 133.333 198.606 132.923 198.606 132.449V132.414V36.9976V36.9628C198.606 36.4884 198.606 36.0792 198.578 35.7421C198.549 35.3863 198.485 35.0324 198.312 34.6919C198.053 34.1838 197.64 33.7708 197.132 33.5119Z" stroke="#2DAA2A" stroke-width="1.8" stroke-linecap="round" stroke-linejoin="round"/>
</g>
<g id="Rectangle">
<rect x="155.307" y="23.2222" width="8.45752" height="17.6078" rx="3" fill="#E8F0E8"/>
<rect x="155.307" y="23.2222" width="8.45752" height="17.6078" rx="3" stroke="#2DAA2A" stroke-width="2" stroke-linecap="round" stroke-linejoin="round"/>
<rect x="155.307" y="23.2222" width="8.45752" height="17.6078" rx="3" stroke="#C0DAC0" stroke-width="2" stroke-linecap="round" stroke-linejoin="round"/>
</g>
<g id="Rectangle_2">
<rect x="80.7974" y="23.2222" width="8.45752" height="17.6078" rx="3" fill="#E8F0E8"/>
<rect x="80.7974" y="23.2222" width="8.45752" height="17.6078" rx="3" stroke="#2DAA2A" stroke-width="2" stroke-linecap="round" stroke-linejoin="round"/>
<rect x="80.7974" y="23.2222" width="8.45752" height="17.6078" rx="3" stroke="#C0DAC0" stroke-width="2" stroke-linecap="round" stroke-linejoin="round"/>
</g>
<path id="Rectangle 6" d="M56.4958 72.8661H80.0252V91.6896H56.4958V72.8661Z" fill="#E8F0E8"/>
<path id="Rectangle 6_2" d="M56.4958 54.902H80.0252V62.7451H56.4958V54.902Z" fill="#E8F0E8"/>
<path id="Rectangle 6_3" d="M56.4958 94.1177H80.0252V112.941H56.4958V94.1177Z" fill="#E8F0E8"/>
<path id="Rectangle 6_4" d="M83.563 72.8661H107.092V91.6896H83.563V72.8661Z" fill="#E8F0E8"/>
<path id="Rectangle 6_5" d="M83.563 54.902H107.092V62.7451H83.563V54.902Z" fill="#E8F0E8"/>
<path id="Rectangle 6_6" d="M83.563 94.1177H107.092V112.941H83.563V94.1177Z" fill="#E8F0E8"/>
<path id="Rectangle 6_7" d="M110.63 72.8661H134.16V91.6896H110.63V72.8661Z" fill="#E8F0E8"/>
<path id="Rectangle 6_8" d="M110.63 54.902H134.16V62.7451H110.63V54.902Z" fill="#E8F0E8"/>
<path id="Rectangle 6_9" d="M110.63 94.1177H134.16V112.941H110.63V94.1177Z" fill="#E8F0E8"/>
<path id="Rectangle 6_10" d="M137.697 72.8661H161.227V91.6896H137.697V72.8661Z" fill="#E8F0E8"/>
<path id="Rectangle 6_11" d="M137.697 54.902H161.227V62.7451H137.697V54.902Z" fill="#E8F0E8"/>
<path id="Rectangle 6_12" d="M137.697 94.1177H161.227V112.941H137.697V94.1177Z" fill="#E8F0E8"/>
<path id="Rectangle 6_13" d="M164.765 72.8661H188.294V91.6896H164.765V72.8661Z" fill="#E8F0E8"/>
<path id="Rectangle 6_14" d="M164.765 54.902H188.294V62.7451H164.765V54.902Z" fill="#E8F0E8"/>
<path id="Rectangle 6_15" d="M164.765 94.1177H188.294V112.941H164.765V94.1177Z" fill="#E8F0E8"/>
<g id="Group 3">
<ellipse id="Oval 2" cx="93.3698" cy="84.9812" rx="8.60504" ry="8.61076" fill="#C0DAC0"/>
<path id="Check - FontAwesome" fill-rule="evenodd" clip-rule="evenodd" d="M106.95 81.2056C106.95 81.5001 106.825 81.7945 106.6 82.0065L95.8575 92.1358C95.6326 92.3478 95.3204 92.4656 95.0081 92.4656C94.6958 92.4656 94.3835 92.3478 94.1587 92.1358L87.9381 86.2702C87.7132 86.0582 87.5883 85.7638 87.5883 85.4693C87.5883 85.1749 87.7132 84.8804 87.9381 84.6684L89.6369 83.0666C89.8617 82.8546 90.174 82.7368 90.4863 82.7368C90.7986 82.7368 91.1108 82.8546 91.3357 83.0666L95.0081 86.5411L103.202 78.8029C103.427 78.5909 103.739 78.4731 104.052 78.4731C104.364 78.4731 104.676 78.5909 104.901 78.8029L106.6 80.4047C106.825 80.6167 106.95 80.9112 106.95 81.2056Z" fill="#2DAA2A"/>
</g>
<g id="Group 3_2">
<ellipse id="Oval 2_2" cx="148.533" cy="82.8898" rx="8.60504" ry="8.61076" fill="#C0DAC0"/>
<path id="Check - FontAwesome_2" fill-rule="evenodd" clip-rule="evenodd" d="M162.113 79.1142C162.113 79.4086 161.988 79.7031 161.763 79.9151L151.021 90.0444C150.796 90.2564 150.484 90.3741 150.171 90.3741C149.859 90.3741 149.547 90.2564 149.322 90.0444L143.101 84.1788C142.877 83.9668 142.752 83.6724 142.752 83.3779C142.752 83.0834 142.877 82.789 143.101 82.577L144.8 80.9751C145.025 80.7631 145.337 80.6454 145.65 80.6454C145.962 80.6454 146.274 80.7631 146.499 80.9751L150.171 84.4497L158.366 76.7114C158.591 76.4994 158.903 76.3817 159.215 76.3817C159.527 76.3817 159.84 76.4994 160.064 76.7114L161.763 78.3133C161.988 78.5253 162.113 78.8197 162.113 79.1142Z" fill="#2DAA2A"/>
</g>
<g id="Group 3_3">
<ellipse id="Oval 2_3" cx="173.37" cy="103.805" rx="8.60504" ry="8.61076" fill="#C0DAC0"/>
<path id="Check - FontAwesome_3" fill-rule="evenodd" clip-rule="evenodd" d="M186.95 100.029C186.95 100.324 186.825 100.618 186.6 100.83L175.857 110.959C175.633 111.171 175.32 111.289 175.008 111.289C174.696 111.289 174.383 111.171 174.159 110.959L167.938 105.094C167.713 104.882 167.588 104.587 167.588 104.293C167.588 103.998 167.713 103.704 167.938 103.492L169.637 101.89C169.862 101.678 170.174 101.56 170.486 101.56C170.798 101.56 171.111 101.678 171.336 101.89L175.008 105.365L183.202 97.6264C183.427 97.4144 183.739 97.2966 184.052 97.2966C184.364 97.2966 184.676 97.4144 184.901 97.6264L186.6 99.2283C186.825 99.4403 186.95 99.7347 186.95 100.029Z" fill="#2DAA2A"/>
</g>
<g id="Group 3_4">
<ellipse id="Oval 2_4" cx="120.429" cy="103.805" rx="8.60504" ry="8.61076" fill="#C0DAC0"/>
<path id="Check - FontAwesome_4" fill-rule="evenodd" clip-rule="evenodd" d="M134.009 100.029C134.009 100.324 133.884 100.618 133.659 100.83L122.916 110.959C122.691 111.171 122.379 111.289 122.067 111.289C121.755 111.289 121.442 111.171 121.218 110.959L114.997 105.094C114.772 104.882 114.647 104.587 114.647 104.293C114.647 103.998 114.772 103.704 114.997 103.492L116.696 101.89C116.921 101.678 117.233 101.56 117.545 101.56C117.857 101.56 118.17 101.678 118.395 101.89L122.067 105.365L130.261 97.6264C130.486 97.4144 130.798 97.2966 131.111 97.2966C131.423 97.2966 131.735 97.4144 131.96 97.6264L133.659 99.2283C133.884 99.4403 134.009 99.7347 134.009 100.029Z" fill="#2DAA2A"/>
</g>
<g id="Group 3_5">
<ellipse id="Oval 2_5" cx="67.4874" cy="80.2754" rx="8.60504" ry="8.61076" fill="#C0DAC0"/>
<path id="Check - FontAwesome_5" fill-rule="evenodd" clip-rule="evenodd" d="M81.0673 76.4998C81.0673 76.7943 80.9424 77.0887 80.7175 77.3007L69.9751 87.43C69.7503 87.642 69.438 87.7598 69.1257 87.7598C68.8134 87.7598 68.5011 87.642 68.2763 87.43L62.0557 81.5644C61.8308 81.3524 61.7059 81.058 61.7059 80.7635C61.7059 80.4691 61.8308 80.1746 62.0557 79.9626L63.7545 78.3608C63.9793 78.1488 64.2916 78.031 64.6039 78.031C64.9162 78.031 65.2284 78.1488 65.4533 78.3608L69.1257 81.8353L77.3199 74.0971C77.5448 73.8851 77.857 73.7673 78.1693 73.7673C78.4816 73.7673 78.7939 73.8851 79.0187 74.0971L80.7175 75.6989C80.9424 75.9109 81.0673 76.2054 81.0673 76.4998Z" fill="#2DAA2A"/>
</g>
<g id="Group 3_6">
<ellipse id="Oval 2_6" cx="94.9384" cy="105.112" rx="8.60504" ry="8.61076" fill="#C0DAC0"/>
<path id="Check - FontAwesome_6" fill-rule="evenodd" clip-rule="evenodd" d="M108.518 101.336C108.518 101.631 108.393 101.925 108.168 102.137L97.426 112.267C97.2012 112.479 96.8889 112.596 96.5766 112.596C96.2643 112.596 95.9521 112.479 95.7272 112.267L89.5066 106.401C89.2818 106.189 89.1569 105.895 89.1569 105.6C89.1569 105.306 89.2818 105.011 89.5066 104.799L91.2054 103.197C91.4303 102.985 91.7425 102.868 92.0548 102.868C92.3671 102.868 92.6794 102.985 92.9042 103.197L96.5766 106.672L104.771 98.9336C104.996 98.7216 105.308 98.6038 105.62 98.6038C105.933 98.6038 106.245 98.7216 106.47 98.9336L108.168 100.535C108.393 100.747 108.518 101.042 108.518 101.336Z" fill="#2DAA2A"/>
</g>
</g>
<g id="pin">
<path id="location_on - material" fill-rule="evenodd" clip-rule="evenodd" d="M42.9272 108.526C43.6959 108.118 44.3077 107.546 44.7627 106.813C45.2178 106.079 45.4664 105.289 45.5086 104.441C45.5508 103.593 45.3681 102.786 44.9605 102.019C44.5529 101.253 43.9822 100.643 43.2485 100.19C42.5148 99.7374 41.7166 99.4945 40.854 99.4615C39.9913 99.4285 39.1757 99.6164 38.4071 100.025C37.6384 100.434 37.0334 101.001 36.5921 101.728C36.1508 102.454 35.9127 103.248 35.8778 104.109C35.8429 104.971 36.0292 105.785 36.4368 106.551C37.0628 107.729 38.0059 108.509 39.2662 108.892C40.5265 109.276 41.7468 109.154 42.9272 108.526ZM34.3237 92.3452C36.5198 91.1775 38.8213 90.6386 41.2283 90.7284C43.6079 90.8329 45.8133 91.504 47.8448 92.7417C49.8907 94.0069 51.496 95.7346 52.6607 97.925C53.5487 99.5951 54.1559 101.731 54.4825 104.331C54.7441 106.545 54.8113 109.056 54.684 111.863C54.5434 114.115 54.2883 116.516 53.9185 119.065C53.6694 120.849 53.3508 122.633 52.9628 124.42L52.4917 126.514L50.4921 125.734C48.7939 125.056 47.136 124.322 45.5184 123.532C43.1979 122.413 41.0648 121.282 39.1191 120.139C36.7208 118.675 34.6771 117.215 32.988 115.76C31.0144 114.035 29.5836 112.338 28.6956 110.667C27.5309 108.477 26.9963 106.18 27.0915 103.776C27.2013 101.4 27.8782 99.1965 29.1222 97.1653C30.3937 95.1196 32.1275 93.5129 34.3237 92.3452Z" fill="url(#paint0_linear)"/>
<g id="location_on - material_2">
<path fill-rule="evenodd" clip-rule="evenodd" d="M40.4845 107.787C41.2532 107.378 41.865 106.807 42.32 106.073C42.7751 105.339 43.0237 104.549 43.0659 103.701C43.1081 102.853 42.9254 102.046 42.5178 101.279C42.1102 100.513 41.5395 99.9031 40.8058 99.4504C40.0721 98.9976 39.2739 98.7547 38.4113 98.7217C37.5486 98.6887 36.733 98.8766 35.9644 99.2853C35.1957 99.694 34.5908 100.261 34.1495 100.988C33.7082 101.714 33.47 102.508 33.4351 103.369C33.4002 104.231 33.5865 105.045 33.9941 105.812C34.6201 106.989 35.5632 107.769 36.8235 108.153C38.0838 108.536 39.3041 108.414 40.4845 107.787ZM31.8809 91.6055C34.077 90.4378 36.3786 89.8988 38.7856 89.9887C41.1651 90.0931 43.3706 90.7642 45.402 92.002C47.448 93.2671 49.0533 94.9949 50.2179 97.1852C51.1059 98.8554 51.7132 100.991 52.0397 103.592C52.3013 105.806 52.3685 108.316 52.2413 111.123C52.1007 113.375 51.8455 115.776 51.4758 118.326C51.2267 120.109 50.9081 121.894 50.52 123.68L50.049 125.775L48.0494 124.994C46.3511 124.317 44.6932 123.583 43.0757 122.792C40.7552 121.673 38.6221 120.542 36.6763 119.399C34.278 117.935 32.2344 116.475 30.5453 115.02C28.5716 113.295 27.1408 111.598 26.2528 109.928C25.0882 107.737 24.5535 105.44 24.6487 103.037C24.7585 100.66 25.4354 98.4567 26.6795 96.4256C27.951 94.3798 29.6848 92.7732 31.8809 91.6055Z" fill="#E8F0E8"/>
<path d="M38.7856 89.9887L38.8053 89.5391L38.8024 89.539L38.7856 89.9887ZM45.402 92.002L45.6387 91.6192L45.6362 91.6177L45.402 92.002ZM52.0397 103.592L52.4866 103.539L52.4862 103.536L52.0397 103.592ZM52.2413 111.123L52.6905 111.151L52.6908 111.143L52.2413 111.123ZM51.4758 118.326L51.0304 118.261L51.0301 118.263L51.4758 118.326ZM50.52 123.68L50.959 123.779L50.9598 123.776L50.52 123.68ZM50.049 125.775L49.8853 126.194L50.3731 126.384L50.488 125.873L50.049 125.775ZM48.0494 124.994L47.8826 125.412L47.8857 125.413L48.0494 124.994ZM43.0757 122.792L43.2732 122.388L43.2711 122.387L43.0757 122.792ZM36.6763 119.399L36.4418 119.783L36.4484 119.787L36.6763 119.399ZM30.5453 115.02L30.2491 115.359L30.2516 115.361L30.5453 115.02ZM24.6487 103.037L24.1992 103.016L24.1991 103.019L24.6487 103.037ZM26.6795 96.4256L26.2973 96.188L26.2958 96.1906L26.6795 96.4256ZM40.6958 108.184C41.534 107.738 42.2052 107.112 42.7025 106.31L41.9376 105.836C41.5249 106.501 40.9724 107.017 40.2733 107.389L40.6958 108.184ZM42.7025 106.31C43.1969 105.513 43.4693 104.649 43.5153 103.723L42.6165 103.679C42.5781 104.449 42.3532 105.166 41.9376 105.836L42.7025 106.31ZM43.5153 103.723C43.5617 102.793 43.36 101.905 42.9151 101.068L42.1205 101.491C42.4909 102.187 42.6545 102.914 42.6165 103.679L43.5153 103.723ZM42.9151 101.068C42.4703 100.232 41.8443 99.5624 41.0421 99.0674L40.5695 99.8333C41.2348 100.244 41.7501 100.794 42.1205 101.491L42.9151 101.068ZM41.0421 99.0674C40.2423 98.5738 39.3686 98.308 38.4285 98.2721L38.3941 99.1714C39.1793 99.2015 39.9019 99.4214 40.5695 99.8333L41.0421 99.0674ZM38.4285 98.2721C37.4857 98.236 36.5913 98.4423 35.7531 98.888L36.1756 99.6826C36.8747 99.3109 37.6116 99.1415 38.3941 99.1714L38.4285 98.2721ZM35.7531 98.888C34.9149 99.3337 34.2493 99.9569 33.7649 100.754L34.534 101.221C34.9323 100.566 35.4766 100.054 36.1756 99.6826L35.7531 98.888ZM33.7649 100.754C33.2834 101.547 33.0235 102.415 32.9855 103.351L33.8847 103.388C33.9166 102.601 34.1329 101.882 34.534 101.221L33.7649 100.754ZM32.9855 103.351C32.9473 104.293 33.152 105.186 33.5968 106.023L34.3915 105.6C34.021 104.904 33.8531 104.169 33.8847 103.388L32.9855 103.351ZM33.5968 106.023C34.2782 107.304 35.3163 108.164 36.6925 108.583L36.9545 107.722C35.8102 107.374 34.9621 106.673 34.3915 105.6L33.5968 106.023ZM36.6925 108.583C38.0687 109.002 39.412 108.866 40.6958 108.184L40.2733 107.389C39.1963 107.962 38.0989 108.07 36.9545 107.722L36.6925 108.583ZM32.0922 92.0028C34.2206 90.8711 36.4437 90.3516 38.7688 90.4384L38.8024 89.539C36.3134 89.4461 33.9334 90.0044 31.6696 91.2081L32.0922 92.0028ZM38.7658 90.4382C41.0697 90.5394 43.2013 91.188 45.1679 92.3863L45.6362 91.6177C43.5398 90.3404 41.2606 89.6469 38.8053 89.5391L38.7658 90.4382ZM45.1653 92.3847C47.1414 93.6066 48.6921 95.2742 49.8206 97.3965L50.6152 96.974C49.4144 94.7155 47.7546 92.9277 45.6387 91.6193L45.1653 92.3847ZM49.8206 97.3965C50.6751 99.0036 51.2711 101.082 51.5932 103.648L52.4862 103.536C52.1553 100.9 51.5368 98.7071 50.6152 96.974L49.8206 97.3965ZM51.5928 103.644C51.851 105.829 51.9182 108.314 51.7917 111.103L52.6908 111.143C52.8189 108.318 52.7517 105.782 52.4866 103.539L51.5928 103.644ZM51.7921 111.095C51.6524 113.333 51.3987 115.722 51.0304 118.261L51.9211 118.39C52.2924 115.83 52.549 113.417 52.6904 111.151L51.7921 111.095ZM51.0301 118.263C50.7826 120.035 50.466 121.809 50.0803 123.585L50.9598 123.776C51.3502 121.978 51.6707 120.182 51.9215 118.388L51.0301 118.263ZM50.081 123.582L49.6099 125.676L50.488 125.873L50.959 123.779L50.081 123.582ZM50.2126 125.355L48.213 124.575L47.8857 125.413L49.8853 126.194L50.2126 125.355ZM48.2161 124.576C46.5281 123.903 44.8805 123.173 43.2732 122.388L42.8781 123.196C44.5059 123.992 46.1741 124.73 47.8827 125.412L48.2161 124.576ZM43.2711 122.387C40.9602 121.272 38.8381 120.147 36.9042 119.011L36.4484 119.787C38.4061 120.937 40.5501 122.074 42.8802 123.197L43.2711 122.387ZM36.9108 119.015C34.5283 117.56 32.5055 116.115 30.8389 114.68L30.2516 115.361C31.9633 116.836 34.0278 118.309 36.4418 119.783L36.9108 119.015ZM30.8414 114.682C28.8942 112.98 27.5047 111.324 26.6501 109.716L25.8555 110.139C26.777 111.872 28.2491 113.611 30.2491 115.359L30.8414 114.682ZM26.6501 109.716C25.5217 107.594 25.0064 105.376 25.0984 103.055L24.1991 103.019C24.1006 105.505 24.6547 107.881 25.8555 110.139L26.6501 109.716ZM25.0983 103.057C25.2045 100.757 25.8588 98.6271 27.0632 96.6606L26.2958 96.1906C25.0121 98.2863 24.3125 100.564 24.1992 103.016L25.0983 103.057ZM27.0617 96.6631C28.2899 94.6871 29.9637 93.1345 32.0922 92.0028L31.6696 91.2081C29.4058 92.4118 27.6121 94.0726 26.2973 96.188L27.0617 96.6631Z" fill="#2DAA2A"/>
</g>
</g>
<g id="pic">
<path id="Rectangle 4" d="M159.277 66.5328C159.534 65.5726 160.521 65.0027 161.482 65.26L217.289 80.2135C218.249 80.4708 218.819 81.4578 218.562 82.418L204.591 134.557C204.334 135.517 203.347 136.087 202.387 135.829L146.579 120.876C145.619 120.619 145.049 119.632 145.307 118.671L159.277 66.5328Z" fill="url(#paint1_linear)"/>
<path id="Rectangle 4_2" d="M163.749 62.6801C162.549 62.3585 161.315 63.0708 160.994 64.2711L147.023 116.41C146.702 117.61 147.414 118.844 148.614 119.165L204.421 134.119C205.622 134.44 206.855 133.728 207.177 132.528L221.148 80.3892C221.469 79.1889 220.757 77.9552 219.557 77.6336L163.749 62.6801Z" fill="white" stroke="#E8F0E8" stroke-width="0.9" stroke-linecap="round" stroke-linejoin="round"/>
<path id="Rectangle 4_3" d="M165.961 68.3955L215.655 81.7111L206.807 114.733L157.113 101.417L165.961 68.3955Z" fill="#E8F0E8"/>
<circle id="Oval 4" cx="174.454" cy="82.4568" r="5.29412" transform="rotate(15 174.454 82.4568)" fill="#C0DAC0"/>
<path id="Rectangle 4_4" d="M155.948 105.762L205.643 119.078L204.711 122.554L155.017 109.238L155.948 105.762Z" fill="#C0DAC0"/>
<path id="Rectangle 4_5" d="M154.086 112.714L182.856 120.423L181.925 123.899L153.154 116.19L154.086 112.714Z" fill="#C0DAC0"/>
<path id="Path 4" d="M157.133 101.414L180.171 90.7193L189.86 103.472L201.836 99.1821L208.334 109.122L206.794 114.759L157.133 101.414Z" fill="#C0DAC0"/>
</g>
</g>
</g>
<defs>
<linearGradient id="paint0_linear" x1="-2.15744" y1="91.619" x2="42.8178" y2="136.261" gradientUnits="userSpaceOnUse">
<stop stop-color="white" stop-opacity="0.01"/>
<stop offset="1" stop-color="#E1F2F1"/>
</linearGradient>
<linearGradient id="paint1_linear" x1="141.478" y1="62.5585" x2="149.635" y2="152.876" gradientUnits="userSpaceOnUse">
<stop stop-color="white" stop-opacity="0.01"/>
<stop offset="1" stop-color="#20AAA3"/>
</linearGradient>
</defs>
</svg>
