<?xml version="1.0" encoding="UTF-8"?>
<svg width="43px" height="43px" viewBox="0 0 43 43" version="1.1" xmlns="http://www.w3.org/2000/svg" xmlns:xlink="http://www.w3.org/1999/xlink">
    <!-- Generator: Sketch 48.1 (47250) - http://www.bohemiancoding.com/sketch -->
    <title>icon-youtube</title>
    <desc>Created with Sketch.</desc>
    <defs>
        <polygon id="path-1" points="0 42.891552 0 0.100908924 42.9031934 0.100908924 42.9031934 42.891552"></polygon>
    </defs>
    <g id="Desktop-HD" stroke="none" stroke-width="1" fill="none" fill-rule="evenodd" transform="translate(-732.000000, -1196.000000)">
        <g id="Group" transform="translate(548.000000, 1196.000000)">
            <g id="icon-youtube" transform="translate(184.000000, 0.000000)">
                <g id="Group-3">
                    <mask id="mask-2" fill="white">
                        <use xlink:href="#path-1"></use>
                    </mask>
                    <g id="Clip-2"></g>
                    <path d="M42.9031934,21.4965126 C42.9031934,33.3124837 33.2989171,42.891552 21.4518513,42.891552 C9.60421974,42.891552 -5.65789474e-05,33.3124837 -5.65789474e-05,21.4965126 C-5.65789474e-05,9.67997717 9.60421974,0.100908924 21.4518513,0.100908924 C33.2989171,0.100908924 42.9031934,9.67997717 42.9031934,21.4965126" id="Fill-1" fill="#D42428" mask="url(#mask-2)"></path>
                </g>
                <path d="M19.308842,26.0362051 L19.308842,17.742777 L25.5650002,21.890006 L19.308842,26.0362051 Z M32.4528302,17.8965858 C32.4528302,16.0775454 30.9872012,14.6037736 29.1792696,14.6037736 L13.8203888,14.6037736 C12.0127988,14.6037736 10.5471698,16.0780031 10.5471698,17.8965858 L10.5471698,26.7259413 C10.5471698,28.5449817 12.0127988,30.0188679 13.8203888,30.0188679 L29.1788143,30.0188679 C30.9872012,30.0188679 32.4523748,28.5445239 32.4523748,26.7259413 L32.4523748,17.8965858 L32.4528302,17.8965858 Z" id="Fill-4" fill="#FFFFFF"></path>
            </g>
        </g>
    </g>
</svg>