<svg xmlns="http://www.w3.org/2000/svg" width="48" height="48">
  <defs>
    <linearGradient id="a" x1="-3.32118248%" x2="108.496094%" y1="54.8787435%" y2="54.8787415%">
      <stop offset="0%" stop-color="#9623AE"/>
      <stop offset="49.4774082%" stop-color="#E7B40B"/>
      <stop offset="100%" stop-color="#FF2323"/>
    </linearGradient>
    <linearGradient id="b" x1="-3.32118248%" x2="288.961589%" y1="54.8787435%" y2="54.8787415%">
      <stop offset="0%" stop-color="#9623AE"/>
      <stop offset="2.8633904%" stop-color="#A03599"/>
      <stop offset="22.2911021%" stop-color="#BA6564"/>
      <stop offset="45.4531132%" stop-color="#EC9510"/>
      <stop offset="49.4774082%" stop-color="#E7B40B"/>
      <stop offset="59.5853702%" stop-color="#EF8113"/>
      <stop offset="70.2211068%" stop-color="#F55F19"/>
      <stop offset="100%" stop-color="#FF2323"/>
    </linearGradient>
  </defs>
  <g fill="none" fill-rule="evenodd">
    <circle cx="24.5" cy="24.5" r="19.5" fill="#FFF"/>
    <path fill="url(#a)" d="M31.5724474 18.1789667c-.9582204 0-1.7364036-.7775007-1.7364036-1.7356927 0-.9562137.7781832-1.7363522 1.7364036-1.7363522.9555825 0 1.7364035.7801385 1.7364035 1.7363522 0 .958192-.780821 1.7356927-1.7364035 1.7356927m-7.5740961 13.1561816c-4.0439144 0-7.3366843-3.2926725-7.3366843-7.3364672 0-4.0444542 3.2927699-7.3364672 7.3366843-7.3364672 4.0472118 0 7.3373438 3.292013 7.3373438 7.3364672 0 4.0437947-3.2927699 7.3364672-7.3373438 7.3364672m7.0590444-18.4780054H16.9426043c-2.2540932 0-4.0854614 1.8313141-4.0854614 4.0853406v14.1117358c0 2.2540265 1.8313682 4.0886378 4.0854614 4.0886378h14.1147914c2.2514552 0 4.0854614-1.8346113 4.0854614-4.0886378V16.9424835c0-2.2540265-1.8340062-4.0853406-4.0854614-4.0853406"/>
    <path fill="url(#b)" d="M23.9986657 19.7142857c-2.3610123 0-4.28438 1.9208487-4.28438 4.2847135 0 2.3638648 1.9233677 4.2867151 4.28438 4.2867151 2.3636809 0 4.2870486-1.9228503 4.2870486-4.2867151 0-2.361196-1.9233677-4.2847135-4.2870486-4.2847135"/>
    <path fill="url(#a)" d="M38.4374347 31.2180828c0 4.0189964-3.2668477 7.2845981-7.2830583 7.2845981H16.847629c-4.0162106 0-7.28506372-3.2656017-7.28506372-7.2845981V16.9129424c0-4.015654 3.26885312-7.28526668 7.28506372-7.28526668h14.3067474c4.0162106 0 7.2830583 3.26961268 7.2830583 7.28526668v14.3051404zM23.9996658 0C10.7451013 0 0 10.7454006 0 24.0003342 0 37.2552679 10.7451013 48 23.9996658 48 37.2542302 48 48 37.2552679 48 24.0003342 48 10.7454006 37.2542302 0 23.9996658 0z"/>
  </g>
</svg>
