<svg width="80" height="82" viewBox="0 0 80 82" fill="none" xmlns="http://www.w3.org/2000/svg">
<path opacity="0.4" d="M70 0.997986H10C7.3486 1.00047 4.8065 2.05483 2.93167 3.92966C1.05685 5.80449 0.0024822 8.34658 0 10.998V55.998C0.0024822 58.6494 1.05685 61.1915 2.93167 63.0663C4.8065 64.9411 7.3486 65.9955 10 65.998H25V79.123C24.9993 79.4699 25.0948 79.8102 25.2759 80.106C25.457 80.4019 25.7167 80.6417 26.026 80.7988C26.3353 80.9559 26.6821 81.0241 27.0278 80.9958C27.3736 80.9675 27.7047 80.8439 27.9844 80.6386L47.5 65.998H70C72.6514 65.9955 75.1935 64.9411 77.0683 63.0663C78.9432 61.1915 79.9975 58.6494 80 55.998V10.998C79.9975 8.34658 78.9432 5.80449 77.0683 3.92966C75.1935 2.05483 72.6514 1.00047 70 0.997986V0.997986ZM45 42.248C45 42.5795 44.8683 42.8974 44.6339 43.1319C44.3995 43.3663 44.0815 43.498 43.75 43.498H21.25C20.9185 43.498 20.6005 43.3663 20.3661 43.1319C20.1317 42.8974 20 42.5795 20 42.248V39.748C20 39.4165 20.1317 39.0985 20.3661 38.8641C20.6005 38.6297 20.9185 38.498 21.25 38.498H43.75C44.0815 38.498 44.3995 38.6297 44.6339 38.8641C44.8683 39.0985 45 39.4165 45 39.748V42.248ZM60 27.248C60 27.5795 59.8683 27.8974 59.6339 28.1319C59.3995 28.3663 59.0815 28.498 58.75 28.498H21.25C20.9185 28.498 20.6005 28.3663 20.3661 28.1319C20.1317 27.8974 20 27.5795 20 27.248V24.748C20 24.4165 20.1317 24.0985 20.3661 23.8641C20.6005 23.6297 20.9185 23.498 21.25 23.498H58.75C59.0815 23.498 59.3995 23.6297 59.6339 23.8641C59.8683 24.0985 60 24.4165 60 24.748V27.248Z" fill="#FF5547"/>
<path d="M43.75 38.498H21.25C20.9185 38.498 20.6005 38.6297 20.3661 38.8641C20.1317 39.0985 20 39.4165 20 39.748V42.248C20 42.5795 20.1317 42.8974 20.3661 43.1319C20.6005 43.3663 20.9185 43.498 21.25 43.498H43.75C44.0815 43.498 44.3995 43.3663 44.6339 43.1319C44.8683 42.8974 45 42.5795 45 42.248V39.748C45 39.4165 44.8683 39.0985 44.6339 38.8641C44.3995 38.6297 44.0815 38.498 43.75 38.498ZM58.75 23.498H21.25C20.9185 23.498 20.6005 23.6297 20.3661 23.8641C20.1317 24.0985 20 24.4165 20 24.748V27.248C20 27.5795 20.1317 27.8974 20.3661 28.1319C20.6005 28.3663 20.9185 28.498 21.25 28.498H58.75C59.0815 28.498 59.3995 28.3663 59.6339 28.1319C59.8683 27.8974 60 27.5795 60 27.248V24.748C60 24.4165 59.8683 24.0985 59.6339 23.8641C59.3995 23.6297 59.0815 23.498 58.75 23.498Z" fill="#FF5547"/>
</svg>
