<svg width="80" height="92" viewBox="0 0 80 92" fill="none" xmlns="http://www.w3.org/2000/svg">
<path opacity="0.4" d="M57.1429 47.4284V28.8569H32.8572C31.7205 28.8569 30.6305 29.3085 29.8267 30.1122C29.023 30.9159 28.5715 32.006 28.5715 33.1427V87.4284C28.5715 88.565 29.023 89.6551 29.8267 90.4588C30.6305 91.2626 31.7205 91.7141 32.8572 91.7141H75.7143C76.851 91.7141 77.9411 91.2626 78.7448 90.4588C79.5485 89.6551 80 88.565 80 87.4284V51.7141H61.4286C60.293 51.7108 59.2048 51.2582 58.4018 50.4552C57.5988 49.6522 57.1462 48.564 57.1429 47.4284ZM78.75 41.8927L66.9643 30.1069C66.5653 29.7093 66.0918 29.3942 65.5709 29.1797C65.05 28.9653 64.4919 28.8556 63.9286 28.8569H62.8572V45.9998H80V44.9177C80 43.7837 79.5505 42.6959 78.75 41.8927Z" fill="#2DAA2A"/>
<path d="M52.8571 5.99987H38.4625C37.4608 4.26277 36.0192 2.82012 34.2829 1.81705C32.5466 0.813986 30.5767 0.285889 28.5714 0.285889C26.5662 0.285889 24.5963 0.813986 22.86 1.81705C21.1236 2.82012 19.6821 4.26277 18.6804 5.99987H4.28571C3.14907 5.99987 2.05898 6.4514 1.25526 7.25513C0.451529 8.05886 0 9.14894 0 10.2856L0 70.2856C0 71.4222 0.451529 72.5123 1.25526 73.316C2.05898 74.1198 3.14907 74.5713 4.28571 74.5713H22.8571V33.1427C22.86 30.4914 23.9145 27.9495 25.7892 26.0748C27.664 24.2 30.2058 23.1456 32.8571 23.1427H57.1429V10.2856C57.1429 9.14894 56.6913 8.05886 55.8876 7.25513C55.0839 6.4514 53.9938 5.99987 52.8571 5.99987ZM28.5714 15.9999C27.7238 15.9999 26.8952 15.7485 26.1904 15.2776C25.4856 14.8067 24.9363 14.1373 24.6119 13.3542C24.2876 12.5711 24.2027 11.7094 24.3681 10.8781C24.5334 10.0467 24.9416 9.28307 25.541 8.6837C26.1403 8.08433 26.904 7.67616 27.7353 7.51079C28.5667 7.34543 29.4284 7.4303 30.2115 7.75467C30.9946 8.07905 31.664 8.62836 32.1349 9.33314C32.6058 10.0379 32.8571 10.8665 32.8571 11.7142C32.8571 12.8508 32.4056 13.9409 31.6019 14.7446C30.7982 15.5483 29.7081 15.9999 28.5714 15.9999Z" fill="#2DAA2A"/>
</svg>
