<svg width="175" height="160" viewBox="0 0 175 160" fill="none" xmlns="http://www.w3.org/2000/svg">
<g id="library">
<g id="step1">
<circle id="Oval 3" cx="86.895" cy="80" r="80" fill="#FFDACC"/>
</g>
<g id="undraw_collecting_fjjl">
<g id="Combined Shape">
<mask id="path-2-outside-1" maskUnits="userSpaceOnUse" x="-0.202637" y="50.084" width="146" height="108" fill="black">
<rect fill="white" x="-0.202637" y="50.084" width="146" height="108"/>
<path fill-rule="evenodd" clip-rule="evenodd" d="M88.0174 75.0936L32.3812 88.5091L87.9256 103.159L143.872 88.2046V140.702C143.872 141.611 143.258 142.406 142.379 142.637L87.5481 157.005L32.7291 142.925C31.8449 142.698 31.2267 141.901 31.2267 140.988V88.3004L2.79736 65.6468L58.4101 51.1488C59.0398 50.9846 59.7099 51.137 60.2066 51.5574L88.0174 75.0936Z"/>
</mask>
<path fill-rule="evenodd" clip-rule="evenodd" d="M88.0174 75.0936L32.3812 88.5091L87.9256 103.159L143.872 88.2046V140.702C143.872 141.611 143.258 142.406 142.379 142.637L87.5481 157.005L32.7291 142.925C31.8449 142.698 31.2267 141.901 31.2267 140.988V88.3004L2.79736 65.6468L58.4101 51.1488C59.0398 50.9846 59.7099 51.137 60.2066 51.5574L88.0174 75.0936Z" fill="#FFDACC"/>
<path d="M32.3812 88.5091L32.1468 87.537L32.1261 89.4761L32.3812 88.5091ZM88.0174 75.0936L88.2518 76.0658L90.168 75.6037L88.6634 74.3303L88.0174 75.0936ZM87.9256 103.159L87.6706 104.126L87.9273 104.194L88.1839 104.126L87.9256 103.159ZM143.872 88.2046H144.872V86.9022L143.614 87.2385L143.872 88.2046ZM142.379 142.637L142.125 141.669L142.379 142.637ZM87.5481 157.005L87.2993 157.974L87.5506 158.038L87.8016 157.972L87.5481 157.005ZM32.7291 142.925L32.9779 141.956H32.9779L32.7291 142.925ZM31.2267 88.3004H32.2267V87.8186L31.8499 87.5183L31.2267 88.3004ZM2.79736 65.6468L2.5451 64.6791L0.61108 65.1833L2.17418 66.4288L2.79736 65.6468ZM58.4101 51.1488L58.1578 50.1811L58.4101 51.1488ZM60.2066 51.5574L60.8526 50.7941V50.7941L60.2066 51.5574ZM32.6156 89.4813L88.2518 76.0658L87.7829 74.1215L32.1468 87.537L32.6156 89.4813ZM88.1807 102.193L32.6362 87.5422L32.1261 89.4761L87.6706 104.126L88.1807 102.193ZM88.1839 104.126L144.13 89.1707L143.614 87.2385L87.6674 102.193L88.1839 104.126ZM142.872 88.2046V140.702H144.872V88.2046H142.872ZM142.872 140.702C142.872 141.157 142.565 141.554 142.125 141.669L142.632 143.604C143.952 143.258 144.872 142.066 144.872 140.702H142.872ZM142.125 141.669L87.2946 156.038L87.8016 157.972L142.632 143.604L142.125 141.669ZM32.4803 143.893L87.2993 157.974L87.7968 156.037L32.9779 141.956L32.4803 143.893ZM30.2267 140.988C30.2267 142.357 31.154 143.553 32.4803 143.893L32.9779 141.956C32.5358 141.843 32.2267 141.444 32.2267 140.988H30.2267ZM30.2267 88.3004V140.988H32.2267V88.3004H30.2267ZM2.17418 66.4288L30.6035 89.0825L31.8499 87.5183L3.42055 64.8647L2.17418 66.4288ZM58.1578 50.1811L2.5451 64.6791L3.04963 66.6144L58.6623 52.1164L58.1578 50.1811ZM60.8526 50.7941C60.1076 50.1635 59.1023 49.9349 58.1578 50.1811L58.6623 52.1164C58.9772 52.0343 59.3123 52.1106 59.5606 52.3207L60.8526 50.7941ZM88.6634 74.3303L60.8526 50.7941L59.5606 52.3207L87.3714 75.857L88.6634 74.3303Z" fill="#FFAA99" mask="url(#path-2-outside-1)"/>
</g>
<g id="Group" opacity="0.7">
<path id="Path" d="M117.663 49.7661L173.987 64.2324L144.324 88.0233L88 74.4426L117.663 49.7661Z" fill="#FFDACC" stroke="#FF5547" stroke-linejoin="round"/>
<path id="Path_2" d="M1 65.7031L30.1473 88.928L86.9591 75.2322L58.1074 50.8165L1 65.7031Z" fill="#FFAA99"/>
<g id="Group_2" opacity="0.05">
<path id="Path_3" d="M1 65.7031L30.1473 88.928L86.9591 75.2322L58.1074 50.8165L1 65.7031Z" fill="#FFAA99"/>
</g>
<rect id="Rectangle" x="45.3369" y="63.143" width="41.1952" height="38.0035" rx="0.864" fill="#FFAA99"/>
<rect id="Rectangle_2" x="57.542" y="69.4025" width="27.6175" height="0.695244" rx="0.1536" fill="#FFAA99"/>
<rect id="Rectangle_3" x="57.542" y="71.4883" width="27.6175" height="0.695244" rx="0.1536" fill="#FFAA99"/>
<rect id="Rectangle_4" x="47.8169" y="79.0631" width="37.3427" height="0.695244" rx="0.1536" fill="#FFAA99"/>
<rect id="Rectangle_5" x="47.8169" y="81.1489" width="37.3427" height="0.695244" rx="0.1536" fill="#FFAA99"/>
<rect id="Rectangle_6" x="47.8169" y="83.9298" width="37.3427" height="0.695244" rx="0.1536" fill="#FFAA99"/>
<rect id="Rectangle_7" x="47.8169" y="86.0179" width="21.5361" height="0.695244" rx="0.1536" fill="#FFAA99"/>
<rect id="Rectangle_8" x="47.8169" y="88.7918" width="37.3427" height="0.695244" rx="0.1536" fill="#FFAA99"/>
<rect id="Rectangle_9" x="47.8169" y="90.8776" width="37.3427" height="0.695244" rx="0.1536" fill="#FFAA99"/>
<rect id="Rectangle_10" x="47.8169" y="93.6609" width="37.3427" height="0.695244" rx="0.1536" fill="#FFAA99"/>
<rect id="Rectangle_11" x="47.8169" y="95.7466" width="21.5361" height="0.695244" rx="0.1536" fill="#FFAA99"/>
<g id="Group_3" opacity="0.5">
<rect id="Rectangle_12" x="51.186" y="71.8406" width="42.1666" height="38.9477" rx="0.864" fill="#FFDACC"/>
</g>
<rect id="Rectangle_13" x="51.6997" y="72.1436" width="41.1952" height="38.0035" rx="0.864" fill="#FFAA99"/>
<rect id="Rectangle_14" x="63.9072" y="78.4031" width="27.6175" height="0.695244" rx="0.1536" fill="#FFAA99"/>
<rect id="Rectangle_15" x="63.9072" y="80.4888" width="27.6175" height="0.695244" rx="0.1536" fill="#FFAA99"/>
<rect id="Rectangle_16" x="54.1797" y="88.0613" width="37.3427" height="0.695244" rx="0.1536" fill="#FFAA99"/>
<rect id="Rectangle_17" x="54.1797" y="90.1494" width="37.3427" height="0.695244" rx="0.1536" fill="#FFAA99"/>
<rect id="Rectangle_18" x="54.1797" y="92.9304" width="37.3427" height="0.695244" rx="0.1536" fill="#FFAA99"/>
<rect id="Rectangle_19" x="54.1797" y="95.0162" width="21.5361" height="0.695244" rx="0.1536" fill="#FFAA99"/>
<rect id="Rectangle_20" x="54.1797" y="97.7924" width="37.3427" height="0.695244" rx="0.1536" fill="#FFAA99"/>
<rect id="Rectangle_21" x="54.1797" y="99.8782" width="37.3427" height="0.695244" rx="0.1536" fill="#FFAA99"/>
<rect id="Rectangle_22" x="54.1797" y="102.661" width="37.3427" height="0.695244" rx="0.1536" fill="#FFAA99"/>
<rect id="Rectangle_23" x="54.1797" y="104.747" width="21.5361" height="0.695244" rx="0.1536" fill="#FFAA99"/>
<g id="Group_4" opacity="0.5">
<rect id="Rectangle_24" x="75.7065" y="76.8811" width="36.5356" height="42.9736" fill="#FFDACC"/>
</g>
<g id="Group_5" opacity="0.5">
<path id="Shape" fill-rule="evenodd" clip-rule="evenodd" d="M96.0342 83.1077V84.1459H98.6761V89.2451H89.6196V84.1459H92.2685V83.1077H96.0342ZM95.5533 83.4812H92.7378V84.1412H95.5533V83.4812Z" fill="#FFDACC"/>
</g>
<rect id="Rectangle_25" x="90.002" y="84.3174" width="8.2916" height="4.66941" fill="#FFAA99"/>
<path id="Path_4" d="M92.4214 83.3661V84.5781H92.8531V83.7137H95.4433V84.5781H95.875V83.3661H92.4214Z" fill="#FFAA99"/>
<rect id="Rectangle_26" x="82.0132" y="95.7067" width="24.3563" height="1.03817" fill="#FFAA99"/>
<rect id="Rectangle_27" x="82.0132" y="102.537" width="24.3563" height="1.03817" fill="#FFAA99"/>
<rect id="Rectangle_28" x="82.0132" y="104.353" width="24.3563" height="1.03817" fill="#FFAA99"/>
<rect id="Rectangle_29" x="82.0132" y="100.721" width="10.2789" height="1.03817" fill="#FFAA99"/>
<g id="Group_6" opacity="0.6">
<rect id="Rectangle_30" x="98.6831" y="100.721" width="7.68627" height="1.03817" fill="#FFAA99"/>
</g>
<rect id="Rectangle_31" x="117.42" y="93.3321" width="9.98793" height="0.789196" fill="#FFAA99"/>
<rect id="Rectangle_32" x="74.5708" y="33.4236" width="21.1607" height="17.2167" fill="#FFAA99"/>
<g id="Group_7" opacity="0.5">
<rect id="Rectangle_33" x="106.233" y="46.49" width="26.9066" height="22.1233" fill="#FFDACC"/>
</g>
<rect id="Rectangle_34" x="108.636" y="53.3931" width="22.0476" height="2.77158" fill="#FFAA99"/>
<rect id="Rectangle_35" x="109.786" y="54.335" width="6.26914" height="0.836171" fill="#FFAA99"/>
<g id="Group_8" opacity="0.1">
<path id="Path_5" d="M29.4058 129.87L61.2301 137.91L86.8088 117.067V104.263L29.9994 89.9709L29.4058 129.87Z" fill="#FFAA99"/>
</g>
<g id="Group_9" opacity="0.1">
<path id="Path_6" d="M144.214 129.87L112.387 137.91L86.8086 117.067V104.263L143.618 89.9709L144.214 129.87Z" fill="#FFAA99"/>
</g>
</g>
<path id="Path_7" d="M87.5479 74.6239L87.5479 157.005L143.872 142.245V88.2046L87.5479 74.6239Z" fill="#FF5547"/>
<path id="Path_8" d="M87.548 74.6239V157.005L31.2266 142.539L31.2266 88.2046L87.548 74.6239Z" fill="#FF5547"/>
<path id="Path_9" d="M31.696 88.6744L88.0174 75.0937L60.2066 51.5575C59.7099 51.1371 59.0398 50.9847 58.4101 51.1488L2.79736 65.6468L31.696 88.6744Z" fill="#FFDACC" stroke="#FF5547"/>
<g id="Group_10" opacity="0.5">
<rect id="Rectangle_36" x="45.7734" y="62.3397" width="41.8052" height="38.6142" rx="0.864" fill="#FFDACC"/>
</g>
<rect id="Rectangle_37" x="46.2847" y="62.6404" width="40.8409" height="37.677" rx="0.864" fill="#F5F5F5"/>
<rect id="Rectangle_38" x="49.4312" y="68.8458" width="6.88855" height="6.20552" rx="0.864" fill="#FF5547"/>
<rect id="Rectangle_39" x="58.3867" y="68.8458" width="27.3806" height="0.690546" rx="0.1536" fill="#FF5547"/>
<rect id="Rectangle_40" x="48.7437" y="78.4219" width="37.0236" height="0.690546" rx="0.1536" fill="#FF5547"/>
<rect id="Rectangle_41" x="48.7437" y="80.4912" width="37.0236" height="0.690546" rx="0.1536" fill="#FF5547"/>
<rect id="Rectangle_42" x="48.7437" y="83.2487" width="37.0236" height="0.690546" rx="0.1536" fill="#FF5547"/>
<rect id="Rectangle_43" x="48.7437" y="85.318" width="21.3531" height="0.690546" rx="0.1536" fill="#FF5547"/>
<rect id="Rectangle_44" x="48.7437" y="88.0684" width="37.0236" height="0.690546" rx="0.1536" fill="#FF5547"/>
<rect id="Rectangle_45" x="48.7437" y="90.1377" width="37.0236" height="0.690546" rx="0.1536" fill="#FF5547"/>
<rect id="Rectangle_46" x="48.7437" y="92.8952" width="37.0236" height="0.690546" rx="0.1536" fill="#FF5547"/>
<rect id="Rectangle_47" x="48.7437" y="94.9645" width="21.3531" height="0.690546" rx="0.1536" fill="#FF5547"/>
<rect id="Rectangle_48" x="52.5938" y="71.5634" width="40.8409" height="37.677" rx="0.864" fill="white"/>
<rect id="Rectangle_49" x="55.7397" y="77.769" width="6.88855" height="7.04639" rx="0.864" fill="#FF5547"/>
<rect id="Rectangle_50" x="64.6958" y="77.769" width="27.3806" height="0.690546" rx="0.1536" fill="#FF5547"/>
<rect id="Rectangle_51" x="64.6958" y="77.8323" width="27.3806" height="4.69759" rx="0.1536" fill="#FF5547"/>
<rect id="Rectangle_52" x="55.0527" y="87.345" width="37.0236" height="0.690546" rx="0.1536" fill="#FF5547"/>
<rect id="Rectangle_53" x="55.0527" y="89.4143" width="37.0236" height="0.690546" rx="0.1536" fill="#FF5547"/>
<rect id="Rectangle_54" x="55.0527" y="92.1718" width="37.0236" height="0.690546" rx="0.1536" fill="#FF5547"/>
<rect id="Rectangle_55" x="55.0527" y="94.2411" width="21.3531" height="0.690546" rx="0.1536" fill="#FF5547"/>
<rect id="Rectangle_56" x="55.0527" y="96.9915" width="37.0236" height="0.690546" rx="0.1536" fill="#FF5547"/>
<rect id="Rectangle_57" x="55.0527" y="99.0608" width="37.0236" height="0.690546" rx="0.1536" fill="#FF5547"/>
<rect id="Rectangle_58" x="55.0527" y="101.818" width="37.0236" height="0.690546" rx="0.1536" fill="#FF5547"/>
<rect id="Rectangle_59" x="55.0527" y="103.888" width="21.3531" height="0.690546" rx="0.1536" fill="#FF5547"/>
<rect id="Rectangle_60" x="77.5083" y="76.9468" width="34.3395" height="40.9771" fill="white"/>
<rect id="Rectangle_61" x="86.4775" y="81.251" width="16.4013" height="9.39518" fill="#FF5547"/>
<path id="Path_10" d="M92.9653 82.6897V83.8899H93.3923V83.0326H95.9615V83.8899H96.3908V82.6897H92.9653Z" fill="#FF5547"/>
<rect id="Rectangle_62" x="82.647" y="94.2645" width="24.1475" height="2.3488" fill="#FF5547"/>
<rect id="Rectangle_63" x="82.647" y="101.696" width="24.1475" height="1.02877" fill="#FF5547"/>
<rect id="Rectangle_64" x="82.647" y="103.498" width="24.1475" height="1.02877" fill="#FF5547"/>
<rect id="Rectangle_65" x="82.647" y="99.897" width="10.1897" height="1.02877" fill="#FF5547"/>
<rect id="Rectangle_66" x="91.1235" y="107.697" width="7.62058" height="1.02877" fill="#FF5547"/>
<path id="Path_11" d="M31.2266 140.988C31.2266 141.901 31.8448 142.698 32.729 142.925L87.548 157.005L88.3081 103.26L31.2266 88.2047L31.2266 140.988Z" fill="#FFAA99" stroke="#FF5547"/>
<path id="Path_12" d="M87.5479 157.005L87.5479 103.26L143.872 88.2047V140.702C143.872 141.611 143.258 142.406 142.379 142.637L87.5479 157.005Z" fill="#FFDACC" stroke="#FF5547"/>
<rect id="Rectangle_67" x="114.396" y="81.6797" width="16.6114" height="15.9765" fill="#FFDACC"/>
<rect id="Rectangle_68" x="114.656" y="82.0696" width="16.0905" height="15.2601" fill="#F5F5F5"/>
<rect id="Rectangle_69" opacity="0.6" x="118.015" y="84.874" width="9.37218" height="3.52085" fill="#FF5547"/>
<path id="Path_13" opacity="0.6" d="M121.399 84.1577V85.0714H121.726V84.4184H123.68V85.0714H124.004V84.1577H121.399Z" fill="#FF5547"/>
<rect id="Rectangle_70" x="117.751" y="89.83" width="9.90112" height="3.52319" fill="#FF5547"/>
<rect id="Rectangle_71" x="98.4722" y="2.85876" width="16.6114" height="15.9765" fill="#FFDACC"/>
<rect id="Rectangle_72" x="96.2339" y="0.311523" width="21.0874" height="21.1392" fill="#F5F5F5"/>
<rect id="Rectangle_73" x="99.7476" y="4.29041" width="14.0583" height="7.04639" fill="#FF5547"/>
<path id="Path_14" opacity="0.6" d="M105.476 5.33673V6.25041H105.802V5.59745H107.756V6.25041H108.08V5.33673H105.476Z" fill="#FF5547"/>
<g id="Group_11" opacity="0.6">
<rect id="Rectangle_74" x="104.009" y="14.6028" width="5.79755" height="1.01679" fill="#FF5547"/>
</g>
<rect id="Rectangle_75" x="101.827" y="16.9515" width="9.90112" height="0.782149" fill="#FF5547"/>
<rect id="Rectangle_76" x="75.2676" y="33.1747" width="20.98" height="17.0687" fill="#F5F5F5"/>
<rect id="Rectangle_77" x="75.2676" y="33.1747" width="20.98" height="3.8074" fill="#FF5547"/>
<rect id="Rectangle_78" x="76.9404" y="38.3632" width="17.6367" height="2.21726" fill="#FF5547"/>
<rect id="Rectangle_79" x="76.9404" y="42.2528" width="12.8715" height="0.753964" fill="#FF5547"/>
<rect id="Rectangle_80" x="76.9404" y="46.1448" width="12.8715" height="0.753964" fill="#FF5547"/>
<rect id="Rectangle_81" x="76.9404" y="47.4413" width="4.30534" height="0.753964" fill="#FF5547"/>
<g id="Group_12" opacity="0.5">
<rect id="Rectangle_82" x="106.658" y="46.1284" width="26.6767" height="21.9354" fill="#FFDACC"/>
</g>
<rect id="Rectangle_83" x="106.97" y="46.5417" width="26.0033" height="21.158" fill="white"/>
<rect id="Rectangle_84" x="106.97" y="46.5417" width="26.0033" height="4.71873" fill="#FF5547"/>
<rect id="Rectangle_85" x="109.042" y="54.5323" width="21.8599" height="2.74809" fill="#FFDACC"/>
<rect id="Rectangle_86" x="109.042" y="59.4037" width="10.361" height="0.932472" fill="#FF5547"/>
<rect id="Rectangle_87" x="109.042" y="62.7531" width="5.33534" height="0.932472" fill="#FF5547"/>
</g>
<path id="Path_15" d="M173.518 112.911L117.49 127.081L88 104.056L144.324 89L173.518 112.911Z" fill="#FFAA99" stroke="#FF5547" stroke-linejoin="round"/>
</g>
</svg>
