<?xml version="1.0" encoding="UTF-8"?>
<svg width="42px" height="43px" viewBox="0 0 42 43" version="1.1" xmlns="http://www.w3.org/2000/svg" xmlns:xlink="http://www.w3.org/1999/xlink">
    <!-- Generator: Sketch 48.1 (47250) - http://www.bohemiancoding.com/sketch -->
    <title>icon-twitter</title>
    <desc>Created with Sketch.</desc>
    <defs>
        <polygon id="path-1" points="0 42.3676 0 0.113921895 41.9718507 0.113921895 41.9718507 42.3676"></polygon>
    </defs>
    <g id="Desktop-HD" stroke="none" stroke-width="1" fill="none" fill-rule="evenodd" transform="translate(-608.000000, -1196.000000)">
        <g id="Group" transform="translate(548.000000, 1196.000000)">
            <g id="icon-twitter" transform="translate(60.000000, 0.000000)">
                <g id="Group-3">
                    <mask id="mask-2" fill="white">
                        <use xlink:href="#path-1"></use>
                    </mask>
                    <g id="Clip-2"></g>
                    <path d="M41.9718507,21.2407374 C41.9718507,32.9083167 32.5756493,42.3676 20.9858786,42.3676 C9.3961079,42.3676 -9.35224586e-05,32.9083167 -9.35224586e-05,21.2407374 C-9.35224586e-05,9.57315815 9.3961079,0.11387482 20.9858786,0.11387482 C32.5756493,0.11387482 41.9718507,9.57315815 41.9718507,21.2407374" id="Fill-1" fill="#55ACEE" mask="url(#mask-2)"></path>
                </g>
                <path d="M33.5122143,15.6976329 C32.6240923,16.1052117 31.6675821,16.3817146 30.6657879,16.5051364 C31.6893,15.8693709 32.4743777,14.864297 32.8463539,13.6664365 C31.8875333,14.2534073 30.8265925,14.6810779 29.6981878,14.9111781 C28.7938929,13.9132799 27.5051456,13.2909091 26.0791599,13.2909091 C23.3408607,13.2909091 21.1228661,15.5895193 21.1228661,18.4220003 C21.1228661,18.8238385 21.1658397,19.2165875 21.2508628,19.5921149 C17.131862,19.3773228 13.47864,17.3346452 11.0346872,14.22901 C10.6067991,14.9877188 10.3632817,15.8693709 10.3632817,16.8093853 C10.3632817,18.5903896 11.2384655,20.1618641 12.5669518,21.0813081 C11.7546113,21.0549973 10.9912515,20.823462 10.3216943,20.438367 L10.3216943,20.5039049 C10.3216943,22.9890829 12.0309364,25.0633334 14.2979118,25.5345366 C13.882962,25.6526961 13.4444459,25.7158421 12.9929916,25.7158421 C12.6736928,25.7158421 12.3631736,25.6837907 12.0595855,25.6239934 C12.691714,27.6628439 14.5220217,29.1462966 16.6914976,29.1874372 C14.9947318,30.5646898 12.8576015,31.383196 10.5347142,31.383196 C10.1336269,31.383196 9.73854659,31.3607122 9.35224586,31.3123959 C11.545288,32.768581 14.1500455,33.6181818 16.9493395,33.6181818 C26.0666837,33.6181818 31.053937,25.7976449 31.053937,19.0166252 C31.053937,18.794179 31.048392,18.5736464 31.0391503,18.3531137 C32.0085988,17.629805 32.8482022,16.725669 33.5122143,15.6976329" id="Fill-4" fill="#F1F2F2"></path>
            </g>
        </g>
    </g>
</svg>