<svg xmlns="http://www.w3.org/2000/svg" viewBox="0 0 228.3 83.08"><defs><style>.cls-1{fill:#7cc142;}.cls-2{fill:#f0b33e;}.cls-3{fill:#f3883b;}.cls-4{fill:#7d5da7;}.cls-5{fill:#eee045;}</style></defs><title>logo-year-of-open</title><g id="Layer_2" data-name="Layer 2"><g id="Layer_1-2" data-name="Layer 1"><g id="logo_concept" data-name="logo concept"><path class="cls-1" d="M64.22,53c-1.1-.29-2.2-.59-3.31-.8a28.47,28.47,0,0,1-4.14,5.08,7.07,7.07,0,0,1-2.68,1.61,13.57,13.57,0,0,1-3.82,1.5l-.15.08-.27.16-.59.25a1.07,1.07,0,0,1,.21-.13l.4-.24a14.36,14.36,0,0,0-2.28.89l-.88.43L49.29,61,47,63.59c-.38.42-1.59,1.39-4.86,1.71A20.26,20.26,0,0,0,50.91,63c1-.55,2-1.18,2.88-1.74l1.22-.8.3,1.39a1,1,0,0,1-.2.77A38.86,38.86,0,0,0,64.22,53Z"/><path class="cls-1" d="M66,53.66a40.38,40.38,0,0,1-9.86,10.47c-.32.22-.69.52-1.08.85a13.47,13.47,0,0,1-2.92,2l-.56.23-.54-.44a2.37,2.37,0,0,1-.5-1.56,22.64,22.64,0,0,1-9.35,2,27.86,27.86,0,0,1-6.69-.69c-.11,0-2.7-.86-3.08-1a1.06,1.06,0,0,1-.75-1,1.18,1.18,0,0,1,.19-.58c-3.21-.73-6.4-.88-8.44-2.3-1-.69-2-2.4-2.92-3.13-.13,0-.19-.07-.26-.13l-.89-.82a15.84,15.84,0,0,1-2.21-2.42,17.72,17.72,0,0,1-2.59-5.86,14.6,14.6,0,0,1-.08-6.64c.14-.64.34-1.25.53-1.87,0,0,.07-.11,0-.15s-.09-.08,0-.16c.4-.81.77-1.63,1.15-2.45.26-.55.56-1.14.88-1.74-3.14-1-6.28-2-9.35-3.29-.59,1.82-.57,3.87-1.18,5.65-2.67,7.81-1,15.46.18,17.84C7.49,60.1,8.81,63.1,12,65.78c.17.14.36.29.56.43h0c21.82,17.91,45.47,1.44,51.07-4.91l.38-.36,1.07-1.24a29.74,29.74,0,0,0,2.16-3c.63-.88,1-1.44,1-1.44l-.12.07c.2-.33.38-.66.57-1,0,0,0,0,0-.05l-2.6-.8Zm-46.33,5,.11.08C19.72,58.74,19.71,58.69,19.69,58.64Z"/><path class="cls-2" d="M59.69,53.36a22.78,22.78,0,0,0,2.66-5,.8.8,0,0,0,.1-.45,2.72,2.72,0,0,0-.44.8,25.4,25.4,0,0,1-5,7.45A13.94,13.94,0,0,0,59.69,53.36Z"/><path class="cls-2" d="M54.09,58.89a7.14,7.14,0,0,0,.89-.67c.73-.65,1.42-1.32,2.07-2C55,57.9,52.56,59,49.88,60.51l.41-.12A22.12,22.12,0,0,1,54.09,58.89Z"/><path class="cls-3" d="M4.38,39.36l0,0C4.41,39.31,4.38,39.34,4.38,39.36Z"/><polygon class="cls-3" points="4.39 39.2 4.38 39.2 4.4 39.18 4.39 39.2"/><polygon class="cls-3" points="4.4 39.08 4.39 39.06 4.41 39.06 4.4 39.08"/><path class="cls-3" d="M18.66,25.72a8.3,8.3,0,0,0-.78.79c-.64.74-1.23,1.49-1.78,2.27,1.85-2,4.1-3.31,6.55-5.21l-.39.18A23.64,23.64,0,0,1,18.66,25.72Z"/><path class="cls-4" d="M54.32,62c-.44.43-.94.79-1.4,1.18a6.46,6.46,0,0,0-1.38,1.58c-.12.33,0,1.4.26,1.31a24.77,24.77,0,0,0,3.81-2.76,39.28,39.28,0,0,0,9.6-10.17,41.74,41.74,0,0,0,3.55-6.61c.83-2.17.3-4.71.75-7,1.61-8.09-1-15.46-2.51-17.66-2.32-3.44-4-6.25-7.56-8.49l-.61-.36h0a39.56,39.56,0,0,0-5.49-2.83c-.18,3.8-.64,7.32-.54,11.12,0,0,1.14.89,1.47,1.13a16.82,16.82,0,0,1,2.5,2.11,17.69,17.69,0,0,1,3.34,5.47,14.79,14.79,0,0,1,.94,6.58c-.06.65-.18,1.29-.29,1.93,0,0,0,.11,0,.15s.11.06.08.14c-.29.86-.55,1.72-.82,2.58a40.44,40.44,0,0,1-3.87,8.3,13.9,13.9,0,0,0-3.52.6c-2.33,1-5.33,3.34-8.1,5s-7.24,1.09-8.69,1.14-2.55,0-2.55.86a37.53,37.53,0,0,0,6.94,1.06,6.32,6.32,0,0,1,2.41.21l-.08.06c-.77.13-1.53.36-2.29.42a31,31,0,0,1-4.09,0c-1.94-.09-3.85-.34-5.76-.59a7.27,7.27,0,0,0-1.4-.1c-1.32.08-1.26,1-1.25,1.11.06.23.53.23.74.3a35.15,35.15,0,0,0,10.63,1.79.12.12,0,0,1,.15.08A31.53,31.53,0,0,1,34,61.45a19.19,19.19,0,0,1-2-.26,15.54,15.54,0,0,1-3.06-.89,2.32,2.32,0,0,0-1.78.72,15.13,15.13,0,0,0,2.47,1.41,25,25,0,0,0,4.24,1c.19,0,6.62,1.39,12.43-.52-.14.16-2.22,2.5-12.43,1-.36,0-.73.06-1.1.1a3.93,3.93,0,0,0-.89.19c-.09,0-.2.09-.21.2s.11.12.19.15c.33.14,2.91,1,2.94,1a27.73,27.73,0,0,0,6.46.67,21.13,21.13,0,0,0,10.13-2.46c1-.54,2-1.15,3-1.77l.09-.06A.11.11,0,0,1,54.32,62Z"/><path class="cls-3" d="M11.85,37.2a.73.73,0,0,0,0,.46,2.59,2.59,0,0,0,.33-.85,25.12,25.12,0,0,1,3.95-8A13.81,13.81,0,0,0,13.83,32,23.25,23.25,0,0,0,11.85,37.2Z"/><path class="cls-3" d="M4.38,39.36s0,0,0,0Z"/><polygon class="cls-3" points="4.39 39.2 4.4 39.18 4.38 39.2 4.39 39.2"/><polygon class="cls-3" points="4.4 39.08 4.41 39.06 4.39 39.06 4.4 39.08"/><path class="cls-4" d="M22.75,17.64c-3.6,1.94-7.29,5.69-9.55,8.57-1,1.24-1.88,4.35-2.22,7.54a8.57,8.57,0,0,1,1.16,1,27.67,27.67,0,0,1,4.07-7.07,7.13,7.13,0,0,1,2.45-2,13.58,13.58,0,0,1,3.59-2l.13-.1.26-.2.56-.32L23,23.3l-.37.29a13.61,13.61,0,0,0,2.15-1.18l.82-.55c1.44-.7,2.78-1.48,4.14-2.15L28.3,20,31,17.7c.43-.37,1.77-1.18,5.05-1.07A20.25,20.25,0,0,0,27,17.81c-1.11.42-2.18.92-3.08,1.36l-1.44.67V18.37A1,1,0,0,1,22.75,17.64Z"/><path class="cls-4" d="M68.71,57.62c-.54.59-1.06,1.21-1.61,1.77a55.22,55.22,0,0,1-10.9,8.85c-.81.51-1.65,1-2.51,1.41a6.79,6.79,0,0,1-2.51,1,1.69,1.69,0,0,0-.57.2,27.11,27.11,0,0,1-2.67.92l-.08,0-.08.06v0s0-.06.08,0l.08-.06.23-.14c.08-.06.3-.12.3-.25s-.22,0-.33-.06l-.06-.09a40.11,40.11,0,0,0,12.56-7.38h-.09a3.81,3.81,0,0,0-.32.24,40.59,40.59,0,0,1-12.92,7.08,24.57,24.57,0,0,1-6.53,1.18,24.67,24.67,0,0,1-12-2.89,33.52,33.52,0,0,1-4.31-2.66,42.4,42.4,0,0,1-3.55-2.87c-1-.81-1.83-1.7-2.7-2.59a43.91,43.91,0,0,1-4.65-5.62A23.18,23.18,0,0,1,9.24,43.31V43a.58.58,0,0,1,.25.48,23.56,23.56,0,0,0,3,10.19,39,39,0,0,0,6.87,8.71c.51.5,1,1,1.55,1.47.08.07.17.13.24.2a33.33,33.33,0,0,0,8.09,5.35,24.38,24.38,0,0,0,20.28.2,38.9,38.9,0,0,0,8.76-5,48.77,48.77,0,0,0,7.11-6.43,2.53,2.53,0,0,0,.62-.93,1.57,1.57,0,0,0-.56.39c-.69.64-1.36,1.29-2,1.94a49.27,49.27,0,0,1-10.79,8,30.44,30.44,0,0,1-9.43,3.3,23.69,23.69,0,0,1-15.28-2.64,33,33,0,0,1-6.46-4.49,40,40,0,0,1-8.34-9.73,24.57,24.57,0,0,1-2.88-7.18c-.76-3.39.16-6.37,1.16-9.86a5.64,5.64,0,0,0-1.9-1.83L9,34.76l.05-.59c.28-3.19,1.21-7.23,2.67-9.09,2.4-3.07,6.33-7,10.2-9.12.34-.18.75-.43,1.19-.7a12.94,12.94,0,0,1,3.16-1.61l.59-.16.47.51a2.4,2.4,0,0,1,.29,1.62,22.12,22.12,0,0,1,9.53-.74,28.27,28.27,0,0,1,6.54,1.55s2.55,1.18,2.93,1.41a1.16,1.16,0,0,1,.45.4,8.68,8.68,0,0,1,2.64.75c1.06.54,3.53,2.88,4.57,3.52-.1-3.8-.64-8.26-.46-12C32.15,1.32,13.2,18.1,8.85,24.58l-.3.41-.91,1.36a32.94,32.94,0,0,0-1.75,3.19c-.51,1-.77,1.56-.77,1.56L5.23,31c-.15.35-.3.71-.43,1.07a28,28,0,0,0-1.68,13.8A28.33,28.33,0,0,0,7,56.66,43.94,43.94,0,0,0,16,67.3a41,41,0,0,0,5.16,3.83,3.4,3.4,0,0,1,.76.49l1.33.76a3.5,3.5,0,0,1,.82.41,33.67,33.67,0,0,0,3.31,1.47,30.54,30.54,0,0,0,8.52,1.93c.06,0,.13,0,.18,0s0,0,0,0l-.43-.07a29.86,29.86,0,0,1-10.31-3.13,37.4,37.4,0,0,1-6.54-4.25,51,51,0,0,1-6.4-6.15A37.9,37.9,0,0,1,8,56.6,27.88,27.88,0,0,1,4.1,43.78a20.74,20.74,0,0,1,.19-3.94v-.09a.56.56,0,0,1,.07-.38.94.94,0,0,1,0,.41,0,0,0,0,1,0,0c-.06.24.15.4.15.63,0,.91-.06,1.82,0,2.73a25.47,25.47,0,0,0,1,6.13A35.07,35.07,0,0,0,8.8,56.59,43.32,43.32,0,0,0,15.14,65a27,27,0,0,0,3.12,2.92c.38.3.83.49,1.21.78,1.14.86,2.3,1.71,3.52,2.47a34.83,34.83,0,0,0,4.31,2.29,29.46,29.46,0,0,0,5.86,1.89,27.65,27.65,0,0,0,11,.09A30,30,0,0,0,49,74.1c.16-.06.35-.09.45-.3h-.09a38.17,38.17,0,0,1-4.06,1.13,28.27,28.27,0,0,1-17.65-1.7,25.64,25.64,0,0,1-3.22-1.64,18.21,18.21,0,0,1-2.07-1.27l2.1,1.2a33.85,33.85,0,0,0,5,2.27,28.17,28.17,0,0,0,7.91,1.6,30.64,30.64,0,0,0,11.92-1.88,22.91,22.91,0,0,0,2.62-1.08l0-.06c-.84.33-1.67.68-2.52,1a31.47,31.47,0,0,1-10.43,1.93,28.64,28.64,0,0,1-14.09-3.7,33.88,33.88,0,0,1-3.55-2.27,40.12,40.12,0,0,1-4.77-4.06l-.59-.55a1.75,1.75,0,0,1,.61.5l.22.17a45.08,45.08,0,0,0,4.87,3.72c1.06.7,2.18,1.33,3.31,2a32.93,32.93,0,0,0,5.54,2.52,27.59,27.59,0,0,0,17.15.18,41.35,41.35,0,0,0,13.44-7.17.88.88,0,0,0,.39-.44,55.08,55.08,0,0,1-7.4,4.56,34.93,34.93,0,0,1-8.18,3,.38.38,0,0,1,.27-.17l1.58-.43a37.71,37.71,0,0,0,8.48-3.79,16.92,16.92,0,0,0,2.61-1.82.67.67,0,0,0,.26-.38A17.74,17.74,0,0,0,57,68.14a46.69,46.69,0,0,1-4.47,2.53,31.65,31.65,0,0,1-11.5,3c-.11,0-.24.06-.33,0a.37.37,0,0,1,.3-.07,29.26,29.26,0,0,0,6.81-1.29,37.2,37.2,0,0,0,6.56-2.8c.11-.06.24-.17.35-.17a1.21,1.21,0,0,0,.89-.45,1.67,1.67,0,0,1,.59-.42,2.81,2.81,0,0,0,.87-.5,10.87,10.87,0,0,1,1-.74A56,56,0,0,0,68.18,58.4a4.25,4.25,0,0,0,.79-1A2.75,2.75,0,0,0,68.71,57.62Z"/><path class="cls-1" d="M20.06,30.2a14.16,14.16,0,0,0,3.55-.15c2.43-.66,5.72-2.61,8.68-3.85s7.32-.15,8.76,0,2.53.33,2.65-.53A37.3,37.3,0,0,0,37,23.73a6.18,6.18,0,0,1-2.37-.53l.09,0c.77,0,1.56-.16,2.32-.13a30.87,30.87,0,0,1,4.06.52c1.91.34,3.77.84,5.63,1.32a7.21,7.21,0,0,0,1.38.29c1.32.1,1.38-.88,1.38-.94,0-.23-.49-.29-.7-.39a34.67,34.67,0,0,0-10.3-3.15.12.12,0,0,1-.14-.1,32.34,32.34,0,0,1,5.25.89,19.53,19.53,0,0,1,2,.52,15.65,15.65,0,0,1,2.91,1.27,2.32,2.32,0,0,0,1.86-.48A15.14,15.14,0,0,0,48,21.06,24.63,24.63,0,0,0,44,19.5c-.18-.06-6.38-2.23-12.38-1.09.16-.14,2.53-2.19,12.46.61.36,0,.73,0,1.1.05A3.32,3.32,0,0,0,46,19c.1,0,.21-.06.23-.17s-.09-.13-.16-.17c-.3-.18-2.77-1.33-2.79-1.34A28.42,28.42,0,0,0,37,15.81a21,21,0,0,0-10.36,1.13c-1.09.4-2.13.88-3.17,1.38l-.09.05c0-.06,0-.08.09-.09.49-.37,1-.66,1.54-1a6.19,6.19,0,0,0,1.57-1.39c.16-.31.15-1.39-.09-1.33a24.79,24.79,0,0,0-4.14,2.24,39.36,39.36,0,0,0-10.8,8.83C9.87,27.74,8.65,33.89,9,37.71,10,47.05,12,48.51,11.85,48.92c3.06,1.28,1-13.72,4.18-12.74A41.74,41.74,0,0,1,20.06,30.2Zm14.07-9.33c.57-.07,1.15-.11,1.72-.22a8.24,8.24,0,0,1,2.17.16,19,19,0,0,1,3.74.7A32.63,32.63,0,0,0,33.22,21,2.82,2.82,0,0,1,34.13,20.87Zm-5.45,2.29v0h0Zm-.13.05h0v0h0s0,0,0,0Zm-.08-1.28h.05s0,0,0,0,0,0,0,0,0,0,0,0Zm0,1.34h0s0,0,0,0h0l0,0Z"/><path class="cls-2" d="M56.42,14.45a7.6,7.6,0,0,1,1.41,1.24ZM34.92,7.82a.57.57,0,0,1-.26,0h-.13a1.23,1.23,0,0,1-.43,0H34a1.67,1.67,0,0,1-.67,0,1.28,1.28,0,0,1,.67-.1h.13a.89.89,0,0,1,.43,0h.13a.36.36,0,0,1,.25,0s.08,0,.07,0S34.94,7.81,34.92,7.82Zm.38,0h-.24s0-.05.06-.06h.18s.07,0,.07,0,0,0,0,0Zm1,0h-.78s-.07,0-.07,0,0,0,.07,0h.78a.71.71,0,0,1,.41,0,.64.64,0,0,1-.41,0Zm.36,0a.85.85,0,0,1,.5,0,.85.85,0,0,1-.5,0Zm.61,0v0h0v0Zm7.67,2.1,0,0h-.05s0,0,0,0Zm-.16,0a.33.33,0,0,1-.25-.08.23.23,0,0,1,.25.07Zm-.41-.16,0,0v0h0a.13.13,0,0,0,0,0Zm-.16-.05,0,0h0s0,0,0,0,0,0,0,0ZM44,9.61l0,0H44s0-.05,0,0Zm-.17,0s0,0,0,0h0l0,0s0-.05,0,0Zm-.14,0v0l-.09-.05a.06.06,0,0,1,.09,0h0Zm-.1,0c-.12,0-.19,0-.34-.07a.33.33,0,0,1,.34.07ZM43,9.32l.09,0a.06.06,0,0,1,.09,0h0v0l-.1-.05a.05.05,0,0,1-.08,0h0Zm-.65-.16a.77.77,0,0,1,.44.12.07.07,0,0,1,.09,0v0l-.09,0a.83.83,0,0,1-.44-.09l-2.78-.53a13.87,13.87,0,0,1,2.78.5Zm-3-.54c.07,0,.17,0,.16,0s-.09,0-.14,0-.08,0-.08,0,0,0,.06,0Zm-.49,0a.5.5,0,0,1,.43,0,.47.47,0,0,1-.43,0,.32.32,0,0,1-.35,0,.3.3,0,0,1,.35,0Zm-5.54.26c0-.06,0,0,0,0Zm.06,0h0Zm.08,0h0s0,0,0,0Zm.16,0v0l.05,0v0Zm.16,0c0-.05,0,0,0,0Zm.06,0a0,0,0,0,1,.07,0h0a.06.06,0,0,0-.07,0h0Zm.08,0,0,0v0Zm1.19-.05s-.07,0-.07,0,0,0,.07,0,0,0,.06,0Zm.77,0a.51.51,0,0,1-.3,0h-.08c-.05,0-.14,0-.14,0s.09,0,.14,0h.08a.51.51,0,0,1,.3,0s.08,0,.07,0S35.94,8.73,35.91,8.73Zm19,7.67a34.12,34.12,0,0,0-3.32-2.68A27.13,27.13,0,0,0,37.92,8.81l-.2,0-1.2,0h-.3s-.15,0-.15,0,.1,0,.15,0a.76.76,0,0,1,.3,0,8,8,0,0,1,1.2,0,25.1,25.1,0,0,1,5.71.91,27,27,0,0,1,7.07,3.13,27.84,27.84,0,0,1,4.91,3.81,5.29,5.29,0,0,1,.72,1C55.7,17.2,55.28,16.79,54.86,16.4ZM70,47.52Zm0-.12v0h0Zm0-.17v0s0,0,0,0Zm-.3-17.49A43.85,43.85,0,0,0,62.19,18a41.5,41.5,0,0,0-4.61-4.48,3.65,3.65,0,0,1-.7-.59L55.66,12a3.49,3.49,0,0,1-.76-.51c-1-.67-2-1.3-3.09-1.88a30.85,30.85,0,0,0-8.2-3s-.11-.06-.17,0l0,0,.42.12a30,30,0,0,1,9.79,4.42,37.81,37.81,0,0,1,5.94,5.07,49.88,49.88,0,0,1,5.53,6.93,37,37,0,0,1,3.51,6.46A27.68,27.68,0,0,1,70.88,42.9a19.75,19.75,0,0,1-.7,3.88l0,.09a.58.58,0,0,1-.12.36.91.91,0,0,1,.06-.4.08.08,0,0,1,0,0c.09-.23-.1-.42-.07-.65.15-.88.3-1.79.38-2.7a25.32,25.32,0,0,0-.25-6.21,35,35,0,0,0-2.26-7.63,43.21,43.21,0,0,0-5.19-9.17A26,26,0,0,0,60,17.12c-.34-.34-.75-.59-1.09-.93-1-1-2.06-2-3.17-2.91a34.5,34.5,0,0,0-4-2.82,29.48,29.48,0,0,0-5.56-2.64A27.76,27.76,0,0,0,35.38,6.31a30.58,30.58,0,0,0-5,.71c-.17,0-.36,0-.49.22l.1,0a41.23,41.23,0,0,1,4.16-.59,28.37,28.37,0,0,1,17.28,4,25.31,25.31,0,0,1,3,2,18.46,18.46,0,0,1,1.88,1.53l-1.93-1.48a34.71,34.71,0,0,0-4.65-2.89A27.47,27.47,0,0,0,42,7.24,30.61,30.61,0,0,0,30,7.55a23.53,23.53,0,0,0-2.74.73v.07c.89-.22,1.75-.47,2.63-.66a31.42,31.42,0,0,1,10.59-.55,28.51,28.51,0,0,1,13.49,5.49,33.32,33.32,0,0,1,3.21,2.71A39.27,39.27,0,0,1,61.34,20l.51.62a1.7,1.7,0,0,1-.54-.59,1.8,1.8,0,0,1-.2-.19,43.94,43.94,0,0,0-4.33-4.3c-1-.84-2-1.61-3-2.38a33.74,33.74,0,0,0-5.18-3.23,27.47,27.47,0,0,0-17-2.39,41.46,41.46,0,0,0-14.27,5.36,1,1,0,0,0-.44.39,55.71,55.71,0,0,1,7.92-3.56,35.87,35.87,0,0,1,8.5-1.86A.42.42,0,0,1,33,8c-.54.08-1.08.14-1.62.23a37.45,37.45,0,0,0-8.91,2.65,17.51,17.51,0,0,0-2.82,1.46.71.71,0,0,0-.3.34,16.22,16.22,0,0,0,2.25-.79A51.26,51.26,0,0,1,26.43,10,31.87,31.87,0,0,1,38.22,8.48c.11,0,.25,0,.32.09a.4.4,0,0,1-.3,0,28.75,28.75,0,0,0-6.93.4,37.06,37.06,0,0,0-6.87,1.92c-.12.05-.26.14-.37.12a1.24,1.24,0,0,0-.95.33,1.72,1.72,0,0,1-.64.34,2.9,2.9,0,0,0-.93.38,9.32,9.32,0,0,1-1.13.59,56.54,56.54,0,0,0-11.15,7.4,4.52,4.52,0,0,0-.92.88,1.27,1.27,0,0,0,.27-.18c.61-.52,1.21-1.06,1.84-1.56a55.21,55.21,0,0,1,12-7.36,26.84,26.84,0,0,1,2.66-1.07,6.89,6.89,0,0,1,2.62-.69,2,2,0,0,0,.59-.12,26.16,26.16,0,0,1,2.77-.57h.08l.09-.05v0a.06.06,0,0,1-.09,0l-.08.05-.25.11c-.11.06-.31.08-.3.2s.21.08.32.11a.21.21,0,0,0,.05.1,39.94,39.94,0,0,0-13.42,5.69.09.09,0,0,0,.1,0l.35-.19a40.59,40.59,0,0,1,13.73-5.33,23.84,23.84,0,0,1,6.64-.31A24.52,24.52,0,0,1,49.8,14.26a32.49,32.49,0,0,1,3.92,3.19,37.83,37.83,0,0,1,3.15,3.31,36.32,36.32,0,0,1,2.34,2.91,44.49,44.49,0,0,1,3.88,6.18,23.15,23.15,0,0,1,2.68,12.84c0,.09,0,.19,0,.32a.57.57,0,0,1-.2-.51A23.53,23.53,0,0,0,63.84,32a38.88,38.88,0,0,0-5.67-9.52q-.66-.84-1.35-1.68a2.18,2.18,0,0,1-.21-.22,33.17,33.17,0,0,0-7.33-6.35,24.76,24.76,0,0,0-5.5-2.61,25.5,25.5,0,0,0-14.57-.21,39.69,39.69,0,0,0-9.37,3.85A48.56,48.56,0,0,0,12,20.73a2.22,2.22,0,0,0-.74.84,1.63,1.63,0,0,0,.61-.32l2.27-1.66a49.51,49.51,0,0,1,11.75-6.48,30.55,30.55,0,0,1,9.76-2,23.77,23.77,0,0,1,14.81,4.6,33.16,33.16,0,0,1,5.82,5.28,40.42,40.42,0,0,1,7,10.73,24.47,24.47,0,0,1,1.92,7.48c.31,3.49.89,5.12.35,9.7-.23,1.93-5.18,11.14-5.86,12.21,2.62.52,6.46-7.54,9-6.72a28,28,0,0,0,3.44-13.41,28.55,28.55,0,0,0-2.38-11.19Z"/><path class="cls-2" d="M14.53,69.83c.25.17.48.36.73.52a37.79,37.79,0,0,1-5.81-5.06A24.55,24.55,0,0,1,5.31,59.2c-.13-.26-.32-.83-.43-1.1a45,45,0,0,1-2.51-7.22,10.59,10.59,0,0,0-.73-2c-.1-.29-.26-.56-.26-.26a17.41,17.41,0,0,1,.25,2.09,2.44,2.44,0,0,1-.15-.59A2.69,2.69,0,0,1,.94,49C.82,48.72.42,47,.37,46.63.21,45.7,0,48.53.22,49.77c.06.61-.14,0-.22,0,.15.61.12.94.3,1.54a9.08,9.08,0,0,0,.21,1c.14.56.31,1.25.46,1.69l.42,1.18c.1.3.13.3.15.28l-.05,0c.16.27.3.88.46,1.18l-.05,0c.3.55.47,1.16.77,1.72l0,0a3.07,3.07,0,0,1,.25.59l-.05,0q.21.42.39.87l0,0c.6,1.11,1,2,1.56,2.75a25.8,25.8,0,0,0,5.65,6.39c.23.21.5.38.29.13a8.07,8.07,0,0,0,.73.58c.49.4.29.14.78.53a37.25,37.25,0,0,0,13.48,6.54c-1.29-.32-2.13-.66-3.33-1.06,0,0,0-.07-.26-.18a26.3,26.3,0,0,1-4.5-2.15,14.64,14.64,0,0,0-1.29-.86l.8.47,0-.07a39.48,39.48,0,0,1-3.34-2.22l0-.07-.49-.36c-.19-.26.39.11,1.19.65a27.46,27.46,0,0,0,2.52,1.53l.05-.09-.53-.3,0-.05a36.52,36.52,0,0,0,4.63,2.34L20.18,74s0,0-.25-.18a25.8,25.8,0,0,0,3.68,1.45c.3.07,0-.1-.81-.43s-1.42-.55-2.25-.92l0-.05a19.7,19.7,0,0,0,2,.81c.3.09-.53-.29-.24-.21a6.74,6.74,0,0,0,.86.3,28.31,28.31,0,0,1-2.8-1.14c-.26-.15-.52-.3-.5-.35a13.82,13.82,0,0,1-3.07-1.88C16.54,71.13,15.25,70.38,14.53,69.83Z"/><path class="cls-2" d="M29.52,80.57l1.36.28a51.32,51.32,0,0,1-11.41-3.6A31.54,31.54,0,0,1,9.89,71c-.29-.34-.91-1-1.21-1.35a29.35,29.35,0,0,1-5.92-10c-.3-.85-.59-1.59-.77-2.13s-.35-.85-.35-.85c-.13-.44-.32-.87-.29-.41.08.92.71,3.13.63,3.16a5.82,5.82,0,0,1-.3-.89A5.26,5.26,0,0,1,1,56.83a23.57,23.57,0,0,1-.71-3.71c0-.71-.2,0-.22,1.15a18,18,0,0,0,.29,3.66c.18,1-.13,0-.21,0,.24.94.31,1.42.63,2.36a3.9,3.9,0,0,0,.12.46l.42,1.09c.3.86.8,1.84,1.09,2.51,0,0,.05.11.2.37s.41.69.77,1.32c.24.42.26.4.29.39l0,0c.29.39.82,1.21,1.11,1.6l-.05,0c.57.79,1.2,1.53,1.83,2.27l0,0,.42.52a1.31,1.31,0,0,1,.2.23l0,0c.33.37,1.06,1,1,1l0,0A19.13,19.13,0,0,0,10,74a19.66,19.66,0,0,0,1.77,1.39c.81.55,1.65,1.18,2.58,1.71s1.93,1,2.93,1.53l3.1,1.29c1,.41,2.11.72,3.14,1.07.45.16.92.27.48.06.45.17.93.27,1.39.4.93.26.48,0,1.41.3a47.48,47.48,0,0,0,11.45,1.34,33.8,33.8,0,0,0,5.77-.59,22.62,22.62,0,0,0,5.63-1.77,26.57,26.57,0,0,1-5.17,1.61s0-.08-.49,0a31.84,31.84,0,0,1-7.66.5c-.48,0-1-.16-2.37-.26l1.43.1v-.08c-1-.07-2-.15-3.08-.33L30.76,82l-1.46-.32v-.08l-.93-.19c-.45-.19.61,0,2.07.26s3,.41,4.52.51V82.1L34,82v0a36.18,36.18,0,0,0,8-.13c-.47.05-1.4.18-1.87.19,0,0,0-.06-.48,0a26.6,26.6,0,0,0,6-.94c.45-.14,0-.1-1.39.19a35.82,35.82,0,0,1-3.7.53v-.05a29.51,29.51,0,0,0,3.23-.45c.45-.11-.94.08-.48,0A10.65,10.65,0,0,0,44.7,81a28.54,28.54,0,0,1-4.59.67,2.86,2.86,0,0,1-.94-.06,27.24,27.24,0,0,1-3.13,0c-.92-.1-1.73-.2-2.41-.33C33.18,81.11,30.88,80.91,29.52,80.57Z"/><path class="cls-5" d="M53.67,8l-.82-.37a37,37,0,0,1,6.71,3.87,25.12,25.12,0,0,1,5.29,5.21c.18.23.49.74.65,1a42.47,42.47,0,0,1,3.86,6.65,13.71,13.71,0,0,0,1,1.83c.15.27.34.52.27.22-.17-.57-.74-2-.67-2a2.69,2.69,0,0,1,.26.54,3.12,3.12,0,0,1,.69,1c.16.26.87,1.95,1,2.25s.14,0,0-.77a16.41,16.41,0,0,0-.56-2.3c-.19-.59.1,0,.17-.06-.26-.57-.3-.89-.6-1.45a10.42,10.42,0,0,0-.4-1c-.26-.52-.55-1.16-.78-1.57L69.15,20c-.16-.27-.18-.26-.2-.25l0,0c-.21-.25-.47-.81-.67-1.06l0,0c-.39-.5-.68-1.05-1.07-1.54l0,0a3.54,3.54,0,0,1-.35-.51l0,0a8.77,8.77,0,0,1-.54-.77l0,0-1.07-1.3c-.33-.39-.66-.73-1-1.08a26.21,26.21,0,0,0-6.71-5.17c-.27-.16-.56-.3-.31-.08-.27-.17-.55-.3-.82-.46-.56-.29-.3-.08-.87-.37A36.82,36.82,0,0,0,41.28,3.45a33.46,33.46,0,0,1,3.45.41s0,.06.29.11a28.5,28.5,0,0,1,4.81,1.24c.29.11.56.27,1.43.59l-.88-.31,0,.07a36.18,36.18,0,0,1,3.71,1.53l0,.06.56.26c.24.2-.4-.06-1.27-.45s-2-.8-2.77-1a.24.24,0,0,1,0,.09l.59.2v0a35.9,35.9,0,0,0-5-1.41l1.18.26s0,0,.3.13A27.22,27.22,0,0,0,43.7,4.5c-.3,0,0,.08.89.24S46.08,5,47,5.22v0c-.59-.14-1.48-.34-2.07-.42-.3,0,.59.17.28.14s-.59-.1-.89-.13a29.8,29.8,0,0,1,3,.59c.3.1.57.2.56.24a15.7,15.7,0,0,1,3.4,1.23C51.45,7.05,52.87,7.55,53.67,8Z"/><path class="cls-5" d="M36.42,1.47,35,1.51A50.51,50.51,0,0,1,47,2.4,31.55,31.55,0,0,1,57.81,6.27l1.52,1a29.16,29.16,0,0,1,8.11,8.45c.47.77.92,1.43,1.22,1.92l.51.77c.22.4.49.79.35.35-.3-.88-1.43-2.89-1.37-2.93a8,8,0,0,1,.49.79,6.55,6.55,0,0,1,1.06,1.55c.11.21.5.93.82,1.7.25.57.47,1.16.67,1.76s.17,0-.09-1.15A19.34,19.34,0,0,0,69.92,17c-.4-.88.1-.05.16-.07a22.9,22.9,0,0,0-1.15-2.13s-.08-.17-.23-.42l-.63-1c-.51-.75-1-1.48-1.63-2.18L66.16,11l-1-1.1c-.34-.35-.35-.33-.37-.32l0,0c-.35-.33-1.06-1-1.43-1.3l0,0C62.67,7.52,61.87,7,61.1,6.38l0,0-.54-.4a2.2,2.2,0,0,1-.25-.17l0,0C60,5.45,59.11,5,59.14,5l0,0a18.06,18.06,0,0,0-2.29-1.24,19.68,19.68,0,0,0-2-1c-.91-.34-1.86-.75-2.88-1S49.8,1.19,48.72.93L45.41.39C44.31.22,43.2.16,42.13,0c-.48,0-1,0-.49,0-.47-.06-1,0-1.43-.07-1,0-.48,0-1.44,0A46.62,46.62,0,0,0,27.36,1.3,33.85,33.85,0,0,0,21.9,3.18a22.77,22.77,0,0,0-5,3,16.51,16.51,0,0,1,2.27-1.5c.73-.42,1.48-.79,2.37-1.23,0,0,0,.07.47-.13a32.71,32.71,0,0,1,7.31-2.24c.47-.08,1-.07,2.37-.29L30.24,1v.06c1-.14,2-.32,3.07-.38L34.9.54l1.49,0V.58l1,0c.47.06-.59.13-2.07.19s-3,.28-4.52.53v.09l.94-.15v0a36.23,36.23,0,0,0-7.75,2c.44-.16,1.33-.5,1.78-.61,0,0,0,0,.46-.09a27.15,27.15,0,0,0-5.62,2.28c-.4.24,0,.07,1.31-.52.64-.28,1.18-.53,1.72-.74l1.78-.63v0a29.58,29.58,0,0,0-3.05,1.18c-.42.21.88-.29.46-.1a12,12,0,0,0-1.26.59,28.83,28.83,0,0,1,4.33-1.7,4.58,4.58,0,0,1,.91-.18A29.43,29.43,0,0,1,29.82,2c.92-.12,1.74-.22,2.43-.27C32.72,1.77,35,1.45,36.42,1.47Z"/><polygon class="cls-4" points="88.14 27.23 89.01 27.3 86.54 32.2 84.08 27.3 84.95 27.23 84.95 24.65 79.39 24.65 79.39 27.22 80.88 27.36 85.09 35.45 85.09 39.12 83.53 39.25 83.53 41.82 89.53 41.82 89.53 39.25 87.96 39.12 87.96 35.52 92.2 27.36 93.71 27.22 93.71 24.65 88.14 24.65 88.14 27.23"/><polygon class="cls-4" points="103.09 39.04 98.15 39.04 98.15 34.33 103.9 34.33 103.9 31.54 98.15 31.54 98.15 27.44 103.04 27.44 103.13 29.75 105.83 29.75 105.83 24.65 93.73 24.65 93.73 27.22 95.3 27.36 95.3 39.12 93.73 39.25 93.73 41.82 105.88 41.82 105.88 36.73 103.18 36.73 103.09 39.04"/><path class="cls-4" d="M111.6,39.25l-.93-.08.63-1.85h5.06l.62,1.85-.92.08v2.57h5.16V39.25L120,39.14l-5-14.48h-2.31l-5,14.5-1.26.1v2.57h5.16Zm.66-4.77,1.58-4.72,1.58,4.72Z"/><path class="cls-4" d="M133.56,38.35V36.94a5.27,5.27,0,0,0-.7-2.79,3.57,3.57,0,0,0-.82-.91,5.09,5.09,0,0,0,.75-.86,4.76,4.76,0,0,0,.79-2.66A4.86,4.86,0,0,0,132.1,26a5.85,5.85,0,0,0-4-1.29h-6.67v2.56l1.57.15V39.11l-1.57.15v2.55h6V39.26l-1.57-.15V34.73h2.65a2.35,2.35,0,0,1,1.68.59,2.22,2.22,0,0,1,.56,1.63v1.37a4.72,4.72,0,0,0,.51,2.27,2.32,2.32,0,0,0,2.18,1.22H135V39.22l-1.29-.1A1.66,1.66,0,0,1,133.56,38.35ZM125.8,32V27.44h2.25a3,3,0,0,1,2.06.59,2.21,2.21,0,0,1,.6,1.69,2.13,2.13,0,0,1-.61,1.63,3.14,3.14,0,0,1-2.18.59Z"/><path class="cls-4" d="M147.52,24.42a6,6,0,0,0-5,2.54,10,10,0,0,0-1.83,6.18v.2a10,10,0,0,0,1.84,6.18,6,6,0,0,0,5,2.52,6.1,6.1,0,0,0,5.06-2.51,9.88,9.88,0,0,0,1.86-6.2v-.2a9.91,9.91,0,0,0-1.87-6.19A6.14,6.14,0,0,0,147.52,24.42Zm0,14.82a3.24,3.24,0,0,1-2.82-1.5,7.59,7.59,0,0,1-1.14-4.4v-.22a7.53,7.53,0,0,1,1.14-4.38,3.23,3.23,0,0,1,2.81-1.5,3.37,3.37,0,0,1,2.9,1.51,7.42,7.42,0,0,1,1.17,4.37v.22a7.5,7.5,0,0,1-1.16,4.4,3.34,3.34,0,0,1-2.88,1.5Z"/><polygon class="cls-4" points="155 27.22 156.56 27.36 156.56 39.12 155 39.25 155 41.82 160.99 41.82 160.99 39.25 159.42 39.12 159.42 34.57 165.27 34.57 165.27 31.78 159.42 31.78 159.42 27.44 164.43 27.44 164.52 29.75 167.22 29.75 167.22 24.65 155 24.65 155 27.22"/><path class="cls-4" d="M180,24.42a6,6,0,0,0-5,2.54,10,10,0,0,0-1.83,6.18v.2a10,10,0,0,0,1.83,6.18,6,6,0,0,0,5,2.52,6.12,6.12,0,0,0,5.06-2.51,9.94,9.94,0,0,0,1.86-6.2v-.2a9.91,9.91,0,0,0-1.87-6.19A6.11,6.11,0,0,0,180,24.42Zm0,14.82a3.24,3.24,0,0,1-2.82-1.5,7.59,7.59,0,0,1-1.15-4.4v-.22a7.53,7.53,0,0,1,1.15-4.38,3.21,3.21,0,0,1,2.81-1.5,3.36,3.36,0,0,1,2.89,1.51,7.35,7.35,0,0,1,1.17,4.37v.22a7.57,7.57,0,0,1-1.15,4.4,3.35,3.35,0,0,1-2.89,1.5Z"/><path class="cls-4" d="M194.26,24.66h-6.77v2.58l1.57.13V39.11l-1.57.14v2.57h6V39.25l-1.55-.14V35.39h2.34a5.46,5.46,0,0,0,4-1.47A5.33,5.33,0,0,0,199.74,30a5.3,5.3,0,0,0-1.45-3.87A5.39,5.39,0,0,0,194.26,24.66Zm-2.34,2.79h2.34a2.47,2.47,0,0,1,2,.69,2.76,2.76,0,0,1,.65,1.91,2.69,2.69,0,0,1-.65,1.88,2.52,2.52,0,0,1-2,.69h-2.33Z"/><polygon class="cls-4" points="209.63 39.04 204.69 39.04 204.69 34.33 210.44 34.33 210.44 31.54 204.69 31.54 204.69 27.44 209.59 27.44 209.68 29.75 212.37 29.75 212.37 24.65 200.27 24.65 200.27 27.22 201.84 27.36 201.84 39.12 200.27 39.25 200.27 41.82 212.42 41.82 212.42 36.73 209.72 36.73 209.63 39.04"/><polygon class="cls-4" points="222.31 24.65 222.31 27.22 223.88 27.36 223.88 35.79 217.2 24.65 213.14 24.65 213.14 27.22 214.71 27.36 214.71 39.12 213.14 39.25 213.14 41.82 219.14 41.82 219.14 39.25 217.57 39.12 217.57 30.66 224.25 41.82 226.73 41.82 226.73 27.36 228.3 27.22 228.3 24.65 222.31 24.65"/><path class="cls-4" d="M89.13,56.61H83.7l0,0,4-3.93a14.81,14.81,0,0,0,2.07-2.41A4,4,0,0,0,90.51,48a3.5,3.5,0,0,0-1.22-2.75A4.82,4.82,0,0,0,86,44.17a5.5,5.5,0,0,0-3.77,1.2,3.65,3.65,0,0,0-1.31,3l0,.06h2a2.71,2.71,0,0,1,.75-2.06A3.21,3.21,0,0,1,86,45.61a2.37,2.37,0,0,1,1.78.7A2.42,2.42,0,0,1,88.45,48,3.12,3.12,0,0,1,88,49.66a13.22,13.22,0,0,1-1.82,2.13l-5,5v1.27h9.9V55H89.3Z"/><path class="cls-4" d="M98.67,44.17a4.64,4.64,0,0,0-3.55,1.4,5.71,5.71,0,0,0-1.3,4v3.24a5.69,5.69,0,0,0,1.31,4,5.21,5.21,0,0,0,7.11,0,5.76,5.76,0,0,0,1.3-4V49.6a5.67,5.67,0,0,0-1.32-4A4.62,4.62,0,0,0,98.67,44.17Zm2.82,9a4.34,4.34,0,0,1-.71,2.69,2.85,2.85,0,0,1-4,.15l-.15-.15a4.21,4.21,0,0,1-.73-2.69v-4a4.26,4.26,0,0,1,.72-2.68,2.49,2.49,0,0,1,2.07-.88,2.51,2.51,0,0,1,2.09.88,4.22,4.22,0,0,1,.72,2.68Z"/><polygon class="cls-4" points="111.04 44.37 106.57 45.23 106.57 46.39 108.97 46.35 108.97 56.61 106.61 56.88 106.61 58.06 113.39 58.06 113.39 56.88 111.04 56.61 111.04 44.37"/><path class="cls-4" d="M122.73,51a4,4,0,0,0,1.82-1.2,2.87,2.87,0,0,0,.67-1.88,3.31,3.31,0,0,0-1.28-2.79,6,6,0,0,0-6.56,0,3.34,3.34,0,0,0-1.25,2.79,2.92,2.92,0,0,0,.65,1.88,4,4,0,0,0,1.8,1.2,4.54,4.54,0,0,0-2.1,1.29,3,3,0,0,0-.78,2,3.38,3.38,0,0,0,1.36,2.9,7,7,0,0,0,7.2,0,3.36,3.36,0,0,0,1.38-2.9,3,3,0,0,0-.79-2A4.7,4.7,0,0,0,122.73,51Zm-4.52-3a2.25,2.25,0,0,1,.68-1.71,2.52,2.52,0,0,1,1.78-.65,2.55,2.55,0,0,1,1.77.67,2.22,2.22,0,0,1,.71,1.69,2.12,2.12,0,0,1-.69,1.67,2.86,2.86,0,0,1-3.58,0A2.17,2.17,0,0,1,118.21,48Zm4.58,8.17a3.7,3.7,0,0,1-4.22,0,2.3,2.3,0,0,1-.79-1.83,2.37,2.37,0,0,1,.81-1.86,3,3,0,0,1,2.07-.72,3.11,3.11,0,0,1,2.1.72,2.37,2.37,0,0,1,.83,1.86,2.27,2.27,0,0,1-.81,1.83Z"/></g></g></g></svg>