<?xml version="1.0" encoding="UTF-8"?>
<svg width="161px" height="48px" viewBox="0 0 161 48" version="1.1" xmlns="http://www.w3.org/2000/svg" xmlns:xlink="http://www.w3.org/1999/xlink">
    <title>logos/oeweek</title>
    <defs>
        <rect id="path-1" x="1" y="1" width="48" height="48" rx="1.7"></rect>
    </defs>
    <g id="Brand" stroke="none" stroke-width="1" fill="none" fill-rule="evenodd">
        <g id="oeg_desktop" transform="translate(-681.000000, -338.000000)">
            <g id="Group" transform="translate(680.000000, 337.000000)">
                <path d="M71.7653046,10.753664 C73.415199,10.753664 74.986527,12.060544 74.986527,14.447744 L74.986527,14.473984 C74.986527,16.861184 73.4418102,18.168064 71.7653046,18.168064 C70.6957878,18.168064 70.0355766,17.674624 69.559743,17.101184 L69.559743,19.235584 C69.559743,19.795584 69.1117878,20.248704 68.5567542,20.248704 C68.0023542,20.248704 67.5537654,19.795584 67.5537654,19.235584 L67.5537654,11.820544 C67.5537654,11.260544 68.0023542,10.807424 68.5567542,10.807424 C69.1117878,10.807424 69.559743,11.260544 69.559743,11.820544 L69.559743,11.913344 C70.0488822,11.247104 70.7217654,10.753664 71.7653046,10.753664 Z M125.048594,10.753664 C126.118744,10.753664 126.870194,11.047424 127.465144,11.554304 C127.597566,11.661184 127.781944,11.901184 127.781944,12.247424 C127.781944,12.754304 127.372638,13.154304 126.870194,13.154304 C126.606616,13.154304 126.408933,13.047424 126.289816,12.953984 C125.933733,12.674304 125.564344,12.500864 125.035922,12.500864 C124.032299,12.500864 123.319499,13.394304 123.319499,14.447744 L123.319499,14.473984 C123.319499,15.567744 124.01836,16.448384 125.115122,16.448384 C125.64291,16.448384 126.052216,16.261504 126.43491,15.954944 C126.541355,15.874304 126.739038,15.767424 126.976005,15.767424 C127.451838,15.767424 127.821227,16.155264 127.821227,16.634624 C127.821227,16.901504 127.702744,17.115264 127.531038,17.275264 C126.937355,17.821184 126.184005,18.194944 125.022616,18.194944 C122.896888,18.194944 121.338866,16.541184 121.338866,14.500864 L121.338866,14.473984 C121.338866,12.433664 122.883582,10.753664 125.048594,10.753664 Z M79.4906627,10.753344 C81.8533571,10.753344 82.8962627,12.714304 82.8962627,14.194624 C82.8962627,14.780864 82.4869571,15.167424 81.9591683,15.167424 L77.9852291,15.167424 C78.1829123,16.087744 78.8171459,16.568384 79.7143235,16.568384 C80.2693571,16.568384 80.7312515,16.394304 81.1405571,16.087744 C81.2856515,15.981504 81.4174403,15.928384 81.6290627,15.928384 C82.0776515,15.928384 82.4083907,16.274624 82.4083907,16.728384 C82.4083907,16.995264 82.2892739,17.194944 82.1441795,17.328064 C81.5232515,17.861824 80.7179459,18.195264 79.6883459,18.195264 C77.5632515,18.195264 75.9912899,16.688064 75.9912899,14.500544 L75.9912899,14.474304 C75.9912899,12.433344 77.4308291,10.753344 79.4906627,10.753344 Z M149.413111,10.753664 C151.6041,10.753664 153.228651,12.393984 153.228651,14.447744 L153.228651,14.473984 C153.228651,16.528384 151.591428,18.194944 149.3865,18.194944 C147.194878,18.194944 145.570327,16.554624 145.570327,14.500864 L145.570327,14.473984 C145.570327,12.420864 147.208183,10.753664 149.413111,10.753664 Z M61.1870992,8.539584 C64.0389328,8.539584 66.0854608,10.687424 66.0854608,13.340864 L66.0854608,13.367744 C66.0854608,16.021184 64.0123216,18.195264 61.160488,18.195264 C58.3086544,18.195264 56.26276,16.048064 56.26276,13.394624 L56.26276,13.367744 C56.26276,10.714304 58.3352656,8.539584 61.1870992,8.539584 Z M110.91887,8.219904 C111.472636,8.219904 111.921859,8.673664 111.921859,9.233024 L111.921859,17.101184 C111.921859,17.661824 111.472636,18.114944 110.91887,18.114944 C110.363836,18.114944 109.915248,17.661824 109.915248,17.101184 L109.915248,17.008384 C109.426742,17.674624 108.753859,18.168064 107.71032,18.168064 C106.060425,18.168064 104.488464,16.861184 104.488464,14.473984 L104.488464,14.447744 C104.488464,12.060544 106.033814,10.753664 107.71032,10.753664 C108.779836,10.753664 109.440048,11.247104 109.915248,11.820544 L109.915248,9.233024 C109.915248,8.673664 110.363836,8.219904 110.91887,8.219904 Z M119.012983,10.807104 C119.568017,10.807104 120.017239,11.260864 120.017239,11.820224 L120.017239,17.101504 C120.017239,17.662144 119.568017,18.115264 119.012983,18.115264 C118.458583,18.115264 118.009995,17.662144 118.009995,17.101504 L118.009995,17.022144 C117.5481,17.621824 116.953783,18.168384 115.937489,18.168384 C114.41875,18.168384 113.534244,17.154624 113.534244,15.514944 L113.534244,11.820224 C113.534244,11.260864 113.983467,10.807104 114.537867,10.807104 C115.092267,10.807104 115.541489,11.260864 115.541489,11.820224 L115.541489,14.874944 C115.541489,15.834944 115.990078,16.328384 116.7561,16.328384 C117.521489,16.328384 118.009995,15.834944 118.009995,14.874944 L118.009995,11.820224 C118.009995,11.260864 118.458583,10.807104 119.012983,10.807104 Z M132.021932,10.807424 C133.116793,10.807424 133.909426,11.100544 134.411237,11.607424 C134.939026,12.140544 135.176626,12.927744 135.176626,13.887744 L135.176626,17.141504 C135.176626,17.688064 134.741343,18.114944 134.199615,18.114944 C133.619237,18.114944 133.235909,17.701504 133.235909,17.275264 L133.235909,17.261184 C132.747404,17.808384 132.074521,18.168064 131.097509,18.168064 C129.763781,18.168064 128.667653,17.394944 128.667653,15.981184 L128.667653,15.954944 C128.667653,14.393984 129.842348,13.673984 131.520121,13.673984 C132.232921,13.673984 132.747404,13.794304 133.249215,13.967744 L133.249215,13.848064 C133.249215,13.007104 132.734732,12.541184 131.731109,12.541184 C131.176709,12.541184 130.727487,12.621184 130.344793,12.740864 C130.226309,12.780544 130.146476,12.793984 130.05397,12.793984 C129.592076,12.793984 129.222687,12.433664 129.222687,11.967104 C129.222687,11.607424 129.446348,11.300224 129.763781,11.180544 C130.397381,10.940544 131.084204,10.807424 132.021932,10.807424 Z M138.043286,8.979904 C138.59832,8.979904 139.046908,9.433664 139.046908,9.993664 L139.046908,10.887104 L139.931414,10.887104 C140.406614,10.887104 140.789942,11.273664 140.789942,11.754304 C140.789942,12.234304 140.406614,12.620864 139.931414,12.620864 L139.046908,12.620864 L139.046908,15.674944 C139.046908,16.141504 139.244592,16.368064 139.69318,16.368064 C139.760342,16.368064 139.891497,16.355264 139.931414,16.355264 C140.380003,16.355264 140.763331,16.728384 140.763331,17.194944 C140.763331,17.554624 140.525731,17.848384 140.248214,17.955264 C139.878192,18.101824 139.535414,18.154944 139.099497,18.154944 C137.87158,18.154944 137.039664,17.662144 137.039664,16.008384 L137.039664,12.620864 L136.973769,12.620864 C136.498569,12.620864 136.115875,12.234304 136.115875,11.754304 C136.115875,11.273664 136.498569,10.887104 136.973769,10.887104 L137.039664,10.887104 L137.039664,9.993664 C137.039664,9.433664 137.488886,8.979904 138.043286,8.979904 Z M158.915274,10.753344 C160.434013,10.753344 161.319152,11.767104 161.319152,13.406784 L161.319152,17.101504 C161.319152,17.662144 160.86993,18.115264 160.314896,18.115264 C159.760496,18.115264 159.311274,17.662144 159.311274,17.101504 L159.311274,14.046784 C159.311274,13.086784 158.862685,12.593984 158.097296,12.593984 C157.331274,12.593984 156.842768,13.086784 156.842768,14.046784 L156.842768,17.101504 C156.842768,17.662144 156.393546,18.115264 155.83978,18.115264 C155.286013,18.115264 154.836791,17.662144 154.836791,17.101504 L154.836791,11.820224 C154.836791,11.260864 155.286013,10.807104 155.83978,10.807104 C156.393546,10.807104 156.842768,11.260864 156.842768,11.820224 L156.842768,11.900864 C157.305296,11.300544 157.89898,10.753344 158.915274,10.753344 Z M88.3765859,10.753344 C89.8959587,10.753344 90.7798307,11.767104 90.7798307,13.406784 L90.7798307,17.101504 C90.7798307,17.662144 90.3306083,18.115264 89.7768419,18.115264 C89.2218083,18.115264 88.7725859,17.662144 88.7725859,17.101504 L88.7725859,14.046784 C88.7725859,13.086784 88.3239971,12.593984 87.5586083,12.593984 C86.7925859,12.593984 86.3047139,13.086784 86.3047139,14.046784 L86.3047139,17.101504 C86.3047139,17.662144 85.8554915,18.115264 85.3010915,18.115264 C84.7460579,18.115264 84.2968355,17.662144 84.2968355,17.101504 L84.2968355,11.820224 C84.2968355,11.260864 84.7460579,10.807104 85.3010915,10.807104 C85.8554915,10.807104 86.3047139,11.260864 86.3047139,11.820224 L86.3047139,11.900864 C86.7659747,11.300544 87.3609251,10.753344 88.3765859,10.753344 Z M143.153524,10.807104 C143.708557,10.807104 144.15778,11.260864 144.15778,11.820224 L144.15778,17.101504 C144.15778,17.662144 143.708557,18.115264 143.153524,18.115264 C142.599124,18.115264 142.150535,17.662144 142.150535,17.101504 L142.150535,11.820224 C142.150535,11.260864 142.599124,10.807104 143.153524,10.807104 Z M102.57195,8.700544 C103.073762,8.700544 103.483701,9.113344 103.483701,9.620224 C103.483701,10.126464 103.073762,10.526464 102.57195,10.526464 L98.4529168,10.526464 L98.4529168,12.420864 L101.978267,12.420864 C102.480078,12.420864 102.88875,12.834304 102.88875,13.341184 C102.88875,13.848064 102.480078,14.248064 101.978267,14.248064 L98.4529168,14.248064 L98.4529168,16.207744 L102.638478,16.207744 C103.14029,16.207744 103.548962,16.621824 103.548962,17.128064 C103.548962,17.634944 103.14029,18.034944 102.638478,18.034944 L97.4492944,18.034944 C96.8815888,18.034944 96.433,17.581824 96.433,17.008384 L96.433,9.726464 C96.433,9.153664 96.8815888,8.700544 97.4492944,8.700544 L102.57195,8.700544 Z M131.995321,14.888064 C131.136793,14.888064 130.60837,15.234944 130.60837,15.874304 L130.60837,15.901184 C130.60837,16.448384 131.057593,16.768384 131.705132,16.768384 C132.641593,16.768384 133.275826,16.248064 133.275826,15.514624 L133.275826,15.154944 C132.932415,14.994304 132.483193,14.888064 131.995321,14.888064 Z M71.2501878,12.473984 C70.3124598,12.473984 69.5337654,13.260544 69.5337654,14.447744 L69.5337654,14.473984 C69.5337654,15.660544 70.3124598,16.448384 71.2501878,16.448384 C72.1872822,16.448384 72.9792822,15.674624 72.9792822,14.473984 L72.9792822,14.447744 C72.9792822,13.260544 72.1872822,12.473984 71.2501878,12.473984 Z M108.225436,12.473984 C107.287708,12.473984 106.496342,13.247744 106.496342,14.447744 L106.496342,14.473984 C106.496342,15.661184 107.287708,16.448384 108.225436,16.448384 C109.162531,16.448384 109.941859,15.661184 109.941859,14.473984 L109.941859,14.447744 C109.941859,13.261184 109.162531,12.473984 108.225436,12.473984 Z M149.3865,12.500864 C148.237783,12.500864 147.550961,13.394304 147.550961,14.447744 L147.550961,14.473984 C147.550961,15.528064 148.303678,16.448384 149.413111,16.448384 C150.561828,16.448384 151.247383,15.554304 151.247383,14.500864 L151.247383,14.473984 C151.247383,13.421184 150.495934,12.500864 149.3865,12.500864 Z M61.160488,10.433344 C59.5238992,10.433344 58.3878544,11.740224 58.3878544,13.340864 L58.3878544,13.367744 C58.3878544,14.967744 59.5498768,16.301504 61.1870992,16.301504 C62.8243216,16.301504 63.9603664,14.993984 63.9603664,13.394624 L63.9603664,13.367744 C63.9603664,11.767104 62.7977104,10.433344 61.160488,10.433344 Z M79.4906627,12.380864 C78.6581123,12.380864 78.1176515,12.980544 77.9586179,13.900864 L80.9821571,13.900864 C80.8636739,12.993984 80.3352515,12.380864 79.4906627,12.380864 Z M143.153524,8.233664 C143.787757,8.233664 144.276263,8.592704 144.276263,9.179584 L144.276263,9.206464 C144.276263,9.793344 143.787757,10.167104 143.153524,10.167104 C142.519924,10.167104 142.032052,9.793344 142.032052,9.206464 L142.032052,9.179584 C142.032052,8.592704 142.519924,8.233664 143.153524,8.233664 Z" id="type1" fill="#333333" fill-rule="nonzero"></path>
                <path d="M68.7149008,24.321792 C69.6431248,24.321792 70.2855952,24.898432 70.5713488,25.788032 L73.9040848,36.006272 L77.2121104,25.691392 C77.450344,24.970112 78.0693712,24.369792 78.9735184,24.369792 C79.9733392,24.369792 80.78308,25.139072 80.78308,26.148992 C80.78308,26.364672 80.7114832,26.653312 80.6398864,26.870272 L75.9746896,40.093952 C75.641416,41.031552 74.9514256,41.608832 74.0707216,41.608832 L73.6892944,41.608832 C72.809224,41.608832 72.1426768,41.055232 71.8094032,40.093952 L68.5241872,30.452352 L65.2396048,40.093952 C64.9063312,41.055232 64.2391504,41.608832 63.3597136,41.608832 L62.9782864,41.608832 C62.0975824,41.608832 61.407592,41.031552 61.0743184,40.093952 L56.4091216,26.870272 C56.3375248,26.653312 56.265928,26.388992 56.265928,26.172672 C56.265928,25.139072 57.1231888,24.369792 58.1458192,24.369792 C59.00308,24.369792 59.693704,24.922112 59.9319376,25.691392 L63.2399632,36.006272 L66.5720656,25.788032 C66.8578192,24.922112 67.5009232,24.321792 68.4291472,24.321792 L68.7149008,24.321792 Z M131.053601,24.369344 C132.076865,24.369344 132.742779,25.162944 132.742779,26.076224 C132.742779,26.653504 132.481735,27.086784 132.076865,27.470784 L127.386958,31.894464 L132.505179,38.386624 C132.790932,38.746944 133.005723,39.132224 133.005723,39.684544 C133.005723,40.718784 132.219425,41.488064 131.149275,41.488064 C130.434574,41.488064 130.005627,41.127744 129.60139,40.599104 L124.841153,34.298944 L122.746471,36.270784 L122.746471,39.636544 C122.746471,40.670784 121.937364,41.488064 120.913467,41.488064 C119.889569,41.488064 119.080462,40.670784 119.080462,39.636544 L119.080462,26.220864 C119.080462,25.187264 119.889569,24.369344 120.913467,24.369344 C121.937364,24.369344 122.746471,25.187264 122.746471,26.220864 L122.746471,31.870784 L129.50635,25.090624 C129.958107,24.634304 130.410497,24.369344 131.053601,24.369344 Z M95.8601622,24.51424 C96.7643094,24.51424 97.5024534,25.2592 97.5024534,26.17248 C97.5024534,27.0864 96.7643094,27.80768 95.8601622,27.80768 L88.4337366,27.80768 L88.4337366,31.22144 L94.788111,31.22144 C95.6928918,31.22144 96.4310358,31.96704 96.4310358,32.88096 C96.4310358,33.79488 95.6928918,34.51616 94.788111,34.51616 L88.4337366,34.51616 L88.4337366,38.0496 L95.9786454,38.0496 C96.8834262,38.0496 97.6215702,38.7952 97.6215702,39.70912 C97.6215702,40.62304 96.8834262,41.34432 95.9786454,41.34432 L86.6248086,41.34432 C85.6002774,41.34432 84.7911702,40.5264 84.7911702,39.49216 L84.7911702,26.36448 C84.7911702,25.33152 85.6002774,24.51424 86.6248086,24.51424 L95.8601622,24.51424 Z M113.004491,24.51424 C113.908638,24.51424 114.646782,25.2592 114.646782,26.17248 C114.646782,27.0864 113.908638,27.80768 113.004491,27.80768 L105.578066,27.80768 L105.578066,31.22144 L111.933074,31.22144 C112.837854,31.22144 113.575365,31.96704 113.575365,32.88096 C113.575365,33.79488 112.837854,34.51616 111.933074,34.51616 L105.578066,34.51616 L105.578066,38.0496 L113.123608,38.0496 C114.028389,38.0496 114.765899,38.7952 114.765899,39.70912 C114.765899,40.62304 114.028389,41.34432 113.123608,41.34432 L103.769138,41.34432 C102.744606,41.34432 101.935499,40.5264 101.935499,39.49216 L101.935499,26.36448 C101.935499,25.33152 102.744606,24.51424 103.769138,24.51424 L113.004491,24.51424 Z" id="type2" fill="#333333" fill-rule="nonzero"></path>
                <g id="logos/isotype">
                    <mask id="mask-2" fill="white">
                        <use xlink:href="#path-1"></use>
                    </mask>
                    <use id="Mask" fill-opacity="0" fill="#FFFFFF" fill-rule="nonzero" xlink:href="#path-1"></use>
                    <rect id="background-color" fill="#F2F2F2" fill-rule="nonzero" mask="url(#mask-2)" x="1" y="1" width="48" height="48" rx="1.7"></rect>
                    <rect id="Color-stripe" fill="#664BDA" mask="url(#mask-2)" x="1" y="41" width="48" height="8"></rect>
                    <g id="Group" mask="url(#mask-2)">
                        <g transform="translate(-7.000000, 2.000000)" id="logos/isotype">
                            <g transform="translate(0.000000, 1.762130)" fill="#0D59F2" fill-rule="nonzero" id="Icon">
                                <g>
                                    <path d="M42.9007996,2.74402145 C45.9154555,4.4180386 48.4841195,6.78936836 50.3913638,9.65913284 C50.456904,9.76564972 50.4259152,9.90487686 50.3213585,9.97365465 L47.4161397,11.8476804 C47.3647897,11.881711 47.3018085,11.8934861 47.2416048,11.8803118 C47.1814012,11.8671375 47.1291266,11.8301411 47.0967406,11.7777867 C43.7754552,6.79147418 38.1366443,3.8403942 32.1398453,3.95007337 L31.92668,3.95544133 C29.9896635,4.22803948 28.1140064,5.86236078 26.5895711,8.62820025 C26.3827106,9.00362328 26.1859941,9.39317201 25.9997047,9.79571002 L26.2264187,9.78144688 C28.2259443,9.66786956 30.2648479,9.60671254 32.2774995,9.60671254 C33.9138727,9.60671254 35.5721226,9.64602776 37.2172465,9.72465822 C37.2549258,9.72676637 37.2900218,9.74445231 37.3140996,9.77346538 C37.3381773,9.80247845 37.3490597,9.84019521 37.3441311,9.87755076 L37.3441311,9.87755076 L36.9766034,13.1188727 C36.9562044,13.3149648 36.7890079,13.4629255 36.5915744,13.4596047 C35.4014848,13.4333945 33.1525654,13.3897109 32.2774995,13.3897109 C30.3348532,13.3897109 28.3747055,13.4464996 26.4495605,13.5600769 C25.8412425,13.5954778 25.2333882,13.6364281 24.6260731,13.6829157 C24.2327042,15.1987247 23.9563736,16.8123617 23.8066096,18.4879343 C24.6215427,18.4200159 25.4366938,18.3616399 26.2526707,18.3128509 C28.2434456,18.1992736 30.2648479,18.1381165 32.2731241,18.1381165 C35.125839,18.1381165 38.0223072,18.2604306 40.888148,18.4919536 L41.246925,18.5225321 L42.0738623,18.5924258 L42.1351169,18.5924258 C43.9377527,18.7584234 45.7972677,18.9855781 47.6699088,19.2607847 L48.8162451,19.4224139 C49.2537781,19.4879393 49.691311,19.557833 50.128844,19.6320951 L50.155096,19.6320951 L52.1589969,19.9946689 L53.6816116,20.2218235 C53.7317638,20.2326378 53.7766474,20.2552839 53.8137221,20.2863494 L53.8478741,20.2917173 C53.8973333,20.3000442 53.9339891,20.3421312 53.9353814,20.3921895 L53.9353814,21.4755424 C53.9382232,32.6153081 45.3909548,41.8990233 34.2726497,42.8324467 C26.1547603,43.5167689 18.4314407,39.5577046 14.2201706,32.7620283 C11.7248174,33.2236249 9.24672542,33.7830842 6.79120491,34.4364618 C6.7214689,34.4563498 6.64753203,34.4231312 6.61619172,34.3578314 L5.01482111,31.1208778 C5.00063568,31.0903712 5.00016988,31.0552693 5.01354083,31.0243983 C5.02691178,30.9935272 5.05284744,30.9698239 5.08482639,30.9592485 C7.52224424,30.2920343 9.98177606,29.7143988 12.4584387,29.227166 C11.8216622,27.593062 11.3977123,25.9078833 11.1796524,24.2108612 C8.10061117,24.8740326 5.05035163,25.6825227 2.03959703,26.6345737 C1.96226862,26.6614101 1.87688126,26.6280509 1.83833187,26.5559432 L0.0488220851,23.432567 C0.0342054391,23.4050411 0.0320596909,23.3725929 0.0429247827,23.3433873 C0.0537898745,23.3141817 0.076631292,23.2909996 0.105701369,23.2796744 C1.16890645,22.9323899 2.25180051,22.5998486 3.34146266,22.2820506 L4.43290228,21.9691669 L5.02357177,21.8075376 C7.01379957,21.2640065 9.01868447,20.7800113 11.0355308,20.3559956 C11.1223971,18.7100447 11.3994579,17.0780725 11.8605044,15.4949338 C10.1620899,15.8471235 8.47141534,16.2454416 6.79120491,16.6878215 C6.75648375,16.6960194 6.72058006,16.6798885 6.70369831,16.6485063 L6.70369831,16.6485063 L5.0279471,13.3198172 C5.01936466,13.3032395 5.01883289,13.2836566 5.02650307,13.2666389 C5.03417324,13.2496212 5.04920591,13.2370312 5.06732507,13.23245 C7.87819227,12.4709969 10.7179788,11.8279873 13.5791312,11.304653 C14.5524025,9.50482497 15.7951865,7.82397651 17.2963711,6.32607536 C24.0736723,-0.439991805 34.5218928,-1.90169557 42.9007996,2.74402145 Z M32.5662712,31.0640891 C30.531743,31.0640891 28.4709628,31.1296145 26.4408099,31.2519285 C26.0482463,31.2760184 25.6558825,31.3024132 25.2637387,31.3311096 C25.6402693,32.3889379 26.0805707,33.3800541 26.5808204,34.2879377 C28.2565716,37.3457886 30.3567298,39.0057648 32.4962659,39.0057648 C34.6358021,39.0057648 36.7403356,37.3283151 38.4160868,34.2879377 C38.9236776,33.3766706 39.369136,32.3805824 39.7491341,31.3159446 C37.3583017,31.1467475 34.9630864,31.0629376 32.5662712,31.0640891 Z M21.3923408,31.6923919 L20.5997148,31.7821397 C19.8946797,31.8669813 19.190625,31.9592996 18.4876695,32.0590751 C18.9659591,32.6906999 19.4904987,33.2923805 20.059301,33.860628 C21.106494,34.9067997 22.2672809,35.8032537 23.5097207,36.5409849 C23.4300663,36.403918 23.3510788,36.2643325 23.2730713,36.1226482 C22.5272942,34.7823883 21.8979573,33.2923681 21.3923408,31.6923919 Z M43.6188841,31.6627759 L43.477318,32.1010392 C42.9970777,33.5395615 42.4161941,34.8853483 41.7413373,36.1095431 C41.6679296,36.2432784 41.593654,36.3751426 41.5185283,36.5051235 L41.6144527,36.4459067 L41.6144527,36.4459067 C43.5343446,35.271979 45.1785563,33.7624886 46.4900945,32.0190002 C45.5350875,31.8857504 44.5776791,31.7674188 43.6188841,31.6627759 Z M19.920552,22.7283368 L19.0382435,22.8416388 C17.6969897,23.0208305 16.3595016,23.2270768 15.0266015,23.4602507 C15.2290483,25.2103227 15.6943684,26.9202451 16.4056611,28.5311961 C17.7585817,28.3171467 19.1158316,28.1315744 20.4765526,27.9728806 C20.1675465,26.2893282 19.980246,24.5284936 19.920552,22.7283368 Z M45.0901495,22.765526 L45.076475,23.151274 C45.0019368,24.799638 44.8191432,26.4114565 44.5343283,27.959758 C45.8742765,28.1117076 47.2122115,28.2912957 48.5466702,28.4966377 C49.2451416,26.9005694 49.7078567,25.194434 49.905711,23.4312038 C49.7411663,23.4022339 49.5752296,23.3737168 49.4069146,23.3451998 L48.1380691,23.201044 C47.5430242,23.1049401 46.9173521,23.0132046 46.1560448,22.908364 C45.7753911,22.8551573 45.4212309,22.8078288 45.0901495,22.765526 Z M32.3387541,21.9560618 C29.4475294,21.9565142 26.5611472,22.0816499 23.6875575,22.3302413 C23.7336258,24.1556339 23.925912,25.9282881 24.2533425,27.6036629 C24.9058655,27.5501692 25.5593103,27.504277 26.2132927,27.4645618 C28.3178262,27.333511 30.4529871,27.272354 32.5662712,27.272354 C35.3006391,27.2730326 38.0329224,27.3802678 40.7569004,27.5935789 C41.0804482,25.9355473 41.2704355,24.1771049 41.3181161,22.3643498 C38.3324912,22.0951738 35.336579,21.9595315 32.3387541,21.9560618 Z M20.6572077,14.0655539 L20.6069146,14.0722955 C19.1512544,14.2430382 17.6996864,14.4457297 16.253263,14.6802027 C15.8919687,15.5388573 15.6057182,16.4281335 15.3974781,17.338707 C15.2165818,18.0900621 15.0867893,18.8464585 15.0068171,19.6033471 C16.6610946,19.3199444 18.3227818,19.0785577 19.9897808,18.8774137 C20.1038918,17.2227046 20.3288118,15.608862 20.6572077,14.0655539 Z M23.5059319,6.39529325 L23.2584891,6.54519412 C21.5619113,7.58623998 20.0403207,8.91615469 18.7708889,10.4908801 C19.7698756,10.3583327 20.7706625,10.2416272 21.7731524,10.1394135 C22.2035415,8.9539612 22.7050148,7.83705299 23.2730713,6.80659479 C23.349747,6.66747077 23.4273741,6.53036529 23.5059319,6.39529325 Z" id="G"></path>
                                </g>
                            </g>
                        </g>
                    </g>
                </g>
            </g>
        </g>
    </g>
</svg>