<?xml version="1.0" encoding="UTF-8"?>
<svg width="245px" height="67px" viewBox="0 0 245 67" version="1.1" xmlns="http://www.w3.org/2000/svg" xmlns:xlink="http://www.w3.org/1999/xlink">
    <!-- Generator: Sketch 46.2 (44496) - http://www.bohemiancoding.com/sketch -->
    <title>logo-oeconsortium</title>
    <desc>Created with Sketch.</desc>
    <defs>
        <polygon id="path-1" points="0 67 245 67 245 0 0 0"></polygon>
    </defs>
    <g id="Page-1" stroke="none" stroke-width="1" fill="none" fill-rule="evenodd">
        <g id="Desktop-HD" transform="translate(-115.000000, -1901.000000)">
            <g id="logo-oeconsortium" transform="translate(115.000000, 1901.000000)">
                <path d="M33.0334442,2.01065672 C33.3277533,2.09591045 33.4434703,2.13853731 33.6180491,2.20704478 L33.7591837,2.26870149 C33.4140394,2.09895522 33.4140394,2.09895522 33,2 C33.0080266,2.00304478 33.0240798,2.00685075 33.0334442,2.01065672 Z" id="Fill-1" fill="#86B740"></path>
                <path d="M20.059584,0.953424658 C20.0421585,0.960273973 20.0179876,0.967808219 20,0.973972603 C22.6998314,0.00547945205 22.8161889,0.00547945205 23.9291737,0 L24.2855537,0.00684931507 L24.1944913,0.00684931507 C23.4648679,0.0479452055 22.4013491,0.189726027 20.059584,0.953424658 M27.1427768,0.316438356 C27.0674536,0.300684932 26.9662732,0.284246575 26.8892636,0.269863014 C27.2563238,0.343150685 27.747611,0.432876712 28.1124227,0.519178082 L28.4749859,0.610958904 C29.2782462,0.851369863 30.1899944,1.12465753 32,2 C31.3541315,1.69452055 29.3867341,0.767808219 27.1427768,0.316438356" id="Fill-3" fill="#86B740"></path>
                <path d="M16.0304487,1.48335821 C16.0219017,1.48716418 16.0096154,1.49325373 16,1.49858209 C16.2473291,1.38135821 16.5763889,1.22759701 16.8258547,1.11341791 L16.8498932,1.10504478 C17.1698718,1.04110448 17.1698718,1.04110448 19,1 C18.3520299,1.04414925 16.8338675,1.14234328 16.0304487,1.48335821" id="Fill-5" fill="#86B740"></path>
                <path d="M37.5117484,4.31399158 C38.26716,4.80205896 39.987234,5.99017314 40,6 C38.306013,4.76415536 38.239963,4.715489 37.0654949,4.03649977 L37,4 C37.0888067,4.05100608 37.2214616,4.12774918 37.5117484,4.31399158" id="Fill-7" fill="#86B740"></path>
                <path d="M33,2 L33,2 C33.0672369,2.0240472 33.1355945,2.05033135 33.203952,2.07773397 C33.1333533,2.05816067 33.0672369,2.02572491 33,2 M33.4521684,2.18510751 C33.3838108,2.15546794 33.2924807,2.11911752 33.225804,2.0917149 C35.0154271,2.76727344 39.5051735,4.78779744 42.953868,9.33439588 C46.0854283,13.4671588 47.5074894,17.2778011 48,22 C47.4127974,16.3679222 44.8841283,13.776417 42.8160323,13.2675111 C41.3788428,12.9140732 40.0593179,13.4229791 38.2607299,13.7596399 C45.5273617,11.010989 38.7011318,4.75032855 34.5049867,2.6705254 C34.4186993,2.62802338 33.9693325,2.40712468 33.4521684,2.18510751" id="Fill-9" fill="#1E5DA2"></path>
                <path d="M25.0733296,1.31457324 C25.6558505,1.73501087 28.7678879,1.93699823 28.9906721,1.5687987 C29.1112155,1.36744454 28.0515702,1.07712729 26.4996538,1.00557691 C25.1705216,0.966635772 24.8284563,1.13823005 25.0733296,1.31457324" id="Fill-11" fill="#86B740"></path>
                <path d="M20,1.07601774 L20,1.07601774 C20.0577742,1.06911113 20.1133263,1.06508228 20.170545,1.05817568 C20.1194371,1.07198888 20.1194371,1.07198888 20,1.07601774 M20.3605333,1.06508228 C20.3033146,1.06508228 20.2255416,1.06738448 20.1677674,1.06911113 C21.0360472,0.97241868 25.5035492,0.629966244 28.1856058,3.24123801 C29.2116536,0.907957045 32.7269922,1.89732803 33.1241899,2.01876915 C30.7537806,1.45760759 29.5821863,3.35807472 31.5603975,6.74231056 C33.0586384,9.30581165 37.3039319,13.325455 38,14 C31.129313,8.42349302 29.5394111,6.74231056 28.8172335,5.80934351 C28.4044812,6.68590663 26.9706808,8.71759923 20.2066539,12.741847 C27.5323128,7.63096024 27.6623048,2.50741136 22.5687303,1.30451121 C22.2565274,1.23141632 21.4154682,1.06162898 20.3605333,1.06508228" id="Fill-13" fill="#86B740"></path>
                <path d="M12.0877745,3.64493253 C11.9126582,3.90828588 12.0027916,4.03730778 12.3293319,3.9905838 C13.33213,3.84244754 15.3598733,2.3249801 14.9447447,2.03401713 C14.7819896,1.91720718 14.2823932,2.13224368 14.0938857,2.21294874 C13.095723,2.67594091 12.3293319,3.28335264 12.0877745,3.64493253" id="Fill-15" fill="#1E5DA2"></path>
                <path d="M8.93561412,5.864789 L9.01240131,5.79685599 L9.02105339,5.78955741 C9.1156855,5.70983438 11.3381881,3.86104613 11.9573525,5.81369889 C14.3247774,2.60063629 18.3712463,1.37671938 20,1 C14.6968168,2.51361467 10.6665705,7.24253766 15.9697538,10.6717507 C16.8798443,11.2601291 18.6459497,12.1556096 19.7063701,12.4941518 C12.9501784,10.9322541 11.7653845,9.22326191 11.3836115,8.5197904 C9.60615019,12.0073922 6.94725837,15.6347899 5,19 C8.37268827,12.1123795 8.95129601,10.9883971 9.43905692,9.4192009 C10.7649879,5.14391317 9.28548253,5.64695424 9.2703414,5.65144568 C9.12379682,5.7064658 8.98157828,5.82661177 8.93561412,5.864789" id="Fill-17" fill="#1E5DA2"></path>
                <path d="M0.8295211,31 C-0.935724726,23.7506524 0.550347358,19.3985579 1.30737063,16.8295623 C1.15608016,17.8165945 0.818673858,19.6533671 4.28522388,19.2036374 C-0.931157467,18.6668998 3.5127861,12.0232183 5,10 L4.87040401,10.171756 C3.68634196,11.8904463 3.33066662,12.4096693 2.18257175,14.6905217 C1.29481067,16.799618 1.28738887,17.3646049 0.666812477,19.6850063 C0.0941923079,22.1297049 0.468136686,28.2920175 0.8295211,31 C0.8295211,31 0.457289444,27.5886088 0.452722185,27.5123355" id="Fill-19" fill="#86B740"></path>
                <path d="M43.0020536,17.656099 C43.0761182,19.7287909 44.6737974,21.6601084 45.5916694,20.7831081 C46.3991058,20.0127377 45.983815,17.397312 44.5693134,16.2459496 C43.4266024,15.4917533 42.9650213,16.6179559 43.0020536,17.656099" id="Fill-21" fill="#1E5DA2"></path>
                <path d="M38.2352072,13.0273073 C38.1651101,12.9658658 38.327351,13.0273073 38.2352072,13.0273073 C38.6535286,13.0273073 43.6162902,16.0307438 43.9017663,22.7123659 C46.0470767,18.9926658 47.6180431,20.5325774 47.9984894,21.1879531 C47.9956629,21.1835249 48.0030118,21.1918278 47.9984894,21.1879531 C47.8588605,21.0711589 46.8498015,20.3100596 45.0040997,24.6674226 C44.5004181,25.8552912 44.3681381,26.3086296 41.6880546,37 C42.1872138,33.7568864 42.3381487,30.0150452 42.7106809,26.7619681 C41.9661818,27.7018566 40.3533833,29.6513781 35,31.4652854 C45.5880537,26.1752297 42.4681675,16.7066 38.2962595,13.0400384" id="Fill-23" fill="#1E5DA2"></path>
                <path d="M27.0226592,13.0713749 C27.3138924,14.9183666 29.7163106,15.6910559 30.6967956,14.2545068 C31.4815924,13.1035055 30.6921972,11.2274927 28.914142,11.0010237 C27.3767374,10.9595649 26.8826629,12.1862285 27.0226592,13.0713749" id="Fill-25" fill="#86B740"></path>
                <path d="M20.00111,12 L20,12 C20.0804786,12.0016921 20.1626222,12.0073326 20.2436558,12.0152293 C20.2297801,12.0197417 20.2153495,12.0253821 20.2009189,12.0321507 C20.1964787,12.0338429 20.1903734,12.0377912 20.1848232,12.0377912 C20.1515217,12.035535 20.1226604,12.02369 20.089914,12.0157933 C20.0604977,12.0107169 20.0305263,12.0045124 20.00111,12 M20.5289384,12.1229624 C20.4440196,12.0998364 20.3319047,12.0733262 20.2464309,12.0524564 C20.316364,12.0507643 27.4006969,12.1962886 29.7401252,18.3195894 C31.9668835,12.8133566 37.7535691,13.2488014 38,13.2685431 C34.2935463,13.7547521 28.5984398,19.4358396 34.7331257,32 C33.0736024,29.5779796 30.5388055,25.6973321 29.6302303,22.8133566 C29.1123925,24.0175983 27.8902285,26.550172 22.8711418,31.1054205 C31.2248158,21.1398274 26.5159878,13.7705454 20.5289384,12.1229624" id="Fill-27" fill="#86B740"></path>
                <path d="M10.0687924,17.6625952 C10.518159,19.5101635 12.6024797,19.4261831 13.608205,17.5179283 C14.6110385,15.6158034 13.5636731,13.5346839 11.8824522,14.0918967 C11.8211486,14.1133516 11.73729,14.1495183 11.6771431,14.1740381 C10.1723144,14.9605113 9.83109656,16.6885454 10.0687924,17.6625952" id="Fill-29" fill="#1E5DA2"></path>
                <path d="M5.17928287,18.4913767 C5.12549801,18.4946504 5.05378486,18.5039262 5,18.5104738 C5.04033865,18.4859203 9.54818227,16.3906958 12.7808765,20.8343178 C13.4531873,14.8269162 19.1202067,12.4359595 20.3275647,12 C13.749004,15.5160487 12.52876,24.8834484 23,30.5056342 C21.2559138,29.8519678 16.3749377,27.8467725 13.9955179,24.9745688 C13.9775896,26.2595308 13.6812126,26.771333 12.2082918,35 C12.799365,20.0158708 7.57831175,18.3096814 5.17928287,18.4913767" id="Fill-31" fill="#1E5DA2"></path>
                <path d="M0.100096568,27.2862921 C0.221702738,28.0031851 0.422911832,28.2066491 0.578391587,27.7748178 C0.925595833,26.8094232 0.733532606,23.8496566 0.333824304,24.0059637 C0.249479078,24.0382848 0.193248927,24.2173756 0.159036606,24.3244062 C-0.0723199793,25.2458229 -0.0140574132,26.6107278 0.100096568,27.2862921" id="Fill-33" fill="#86B740"></path>
                <path d="M8.92836416,42 C7.66613882,40.0392731 7.67828622,40.4705996 4.21296418,34.0162851 C4.7353024,34.9902483 7.22275871,35.7644098 12,35.9113391 C1.99440714,34.0602526 1.76526299,23.9271403 4.71597699,19 C4.32560371,19.4780768 0.564326817,27.8753085 2.26275426,30.9474665 C1.38869358,29.3629676 1.00273754,28.7908339 1.00052892,28.8092 C0.986725059,28.9132749 1.23574677,32.1880172 2.6183418,35.026424 C4.43769109,38.7653293 7.8450369,41.2030199 8.92836416,42" id="Fill-35" fill="#86B740"></path>
                <path d="M11.3969454,42.6586561 C11.8244205,43.1053125 12.0706127,43.1142905 11.9820577,42.6816623 C11.782693,41.7159642 10.2452663,39.651581 10.0217923,40.0505417 C9.97403753,40.1358329 10.015765,40.3092209 10.0426561,40.411907 C10.3055394,41.2642576 10.9926522,42.2366892 11.3969454,42.6586561" id="Fill-37" fill="#86B740"></path>
                <path d="M24.4896288,47.9485864 C22.8632244,47.8097424 20.447575,48.006794 17.8214245,46.1393434 C18.5530642,46.6605421 22.4002294,47.6132249 25,45.7292199 C18.7517213,48.6379998 13.0622668,40.547138 12.0506767,36 C12.093746,36.4843516 11.0945382,41.2125207 15.1904286,44.882272 C12.6337273,43.8991504 9.98819557,43.3058597 10.0000396,43.3160059 C10.3424406,43.5915577 10.0797178,43.3608632 10.1416299,43.4286831 L10.5707078,43.7741908 C10.9556397,44.0908618 13.68731,46.0992923 16.2450881,46.8463793 C19.7746172,47.8786304 23.5356438,48.1226753 24.4896288,47.9485864" id="Fill-39" fill="#86B740"></path>
                <path d="M26.5548013,47.9897086 C28.0524346,47.7774619 30.2529263,47.508218 33.0054673,45.885155 C32.2365611,46.3367899 27.9660221,47.4001947 26,46.1006586 C31.0543059,47.9598529 39.1616703,41.6054798 41,38 C40.8635013,38.3772672 40.0824863,41.6098224 35.6380215,44.7370686 C38.1478369,43.8044859 40.3219095,41.3248364 40.3098008,41.5441399 C40.300444,41.7097032 40.3786005,41.4887712 40.3098008,41.5441399 C39.9927714,42.0256305 37.6414707,44.4884522 34.2163432,46.1039156 C30.7196639,47.7541202 27.3798481,48.065162 26.5548013,47.9897086" id="Fill-41" fill="#86B740"></path>
                <path d="M41,41 C42.2067133,39.6913308 42.8204369,39.0579416 44.9466988,34.0651145 C44.6294701,34.8113296 43.3418946,36.727695 41.0031101,37.9553753 C45.4126934,35.6402093 47.3881162,25.8578652 46.7894246,22 C46.8573282,22.4334303 47.7851704,27.7340153 45.1177536,34.3298645 C44.0385538,36.9985889 41.8246911,40.4989858 41,41" id="Fill-43" fill="#86B740"></path>
                <path d="M36.5868183,35.6278065 C35.9661893,36.7435339 35.6310496,38.2208395 36.6537383,37.9723262 C38.0029317,37.6423142 39.6279004,35.051577 38.7525436,34.1166388 C38.0515027,33.6328126 37.0736073,34.7554271 36.5868183,35.6278065" id="Fill-45" fill="#1E5DA2"></path>
                <path d="M35.2254575,32.0538312 C35.19394,32 35.2254575,32.0538312 35.1916479,32 C35.2300419,32.0266381 38.4711866,34.7908986 34.9836324,39.6529116 C39.0814799,36.5284814 41.1404319,37.0323859 42,37.6123201 C42,37.6162049 41.9982809,37.6206445 41.9965617,37.6228644 C39.7909101,37.1400484 36.3085133,39.7511397 34.0054439,41.4820629 C31.2748827,43.5304238 28.917374,45.2974194 26,46 C26.1071595,45.9728069 26.2492747,45.9350696 26.3558612,45.9045467 C28.4216898,45.2530226 29.6686365,44.3478812 31.6800258,42.5631268 C29.8073135,43.7418639 27.7879016,44.6764181 26,46 L26.1060134,45.9184207 C27.8136886,44.6309113 29.6680635,43.5531772 31.3104115,42.1752091 C33.0759643,40.6951282 33.892554,39.575217 34.1630314,39.1612162 C36.2741306,35.9246839 35.9967766,33.4251397 35.2254575,32.0538312" id="Fill-47" fill="#1E5DA2"></path>
                <path d="M27.0000108,33.1725127 C27.0035992,34.4633601 27.9318143,35.625072 29.0645716,34.6188289 C30.2308211,33.5903037 30.4903864,31.2258603 28.771514,31 C27.6172259,31.0030385 26.9970204,32.1232245 27.0000108,33.1725127" id="Fill-49" fill="#86B740"></path>
                <path d="M23.0606401,31.029046 C23,30.9988828 23.0606401,31.029046 23,31 C23.0505334,31.0055858 28.0044919,31.69822 28.2577204,37.3593878 C30.2532285,32.3774484 34.2251544,31.9400834 35,31.9015417 C30.5165637,33.2063752 28.8433464,38.9485365 28.2128018,41.1107842 C27.5912409,43.2423103 27.143178,44.7795114 26.0572712,46 C26.1066816,45.9385566 26.1751825,45.8547702 26.2279618,45.794444 C27.1414935,44.5074849 27.254913,43.3791614 27.4800674,41.1286587 C25.9809096,45.0180234 25.9809096,45.0180234 26.0572712,46 C26.0533408,45.9715126 26.0471645,45.9335295 26.0437956,45.9039249 C25.7961819,42.7239517 27.5597979,39.7461831 26.905671,36.526551 C26.3868613,33.9744172 25.0948905,32.0032025 23.0606401,31.029046" id="Fill-51" fill="#86B740"></path>
                <path d="M16.5404435,34.7568375 C17.3212408,35.9235982 18.7521648,36.6163793 18.9731756,35.2362464 C19.1990261,33.8419973 17.9638392,31.5920875 16.5802362,32.0638953 C15.7327593,32.5210439 15.896232,33.7920475 16.5404435,34.7568375" id="Fill-53" fill="#1E5DA2"></path>
                <path d="M12.4484751,35.6058462 C12.3896587,35.6030534 12.0593819,35.6399181 12,35.6365667 C12.0356292,35.6220443 15.9101596,34.3105567 19.9752777,38.6834854 C18.1355686,33.7168125 22.1045445,31.4116552 22.9206221,31 C22.0513836,31.7015453 20.1166633,33.7380376 20.8852353,37.4825917 C21.5989497,40.9601564 24.5889719,42.9731894 26,46 C25.9660675,45.9385589 25.9230862,45.8558928 25.8919814,45.7961274 C25.5747122,45.2822566 25.5747122,45.2822566 22.2640275,41.9582945 C23.3713593,43.7791845 24.1716017,45.0968162 26,46 L25.8733185,45.9430274 C20.7704302,43.3719978 19.0404363,36.1051946 12.4484751,35.6058462" id="Fill-55" fill="#1E5DA2"></path>
                <path d="M9,6.23520896 L9,6.23520896 C9.04099592,6.20095522 9.07743673,6.16670149 9.11691429,6.13092537 C9.07743673,6.16670149 9.0372,6.20019403 9,6.23520896 M9.15259592,6.09895522 L9.08199184,6.16061194 C9.14500408,6.10808955 9.20497959,6.05404478 9.26799184,6 C9.23306939,6.03044776 9.18751837,6.06926866 9.15259592,6.09895522" id="Fill-57" fill="#86B740"></path>
                <path d="M4.84280876,11.4808908 C4.32682158,11.9173991 4.02109918,12.0898347 4.00174966,11.9553349 C3.92112666,11.3813708 6.65198881,8.69876618 6.98093064,9.02787177 C7.03446431,9.08108045 6.96287109,9.21755088 6.9183672,9.30081263 C6.45784864,10.0432709 5.16401078,11.209428 4.84280876,11.4808908" id="Fill-59" fill="#86B740"></path>
                <path d="M5.73307414,14.1507242 C4.35272825,13.571639 2.41037673,14.1146387 1,20 C1.61616839,17.6275264 1.72717522,17.1990835 2.61415739,15.0007364 C3.56602762,12.9845348 3.79394021,12.5051141 5.13889261,10.4196056 L5.26008848,10.2454791 C6.3787371,8.65714753 7.6014211,7.26929057 9,6 C5.46869554,9.21389412 3.6030299,12.9765158 2.90320418,14.3935848 C3.38959646,13.5613289 4.12588819,12.2983389 5.75720606,14.1627526 C5.75077088,14.1604615 5.73950932,14.1553064 5.73307414,14.1507242" id="Fill-61" fill="#86B740"></path>
                <path d="M60.4753194,15.4573631 C60.4753194,17.2678803 61.0792749,18.7570674 62.2877472,19.923795 C63.4872387,21.0910873 64.8758873,21.6750158 66.4469574,21.6750158 C68.1527388,21.6750158 69.5930267,21.0797927 70.765576,19.8921702 C71.9370027,18.6898648 72.5246806,17.2255257 72.5246806,15.5002824 C72.5246806,13.7530146 71.9448608,12.2892403 70.7869053,11.1078298 C69.6345627,9.91964256 68.2088685,9.32611368 66.510384,9.32611368 C64.8175125,9.32611368 63.3901344,9.91964256 62.2237594,11.1078298 C61.0573844,12.2824635 60.4753194,13.7321197 60.4753194,15.4573631 M58,15.4308208 C58,13.1233432 58.8391389,11.1411487 60.5168554,9.48536691 C62.1883977,7.82845564 64.1972794,7 66.5423779,7 C68.8588503,7 70.8464027,7.8357971 72.5039126,9.50626183 C74.1675967,11.1772913 75,13.1837691 75,15.5268246 C75,17.8839983 74.1636676,19.8831346 72.4938092,21.5259276 C70.8144088,23.1749327 68.7886882,24 66.4160861,24 C64.3168356,24 62.4303166,23.2669834 60.7593357,21.8020795 C58.9199657,20.1813108 58,18.056805 58,15.4308208" id="Fill-63" fill="#3A5F76"></path>
                <path d="M79.4206056,14.2641587 L80.3251477,14.2641587 C82.5496677,14.2641587 83.6619276,13.4109136 83.6619276,11.7044233 C83.6619276,10.0530522 82.515325,9.22736668 80.2210118,9.22736668 L79.4206056,9.22736668 L79.4206056,14.2641587 Z M79.4206056,16.5025493 L79.4206056,23 L77,23 L77,7 L79.7418759,7 C81.0873338,7 82.1032127,7.09315144 82.7884047,7.27945432 C83.4813516,7.4657572 84.0906573,7.81796886 84.6174298,8.33608929 C85.5385894,9.23398098 86,10.3672316 86,11.7352901 C86,13.2003583 85.5075702,14.3606173 84.5232644,15.2171696 C83.5400665,16.0742731 82.2128877,16.5025493 80.5439439,16.5025493 L79.4206056,16.5025493 Z" id="Fill-65" fill="#3A5F76"></path>
                <polygon id="Fill-67" fill="#3A5F76" points="98 9.26925727 91.4616587 9.26925727 91.4616587 13.1138211 97.8086065 13.1138211 97.8086065 15.3830784 91.4616587 15.3830784 91.4616587 20.7307427 98 20.7307427 98 23 89 23 89 7 98 7"></polygon>
                <polygon id="Fill-69" fill="#3A5F76" points="100 23.0288679 100 6 111.599326 18.164968 111.599326 7.08428441 114 7.08428441 114 24 102.400674 11.8652426 102.400674 23.0288679"></polygon>
                <polygon id="Fill-71" fill="#3A5F76" points="133 9.26925727 126.461558 9.26925727 126.461558 13.1138211 132.81026 13.1138211 132.81026 15.3830784 126.461558 15.3830784 126.461558 20.7307427 133 20.7307427 133 23 124 23 124 7 133 7"></polygon>
                <path d="M138.340653,20.7307427 L139.397429,20.7307427 C140.448313,20.7307427 141.322442,20.616646 142.019818,20.3884525 C142.716658,20.1464793 143.347081,19.7634009 143.90948,19.2381149 C145.062132,18.1533692 145.638457,16.7406642 145.638457,15 C145.638457,13.2450048 145.069095,11.8218272 143.93037,10.7299159 C142.90466,9.75595976 141.393144,9.26925727 139.397429,9.26925727 L138.340653,9.26925727 L138.340653,20.7307427 Z M136,23 L136,7 L139.256561,7 C140.816283,7 142.050348,7.15819209 142.954472,7.47622985 C143.926085,7.78710211 144.806642,8.315144 145.59775,9.06256029 C147.199786,10.5678655 148,12.5471958 148,15 C148,17.4594185 147.166042,19.4486702 145.49759,20.9688577 C144.659882,21.7289514 143.783074,22.2580956 142.864488,22.5540857 C142.006427,22.8517294 140.789502,23 139.21639,23 L136,23 Z" id="Fill-73" fill="#3A5F76"></path>
                <path d="M153.446216,7 L153.446216,16.4578427 C153.446216,17.8068751 153.673381,18.7942888 154.128829,19.4179185 C154.807526,20.3192584 155.762624,20.7707403 156.994685,20.7707403 C158.234019,20.7707403 159.193034,20.3192584 159.87173,19.4179185 C160.32606,18.8137772 160.553784,17.8274462 160.553784,16.4578427 L160.553784,7 L163,7 L163,17.1161186 C163,18.7720937 162.467898,20.1357423 161.404252,21.2081472 C160.206882,22.4023549 158.737026,23 156.994685,23 C155.252343,23 153.784725,22.4023549 152.595748,21.2081472 C151.532102,20.1357423 151,18.7720937 151,17.1161186 L151,7 L153.446216,7 Z" id="Fill-75" fill="#3A5F76"></path>
                <path d="M178,8.19424986 L178,11.1177916 C176.56276,9.92184854 175.074332,9.32415922 173.53756,9.32415922 C171.84438,9.32415922 170.41624,9.92918562 169.258258,11.138674 C168.091744,12.3413897 167.508203,13.8127552 167.508203,15.5527705 C167.508203,17.2719033 168.091744,18.7229508 169.258258,19.9042196 C170.42534,21.0849241 171.854618,21.6764052 173.547797,21.6764052 C174.423109,21.6764052 175.167607,21.5341788 175.779017,21.2514193 C176.12027,21.1103217 176.474034,20.9189934 176.840312,20.6785631 C177.207726,20.4381329 177.592772,20.1480363 178,19.8082733 L178,22.7950267 C176.575841,23.5981541 175.081726,24 173.516516,24 C171.161876,24 169.149626,23.1821985 167.487159,21.5482886 C165.828674,19.9002689 165,17.9124863 165,15.5849407 C165,13.4983898 165.692742,11.637595 167.082776,10.0036851 C168.787899,8.00122838 170.996937,7 173.709323,7 C175.188651,7 176.618498,7.39845955 178,8.19424986" id="Fill-77" fill="#3A5F76"></path>
                <path d="M189.540742,16.8467846 L187.101402,11.4076883 L184.543334,16.8467846 L189.540742,16.8467846 Z M190.554198,19.1153248 L183.507722,19.1153248 L181.675661,23 L179,23 L187.142872,6 L195,23 L192.282301,23 L190.554198,19.1153248 Z" id="Fill-79" fill="#3A5F76"></path>
                <polygon id="Fill-81" fill="#3A5F76" points="200.242928 9.26925727 200.242928 23 197.767821 23 197.767821 9.26925727 194 9.26925727 194 7 204 7 204 9.26925727"></polygon>
                <mask id="mask-2" fill="white">
                    <use xlink:href="#path-1"></use>
                </mask>
                <g id="Clip-84"></g>
                <polygon id="Fill-83" fill="#3A5F76" mask="url(#mask-2)" points="205 23 207 23 207 7 205 7"></polygon>
                <path d="M212.47436,15.4573631 C212.47436,17.2678803 213.08004,18.7570674 214.286908,19.923795 C215.488162,21.0910873 216.874657,21.6750158 218.448638,21.6750158 C220.153971,21.6750158 221.593231,21.0797927 222.765296,19.8921702 C223.939046,18.6898648 224.52564,17.2255257 224.52564,15.5002824 C224.52564,13.7530146 223.945782,12.2892403 222.786066,11.1078298 C221.63477,9.91964256 220.209543,9.32611368 218.510946,9.32611368 C216.818524,9.32611368 215.389929,9.91964256 214.223477,11.1078298 C213.058148,12.2824635 212.47436,13.7321197 212.47436,15.4573631 M210,15.4308208 C210,13.1233432 210.839756,11.1411487 212.518144,9.48536691 C214.187552,7.82845564 216.197689,7 218.542942,7 C220.859567,7 222.84669,7.8357971 224.504309,9.50626183 C226.168664,11.1772913 227,13.1837691 227,15.5268246 C227,17.8839983 226.164174,19.8831346 224.493082,21.5259276 C222.815816,23.1749327 220.789401,24 218.416081,24 C216.316691,24 214.430048,23.2669834 212.759518,21.8020795 C210.920588,20.1813108 210,18.056805 210,15.4308208" id="Fill-85" fill="#3A5F76" mask="url(#mask-2)"></path>
                <polygon id="Fill-86" fill="#3A5F76" mask="url(#mask-2)" points="230 23.0288679 230 6 241.600141 18.164968 241.600141 7.08428441 244 7.08428441 244 24 232.400408 11.8652426 232.400408 23.0288679"></polygon>
                <path d="M68,27.9130191 L68,30.1487093 C66.8930603,29.2340067 65.7502844,28.7777778 64.5688282,28.7777778 C63.2650739,28.7777778 62.1678043,29.2396184 61.2764505,30.1649832 C60.3788396,31.0841751 59.930603,32.2098765 59.930603,33.540404 C59.930603,34.8552189 60.3788396,35.9635241 61.2764505,36.8681257 C62.1729238,37.7716049 63.2730375,38.2227834 64.576223,38.2227834 C65.2491468,38.2227834 65.8208191,38.1144781 66.2923777,37.8973064 C66.5534699,37.7901235 66.8265074,37.6436588 67.109215,37.4601571 C67.3902162,37.2766554 67.6865757,37.0549944 68,36.7946128 L68,39.0791246 C66.9044369,39.6930415 65.7559727,40 64.5517634,40 C62.7411832,40 61.1928328,39.3742985 59.9146758,38.1262626 C58.6376564,36.8647587 58,35.345679 58,33.5650954 C58,31.9691358 58.5335609,30.547138 59.6006826,29.2962963 C60.9146758,27.7659933 62.6137656,27 64.6996587,27 C65.837884,27 66.9374289,27.3047138 68,27.9130191" id="Fill-87" fill="#3A5F76" mask="url(#mask-2)"></path>
                <path d="M79.8940545,33.4674326 C79.8940545,34.8521078 80.3555699,35.9908431 81.2774844,36.8830771 C82.1977248,37.7758725 83.2569221,38.2217087 84.4606568,38.2217087 C85.7654003,38.2217087 86.865894,37.7668884 87.7621378,36.8600553 C88.6589397,35.939746 89.1070616,34.8201019 89.1070616,33.5005615 C89.1070616,32.1641759 88.6645203,31.0450933 87.7788796,30.1416292 C86.8977034,29.2331116 85.8066967,28.7794143 84.509766,28.7794143 C83.2133934,28.7794143 82.1212707,29.2331116 81.2311655,30.1416292 C80.33827,31.0394782 79.8940545,32.1490152 79.8940545,33.4674326 M78,33.4477799 C78,31.6829648 78.6434428,30.1674585 79.9253059,28.9012612 C81.2027044,27.6339409 82.7384847,27 84.5332046,27 C86.3044859,27 87.8229663,27.639556 89.0897618,28.9169834 C90.3621378,30.1944109 91,31.7290083 91,33.5207757 C91,35.3220888 90.3604636,36.8527557 89.083065,38.1082844 C87.8000859,39.3694281 86.2520283,40 84.4361022,40 C82.8311226,40 81.3890964,39.4396164 80.1122558,38.3182878 C78.7037132,37.0807274 78,35.4562889 78,33.4477799" id="Fill-88" fill="#3A5F76" mask="url(#mask-2)"></path>
                <polygon id="Fill-89" fill="#3A5F76" mask="url(#mask-2)" points="102 40.2451198 102 27 111.114414 36.461276 111.114414 27.8431995 113 27.8431995 113 41 103.884464 31.5620536 103.884464 40.2451198"></polygon>
                <path d="M130.676462,29.1022232 L129.148894,30.0107921 C128.86398,29.5130153 128.59082,29.1880855 128.332774,29.0376862 C128.064652,28.8637168 127.715925,28.7772933 127.291072,28.7772933 C126.768262,28.7772933 126.335572,28.9265703 125.990204,29.2234405 C125.646516,29.5158213 125.472992,29.8839629 125.472992,30.3278653 C125.472992,30.9401252 125.925273,31.4317289 126.830954,31.8066048 L128.074727,32.317289 C129.086762,32.7303259 129.826756,33.2309087 130.29583,33.8240881 C130.765463,34.4172674 131,35.1440104 131,36.004878 C131,37.1575653 130.617688,38.1115908 129.851385,38.8635873 C129.080605,39.6211958 128.125665,40 126.984887,40 C125.901203,40 125.008396,39.6767537 124.302547,39.0302612 C123.607893,38.3854522 123.174083,37.4757608 123,36.3090438 L124.907641,35.8859055 C124.994402,36.6216275 125.143857,37.1295057 125.360481,37.411785 C125.747831,37.9522124 126.313742,38.2227067 127.056535,38.2227067 C127.643157,38.2227067 128.131822,38.0262897 128.517492,37.6317721 C128.907081,37.2372545 129.100196,36.7355493 129.100196,36.1305849 C129.100196,35.8870278 129.06717,35.664796 128.998321,35.4627671 C128.93283,35.2596158 128.826476,35.072739 128.683179,34.902698 C128.541562,34.7320958 128.357403,34.5721563 128.131822,34.4245629 C127.904002,34.2758472 127.634761,34.1327434 127.323538,33.9980574 L126.119507,33.4957911 C124.412259,32.7718541 123.559194,31.7117634 123.559194,30.3160803 C123.559194,29.3760846 123.916317,28.588733 124.633361,27.9573926 C125.349846,27.3187567 126.240974,27 127.307305,27 C128.745312,27 129.868738,27.7009281 130.676462,29.1022232" id="Fill-90" fill="#3A5F76" mask="url(#mask-2)"></path>
                <path d="M142.891985,33.4674326 C142.891985,34.8521078 143.355772,35.9908431 144.278324,36.8830771 C145.196969,37.7758725 146.256815,38.2217087 147.460095,38.2217087 C148.764393,38.2217087 149.866097,37.7668884 150.763534,36.8600553 C151.657622,35.939746 152.108573,34.8201019 152.108573,33.5005615 C152.108573,32.1641759 151.66432,31.0450933 150.778603,30.1416292 C149.897909,29.2331116 148.807925,28.7794143 147.508651,28.7794143 C146.213283,28.7794143 145.121625,29.2331116 144.22921,30.1416292 C143.337355,31.0394782 142.891985,32.1490152 142.891985,33.4674326 M141,33.4477799 C141,31.6829648 141.642382,30.1674585 142.924913,28.9012612 C144.202421,27.6339409 145.73945,27 147.533207,27 C149.305757,27 150.823252,27.639556 152.091272,28.9169834 C153.363199,30.1944109 154,31.7290083 154,33.5207757 C154,35.3220888 153.360409,36.8527557 152.084017,38.1082844 C150.800369,39.3694281 149.251063,40 147.436097,40 C145.829863,40 144.388829,39.4396164 143.110205,38.3182878 C141.703774,37.0807274 141,35.4562889 141,33.4477799" id="Fill-91" fill="#3A5F76" mask="url(#mask-2)"></path>
                <path d="M165.861276,33.5100999 L166.45272,33.5100999 C168.217084,33.5100999 169.098159,32.854929 169.098159,31.5435123 C169.098159,30.3154029 168.240897,29.7016169 166.525267,29.7016169 L165.861276,29.7016169 L165.861276,33.5100999 Z M168.179981,34.8860125 L172,40 L169.722276,40 L166.197425,35.0875621 L165.861276,35.0875621 L165.861276,40 L164,40 L164,28 L166.181365,28 C167.811159,28 168.988509,28.2972186 169.713969,28.8938057 C170.513083,29.5570386 170.913471,30.432033 170.913471,31.5204013 C170.913471,32.3695973 170.662606,33.1010884 170.161983,33.712187 C169.660252,34.3243606 169.000138,34.7145608 168.179981,34.8860125 L168.179981,34.8860125 Z" id="Fill-92" fill="#3A5F76" mask="url(#mask-2)"></path>
                <polygon id="Fill-93" fill="#3A5F76" mask="url(#mask-2)" points="185.993601 29.7016169 185.993601 40 184.015226 40 184.015226 29.7016169 181 29.7016169 181 28 189 28 189 29.7016169"></polygon>
                <polygon id="Fill-94" fill="#3A5F76" mask="url(#mask-2)" points="198 40 200 40 200 28 198 28"></polygon>
                <path d="M212.834162,28 L212.834162,35.6852756 C212.834162,36.7816198 213.004426,37.5840042 213.345501,38.0901412 C213.855203,38.8227531 214.571732,39.188773 215.495634,39.188773 C216.424994,39.188773 217.144252,38.8227531 217.652862,38.0901412 C217.995028,37.5994457 218.165838,36.798777 218.165838,35.6852756 L218.165838,28 L220,28 L220,36.2205798 C220,37.5657032 219.601079,38.6740575 218.803784,39.5450706 C217.906076,40.5150235 216.803723,41 215.495634,41 C214.187545,41 213.087921,40.5150235 212.196216,39.5450706 C211.398921,38.6740575 211,37.5657032 211,36.2205798 L211,28 L212.834162,28 Z" id="Fill-95" fill="#3A5F76" mask="url(#mask-2)"></path>
                <polygon id="Fill-96" fill="#3A5F76" mask="url(#mask-2)" points="231 40.4256152 233.683553 27 238.057766 36.7058166 242.589264 27 245 40.4256152 243.025084 40.4256152 241.795408 32.8881432 238.024022 41 234.359016 32.8797539 232.989215 40.4256152"></polygon>
                <polygon id="Fill-97" fill="#3A5F76" mask="url(#mask-2)" points="2.49708475 58.9934775 2.49708475 65 1.50779661 65 1.50779661 58.9934775 0 58.9934775 0 58 4 58 4 58.9934775"></polygon>
                <path d="M7,57 L8.07406279,57 L8.07406279,60.299215 C8.45626333,60.0006793 8.87686681,59.8511473 9.33831149,59.8511473 C9.86376105,59.8511473 10.283755,59.9990942 10.5982932,60.2949879 C10.8658945,60.5523098 11,60.9623339 11,61.5255888 L11,64 L9.92532764,64 L9.92532764,61.6127717 C9.92532764,61.2894022 9.85949406,61.0558575 9.72782688,60.9100242 C9.59555014,60.7652476 9.38281012,60.6923309 9.09082597,60.6923309 C8.71472112,60.6923309 8.45138677,60.7937802 8.29838464,60.995622 C8.14903993,61.2001057 8.07406279,61.5509511 8.07406279,62.0486866 L8.07406279,64 L7,64 L7,57 Z" id="Fill-98" fill="#3A5F76" mask="url(#mask-2)"></path>
                <path d="M16.9808814,61.4886026 C16.8474576,61.0222993 16.5263729,60.7888999 16.0170847,60.7888999 C15.9010169,60.7888999 15.792,60.8052527 15.6900339,60.8379584 C15.5880678,60.8701685 15.495322,60.9167493 15.4117966,60.9777007 C15.3282712,61.0386521 15.256678,61.1114965 15.1975593,61.197225 C15.1384407,61.2824579 15.0928814,61.3800793 15.0619661,61.4886026 L16.9808814,61.4886026 Z M17.9620339,62.203667 L14.9979661,62.203667 C15.0229153,62.5153617 15.1341017,62.7621407 15.3288136,62.9464817 C15.5240678,63.1283449 15.7746441,63.2185332 16.0805424,63.2185332 C16.3181017,63.2185332 16.5149831,63.166997 16.6711864,63.0634291 C16.8235932,62.9598612 16.9971525,62.7675917 17.1934915,62.488107 L18,62.8999009 C17.8747119,63.0941526 17.7434576,63.2606541 17.6046102,63.3989098 C17.4663051,63.5381566 17.3171525,63.6516353 17.1587797,63.7418236 C17.0004068,63.8310208 16.8290169,63.8959366 16.6451525,63.9375619 C16.4612881,63.9786918 16.2616949,64 16.0463729,64 C15.4296949,64 14.9345085,63.8181368 14.5602712,63.4558969 C14.1871186,63.0901883 14,62.60555 14,62.0014866 C14,61.4033697 14.1811525,60.9187314 14.5434576,60.5480674 C14.9084746,60.1828543 15.3922712,60 15.9953898,60 C16.6044746,60 17.0855593,60.1774034 17.4397288,60.5322101 C17.7901017,60.8850347 17.9652881,61.3736373 17.9652881,61.9975223 L17.9620339,62.203667 Z" id="Fill-99" fill="#3A5F76" mask="url(#mask-2)"></path>
                <path d="M30.0404673,60.3619373 L33,60.3619373 L33,60.5846191 C33,61.0917767 32.9371825,61.5399237 32.8097697,61.9296167 C32.6859126,62.2909178 32.4773112,62.6282806 32.1833728,62.9433752 C31.5178632,63.6476062 30.6721978,64 29.6457839,64 C28.6442601,64 27.7849644,63.659297 27.0708601,62.9778909 C26.3561632,62.294258 26,61.4731191 26,60.515031 C26,59.5369015 26.362682,58.7068554 27.0898239,58.026006 C27.8163732,57.3418164 28.7005588,57 29.7435659,57 C30.302997,57 30.8256857,57.1068872 31.3116322,57.3217751 C31.7750593,57.5361063 32.2313749,57.8840464 32.6799865,58.3667091 L31.9095835,59.0609194 C31.3217067,58.3243996 30.6064172,57.9558613 29.7613444,57.9558613 C29.003979,57.9558613 28.3686929,58.2024813 27.8548933,58.6940512 C27.3416864,59.1772706 27.085083,59.7829648 27.085083,60.5111341 C27.085083,61.2615715 27.3713173,61.8811834 27.9431934,62.3671863 C28.4783271,62.8181167 29.0584998,63.0430253 29.6825262,63.0430253 C30.2146969,63.0430253 30.6929394,62.8749006 31.1160684,62.5380945 C31.53979,62.1985049 31.7768371,61.791554 31.826617,61.318912 L30.0404673,61.318912 L30.0404673,60.3619373 Z" id="Fill-100" fill="#3A5F76" mask="url(#mask-2)"></path>
                <polygon id="Fill-101" fill="#3A5F76" mask="url(#mask-2)" points="36 64 36.7591837 64 36.7591837 57 36 57"></polygon>
                <path d="M41.1070814,61.9861249 C41.1070814,62.3647175 41.2318662,62.6640238 41.4820507,62.8840436 C41.7383821,63.1075322 42.0776985,63.2185332 42.4975412,63.2185332 C42.921072,63.2185332 43.2597738,63.1090188 43.5130317,62.8880079 C43.7662896,62.6679881 43.8935333,62.3741328 43.8935333,62.0059465 C43.8935333,61.6382557 43.7662896,61.3434093 43.5130317,61.123885 C43.2567003,60.900892 42.9179985,60.7888999 42.4975412,60.7888999 C42.0838456,60.7888999 41.7482174,60.900892 41.4918859,61.123885 C41.2349398,61.3463826 41.1070814,61.6337958 41.1070814,61.9861249 M40,61.9707631 C40,61.4236868 40.2421933,60.9593657 40.7265798,60.5753221 C41.211581,60.191774 41.8016966,60 42.4975412,60 C43.1964593,60 43.7902631,60.1937562 44.2777231,60.5792864 C44.7596508,60.9653122 45,61.4395441 45,62.0014866 C45,62.5698712 44.7578067,63.0450942 44.2728055,63.4281467 C43.7853455,63.8097126 43.1878535,64 42.4784854,64 C41.775879,64 41.1869929,63.8057483 40.7118269,63.4167493 C40.2372756,63.0332012 40,62.5515362 40,61.9707631" id="Fill-102" fill="#3A5F76" mask="url(#mask-2)"></path>
                <path d="M51.0705715,61.9287942 C51.0705715,61.5488565 50.9683912,61.2380457 50.7629983,60.9994802 C50.5560573,60.7546778 50.2959618,60.6320166 49.983744,60.6320166 C49.6498516,60.6320166 49.3778867,60.7505198 49.1673332,60.9870062 C48.9598761,61.220894 48.8566637,61.5254678 48.8566637,61.8996881 C48.8566637,62.2858628 48.958844,62.5945946 49.1637208,62.8258836 C49.3680815,63.0623701 49.6374661,63.1803534 49.9718746,63.1803534 C50.2861566,63.1803534 50.5478003,63.0623701 50.7552574,62.8258836 C50.9658109,62.5867983 51.0705715,62.287422 51.0705715,61.9287942 L51.0705715,61.9287942 Z M48.908786,57 L48.908786,60.3757796 C49.27261,59.9948025 49.6844278,59.8045738 50.1452716,59.8045738 C50.6757838,59.8045738 51.1175332,60.0046778 51.4700039,60.4033264 C51.8229906,60.8004158 52,61.295738 52,61.8877339 C52,62.5 51.8214424,63.0051975 51.4669075,63.4043659 C51.1134047,63.8014553 50.6680428,64 50.1287576,64 C49.6741066,64 49.2669333,63.8238046 48.908786,63.4698545 L48.908786,63.8856549 L48,63.8856549 L48,57 L48.908786,57 Z" id="Fill-103" fill="#3A5F76" mask="url(#mask-2)"></path>
                <path d="M55.9295484,61.9861249 C55.9295484,62.3488603 56.0301935,62.6446977 56.2325161,62.8726462 C56.4394839,63.1035679 56.7011613,63.2185332 57.0154839,63.2185332 C57.3530323,63.2185332 57.6250323,63.1075322 57.8325161,62.8840436 C58.0394839,62.654113 58.1432258,62.3607532 58.1432258,62.0059465 C58.1432258,61.6506442 58.0394839,61.35778 57.8325161,61.1278494 C57.6250323,60.9018831 57.3556129,60.7888999 57.0242581,60.7888999 C56.7114839,60.7888999 56.4503226,60.9028741 56.2407742,61.1313181 C56.0327742,61.3617443 55.9295484,61.6466799 55.9295484,61.9861249 L55.9295484,61.9861249 Z M58.0869677,60.1050545 L59,60.1050545 L59,63.8909812 L58.0869677,63.8909812 L58.0869677,63.4945491 C57.7122581,63.8320119 57.3096774,64 56.8787097,64 C56.3347097,64 55.8846452,63.8107037 55.5295484,63.432111 C55.1765161,63.0465808 55,62.5644202 55,61.9861249 C55,61.4187314 55.1765161,60.9454906 55.5295484,60.5673935 C55.8815484,60.1892963 56.323871,60 56.8549677,60 C57.3122581,60 57.7236129,60.1813677 58.0869677,60.5445986 L58.0869677,60.1050545 Z" id="Fill-104" fill="#3A5F76" mask="url(#mask-2)"></path>
                <polygon id="Fill-105" fill="#3A5F76" mask="url(#mask-2)" points="63 64 63.7591837 64 63.7591837 57 63 57"></polygon>
                <polygon id="Fill-106" fill="#3A5F76" mask="url(#mask-2)" points="73 64.5682001 73 57 77.9714286 62.4074453 77.9714286 57.482118 79 57.482118 79 65 74.0291353 59.607182 74.0291353 64.5682001"></polygon>
                <path d="M84.9808814,61.4886026 C84.8474576,61.0222993 84.5263729,60.7888999 84.0170847,60.7888999 C83.9010169,60.7888999 83.792,60.8052527 83.6900339,60.8379584 C83.5880678,60.8701685 83.495322,60.9167493 83.4117966,60.9777007 C83.3282712,61.0386521 83.2572203,61.1114965 83.1975593,61.197225 C83.1384407,61.2824579 83.0928814,61.3800793 83.0619661,61.4886026 L84.9808814,61.4886026 Z M85.9620339,62.203667 L82.9979661,62.203667 C83.0234576,62.5153617 83.1341017,62.7621407 83.3293559,62.9464817 C83.5240678,63.1283449 83.7746441,63.2185332 84.0805424,63.2185332 C84.3181017,63.2185332 84.5155254,63.166997 84.6711864,63.0634291 C84.8235932,62.9598612 84.9971525,62.7675917 85.1934915,62.488107 L86,62.8999009 C85.8752542,63.0941526 85.7434576,63.2606541 85.6046102,63.3989098 C85.4663051,63.5381566 85.3176949,63.6516353 85.1587797,63.7418236 C85.0009492,63.8310208 84.8295593,63.8959366 84.6451525,63.9375619 C84.4612881,63.9786918 84.2616949,64 84.0463729,64 C83.4296949,64 82.9345085,63.8181368 82.5602712,63.4558969 C82.1871186,63.0901883 82,62.60555 82,62.0014866 C82,61.4033697 82.1816949,60.9187314 82.5434576,60.5480674 C82.9090169,60.1828543 83.3922712,60 83.9959322,60 C84.6044746,60 85.0855593,60.1774034 85.4397288,60.5322101 C85.7901017,60.8850347 85.9652881,61.3736373 85.9652881,61.9975223 L85.9620339,62.203667 Z" id="Fill-107" fill="#3A5F76" mask="url(#mask-2)"></path>
                <polygon id="Fill-108" fill="#3A5F76" mask="url(#mask-2)" points="90.2948751 60.555992 90.2948751 64 89.3868143 64 89.3868143 60.555992 89 60.555992 89 59.6093496 89.3868143 59.6093496 89.3868143 58 90.2948751 58 90.2948751 59.6093496 91 59.6093496 91 60.555992"></polygon>
                <polygon id="Fill-109" fill="#3A5F76" mask="url(#mask-2)" points="95.131983 60.3916508 96.2731134 62.8386264 97.504002 60 98.7440379 62.8386264 99.8720189 60.3916508 101 60.3916508 98.7171676 65 97.504002 62.2399282 96.277687 65 94 60.3916508"></polygon>
                <path d="M104.107218,61.9861249 C104.107218,62.3647175 104.232018,62.6640238 104.481618,62.8840436 C104.738596,63.1075322 105.077339,63.2185332 105.497848,63.2185332 C105.921431,63.2185332 106.25956,63.1090188 106.513464,62.8880079 C106.766753,62.6679881 106.893397,62.3741328 106.893397,62.0059465 C106.893397,61.6382557 106.766753,61.3434093 106.513464,61.123885 C106.256486,60.900892 105.918357,60.7888999 105.497848,60.7888999 C105.083487,60.7888999 104.748432,60.900892 104.491455,61.123885 C104.235092,61.3463826 104.107218,61.6337958 104.107218,61.9861249 M103,61.9707631 C103,61.4236868 103.242223,60.9593657 103.726669,60.5753221 C104.211115,60.191774 104.801303,60 105.497848,60 C106.196852,60 106.790729,60.1937562 107.278249,60.5792864 C107.759621,60.9653122 108,61.4395441 108,62.0014866 C108,62.5698712 107.757777,63.0450942 107.273331,63.4281467 C106.785811,63.8097126 106.187631,64 105.478175,64 C104.776097,64 104.187139,63.8057483 103.711914,63.4167493 C103.237305,63.0332012 103,62.5515362 103,61.9707631" id="Fill-110" fill="#3A5F76" mask="url(#mask-2)"></path>
                <path d="M111,60.107998 L112.059567,60.107998 L112.059567,60.4559348 C112.254513,60.2827305 112.427196,60.1640346 112.577617,60.0998472 C112.731649,60.033622 112.913959,60 113.123947,60 C113.40373,60 113.694946,60.0774325 114,60.2317881 L113.515644,61.0545084 C113.314681,60.9322466 113.118532,60.8716251 112.926594,60.8716251 C112.348375,60.8716251 112.059567,61.2419766 112.059567,61.9821701 L112.059567,64 L111,64 L111,60.107998 Z" id="Fill-111" fill="#3A5F76" mask="url(#mask-2)"></path>
                <polygon id="Fill-112" fill="#3A5F76" mask="url(#mask-2)" points="118.028755 57 118.028755 61.2687953 119.477303 59.9631643 120.858123 59.9631643 118.924974 61.6582126 121 64 119.665304 64 118.193402 62.297026 118.028755 62.4460296 118.028755 64 117 64 117 57"></polygon>
                <path d="M129.110802,60.8838039 L129.110802,64 L128.290218,64 L128.290218,60.8838039 L128,60.8838039 L128,60.027266 L128.290218,60.027266 L128.290218,58.4925706 C128.290218,57.9927935 128.368104,57.6396731 128.522949,57.4321694 C128.735744,57.1445765 129.045433,57 129.452017,57 C129.597126,57 129.779787,57.0478455 130,57.1430163 L130,58.0812036 L129.916551,58.032838 C129.739917,57.9319465 129.594808,57.8815007 129.481224,57.8815007 C129.335651,57.8815007 129.23783,57.9397474 129.186834,58.0567608 C129.1363,58.1706538 129.110802,58.391159 129.110802,58.7172363 L129.110802,60.027266 L130,60.027266 L130,60.8838039 L129.110802,60.8838039 Z" id="Fill-113" fill="#3A5F76" mask="url(#mask-2)"></path>
                <path d="M134.107081,61.9861249 C134.107081,62.3647175 134.231866,62.6640238 134.482051,62.8840436 C134.738382,63.1075322 135.077699,63.2185332 135.497541,63.2185332 C135.921072,63.2185332 136.259774,63.1090188 136.513032,62.8880079 C136.766904,62.6679881 136.893533,62.3741328 136.893533,62.0059465 C136.893533,61.6382557 136.766904,61.3434093 136.513032,61.123885 C136.2567,60.900892 135.917999,60.7888999 135.497541,60.7888999 C135.083846,60.7888999 134.748217,60.900892 134.491886,61.123885 C134.235554,61.3463826 134.107081,61.6337958 134.107081,61.9861249 M133,61.9707631 C133,61.4236868 133.242193,60.9593657 133.727194,60.5753221 C134.211581,60.191774 134.801697,60 135.497541,60 C136.196459,60 136.790263,60.1937562 137.277723,60.5792864 C137.759651,60.9653122 138,61.4395441 138,62.0014866 C138,62.5698712 137.757807,63.0450942 137.272806,63.4281467 C136.785345,63.8097126 136.187853,64 135.478485,64 C134.775879,64 134.186993,63.8057483 133.711827,63.4167493 C133.237276,63.0332012 133,62.5515362 133,61.9707631" id="Fill-114" fill="#3A5F76" mask="url(#mask-2)"></path>
                <path d="M141,60.107998 L142.059956,60.107998 L142.059956,60.4559348 C142.254863,60.2827305 142.42691,60.1640346 142.577903,60.0998472 C142.731903,60.033622 142.914177,60 143.123521,60 C143.403248,60 143.695007,60.0774325 144,60.2317881 L143.515139,61.0545084 C143.314217,60.9322466 143.118107,60.8716251 142.926208,60.8716251 C142.348105,60.8716251 142.059956,61.2419766 142.059956,61.9821701 L142.059956,64 L141,64 L141,60.107998 Z" id="Fill-115" fill="#3A5F76" mask="url(#mask-2)"></path>
                <path d="M152.019391,60.4818855 C152.019391,61.2276455 152.26759,61.8407517 152.765651,62.3212039 C153.259834,62.8016562 153.831025,63.0418823 154.478116,63.0418823 C155.181163,63.0418823 155.773407,62.7971972 156.25651,62.3078271 C156.740166,61.8128832 156.980609,61.2103671 156.980609,60.4997213 C156.980609,59.7801577 156.741828,59.1776415 156.265374,58.6910582 C155.791136,58.201688 155.203878,57.9570029 154.504155,57.9570029 C153.807756,57.9570029 153.218837,58.201688 152.739058,58.6910582 C152.259834,59.1742973 152.019391,59.7717971 152.019391,60.4818855 M151,60.4712955 C151,59.520981 151.345152,58.7049924 152.036011,58.0227725 C152.724654,57.3405526 153.551801,57 154.517452,57 C155.471468,57 156.289751,57.3438968 156.971745,58.0316904 C157.657618,58.719484 158,59.5455052 158,60.5108687 C158,61.4806911 157.655956,62.3050402 156.968421,62.9805717 C156.277008,63.6600048 155.442659,64 154.465374,64 C153.600554,64 152.824931,63.6979059 152.136288,63.094275 C151.378947,62.4265467 151,61.5525918 151,60.4712955" id="Fill-116" fill="#3A5F76" mask="url(#mask-2)"></path>
                <path d="M164.070452,62.3774355 C164.070452,61.9513739 163.968258,61.602831 163.763355,61.3353039 C163.556387,61.0636969 163.29471,60.9278934 162.979355,60.9278934 C162.645419,60.9278934 162.374968,61.0590341 162.167484,61.3213156 C161.96,61.583597 161.856774,61.92806 161.856774,62.3541216 C161.856774,62.7720233 161.96,63.1170691 162.167484,63.3875104 C162.371871,63.6527061 162.64129,63.7855953 162.975226,63.7855953 C163.290581,63.7855953 163.55071,63.6521232 163.755613,63.3834305 C163.965677,63.1153206 164.070452,62.7796003 164.070452,62.3774355 L164.070452,62.3774355 Z M161.908903,67 L161,67 L161,60.1235637 L161.908903,60.1235637 L161.908903,60.6079101 C162.267097,60.202831 162.673806,60 163.129032,60 C163.670452,60 164.116387,60.225562 164.466839,60.6766861 C164.821935,61.1248959 165,61.6902581 165,62.3727727 C165,63.0407161 164.823484,63.5967527 164.469935,64.0408826 C164.120516,64.4832639 163.67871,64.704746 163.145548,64.704746 C162.684645,64.704746 162.272774,64.4960866 161.908903,64.0781848 L161.908903,67 Z" id="Fill-117" fill="#3A5F76" mask="url(#mask-2)"></path>
                <path d="M171.980881,61.4886026 C171.847458,61.0222993 171.526373,60.7888999 171.017085,60.7888999 C170.901017,60.7888999 170.792,60.8052527 170.690034,60.8379584 C170.588068,60.8701685 170.495322,60.9167493 170.411797,60.9777007 C170.328271,61.0386521 170.256678,61.1114965 170.197017,61.197225 C170.138441,61.2824579 170.092339,61.3800793 170.061966,61.4886026 L171.980881,61.4886026 Z M172.962034,62.203667 L169.997966,62.203667 C170.023458,62.5153617 170.134102,62.7621407 170.328814,62.9464817 C170.524068,63.1283449 170.774644,63.2185332 171.080542,63.2185332 C171.318102,63.2185332 171.514983,63.166997 171.671186,63.0634291 C171.823593,62.9598612 171.997153,62.7675917 172.193492,62.488107 L173,62.8999009 C172.874712,63.0941526 172.743458,63.2606541 172.60461,63.3989098 C172.466305,63.5381566 172.317153,63.6516353 172.15878,63.7418236 C172.000407,63.8310208 171.829017,63.8959366 171.645153,63.9375619 C171.461288,63.9786918 171.261695,64 171.046373,64 C170.429695,64 169.934508,63.8181368 169.560271,63.4558969 C169.186576,63.0901883 169,62.60555 169,62.0014866 C169,61.4033697 169.181153,60.9187314 169.543458,60.5480674 C169.908475,60.1828543 170.392271,60 170.99539,60 C171.604475,60 172.085559,60.1774034 172.439729,60.5322101 C172.790102,60.8850347 172.965288,61.3736373 172.965288,61.9975223 L172.962034,62.203667 Z" id="Fill-118" fill="#3A5F76" mask="url(#mask-2)"></path>
                <path d="M176,60.107998 L177.077954,60.107998 L177.077954,60.4676516 C177.452497,60.1563933 177.875152,60 178.34592,60 C178.886114,60 179.307552,60.1421294 179.609013,60.4279165 C179.869671,60.6704024 180,61.0657157 180,61.6143658 L180,64 L178.922655,64 L178.922655,61.8288334 C178.922655,61.4457463 178.858709,61.1808456 178.732034,61.0346409 C178.607795,60.8853795 178.38246,60.8110036 178.05542,60.8110036 C177.699147,60.8110036 177.446407,60.9093225 177.29659,61.1064697 C177.151035,61.3005604 177.077954,61.6403464 177.077954,62.1242995 L177.077954,64 L176,64 L176,60.107998 Z" id="Fill-119" fill="#3A5F76" mask="url(#mask-2)"></path>
                <polygon id="Fill-120" fill="#3A5F76" mask="url(#mask-2)" points="192 58.9934775 189.093689 58.9934775 189.093689 60.6752807 191.915455 60.6752807 191.915455 61.6681803 189.093689 61.6681803 189.093689 64.0076783 192 64.0076783 192 65 188 65 188 58 192 58"></polygon>
                <path d="M195.929548,61.8877339 C195.929548,62.2681913 196.030194,62.5784823 196.232516,62.8175676 C196.439484,63.0597713 196.701161,63.1803534 197.016,63.1803534 C197.353032,63.1803534 197.625032,63.0639293 197.832516,62.8295218 C198.04,62.5883576 198.143742,62.2806653 198.143742,61.9085239 C198.143742,61.5358628 198.04,61.2286902 197.832516,60.987526 C197.625032,60.7505198 197.355613,60.6320166 197.024258,60.6320166 C196.711484,60.6320166 196.450323,60.7515593 196.240774,60.9911642 C196.032774,61.2328482 195.929548,61.5317048 195.929548,61.8877339 L195.929548,61.8877339 Z M198.086968,57 L199,57 L199,63.8856549 L198.086968,63.8856549 L198.086968,63.4698545 C197.728258,63.8238046 197.323097,64 196.870452,64 C196.331613,64 195.884645,63.8014553 195.529548,63.4043659 C195.176516,63 195,62.4942827 195,61.8877339 C195,61.295738 195.176516,60.8004158 195.529548,60.4038462 C195.878968,60.0046778 196.320258,59.8045738 196.850839,59.8045738 C197.311226,59.8045738 197.723613,59.9948025 198.086968,60.3757796 L198.086968,57 Z" id="Fill-121" fill="#3A5F76" mask="url(#mask-2)"></path>
                <path d="M204.081977,60 L204.081977,62.2315522 C204.081977,62.8753181 204.388394,63.1974555 205,63.1974555 C205.61222,63.1974555 205.918023,62.8753181 205.918023,62.2315522 L205.918023,60 L207,60 L207,62.2519084 C207,62.5628499 206.953945,62.8310433 206.859994,63.0580153 C206.770955,63.2600509 206.615597,63.4427481 206.394535,63.6045802 C206.029168,63.8681934 205.563709,64 205,64 C204.439361,64 203.976359,63.8681934 203.610992,63.6045802 C203.386245,63.4427481 203.227817,63.2600509 203.135094,63.0580153 C203.045441,62.8768448 203,62.6081425 203,62.2519084 L203,60 L204.081977,60 Z" id="Fill-122" fill="#3A5F76" mask="url(#mask-2)"></path>
                <path d="M213,60.2680872 L213,61.4306244 C212.808866,61.1868186 212.636797,61.0203171 212.485224,60.9291378 C212.335558,60.8359762 212.160629,60.7888999 211.959009,60.7888999 C211.642993,60.7888999 211.380839,60.9043608 211.172069,61.1352825 C210.963298,61.3657086 210.858437,61.6551041 210.858437,62.0014866 C210.858437,62.3567889 210.959009,62.648662 211.160629,62.8766105 C211.364633,63.1050545 211.624404,63.2185332 211.939943,63.2185332 C212.141563,63.2185332 212.319828,63.173439 212.473785,63.0827552 C212.623451,62.9945491 212.798856,62.8230922 213,62.5698712 L213,63.7244797 C212.659199,63.9078295 212.318398,64 211.977598,64 C211.415634,64 210.945186,63.8102081 210.567207,63.432111 C210.189228,63.0515362 210,62.5782953 210,62.0133796 C210,61.4489594 210.191134,60.9717542 210.574833,60.5832507 C210.958055,60.1947473 211.428027,60 211.985224,60 C212.343661,60 212.681602,60.0896928 213,60.2680872" id="Fill-123" fill="#3A5F76" mask="url(#mask-2)"></path>
                <path d="M216.929428,61.9861249 C216.929428,62.3488603 217.030577,62.6446977 217.232873,62.8726462 C217.439814,63.1035679 217.701458,63.2185332 218.01574,63.2185332 C218.352729,63.2185332 218.62521,63.1075322 218.832667,62.8840436 C219.039608,62.654113 219.143336,62.3607532 219.143336,62.0059465 C219.143336,61.6506442 219.039608,61.35778 218.832667,61.1278494 C218.62521,60.9018831 218.355825,60.7888999 218.023997,60.7888999 C217.711779,60.7888999 217.450652,60.9028741 217.24113,61.1313181 C217.033157,61.3617443 216.929428,61.6466799 216.929428,61.9861249 L216.929428,61.9861249 Z M219.087086,60.1050545 L220,60.1050545 L220,63.8909812 L219.087086,63.8909812 L219.087086,63.4945491 C218.712424,63.8320119 218.309895,64 217.878983,64 C217.335054,64 216.885047,63.8107037 216.52948,63.432111 C216.177009,63.0465808 216,62.5644202 216,61.9861249 C216,61.4187314 216.177009,60.9454906 216.52948,60.5673935 C216.881951,60.1892963 217.324216,60 217.854728,60 C218.312476,60 218.723778,60.1813677 219.087086,60.5445986 L219.087086,60.1050545 Z" id="Fill-124" fill="#3A5F76" mask="url(#mask-2)"></path>
                <polygon id="Fill-125" fill="#3A5F76" mask="url(#mask-2)" points="225.294542 60.555992 225.294542 64 224.38723 64 224.38723 60.555992 224 60.555992 224 59.6093496 224.38723 59.6093496 224.38723 58 225.294542 58 225.294542 59.6093496 226 59.6093496 226 60.555992"></polygon>
                <path d="M229.087738,65 L229.670783,65 L229.670783,60.5258094 L229.087738,60.5258094 L229.087738,65 Z M229,58.6652723 C229,58.4848992 229.036751,58.3279511 229.111245,58.1967707 C229.185078,58.0650046 229.274472,58 229.377771,58 C229.483388,58 229.573444,58.0650046 229.647607,58.1967707 C229.721771,58.3256086 229.759184,58.4837279 229.759184,58.6699573 C229.759184,58.8567724 229.721771,59.0160629 229.647607,59.1484146 C229.575099,59.2795951 229.485705,59.3451853 229.38042,59.3451853 C229.275465,59.3451853 229.185078,59.2795951 229.111245,59.1484146 C229.036751,59.0160629 229,58.8556011 229,58.6652723 L229,58.6652723 Z" id="Fill-126" fill="#3A5F76" mask="url(#mask-2)"></path>
                <path d="M234.107218,61.9861249 C234.107218,62.3647175 234.232018,62.6640238 234.481618,62.8840436 C234.738596,63.1075322 235.077339,63.2185332 235.497848,63.2185332 C235.921431,63.2185332 236.25956,63.1090188 236.513464,62.8880079 C236.766753,62.6679881 236.893397,62.3741328 236.893397,62.0059465 C236.893397,61.6382557 236.766753,61.3434093 236.513464,61.123885 C236.256486,60.900892 235.918357,60.7888999 235.497848,60.7888999 C235.083487,60.7888999 234.748432,60.900892 234.491455,61.123885 C234.235092,61.3463826 234.107218,61.6337958 234.107218,61.9861249 M233,61.9707631 C233,61.4236868 233.242223,60.9593657 233.726669,60.5753221 C234.211115,60.191774 234.801303,60 235.497848,60 C236.196852,60 236.790729,60.1937562 237.278249,60.5792864 C237.759621,60.9653122 238,61.4395441 238,62.0014866 C238,62.5698712 237.757777,63.0450942 237.273331,63.4281467 C236.785811,63.8097126 236.187631,64 235.478175,64 C234.776097,64 234.187139,63.8057483 233.711914,63.4167493 C233.237305,63.0332012 233,62.5515362 233,61.9707631" id="Fill-127" fill="#3A5F76" mask="url(#mask-2)"></path>
                <path d="M241,60.107998 L242.077345,60.107998 L242.077345,60.4676516 C242.452497,60.1563933 242.875152,60 243.34592,60 C243.886114,60 244.306943,60.1421294 244.609013,60.4279165 C244.869671,60.6704024 245,61.0657157 245,61.6143658 L245,64 L243.922046,64 L243.922046,61.8288334 C243.922046,61.4457463 243.858709,61.1808456 243.731425,61.0346409 C243.607186,60.8853795 243.38246,60.8110036 243.054811,60.8110036 C242.698538,60.8110036 242.446407,60.9093225 242.29659,61.1064697 C242.150426,61.3005604 242.077345,61.6403464 242.077345,62.1242995 L242.077345,64 L241,64 L241,60.107998 Z" id="Fill-128" fill="#3A5F76" mask="url(#mask-2)"></path>
            </g>
        </g>
    </g>
</svg>