<svg width="306" height="92" viewBox="0 0 306 92" fill="none" xmlns="http://www.w3.org/2000/svg">
<path fill-rule="evenodd" clip-rule="evenodd" d="M197.67 36.5191C198.552 37.4806 199.799 38.0217 201.102 38.0077C202.423 38.0164 203.661 37.3651 204.403 36.271V37.8093H207.432V23.2041H204.403V28.5301C203.608 27.5146 202.391 26.9228 201.102 26.9257C199.794 26.9102 198.541 27.4511 197.653 28.4143C196.662 29.5234 196.149 30.98 196.225 32.4667C196.147 33.9566 196.667 35.416 197.67 36.5191ZM201.874 35.4357C201.166 35.4357 200.491 35.1317 200.021 34.6004C199.509 34.0174 199.237 33.2601 199.262 32.4833C199.231 31.6981 199.503 30.9311 200.021 30.3413C200.49 29.8066 201.168 29.5044 201.878 29.5143C202.586 29.5035 203.262 29.8061 203.727 30.3413C204.238 30.9281 204.506 31.6883 204.478 32.4667C204.506 33.2476 204.238 34.0102 203.727 34.6004C203.257 35.1317 202.582 35.4357 201.874 35.4357ZM133.187 36.6184C131.697 38.1397 129.644 38.9724 127.518 38.9175C125.404 38.9838 123.357 38.1694 121.865 36.668C120.379 35.2186 119.565 33.2126 119.62 31.1352V31.0939C119.58 29.0167 120.402 27.0159 121.889 25.5694C123.385 24.0597 125.437 23.2366 127.559 23.2951C129.671 23.2347 131.716 24.0482 133.212 25.5446C134.684 26.9931 135.496 28.9853 135.456 31.0525C135.505 33.1434 134.683 35.1602 133.187 36.6184ZM124.324 34.4598C125.152 35.3663 126.333 35.8673 127.559 35.8327C128.776 35.8777 129.951 35.3812 130.769 34.4764C131.604 33.5805 132.057 32.3937 132.031 31.1683V31.0939C132.06 29.85 131.601 28.6446 130.752 27.7362C129.926 26.8266 128.745 26.3225 127.518 26.355C126.299 26.3188 125.125 26.8136 124.299 27.7114C123.472 28.6113 123.023 29.7961 123.045 31.0194C122.996 32.2913 123.457 33.5299 124.324 34.4598ZM198.132 68.9465C195.46 71.5788 191.834 73.0088 188.089 72.908C184.363 73.0133 180.753 71.5987 178.087 68.9879C175.469 66.4912 174.017 63.0075 174.085 59.3862V59.3118C174.019 55.6704 175.487 52.1698 178.128 49.6687C180.807 47.0375 184.439 45.6131 188.188 45.7238C191.912 45.6296 195.515 47.0531 198.173 49.6687C200.799 52.1498 202.266 55.621 202.217 59.2373V59.3118C202.269 62.9565 200.786 66.4547 198.132 68.9465ZM183.377 64.2987C184.617 65.6137 186.34 66.3622 188.146 66.37C189.951 66.3778 191.681 65.6442 192.933 64.34C194.175 62.9925 194.845 61.2122 194.798 59.3779V59.3035C194.828 57.466 194.148 55.688 192.9 54.3414C191.676 52.9784 189.918 52.22 188.089 52.2656C186.285 52.2099 184.549 52.9543 183.344 54.3C182.112 55.6534 181.45 57.4311 181.495 59.2621V59.3366C181.463 61.1714 182.137 62.9481 183.377 64.2987ZM133.063 72.908C129.31 73.0293 125.662 71.6588 122.913 69.0954C120.231 66.5949 118.757 63.0556 118.869 59.3862V59.3118C118.8 55.6781 120.251 52.1811 122.872 49.6687C125.542 47.0467 129.161 45.6231 132.898 45.7238C136.773 45.6404 140.542 46.9986 143.477 49.5364L139.244 54.6308C137.514 53.0679 135.277 52.1864 132.947 52.1498C131.136 52.1167 129.402 52.8815 128.202 54.2421C126.926 55.6313 126.242 57.4654 126.296 59.3531V59.4276C126.228 61.3641 126.949 63.2452 128.293 64.6378C129.63 65.9979 131.473 66.7357 133.377 66.6722C134.844 66.7301 136.297 66.3532 137.552 65.5888V62.4131H132.395V57.1119H144.385V68.8721C141.215 71.5328 137.198 72.9649 133.063 72.908ZM151.358 69.4179V46.2614H158.579V66.0354H171.213V72.3787H154.354C153.563 72.3897 152.801 72.0827 152.238 71.5262C151.675 70.9698 151.358 70.2104 151.358 69.4179ZM207.647 72.3787V46.2449H221.023C224.2 46.2449 226.577 47.0305 228.137 48.6019C229.245 49.7188 229.842 51.2456 229.787 52.8197V52.8941C229.787 55.6067 228.445 57.5364 225.76 58.6832C227.232 59.0952 228.565 59.9015 229.614 61.0154C230.544 62.1539 231.017 63.5985 230.943 65.0678V65.1423C231.015 67.231 230.035 69.2164 228.335 70.4269C226.596 71.706 224.173 72.3456 221.065 72.3456L207.647 72.3787ZM214.694 56.6653H219.233C221.521 56.6653 222.666 55.9044 222.666 54.3827V54.3083C222.666 52.8197 221.568 52.0753 219.365 52.0753H214.669L214.694 56.6653ZM220.281 66.5895H214.694V61.7763H220.206C222.567 61.7763 223.747 62.5592 223.747 64.125V64.1994C223.778 64.9132 223.43 65.5902 222.831 65.9775C222.058 66.4258 221.172 66.6385 220.281 66.5895ZM233.757 72.3787L244.856 46.0629H251.829L262.928 72.3787H255.179L253.281 67.7143H243.222L241.357 72.3787H233.757ZM245.31 62.074H251.16L248.256 54.6308L245.31 62.074ZM266.757 69.4179V46.2614H274.011V66.0354H286.637V72.3787H269.711C268.08 72.3787 266.757 71.0531 266.757 69.4179ZM137.965 26.3799V41.2249H141.2V36.3124C142.054 37.4076 143.369 38.0407 144.756 38.0243C146.15 38.0423 147.485 37.4649 148.429 36.4364C149.498 35.2434 150.045 33.6703 149.947 32.0697C150.031 30.4846 149.482 28.9311 148.42 27.7527C147.473 26.7377 146.143 26.1677 144.756 26.1814C143.336 26.1616 142 26.8574 141.2 28.0339V26.3799H137.965ZM143.939 35.2703C143.186 35.2804 142.468 34.9565 141.975 34.3854C141.412 33.7562 141.116 32.9312 141.15 32.0863C141.122 31.2523 141.417 30.4397 141.975 29.8203C142.469 29.2534 143.189 28.9353 143.939 28.9519C144.699 28.9412 145.424 29.2683 145.92 29.8451C146.481 30.4627 146.777 31.2765 146.745 32.1111C146.782 32.9513 146.485 33.7719 145.92 34.3937C145.42 34.9634 144.696 35.284 143.939 35.2703ZM157.655 38.0904C156.062 38.1439 154.517 37.5469 153.372 36.4364C152.255 35.3116 151.657 33.771 151.721 32.1855V32.1359C151.684 30.5742 152.259 29.06 153.322 27.9181C154.353 26.7767 155.83 26.1451 157.366 26.1896C158.947 26.0891 160.481 26.7532 161.492 27.976C162.463 29.2382 162.968 30.799 162.92 32.3923V33.2193H154.931C155.047 33.8663 155.385 34.4519 155.889 34.8733C156.415 35.2696 157.063 35.4712 157.721 35.444C158.76 35.4322 159.754 35.0102 160.485 34.2696L162.334 35.9237C161.211 37.3558 159.471 38.1616 157.655 38.0904ZM154.89 31.1931H159.759C159.696 30.5353 159.424 29.915 158.983 29.4233C158.554 28.9749 157.952 28.7338 157.333 28.7617C156.716 28.739 156.117 28.9759 155.682 29.415C155.238 29.909 154.96 30.5314 154.89 31.1931ZM165.23 37.8093V26.3799H168.465V28.0339C169.213 26.912 170.461 26.2267 171.807 26.1979C172.877 26.1362 173.921 26.5472 174.662 27.3227C175.382 28.1961 175.748 29.3093 175.686 30.4405V37.8837H172.451V31.4743C172.492 30.8554 172.31 30.2423 171.939 29.7458C171.569 29.3381 171.036 29.1193 170.487 29.1504C169.931 29.1234 169.392 29.3409 169.01 29.7458C168.617 30.2325 168.423 30.8499 168.465 31.4743V37.8506L165.23 37.8093ZM183.575 23.8078V37.8093H194.212V35.0718H186.628V32.1276H193.23V29.3902H186.628V26.5122H194.113V23.8078H183.575ZM211.344 36.9492C212.035 37.6809 213.014 38.0684 214.017 38.0077C215.278 37.9759 216.447 37.3351 217.153 36.2875V37.8341H220.19V27.0828H217.153V33.0704C217.2 33.6671 217.017 34.259 216.641 34.7245C216.282 35.1035 215.776 35.306 215.255 35.2786C214.741 35.3102 214.24 35.1064 213.893 34.7245C213.542 34.2481 213.372 33.6614 213.415 33.0704V27.0828H210.386V34.0298C210.319 35.09 210.662 36.1354 211.344 36.9492ZM228.228 38.0904C226.749 38.1174 225.323 37.5436 224.274 36.4998C223.225 35.456 222.641 34.031 222.657 32.5494V32.4667C222.709 30.135 224.165 28.067 226.339 27.2369C228.514 26.4069 230.974 26.9804 232.56 28.6872L230.687 30.6886C230.081 29.964 229.195 29.5335 228.252 29.506C227.54 29.4845 226.857 29.7888 226.396 30.333C225.902 30.9033 225.637 31.6373 225.653 32.3923C225.626 33.1655 225.894 33.9198 226.404 34.5012C226.901 35.0595 227.622 35.3634 228.368 35.3282C229.311 35.2896 230.201 34.8794 230.843 34.1869L232.618 35.9898C232.084 36.5848 231.45 37.0804 230.744 37.4536C229.966 37.8596 229.105 38.0776 228.228 38.0904ZM237.891 38.0077C236.946 38.0522 236.016 37.7591 235.267 37.1807C234.559 36.5851 234.171 35.691 234.219 34.7658C234.154 33.768 234.594 32.8044 235.39 32.2021C236.324 31.5972 237.425 31.3074 238.535 31.3751C239.425 31.3766 240.308 31.5247 241.15 31.8134V31.6314C241.15 30.3247 240.383 29.6714 238.848 29.6714C237.837 29.6925 236.838 29.8883 235.894 30.2503L235.135 27.9347C236.438 27.3769 237.843 27.0953 239.261 27.1076C240.567 26.9545 241.879 27.3362 242.9 28.1662C243.735 29.1023 244.155 30.3379 244.064 31.5901V37.8093H241.126V36.6514C240.302 37.5631 239.117 38.0602 237.891 38.0077ZM238.807 35.9071C239.426 35.9362 240.035 35.7491 240.532 35.3778C240.951 35.0585 241.193 34.5577 241.184 34.0298V33.484C240.577 33.2115 239.917 33.0759 239.252 33.087C238.712 33.0572 238.175 33.1897 237.709 33.4674C237.345 33.7111 237.135 34.1288 237.156 34.5673C237.142 34.9399 237.312 35.2955 237.61 35.5184C237.955 35.7776 238.376 35.9144 238.807 35.9071ZM250.467 37.9912C249.636 38.0438 248.815 37.7843 248.165 37.2634C247.556 36.5882 247.257 35.6886 247.34 34.7824V29.6879H246.061V27.0828H247.34V24.3454H250.376V27.0828H252.893V29.6879H250.376V34.2696C250.376 34.9643 250.698 35.3117 251.35 35.3117C251.875 35.3113 252.391 35.1806 252.852 34.9312V37.3709C252.128 37.791 251.304 38.0054 250.467 37.9912ZM255.856 25.9085V23.2041H259.05V25.9085H255.856ZM255.938 37.8093V27.058H258.967V37.8093H255.938ZM263.052 36.4364C265.386 38.5808 268.969 38.5808 271.304 36.4364C272.395 35.3967 272.995 33.942 272.955 32.4336C272.979 30.9501 272.38 29.5245 271.304 28.5053C268.973 26.353 265.383 26.353 263.052 28.5053C261.969 29.5335 261.37 30.9721 261.401 32.4667V32.5081C261.375 33.9921 261.974 35.4184 263.052 36.4364ZM269.192 34.6087C268.673 35.1662 267.938 35.4684 267.178 35.4357L267.203 35.4274C266.42 35.4544 265.667 35.1299 265.148 34.5425C264.611 33.9796 264.315 33.2288 264.323 32.4502C264.301 31.6862 264.572 30.943 265.082 30.3744C265.613 29.8277 266.342 29.5194 267.104 29.5194C267.865 29.5194 268.594 29.8277 269.126 30.3744C269.661 30.9382 269.957 31.6884 269.951 32.4667V32.5246C269.972 33.2908 269.7 34.0362 269.192 34.6087ZM278.219 27.058H275.183V37.8093H278.219V31.8299C278.167 31.2326 278.35 30.6385 278.731 30.1759C279.089 29.7938 279.595 29.5882 280.117 29.6135C280.631 29.579 281.132 29.787 281.471 30.1759C281.829 30.6488 282 31.2382 281.949 31.8299V37.8093H284.986V30.8706C285.045 29.8088 284.704 28.7637 284.029 27.9429C283.334 27.2169 282.358 26.8305 281.355 26.8843C280.095 26.9189 278.928 27.559 278.219 28.6045V27.058Z" fill="#F5F5F5"/>
<path fill-rule="evenodd" clip-rule="evenodd" d="M33.2236 66.0575C41.2506 79.0644 55.9749 86.6424 71.4515 85.3328C92.6456 83.5467 108.939 65.782 108.933 44.4658V42.3928C108.931 42.297 108.861 42.2165 108.766 42.2005L108.702 42.1912C108.632 42.1313 108.546 42.0876 108.449 42.0668L105.547 41.6321L101.727 40.9383H101.677C100.843 40.7962 100.009 40.6625 99.175 40.5371L96.9898 40.2278C93.4201 39.7012 89.8755 39.2665 86.4392 38.9489H86.3224L84.0622 38.7566C78.5993 38.3136 73.0779 38.0796 67.64 38.0796C63.8118 38.0796 59.9585 38.1966 56.1636 38.4139C54.6077 38.5073 53.0533 38.6191 51.5009 38.7491C51.7865 35.5412 52.3136 32.452 53.0642 29.5543C54.2214 29.4654 55.3797 29.3871 56.5389 29.3194C60.2087 29.1021 63.9452 28.9934 67.6483 28.9934C69.3164 28.9934 73.6033 29.077 75.8719 29.1271C76.2483 29.1335 76.567 28.8504 76.6059 28.4751L77.3065 22.2728C77.3159 22.2013 77.2951 22.1291 77.2492 22.0736C77.2033 22.0181 77.1364 21.9843 77.0646 21.9802C73.9286 21.8298 70.7676 21.7545 67.6483 21.7545C63.8117 21.7545 59.9251 21.8715 56.1136 22.0889C55.9697 22.0974 55.8259 22.106 55.682 22.1149C56.037 21.3451 56.4117 20.6001 56.8058 19.8821C59.7126 14.5881 63.2893 11.4605 66.9828 10.9402C67.117 10.9361 67.2514 10.9329 67.3859 10.9304C78.8172 10.7205 89.5661 16.3675 95.8972 25.9089C95.9589 26.0091 96.0586 26.0799 96.1734 26.1051C96.2881 26.1303 96.4082 26.1078 96.5061 26.0427L102.044 22.4567C102.243 22.3251 102.302 22.0587 102.178 21.8548C98.5419 16.3635 93.6454 11.8259 87.8988 8.62259C71.9267 -0.267101 52.01 2.52991 39.0909 15.4769C36.23 18.3424 33.8615 21.5578 32.0065 25.0033C26.5519 26.0048 21.1381 27.2353 15.7795 28.6925C15.7449 28.7012 15.7163 28.7253 15.7017 28.7579C15.687 28.7904 15.688 28.8279 15.7044 28.8596L18.8988 35.2292C18.931 35.2892 18.9994 35.3201 19.0656 35.3044C22.2682 34.458 25.4907 33.6959 28.7298 33.0186C27.8506 36.0483 27.3221 39.1715 27.156 42.3236C23.3115 43.1349 19.4898 44.0611 15.6961 45.1011L14.5701 45.4104C11.7928 46.1961 9.02378 47.032 6.3215 47.9181C6.26608 47.9397 6.22254 47.9841 6.20183 48.04C6.18112 48.0959 6.18521 48.158 6.21307 48.2106L9.62429 54.1873C9.69777 54.3253 9.86054 54.3891 10.0079 54.3377C15.7469 52.516 21.5612 50.969 27.431 49.6998C27.8464 52.9456 28.6541 56.1689 29.8662 59.2992C25.146 60.2315 20.4583 61.3366 15.8129 62.6131C15.7519 62.6334 15.7025 62.6787 15.677 62.7378C15.6515 62.7969 15.6524 62.864 15.6794 62.9224L18.732 69.1164C18.7917 69.2413 18.9327 69.3049 19.0656 69.2669C23.7454 68.0169 28.4682 66.9465 33.2236 66.0575ZM41.3587 64.7181C42.272 65.9246 43.2726 67.0768 44.3576 68.165C46.3539 70.1669 48.5667 71.8823 50.9351 73.294C50.7829 73.0312 50.6324 72.7643 50.4838 72.4934C49.0615 69.9275 47.8614 67.0748 46.8973 64.0115C45.0475 64.22 43.2011 64.4556 41.3587 64.7181ZM37.3916 57.9639C39.9705 57.5576 42.5575 57.2025 45.1511 56.8989C44.5637 53.6745 44.2068 50.3058 44.0931 46.8619C40.9722 47.2523 37.8614 47.7197 34.7636 48.2637C35.1499 51.6113 36.0365 54.8822 37.3916 57.9639ZM34.7269 40.8792C37.8805 40.341 41.047 39.8792 44.2237 39.4944C44.4428 36.3269 44.8714 33.2402 45.497 30.2883C42.6896 30.6174 39.8901 31.0091 37.1006 31.4631C36.4138 33.1057 35.8681 34.8074 35.4711 36.5499C35.1266 37.9863 34.8794 39.4322 34.7269 40.8792ZM41.904 23.4435C43.807 23.1926 45.7139 22.9694 47.624 22.7739C48.4453 20.5049 49.4011 18.368 50.4838 16.3964C50.6295 16.1311 50.777 15.8695 50.9263 15.6119C47.5039 17.6433 44.4401 20.2861 41.904 23.4435ZM85.2629 73.227C85.3243 73.1889 85.3856 73.1505 85.4467 73.112C89.1073 70.8651 92.2422 67.9758 94.7426 64.6386C92.921 64.3861 91.0963 64.1597 89.269 63.9595C88.3039 67.0286 87.1048 69.8895 85.6886 72.4683C85.5483 72.7248 85.4064 72.9777 85.2629 73.227ZM98.662 57.901C99.993 54.8453 100.875 51.581 101.252 48.2075C100.939 48.1528 100.622 48.0981 100.301 48.0435L97.8822 47.7676C96.7479 47.5837 95.5553 47.4082 94.104 47.2076C93.3797 47.1059 92.7057 47.0155 92.0755 46.9347C91.9571 50.3446 91.5981 53.678 91.0133 56.8703C93.5685 57.1645 96.1186 57.5081 98.662 57.901ZM84.8819 46.1631C84.7912 49.6314 84.4293 52.9958 83.8133 56.1729C78.6203 55.7647 73.4116 55.5595 68.1988 55.5582C64.1704 55.5582 60.1003 55.6752 56.0886 55.926C54.8419 56.002 53.5963 56.0898 52.3519 56.1894C51.7279 52.9833 51.3615 49.5911 51.2725 46.1014C56.7507 45.6257 62.2533 45.3862 67.7651 45.3853C73.4799 45.3919 79.1911 45.6515 84.8819 46.1631ZM56.7892 68.9827C55.8356 67.2455 54.9963 65.349 54.2783 63.3247C55.0259 63.2698 55.7739 63.2193 56.5223 63.1732C60.3922 62.9391 64.3205 62.8137 68.1988 62.8137C72.7689 62.8115 77.336 62.972 81.8914 63.2945C81.167 65.3321 80.3177 67.2386 79.3499 68.9827C76.1555 74.8005 72.1438 78.0103 68.0654 78.0103C63.9869 78.0103 59.9835 74.8339 56.7892 68.9827Z" fill="#0D59F2"/>
</svg>
