<svg xmlns="http://www.w3.org/2000/svg" viewBox="0 0 172.6 78.45"><defs><style>.cls-1{fill:#00b0ad;}.cls-2{fill:#00b0ac;}.cls-3{fill:#f1592a;}.cls-4{fill:#fff;}</style></defs><title>logo-oew</title><g id="Layer_2" data-name="Layer 2"><g id="Layer_1-2" data-name="Layer 1"><g id="oew2018-logo"><path class="cls-1" d="M127.1,15.17c-.44.46-.88.86-1.3,1.23a5.73,5.73,0,0,1-.54.46c-.19.15-.37.29-.54.4s-.35.21-.5.27a1.07,1.07,0,0,1-.4.1c-.25,0-.43-.14-.56-.46a3.27,3.27,0,0,1-.19-1.18,6.41,6.41,0,0,1,.07-.94,8.94,8.94,0,0,1,.12-1c.06-.34.13-.69.19-1s.14-.62.19-.91.08-.52.12-.73a2.83,2.83,0,0,0,.06-.44,2.36,2.36,0,0,0-.35-1.36,1.09,1.09,0,0,0-.94-.5,2.58,2.58,0,0,0-1.06.23,2.34,2.34,0,0,0-.86.88l-.25.44c-.1.18-.23.41-.35.66s-.27.53-.42.8-.29.54-.41.79-.25.48-.36.67l-.23.41h-.23s0-.14,0-.31,0-.35.09-.56.06-.46.1-.71.06-.5.11-.73.06-.44.08-.65,0-.35,0-.48a1.84,1.84,0,0,0-.25-1,.94.94,0,0,0-.87-.39,1.36,1.36,0,0,0-1,.35,1.78,1.78,0,0,0-.5.9c-.1.45-.2,1-.33,1.66s-.23,1.34-.31,2l-.15,1.27c-.23.21-.51.43-.81.66a12.53,12.53,0,0,1-1.4.92,9.49,9.49,0,0,1-1.52.71,4.31,4.31,0,0,1-1.48.27,2.85,2.85,0,0,1-.42,0,1,1,0,0,1-.37-.17,1.39,1.39,0,0,1-.36-.33,3.58,3.58,0,0,1-.35-.52,8.45,8.45,0,0,0,1.9-.79,6.77,6.77,0,0,0,1.5-1.15,5.65,5.65,0,0,0,1-1.38,3.47,3.47,0,0,0,.35-1.46,3,3,0,0,0-.23-1.2,2.5,2.5,0,0,0-.64-.92,3.2,3.2,0,0,0-1-.59,3.42,3.42,0,0,0-1.21-.2,3.69,3.69,0,0,0-1.46.29,4.05,4.05,0,0,0-1.19.77,6.34,6.34,0,0,0-.94,1.12,6.41,6.41,0,0,0-.66,1.34,7,7,0,0,0-.4,1.44,8.43,8.43,0,0,0-.13,1.37,6.28,6.28,0,0,0,.14,1.32,7.38,7.38,0,0,1-1,.62A8.58,8.58,0,0,1,103,18a10.12,10.12,0,0,1-2.15.23l-.08-.27a9.5,9.5,0,0,0,1.81-1.07,5.88,5.88,0,0,0,1.27-1.27,4.37,4.37,0,0,0,.73-1.42,5.37,5.37,0,0,0,.23-1.54A4.44,4.44,0,0,0,104.5,11a2.87,2.87,0,0,0-.73-1.12,2.68,2.68,0,0,0-1.08-.63A4.82,4.82,0,0,0,101.35,9a3.48,3.48,0,0,0-2.81,1.3,5,5,0,0,0-.79,1.39,12.63,12.63,0,0,0-.52,1.71c-.13.61-.25,1.21-.34,1.86s-.19,1.27-.27,1.87c-.69,1.07-1.29,2.09-1.81,3.09-.23.44-.46.87-.67,1.33a12.89,12.89,0,0,0-.58,1.36,9,9,0,0,0-.42,1.27A4.5,4.5,0,0,0,93,25.28a8.93,8.93,0,0,0,.11,1.57,5.76,5.76,0,0,0,.37,1.29,2.27,2.27,0,0,0,.71.87,1.75,1.75,0,0,0,1.11.34,2.45,2.45,0,0,0,1.6-.67,5.76,5.76,0,0,0,1.38-1.9,12.25,12.25,0,0,0,1-3A19.65,19.65,0,0,0,99.58,20v-.21l1.54.25.88.17.42.08a.75.75,0,0,0,.2,0,5,5,0,0,0,1.38-.19,6.24,6.24,0,0,0,1.33-.52,6.14,6.14,0,0,0,1.17-.75l.1-.08.09.1a4.24,4.24,0,0,0,1.37,1.06,4.17,4.17,0,0,0,1.92.4,6.23,6.23,0,0,0,1.42-.15,9.5,9.5,0,0,0,1.31-.41,12.44,12.44,0,0,0,1.21-.61c.4-.23.75-.46,1.09-.68l.23-.18a3.08,3.08,0,0,1,0,.43,3,3,0,0,0,.2.79,1.51,1.51,0,0,0,.46.54,1.23,1.23,0,0,0,.77.21,1.18,1.18,0,0,0,.69-.17,1.34,1.34,0,0,0,.52-.64L121,13.34h.18c-.08.62-.16,1.21-.22,1.75a11.85,11.85,0,0,0-.09,1.52,6.6,6.6,0,0,0,.44,2.71c.29.63.65.94,1.08.94a3.82,3.82,0,0,0,1.23-.19,5.06,5.06,0,0,0,1.13-.46,6.18,6.18,0,0,0,1-.64c.33-.25.67-.48,1-.73l.58-.44ZM96.91,20.66c0,.18,0,.43,0,.72s0,.65-.06,1.07c0,.23,0,.5,0,.81s0,.63,0,.94l-.06.94c0,.29-.07.56-.13.81a2.23,2.23,0,0,1-.21.58.37.37,0,0,1-.33.21.55.55,0,0,1-.38-.16,1.47,1.47,0,0,1-.25-.38,1.66,1.66,0,0,1-.12-.42c0-.14,0-.25,0-.31a2.51,2.51,0,0,1,.06-.46,7,7,0,0,1,.17-.81c.08-.31.16-.65.27-1s.2-.73.33-1.11A10.15,10.15,0,0,1,96.5,21a9.59,9.59,0,0,1,.43-.9C96.93,20.26,96.91,20.45,96.91,20.66Zm2.44-3.61a10.47,10.47,0,0,1,.06-1.38c0-.46.09-.89.15-1.33a9.92,9.92,0,0,1,.25-1.21,3.52,3.52,0,0,1,.4-1,2.09,2.09,0,0,1,.56-.65,1.21,1.21,0,0,1,.75-.25.83.83,0,0,1,.6.21,1.33,1.33,0,0,1,.32.52,2.32,2.32,0,0,1,.06.65,4.18,4.18,0,0,1-.08.6,10,10,0,0,1-.38,1.09,5.92,5.92,0,0,1-.6,1,8.35,8.35,0,0,1-.88.92A5.75,5.75,0,0,1,99.35,17.05Zm9.09-2.86c0-.25.06-.5.1-.75a6.25,6.25,0,0,1,.23-.77,2.12,2.12,0,0,1,1-1.17,1.88,1.88,0,0,1,.86-.18.54.54,0,0,1,.48.33,1.88,1.88,0,0,1,.19.88,1.36,1.36,0,0,1-.3.77,4.2,4.2,0,0,1-.73.73,3.84,3.84,0,0,1-.91.56,2.28,2.28,0,0,1-.92.21Z"/><path class="cls-1" d="M95.08,15.61A20.46,20.46,0,0,0,96,12.28,18.28,18.28,0,0,0,96.29,9a11.48,11.48,0,0,0-.5-3.46,8.29,8.29,0,0,0-1.46-2.71A6.4,6.4,0,0,0,92,1.06,7.56,7.56,0,0,0,88.85.44a8.4,8.4,0,0,0-2.46.35,8.87,8.87,0,0,0-2.13,1,8.17,8.17,0,0,0-1.81,1.46A12,12,0,0,0,81,5.06,12.94,12.94,0,0,0,79.8,7.19,18.23,18.23,0,0,0,79,9.5a16.89,16.89,0,0,0-.51,2.36,18.44,18.44,0,0,0-.16,2.31,13.38,13.38,0,0,0,.52,3.9,9,9,0,0,0,1.5,3,6.7,6.7,0,0,0,5.52,2.71A7.47,7.47,0,0,0,89,23.14a9.79,9.79,0,0,0,2.59-1.8,12.35,12.35,0,0,0,2-2.6A19.49,19.49,0,0,0,95.08,15.61Zm-1.92-5.34a18.44,18.44,0,0,1-.31,2c-.15.69-.34,1.38-.54,2.07a16.16,16.16,0,0,1-.75,2,11.6,11.6,0,0,1-1,1.81,7.93,7.93,0,0,1-1.23,1.48,5.3,5.3,0,0,1-1.48,1,4.68,4.68,0,0,1-3.78-.08,4.66,4.66,0,0,1-1.52-1.31,6.51,6.51,0,0,1-1-2,8.46,8.46,0,0,1-.33-2.46,12.24,12.24,0,0,1,.29-2.55,15.25,15.25,0,0,1,.81-2.62,14,14,0,0,1,1.28-2.46A13.07,13.07,0,0,1,85.28,5.1a8.39,8.39,0,0,1,1.9-1.39,4.33,4.33,0,0,1,2.08-.52,3.44,3.44,0,0,1,3,1.56A5,5,0,0,1,93,6.46a8.28,8.28,0,0,1,.25,2.1C93.26,9.07,93.22,9.65,93.16,10.27Z"/><path class="cls-2" d="M147.92,34.14a2.44,2.44,0,0,0,1-.19,2.17,2.17,0,0,0,.71-.48,1.7,1.7,0,0,0,.42-.66,2.48,2.48,0,0,0,.12-.77,1.67,1.67,0,0,0-.16-.75,1.21,1.21,0,0,0-.42-.5,1.84,1.84,0,0,0-.63-.3,3.25,3.25,0,0,0-.77-.08,2.39,2.39,0,0,0-1.08.21,1.79,1.79,0,0,0-.71.5,2.4,2.4,0,0,0-.38.65,1.73,1.73,0,0,0-.12.6,1.8,1.8,0,0,0,.48,1.29A2.1,2.1,0,0,0,147.92,34.14Z"/><path class="cls-2" d="M172.39,41.73c-.44.48-.87.87-1.29,1.25-.19.17-.35.31-.54.46s-.38.29-.54.39l-.5.28a1.12,1.12,0,0,1-.4.1.6.6,0,0,1-.56-.46,3.12,3.12,0,0,1-.19-1.19,8,8,0,0,1,.06-.93,7.53,7.53,0,0,1,.13-1.05l.18-1c.07-.33.13-.64.19-.92s.09-.52.13-.73a2.61,2.61,0,0,0,.06-.43,2.42,2.42,0,0,0-.35-1.36,1.1,1.1,0,0,0-.94-.5,2.62,2.62,0,0,0-1.07.23,2.33,2.33,0,0,0-.85.88l-.25.43c-.1.19-.23.42-.35.67l-.42.79c-.15.27-.29.55-.42.8s-.25.48-.35.66-.19.34-.23.42h-.23s0-.15,0-.31.06-.34.08-.57.07-.45.11-.7.06-.5.1-.73.06-.44.09-.65,0-.35,0-.48a1.9,1.9,0,0,0-.25-1,1,1,0,0,0-.88-.4,1.34,1.34,0,0,0-1,.36,1.72,1.72,0,0,0-.5.89c-.1.46-.21,1-.33,1.67,0,.09,0,.18,0,.27-.17-.19-.34-.38-.52-.56A11.6,11.6,0,0,0,159,36.94,8.12,8.12,0,0,0,157.2,36a6.2,6.2,0,0,0-2.09-.36,5.67,5.67,0,0,0-2.33.48,5.17,5.17,0,0,0-1.75,1.3,5.49,5.49,0,0,0-1.11,1.93,7.45,7.45,0,0,0-.37,2.4,8.4,8.4,0,0,0,.13,1.51,5.54,5.54,0,0,1-.45.37,9.64,9.64,0,0,1-1,.71,2.18,2.18,0,0,1-.94.29.47.47,0,0,1-.48-.32,2.28,2.28,0,0,1-.12-.83,7,7,0,0,1,.12-1.21c.09-.44.17-.89.3-1.37s.25-.94.37-1.42.25-.9.38-1.31.2-.78.29-1.11a3.49,3.49,0,0,0,.12-.75.67.67,0,0,0-.16-.48,1,1,0,0,0-.67-.19,2.79,2.79,0,0,0-.61.07c-.22.06-.43.12-.64.2a1.92,1.92,0,0,0-.56.36,1,1,0,0,0-.34.52c-.12.58-.29,1.23-.48,1.92s-.35,1.39-.52,2.08l-.18.78-.46.43c-.28.25-.59.48-.9.71s-.63.42-1,.6a10.23,10.23,0,0,1-.92.48c-.29.13-.56.23-.81.32a1.92,1.92,0,0,1-.6.12,2,2,0,0,1-.73-.12,1.35,1.35,0,0,1-.55-.4,2.13,2.13,0,0,1-.33-.71,4,4,0,0,1-.12-1.06v-.54c0-.19,0-.4,0-.61s0-.44,0-.64,0-.42,0-.63c0-.46.06-.94.08-1.42.21-.25.42-.52.65-.81s.46-.6.69-.92h4.48a.7.7,0,0,0,.52-.25,1,1,0,0,0,.23-.66,1.35,1.35,0,0,0-.11-.57.36.36,0,0,0-.33-.23l-.5,0-.65,0c-.23,0-.48,0-.73,0l-.68,0c-.21,0-.4,0-.57,0l-.35,0c.27-.46.54-.9.79-1.36a12.74,12.74,0,0,0,.67-1.33,9.38,9.38,0,0,0,.44-1.29,5.37,5.37,0,0,0,.16-1.21,5.53,5.53,0,0,0-.16-1.31,4.36,4.36,0,0,0-.46-1.09,2.55,2.55,0,0,0-.71-.75,1.58,1.58,0,0,0-.92-.27,2.16,2.16,0,0,0-1.5.69,7.13,7.13,0,0,0-1.31,1.85,17.51,17.51,0,0,0-1.09,2.63,31.19,31.19,0,0,0-.79,3.06,2,2,0,0,1-.42,0l-.7,0h-.82a3.81,3.81,0,0,0-.79.07,1.89,1.89,0,0,0-.58.18.41.41,0,0,0-.23.36c0,.06,0,.14,0,.25a.7.7,0,0,0,.08.27.84.84,0,0,0,.23.23,1.16,1.16,0,0,0,.44.12c.42.07.73.11,1,.13s.39.06.54.08.29.06.42.09.31.06.54.08c-.09.52-.13,1.06-.17,1.58s-.06,1.05-.06,1.5a24.61,24.61,0,0,0,.15,2.69c-.29.37-.58.71-.86,1a6.5,6.5,0,0,1-.52.53,4.17,4.17,0,0,1-1.08.77,1.35,1.35,0,0,1-.53.12.4.4,0,0,1-.41-.31,2.72,2.72,0,0,1-.11-.86,7.4,7.4,0,0,1,.13-1.35c.06-.48.16-1,.25-1.44s.16-.94.25-1.4a7.2,7.2,0,0,0,.12-1.25,2.18,2.18,0,0,0-.06-.56.67.67,0,0,0-.19-.33.56.56,0,0,0-.27-.15,1.66,1.66,0,0,0-.33,0h-.54a1.51,1.51,0,0,1-.3,0,1.38,1.38,0,0,1-.29-.08,1,1,0,0,1-.23-.19c-.06-.09-.12-.19-.18-.27a.92.92,0,0,0-.25-.23.81.81,0,0,0-.42-.11,3.87,3.87,0,0,0-1.58.36,5.53,5.53,0,0,0-1.48.94,9,9,0,0,0-1.3,1.37A11,11,0,0,0,124,40a10.51,10.51,0,0,0-.69,1.81c0,.17-.08.33-.11.49A11,11,0,0,1,122,43.42a8.61,8.61,0,0,1-1.36.87,2.71,2.71,0,0,1-1.23.36,1.73,1.73,0,0,1-.94-.25,1.94,1.94,0,0,1-.58-.63,2.28,2.28,0,0,1-.29-.83,4.64,4.64,0,0,1-.08-.88c0-.18,0-.41,0-.69a7.26,7.26,0,0,1,.1-.87c.06-.31.15-.6.23-.92a2.62,2.62,0,0,1,.38-.83,2,2,0,0,1,.58-.61,1.54,1.54,0,0,1,.81-.23.25.25,0,0,1,.25.19,1.51,1.51,0,0,1,.06.46,3.1,3.1,0,0,1,0,.42,3.17,3.17,0,0,0,0,.44,1.75,1.75,0,0,0,.17.81.79.79,0,0,0,.73.29,1.15,1.15,0,0,0,.65-.19,1.7,1.7,0,0,0,.5-.5,2.15,2.15,0,0,0,.31-.69,3.56,3.56,0,0,0,.1-.79,2.56,2.56,0,0,0-.23-1.06,2.49,2.49,0,0,0-.62-.86,3.86,3.86,0,0,0-1-.56,3.53,3.53,0,0,0-1.23-.21,3.6,3.6,0,0,0-1.44.3,3.8,3.8,0,0,0-1.19.77,5.22,5.22,0,0,0-.94,1.12,7.85,7.85,0,0,0-.68,1.36,6.44,6.44,0,0,0-.42,1.44,7.05,7.05,0,0,0-.15,1.41,7.48,7.48,0,0,0,.15,1.27c-.27.17-.54.33-.79.46a6.6,6.6,0,0,1-.79.36,2.2,2.2,0,0,1-.63.12.47.47,0,0,1-.35-.1.53.53,0,0,1-.19-.31,3.31,3.31,0,0,1-.06-.48,4,4,0,0,1,0-.61,6,6,0,0,1,.07-.62c.06-.3.1-.65.18-1s.15-.83.23-1.29.15-.89.23-1.33.15-.84.19-1.19a8.09,8.09,0,0,0,.06-.86c0-.22-.12-.39-.39-.56a1.79,1.79,0,0,0-.94-.21,2.28,2.28,0,0,0-.94.19c-.29.13-.44.29-.48.48l-1.14,5.94a3.6,3.6,0,0,1-.28.84,2.39,2.39,0,0,1-.41.62,1.43,1.43,0,0,1-.5.4,1.27,1.27,0,0,1-.52.12.55.55,0,0,1-.32-.08,1.07,1.07,0,0,1-.21-.25,1.09,1.09,0,0,1-.12-.36,2.34,2.34,0,0,1,0-.39s0-.13.06-.36.08-.54.15-.91.12-.84.2-1.32.17-1,.26-1.5.16-1,.25-1.54.16-1,.22-1.38a.38.38,0,0,0-.27-.33,2.2,2.2,0,0,0-.89-.17,1.55,1.55,0,0,0-.67.21,1.84,1.84,0,0,0-.52.48,2.37,2.37,0,0,0-.4.65c-.1.23-.18.48-.27.71s-.12.43-.16.64-.07.36-.09.48c-.21,1.21-.37,2.25-.52,3.19,0,.11,0,.21,0,.31-.26.22-.52.42-.78.61a6,6,0,0,1-.59.39,4,4,0,0,1-.58.36c-.21.1-.4.19-.56.25a1.46,1.46,0,0,1-.48.08.64.64,0,0,1-.4-.14.9.9,0,0,1-.25-.38A2.14,2.14,0,0,1,100,43c0-.21,0-.42,0-.65a5.54,5.54,0,0,1,0-.56,5,5,0,0,1,.08-.56,3.4,3.4,0,0,1,.1-.5c0-.15.09-.29.13-.4.39-1,.81-1.92,1.25-2.83s.81-1.82,1.19-2.76a25.76,25.76,0,0,0,1-2.85,17.74,17.74,0,0,0,.56-3.13c0-.27,0-.56,0-.83a9,9,0,0,0-.1-1.29,4.13,4.13,0,0,0-.36-1.11,2.19,2.19,0,0,0-.62-.75,1.52,1.52,0,0,0-.94-.29,2.52,2.52,0,0,0-1.46.46,5.2,5.2,0,0,0-1.31,1.27,10.14,10.14,0,0,0-1.15,1.94,20.83,20.83,0,0,0-.9,2.44,18.62,18.62,0,0,0-.62,2.79,19.51,19.51,0,0,0-.27,3,6.11,6.11,0,0,0-1.67.42,6.92,6.92,0,0,0-1.46.83,6.68,6.68,0,0,0-1.19,1.13A7.17,7.17,0,0,0,91.33,40a7.06,7.06,0,0,0-.57,1.48,7.57,7.57,0,0,0-.16,1,9.42,9.42,0,0,1-.9.62c-.5.29-1,.56-1.6.83a14.86,14.86,0,0,1-1.78.69,12,12,0,0,1-1.81.46,11,11,0,0,1-1.75.16,5.26,5.26,0,0,1-1.29-.14,2.56,2.56,0,0,1-1-.5,2.22,2.22,0,0,1-.68-.94,3.71,3.71,0,0,1-.25-1.46,3,3,0,0,1,.43-1.62,3.89,3.89,0,0,1,1.15-1.17,5.5,5.5,0,0,1,1.61-.71,6.62,6.62,0,0,1,1.83-.25c.27,0,.56,0,.85,0s.55,0,.75,0c.48,0,.8-.08,1-.29a1.49,1.49,0,0,0,.25-1,4.1,4.1,0,0,0,0-.48c0-.16,0-.33,0-.5a1.28,1.28,0,0,0-.39-.64,2.89,2.89,0,0,0-.73-.44A8.62,8.62,0,0,0,85.2,35c-.36-.09-.69-.19-1-.3s-.69-.23-1-.35a3.09,3.09,0,0,1-.87-.5,2.17,2.17,0,0,1-.61-.73A2.44,2.44,0,0,1,81.42,32a2.56,2.56,0,0,1,.32-1.3,2.71,2.71,0,0,1,.87-.85,3.64,3.64,0,0,1,1.25-.46,7.34,7.34,0,0,1,1.5-.15,12.42,12.42,0,0,1,1.71.13c.57.1,1.11.21,1.63.35a10.6,10.6,0,0,1,1.38.46,5.71,5.71,0,0,1,.91.52c-.18.61-.33,1.13-.41,1.53a4.87,4.87,0,0,0-.13,1c0,.29.08.43.25.43a2,2,0,0,0,.73-.18,4.58,4.58,0,0,0,.83-.52,3.17,3.17,0,0,0,.69-.73,1.52,1.52,0,0,0,.29-.84,3.52,3.52,0,0,0-.62-2.08A4.88,4.88,0,0,0,91,27.85a8.63,8.63,0,0,0-2.33-.9A12.34,12.34,0,0,0,86,26.66a11.9,11.9,0,0,0-1.88.14,12.72,12.72,0,0,0-1.77.44,9.31,9.31,0,0,0-1.56.73,5.46,5.46,0,0,0-1.25,1,4.85,4.85,0,0,0-.84,1.32,4,4,0,0,0-.31,1.6,5,5,0,0,0,.31,1.77,3.87,3.87,0,0,0,.94,1.46,4.46,4.46,0,0,0,1.59,1,6.16,6.16,0,0,0,2.25.38,11.11,11.11,0,0,0-3.36.56,6.28,6.28,0,0,0-2.29,1.36,5.5,5.5,0,0,0-1.32,1.93,6.48,6.48,0,0,0-.41,2.28,5.19,5.19,0,0,0,.54,2.41,4.73,4.73,0,0,0,1.44,1.67,6.17,6.17,0,0,0,2.12,1,10.49,10.49,0,0,0,2.61.31,13.73,13.73,0,0,0,2.58-.25A13.44,13.44,0,0,0,88,47a15.67,15.67,0,0,0,2.48-1.27c.21-.13.41-.27.61-.41a2.85,2.85,0,0,0,.23.37,2.4,2.4,0,0,0,.91.88,2.59,2.59,0,0,0,1.32.33,3.61,3.61,0,0,0,1.06-.17,6.74,6.74,0,0,0,1-.46,8.2,8.2,0,0,0,1-.66c.31-.25.63-.52.92-.8a3.63,3.63,0,0,0,.67,1.09,3.16,3.16,0,0,0,.75.62,2.59,2.59,0,0,0,.71.3,2.7,2.7,0,0,0,.47.06,2.22,2.22,0,0,0,.65-.11,4.66,4.66,0,0,0,.71-.25,6,6,0,0,0,.73-.35c.25-.15.48-.27.71-.42s.46-.29.69-.45a1.4,1.4,0,0,0,.06.24,2.42,2.42,0,0,0,.42.8,1.46,1.46,0,0,0,.6.43,2,2,0,0,0,.73.13,2.64,2.64,0,0,0,1-.19,5.65,5.65,0,0,0,1-.54,6.17,6.17,0,0,0,1-.79,9.71,9.71,0,0,0,.89-1c.09.35.17.68.27,1a4.35,4.35,0,0,0,.4.75,1.6,1.6,0,0,0,.54.5,1.73,1.73,0,0,0,.75.16,4.2,4.2,0,0,0,1-.12,6.65,6.65,0,0,0,1-.34,9.78,9.78,0,0,0,1.05-.48c.35-.18.66-.37,1-.56l.12-.08c.07.09.13.18.21.27a4,4,0,0,0,1.35,1.06,4.28,4.28,0,0,0,1.9.4,3.25,3.25,0,0,0,1.25-.23,6.06,6.06,0,0,0,1.17-.5,7.54,7.54,0,0,0,1.06-.71,11.89,11.89,0,0,0,.92-.79A3.16,3.16,0,0,0,124,46a2.93,2.93,0,0,0,.94.65,2.72,2.72,0,0,0,1.08.23,2.94,2.94,0,0,0,1-.17,5.9,5.9,0,0,0,1-.46,4.21,4.21,0,0,0,.89-.6,7.44,7.44,0,0,0,.69-.67,4.1,4.1,0,0,0,.9,1.44,1.8,1.8,0,0,0,1.29.5,2.91,2.91,0,0,0,1.29-.31,5.9,5.9,0,0,0,1.21-.77,10.53,10.53,0,0,0,1-1c.17-.19.31-.37.44-.53.06.15.12.3.19.44a3.86,3.86,0,0,0,1.12,1.55,2.49,2.49,0,0,0,1.57.54,3.18,3.18,0,0,0,1-.17,12.64,12.64,0,0,0,1.21-.5c.46-.21,1-.48,1.57-.81l1.27-.73a3.39,3.39,0,0,0,.1.81,2.21,2.21,0,0,0,.38.75,1.47,1.47,0,0,0,.66.48,2.85,2.85,0,0,0,1,.17,4.44,4.44,0,0,0,1.43-.25,8.55,8.55,0,0,0,1.48-.61,12.85,12.85,0,0,0,1.36-.81l.22-.16a1.28,1.28,0,0,0,.11.2,3.86,3.86,0,0,0,1.21,1.17,3.15,3.15,0,0,0,1.75.46,3.61,3.61,0,0,0,1.36-.25,5.15,5.15,0,0,0,1.16-.67,5,5,0,0,0,.94-1,5.55,5.55,0,0,0,.71-1.23A7.6,7.6,0,0,0,158,42.4a6.81,6.81,0,0,0,.15-1.4,7.42,7.42,0,0,0-.17-1.44,6.15,6.15,0,0,0-.5-1.44l0-.1,1,.69c.4.27.79.56,1.19.87a13.48,13.48,0,0,1,1.13,1v0c-.08.71-.16,1.4-.22,2.07a17.24,17.24,0,0,0-.09,1.79c0,.31,0,.6,0,.87a3.45,3.45,0,0,0,.21.8,1.51,1.51,0,0,0,.46.54,1.3,1.3,0,0,0,.77.21,1.18,1.18,0,0,0,.69-.17,1.38,1.38,0,0,0,.52-.65l3-6.14h.19c-.08.62-.17,1.2-.23,1.75a13.85,13.85,0,0,0-.08,1.52,6.46,6.46,0,0,0,.44,2.71c.29.62.64.94,1.08.94a4.16,4.16,0,0,0,1.23-.19,5.58,5.58,0,0,0,1.13-.46,7.52,7.52,0,0,0,1-.65c.33-.25.66-.48,1-.73l.58-.43Zm-34.14-9.42c.17-.67.35-1.27.54-1.84a9.85,9.85,0,0,1,.6-1.37c.19-.36.4-.54.61-.54a.55.55,0,0,1,.35.08.53.53,0,0,1,.19.23,1.23,1.23,0,0,1,.08.29,1,1,0,0,1,0,.29,2.71,2.71,0,0,1-.23,1c-.13.38-.3.81-.5,1.25s-.44.92-.69,1.38-.5.89-.73,1.29l-.36,0-.35,0C137.94,33.62,138.08,33,138.25,32.31ZM96.16,43.21c-.1.17-.21.31-.31.46a2.21,2.21,0,0,1-.35.39,1.48,1.48,0,0,1-.4.27.94.94,0,0,1-.42.11,1.38,1.38,0,0,1-.66-.13.92.92,0,0,1-.4-.31,1.46,1.46,0,0,1-.19-.42,1.74,1.74,0,0,1-.06-.45,4.4,4.4,0,0,1,.21-1.32,5.88,5.88,0,0,1,.6-1.44,7.35,7.35,0,0,1,1-1.33,5,5,0,0,1,1.38-1s0,.06,0,.25a5.83,5.83,0,0,1,0,.63c0,.25,0,.54,0,.85s0,.61,0,.9,0,.56,0,.79,0,.42.07.52A11.36,11.36,0,0,1,96.16,43.21Zm3.19-5.11v-.62c0-.23,0-.48,0-.77s0-.63,0-1,.07-.73.09-1.11c0-.19,0-.48.08-.94s.11-.93.19-1.5.17-1.12.29-1.71.27-1.12.42-1.62a5.08,5.08,0,0,1,.54-1.21.89.89,0,0,1,.69-.48c.12,0,.23.08.31.25a2.84,2.84,0,0,1,.1.87c0,.32,0,.75-.06,1.3a10.37,10.37,0,0,1-.21,1.33c-.1.46-.23.92-.35,1.4s-.27.94-.44,1.41-.33.92-.48,1.36C100.21,36.08,99.79,37.08,99.35,38.1ZM129,41.35a7.27,7.27,0,0,1-.21.94,7.16,7.16,0,0,1-.41,1.09,3.68,3.68,0,0,1-.61.89,1.1,1.1,0,0,1-.79.38.74.74,0,0,1-.44-.13,1,1,0,0,1-.27-.35,1.83,1.83,0,0,1-.14-.5,3.64,3.64,0,0,1,0-.56,7,7,0,0,1,.13-1.09,6.86,6.86,0,0,1,.37-1.17,8.34,8.34,0,0,1,.59-1.1,5.53,5.53,0,0,1,.75-.94,3.7,3.7,0,0,1,.85-.65,2.1,2.1,0,0,1,.94-.25Zm26.79.5a8.34,8.34,0,0,1-.46,1.36,3.73,3.73,0,0,1-.65,1,1,1,0,0,1-.77.4,1.71,1.71,0,0,1-.79-.19,1.52,1.52,0,0,1-.52-.52,2.3,2.3,0,0,1-.29-.75,3.87,3.87,0,0,1-.11-.92,6.53,6.53,0,0,1,.19-1.48,7,7,0,0,1,.52-1.42,3.76,3.76,0,0,1,.75-1,1.38,1.38,0,0,1,.92-.42,1,1,0,0,1,.62.21,1.61,1.61,0,0,1,.42.54,2.9,2.9,0,0,1,.25.8,5.26,5.26,0,0,1,.08,1A7.09,7.09,0,0,1,155.76,41.85Z"/><path class="cls-2" d="M130.47,69.85c-2.77-.86-4.94-4.48-5.27-5.42.77-.86,3.5-3.54,3.86-4,0,0,.25-.3.18-.3.25-.41.3-.77-.16-.83-.84-.11-3.7,2.73-5.1,4.14.36-3.1.76-6.17.87-7.22.08-.67.64-3.49,0-4-.14-.1-.79.23-.91.3a1.57,1.57,0,0,0-.36.22.61.61,0,0,1-.12,0s0,0,0,0a3.6,3.6,0,0,0-.4,2.1c-.12,2-.39,9.13-1.71,10.61l-.34.4c-.23.19-.48.39-.76.6a14.51,14.51,0,0,1-1.4.9,11.47,11.47,0,0,1-1.52.69,4.31,4.31,0,0,1-1.48.27,2.72,2.72,0,0,1-.42,0,1.53,1.53,0,0,1-.37-.17,1,1,0,0,1-.36-.31,3.9,3.9,0,0,1-.35-.52,8.4,8.4,0,0,0,1.9-.77,7.36,7.36,0,0,0,1.5-1.13,6.61,6.61,0,0,0,1.1-1.5,3.46,3.46,0,0,0,.48-1.58,2.73,2.73,0,0,0-.23-1.21,2.5,2.5,0,0,0-.64-.92,3.1,3.1,0,0,0-1-.58,3.17,3.17,0,0,0-1.21-.21,3.59,3.59,0,0,0-1.46.29,4.5,4.5,0,0,0-1.19.77,5.48,5.48,0,0,0-.92,1.1,7.31,7.31,0,0,0-.64,1.32c-.17.46-.34,1-.5,1.58A5.81,5.81,0,0,0,111.3,66a5.33,5.33,0,0,0,0,.57,14.5,14.5,0,0,1-1.27.81,12.2,12.2,0,0,1-1.53.69,4.31,4.31,0,0,1-1.48.27,2.59,2.59,0,0,1-.41,0,1.59,1.59,0,0,1-.38-.17,1,1,0,0,1-.35-.31,3.9,3.9,0,0,1-.36-.52,8.22,8.22,0,0,0,1.9-.77,7.36,7.36,0,0,0,1.5-1.13,6.64,6.64,0,0,0,1.11-1.5,3.43,3.43,0,0,0,.47-1.58,3.22,3.22,0,0,0-.22-1.21,2.65,2.65,0,0,0-.65-.92,3,3,0,0,0-1-.58,3.21,3.21,0,0,0-1.21-.21,3.62,3.62,0,0,0-1.46.29,4.67,4.67,0,0,0-1.19.77,5.44,5.44,0,0,0-.91,1.1,6.31,6.31,0,0,0-.67,1.32c-.17.46-.33,1-.5,1.58a5.81,5.81,0,0,0-.25,1.54,6.42,6.42,0,0,0,.13,1.32l0,0a1.56,1.56,0,0,1-1.33,0,1.3,1.3,0,0,1-.52-.37,1.84,1.84,0,0,1-.36-.65,3.35,3.35,0,0,1-.12-1,5.44,5.44,0,0,1,.14-1c.11-.48,1.23-5.81,1.44-6.65a24.57,24.57,0,0,0,.5-2.5,12.9,12.9,0,0,0,.21-2.29,1.89,1.89,0,0,0-.1-.63,1,1,0,0,0-.3-.39,1,1,0,0,0-.45-.21,2.8,2.8,0,0,0-.59-.07,5,5,0,0,0-.79.07,1.82,1.82,0,0,0-.69.23,1.21,1.21,0,0,0-.5.48,1.82,1.82,0,0,0-.23.83c0,.31-.1.75-.16,1.31s-.19,1.59-.38,3.09S98.06,60,98.06,60s-.15.69-.4,2.06a28.36,28.36,0,0,1-.79,3.36,11.8,11.8,0,0,1-.9,2.27,5.91,5.91,0,0,1-1.12,1.56,1.88,1.88,0,0,1-1.36.59,1,1,0,0,1-.73-.31,2.33,2.33,0,0,1-.47-.92A8.13,8.13,0,0,1,92,67.16a18.14,18.14,0,0,1-.08-1.9c0-.68,0-1.43.08-2.25s.13-1.64.23-2.48.21-1.67.32-2.46.21-1.5.31-2.12.19-1.15.25-1.55a6.44,6.44,0,0,0,.08-.68,1.42,1.42,0,0,0-.06-.44.82.82,0,0,0-.23-.34,1.52,1.52,0,0,0-.46-.23,2.5,2.5,0,0,0-.73-.08,2.93,2.93,0,0,0-.83.11,1.84,1.84,0,0,0-.63.37,2.71,2.71,0,0,0-.45.71,6,6,0,0,0-.34,1.1,71.56,71.56,0,0,1-1.75,7.24c-.19.6-.4,1.21-.6,1.79s-.42,1.15-.67,1.69-.5,1-.75,1.5a10.22,10.22,0,0,1-.81,1.19,4.78,4.78,0,0,1-.88.79,1.78,1.78,0,0,1-.94.29,1.21,1.21,0,0,1-.83-.31,2.29,2.29,0,0,1-.58-.86A4.77,4.77,0,0,1,81.32,67a13.12,13.12,0,0,1-.1-1.58,15.17,15.17,0,0,1,.18-2.23c.13-.81.3-1.63.48-2.46s.4-1.65.63-2.46.44-1.56.62-2.25.36-1.32.48-1.84A5.23,5.23,0,0,0,83.8,53a5.59,5.59,0,0,1,0-.58.79.79,0,0,0-.23-.31.81.81,0,0,0-.35-.15,3,3,0,0,0-.46,0c-.21,0-.42,0-.63,0a1.6,1.6,0,0,0-.6.21,2.25,2.25,0,0,0-.61.56,5.35,5.35,0,0,0-.58,1.07,25.41,25.41,0,0,0-.87,2.5c-.25.87-.48,1.73-.65,2.6s-.31,1.73-.4,2.61A22.23,22.23,0,0,0,78.28,64a17.55,17.55,0,0,0,.31,3.55,9.63,9.63,0,0,0,.85,2.52,4.32,4.32,0,0,0,1.23,1.52,2.56,2.56,0,0,0,1.48.5,6.27,6.27,0,0,0,2.46-.46,4.79,4.79,0,0,0,2-1.54,9.23,9.23,0,0,0,1.5-2.88,23.21,23.21,0,0,0,1.07-4.46c0,.25,0,.54-.09.88A8.91,8.91,0,0,0,89,64.7a17.76,17.76,0,0,0,.23,2.9A8.43,8.43,0,0,0,89.93,70a4.17,4.17,0,0,0,1.25,1.59,3,3,0,0,0,1.88.58,4.59,4.59,0,0,0,1.68-.31,6.28,6.28,0,0,0,1.57-.88,7.8,7.8,0,0,0,1.42-1.35A15.17,15.17,0,0,0,99,67.79a3,3,0,0,0,.25.89,2.18,2.18,0,0,0,.43.63,1.86,1.86,0,0,0,.61.35,2.93,2.93,0,0,0,.73.11,3.42,3.42,0,0,0,1.73-.53,4.66,4.66,0,0,0,.47-.3,4.35,4.35,0,0,0,.36.55,4.2,4.2,0,0,0,1.38,1.09,4.34,4.34,0,0,0,1.92.39,6.76,6.76,0,0,0,1.39-.14,7.86,7.86,0,0,0,1.32-.44c.41-.19.81-.39,1.2-.62s.76-.48,1.09-.71l.15-.12a4.4,4.4,0,0,0,.37.55,4,4,0,0,0,1.38,1.09,4.23,4.23,0,0,0,1.91.39,6.34,6.34,0,0,0,1.38-.14,7.47,7.47,0,0,0,1.31-.44,12.51,12.51,0,0,0,1.21-.62c.4-.23.75-.48,1.09-.71a16.44,16.44,0,0,0,1.45-1.22,23.25,23.25,0,0,1-.16,3.32c0-.08,1.39-.27,1.39-.56,0-.88.14-2.45.32-4.26a15.62,15.62,0,0,0,1.62,1.86c2.46,2.46,3.53,2.69,4.73,2.69S131.45,70.14,130.47,69.85Zm-25.16-5a3.33,3.33,0,0,1,.21-.89c.13-.36.23-.67.34-.92a2.23,2.23,0,0,1,.39-.67,2.2,2.2,0,0,1,.61-.48,1.84,1.84,0,0,1,.85-.18.54.54,0,0,1,.48.33,1.85,1.85,0,0,1,.19.86,1.81,1.81,0,0,1-.42.91,4.3,4.3,0,0,1-.83.9,3.84,3.84,0,0,1-.92.54,2.18,2.18,0,0,1-.92.21C105.29,65.24,105.29,65,105.31,64.8Zm8.84,0a3,3,0,0,1,.21-.89c.13-.36.23-.67.33-.92a2,2,0,0,1,.38-.67,2.15,2.15,0,0,1,.6-.48,1.86,1.86,0,0,1,.86-.18A.54.54,0,0,1,117,62a1.86,1.86,0,0,1,.18.86,1.77,1.77,0,0,1-.41.91,4.08,4.08,0,0,1-.84.9,3.77,3.77,0,0,1-.91.54,2.28,2.28,0,0,1-.92.21A3.45,3.45,0,0,1,114.15,64.8Z"/><path class="cls-3" d="M0,25.71,64.13,0l3.54,8.71-2.17.85,1.23,6.49s2.29.06,2.53,1.53-1.42,1.93-1.42,1.93l5.28,15.11-6,1.12-.92-15.82s-2.37-.18-2.54-1.67,2.15-2,2.15-2L64.62,10,52.31,14.9,56.6,27.38A7.72,7.72,0,0,1,58,29c.43.6,1.24,1.78,1.24,1.78l3.58-.62,6.92,37.16L9.84,78.45,2.92,41.27l17.37-3.16a22.32,22.32,0,0,1,1.17-2.33c.57-.9,1.08-1.67,1.08-1.67l.05-7.2L1.77,35.17Z"/><path class="cls-4" d="M56.26,59.41C47.35,71,33.4,75.83,23.85,69.2s-9.69-20.89-2.31-33.54S44.73,18.77,54.28,25.4,65.2,47.77,56.26,59.41Z"/><path class="cls-3" d="M41.54,53.83a11.72,11.72,0,0,1-2,.66l-.6.11a1.22,1.22,0,0,1-.4,0s-.16,0-.18,0-.17,0-.22,0-.29,0-.37,0h-.5c-.08-.05-.26,0-.37,0s-.16,0-.23,0a6.87,6.87,0,0,1-1.6-.32.21.21,0,0,0-.16-.05.5.5,0,0,1-.16,0v0a4.07,4.07,0,0,1-.58-.22,3.52,3.52,0,0,0-.4-.18v0h0a7.41,7.41,0,0,1-1.4-1c0-.06-.07-.08-.12-.11v0c-.16-.08-.21-.26-.37-.34a.38.38,0,0,1-.11-.14c-.07-.07-.1-.15-.16-.18s-.07-.11-.13-.15a6.2,6.2,0,0,1-.74-1.16,2.12,2.12,0,0,1-.18-.37s0-.11,0-.13A7,7,0,0,1,30,48.69c0-.28-.09-.55-.14-.81a1,1,0,0,1,0-.32c0-.23,0-.41,0-.63s0-.21,0-.26v-.48a5.08,5.08,0,0,0,0-.68c.05,0,0-.13,0-.18a6.9,6.9,0,0,1,.26-1.5,1.6,1.6,0,0,0,.08-.26.25.25,0,0,1,0-.13h0c0-.12.07-.19.09-.29s0,0,0,0a.31.31,0,0,0,.05-.17c0-.16.1-.32.16-.46h0c0-.12.08-.16.09-.28a.12.12,0,0,1,0-.08h0c0-.06,0-.09,0-.16s0,0,0,0h0s0-.08,0-.13,0,0,0,0h0a5,5,0,0,1,.22-.47s0,0,0,0h0a10.8,10.8,0,0,1,1.27-2s0,0,0-.05h0c.06-.11.16-.18.22-.29s.07-.11.13-.15a2.23,2.23,0,0,0,.21-.22.4.4,0,0,0,.13-.13c.08-.07.13-.15.21-.23s.21-.21.32-.3a.74.74,0,0,1,.13-.12h0a2.5,2.5,0,0,0,.29-.27c.11-.13.27-.23.39-.36h.08v0c.16-.11.3-.22.46-.35,0-.05.08,0,.08-.08h0l.34-.23s0,0,0,0c.31-.18.6-.37.92-.53.07,0,.15,0,.18-.1v0c.16-.06.3-.14.47-.21a.37.37,0,0,1,.14-.08.28.28,0,0,0,.13,0c.06,0,.08-.05.13-.05a2,2,0,0,0,.53-.23.22.22,0,0,0,.15,0,2.27,2.27,0,0,0,.34-.11s0,0,.08,0a2.38,2.38,0,0,0,.38-.11c.18,0,.33-.1.52-.13l.51-.1c.18,0,.25-.06.41-.05s.16,0,.18,0,.17,0,.2,0,.28,0,.36,0h.63c.06,0,.21,0,.32,0s.16,0,.23,0a6.92,6.92,0,0,1,1.09.17v0c.21,0,.36.11.54.15h0v0c.08,0,.08.05.15,0s0,0,0,0h0a4.68,4.68,0,0,0,.48.18,6.82,6.82,0,0,1,2.4,2c0,.05,0,.06,0,.08s.07.11.12.16a3.37,3.37,0,0,0,.21.31.62.62,0,0,0,.11.17.54.54,0,0,0,.11.18.61.61,0,0,0,.1.18.51.51,0,0,1,.09.18.32.32,0,0,0,.09.16s0,.13.08.16,0,.11,0,.13a.15.15,0,0,1,0,.13.2.2,0,0,0,0,.14s0,0,0,0,.08.21.1.34a.78.78,0,0,0,0,.18.37.37,0,0,1,.05.2.28.28,0,0,0,0,.15.7.7,0,0,0,.08.29.88.88,0,0,1,0,.29.47.47,0,0,0,0,.21,2.51,2.51,0,0,0,0,.31s0,.13,0,.14,0,.16,0,.18,0,.18,0,.21,0,.21,0,.26v1c0,.24,0,.45,0,.71a3.44,3.44,0,0,1-.11.81.42.42,0,0,0,0,.21.84.84,0,0,1-.05.29h0c0,.06,0,.09,0,.16a1.41,1.41,0,0,1-.1.38h0c0,.2-.1.34-.13.52v.05h0c0,.13-.08.21-.1.34h0c0,.08-.05.08,0,.14s0,.07,0,.1-.08.16-.11.26v0s0,.1,0,.13c-.18.35-.32.72-.5,1,0,.08-.08.11-.09.17h0c-.08.26-.26.42-.36.67,0,0,0,0,0,0-.34.48-.68,1-1,1.43-.07,0-.07.05-.1.1s-.23.24-.32.37-.08.07-.12.11l-.58.6c0,.05,0,.05-.09.08a4.09,4.09,0,0,0-.33.28c-.12.09-.22.2-.35.29s-.05,0-.05,0a3.25,3.25,0,0,0-.4.31c-.44.26-.84.55-1.28.79a.76.76,0,0,0-.22.11,1.05,1.05,0,0,1-.26.13C41.65,53.78,41.56,53.77,41.54,53.83Z"/></g></g></g></svg>