<svg xmlns="http://www.w3.org/2000/svg" xmlns:xlink="http://www.w3.org/1999/xlink" viewBox="0 0 182.92 49.67"><defs><style>.cls-1{fill:#fff;}.cls-2{fill:#86b73f;}.cls-3{fill:#1d5da2;}.cls-4{fill:#3a5f76;}.cls-5{mask:url(#mask);}</style><mask id="mask" x="0" y="0" width="182.92" height="49.67" maskUnits="userSpaceOnUse"><g id="mask-2"><path id="path-1" class="cls-1" d="M0,0H182.92V49.67H0Z"/></g></mask></defs><title>logo-oec</title><g id="Layer_2" data-name="Layer 2"><g id="Layer_1-2" data-name="Layer 1"><g id="Project-Page"><g id="oec-logo"><path id="Fill-1" class="cls-2" d="M24.64,1.37h0a1.53,1.53,0,0,1,.47.14l-.09,0-.36-.11"/><path id="Fill-3" class="cls-2" d="M15.34.58h-.05A7.71,7.71,0,0,1,18.2,0h.19a14,14,0,0,0-3.05.58M20.57.19l-.19,0,.9.15.27.06a16.47,16.47,0,0,1,2.6.84,17.78,17.78,0,0,0-3.58-1"/><path id="Fill-5" class="cls-2" d="M12.33,1h0L13,.76h0A16.07,16.07,0,0,1,14.63.69a12.34,12.34,0,0,0-2.3.27"/><path id="Fill-7" class="cls-2" d="M28.12,3.25C28.69,3.68,30,4.73,30,4.74A17.28,17.28,0,0,0,27.79,3l-.05,0c.07,0,.17.11.38.28"/><path id="Fill-9" class="cls-3" d="M24.37,1.31h0l.15.05-.15-.05m.33.13-.17-.07a16.58,16.58,0,0,1,7.21,5.35,17.55,17.55,0,0,1,3.74,9.36C35,11.92,33.17,10,31.64,9.63c-1.07-.26-2,.12-3.38.36,5.39-2,.33-6.65-2.78-8.19-.06,0-.39-.19-.78-.36"/><path id="Fill-11" class="cls-2" d="M19.07.82c.38.55,2.42.81,2.57.33C21.72.89,21,.51,20,.42s-1.1.17-.93.4"/><path id="Fill-13" class="cls-2" d="M14.82.72h0L15,.7l-.13,0m.27,0h-.15c.65-.07,4-.32,6,1.56.77-1.67,3.39-1,3.69-.88-1.77-.4-2.64,1-1.17,3.39A34.12,34.12,0,0,0,28.26,10c-5.13-4-6.32-5.21-6.86-5.88-.3.63-1.38,2.09-6.43,5,5.47-3.67,5.57-7.35,1.77-8.21A7.45,7.45,0,0,0,15.09.71"/><path id="Fill-15" class="cls-3" d="M8.66,3.09c-.14.2-.07.3.2.27.8-.12,2.44-1.3,2.1-1.53-.13-.09-.53.08-.68.14A4.46,4.46,0,0,0,8.66,3.09"/><path id="Fill-17" class="cls-3" d="M6.59,4.25l0,0h0c.07-.06,1.78-1.42,2.25,0A11.09,11.09,0,0,1,15.08.67C11,1.79,7.91,5.27,12,7.79a15.33,15.33,0,0,0,2.87,1.34C9.67,8,8.76,6.73,8.46,6.21c-1.36,2.57-3.4,5.24-4.89,7.71C6.15,8.85,6.6,8,7,6.87c1-3.15-.12-2.78-.13-2.77a1.14,1.14,0,0,0-.25.15"/><path id="Fill-19" class="cls-2" d="M.75,22.6A17.78,17.78,0,0,1,1.1,12.23C1,13,.75,14.3,3.27,14c-3.8-.39-.56-5.25.52-6.73l-.1.12a21,21,0,0,0-1.95,3.31,20.67,20.67,0,0,0-1.1,3.65c-.42,1.79-.15,6.3.11,8.28,0,0-.27-2.5-.27-2.55"/><path id="Fill-21" class="cls-3" d="M31.93,13.29c.05,1.43,1,2.76,1.63,2.15s.24-2.33-.65-3.13c-.71-.52-1,.26-1,1"/><path id="Fill-23" class="cls-3" d="M28.31,10.06s.07,0,0,0c.31,0,3.95,2.25,4.16,7.23,1.57-2.77,2.73-1.62,3-1.13h0c-.11-.09-.85-.66-2.2,2.59-.37.89-.47,1.23-2.44,9.21.37-2.42.48-5.22.75-7.64-.54.7-1.73,2.15-5.66,3.51,7.78-3.95,5.49-11,2.42-13.76"/><path id="Fill-25" class="cls-2" d="M20.48,10.22c.24,1.47,2.19,2.09,3,.94A1.75,1.75,0,0,0,22,8.57a1.4,1.4,0,0,0-1.54,1.65"/><path id="Fill-27" class="cls-2" d="M14.85,9.13H15l0,0h-.08l-.07,0m.4.09L15,9.17c.06,0,5.35.11,7.1,4.59,1.67-4,6-3.71,6.18-3.7-2.77.36-7,4.52-2.44,13.73a30.84,30.84,0,0,1-3.82-6.73c-.39.88-1.3,2.73-5.05,6.07,6.24-7.3,2.72-12.7-1.75-13.91"/><path id="Fill-29" class="cls-3" d="M7.34,13.08c.32,1.25,1.81,1.19,2.54-.09s0-2.69-1.24-2.31l-.15.05a2.12,2.12,0,0,0-1.15,2.35"/><path id="Fill-31" class="cls-3" d="M3.7,14.06l-.13,0a4.61,4.61,0,0,1,5.76,1.76c.5-4.55,4.69-6.36,5.59-6.69-4.87,2.66-5.78,9.75,2,14-1.29-.49-4.91-2-6.67-4.19,0,1-.23,1.36-1.33,7.59.44-11.34-3.43-12.64-5.2-12.5"/><path id="Fill-33" class="cls-2" d="M.43,20.61c.15.56.4.72.59.38.42-.75.19-3.06-.3-2.94-.1,0-.17.17-.22.25a4.36,4.36,0,0,0-.07,2.31"/><path id="Fill-35" class="cls-2" d="M6.6,31.18a46.7,46.7,0,0,1-3.55-5.93c.39.72,2.26,1.3,5.85,1.41-7.52-1.38-7.69-8.9-5.47-12.56C3.14,14.46.31,20.69,1.59,23a18.21,18.21,0,0,0-.95-1.59A13.42,13.42,0,0,0,1.85,26,14.85,14.85,0,0,0,6.6,31.18"/><path id="Fill-37" class="cls-2" d="M8.65,32c.38.33.6.34.52,0-.17-.71-1.55-2.23-1.75-1.94a.37.37,0,0,0,0,.27A4.88,4.88,0,0,0,8.65,32"/><path id="Fill-39" class="cls-2" d="M18.49,35.9a8.7,8.7,0,0,1-5.14-1.4,5.87,5.87,0,0,0,5.54-.32c-4.82,2.26-9.21-4-10-7.52a7.86,7.86,0,0,0,2.42,6.87,30.46,30.46,0,0,0-4-1.21c.27.21.07,0,.11.08l.33.27a15.46,15.46,0,0,0,4.38,2.38,19.4,19.4,0,0,0,6.35.85"/><path id="Fill-41" class="cls-2" d="M20,35.69a11.83,11.83,0,0,0,4.86-1.6c-.58.34-3.8,1.15-5.28.16,3.81,1.42,9.92-3.42,11.31-6.16-.1.28-.69,2.74-4,5.12a14.68,14.68,0,0,0,3.52-2.43c0,.13.05,0,0,0a13.88,13.88,0,0,1-4.59,3.48A14,14,0,0,1,20,35.69"/><path id="Fill-43" class="cls-2" d="M30.84,30.21c1-1,1.46-1.43,3.16-5.13A7,7,0,0,1,30.84,28C34.37,26.25,36,19,35.48,16.16a16.41,16.41,0,0,1-1.34,9.12c-.87,2-2.64,4.56-3.3,4.93"/><path id="Fill-45" class="cls-3" d="M27.46,26.45c-.47.8-.73,1.87.06,1.69,1-.24,2.28-2.11,1.61-2.78-.54-.35-1.29.46-1.67,1.09"/><path id="Fill-47" class="cls-3" d="M25.94,23.94l0,0s2.38,2.08-.15,5.7c3-2.33,4.46-2,5.08-1.52h0c-1.6-.36-4.12,1.58-5.79,2.87-2,1.52-3.68,2.84-5.79,3.36a2.33,2.33,0,0,0,.25-.07,9.65,9.65,0,0,0,3.86-2.49c-1.36.88-2.82,1.58-4.11,2.56l.07-.06c1.24-1,2.58-1.76,3.77-2.78a11.08,11.08,0,0,0,2.07-2.25c1.53-2.41,1.33-4.27.77-5.29"/><path id="Fill-49" class="cls-2" d="M20.42,24.56c0,1.05.65,2,1.43,1.18s1-2.77-.2-2.95c-.8,0-1.23.91-1.23,1.77"/><path id="Fill-51" class="cls-2" d="M17,23.25l0,0a4.69,4.69,0,0,1,3.88,4.7,5.85,5.85,0,0,1,5-4c-3.32,1-4.55,5.22-5,6.82a9,9,0,0,1-1.59,3.61l.12-.15c.68-1,.76-1.79.93-3.45-1.11,2.88-1.11,2.88-1,3.6a.17.17,0,0,1,0-.07c-.19-2.35,1.12-4.55.63-6.93A5.43,5.43,0,0,0,17,23.25"/><path id="Fill-53" class="cls-3" d="M12.33,26.32c.6.89,1.7,1.42,1.88.37s-.78-2.77-1.85-2.42c-.66.35-.53,1.32,0,2.05"/><path id="Fill-55" class="cls-3" d="M9.31,26.63l-.33,0s2.87-1,5.86,2.25A4.37,4.37,0,0,1,17,23.23,4.68,4.68,0,0,0,15.5,28c.53,2.58,2.72,4.06,3.76,6.3a.71.71,0,0,1-.08-.15c-.24-.38-.24-.38-2.66-2.84a6.55,6.55,0,0,0,2.74,3l-.1,0c-3.74-1.9-5-7.28-9.85-7.65"/><path id="Fill-59" class="cls-2" d="M3.31,8.66c-.33.36-.53.51-.54.39,0-.48,1.7-2.73,1.91-2.45,0,0,0,.16,0,.23A10.77,10.77,0,0,1,3.31,8.66"/><path id="Fill-61" class="cls-2" d="M4.15,10.06c-1.07-.42-2.57,0-3.66,4.22a20.23,20.23,0,0,1,1.25-3.61,20.37,20.37,0,0,1,2-3.31l.1-.12A18.25,18.25,0,0,1,6.68,4.18,20.1,20.1,0,0,0,2,10.23c.38-.6,1-1.51,2.21-.17h0"/><path id="Fill-63" class="cls-4" d="M45.15,11.08a4.46,4.46,0,0,0,7.61,3.25,4.41,4.41,0,0,0,1.3-3.22A4.39,4.39,0,0,0,52.78,7.9a4.48,4.48,0,0,0-6.33,0,4.29,4.29,0,0,0-1.3,3.18m-1.83,0a5.86,5.86,0,0,1,1.86-4.35,6.17,6.17,0,0,1,4.46-1.82,6,6,0,0,1,4.41,1.84,6,6,0,0,1,1.84,4.4A5.9,5.9,0,0,1,54,15.52a6.37,6.37,0,0,1-8.68.2,5.88,5.88,0,0,1-2-4.66"/><path id="Fill-65" class="cls-4" d="M59.67,10.56h.68c1.66,0,2.5-.64,2.5-1.91S62,6.79,60.27,6.79h-.6Zm0,1.68v4.87H57.85v-12h2.06a9.23,9.23,0,0,1,2.28.21,3,3,0,0,1,1.37.79,3.41,3.41,0,0,1,1,2.55,3.27,3.27,0,0,1-1.11,2.61,4.39,4.39,0,0,1-3,1Z"/><path id="Fill-67" class="cls-4" d="M72.78,6.82H68V9.7h4.68v1.7H68v4h4.82v1.7H66.15v-12h6.63Z"/><path id="Fill-69" class="cls-4" d="M74.84,17.11V4.3l8.77,9.15V5.12h1.82V17.84L76.66,8.72v8.39Z"/><path id="Fill-71" class="cls-4" d="M99.22,6.82H94.41V9.7h4.67v1.7H94.41v4h4.81v1.7H92.59v-12h6.63Z"/><path id="Fill-73" class="cls-4" d="M103.1,15.41h.82a6.85,6.85,0,0,0,2-.25,4.24,4.24,0,0,0,1.47-.87,4.09,4.09,0,0,0,1.34-3.17,4.12,4.12,0,0,0-1.33-3.2,5,5,0,0,0-3.51-1.1h-.82Zm-1.81,1.7v-12h2.52a9.16,9.16,0,0,1,2.87.36,5.27,5.27,0,0,1,2,1.18,5.73,5.73,0,0,1,1.87,4.46,5.85,5.85,0,0,1-4,5.66,9.46,9.46,0,0,1-2.83.33Z"/><path id="Fill-75" class="cls-4" d="M114.36,5.12v7.22a4,4,0,0,0,.51,2.26,2.46,2.46,0,0,0,2.12,1,2.5,2.5,0,0,0,2.14-1,4,4,0,0,0,.5-2.26V5.12h1.82v7.72a4.45,4.45,0,1,1-8.9,0V5.12Z"/><path id="Fill-77" class="cls-4" d="M132.9,5.76V7.9a5,5,0,0,0-3.26-1.31,4.14,4.14,0,0,0-3.12,1.32,4.51,4.51,0,0,0-1.28,3.24,4.35,4.35,0,0,0,1.28,3.18,4.2,4.2,0,0,0,3.13,1.3,3.82,3.82,0,0,0,1.63-.31,4.59,4.59,0,0,0,.77-.42,10,10,0,0,0,.85-.64v2.19a6.54,6.54,0,0,1-3.28.88,6,6,0,0,1-4.39-1.79,6,6,0,0,1-1.82-4.37,6.18,6.18,0,0,1,1.52-4.09,6.06,6.06,0,0,1,4.83-2.2,6.25,6.25,0,0,1,3.14.88"/><path id="Fill-79" class="cls-4" d="M141.47,12.5l-1.78-4.08-1.87,4.08Zm.75,1.7h-5.15l-1.34,2.91h-1.95l5.94-12.75,5.74,12.75h-2Z"/><path id="Fill-81" class="cls-4" d="M149.29,6.82V17.11h-1.81V6.82h-2.76V5.12h7.33v1.7Z"/><g class="cls-5"><path id="Fill-83" class="cls-4" d="M155.16,17.11h-1.81v-12h1.81Z"/></g><g class="cls-5"><path id="Fill-85" class="cls-4" d="M159,11.08a4.46,4.46,0,0,0,7.61,3.25,4.41,4.41,0,0,0,1.3-3.22,4.39,4.39,0,0,0-1.28-3.21,4.48,4.48,0,0,0-6.33,0,4.33,4.33,0,0,0-1.3,3.18m-1.82,0A5.86,5.86,0,0,1,159,6.71a6.13,6.13,0,0,1,4.45-1.82,6,6,0,0,1,4.41,1.84,6,6,0,0,1,1.84,4.4,5.9,5.9,0,0,1-1.85,4.39,6.37,6.37,0,0,1-8.68.2,5.9,5.9,0,0,1-2-4.66"/></g><g class="cls-5"><path id="Fill-86" class="cls-4" d="M171.67,17.11V4.3l8.76,9.15V5.12h1.82V17.84l-8.77-9.12v8.39Z"/></g><g class="cls-5"><path id="Fill-87" class="cls-4" d="M50.9,21.16v1.65a3.84,3.84,0,0,0-2.5-1,3.19,3.19,0,0,0-2.4,1,3.4,3.4,0,0,0-1,2.48,3.33,3.33,0,0,0,1,2.45,3.21,3.21,0,0,0,2.4,1,3,3,0,0,0,1.26-.24,3.13,3.13,0,0,0,.59-.32,7.91,7.91,0,0,0,.65-.49v1.68a5.06,5.06,0,0,1-2.51.68A4.67,4.67,0,0,1,45,28.68a4.58,4.58,0,0,1-1.39-3.36,4.77,4.77,0,0,1,1.16-3.14,4.65,4.65,0,0,1,3.72-1.69,4.72,4.72,0,0,1,2.41.67"/></g><g class="cls-5"><path id="Fill-88" class="cls-4" d="M59.68,25.25a3.43,3.43,0,0,0,5.85,2.5,3.56,3.56,0,0,0,0-4.94,3.43,3.43,0,0,0-5.86,2.44m-1.41,0a4.53,4.53,0,0,1,1.43-3.35,4.74,4.74,0,0,1,3.43-1.4,4.83,4.83,0,0,1,4.81,4.8,4.55,4.55,0,0,1-1.43,3.38,4.89,4.89,0,0,1-6.67.15,4.53,4.53,0,0,1-1.57-3.58"/></g><g class="cls-5"><path id="Fill-89" class="cls-4" d="M75.83,29.89V20l6.74,7V20.67H84v9.78l-6.74-7v6.46Z"/></g><g class="cls-5"><path id="Fill-90" class="cls-4" d="M97.54,22l-1.13.66A1.86,1.86,0,0,0,95.8,22,1.35,1.35,0,0,0,95,21.8a1.44,1.44,0,0,0-1,.32,1,1,0,0,0-.39.82c0,.45.34.81,1,1.09l.92.37a4.1,4.1,0,0,1,1.65,1.11,2.49,2.49,0,0,1,.52,1.61,2.79,2.79,0,0,1-.85,2.1,2.92,2.92,0,0,1-2.13.84,2.84,2.84,0,0,1-2-.71,3.3,3.3,0,0,1-1-2L93.26,27a2.42,2.42,0,0,0,.34,1.12,1.6,1.6,0,0,0,2.34.17,1.5,1.5,0,0,0,.43-1.11,1.53,1.53,0,0,0-.07-.49,1.14,1.14,0,0,0-.24-.41,1.76,1.76,0,0,0-.4-.36,5.51,5.51,0,0,0-.6-.31l-.9-.37a2.55,2.55,0,0,1-1.89-2.34,2.23,2.23,0,0,1,.79-1.74,2.87,2.87,0,0,1,2-.7A2.76,2.76,0,0,1,97.54,22"/></g><g class="cls-5"><path id="Fill-91" class="cls-4" d="M106.54,25.25a3.37,3.37,0,0,0,1,2.52,3.43,3.43,0,0,0,4.82,0,3.56,3.56,0,0,0,0-4.94,3.43,3.43,0,0,0-5.86,2.44m-1.41,0a4.5,4.5,0,0,1,1.44-3.35,4.72,4.72,0,0,1,3.42-1.4,4.78,4.78,0,0,1,3.39,8.18,4.9,4.9,0,0,1-6.68.15,4.53,4.53,0,0,1-1.57-3.58"/></g><g class="cls-5"><path id="Fill-92" class="cls-4" d="M124.08,24.9h.45c1.32,0,2-.5,2-1.51S125.87,22,124.58,22h-.5ZM125.82,26l2.86,3.93H127l-2.65-3.77h-.25v3.77h-1.39V20.67h1.63a4.15,4.15,0,0,1,2.65.68,2.53,2.53,0,0,1,.9,2,2.65,2.65,0,0,1-.56,1.69,2.54,2.54,0,0,1-1.49.9Z"/></g><g class="cls-5"><path id="Fill-93" class="cls-4" d="M138.65,22v7.91h-1.4V22h-2.12V20.67h5.64V22Z"/></g><g class="cls-5"><path id="Fill-94" class="cls-4" d="M149.54,29.89h-1.39V20.67h1.39Z"/></g><g class="cls-5"><path id="Fill-95" class="cls-4" d="M159.29,20.67v5.55a3.07,3.07,0,0,0,.39,1.74A2.09,2.09,0,0,0,163,28a3,3,0,0,0,.39-1.74V20.67h1.4v5.94a3.31,3.31,0,0,1-.91,2.4,3.37,3.37,0,0,1-2.52,1,3.35,3.35,0,0,1-3.41-3.45V20.67Z"/></g><g class="cls-5"><path id="Fill-96" class="cls-4" d="M172.76,29.89l2-9.92,3.18,7.17L181.17,20l1.75,9.92h-1.43l-.89-5.57-2.74,6-2.66-6-1,5.57Z"/></g><g class="cls-5"><path id="Fill-97" class="cls-4" d="M1.91,43.66V48H1.15V43.66H0V43H3.06v.71Z"/></g><g class="cls-5"><path id="Fill-98" class="cls-4" d="M5.26,42.48H6v2.58a1.28,1.28,0,0,1,.86-.35,1.1,1.1,0,0,1,.86.35A1.41,1.41,0,0,1,8,46V48H7.25V46.09a.87.87,0,0,0-.13-.55.51.51,0,0,0-.44-.17.63.63,0,0,0-.54.23,1.67,1.67,0,0,0-.15.83V48H5.26Z"/></g><g class="cls-5"><path id="Fill-99" class="cls-4" d="M12.7,46a.69.69,0,0,0-.73-.58.75.75,0,0,0-.26,0,.71.71,0,0,0-.21.11,1,1,0,0,0-.16.19.88.88,0,0,0-.11.24Zm.75.6H11.19a.92.92,0,0,0,.25.62.77.77,0,0,0,.57.22.74.74,0,0,0,.46-.13,2,2,0,0,0,.4-.48l.61.35a1.89,1.89,0,0,1-.3.41,1.81,1.81,0,0,1-.34.29,1.34,1.34,0,0,1-.39.16A1.75,1.75,0,0,1,12,48a1.51,1.51,0,0,1-1.14-.45,1.68,1.68,0,0,1-.43-1.21,1.73,1.73,0,0,1,.42-1.21A1.42,1.42,0,0,1,12,44.71a1.44,1.44,0,0,1,1.1.44,1.75,1.75,0,0,1,.41,1.22Z"/></g><g class="cls-5"><path id="Fill-100" class="cls-4" d="M22.35,45.35h2.07v.16a3.37,3.37,0,0,1-.13,1,2.06,2.06,0,0,1-.44.75,2.25,2.25,0,0,1-1.78.79,2.46,2.46,0,0,1-1.8-.76,2.62,2.62,0,0,1,0-3.68,2.65,2.65,0,0,1,3-.52,3.17,3.17,0,0,1,1,.78l-.54.51a1.82,1.82,0,0,0-1.5-.82,1.8,1.8,0,0,0-1.34.55,1.83,1.83,0,0,0-.54,1.35,1.77,1.77,0,0,0,.6,1.38,1.83,1.83,0,0,0,1.22.5,1.5,1.5,0,0,0,1-.38,1.29,1.29,0,0,0,.5-.9H22.35Z"/></g><g class="cls-5"><path id="Fill-101" class="cls-4" d="M27.63,48H26.9V42.48h.73Z"/></g><g class="cls-5"><path id="Fill-102" class="cls-4" d="M30.82,46.37a1,1,0,0,0,.25.74.87.87,0,0,0,.68.28.9.9,0,0,0,.69-.27,1.06,1.06,0,0,0,.26-.74,1,1,0,0,0-.26-.73.88.88,0,0,0-.69-.28.86.86,0,0,0-.67.28,1,1,0,0,0-.26.72m-.75,0a1.56,1.56,0,0,1,.49-1.16,1.74,1.74,0,0,1,2.4,0,1.62,1.62,0,0,1,.48,1.19A1.59,1.59,0,0,1,33,47.57a1.66,1.66,0,0,1-1.21.47,1.64,1.64,0,0,1-1.67-1.69"/></g><g class="cls-5"><path id="Fill-103" class="cls-4" d="M38.35,46.4a1.07,1.07,0,0,0-.25-.74.75.75,0,0,0-.62-.29.84.84,0,0,0-.66.28,1,1,0,0,0-.25.72,1,1,0,0,0,.25.74.87.87,0,0,0,1.28,0,1,1,0,0,0,.25-.71Zm-1.74-3.92v2.68a1.36,1.36,0,0,1,1-.45,1.38,1.38,0,0,1,1.06.47,1.74,1.74,0,0,1,.43,1.19,1.76,1.76,0,0,1-.43,1.2,1.42,1.42,0,0,1-2.06,0V48h-.73V42.48Z"/></g><g class="cls-5"><path id="Fill-104" class="cls-4" d="M42.13,46.37a1.09,1.09,0,0,0,.24.73.79.79,0,0,0,.63.29.83.83,0,0,0,.66-.28,1,1,0,0,0,.25-.73,1.06,1.06,0,0,0-.25-.73.82.82,0,0,0-.65-.28.81.81,0,0,0-.63.28,1,1,0,0,0-.25.72Zm1.74-1.57h.73V48h-.73v-.33a1.44,1.44,0,0,1-1,.42,1.39,1.39,0,0,1-1.08-.47,1.76,1.76,0,0,1-.43-1.2,1.74,1.74,0,0,1,.43-1.19,1.38,1.38,0,0,1,2.06,0Z"/></g><g class="cls-5"><path id="Fill-105" class="cls-4" d="M47.92,48h-.73V42.48h.73Z"/></g><g class="cls-5"><path id="Fill-106" class="cls-4" d="M54.36,48V42.61L58,46.43V43h.76v5.31l-3.66-3.81V48Z"/></g><g class="cls-5"><path id="Fill-107" class="cls-4" d="M63.71,46a.7.7,0,0,0-.74-.58.69.69,0,0,0-.25,0,.53.53,0,0,0-.21.11,1,1,0,0,0-.17.19.87.87,0,0,0-.1.24Zm.75.6H62.19a1,1,0,0,0,.25.62.79.79,0,0,0,.58.22.73.73,0,0,0,.45-.13,1.61,1.61,0,0,0,.4-.48l.62.35a2.91,2.91,0,0,1-.3.41,1.59,1.59,0,0,1-.35.29,1.34,1.34,0,0,1-.39.16A1.66,1.66,0,0,1,63,48a1.48,1.48,0,0,1-1.13-.45,1.68,1.68,0,0,1-.43-1.21,1.77,1.77,0,0,1,.41-1.21A1.42,1.42,0,0,1,63,44.71a1.45,1.45,0,0,1,1.11.44,1.74,1.74,0,0,1,.4,1.22Z"/></g><g class="cls-5"><path id="Fill-108" class="cls-4" d="M67.73,45.48V48H67V45.48h-.31V44.8H67V43.64h.73V44.8h.57v.68Z"/></g><g class="cls-5"><path id="Fill-109" class="cls-4" d="M70.86,44.8l.83,1.8.89-2.09.9,2.09.82-1.8h.82l-1.66,3.39-.88-2-.89,2L70,44.8Z"/></g><g class="cls-5"><path id="Fill-110" class="cls-4" d="M77.75,46.37a1.08,1.08,0,0,0,.25.74.9.9,0,0,0,.69.28.92.92,0,0,0,.69-.27,1.05,1.05,0,0,0,.25-.74,1,1,0,0,0-.25-.73.9.9,0,0,0-.69-.28.87.87,0,0,0-.68.28,1,1,0,0,0-.26.72m-.75,0a1.57,1.57,0,0,1,.5-1.16,1.62,1.62,0,0,1,1.19-.48,1.66,1.66,0,0,1,1.2.48,1.69,1.69,0,0,1,0,2.38,1.66,1.66,0,0,1-1.21.47A1.66,1.66,0,0,1,77,46.35"/></g><g class="cls-5"><path id="Fill-111" class="cls-4" d="M82.82,44.8h.73v.28a1.36,1.36,0,0,1,.35-.29.92.92,0,0,1,.38-.08,1.17,1.17,0,0,1,.61.19l-.34.66a.75.75,0,0,0-.4-.14q-.6,0-.6.9V48h-.73Z"/></g><g class="cls-5"><path id="Fill-112" class="cls-4" d="M87.8,42.48v3.34l1-1h1l-1.37,1.32L89.91,48H89l-1-1.33-.12.12V48h-.73V42.48Z"/></g><g class="cls-5"><path id="Fill-113" class="cls-4" d="M96.52,45.48V48h-.74V45.48h-.26V44.8h.26V43.58a1.34,1.34,0,0,1,.21-.85,1,1,0,0,1,.83-.34,1.52,1.52,0,0,1,.49.11v.75l-.07,0a.93.93,0,0,0-.39-.12.26.26,0,0,0-.26.14,1.27,1.27,0,0,0-.07.53v1h.79v.68Z"/></g><g class="cls-5"><path id="Fill-114" class="cls-4" d="M100.08,46.37a1,1,0,0,0,.25.74,1,1,0,0,0,1.37,0,1.06,1.06,0,0,0,.26-.74,1,1,0,0,0-.26-.73,1,1,0,0,0-1.36,0,1,1,0,0,0-.26.72m-.75,0a1.6,1.6,0,0,1,.49-1.16,1.74,1.74,0,0,1,2.4,0,1.69,1.69,0,0,1,0,2.38A1.68,1.68,0,0,1,101,48a1.64,1.64,0,0,1-1.67-1.69"/></g><g class="cls-5"><path id="Fill-115" class="cls-4" d="M105.14,44.8h.74v.28a1.36,1.36,0,0,1,.35-.29.89.89,0,0,1,.38-.08,1.14,1.14,0,0,1,.6.19l-.33.66a.78.78,0,0,0-.41-.14c-.4,0-.59.3-.59.9V48h-.74Z"/></g><g class="cls-5"><path id="Fill-116" class="cls-4" d="M113.66,45.44a1.82,1.82,0,0,0,.56,1.36,1.78,1.78,0,0,0,1.29.53,1.82,1.82,0,0,0,1.33-.54,1.95,1.95,0,0,0,0-2.68,1.87,1.87,0,0,0-3.19,1.33m-.76,0a2.45,2.45,0,0,1,.78-1.82,2.56,2.56,0,0,1,1.86-.75,2.61,2.61,0,0,1,2.6,2.6,2.43,2.43,0,0,1-.77,1.83,2.66,2.66,0,0,1-3.62.08,2.46,2.46,0,0,1-.85-1.94"/></g><g class="cls-5"><path id="Fill-117" class="cls-4" d="M123.09,46.39a1,1,0,0,0-.25-.73.76.76,0,0,0-.63-.29.82.82,0,0,0-.65.28,1,1,0,0,0-.25.73,1.06,1.06,0,0,0,.25.73.87.87,0,0,0,1.28,0,1.09,1.09,0,0,0,.25-.72Zm-1.74,3.28h-.73V44.8h.73v.34a1.35,1.35,0,0,1,1-.43,1.37,1.37,0,0,1,1.08.48,1.76,1.76,0,0,1,.43,1.2,1.71,1.71,0,0,1-.43,1.18,1.39,1.39,0,0,1-2.06,0Z"/></g><g class="cls-5"><path id="Fill-118" class="cls-4" d="M128.4,46a.69.69,0,0,0-.73-.58.66.66,0,0,0-.25,0,.65.65,0,0,0-.22.11,1,1,0,0,0-.16.19.64.64,0,0,0-.1.24Zm.75.6h-2.26a1,1,0,0,0,.25.62.77.77,0,0,0,.57.22.74.74,0,0,0,.46-.13,1.77,1.77,0,0,0,.4-.48l.61.35a1.89,1.89,0,0,1-.3.41,1.54,1.54,0,0,1-.34.29,1.34,1.34,0,0,1-.39.16,1.71,1.71,0,0,1-.46,0,1.51,1.51,0,0,1-1.14-.45,1.94,1.94,0,0,1,0-2.42,1.58,1.58,0,0,1,2.21,0,1.75,1.75,0,0,1,.41,1.22Z"/></g><g class="cls-5"><path id="Fill-119" class="cls-4" d="M131.62,44.8h.73v.29a1.21,1.21,0,0,1,.86-.38,1.09,1.09,0,0,1,.87.35,1.43,1.43,0,0,1,.26,1V48h-.73V46.19a1.2,1.2,0,0,0-.13-.64.53.53,0,0,0-.46-.18.56.56,0,0,0-.52.24,1.6,1.6,0,0,0-.15.82V48h-.73Z"/></g><g class="cls-5"><path id="Fill-120" class="cls-4" d="M143.55,43.66h-2v1.2h2v.71h-2v1.67h2V48h-2.77V43h2.77Z"/></g><g class="cls-5"><path id="Fill-121" class="cls-4" d="M146.67,46.37a1.09,1.09,0,0,0,.24.73.79.79,0,0,0,.63.29.84.84,0,0,0,.66-.28,1.09,1.09,0,0,0,.25-.73,1.11,1.11,0,0,0-.25-.73.83.83,0,0,0-.65-.28.81.81,0,0,0-.63.28,1,1,0,0,0-.25.72Zm1.73-3.89h.74V48h-.74v-.33a1.4,1.4,0,0,1-2.05,0,1.72,1.72,0,0,1-.43-1.2,1.65,1.65,0,0,1,.43-1.18,1.36,1.36,0,0,1,2.05,0Z"/></g><g class="cls-5"><path id="Fill-122" class="cls-4" d="M152.45,44.8v1.81c0,.52.21.78.62.78s.62-.26.62-.78V44.8h.73v1.83a2.08,2.08,0,0,1-.09.65,1.18,1.18,0,0,1-.31.44,1.38,1.38,0,0,1-1,.32,1.36,1.36,0,0,1-.94-.32,1.21,1.21,0,0,1-.32-.44,1.84,1.84,0,0,1-.09-.65V44.8Z"/></g><g class="cls-5"><path id="Fill-123" class="cls-4" d="M159.47,44.93v1a1.85,1.85,0,0,0-.44-.42,1,1,0,0,0-.46-.11.88.88,0,0,0-.69.29,1,1,0,0,0-.27.72,1.07,1.07,0,0,0,.26.73.9.9,0,0,0,.68.28.91.91,0,0,0,.47-.11,1.73,1.73,0,0,0,.45-.43v1a1.82,1.82,0,0,1-.89.23,1.65,1.65,0,0,1-1.22-.47,1.58,1.58,0,0,1-.5-1.18,1.6,1.6,0,0,1,.5-1.19,1.68,1.68,0,0,1,1.23-.49,1.8,1.8,0,0,1,.88.22"/></g><g class="cls-5"><path id="Fill-124" class="cls-4" d="M162.44,46.37a1,1,0,0,0,.25.73.76.76,0,0,0,.63.29.81.81,0,0,0,.65-.28,1,1,0,0,0,.25-.73,1.06,1.06,0,0,0-.25-.73.87.87,0,0,0-1.28,0,1.09,1.09,0,0,0-.25.72Zm1.74-1.57h.73V48h-.73v-.33a1.41,1.41,0,0,1-1,.42,1.4,1.4,0,0,1-1.09-.47,1.76,1.76,0,0,1-.43-1.2,1.74,1.74,0,0,1,.43-1.19,1.39,1.39,0,0,1,1.07-.47,1.36,1.36,0,0,1,1,.45Z"/></g><g class="cls-5"><path id="Fill-125" class="cls-4" d="M168.25,45.48V48h-.73V45.48h-.31V44.8h.31V43.64h.73V44.8h.57v.68Z"/></g><g class="cls-5"><path id="Fill-126" class="cls-4" d="M171.71,48H171V44.8h.73Zm-.84-4.47a.49.49,0,0,1,.14-.33.45.45,0,0,1,.33-.14.46.46,0,0,1,.34.14.48.48,0,0,1,.14.34.45.45,0,0,1-.14.33.42.42,0,0,1-.33.14.42.42,0,0,1-.34-.14.46.46,0,0,1-.14-.34Z"/></g><g class="cls-5"><path id="Fill-127" class="cls-4" d="M174.9,46.37a1,1,0,0,0,.25.74.88.88,0,0,0,.69.28.9.9,0,0,0,.68-.27,1.06,1.06,0,0,0,.26-.74,1,1,0,0,0-.26-.73,1,1,0,0,0-1.36,0,1,1,0,0,0-.26.72m-.75,0a1.56,1.56,0,0,1,.49-1.16,1.74,1.74,0,0,1,2.4,0,1.63,1.63,0,0,1,.49,1.19,1.6,1.6,0,0,1-.5,1.19,1.64,1.64,0,0,1-1.21.47,1.64,1.64,0,0,1-1.67-1.69"/></g><g class="cls-5"><path id="Fill-128" class="cls-4" d="M180,44.8h.74v.29a1.19,1.19,0,0,1,.86-.38,1.05,1.05,0,0,1,.86.35,1.38,1.38,0,0,1,.27,1V48H182V46.19a1.11,1.11,0,0,0-.13-.64.51.51,0,0,0-.46-.18.55.55,0,0,0-.51.24,1.6,1.6,0,0,0-.15.82V48H180Z"/></g></g></g></g></g></svg>