<?xml version="1.0" encoding="UTF-8"?>
<svg width="203px" height="74px" viewBox="0 0 203 74" version="1.1" xmlns="http://www.w3.org/2000/svg" xmlns:xlink="http://www.w3.org/1999/xlink">
    <!-- Generator: Sketch 48.2 (47327) - http://www.bohemiancoding.com/sketch -->
    <title>logo</title>
    <desc>Created with Sketch.</desc>
    <defs>
        <polygon id="path-1" points="9.0202066e-20 0.65703062 9.0202066e-20 27.4779294 43.9364381 27.4779294 43.9364381 0.65703062 0 0.65703062"></polygon>
    </defs>
    <g id="header" stroke="none" stroke-width="1" fill="none" fill-rule="evenodd">
        <g id="Group-13">
            <g id="logo">
                <path d="M52.754209,39.3732083 C52.7492172,39.3715429 52.7492172,39.349061 52.7467213,39.336571 C52.7442254,39.2916071 52.7483852,39.2491413 52.7716803,39.2133367 C52.7741762,39.1933527 52.7775041,39.1725361 52.780832,39.1517195 C52.7849918,39.080943 52.7874877,39.0101665 52.8182705,38.9485494 C52.8215984,38.9277327 52.8249262,38.9069161 52.8282541,38.8869322 C52.8340779,38.7886778 52.8332459,38.6870927 52.8931475,38.569687 C52.9164426,38.7129053 52.8956434,38.8061637 52.8631967,38.8969242 C52.8598689,38.9169081 52.856541,38.9377247 52.8532131,38.9585413 C52.8532131,39.0301505 52.8465574,39.1000943 52.8157746,39.1617115 L52.805791,39.222496 C52.806623,39.2666272 52.804127,39.3090931 52.78,39.344065 C52.78,39.3623836 52.779168,39.3823676 52.754209,39.3732083" id="Fill-1" fill="#FEFEFD"></path>
                <path d="M52.7151898,39.5549789 C52.7110299,39.5533136 52.710198,39.5316643 52.707702,39.5191744 C52.7151898,39.4916964 52.7226775,39.4642185 52.7293332,39.4375732 C52.7326611,39.4267486 52.735157,39.405932 52.735157,39.405932 C52.7684357,39.4075973 52.759284,39.4284139 52.759284,39.4442346 C52.7534602,39.4708798 52.7476365,39.4983577 52.7409807,39.5258357 C52.7409807,39.5441543 52.7401488,39.5641382 52.7151898,39.5549789" id="Fill-3" fill="#FEFEFD"></path>
                <path d="M52.6087811,39.9855498 C52.612941,39.9713945 52.6162689,39.9572392 52.6204287,39.9422512 C52.6245885,39.9230999 52.6287484,39.903116 52.6329082,39.883132 C52.6354041,39.8698094 52.638732,39.8556541 52.6412279,39.8423315 C52.6445557,39.8281762 52.6478836,39.8148535 52.6503795,39.8006982 C52.6537074,39.7873756 52.6562033,39.774053 52.6586992,39.7607303 C52.662027,39.7399137 52.6653549,39.7182644 52.6686828,39.6974478 C52.6753385,39.6716352 52.6819943,39.64499 52.689482,39.6191774 C52.68865,39.6008587 52.689482,39.5817075 52.713609,39.5900341 C52.7186008,39.5916994 52.7186008,39.6133487 52.7202648,39.6258387 C52.713609,39.6533166 52.7061213,39.6799619 52.6986336,39.7074398 C52.6953057,39.7274238 52.6911459,39.7482404 52.6869861,39.7682243 C52.6836582,39.781547 52.6803303,39.7948696 52.6778344,39.8090249 L52.6653549,39.8473274 C52.6611951,39.8606501 52.6586992,39.8739727 52.6553713,39.8872953 C52.6503795,39.9072793 52.6453877,39.9272632 52.6412279,39.9472472 C52.6379,39.9614025 52.6345721,39.9763904 52.6320762,39.9905457 C52.6345721,40.0554936 52.6171008,40.1104494 52.5738385,40.1820586 C52.5580311,40.0888002 52.5829902,40.037175 52.6087811,39.9855498" id="Fill-5" fill="#FEFEFD"></path>
                <path d="M52.5714258,40.1559129 C52.5822414,40.2741513 52.5439709,40.3291071 52.517348,40.386561 C52.5048684,40.3116212 52.5240037,40.2508367 52.5714258,40.1559129" id="Fill-7" fill="#FEFEFD"></path>
                <path d="M52.486898,40.4465961 C52.4877299,40.4432654 52.4893939,40.4391021 52.4902258,40.4357715 L52.5027053,40.4382695 C52.5010414,40.4424328 52.5010414,40.4474288 52.4985455,40.4490941 C52.4960496,40.4507594 52.4910578,40.4474288 52.486898,40.4465961" id="Fill-9" fill="#FEFEFD"></path>
                <path d="M50.5345205,43.6540199 C50.5311926,43.6615138 50.5303607,43.6706732 50.5253689,43.6756691 C50.520377,43.6806651 50.5095615,43.6873264 50.5054016,43.6839958 C50.4870984,43.6715058 50.5029057,43.6640118 50.5103934,43.6581832 C50.5153852,43.6540199 50.5253689,43.6548525 50.5345205,43.6540199" id="Fill-11" fill="#FEFEFD"></path>
                <path d="M50.561393,43.6068911 C50.5722086,43.5594292 50.586352,43.5244573 50.6287824,43.5019753 C50.6329422,43.5577638 50.6063193,43.5844091 50.561393,43.6068911" id="Fill-13" fill="#FEFEFD"></path>
                <path d="M50.6881016,43.4401916 C50.6822779,43.4451876 50.6772861,43.4518489 50.6706303,43.4560122 C50.6681344,43.4576776 50.6623107,43.4543469 50.6581508,43.4526816 L50.6706303,43.431865 C50.6764541,43.4351956 50.6822779,43.4376936 50.6881016,43.4401916" id="Fill-15" fill="#FEFEFD"></path>
                <path d="M50.7376869,43.3629203 C50.7368549,43.3670837 50.7368549,43.373745 50.734359,43.3754103 C50.7277033,43.378741 50.7202156,43.3804063 50.7110639,43.3829043 C50.7127279,43.3754103 50.7127279,43.366251 50.7168877,43.3629203 C50.7210475,43.3604224 50.7301992,43.3629203 50.7376869,43.3629203" id="Fill-17" fill="#FEFEFD"></path>
                <path d="M50.7742102,43.2848997 C50.7891857,43.2832343 50.7925135,43.289063 50.7841939,43.2998876 C50.780034,43.3057163 50.7700504,43.306549 50.7567389,43.3123776 C50.7600668,43.3023856 50.7608988,43.2957243 50.7633947,43.2907283 C50.7658906,43.2873977 50.7700504,43.2848997 50.7742102,43.2848997" id="Fill-19" fill="#FEFEFD"></path>
                <path d="M50.8205508,43.2129575 C50.8363582,43.2112921 50.840518,43.2179535 50.8313664,43.2296108 C50.8255426,43.2354394 50.816391,43.2362721 50.8014156,43.2429334 C50.8047434,43.2312761 50.8055754,43.2246148 50.8089033,43.2187861 C50.8113992,43.2154555 50.816391,43.2137901 50.8205508,43.2129575" id="Fill-21" fill="#FEFEFD"></path>
                <path d="M50.8619828,43.1689928 C50.8586549,43.1698254 50.8528311,43.1656621 50.8478393,43.1631641 C50.8586549,43.1515068 50.8703025,43.1398495 50.8802861,43.1281922 C50.8877738,43.1498415 50.8802861,43.1631641 50.8619828,43.1689928" id="Fill-23" fill="#FEFEFD"></path>
                <path d="M51.0399406,42.8876354 C51.028293,42.8992927 51.0183094,42.91095 51.0066619,42.9226073 C51.0158135,42.9442566 51.0099898,42.9592446 50.9916865,42.9667386 C50.9883586,42.9684039 50.979207,42.9609099 50.9725512,42.9575793 C50.9841988,42.945922 50.9941824,42.9342646 51.0058299,42.9226073 C50.9975102,42.9017907 51.002502,42.8868028 51.0208053,42.8793088 C51.0241332,42.8776435 51.0332848,42.8851374 51.0399406,42.8876354" id="Fill-25" fill="#FEFEFD"></path>
                <path d="M50.8831148,43.123446 C50.875627,43.0626615 50.9163934,43.0368489 50.9613197,42.9793951 C50.9546639,43.0668248 50.927209,43.1017967 50.8831148,43.123446" id="Fill-27" fill="#FEFEFD"></path>
                <path d="M51.7849672,41.3617777 C51.7375451,41.3442917 51.7724877,41.3109852 51.7857992,41.2868379 C51.7866311,41.2685193 51.790791,41.2510333 51.8132541,41.2576946 C51.8190779,41.25936 51.8207418,41.2801766 51.8240697,41.2926665 C51.8207418,41.3234751 51.8199098,41.3751003 51.7849672,41.3617777" id="Fill-29" fill="#FEFEFD"></path>
                <path d="M51.8937885,41.0665981 C51.9054361,41.1506972 51.8763172,41.1964938 51.8230713,41.2606089 C51.8130877,41.1640199 51.8330549,41.11406 51.8887967,41.0649328 C51.8729893,40.9891603 51.8954525,40.9483598 51.9462025,40.9058939 C51.9661697,40.9858297 51.9453705,41.0274629 51.8937885,41.0665981" id="Fill-31" fill="#FEFEFD"></path>
                <path d="M52.404866,38.4389587 C52.4323209,38.4439547 52.4173455,38.4522813 52.4115217,38.4597753 C52.4090258,38.453114 52.4073619,38.4464526 52.404866,38.4389587" id="Fill-33" fill="#FEFEFD"></path>
                <path d="M52.4089426,38.4681852 C52.4081107,38.4781772 52.4072787,38.4881691 52.4056148,38.4989938 C52.398127,38.4865038 52.398959,38.4765118 52.4089426,38.4681852" id="Fill-35" fill="#FEFEFD"></path>
                <path d="M52.405698,38.5072372 C52.4065299,38.5147311 52.4073619,38.5230578 52.4073619,38.5305518 C52.3824029,38.5180618 52.3965463,38.5130658 52.405698,38.5072372" id="Fill-37" fill="#FEFEFD"></path>
                <path d="M52.383734,38.6076565 C52.3804061,38.5993299 52.3795742,38.5901705 52.3779102,38.5818439 C52.382902,38.5826766 52.3912217,38.5826766 52.3912217,38.5843419 C52.3937176,38.5918359 52.3945496,38.6009952 52.3962135,38.6093218 C52.3920537,38.6084892 52.383734,38.6084892 52.383734,38.6076565" id="Fill-39" fill="#FEFEFD"></path>
                <path d="M52.3690914,38.6840951 C52.3690914,38.6757685 52.3682594,38.6674418 52.3674275,38.6599478 C52.3932184,38.6732705 52.378243,38.6782665 52.3690914,38.6840951" id="Fill-41" fill="#FEFEFD"></path>
                <path d="M52.3675107,38.6893409 C52.3791582,38.7043289 52.3774943,38.7168188 52.3641828,38.7259781 C52.3550311,38.7109902 52.357527,38.6993329 52.3675107,38.6893409" id="Fill-43" fill="#FEFEFD"></path>
                <path d="M52.3544488,38.7487099 C52.3577766,38.7420486 52.3611045,38.7362199 52.3636004,38.7303913 C52.3669283,38.7370526 52.3694242,38.7445465 52.3719201,38.7512079 L52.3544488,38.7487099 Z" id="Fill-45" fill="#FEFEFD"></path>
                <path d="M52.2586061,39.3317416 C52.2569422,39.3200843 52.2552783,39.308427 52.2527824,39.2967697 C52.2586061,39.2867777 52.2677578,39.2684591 52.2694217,39.2701244 C52.286893,39.278451 52.2794053,39.290941 52.2752455,39.3017657 C52.2769094,39.3167536 52.2760775,39.3300762 52.2586061,39.3317416" id="Fill-47" fill="#FEFEFD"></path>
                <path d="M52.1740783,39.6940339 C52.1699184,39.6923686 52.1707504,39.671552 52.1690865,39.659062 C52.1632627,39.6057715 52.180734,39.5599749 52.2015332,39.5166764 C52.2048611,39.5033537 52.2081889,39.4908638 52.2115168,39.4775411 C52.2131807,39.4508959 52.205693,39.403434 52.2389717,39.4150913 C52.2722504,39.4267486 52.2489553,39.4617205 52.2373078,39.4850351 C52.2348119,39.4983577 52.232316,39.5116804 52.2289881,39.525003 C52.231484,39.5766282 52.2256602,39.6249228 52.1973734,39.666556 C52.1982053,39.6832093 52.1982053,39.7023606 52.1740783,39.6940339" id="Fill-49" fill="#FEFEFD"></path>
                <path d="M52.8890709,47.5754535 C53.8608086,46.1824057 54.6486816,44.7102548 55.2485299,43.1581681 C55.295952,43.0365991 55.3625094,42.9125321 55.3358865,42.7501625 C55.1312225,42.9799779 55.0413701,43.228112 54.940702,43.466254 C53.8965832,45.945929 52.3857307,48.135004 50.5387635,50.1084189 C51.3832102,49.4164747 52.1702512,48.6062921 52.8890709,47.5754535" id="Fill-51" fill="#F1B630"></path>
                <path d="M47.9200635,52.512488 C48.1829652,52.3392937 48.4433709,52.1444502 48.6996168,51.9129695 C49.3435594,51.3317697 49.9567193,50.7305859 50.5382643,50.1085855 C48.6871373,51.6240349 46.5448217,52.5649458 44.1737152,53.9563283 C44.2943504,53.919691 44.4133217,53.8830538 44.533125,53.8480819 C45.7161824,53.1727909 46.8468258,52.9096689 47.9200635,52.512488" id="Fill-53" fill="#F1B630"></path>
                <path d="M3.79410328,35.092813 C3.78827951,35.0819884 3.78245574,35.0719964 3.77663197,35.0611717 C3.82821393,35.0511798 3.80159098,35.0761597 3.79410328,35.092813" id="Fill-55" fill="#EE852F"></path>
                <polygon id="Fill-57" fill="#EE852F" points="3.80625 34.9570054 3.79377049 34.9486788 3.81290574 34.9378541"></polygon>
                <polygon id="Fill-59" fill="#EE852F" points="3.81523525 34.8427638 3.81024344 34.8294412 3.82605082 34.8302739"></polygon>
                <path d="M16.4758627,22.937493 C16.2370881,23.1431611 16.0049693,23.3713112 15.7811701,23.6336005 C15.2170963,24.2930708 14.6879652,24.9700271 14.1921127,25.6619713 C15.8310881,23.9183718 17.8328012,22.7060122 20.0025717,21.0190339 C19.8885922,21.0706591 19.7746127,21.1222843 19.6606332,21.1722442 C18.574916,21.9957494 17.4883668,22.4045877 16.4758627,22.937493" id="Fill-61" fill="#EE852F"></path>
                <path d="M56.905975,47.2579585 C55.9334053,46.9906732 54.9583398,46.7433718 53.9757865,46.5451976 C52.9499709,48.1730568 51.7153316,49.6751836 50.3009873,51.0723947 C49.5455611,51.8176294 48.7493684,52.2056511 47.9198971,52.5129043 C46.8491553,53.2148405 45.7185119,53.5012771 44.5329586,53.8484982 C44.4896963,53.8726455 44.447266,53.8901314 44.4048357,53.915944 C44.3233029,53.9642386 44.242602,54.0133658 44.1610693,54.0633256 C43.9863561,54.1382654 43.8083152,54.2123726 43.6286102,54.2856471 C43.6876799,54.2281932 43.7567332,54.2023806 43.8158029,54.166576 C43.9356061,54.0941342 44.0545775,54.0258557 44.1735488,53.9559119 C43.5146307,54.1574167 42.8415693,54.3888975 42.1493725,54.7402819 C41.8906307,54.8718429 41.631057,55.0009059 41.3706512,55.1283036 L43.686016,54.3614195 L41.5811389,56.6970435 C41.2433602,57.0725752 40.1601389,57.9385463 37.2474217,58.217489 C40.0170406,58.1283939 42.6535447,57.428123 45.0962004,56.1341623 C46.0171881,55.6453882 46.9048971,55.0758457 47.6503398,54.5829083 L48.8325652,53.8201876 L49.0089422,55.1174789 C49.0422209,55.3664456 48.9723357,55.606253 48.8267414,55.7936025 C51.7719053,53.6719733 55.1779791,50.0607073 56.905975,47.2579585" id="Fill-63" fill="#81BA27"></path>
                <path d="M17.3891131,52.2880849 C17.4190639,52.3105668 17.4481828,52.3330488 17.4831254,52.359694 C17.418232,52.3763473 17.4074164,52.3272201 17.3891131,52.2880849 M58.5032689,47.8499829 C56.7203631,50.8692245 52.9598713,54.8785042 49.7551336,57.1766583 C49.4772566,57.3764978 49.1477975,57.6479464 48.7950434,57.936881 C47.9647402,58.6171679 47.0229533,59.3882153 46.2042975,59.7254444 L45.7051172,59.9302799 L45.2358877,59.5372622 C44.9197402,59.2366703 44.7932811,58.6379846 44.7899533,58.1392185 C42.1867279,59.3249328 39.3755107,59.9177899 36.4844246,59.8919773 C34.7139984,59.8794874 32.6249287,59.7962209 30.5516664,59.2733076 C30.4551582,59.249993 28.1447852,58.5097542 27.8144943,58.3648706 C27.1821992,58.1342225 27.1472566,57.6029825 27.1505844,57.4464416 C27.1539123,57.3365299 27.185527,57.1350251 27.3194738,56.9360183 C24.4658262,56.2798786 21.6421295,56.1341623 19.827609,54.8818349 C18.9315803,54.2648305 18.0971172,52.744385 17.2368631,52.0857474 C17.1162279,52.1232173 17.0654779,52.0274609 17.0039123,51.972505 C16.7360189,51.7335303 16.4706213,51.4912249 16.2152074,51.2414256 C15.5171869,50.560306 14.803359,49.8866804 14.2567566,49.0864898 C13.1718713,47.4952679 12.4081254,45.7483377 11.9530393,43.8631852 C11.4846418,41.9255748 11.4496992,39.9529926 11.8881459,37.9371118 C12.0096131,37.3725652 12.19015,36.822174 12.3590393,36.2676194 C12.3715189,36.2259862 12.418941,36.1751936 12.3731828,36.1368911 C12.292482,36.0686126 12.2849943,36.0686126 12.3207689,35.9961707 C12.6810107,35.2750833 13.0038139,34.5423385 13.3424246,33.813757 C13.5728795,33.3166563 13.8441008,32.7929103 14.1377852,32.260005 C11.3448713,31.3865399 8.55611721,30.4714416 5.83724836,29.3306912 C5.32309262,30.9468931 5.32808443,32.778755 4.79229754,34.3624829 C2.43783033,41.3302197 3.9129082,48.1497422 4.95286721,50.2688734 C6.58269098,53.5895395 7.75576475,56.2632253 10.617732,58.6488092 C10.769982,58.7762069 10.9363754,58.9061025 11.1127525,59.0384962 L11.1127525,59.0384962 C30.4759574,75.0040058 51.4673221,60.3207996 56.4358303,54.6553501 C56.5364984,54.5479364 56.6379984,54.442188 56.7378344,54.3339416 C57.0564779,53.9667366 57.3759533,53.5995315 57.6937648,53.2331591 C58.3884574,52.3921679 59.0249123,51.5170375 59.6089533,50.6144292 C60.1680352,49.8100752 60.4575598,49.3287951 60.4575598,49.3287951 L60.3568918,49.3920776 C60.529109,49.0964817 60.6963344,48.7992205 60.8569041,48.4977959 C60.8652238,48.4836407 60.8718795,48.4686527 60.8785352,48.4536647 C60.1097975,48.2088614 59.3402279,47.9698866 58.5706582,47.7375732 C58.5481951,47.7767085 58.525732,47.8116804 58.5032689,47.8499829" id="Fill-65" fill="#81BA27"></path>
                <path d="M48.1190701,55.3170686 C47.7313734,55.7000943 47.2887668,56.0206701 46.8811029,56.3803812 C46.6107135,56.6201886 45.8062012,57.3595947 45.6539512,57.7884169 C45.5499553,58.0823475 45.686398,59.0374137 45.887734,58.9549799 C46.9235332,58.5294884 48.3611725,57.1522612 49.2713447,56.4994522 C52.2298201,54.377823 55.9745045,50.4951083 57.7865291,47.4267396 C58.9995373,45.3725562 60.096902,43.7355377 60.9280373,41.5373034 C61.6618324,39.597195 61.1975947,37.3273515 61.594443,35.3222953 C63.0245947,28.1080899 60.6767832,21.5383668 59.3697627,19.5724458 C57.3231234,16.4915871 55.8122709,13.9935935 52.664107,12.0001946 C52.4968816,11.8944462 52.3146807,11.7870325 52.1224963,11.6787861 L52.1233283,11.6779535 C50.4835209,10.6521108 48.8603529,9.82777287 47.2538242,9.14582063 C47.0940865,12.5364306 46.6872545,15.6805718 46.777107,19.0703491 C46.802898,19.0870024 47.7896111,19.8588824 48.0766398,20.0737099 C48.857857,20.6574077 49.6532176,21.2327789 50.2979922,21.9555317 C51.5808857,23.3910453 52.5651029,25.0247331 53.2614594,26.8332805 C53.9769512,28.6942857 54.2681398,30.6460514 54.0959225,32.7010674 C54.0476684,33.2764386 53.9403447,33.8468138 53.8455004,34.4180217 C53.8380127,34.4604876 53.7972463,34.5171087 53.8488283,34.5504153 C53.9370168,34.6070365 53.9445045,34.6053712 53.9178816,34.6819763 C53.6549799,35.4438644 53.4295168,36.2132464 53.1890783,36.9792978 C52.4519553,39.3215831 51.0625701,42.2558929 49.7480619,44.3783547 C49.7480619,44.3783547 47.6689758,44.4816051 46.6265209,44.9179213 C44.5624102,45.7822271 41.8942914,47.8930317 39.4358283,49.3285453 C36.9781971,50.7632263 33.0105455,50.3027628 31.7268201,50.3427307 C30.4430947,50.3835313 29.4655332,50.3410654 29.4580455,51.1121128 C30.3124758,51.3419282 33.8500004,52.0730076 35.6220906,52.0538563 C37.3941807,52.0347051 37.7594143,52.2428712 37.7594143,52.2428712 L37.6870332,52.2944964 C37.0089799,52.4119021 36.3325906,52.6150722 35.6553693,52.6733587 C34.4398652,52.7766091 33.2301848,52.7408046 32.0246643,52.6850161 C30.3041561,52.6050803 28.6135988,52.3785955 26.9188816,52.1670987 C26.5053939,52.1154735 26.094402,52.0513583 25.6692668,52.0796689 C24.4986889,52.1496128 24.5527668,53.0172492 24.5652463,53.0697071 C24.6176602,53.2762079 25.0328119,53.2737099 25.2216684,53.337825 C28.5120988,54.4436035 32.4572873,55.0106481 34.6578406,54.9365409 C34.698607,54.9357083 34.747693,54.9198876 34.7901234,55.0048194 C33.1727791,55.1480377 31.6253201,54.9465329 30.0637176,54.8199679 C29.4580455,54.7708407 28.8640209,54.6942356 28.2816439,54.5859892 C27.3481766,54.4111296 26.4438283,54.1546689 25.5702627,53.7949579 C24.8605947,53.6625642 23.9254635,54.3911457 23.988693,54.4402729 C24.3672381,54.7317055 25.715025,55.5293981 26.1775988,55.6917677 C27.517898,56.1605578 27.213398,56.0256661 29.9405865,56.604368 C30.1069799,56.6393399 35.814275,57.8442055 40.9624881,56.1397412 C40.8327012,56.2846248 38.987398,58.3671188 29.928107,57.0340229 C29.6019758,57.0490108 29.2766766,57.0856481 28.9505455,57.123118 C28.6868119,57.1539266 28.4205824,57.1905638 28.1668324,57.2929815 C28.0852996,57.3254555 27.9854635,57.3720847 27.9829676,57.4695064 C27.9804717,57.5569362 28.0803078,57.5727568 28.1468652,57.6019001 C28.4388857,57.7292978 30.7317873,58.4603772 30.7550824,58.4662059 C32.6128652,58.9341633 34.5397012,59.0457404 36.4898324,59.0598957 C39.619693,59.0823776 42.6197668,58.3887681 45.4850619,56.869988 C46.3902422,56.3903732 47.2538242,55.8424799 48.1082545,55.2787661 L48.1839635,55.2296388 C48.1906193,55.2779334 48.1615004,55.3020807 48.1190701,55.3170686" id="Fill-67" fill="#83579F"></path>
                <polygon id="Fill-69" fill="#EE852F" points="42.9875795 51.5948917 42.9825877 51.579071 43.000059 51.5807364"></polygon>
                <path d="M43.1020582,51.5286116 C43.0987303,51.5327749 43.0895787,51.5327749 43.0837549,51.5352729 C43.0837549,51.5286116 43.080427,51.5194522 43.0845869,51.5152889 C43.0870828,51.5111256 43.0962344,51.5119583 43.1028902,51.5111256 C43.1028902,51.5161216 43.106218,51.5244482 43.1020582,51.5286116" id="Fill-71" fill="#EE852F"></path>
                <path d="M43.1850053,51.4733226 C43.1841734,51.464996 43.1800135,51.455004 43.1841734,51.450008 C43.1883332,51.445012 43.2008127,51.445012 43.2083004,51.4433467 C43.2083004,51.450008 43.2124602,51.46 43.2083004,51.4658287 C43.2041406,51.4708246 43.193325,51.4708246 43.1850053,51.4733226" id="Fill-73" fill="#EE852F"></path>
                <path d="M43.321448,52.6592867 C43.3098004,52.6667807 43.2898332,52.660952 43.2740258,52.660952 C43.2790176,52.6467967 43.2806816,52.6259801 43.2914971,52.6201515 C43.3039766,52.6118248 43.3239439,52.6168208 43.3405832,52.6151555 C43.3347594,52.6309761 43.3322635,52.6517927 43.321448,52.6592867" id="Fill-75" fill="#EE852F"></path>
                <path d="M10.4246324,33.1660273 C10.3938496,33.293425 10.3430996,33.424986 10.3905217,33.5823596 C10.5635709,33.3275642 10.6209766,33.0694382 10.689198,32.8204715 C11.4030258,30.2258888 12.617698,27.8586236 14.1917799,25.6620546 C13.4438414,26.4572492 12.769116,27.3631882 12.1900668,28.4797913 C11.4080176,29.9877468 10.8181529,31.5498254 10.4246324,33.1660273" id="Fill-77" fill="#EE852F"></path>
                <path d="M3.79410328,35.092813 C3.80159098,35.0761597 3.82821393,35.0511798 3.77663197,35.0611717 C3.78245574,35.0719964 3.78827951,35.0819884 3.79410328,35.092813" id="Fill-79" fill="#EE852F"></path>
                <polygon id="Fill-81" fill="#EE852F" points="3.80625 34.9570054 3.81290574 34.9378541 3.79377049 34.9486788"></polygon>
                <polygon id="Fill-83" fill="#EE852F" points="3.81523525 34.8427638 3.82605082 34.8302739 3.81024344 34.8294412"></polygon>
                <path d="M43.2743586,52.6612851 C43.290166,52.6612851 43.3101332,52.6662811 43.3217807,52.6596198 C43.3317643,52.6521258 43.3342602,52.6313092 43.340916,52.6154886 C43.3242766,52.6163212 43.3043094,52.6121579 43.2918299,52.6196519 C43.2810143,52.6263132 43.2793504,52.6471298 43.2743586,52.6612851" id="Fill-85" fill="#EE852F"></path>
                <polygon id="Fill-87" fill="#EE852F" points="42.9875795 51.5948917 43.000059 51.5807364 42.9825877 51.579071"></polygon>
                <path d="M43.0834221,51.5351063 C43.0900779,51.533441 43.0992295,51.533441 43.1017254,51.528445 C43.1058852,51.5242817 43.1025574,51.5159551 43.1025574,51.5109591 C43.0967336,51.5126244 43.087582,51.5117917 43.0842541,51.5159551 C43.0800943,51.5192857 43.0834221,51.528445 43.0834221,51.5351063" id="Fill-89" fill="#EE852F"></path>
                <path d="M43.1841734,51.449675 C43.1800135,51.4546709 43.1841734,51.4654956 43.1850053,51.4729896 C43.193325,51.4704916 43.2041406,51.4704916 43.2083004,51.4654956 C43.2124602,51.4604996 43.2083004,51.449675 43.2083004,51.4438463 C43.2008127,51.4455116 43.1883332,51.444679 43.1841734,51.449675" id="Fill-91" fill="#EE852F"></path>
                <path d="M60.8992512,51.3781491 C60.4208701,51.9077237 59.9582963,52.4522863 59.4624439,52.966873 C56.5630381,55.9852819 53.3724439,58.6564697 49.7891611,60.8555367 C49.0611898,61.3018449 48.3307225,61.7481531 47.5619848,62.1095295 C46.8373414,62.4500893 46.1784234,62.9863252 45.3373045,63.0196318 C45.1700791,63.0262931 44.9978619,63.1320415 44.8289725,63.1969894 C44.0460914,63.4959159 43.2673701,63.8098305 42.4595299,64.0238252 C42.4354029,64.0279886 42.4096119,64.0329846 42.3854848,64.0379805 L42.3147676,64.0962671 C42.3131037,64.0887731 42.3081119,64.0796138 42.3114398,64.0737851 C42.3264152,64.0421439 42.3447184,64.0163313 42.3846529,64.0354825 C42.406284,64.0179966 42.4295791,64.0005106 42.4512102,63.982192 C42.5210955,63.9405588 42.5943086,63.9039215 42.660034,63.855627 C42.7515504,63.7890138 42.9270955,63.7532093 42.9087922,63.6407996 C42.8871611,63.5059079 42.7166078,63.6016643 42.6151078,63.5808477 C42.6059561,63.5783497 42.6026283,63.5591984 42.5685176,63.5025772 C46.7033947,62.041251 50.3665463,59.7580849 53.7127184,56.9203642 C53.6777758,56.9103722 53.648657,56.9120375 53.6286898,56.9261928 C53.5321816,56.9944713 53.4356734,57.0627498 53.343325,57.1351916 C49.8557184,59.8796539 46.1077061,62.1211868 41.8829766,63.4351314 C39.9752758,64.0288212 38.0392881,64.4343289 36.0849971,64.4792927 C32.2205094,64.5683878 28.704616,63.590007 25.4366488,61.9063593 C24.0955176,61.2144151 22.8217758,60.4233838 21.6120955,59.5432574 C20.5130668,58.7430668 19.4564684,57.8954143 18.4589398,56.9811487 C17.6103332,56.2600612 16.829116,55.4723606 16.0603783,54.6730026 C14.5536857,53.108426 13.1651324,51.4464276 11.9371488,49.6586968 C9.68085369,46.3738353 8.26318156,42.7467486 8.08930041,38.6192305 C8.08597254,38.5359641 8.08597254,38.451865 8.08347664,38.327798 C8.24571025,38.454363 8.30145205,38.57843 8.31226762,38.7566202 C8.49946025,42.0414817 9.47535779,45.0449027 11.0261447,47.8393248 C12.6401611,50.7486547 14.7583496,53.2691302 17.1194725,55.5989256 C17.5728947,56.0468991 18.0379643,56.4823826 18.4988742,56.9228622 C18.5704234,56.980316 18.6453004,57.0344392 18.7135217,57.0943911 C20.8699807,59.0020255 23.2269439,60.6407093 25.8933988,61.8680568 C27.5265504,62.6191202 29.2320832,63.1944914 31.0357881,63.5350512 C35.3603537,64.3502297 39.6449848,63.7698626 43.8888496,62.0379203 C46.6759398,60.9005006 49.2492143,59.3625692 51.6644152,57.5473606 C53.9489971,55.8304063 56.0746734,53.9419232 57.9723906,51.815298 C58.1837102,51.5788212 58.4258127,51.3440098 58.5281447,50.9876294 C58.2976898,51.0733939 58.163743,51.2107835 58.0289643,51.3390138 C57.4224602,51.9110544 56.8226119,52.4889236 56.2202676,53.0651274 C53.3266857,55.831239 50.1826816,58.2567907 46.643493,60.1511025 C43.9820299,61.5757915 41.2065873,62.6116262 38.271407,63.0904083 C33.322866,63.8980929 28.8510422,62.9288714 24.7153332,60.740629 C22.6254316,59.6348505 20.7252184,58.2801053 18.9755914,56.7355126 C16.0944889,54.1917225 13.530366,51.3823124 11.576075,48.0666423 C10.4030012,46.076574 9.52943566,43.9524468 9.02027172,41.6676154 C8.34637828,38.6417125 9.16503402,35.9888433 10.0519111,32.8755106 C9.62760779,32.2251996 9.07767746,31.6548244 8.36301762,31.2409902 L7.90460369,30.9770355 L7.94952992,30.4491262 C8.19163238,27.6122382 9.01860779,24.0059681 10.3164766,22.343137 C12.438825,19.6311487 15.9305914,16.0765038 19.3691119,14.2346499 C19.671116,14.0722803 20.0346857,13.8457955 20.4223824,13.6051555 C21.3333865,13.0389436 22.3666898,12.3969593 23.221952,12.1696419 L23.7444275,12.0314195 L24.1587471,12.4827237 C24.4324643,12.8216182 24.4798865,13.4311286 24.4183209,13.9257313 C27.1529971,13.0897362 29.9941652,12.8690801 32.8810914,13.2679264 C34.6332143,13.5110644 36.6915012,13.8649468 38.6832307,14.6543128 C38.7065258,14.6634721 40.9470135,15.7101314 41.2789684,15.9099709 C41.4744807,16.0123886 41.5984439,16.1389537 41.6808086,16.267184 C42.5418947,16.391251 43.3389193,16.5827638 44.0227963,16.9333156 C44.9637512,17.4154284 47.1601447,19.5020857 48.0769725,20.0732935 C47.9871201,16.6835163 47.507907,12.7150371 47.6676447,9.32525983 C28.4392184,1.1668128 11.6218332,16.1397863 7.75401762,21.9209761 C7.66915697,22.0408798 7.58096844,22.1582855 7.49693975,22.2790219 C7.22821434,22.6845295 6.95948893,23.0900371 6.69159549,23.4955447 C6.11171434,24.4198024 5.59423074,25.3698726 5.13248893,26.3407594 C4.68322664,27.2100612 4.45776352,27.7263132 4.45776352,27.7263132 L4.54927992,27.6497081 C4.4178291,27.9644553 4.28970615,28.2817004 4.1690709,28.6014436 C2.63991516,32.6715078 2.13241516,36.7748786 2.68234549,40.9057273 C3.14491926,44.3821017 4.33546434,47.5653782 6.07593975,50.5180066 C8.20161598,54.123444 10.9263086,57.2417727 14.0769684,60.0062189 C15.507952,61.2627097 17.0337799,62.4034601 18.6511242,63.4351314 C18.884907,63.5700231 19.1403209,63.6749388 19.3300094,63.870615 C19.7235299,64.0962671 20.1178824,64.3210865 20.5114029,64.5467386 C20.7851201,64.6150171 21.0014316,64.7807173 21.2368783,64.9122783 C22.1936406,65.3918931 23.1703701,65.8315399 24.1787143,66.2170636 C26.5872594,67.1379906 29.1031283,67.7191904 31.7404643,67.9323525 C31.7903824,67.9365159 31.849452,67.9714878 31.8910504,67.8982133 C31.8777389,67.8882213 31.8669234,67.8724007 31.851948,67.8699027 C31.723825,67.8490861 31.595702,67.8274368 31.4667471,67.8124488 C28.197948,67.4394151 25.1687553,66.4685283 22.334243,65.02219 C20.2518291,63.9588774 18.326657,62.6782394 16.5262799,61.2277378 C14.4630012,59.5649067 12.5785955,57.7305467 10.8505996,55.7421439 C9.42127992,54.0967988 8.11675533,52.3598606 7.03020615,50.4655488 C5.02266926,46.9641944 3.72396844,43.2038814 3.55424713,39.0305668 C3.506825,37.8640038 3.53843975,36.6966081 3.72147254,35.5208858 L3.73145615,35.4392847 C3.72147254,35.3252097 3.72064057,35.2119673 3.79302172,35.1062189 C3.83212418,35.2227919 3.80217336,35.344361 3.78303811,35.4650973 C3.78636598,35.4809179 3.78303811,35.4959059 3.77305451,35.5100612 C3.72147254,35.7273866 3.91199303,35.8697723 3.90616926,36.0737751 C3.88453811,36.885623 3.85625123,37.6974709 3.89202582,38.5059882 C3.97688648,40.385312 4.30468156,42.2055167 4.82798893,43.9749288 C5.50604221,46.2697522 6.54184139,48.3963774 7.69910779,50.4588874 C9.24074303,53.2083457 11.1817225,55.6638734 13.3315258,57.9620275 C14.1976037,58.8887831 15.0878086,59.7888935 16.0986488,60.5682675 C16.4355955,60.8280588 16.8307799,61.0070817 17.1668947,61.2627097 C18.1802307,62.0354224 19.2085422,62.7906491 20.2959234,63.4692707 C21.5197471,64.2319914 22.791825,64.9172743 24.1254684,65.5059681 C25.786075,66.2395455 27.510743,66.8149167 29.3186078,67.1954444 C32.4917307,67.8624087 35.732243,67.8990459 39.0359848,67.2753802 C40.5127266,66.9972703 41.9645094,66.5967586 43.3896693,66.0688493 C43.5344316,66.0147261 43.7049848,65.9872482 43.7931734,65.8148866 C43.7590627,65.8107233 43.7332717,65.7998987 43.7116406,65.8073927 C42.5244234,66.206239 41.3263906,66.5517947 40.1108865,66.8165821 C36.5300996,67.5976214 33.0100463,67.635924 29.5482307,66.9264938 C27.7719807,66.5626194 26.0714398,66.0122281 24.4441119,65.2936386 C23.4615586,64.8589878 22.4939807,64.3976916 21.5863045,63.8389737 C20.9340422,63.5217285 20.3591529,63.0945716 19.7593045,62.7032193 C20.382448,63.0595997 21.0055914,63.4159801 21.6295668,63.7723606 C23.0422471,64.5542325 24.5073414,65.2420134 26.0481447,65.7924047 C28.2961201,66.5942606 30.632284,67.092194 33.0824275,67.218759 C36.6657102,67.4044432 40.1865955,66.7832755 43.6567307,65.54094 C44.4454357,65.2586667 45.2308127,64.9622382 45.985407,64.5833758 C45.9804152,64.5625592 45.9754234,64.5425752 45.9704316,64.5217586 C45.223325,64.8156892 44.4845381,65.1345997 43.7299439,65.404383 C40.6982553,66.4901776 37.6174807,67.104684 34.4726447,67.1180066 C29.9009848,67.1371579 25.7752594,65.9173044 21.9698414,63.8189898 C20.8733086,63.2144753 19.8325176,62.5316904 18.8283332,61.7989456 C17.3174807,60.6973305 15.9039684,59.4924649 14.5919561,58.1768549 L14.0753045,57.6864155 C14.2841283,57.8071519 14.4813045,57.9378802 14.6194111,58.134389 C14.6851365,58.1843489 14.7541898,58.2309781 14.8165873,58.285934 C16.1793496,59.4791423 17.6078373,60.5957454 19.1320012,61.5991061 C20.0812758,62.2252699 21.0729807,62.7898164 22.0688455,63.3485343 C23.6404316,64.230326 25.2644316,65.0055367 26.9949234,65.5967285 C31.901866,67.2720496 36.976866,67.3336667 42.2124357,65.7549348 C46.5919111,64.4351615 50.5096447,62.180306 54.1420135,59.3625692 C54.2759602,59.2593188 54.4315381,59.1610644 54.4889439,58.9728822 C52.3882266,60.4741764 50.2350955,61.8838774 47.9297143,63.0379504 C45.6176775,64.1953541 43.2324275,65.1004605 40.6708004,65.6758317 C40.7706365,65.54094 40.8430176,65.5401073 40.908743,65.5226214 C41.3754766,65.3952237 41.8455381,65.2769854 42.3097758,65.1370977 C44.9521037,64.3427358 47.4521652,63.1911607 49.8390791,61.7581451 C50.6494152,61.271869 51.4464398,60.7689396 52.1569398,60.1402779 C52.2492881,60.0595094 52.3391406,59.981239 52.3898906,59.7997181 C51.7043496,60.0961467 51.0770463,60.4125592 50.4979971,60.7597803 C49.181825,61.5483136 47.8906119,62.3718188 46.4954029,63.0113052 C43.2074684,64.518428 39.8221939,65.4884821 36.2863332,65.6741663 C36.190657,65.6791623 36.0750135,65.7307875 35.9984725,65.6308678 C36.0775094,65.5517646 36.1698578,65.5734139 36.2538865,65.5684179 C38.2996939,65.4385223 40.3155504,65.0438393 42.306448,64.4185082 C44.3231365,63.7848505 46.2582922,62.9405287 48.1293865,61.924678 C48.2317184,61.8688894 48.343202,61.7747984 48.4405422,61.7764637 C48.7799848,61.7839577 49.0470463,61.5799549 49.2383988,61.3751194 C49.4014643,61.2019252 49.5753455,61.0778581 49.765034,61.0020857 C50.0479029,60.889676 50.3157963,60.7497883 50.5354357,60.5549448 C50.8241283,60.3001495 51.1485955,60.1061386 51.4614152,59.8938092 C54.7668209,57.643117 57.7402717,55.0252197 60.4125504,52.0767546 C60.6671324,51.7961467 60.9483373,51.529694 61.1155627,51.1833056 C61.0340299,51.2399268 60.9633127,51.3065399 60.8992512,51.3781491" id="Fill-93" fill="#83579F"></path>
                <path d="M11.6270746,23.3696459 C10.7651566,24.4729264 9.95898033,27.2448666 9.6553123,30.0917466 C10.0330254,30.3548686 10.3674762,30.6662851 10.6811279,30.9985183 C11.5455418,28.7419974 12.7701975,26.6436828 14.3026811,24.6752638 C14.9541115,23.838436 15.6937303,23.3496619 16.4757795,22.937493 C17.4458533,22.1014978 18.5307385,21.6701776 19.66055,21.1722442 C19.7004844,21.1422683 19.7395869,21.1197863 19.7795213,21.0889777 C19.8535664,21.0306912 19.9276115,20.9707394 20.0008246,20.9107875 C20.1655541,20.8141984 20.3319475,20.7167767 20.5000049,20.6210203 C20.4492549,20.6859681 20.3843615,20.72094 20.3311156,20.7634059 C20.2204639,20.8508357 20.1114762,20.9341021 20.0024885,21.0190339 C20.6297918,20.73343 21.2679107,20.4161848 21.9085254,19.9782033 C22.1506279,19.812503 22.3952262,19.6476354 22.6406566,19.4852659 C23.9193902,18.8599348 25.114927,18.1804805 26.3262713,17.5651415 L25.0358902,17.8124428 L27.4128205,15.7732474 C27.7938615,15.4460102 28.9760869,14.7349147 31.8954598,14.8281732 C29.1416484,14.5592225 26.4402508,14.9089416 23.8553287,15.8748325 C22.8761033,16.2395395 21.9235008,16.6883457 21.1198205,17.079698 L19.8652139,17.6817145 L19.8435828,16.3827578 C19.839423,16.1279625 19.939259,15.8948164 20.1098123,15.7266182 C16.9133943,17.4535644 13.6354434,20.8025411 11.6270746,23.3696459" id="Fill-95" fill="#83579F"></path>
                <path d="M25.1197525,20.7488343 C25.1247443,20.7438383 25.1363918,20.7455036 25.1438795,20.7438383 C25.1430475,20.7521649 25.1455434,20.7638222 25.1413836,20.7671529 C25.1372238,20.7721489 25.1255762,20.7696509 25.1172566,20.7704835 C25.1172566,20.7646549 25.1147607,20.7529976 25.1197525,20.7488343 L25.1197525,20.7488343 Z M25.1630148,19.55063 C25.1746623,19.5448014 25.1937975,19.5522953 25.2096049,19.5539607 C25.2029492,19.568116 25.1987893,19.5880999 25.1871418,19.5930959 C25.1729984,19.5997572 25.1546951,19.5922632 25.1372238,19.5914306 C25.1455434,19.5764426 25.1505352,19.5564587 25.1630148,19.55063 L25.1630148,19.55063 Z M25.2329,20.6997071 C25.2370598,20.6963764 25.2462115,20.6972091 25.2528672,20.6963764 C25.2520352,20.7030377 25.2536992,20.712197 25.2495393,20.714695 C25.2453795,20.7188583 25.2370598,20.717193 25.2295721,20.717193 C25.2304041,20.7130297 25.2295721,20.7038704 25.2329,20.6997071 L25.2329,20.6997071 Z M25.3551992,20.6489145 L25.358527,20.6647352 L25.3418877,20.6622372 L25.3551992,20.6489145 Z M30.1939205,18.6130498 C30.7005885,18.5489346 31.2097525,18.5089667 31.7130926,18.4165409 C32.38865,18.2924739 33.0043057,18.4998074 33.6457525,18.5547632 C34.7763959,18.6505197 35.8804164,18.8611838 36.9578139,19.1817596 C34.4777197,18.7462761 31.9635148,18.5289506 29.3819205,18.7571007 C29.6523098,18.6355317 29.9243631,18.6463563 30.1939205,18.6130498 L30.1939205,18.6130498 Z M17.7152443,26.9247071 C17.7152443,26.9247071 19.7893385,27.093738 20.8800475,26.7956441 C23.0398344,26.2077829 25.9592074,24.4616854 28.5824,23.3584049 C31.2047607,22.2551244 35.0800639,23.2293419 36.3579656,23.3550742 C37.6366992,23.4824719 38.6001172,23.6515028 38.706609,22.8879494 C37.8912811,22.549055 34.4777197,21.3633407 32.718109,21.1526766 C30.9576664,20.9411798 30.6232156,20.6872171 30.6232156,20.6872171 L30.7014205,20.6447512 C31.3894574,20.6172733 32.0866459,20.5031982 32.7655311,20.5340068 C33.9835311,20.5897953 35.179068,20.7821409 36.3662852,20.9944703 C38.0626664,21.2983929 39.7099615,21.742203 41.3622484,22.1726906 C41.7649205,22.2776063 42.1642648,22.395012 42.590232,22.42249 C43.7591459,22.5040911 43.8190475,21.6372873 43.8123918,21.5831641 C43.7874328,21.3725 43.375609,21.3200421 43.197568,21.2326124 C40.078523,19.7080036 36.2398262,18.632201 34.0484246,18.4190389 C34.0084902,18.4148756 33.9569082,18.4240349 33.9269574,18.3357725 C35.5484615,18.4032183 37.056818,18.8045626 38.5884697,19.1334651 C39.1816623,19.2600301 39.7615434,19.4132404 40.3239533,19.5972592 C41.2274697,19.8911898 42.0902197,20.2642235 42.9105393,20.7338463 C43.5969123,20.9578331 44.618568,20.3566493 44.5619943,20.2991954 C44.2258795,19.9619663 42.9920721,18.9952428 42.5544574,18.773754 C41.2865393,18.1351003 41.5702402,18.3082945 38.9420557,17.3798736 C38.782318,17.3232524 33.2796869,15.3864747 27.9526008,16.4064888 C28.100691,16.2790911 30.2005762,14.4547231 39.011109,16.9560474 C39.3355762,16.9826926 39.6633713,16.9893539 39.9919984,16.9943499 C40.2573959,16.9985132 40.5261213,16.9960152 40.7906869,16.9277368 C40.8747156,16.9060875 40.9803754,16.8727809 40.9961828,16.7761918 C41.0103262,16.6904274 40.9121541,16.6612841 40.8497566,16.6238142 C40.5777033,16.4597793 38.3987811,15.4372673 38.37715,15.4281079 C36.5950762,14.7220084 34.6998549,14.360632 32.7663631,14.0933467 C29.6672852,13.6636918 26.602318,13.960953 23.5648057,15.0942095 C22.6055475,15.4522552 21.6770721,15.8819101 20.7560844,16.3307163 C20.7294615,16.3432063 20.7020066,16.3565289 20.6753836,16.3690189 C20.6745516,16.3207243 20.7069984,16.3007404 20.7510926,16.2907484 C21.1853795,15.9610132 21.6662566,15.7012219 22.1163508,15.398132 C22.416691,15.1957945 23.3093918,14.5663002 23.5157197,14.1616252 C23.6571541,13.8835152 23.6463385,12.9184571 23.4358508,12.9742456 C22.3542934,13.2615148 20.7494287,14.4397352 19.7618836,14.9684771 C16.5529861,16.6870967 12.3357443,20.0502287 10.1401828,22.8563082 C8.67092869,24.735632 7.58770738,30.2070706 7.92881393,33.6234932 C8.76078115,41.9501384 10.539527,43.2565891 10.4247156,43.6154675 C13.1435844,44.7562179 11.3448713,31.3869563 14.1377852,32.2604213 C15.1569451,30.4069101 16.4880926,28.4268339 17.7152443,26.9247071 L17.7152443,26.9247071 Z" id="Fill-97" fill="#81BA27"></path>
                <path d="M61.8140824,26.519366 C60.174275,22.6674599 57.8788775,19.2218941 55.1134184,16.0710915 C53.8579799,14.6389085 52.4935537,13.3091433 51.0234676,12.0759671 C50.8088201,11.9119322 50.5692135,11.7745425 50.4069799,11.5555518 C50.0450742,11.2807725 49.6840004,11.0059932 49.3229266,10.7320465 C49.060857,10.6279635 48.8678406,10.4364506 48.6515291,10.2749137 C47.764652,9.67539526 46.853648,9.11168138 45.9043734,8.59876003 C43.6355988,7.37224518 41.2162381,6.46880417 38.629652,5.9142496 C38.580566,5.90342496 38.5264881,5.86095907 38.4749061,5.92757223 C38.4873857,5.9400622 38.4973693,5.95671549 38.5106807,5.96171148 C38.6354758,5.99834872 38.758607,6.03665128 38.884234,6.06745987 C42.0764922,6.86431982 44.9550988,8.21989767 47.5774594,10.0226164 C49.5042955,11.3482183 51.2472668,12.8678311 52.8438119,14.5406541 C54.6733078,16.4582805 56.3031316,18.5224559 57.7582422,20.7190249 C58.9620988,22.5358989 60.0295127,24.4277127 60.860648,26.4469242 C62.3964594,30.1797592 63.195148,34.0774619 62.8224266,38.2374539 C62.7175988,39.4006862 62.534566,40.5539266 62.2009471,41.6955096 C62.1934594,41.7221549 62.1868037,41.7488002 62.180148,41.7754454 C62.1751561,41.8895205 62.1610127,42.0019302 62.0753201,42.0976866 C62.052025,41.9761176 62.0977832,41.8595445 62.1327258,41.7429715 C62.1318939,41.7271509 62.1368857,41.7121629 62.1477012,41.6988403 C62.2267381,41.4906742 62.0570168,41.3249739 62.0886316,41.1234691 C62.2159225,40.3216132 62.3507012,39.5197572 62.4197545,38.713738 C62.5786602,36.8394101 62.4904717,34.9908949 62.2026111,33.1698575 C61.8273939,30.805923 61.0769594,28.5618921 60.1975701,26.3661557 C59.0244963,23.4393399 57.4196316,20.7523315 55.5868078,18.1935534 C54.8480209,17.1635474 54.083443,16.1551906 53.1815906,15.2500843 C52.8820824,14.9486597 52.5126889,14.719677 52.2131807,14.4224157 C51.3080004,13.5248034 50.3870127,12.642179 49.3969717,11.8278331 C48.2829676,10.9127348 47.1098939,10.0675803 45.8644389,9.30985554 C44.313652,8.36727929 42.6771725,7.57208467 40.9342012,6.96007624 C37.8750578,5.88510634 34.6661602,5.42714085 31.3100045,5.61532303 C29.8099676,5.69942215 28.3182504,5.90758828 26.8365168,6.24565008 C26.6859307,6.28062199 26.5128816,6.28561798 26.4030619,6.4446569 C26.4363406,6.45298355 26.4612996,6.46797151 26.4837627,6.46380819 C27.7125783,6.22233547 28.9455537,6.03581862 30.1851848,5.93090289 C33.8366889,5.62198435 37.3326152,6.04247994 40.6721316,7.1957203 C42.385984,7.78857745 44.0016643,8.55462881 45.5216684,9.4797191 C46.4393283,10.0376043 47.3386848,10.6213022 48.1656602,11.2932624 C48.7713324,11.6929414 49.2854881,12.1908748 49.8295947,12.6571669 C49.2572012,12.2233487 48.6864717,11.7886978 48.1140783,11.354047 C46.8145455,10.3948174 45.4517832,9.52218499 43.9950086,8.77611758 C41.8709963,7.6886577 39.6180291,6.89096509 37.2053242,6.44632223 C33.6769512,5.7968439 30.106148,5.9542175 26.5037299,6.73442416 C25.6842422,6.9117817 24.8680824,7.10329454 24.0702258,7.38057183 L24.0777135,7.44385433 C24.8556029,7.2498435 25.6293324,7.03002006 26.4130455,6.8601565 C29.5595455,6.17820425 32.694398,5.97003812 35.814275,6.36555377 C40.3493283,6.94092496 44.2820373,8.68785514 47.7829553,11.2632865 C48.7912996,12.0051906 49.7339184,12.8178712 50.6349389,13.6755157 C51.9893816,14.9644803 53.2348365,16.3425401 54.364648,17.8180217 C54.515234,18.0020405 54.6641561,18.1868921 54.8139102,18.3709109 C54.6225578,18.224362 54.4436848,18.0686537 54.3322012,17.8563242 C54.2739635,17.7980377 54.210734,17.7422492 54.1566561,17.6797994 C52.9594553,16.3192255 51.6890414,15.0269302 50.3088078,13.8337219 C49.4477217,13.0893198 48.5383816,12.4007063 47.6223857,11.7170887 C46.1797545,10.6387881 44.670566,9.65790931 43.0315906,8.84689406 C38.3825578,6.5479073 33.3599717,5.82598716 27.9630004,6.71027689 C23.4504102,7.44968299 19.2722709,9.17496388 15.3046193,11.4964326 C15.159025,11.5813644 14.9917996,11.6588022 14.9102668,11.837825 C17.188193,10.6221348 19.5052217,9.50386637 21.9412217,8.66037721 C24.3847094,7.81355738 26.8672996,7.22569623 29.4821725,6.9892195 C29.3648652,7.10995586 29.293316,7.10162921 29.2259266,7.10995586 C28.7458816,7.17573636 28.2650045,7.23152488 27.7866234,7.30979535 C25.0635947,7.75360554 22.4354102,8.5712821 19.8821029,9.68039125 C19.016857,10.0567556 18.1599307,10.4522713 17.3737217,10.9835112 C17.2722217,11.0517897 17.1723857,11.1175702 17.0983406,11.2907644 C17.8163283,11.085929 18.4802381,10.8536156 19.0992217,10.5846649 C20.5069102,9.97432183 21.8937996,9.32650883 23.3605578,8.87353933 C26.8165496,7.8060634 30.2991643,7.28564807 33.8283693,7.56126003 C33.9240455,7.56875401 34.0455127,7.53294944 34.1087422,7.64202849 C34.0197217,7.70947432 33.9307012,7.6770004 33.8475045,7.67117175 C31.8016971,7.53294944 29.7517299,7.66201244 27.6959389,8.02338884 C25.614357,8.38892857 23.5860209,8.97429173 21.5984512,9.73867777 C21.4894635,9.77947833 21.3679963,9.85858146 21.2714881,9.84442616 C20.9362053,9.79280096 20.6450168,9.96016653 20.4270414,10.1391894 C20.2440086,10.289069 20.055984,10.3889888 19.8571439,10.4397813 C19.5626275,10.5147211 19.2789266,10.6188042 19.0351602,10.7836717 C18.7156848,10.9984992 18.3687545,11.1483788 18.0309758,11.319075 C14.4618365,13.1201284 11.173902,15.3283547 8.14054959,17.9037861 C7.85268893,18.1494222 7.5390373,18.3775722 7.32771762,18.6981481 C7.41590615,18.6531842 7.49411107,18.5957303 7.56815615,18.5341132 C8.11059877,18.0711517 8.64056189,17.5915369 9.19797992,17.1452287 C12.4659471,14.5298295 15.9760168,12.2966232 19.8147135,10.5821669 C20.5934348,10.2341132 21.376316,9.88689205 22.1858201,9.62876605 C22.948734,9.38562801 23.6717135,8.93931982 24.5095045,9.01592496 C24.675898,9.03091292 24.8614266,8.94764647 25.0369717,8.90601324 C25.8514676,8.71116974 26.6651316,8.50133828 27.4929389,8.39392456 C27.517898,8.39309189 27.5436889,8.39142657 27.568648,8.3905939 L27.6468529,8.34146669 C27.6468529,8.34896067 27.6510127,8.35895265 27.6468529,8.3647813 C27.6277176,8.39309189 27.6060865,8.4164065 27.5694799,8.39225923 L27.4962668,8.43639045 C27.4213898,8.46886437 27.3440168,8.49550963 27.2724676,8.53464486 C27.1734635,8.58960072 26.9945906,8.60125803 26.9979184,8.71616573 C27.0020783,8.85189005 27.1834471,8.77944823 27.2807873,8.81358748 C27.2899389,8.81691814 27.2916029,8.83606942 27.3173939,8.89685393 C23.0286029,9.80862159 19.0992217,11.594687 15.412775,13.9736096 C15.4460537,13.9877648 15.4751725,13.9902628 15.4968037,13.9786055 C15.6016316,13.9244823 15.7056275,13.8686938 15.8071275,13.8079093 C19.6216971,11.5413965 23.6292832,9.8061236 27.9896234,9.0525622 C29.9572258,8.71283507 31.9289881,8.56295546 33.8732955,8.77278692 C37.7153201,9.18662119 41.0748037,10.6146409 44.0965086,12.7096248 C45.3369717,13.5689346 46.496734,14.5190048 47.5816193,15.5490108 C48.5675004,16.4857584 49.5051275,17.4633066 50.3753652,18.4999739 C51.1233037,19.3251445 51.7947012,20.2077689 52.4536193,21.1003852 C53.7448324,22.8473154 54.9054266,24.6766794 55.8904758,26.6084611 C57.7008365,30.1589426 58.6359676,33.9400722 58.271566,38.0551003 C58.2640783,38.1383668 58.2540947,38.2216332 58.2407832,38.3448676 C58.0960209,38.1983186 58.0560865,38.068423 58.069398,37.8902327 C58.3098365,34.6087018 57.7324512,31.5036958 56.5585455,28.5319161 C55.3355537,25.4369021 53.5626316,22.6624639 51.5243119,20.0445666 C51.1332873,19.5416372 50.7272873,19.0495325 50.327943,18.5524318 C50.2647135,18.4866513 50.1981561,18.4233688 50.1382545,18.3542576 C48.247193,16.1818359 46.1240127,14.2508868 43.6380947,12.6879755 C42.1172586,11.7304113 40.5007463,10.936882 38.756943,10.3656742 C34.5754758,8.99510835 30.2509102,9.0125943 25.8181889,10.177492 C22.9063037,10.941878 20.156652,12.1325883 17.5251398,13.6180618 C15.0367258,15.0235995 12.6830906,16.6189848 10.5266316,18.4808226 C10.2853611,18.6881561 10.0149717,18.8888283 9.86771352,19.229388 C10.108152,19.1744322 10.2579061,19.0553612 10.4093242,18.9462821 C11.0840496,18.457508 11.7537832,17.9629053 12.4268447,17.4699679 C15.6540455,15.104368 19.0867422,13.1076384 22.8414102,11.6904434 C25.6659389,10.6238002 28.5520332,9.95766854 31.525484,9.86441011 C36.5355906,9.70786918 40.8443488,11.2507965 44.6605824,13.9586216 C46.5882504,15.3266894 48.297943,16.9170787 49.8312586,18.6764988 C52.3571111,21.5733387 54.5352012,24.6916673 56.0427258,28.2346549 C56.9470742,30.3604474 57.5369389,32.5794984 57.7449307,34.9117917 C58.0219758,38.0201284 58.5344676,39.475626 58.0519266,43.5523515 C57.8464307,45.2809631 53.4553078,53.486872 52.8546275,54.4402729 C55.1816398,54.9082303 58.5843857,47.7231681 60.8789512,48.4534149 C62.9089512,44.6306521 63.9389266,40.6430217 63.930607,36.492189 C63.9231193,32.9841734 63.1568775,29.6734992 61.8140824,26.519366 L61.8140824,26.519366 Z M62.0728242,42.1110092 C62.076984,42.1218339 62.0819758,42.1326585 62.0861357,42.1443158 C62.0337217,42.1476465 62.0636725,42.1259972 62.0728242,42.1110092 L62.0728242,42.1110092 Z M62.0345537,42.2617215 L62.0428734,42.2434029 L62.0536889,42.2533949 L62.0345537,42.2617215 Z M62.0070988,42.3666372 L62.0195783,42.3558126 L62.0220742,42.3699679 L62.0070988,42.3666372 Z M48.5941234,14.6230879 C47.6681439,13.7671087 46.6914143,12.9677508 45.6489594,12.2358387 C43.7246193,10.8835915 41.6471971,9.78114366 39.3559594,9.02092095 C37.4981766,8.4047492 35.5788283,7.99674358 33.5796111,7.85019462 C33.5188775,7.8460313 33.4589758,7.83520666 33.3982422,7.82688002 C33.0404963,7.81439005 32.6819184,7.80190008 32.3250045,7.78857745 C32.236816,7.78607945 32.1486275,7.78441413 32.0604389,7.7827488 C32.008025,7.78441413 31.9248283,7.82521469 31.9264922,7.74444623 C31.9273242,7.70780899 32.0105209,7.71363764 32.0571111,7.72696027 C32.1477955,7.70614366 32.236816,7.70198034 32.3241725,7.72362961 C32.6819184,7.70780899 33.0371684,7.71113965 33.3890906,7.75194021 C35.128734,7.82354936 36.8159635,8.10249197 38.4566029,8.56129013 C40.7145619,9.1932825 42.7961439,10.1400221 44.7337955,11.3523816 C46.3128693,12.3415871 47.7871152,13.4498636 49.0891439,14.7471549 C49.3545414,15.0119422 49.5259266,15.3633266 49.7264307,15.6880658 C49.3495496,15.3325181 48.9743324,14.9744723 48.5941234,14.6230879 L48.5941234,14.6230879 Z M31.7942094,7.78108347 C31.702693,7.81189205 31.6136725,7.80273274 31.525484,7.78524679 L31.449775,7.78524679 C31.4023529,7.79357343 31.323316,7.82438202 31.3258119,7.76692817 C31.3266439,7.70697632 31.4015209,7.7311236 31.4481111,7.74028291 C31.4730701,7.73861758 31.4988611,7.73778491 31.5238201,7.73695225 C31.6136725,7.71280498 31.703525,7.70364567 31.7900496,7.73195626 C31.8208324,7.72446228 31.8541111,7.71530297 31.8516152,7.75943419 C31.8516152,7.76609551 31.8141766,7.77358949 31.7942094,7.78108347 L31.7942094,7.78108347 Z M31.1086684,7.79024278 C31.0887012,7.78524679 31.0512627,7.77941814 31.0520947,7.77525482 C31.0570865,7.7427809 31.0828775,7.75027488 31.1061725,7.75360554 C31.1311316,7.74361356 31.1544266,7.73861758 31.1669061,7.76776083 C31.1477709,7.77525482 31.1278037,7.78358146 31.1086684,7.79024278 L31.1086684,7.79024278 Z M30.0479102,7.83936998 C30.0595578,7.83270867 30.0712053,7.82604735 30.0811889,7.81938604 C30.0828529,7.82854535 30.0845168,7.83770465 30.0861807,7.84769663 C30.0745332,7.84519864 30.0612217,7.84186798 30.0479102,7.83936998 L30.0479102,7.83936998 Z M29.9746971,7.84936196 C29.9954963,7.82604735 30.0179594,7.82271669 30.0429184,7.84020265 C30.0179594,7.82271669 29.9954963,7.82604735 29.9746971,7.84936196 L29.9746971,7.84936196 Z M29.9222832,7.86185193 C29.9314348,7.81439005 29.9489061,7.83687199 29.9655455,7.84936196 C29.9505701,7.85352528 29.9372586,7.8576886 29.9222832,7.86185193 L29.9222832,7.86185193 Z M29.7791848,7.87600722 C29.7775209,7.86768058 29.7733611,7.85519061 29.775857,7.85352528 C29.7891684,7.8460313 29.8041439,7.84186798 29.8191193,7.83603933 C29.8199512,7.84353331 29.8241111,7.85602327 29.8216152,7.85685594 C29.8083037,7.86518258 29.7933283,7.87017857 29.7791848,7.87600722 L29.7791848,7.87600722 Z M29.6319266,7.86185193 C29.6460701,7.85685594 29.6602135,7.85352528 29.673525,7.84936196 C29.6643734,7.89515851 29.648566,7.87350923 29.6319266,7.86185193 L29.6319266,7.86185193 Z M29.5620414,7.8718439 C29.5803447,7.86934591 29.598648,7.86684791 29.6177832,7.86434992 C29.598648,7.86684791 29.5803447,7.86934591 29.5620414,7.8718439 L29.5620414,7.8718439 Z M29.5137873,7.89016252 C29.5071316,7.84353331 29.5295947,7.86601525 29.546234,7.87101124 C29.5354184,7.87767255 29.5237709,7.88433387 29.5137873,7.89016252 L29.5137873,7.89016252 Z M34.4273857,7.66117978 C34.5688201,7.60872191 34.6653283,7.63536717 34.8075947,7.69781701 C34.6436971,7.75277287 34.544693,7.74028291 34.4265537,7.67033909 C34.3034225,7.72612761 34.2185619,7.70614366 34.114566,7.64036316 C34.2443529,7.57624799 34.3292135,7.59206862 34.4273857,7.66117978 L34.4273857,7.66117978 Z M34.8633365,7.68366172 C34.9207422,7.67616774 35.0122586,7.65618379 35.0072668,7.71946629 C35.002275,7.80273274 34.925734,7.75860152 34.875816,7.74777689 C34.8425373,7.75360554 34.8092586,7.7544382 34.8092586,7.7144703 C34.8092586,7.705311 34.8450332,7.69365369 34.8633365,7.68366172 L34.8633365,7.68366172 Z M37.5331193,8.16660714 C37.6728898,8.17576645 37.8093324,8.19408507 37.921648,8.2756862 C37.9549266,8.25820024 37.9840455,8.26319623 38.0065086,8.28817616 C38.0123324,8.29483748 38.0065086,8.31149077 38.0056766,8.32398074 C37.9782217,8.3131561 37.9491029,8.30316413 37.920816,8.29233949 C37.7793816,8.30316413 37.6554184,8.2615309 37.5339512,8.20824037 C36.7127996,8.0525321 35.891648,7.89432584 35.0713283,7.73278892 C35.9099512,7.81105939 36.7377586,7.92929775 37.5331193,8.16660714 L37.5331193,8.16660714 Z M38.1130004,8.31565409 C38.1396234,8.32814406 38.1662463,8.34146669 38.1928693,8.35478933 C38.224484,8.33230738 38.2552668,8.33563804 38.2785619,8.36061798 C38.2835537,8.36727929 38.275234,8.38476525 38.2735701,8.39725522 C38.2469471,8.38309992 38.2203242,8.36977729 38.1928693,8.35645465 C38.1612545,8.3789366 38.1313037,8.37560594 38.1088406,8.350626 C38.1030168,8.34479735 38.1113365,8.3273114 38.1130004,8.31565409 L38.1130004,8.31565409 Z M38.6155086,8.47552568 C38.5123447,8.51133026 38.4449553,8.4563744 38.3184963,8.40724719 C38.4749061,8.38143459 38.5522791,8.41307584 38.6155086,8.47552568 L38.6155086,8.47552568 Z M38.707857,8.49051364 C38.7111848,8.49550963 38.706193,8.50716693 38.7053611,8.51549358 C38.6779061,8.50300361 38.6521152,8.49051364 38.6254922,8.47802368 C38.6587709,8.4563744 38.6862258,8.46386838 38.707857,8.49051364 L38.707857,8.49051364 Z M38.8309881,8.51715891 C38.8442996,8.52382022 38.8517873,8.53880819 38.8717545,8.56045746 C38.8492914,8.55879213 38.8368119,8.5596248 38.8251643,8.55712681 C38.8176766,8.55462881 38.8118529,8.5479675 38.808525,8.54130618 C38.7960455,8.51632624 38.8060291,8.50633427 38.8309881,8.51715891 L38.8309881,8.51715891 Z M38.9824061,8.56462079 C38.9940537,8.56961677 39.0007094,8.58460474 39.0190127,8.60375602 C38.9990455,8.60292335 38.986566,8.60375602 38.9765824,8.60125803 C38.9699266,8.5995927 38.9632709,8.59293138 38.959943,8.58710273 C38.9491275,8.56462079 38.9574471,8.55462881 38.9824061,8.56462079 L38.9824061,8.56462079 Z M39.1421439,8.61541332 C39.1521275,8.62457263 39.1596152,8.63789526 39.1687668,8.6512179 C39.1546234,8.6512179 39.137984,8.65454856 39.1304963,8.64955257 C39.1230086,8.64205859 39.1221766,8.62707063 39.1188488,8.61541332 C39.1263365,8.61541332 39.137984,8.61125 39.1421439,8.61541332 L39.1421439,8.61541332 Z M39.2827463,8.66537319 C39.2952258,8.67203451 39.3085373,8.67786316 39.3193529,8.68618981 C39.3235127,8.69035313 39.3210168,8.70117777 39.3218488,8.70867175 C39.3068734,8.70450843 39.2927299,8.70117777 39.2777545,8.69701445 C39.2794184,8.68618981 39.2810824,8.67536517 39.2827463,8.66537319 L39.2827463,8.66537319 Z M39.646316,8.80442817 C39.5572955,8.80526083 39.4874102,8.79610152 39.4241807,8.73698234 C39.5206889,8.70783909 39.5822545,8.73948034 39.646316,8.80442817 L39.646316,8.80442817 Z M39.7869184,8.83357143 C39.799398,8.84023274 39.8177012,8.85688604 39.8143734,8.86354735 C39.8010619,8.89851926 39.7802627,8.87603732 39.7661193,8.86687801 C39.7553037,8.85938403 39.7519758,8.84273074 39.7453201,8.82857544 C39.7602955,8.83024077 39.7769348,8.82774278 39.7869184,8.83357143 L39.7869184,8.83357143 Z M32.9830906,6.94508828 L32.9805947,6.92427167 C32.9880824,6.92427167 32.997234,6.92177368 33.0013939,6.925937 C33.0047217,6.92926766 33.0022258,6.93842697 33.0030578,6.94592095 C32.9955701,6.94592095 32.9889143,6.94508828 32.9830906,6.94508828 L32.9830906,6.94508828 Z M32.4439758,6.925937 C32.6453119,6.86182183 32.7642832,6.90095706 32.8807586,6.92010835 C32.7551316,6.97090088 32.6378242,6.96507223 32.4439758,6.925937 L32.4439758,6.925937 Z M32.1228365,6.93426364 L32.0404717,6.93259831 C32.0038652,6.93343098 31.9664266,6.93426364 31.9298201,6.93509631 C31.9040291,6.93676164 31.8782381,6.9375943 31.8516152,6.93842697 C31.8258242,6.93925963 31.8000332,6.9400923 31.7750742,6.9400923 C31.7492832,6.94092496 31.7243242,6.94259029 31.6993652,6.94342295 C31.6602627,6.94675361 31.6211602,6.94925161 31.5820578,6.9517496 L31.4314717,6.9517496 C31.399857,6.95924358 31.3657463,6.9659049 31.3682422,6.92260634 C31.3682422,6.91511236 31.4065127,6.90595305 31.4273119,6.8976264 C31.4780619,6.8976264 31.5304758,6.89845907 31.5820578,6.89929173 C31.6203283,6.8976264 31.6585988,6.89596108 31.6977012,6.89429575 C31.7218283,6.89429575 31.7467873,6.89346308 31.7725783,6.89346308 C31.7975373,6.89429575 31.8224963,6.89596108 31.8474553,6.8976264 C31.8732463,6.8976264 31.8982053,6.8976264 31.9231643,6.89845907 C31.9614348,6.8976264 31.9988734,6.8976264 32.0371439,6.89679374 C32.0645988,6.89596108 32.0912217,6.89512841 32.1195086,6.89346308 C32.2318242,6.86265449 32.338316,6.86931581 32.489734,6.9117817 C32.3316602,6.97423154 32.2276643,6.95508026 32.1228365,6.93426364 L32.1228365,6.93426364 Z M31.2451111,6.96007624 C31.1926971,6.96007624 31.1419471,6.95924358 31.0895332,6.95924358 C31.068734,6.95757825 31.0312955,6.96174157 31.0287996,6.95341493 C31.0146561,6.90678571 31.0570865,6.9142797 31.0845414,6.90761838 C31.1361234,6.90595305 31.1868734,6.90512039 31.2392873,6.90345506 C31.270902,6.89679374 31.3075086,6.88929976 31.3050127,6.93426364 C31.3041807,6.94259029 31.2659102,6.9517496 31.2451111,6.96007624 L31.2451111,6.96007624 Z M30.9031725,6.97090088 C30.8249676,6.99338283 30.7475947,7.00420746 30.6718857,6.98089286 C30.6336152,6.98422352 30.5970086,6.98672151 30.5587381,6.99005217 C30.4314471,7.01253411 30.3049881,7.03668138 30.1793611,7.01086878 C30.1410906,7.01419944 30.1028201,7.0175301 30.0653816,7.02086075 C29.8881725,7.05083668 29.7101316,7.09330257 29.469693,7.0433427 C29.7084676,6.94675361 29.8848447,6.94342295 30.0628857,6.95924358 C30.1003242,6.95591292 30.1385947,6.95341493 30.1768652,6.95008427 C30.3033242,6.92177368 30.4297832,6.90345506 30.5562422,6.92843499 C30.5936807,6.925937 30.6319512,6.92260634 30.6685578,6.92010835 C30.7459307,6.90095706 30.8224717,6.88929976 30.8973488,6.9142797 C30.9289635,6.90678571 30.9655701,6.9001244 30.9630742,6.94425562 C30.9622422,6.95258226 30.9239717,6.96257424 30.9031725,6.97090088 L30.9031725,6.97090088 Z M49.9885004,12.885317 C50.5009922,13.1551003 50.8188037,13.6297191 51.2406111,13.9944262 C50.8229635,13.6255558 50.406148,13.2550201 49.9885004,12.885317 L49.9885004,12.885317 Z" id="Fill-99" fill="#F1B630"></path>
                <path d="M12.7360869,62.3645746 C12.9548943,62.5186176 13.16455,62.6826525 13.3891811,62.8267035 C11.5380541,61.5202528 9.75598033,60.0014727 8.19936967,58.3161597 C6.64858279,56.6483327 5.38815246,54.7648455 4.46633279,52.8630397 C4.34486557,52.629061 4.16432869,52.1286296 4.06532459,51.8829936 C3.19425492,49.9653672 2.3090418,47.4698716 1.82317295,45.4073616 C1.56443115,44.3831842 1.22831639,43.6312881 1.22831639,43.6312881 C1.14595164,43.3756601 1.02448443,43.1233628 1.02864426,43.3931461 C1.08189016,43.9260514 1.34562377,45.239996 1.27740246,45.2549839 C1.25826721,45.2591473 1.1950377,44.9985233 1.14761557,44.733736 C1.07107459,44.7503892 0.753263115,43.9860032 0.718320492,43.7162199 C0.617652459,43.4589266 0.291521311,41.8602107 0.25325082,41.5812681 C0.205828689,41.1740951 0.120968033,41.5870967 0.103496721,42.2507303 C0.0793696721,42.911866 0.130951639,43.8119763 0.203332787,44.3607022 C0.269890164,44.9102608 0.105160656,44.3790209 0.0469229508,44.3890128 C0.17255,44.9302448 0.160902459,45.2158487 0.308992623,45.7520847 C0.308992623,45.7520847 0.372222131,46.1642536 0.502009016,46.6680157 C0.626804098,47.173443 0.783213934,47.7779575 0.915496721,48.1743058 C0.915496721,48.1743058 1.01866066,48.4748977 1.27657049,49.2242957 C1.37058279,49.4857524 1.38888607,49.4790911 1.40802131,49.4724298 L1.37058279,49.4857524 C1.50536148,49.7322211 1.6443,50.273453 1.77325492,50.5215871 C1.75578361,50.5290811 1.75578361,50.5290811 1.73664836,50.5357424 C1.99289426,51.0320104 2.14847213,51.5690791 2.40887787,52.0628491 C2.38974262,52.0711758 2.38974262,52.0711758 2.37227131,52.0795024 C2.49207459,52.3309671 2.61270984,52.5815991 2.59523852,52.5907584 C2.57693525,52.5990851 2.57693525,52.5990851 2.55946393,52.6082444 C2.66345984,52.8688684 2.93717705,53.3559771 2.9055623,53.3717978 C2.92303361,53.3626384 2.92303361,53.3626384 2.94133689,53.3534791 C3.20507049,53.8405879 3.43635738,54.2685774 3.65682869,54.6757504 C3.8773,55.0729314 4.10775492,55.4251485 4.32157049,55.7873575 C5.45970164,57.7316292 7.38487377,59.8416011 9.29839836,61.442815 C9.5055582,61.6284992 9.73850902,61.7833748 9.55797213,61.5677147 C9.76097213,61.7583949 9.98144344,61.9282584 10.1977549,62.1022853 C10.6312098,62.4495064 10.4515049,62.2288503 10.8841279,62.5760714 C14.459091,65.2022953 18.3701689,67.3647251 22.7779311,68.3938985 C21.6514475,68.1124579 20.8960213,67.8243559 19.8419189,67.4621469 C19.8502385,67.4413303 19.8610541,67.409689 19.6039762,67.3089366 C18.0590131,66.7085855 16.3060582,65.8892436 15.624677,65.4129595 C15.3883984,65.2705738 15.1787426,65.0823917 14.4682426,64.6627287 L15.1804066,65.0798937 C15.1895582,65.0624077 15.2095254,65.0274358 15.2095254,65.0274358 C14.2677385,64.4645546 13.1096402,63.7293118 12.2394025,63.0623475 L12.2735131,63.0132203 L11.8309066,62.6943098 C11.6503697,62.4786497 12.1670213,62.8133808 12.8658738,63.2988242 C13.5838615,63.7567897 14.5006893,64.3429856 15.1013697,64.6643941 C15.1105213,64.6469081 15.1313205,64.6127689 15.1413041,64.5952829 L14.6720746,64.3205036 L14.6928738,64.2863644 C16.0880828,65.1215269 17.3035869,65.7310373 18.8019598,66.3663604 C18.5523697,66.2572813 18.0565172,66.0399559 17.807759,65.9308768 C17.8152467,65.9125582 17.8235664,65.8950722 17.5798,65.7776665 C18.5590254,66.2397953 19.8069762,66.7751986 20.8469352,67.0791212 C21.1106689,67.1424037 20.8693984,67.0091774 20.1173,66.7144141 C19.3593779,66.4304755 18.8601975,66.2248074 18.1205787,65.8967376 L18.1363861,65.8601003 C18.6280787,66.0824217 19.3668656,66.4121569 19.8785254,66.5828531 C20.1364352,66.6627889 19.3993123,66.3297231 19.6555582,66.4096589 C19.9051484,66.511244 20.1580664,66.6045024 20.4184721,66.6736136 C19.6563902,66.4104916 18.6580295,66.0108126 17.9317221,65.6594282 C17.6987713,65.5253692 17.4649885,65.3913102 17.4816279,65.354673 C16.2619639,64.7992857 15.3634393,64.2005999 14.7269844,63.7068299 C14.5214885,63.532803 13.3742057,62.8491854 12.7360869,62.3645746" id="Fill-101" fill="#F1B630"></path>
                <g id="Group-105" transform="translate(0.000000, 46.461931)">
                    <mask id="mask-2" fill="white">
                        <use xlink:href="#path-1"></use>
                    </mask>
                    <g id="Clip-104"></g>
                    <path d="M26.0849176,25.4990189 L27.2970939,25.7463202 C23.8485898,25.1209892 20.390934,23.9952267 17.1387742,22.5455578 C13.8849504,21.1233668 10.8965242,19.2731862 8.57783156,16.9841914 C8.30328238,16.6852648 7.75584795,16.0874117 7.48129877,15.7876525 C5.25495451,13.4328772 3.20249139,9.88239567 2.19165123,6.80736557 C1.93790123,6.03964888 1.68831107,5.37434992 1.52857336,4.8889065 C1.37632336,4.47423957 1.24487254,4.11785915 1.24487254,4.11785915 C1.13338893,3.72400883 0.981970902,3.33348917 1.01524959,3.74399278 C1.09761434,4.565 1.65752828,6.54590891 1.59845861,6.56422753 C1.58015533,6.57005618 1.45868811,6.17620586 1.34054877,5.78069021 C1.27066352,5.80233949 0.805593852,4.6307805 0.737372541,4.21694623 C0.684958607,4.01460875 0.495270082,3.3068439 0.377130738,2.58242576 C0.243184016,1.85967295 0.172466803,1.12692817 0.156659426,0.910435393 C0.14667582,0.278443018 0.000249590164,0.907104735 -0.000582377049,1.93044944 C-0.00474221311,2.9454675 0.128372541,4.33518459 0.314733197,5.17034711 C0.475302869,6.01300361 0.218225,5.19366172 0.159987295,5.20615169 C0.365483197,6.04214687 0.445352049,6.46680578 0.715741393,7.28531501 C0.715741393,7.28531501 0.749852049,7.44435393 0.828888934,7.69415329 C0.920405328,7.94478531 1.04353648,8.2853451 1.18081107,8.66170947 C1.43206516,9.43109149 1.88299139,10.2928993 2.14506107,10.8840911 C2.14506107,10.8840911 2.18665943,10.9831782 2.32060615,11.2179896 C2.4587127,11.457797 2.67252828,11.8291653 2.99283566,12.3845526 C3.20581926,12.7592516 3.22329057,12.748427 3.23992992,12.738435 C3.22329057,12.748427 3.22329057,12.748427 3.20581926,12.7592516 C3.44958566,13.1147994 3.92879877,13.8308909 4.18254877,14.1797773 C4.16590943,14.1906019 4.16590943,14.1906019 4.15010205,14.2030919 C4.64179467,14.9100241 5.20836434,15.5603351 5.76245451,16.21814 C5.74831107,16.2314627 5.74831107,16.2314627 5.73250369,16.2447853 C5.87061025,16.4113182 6.00538893,16.5745205 6.11104877,16.7019181 C6.22419631,16.8176585 6.29657746,16.895929 6.28908975,16.903423 C6.27494631,16.9167456 6.27494631,16.9167456 6.26080287,16.9300682 C6.55282336,17.2489787 7.19593402,17.8293459 7.1684791,17.8576565 C7.18179057,17.8426685 7.18179057,17.8426685 7.19593402,17.8285132 C7.79079057,18.4580076 8.37899139,18.9301284 8.92226598,19.3731059 C9.47053238,19.8069242 9.93643402,20.266555 10.4880283,20.6054494 C11.2018561,21.0825662 11.9398111,21.6346228 12.7609627,22.1067436 C13.5970898,22.5505538 14.4648316,23.0135152 15.3508766,23.4614888 C16.256057,23.8403511 17.1753807,24.2250421 18.0922086,24.6089005 C19.0098684,24.9802689 19.959143,25.2583788 20.8618275,25.575624 C21.2636676,25.7155116 21.6771553,25.8170967 21.2877947,25.6397392 C21.686307,25.7879535 22.1064504,25.8762159 22.5132824,25.9969522 C23.333602,26.2226043 22.9392496,26.0519081 23.7587373,26.2775602 C27.065807,27.0685915 30.464393,27.5257243 33.8804504,27.4740991 C35.5859832,27.4208086 37.2973398,27.2950762 38.9787455,26.9520185 C40.6701348,26.608128 42.3041184,26.1851344 43.9364381,25.3891071 C43.0944873,25.7921168 42.4006266,26.0019482 41.6718234,26.2276003 C40.9505078,26.4449258 40.2208725,26.6172873 39.3880734,26.8162941 C39.3839135,26.7971429 39.3764258,26.7580076 38.9562824,26.8337801 C36.4370857,27.3267175 33.4486594,27.4116493 32.1790775,27.2950762 C31.7547742,27.2667657 31.3362947,27.1643479 30.0700406,27.0827468 L31.3362947,27.1685112 C31.3379586,27.1485273 31.3396225,27.1093921 31.3396225,27.1093921 C30.4976717,27.0436116 29.5483971,26.982827 28.611602,26.8212901 C28.1423725,26.7530116 27.6723111,26.6839005 27.2155611,26.61812 C26.7654668,26.5215309 26.327852,26.4274398 25.9151963,26.3383447 L25.9276758,26.2800582 L25.1031963,26.11186 C24.7071799,25.960315 25.6398152,26.1201866 26.9268684,26.3666553 C28.2214094,26.5614988 29.8853439,26.7946449 30.9352865,26.8221228 C30.9369504,26.8021388 30.9394463,26.7621709 30.9402783,26.7430197 L30.1049832,26.6855658 L30.109143,26.6464306 C32.6067086,26.8754133 34.7090898,26.8262861 37.1975037,26.5298575 C36.7815201,26.5781521 35.9528807,26.6930598 35.5335693,26.6988884 C35.5319053,26.6797372 35.5310734,26.6597532 35.1150898,26.6847331 C36.7806881,26.6072953 38.8614381,26.3225241 40.462143,25.84624 C40.8606553,25.7246709 40.4413439,25.7746308 39.2258398,26.0369201 C38.611848,26.1426685 38.102684,26.2492496 37.5885283,26.3225241 C37.0727086,26.3824759 36.5568889,26.4432604 35.9379053,26.5157022 L35.9337455,26.4757343 C36.7598889,26.3916352 37.9995201,26.2617396 38.8090242,26.0710594 C39.2125283,25.977801 37.9828807,26.1593218 38.3863848,26.0668961 C38.7932168,25.9886256 39.2050406,25.9320044 39.599393,25.8062721 C38.3922086,26.0852147 36.7540652,26.3466713 35.5119381,26.4016272 C35.0976184,26.4066232 34.6832988,26.4116192 34.6816348,26.3716513 C33.6533234,26.4432604 32.7206881,26.3949659 31.8970406,26.3633246 C31.073393,26.2808909 30.3554053,26.1967917 29.7439094,26.1002026 C29.3437332,25.9877929 27.2887742,25.7996108 26.0849176,25.4990189" id="Fill-103" fill="#F1B630" mask="url(#mask-2)"></path>
                </g>
                <path d="M47.5520012,7.0924699 C47.3074029,6.98339085 47.0711242,6.86182183 46.823198,6.76273475 C48.8881406,7.69448636 50.9256283,8.84689406 52.7734275,10.2066352 C54.612075,11.5505558 56.2061242,13.1600963 57.4723783,14.851238 C57.6354439,15.0594041 57.9074971,15.5165369 58.0505955,15.7380257 C59.2694275,17.4549799 60.6122225,19.7381461 61.4799643,21.6707604 C61.9275627,22.627492 62.400952,23.3011176 62.400952,23.3011176 C62.529907,23.5375943 62.6963004,23.7615811 62.6422225,23.4976264 C62.4874766,22.9838724 61.9808086,21.7448676 62.0448701,21.716557 C62.0623414,21.709063 62.173825,21.9530337 62.2703332,22.2036657 C62.3418824,22.1728571 62.7994643,22.863136 62.8859889,23.121262 C63.0324152,23.3552408 63.6555586,24.8623636 63.746243,25.1296489 C63.8693742,25.5201685 63.875198,25.0988403 63.7662102,24.4427006 C63.6647102,23.7898917 63.4442389,22.9155939 63.2686939,22.3910152 C63.0998045,21.8639386 63.3610422,22.354378 63.416784,22.3335614 C63.1913209,21.825636 63.1480586,21.5425301 62.9009643,21.0445967 C62.9009643,21.0445967 62.7611939,20.6515791 62.5382266,20.1819563 C62.3194193,19.7098355 62.0515258,19.1461216 61.8468619,18.7822472 C61.8468619,18.7822472 61.6879561,18.5058026 61.2944357,17.819687 C61.1521693,17.5807123 61.134698,17.5907043 61.1180586,17.6006962 L61.1521693,17.5807123 C60.9724643,17.3633868 60.7345217,16.8587921 60.5598086,16.6398014 C60.575616,16.6289767 60.575616,16.6289767 60.5930873,16.6181521 C60.2478209,16.1801705 59.992407,15.6822372 59.6438127,15.2467536 C59.660452,15.235929 59.660452,15.235929 59.6762594,15.2242717 C59.510698,14.9994522 59.3451365,14.7762982 59.3609439,14.7646409 C59.3767512,14.7521509 59.3767512,14.7521509 59.3925586,14.7404936 C59.2419725,14.5040169 58.8800668,14.0776926 58.9075217,14.0560433 C58.8925463,14.0685333 58.8925463,14.0685333 58.875907,14.0810233 C58.5248168,13.652201 58.216157,13.2766693 57.9233045,12.9194563 C57.632116,12.5697372 57.3392635,12.2683126 57.0597225,11.9535654 C55.5746611,10.2607584 53.2834234,8.55379615 51.1020053,7.34559992 C50.8623988,7.20238162 50.6044889,7.09413523 50.8232963,7.27149278 C50.5878496,7.12327849 50.3390914,6.99837881 50.094493,6.86848315 C49.6028004,6.60952448 49.8207758,6.79187801 49.3299152,6.53375201 C45.3214971,4.63361156 41.0718086,3.25305377 36.5492348,3.07902689 C37.7089971,3.14147673 38.5051898,3.28136437 39.6083783,3.43623997 C39.6050504,3.45788925 39.5992266,3.49202849 39.8721119,3.5411557 C41.5019357,3.83841693 43.3780217,4.30970506 44.1384398,4.64776685 C44.3980135,4.74269061 44.638452,4.8884069 45.4155094,5.16485152 L44.6376201,4.8909049 C44.6309643,4.90922352 44.6184848,4.94752608 44.6184848,4.94752608 C45.6501242,5.32222512 46.9263619,5.82432183 47.9072512,6.31309591 C47.9072512,6.31309591 47.8906119,6.34973315 47.8822922,6.36805177 L48.3781447,6.59703451 C48.5952881,6.77522472 48.0253906,6.54374398 47.2475012,6.2006862 C46.4563004,5.885939 45.4446283,5.48542737 44.7940299,5.28392255 C44.7873742,5.30224117 44.7740627,5.34054374 44.767407,5.35886236 L45.2807307,5.53955056 L45.2665873,5.57702047 C43.7374316,5.02163323 42.4295791,4.65359551 40.8380258,4.31470104 C41.1025914,4.37465289 41.6325545,4.49372392 41.8962881,4.55367576 C41.8912963,4.57282705 41.8871365,4.592811 42.1492061,4.66108949 C41.1000955,4.39297151 39.7731078,4.10403692 38.6948783,4.00411717 C38.423657,3.99079454 38.6857266,4.07655899 39.4802553,4.22310795 C40.2781119,4.35716693 40.807243,4.46458066 41.595948,4.64610152 L41.5867963,4.68523676 C41.062657,4.56033708 40.274784,4.37715088 39.7389971,4.3063744 C39.4719357,4.27723114 40.2581447,4.46458066 39.9902512,4.43460474 C39.7265176,4.38214687 39.4611201,4.33801565 39.1923947,4.31969703 C39.9902512,4.43377207 41.0460176,4.63694222 41.8255709,4.84427568 C42.0809848,4.93170546 42.3347348,5.01913523 42.3255832,5.0574378 C43.6284439,5.37218499 44.6243086,5.78934992 45.3431283,6.15322432 C45.5769111,6.28478531 46.8340135,6.73775482 47.5520012,7.0924699" id="Fill-106" fill="#F2E033"></path>
                <path d="M32.2353184,1.31011437 L30.9990152,1.34675161 C34.4991012,1.1660634 38.1206545,1.46998596 41.6182447,2.13778291 C45.111675,2.7764366 48.4420398,3.89387239 51.2233061,5.5908427 C51.5594209,5.81982544 52.2291545,6.2761256 52.5652693,6.50510835 C55.2708266,8.28701043 58.078716,11.2737781 59.7659455,14.036559 C60.1894168,14.7251726 60.5837693,15.3163644 60.8499988,15.7518479 C61.0937652,16.1207183 61.3025889,16.4371308 61.3025889,16.4371308 C61.5014291,16.7951766 61.7385398,17.1407323 61.6120807,16.74938 C61.3441873,15.9683407 60.3466586,14.16812 60.3999045,14.1373114 C60.4165439,14.1273194 60.6237037,14.4828672 60.8300316,14.8409129 C60.8924291,14.803443 61.6129127,15.8376124 61.7743143,16.2248014 C61.8716545,16.4096529 62.2177529,17.0558006 62.4989578,17.7344222 C62.7934742,18.4072151 63.0314168,19.1033226 63.0954783,19.3106561 C63.2493922,19.9234972 63.2477283,19.2781822 63.0147775,18.2823154 C62.7884824,17.29311 62.340884,15.970006 61.9673307,15.200624 C61.6187365,14.4170867 62.0563512,15.1548274 62.1095971,15.1298475 C61.7185725,14.3629635 61.5446914,13.9674478 61.0945971,13.2322051 C61.0945971,13.2322051 61.0255439,13.0856561 60.8899332,12.8608367 C60.7443389,12.6376826 60.5454988,12.3345927 60.3266914,11.9998616 C59.906548,11.3079173 59.270093,10.5726746 58.8807324,10.0564226 C58.8807324,10.0564226 58.8158389,9.96982544 58.6336381,9.77165128 C58.4439496,9.57014647 58.1502652,9.25706461 57.7118184,8.79077247 C57.418966,8.47435995 57.4048225,8.48851525 57.3906791,8.50267055 C57.4048225,8.48851525 57.4048225,8.48851525 57.418966,8.47435995 C57.1003225,8.18376003 56.4705234,7.59673154 56.1435602,7.31529093 L56.1701832,7.28531501 C55.5295684,6.70911116 54.829052,6.20618178 54.1385193,5.69242777 C54.1509988,5.67577448 54.1509988,5.67577448 54.1618143,5.65995385 C53.9895971,5.52922552 53.8207078,5.40099518 53.689257,5.30107544 C53.5536463,5.21447833 53.4646258,5.15452648 53.4696176,5.14619984 C53.4804332,5.12954655 53.4804332,5.12954655 53.4920807,5.11289326 C53.1335029,4.86975522 52.3764127,4.45259029 52.3963799,4.41845104 C52.3863963,4.43510433 52.3863963,4.43510433 52.3764127,4.45259029 C51.6534332,3.97630618 50.972052,3.65156701 50.3422529,3.34514647 C49.7091258,3.04705257 49.1508758,2.70732544 48.536884,2.5041553 C47.7323717,2.20273074 46.887093,1.83302769 45.9802488,1.56241172 C45.0650848,1.32177167 44.1149783,1.06947432 43.1498963,0.83632825 C42.1823184,0.674791332 41.1989332,0.510756421 40.2197078,0.346721509 C39.2404824,0.19600923 38.2529373,0.141886035 37.3019988,0.0403009631 C36.8785275,-0.00466292135 36.4525602,-0.00882624398 36.8727037,0.0752728732 C36.4500643,0.0219823435 36.0216012,0.0319743178 35.5981299,0.00865971108 C34.7478594,-0.0238142055 35.1704988,0.0519582665 34.3218922,0.0203170144 C30.9216422,0.00699438202 27.5080807,0.339227528 24.1943553,1.17189205 C22.5462283,1.61486958 20.9097488,2.12779093 19.3506422,2.84804575 C17.782384,3.56996589 16.2881709,4.35516854 14.8821463,5.50424559 C15.6092857,4.91888242 16.2365889,4.55584069 16.894675,4.16865169 C17.5469373,3.79228732 18.2175029,3.45838884 18.9820807,3.07369783 C18.9912324,3.09118379 19.0087037,3.12782103 19.3988963,2.9571248 C21.7392201,1.90047352 24.6294742,1.13442215 25.8915684,0.957064607 C26.3108799,0.887120787 26.741007,0.891284109 27.9931176,0.680619984 L26.741007,0.887120787 C26.7435029,0.907104735 26.7509906,0.946239968 26.7509906,0.946239968 C27.5862857,0.816344302 28.5239127,0.658138042 29.4731873,0.601516854 C29.9457447,0.560716292 30.4174701,0.51991573 30.877548,0.479947833 C31.3384578,0.470788523 31.7860561,0.462461878 32.2078635,0.454135233 C32.2078635,0.454135233 32.2095275,0.49410313 32.2103594,0.513254414 L33.0498143,0.489107143 C33.4707898,0.545728331 32.526507,0.604014848 31.2169906,0.658138042 C29.911634,0.764719101 28.238548,0.918762039 27.2102365,1.13275682 C27.2135643,1.15274077 27.2202201,1.19104334 27.223548,1.21102729 L28.0496914,1.07530297 L28.0555152,1.1144382 C25.5712611,1.46332464 23.5362693,1.99289928 21.1809701,2.85054374 C21.5753225,2.70815811 22.3557078,2.40756621 22.7617078,2.30514848 C22.7675316,2.32346709 22.7741873,2.34261838 23.1726996,2.22354735 C21.5686668,2.68068018 19.608552,3.43340891 18.1592652,4.26357544 C17.7990234,4.47257424 18.1958717,4.32852327 19.3198594,3.79478531 C19.8930848,3.55081461 20.3631463,3.33099117 20.8473512,3.14280899 C21.335716,2.96545144 21.8240807,2.78892657 22.4106176,2.57659711 L22.4239291,2.61406701 C21.639384,2.88551565 20.4621504,3.2951866 19.7167078,3.66655498 C19.3456504,3.84890851 20.5012529,3.39094302 20.1293635,3.57412921 C19.7516504,3.74232745 19.3639537,3.89303973 19.0078717,4.10536918 C20.1193799,3.55747592 21.6543594,2.92714888 22.8515602,2.58991974 C23.2534004,2.49 23.6552406,2.39091292 23.6660561,2.42921549 C24.6519373,2.12362761 25.5704291,1.9570947 26.3791012,1.79888844 C27.1994209,1.69147472 27.9182406,1.60820827 28.5347283,1.56324438 C28.9507119,1.57989767 30.9940234,1.29346108 32.2353184,1.31011437" id="Fill-108" fill="#F2E033"></path>
                <polygon id="Fill-110" fill="#83579F" points="78.2771328 24.1563473 79.1224115 24.2237931 76.7163623 29.0082835 74.3219607 24.2237931 75.1697352 24.1563473 75.1697352 22.1113232 70.5048951 22.1113232 70.5048951 24.1505187 71.7827967 24.2654264 75.5699115 31.5762209 75.5699115 35.0009701 74.1771984 35.1242045 74.1771984 37.1542406 79.234727 37.1542406 79.234727 35.1242045 77.8428459 35.0009701 77.8428459 31.6420014 81.6632393 24.2654264 82.9502926 24.1505187 82.9502926 22.1113232 78.2771328 22.1113232"></polygon>
                <polygon id="Fill-112" fill="#83579F" points="91.5398549 34.9485122 86.8891582 34.9485122 86.8891582 30.4754384 91.9882852 30.4754384 91.9882852 28.2597181 86.8891582 28.2597181 86.8891582 24.3270435 91.4974246 24.3270435 91.5739656 26.3920516 93.7046336 26.3920516 93.7046336 22.1113232 83.2326623 22.1113232 83.2326623 24.1513513 84.6245434 24.2745857 84.6245434 35.0009701 83.2326623 35.1242045 83.2326623 37.1542406 93.7470639 37.1542406 93.7470639 32.8835042 91.6172279 32.8835042"></polygon>
                <path d="M99.3557709,30.8746178 L100.95398,26.1026174 L102.534718,30.8746178 L99.3557709,30.8746178 Z M98.8224799,35.1237049 L97.956402,35.0479324 L98.5961848,33.1369673 L103.282656,33.1369673 L103.916615,35.0479324 L103.048873,35.1237049 L103.048873,37.1545736 L107.363455,37.1545736 L107.363455,35.1203742 L106.267755,35.0312791 L101.882455,22.1116563 L100.025505,22.1116563 L95.5961111,35.0312791 L94.5170496,35.1212069 L94.5170496,37.1545736 L98.8224799,37.1545736 L98.8224799,35.1237049 Z" id="Fill-114" fill="#83579F"></path>
                <path d="M111.430693,24.3364526 L113.564689,24.3364526 C114.438255,24.3364526 115.08303,24.5254675 115.478214,24.8960032 C115.868407,25.2632083 116.058095,25.7869543 116.058095,26.4972171 C116.058095,27.1600181 115.866743,27.6662781 115.473222,28.0459731 C115.077206,28.4273335 114.394993,28.6205116 113.445718,28.6205116 L111.430693,28.6205116 L111.430693,24.3364526 Z M118.434193,34.96375 C118.398419,34.9021328 118.31439,34.7047913 118.31439,34.199364 L118.31439,32.9395425 C118.31439,31.9869743 118.112222,31.1742937 117.714542,30.5239827 C117.501558,30.1767616 117.222849,29.8828311 116.881743,29.6438563 C117.181251,29.4023836 117.439993,29.1192777 117.653808,28.7945385 C118.103902,28.1184149 118.331861,27.3490329 118.331861,26.5063764 C118.331861,25.1083327 117.900902,24.0125461 117.053128,23.2481601 C116.223657,22.5004274 115.050583,22.1207323 113.564689,22.1207323 L107.773366,22.1207323 L107.773366,24.1474378 L109.166079,24.2798315 L109.166079,35.0053832 L107.773366,35.1377769 L107.773366,37.1544904 L112.822575,37.1544904 L112.822575,35.1377769 L111.430693,35.0053832 L111.430693,30.8353993 L113.918275,30.8353993 C114.616296,30.8503872 115.132948,31.0385694 115.499013,31.4116031 C115.864247,31.7829715 116.041456,32.2883989 116.041456,32.9578612 L116.041456,34.1802127 C116.041456,34.9371047 116.18705,35.5957424 116.472415,36.137807 C116.716181,36.6016011 117.228673,37.1544904 118.287767,37.1544904 L119.560677,37.1544904 L119.560677,35.102805 L118.55982,35.0345265 C118.475792,35.0286978 118.459984,35.0078812 118.434193,34.96375 L118.434193,34.96375 Z" id="Fill-116" fill="#83579F"></path>
                <path d="M130.863284,35.1187921 C129.755104,35.1187921 128.900674,34.6641573 128.249243,33.7282424 C127.558711,32.7357063 127.208452,31.3892877 127.208452,29.7272893 L127.208452,29.5291152 C127.208452,27.8787741 127.557879,26.5390169 128.245916,25.5456481 C128.894018,24.6105658 129.746784,24.155931 130.854965,24.155931 C131.989768,24.155931 132.864166,24.6130638 133.532235,25.5523094 C134.238575,26.5440128 134.595489,27.8821047 134.595489,29.5291152 L134.595489,29.7272893 C134.595489,31.393451 134.241903,32.7407022 133.544715,33.7299077 C132.884965,34.66499 132.008071,35.1187921 130.863284,35.1187921 M130.854965,21.9127327 C129.084539,21.9127327 127.629428,22.6546368 126.529567,24.1184611 C125.472137,25.5273295 124.935518,27.3541954 124.935518,29.5474338 L124.935518,29.7272893 C124.935518,31.922193 125.473801,33.7473937 126.535391,35.153764 C127.636916,36.6125923 129.092858,37.3528311 130.863284,37.3528311 C132.65451,37.3528311 134.128756,36.615923 135.244424,35.1620907 C136.321821,33.759051 136.868424,31.9305197 136.868424,29.7272893 L136.868424,29.5474338 C136.868424,27.3516974 136.320989,25.5231661 135.240264,24.1134651 C134.121268,22.6529715 132.64619,21.9127327 130.854965,21.9127327" id="Fill-118" fill="#83579F"></path>
                <polygon id="Fill-120" fill="#83579F" points="137.61162 24.1511015 139.004333 24.2743359 139.004333 35.001553 137.61162 35.1247873 137.61162 37.1539908 142.659997 37.1539908 142.659997 35.1247873 141.268948 35.001553 141.268948 30.6933467 146.461255 30.6933467 146.461255 28.4684671 141.268948 28.4684671 141.268948 24.3267937 145.979546 24.3267937 146.055255 26.3918018 148.186755 26.3918018 148.186755 22.1119061 137.61162 22.1119061"></polygon>
                <path d="M159.710749,35.1187921 C158.602569,35.1187921 157.748139,34.6641573 157.096708,33.7282424 C156.406175,32.7357063 156.055917,31.3892877 156.055917,29.7272893 L156.055917,29.5291152 C156.055917,27.8787741 156.405343,26.5390169 157.09338,25.5456481 C157.741483,24.6105658 158.594249,24.155931 159.70243,24.155931 C160.837233,24.155931 161.71163,24.6130638 162.3797,25.5523094 C163.08604,26.5440128 163.442954,27.8821047 163.442954,29.5291152 L163.442954,29.7272893 C163.442954,31.393451 163.089368,32.7407022 162.39218,33.7299077 C161.73243,34.66499 160.855536,35.1187921 159.710749,35.1187921 M159.70243,21.9127327 C157.932003,21.9127327 156.476893,22.6546368 155.377032,24.1184611 C154.319602,25.5273295 153.782983,27.3541954 153.782983,29.5474338 L153.782983,29.7272893 C153.782983,31.922193 154.321266,33.7473937 155.382856,35.153764 C156.48438,36.6125923 157.940323,37.3528311 159.710749,37.3528311 C161.501975,37.3528311 162.97622,36.615923 164.091889,35.1620907 C165.169286,33.759051 165.715889,31.9305197 165.715889,29.7272893 L165.715889,29.5474338 C165.715889,27.3516974 165.168454,25.5231661 164.087729,24.1134651 C162.968733,22.6529715 161.493655,21.9127327 159.70243,21.9127327" id="Fill-122" fill="#83579F"></path>
                <path d="M172.327532,29.2072071 L170.116163,29.2072071 L170.116163,24.3269603 L172.327532,24.3269603 C173.17697,24.3269603 173.781811,24.5442857 174.173667,24.9905939 C174.586323,25.461882 174.786827,26.0480778 174.786827,26.7808226 C174.786827,27.5069061 174.586323,28.0856079 174.172003,28.5494021 C173.776819,28.9923796 173.174475,29.2072071 172.327532,29.2072071 M172.327532,22.1120726 L166.458835,22.1120726 L166.458835,24.1512681 L167.851548,24.2745024 L167.851548,35.0008868 L166.458835,35.1241212 L166.458835,37.1541573 L171.508044,37.1541573 L171.508044,35.1241212 L170.116163,35.0008868 L170.116163,31.4229274 L172.327532,31.4229274 C173.800114,31.4229274 174.969028,30.9899418 175.800995,30.135628 C176.630466,29.2854775 177.051442,28.1505558 177.051442,26.762504 C177.051442,25.3869422 176.631298,24.2570165 175.802659,23.4052006 C174.96986,22.5467235 173.800946,22.1120726 172.327532,22.1120726" id="Fill-124" fill="#83579F"></path>
                <polygon id="Fill-126" fill="#83579F" points="186.101332 34.9485122 181.450635 34.9485122 181.450635 30.4754384 186.549762 30.4754384 186.549762 28.2597181 181.450635 28.2597181 181.450635 24.3270435 186.058901 24.3270435 186.135442 26.3920516 188.26611 26.3920516 188.26611 22.1113232 177.794139 22.1113232 177.794139 24.1513513 179.18602 24.2745857 179.18602 35.0009701 177.794139 35.1242045 177.794139 37.1542406 188.308541 37.1542406 188.308541 32.8835042 186.178705 32.8835042"></polygon>
                <polygon id="Fill-128" fill="#83579F" points="197.354021 22.1117396 197.354021 24.150935 198.746734 24.2741693 198.746734 32.3993098 192.610144 22.1117396 189.214886 22.1117396 189.214886 24.150935 190.607599 24.2741693 190.607599 35.0013864 189.214886 35.1246208 189.214886 37.1538242 194.272414 37.1538242 194.272414 35.1246208 192.879701 35.0013864 192.879701 26.8504334 199.016291 37.1538242 201.011349 37.1538242 201.011349 24.2741693 202.402398 24.150935 202.402398 22.1117396"></polygon>
                <path d="M79.0172508,50.4792045 L74.2009926,50.4792045 L74.1818574,50.4375712 L77.7509967,46.9395476 C78.5455254,46.1676675 79.1620131,45.449078 79.5996279,44.7837791 C80.0380746,44.1184801 80.25605,43.4531812 80.25605,42.7878822 C80.25605,41.7970114 79.8949762,40.9826655 79.1711648,40.3415138 C78.4473533,39.7020275 77.4747836,39.3814516 76.2509598,39.3814516 C74.8224721,39.3814516 73.7059721,39.7394974 72.9014598,40.4555889 C72.0977795,41.1708477 71.7109148,42.0551374 71.7416975,43.1067927 L71.7600008,43.1567526 L73.5212754,43.1567526 C73.5212754,42.3682193 73.7417467,41.7578762 74.1818574,41.3282213 C74.623632,40.8969011 75.3133328,40.681241 76.2509598,40.681241 C76.9023902,40.681241 77.4273615,40.8894071 77.8250418,41.306572 C78.2227221,41.7229043 78.4207303,42.2366583 78.4207303,42.8461687 C78.4207303,43.3382735 78.2792959,43.8195536 77.997259,44.2883437 C77.7152221,44.7587992 77.1761074,45.3941222 76.3807467,46.1934801 L71.9372098,50.6382434 L71.9372098,51.7714998 L80.7219516,51.7714998 L80.7219516,49.0786627 L79.1670049,49.0786627 L79.0172508,50.4792045 Z" id="Fill-130" fill="#83579F"></path>
                <path d="M89.9741758,47.4510534 C89.9741758,48.5135333 89.7645201,49.3128913 89.3452086,49.8507925 C88.9258971,50.3870285 88.3102414,50.6559791 87.4957455,50.6559791 C86.695393,50.6559791 86.0805693,50.3853632 85.6521061,49.8466292 C85.223643,49.3070626 85.0089955,48.5085373 85.0089955,47.4510534 L85.0089955,43.8689306 C85.0089955,42.813112 85.2203152,42.0170847 85.6429545,41.4833467 C86.0655939,40.9487761 86.6762578,40.6814908 87.4782742,40.6814908 C88.2919381,40.6814908 88.9109217,40.9487761 89.336057,41.4833467 C89.7611922,42.0170847 89.9741758,42.813112 89.9741758,43.8689306 L89.9741758,47.4510534 Z M87.4782742,39.3817014 C86.1487906,39.3817014 85.0996799,39.799699 84.3292783,40.6356942 C83.5588766,41.4716894 83.1736758,42.6673957 83.1736758,44.2219803 L83.1736758,47.1163222 C83.1736758,48.6709069 83.5622045,49.8641152 84.3392619,50.6976124 C85.1146553,51.5302769 86.1679258,51.9474418 87.4957455,51.9474418 C88.8318848,51.9474418 89.8843234,51.5319422 90.653893,50.7017757 C91.4242947,49.8707765 91.8094955,48.6759029 91.8094955,47.1163222 L91.8094955,44.2219803 C91.8094955,42.6673957 91.4209668,41.4716894 90.6455734,40.6356942 C89.868516,39.799699 88.8127496,39.3817014 87.4782742,39.3817014 L87.4782742,39.3817014 Z" id="Fill-132" fill="#83579F"></path>
                <polygon id="Fill-134" fill="#83579F" points="98.4629037 39.55781 94.4935881 40.32969 94.4935881 41.3613614 96.627584 41.3280548 96.627584 50.4790379 94.5310266 50.7138493 94.5310266 51.7713333 100.549477 51.7713333 100.549477 50.7138493 98.4629037 50.4790379"></polygon>
                <path d="M108.879466,50.0604575 C108.401085,50.4576384 107.780437,50.6558126 107.016691,50.6558126 C106.23381,50.6558126 105.607339,50.4593038 105.138941,50.0646208 C104.669712,49.6699378 104.435929,49.1262079 104.435929,48.4325983 C104.435929,47.7556421 104.67304,47.2035855 105.148925,46.7764286 C105.623146,46.348439 106.239634,46.1344442 106.997556,46.1344442 C107.748823,46.1344442 108.370302,46.3501043 108.861163,46.7805919 C109.351191,47.2110795 109.596622,47.7614707 109.596622,48.4325983 C109.596622,49.1203792 109.357015,49.6624438 108.879466,50.0604575 M104.817802,42.7788062 C104.817802,42.1468138 105.017474,41.6397211 105.418482,41.2566954 C105.818659,40.8736697 106.345294,40.6813242 106.997556,40.6813242 C107.637339,40.6813242 108.167302,40.8803311 108.585782,41.277512 C109.005093,41.674693 109.214749,42.1751244 109.214749,42.7788062 C109.214749,43.3999739 109.009253,43.8979073 108.599925,44.2726063 C108.189765,44.6464727 107.662298,44.8346549 107.016691,44.8346549 C106.357773,44.8346549 105.826978,44.6464727 105.423474,44.2726063 C105.019138,43.8979073 104.817802,43.3999739 104.817802,42.7788062 M108.842027,45.4882965 C109.519249,45.2543178 110.055868,44.8971047 110.45438,44.4191553 C110.851228,43.9403732 111.049236,43.382488 111.049236,42.7454996 C111.049236,41.672195 110.672355,40.8428612 109.917761,40.2583307 C109.163167,39.6738002 108.189765,39.3815349 106.997556,39.3815349 C105.792868,39.3815349 104.821962,39.6738002 104.086503,40.2583307 C103.351044,40.8428612 102.982482,41.672195 102.982482,42.7454996 C102.982482,43.382488 103.175499,43.9403732 103.559868,44.4191553 C103.945068,44.8971047 104.475864,45.2543178 105.153085,45.4882965 C104.370204,45.7347652 103.749556,46.1211216 103.289478,46.6457002 C102.831064,47.1719442 102.600609,47.7789567 102.600609,48.4667376 C102.600609,49.5958307 103.004114,50.4593038 103.811122,51.0538262 C104.618962,51.6491814 105.687208,51.9481079 107.016691,51.9481079 C108.320384,51.9481079 109.381142,51.6491814 110.197302,51.0538262 C111.013462,50.4593038 111.42279,49.5958307 111.42279,48.4667376 C111.42279,47.7789567 111.187343,47.1719442 110.718945,46.6457002 C110.249716,46.1211216 109.624909,45.7347652 108.842027,45.4882965" id="Fill-136" fill="#83579F"></path>
            </g>
        </g>
    </g>
</svg>