<?xml version="1.0" encoding="UTF-8"?>
<svg width="171px" height="63px" viewBox="0 0 171 63" version="1.1" xmlns="http://www.w3.org/2000/svg" xmlns:xlink="http://www.w3.org/1999/xlink">
    <!-- Generator: Sketch 46.2 (44496) - http://www.bohemiancoding.com/sketch -->
    <title>logo-year-of-open-2018</title>
    <desc>Created with Sketch.</desc>
    <defs>
        <polygon id="path-1" points="0.00245347826 0.0659045783 41.019403 0.0659045783 41.019403 16.6178388 0.00245347826 16.6178388"></polygon>
        <polygon id="path-3" points="11.2257736 12.7082107 11.2257736 0.185898072 0.209803019 0.185898072 0.209803019 12.7082107 11.2257736 12.7082107"></polygon>
    </defs>
    <g id="Page-1" stroke="none" stroke-width="1" fill="none" fill-rule="evenodd">
        <g id="Desktop-HD" transform="translate(-860.000000, -1905.000000)">
            <g id="logo-year-of-open-2018" transform="translate(860.000000, 1905.000000)">
                <path d="M48.64,40.0725902 C47.812244,39.846268 46.9822508,39.6372868 46.144875,39.4698795 C45.2717042,40.846043 44.2209016,42.1161596 43.016181,43.2969034 C42.3736634,43.9267371 41.6955746,44.2553267 40.9892974,44.5145524 C40.0778709,45.1085925 39.1149894,45.3506995 38.105127,45.6441624 C38.068661,45.6648382 38.0326425,45.6792891 37.9959527,45.7008542 C37.9270476,45.7415388 37.8583663,45.7835574 37.78879,45.8257982 C37.6395702,45.8891596 37.4881133,45.9516316 37.3355377,46.0141036 C37.3856505,45.9651931 37.4444883,45.9431834 37.4946011,45.9131702 C37.5972876,45.852032 37.6981843,45.7942287 37.7997522,45.7353138 C37.2388916,45.9049443 36.665279,46.1010309 36.0755588,46.3978287 C35.8558679,46.5085443 35.6352821,46.6174813 35.4140252,46.7250844 L37.3612652,46.0850239 L35.594118,48.0503364 C35.3088778,48.3673654 34.392977,49.0987996 31.92,49.3373494 C34.2719456,49.2588703 36.5104663,48.6677203 38.5843307,47.576127 C39.3722649,47.1614994 40.126194,46.6810649 40.7597629,46.2651034 L41.6832701,45.6601695 L41.9139232,46.7057425 C41.9470335,46.9196147 41.8881957,47.1270397 41.7631374,47.2879997 C44.2698958,45.4945408 47.1688315,42.4423036 48.64,40.0725902" id="Fill-1" fill="#7BC142"></path>
                <path d="M14.6094143,44.3957378 C14.6339848,44.4147978 14.6592135,44.4338579 14.6881716,44.4562425 C14.6335461,44.4706483 14.6247709,44.4292037 14.6094143,44.3957378 M48.9365906,40.6559704 C47.4476624,43.2009359 44.3081235,46.580113 41.6327914,48.5155988 C41.4000298,48.6842585 41.1247086,48.9129796 40.8303015,49.1569931 C40.1370625,49.729904 39.3508066,50.3794986 38.6670009,50.6631836 L38.2499606,50.8367191 L37.8572715,50.5042757 C37.5937968,50.2507321 37.488714,49.7471911 37.4860815,49.3276474 C35.3140058,50.326086 32.981125,50.8059127 30.5528141,50.8043613 C29.0752937,50.7941664 27.3312272,50.7236884 25.5990073,50.2828683 C25.5182757,50.2624785 23.5978282,49.6421389 23.3150481,49.5180267 C22.7859049,49.3234365 22.7560693,48.8759676 22.7591406,48.7429902 C22.7624313,48.6485762 22.7896344,48.4794733 22.9010791,48.3128083 C20.5186186,47.7605089 18.1609479,47.6372832 16.645036,46.581886 C15.8976103,46.0617228 15.1999838,44.7807073 14.4823937,44.2253051 C14.3816985,44.2567764 14.3393583,44.1763251 14.2878041,44.1302262 C14.0642565,43.9289871 13.8433414,43.7244236 13.6290077,43.5136544 C13.0465553,42.9400786 12.4498433,42.3718219 11.9941922,41.6976266 C11.0881552,40.3569929 10.4506386,38.8842683 10.070454,37.296075 C9.67951989,35.6631127 9.65056181,34.0004521 10.0160479,32.3014444 C10.1182787,31.8260502 10.2692118,31.3617375 10.4096146,30.8945436 C10.4201448,30.8597479 10.4598525,30.8167518 10.4214611,30.7839507 C10.354331,30.7265488 10.3477496,30.7272137 10.3782434,30.6656009 C10.678135,30.0583375 10.9484105,29.4399926 11.2309712,28.8260803 C11.4238057,28.4074232 11.6502053,27.9661599 11.8948133,27.5173612 C9.56346817,26.7808881 7.23497495,26.0096193 4.96483665,25.0481928 C4.5357305,26.4103245 4.53967932,27.9539703 4.09236468,29.2888417 C2.12650564,35.1609015 3.35810174,40.9081841 4.22618613,42.6938488 C5.58721608,45.4930228 6.56652584,47.7463247 8.95600654,49.7564995 C9.08346599,49.8635463 9.22233317,49.9732526 9.36953676,50.0849536 L9.36887862,50.0851753 C25.5362648,63.5402706 43.061829,51.1658382 47.2098552,46.3910634 C47.2934387,46.3006388 47.3789967,46.2113223 47.4619221,46.1200112 C47.7282487,45.8108388 47.9945754,45.5014447 48.2606826,45.1922723 C48.8405024,44.4832812 49.3714006,43.7461432 49.8595199,42.9855126 C50.3263593,42.3079928 50.567896,41.9017469 50.567896,41.9017469 L50.4843125,41.9556027 C50.6273478,41.7064917 50.7673119,41.4556077 50.9015721,41.2020642 C50.9081535,41.1894313 50.9131992,41.1770201 50.92,41.1646089 C50.2769989,40.957829 49.6348753,40.7568115 48.9925324,40.5611132 C48.9736657,40.5936926 48.9554572,40.6233909 48.9365906,40.6559704" id="Fill-3" fill="#7BC142"></path>
                <path d="M44.4193498,40.4155959 C45.1878256,39.265893 45.8114197,38.0510879 46.2857669,36.7705298 C46.3229747,36.6700555 46.3759802,36.5680623 46.3554016,36.4337349 C46.193475,36.623616 46.1215538,36.8284706 46.0423573,37.0250789 C45.216303,39.0714547 44.0208731,40.8771697 42.56,42.5060241 C43.2287007,41.9350787 43.8506319,41.2666973 44.4193498,40.4155959" id="Fill-5" fill="#EEB23E"></path>
                <path d="M40.3712075,44.402992 C40.5912728,44.2668718 40.8084828,44.112284 41.0226182,43.9300987 C41.5613607,43.4715231 42.0739677,42.9967623 42.56,42.5060241 C41.0120761,43.7018484 39.2219048,44.4446995 37.24,45.5421687 C37.3403691,45.5135336 37.4405185,45.4844836 37.5397895,45.4570935 C38.5287652,44.9244402 39.474255,44.7161099 40.3712075,44.402992" id="Fill-7" fill="#EEB23E"></path>
                <path d="M3.09168,30.4586361 C3.0742,30.4282746 3.05672,30.3986722 3.04,30.3683108 C3.18896,30.3387084 3.11068,30.4115758 3.09168,30.4586361" id="Fill-9" fill="#F2883A"></path>
                <polygon id="Fill-11" fill="#F2883A" points="3.07344 30.4176145 3.04 30.3925663 3.09168 30.3614458"></polygon>
                <polygon id="Fill-13" fill="#F2883A" points="3.05292 29.6411205 3.04 29.6024096 3.08332 29.6046867"></polygon>
                <path d="M13.9524522,19.7852412 C13.7652272,19.9531277 13.5827447,20.139716 13.4070667,20.3540347 C12.9647787,20.8935931 12.5490898,21.4464792 12.16,22.0120482 C13.4464499,20.5870551 15.0170364,19.5960733 16.72,18.2168675 C16.6303052,18.2592153 16.5408166,18.3015631 16.4517404,18.3424062 C15.6001556,19.0154569 14.7469211,19.3497252 13.9524522,19.7852412" id="Fill-15" fill="#F2883A"></path>
                <path d="M40.0020592,46.9091388 C39.677195,47.235431 39.3058272,47.5079758 38.9639924,47.8145606 C38.7365434,48.0185772 38.0621306,48.648767 37.9347415,49.0133543 C37.8474646,49.2637282 37.9616299,50.0773314 38.1308943,50.0067877 C38.9990354,49.6446638 40.205485,48.472072 40.9689379,47.9160091 C43.4506007,46.1094204 46.5914689,42.8028279 48.111322,40.1895785 C49.1286715,38.4403205 50.0492671,37.0460202 50.7466011,35.1740387 C51.3617272,33.5221981 50.9718461,31.5890789 51.3055262,29.8821471 C52.5049231,23.7379093 50.5350206,18.1432399 49.43921,16.4694524 C47.7216613,13.8454535 46.4548232,11.7179473 43.8149158,10.0210932 C43.674303,9.93084217 43.5215683,9.83924743 43.3604586,9.74698085 L43.3608994,9.7467569 C41.9854058,8.87268779 40.6235769,8.17083471 39.276294,7.59036145 C39.1422931,10.4772753 38.8015603,13.1552457 38.8764951,16.0419357 C38.8983143,16.0555965 39.7265638,16.7133318 39.9670162,16.8960734 C40.6215933,17.393238 41.2891738,17.8834602 41.8302468,18.4984215 C42.9062217,19.7214016 43.731606,21.1123427 44.3154359,22.6528811 C44.9160159,24.2373134 45.1597743,25.8994555 45.0154147,27.6498332 C44.9748618,28.1398315 44.8847197,28.6249029 44.8051566,29.1117659 C44.7994263,29.1478215 44.7652648,29.1961943 44.8080217,29.2239639 C44.8822953,29.2727845 44.8884664,29.2712169 44.865986,29.3368337 C44.64581,29.9851632 44.45671,30.6404351 44.2546065,31.2930196 C43.6363948,33.2872767 42.4711594,35.7865365 41.3687369,37.594021 C41.3687369,37.594021 39.6251814,37.6815847 38.7504284,38.0533384 C37.018554,38.7894555 34.7806495,40.5866383 32.7192826,41.8089466 C30.6579156,43.0312549 27.3294901,42.638674 26.2526336,42.673386 C25.1759975,42.707874 24.3561231,42.6718183 24.349952,43.32821 C25.0657993,43.5237166 28.033436,44.14674 29.5202297,44.1301678 C31.0070234,44.1133717 31.3129335,44.2909625 31.3129335,44.2909625 L31.2523246,44.3350803 C30.6830408,44.435185 30.115961,44.6085208 29.5475589,44.6573415 C28.5282258,44.745353 27.5139619,44.715344 26.5030039,44.6676431 C25.0596282,44.5993389 23.640937,44.4067436 22.2193806,44.2264655 C21.8735788,44.1825717 21.5284381,44.1277044 21.171396,44.1516668 C20.1899712,44.2119088 20.2353728,44.9504894 20.2463926,44.9950551 C20.2895903,45.1708543 20.6380369,45.1692866 20.7960611,45.223482 C23.555864,46.1654074 26.8653354,46.6477914 28.7113752,46.5853099 C28.7455366,46.5841902 28.7865303,46.5707533 28.8215733,46.6428646 C27.4654747,46.7653641 26.167781,46.5933721 24.8577452,46.4854291 C24.349952,46.4437748 23.8520767,46.3786059 23.3632376,46.2861154 C22.5803898,46.1376378 21.822006,45.9186167 21.0894086,45.6127037 C20.4932365,45.4998339 19.7088459,46.1206178 19.7626227,46.1624961 C20.0793322,46.4104065 21.2099654,47.0900888 21.5983038,47.2280407 C22.7225455,47.6273401 22.4671061,47.5124547 24.7543793,48.0055883 C24.8941106,48.0353733 29.6813395,49.0606074 34.0002261,47.6096482 C33.8909095,47.7330435 32.3428456,49.50604 24.7438003,48.3706235 C24.4707292,48.3840604 24.196997,48.4149652 23.9239259,48.4469898 C23.7024276,48.4731917 23.4796069,48.5047684 23.2664836,48.5916602 C23.1983812,48.6194298 23.1146306,48.6592925 23.1122062,48.7421533 C23.1100022,48.816504 23.1939732,48.8299409 23.2501743,48.8547991 C23.4950346,48.96319 25.4179927,49.5855415 25.437608,49.5906923 C26.9960305,49.9893198 28.6121968,50.0840498 30.2481988,50.095919 C32.87356,50.1154025 35.3896046,49.5250756 37.7928063,48.2313279 C38.5518513,47.8228467 39.2765144,47.3568109 39.9936841,46.8762184 C40.0148422,46.8621097 40.0355594,46.8484489 40.0567175,46.8345641 C40.0622274,46.8755466 40.0377634,46.8959258 40.0020592,46.9091388" id="Fill-17" fill="#7D5DA7"></path>
                <path d="M9.16260851,28.4845463 C9.13814769,28.5938729 9.09779779,28.7072823 9.13522075,28.8433735 C9.27299581,28.623813 9.31899052,28.4013039 9.37355697,28.1862797 C9.94117348,25.9484866 10.9072714,23.9071183 12.16,22.0120482 C11.5643685,22.6984015 11.0281121,23.4795651 10.5675378,24.4421836 C9.94493668,25.742762 9.47537252,27.0902918 9.16260851,28.4845463" id="Fill-19" fill="#F2883A"></path>
                <path d="M3.09168,30.4586361 C3.11068,30.4115758 3.18896,30.3387084 3.04,30.3683108 C3.05672,30.3986722 3.0742,30.4282746 3.09168,30.4586361" id="Fill-21" fill="#F2883A"></path>
                <polygon id="Fill-23" fill="#F2883A" points="3.07344 30.4176145 3.09168 30.3614458 3.04 30.3925663"></polygon>
                <polygon id="Fill-25" fill="#F2883A" points="3.05292 29.6411205 3.08332 29.6046867 3.04 29.6024096"></polygon>
                <path d="M16.5250824,13.7358282 C13.7976185,15.1872881 11.0001276,17.9993811 9.28513815,20.1555769 C8.54895633,21.0828494 7.8599081,23.4123011 7.6,25.8047348 C7.92320178,26.0255034 8.20892113,26.2875971 8.47713371,26.5662651 C9.21555999,24.6699531 10.2614769,22.9071188 11.5702196,21.2532324 C12.1268449,20.5498224 12.7582106,20.1390027 13.4268343,19.792712 C14.2557121,19.0901859 15.1815506,18.7279839 16.1473403,18.3092086 C16.1812316,18.2842368 16.2148985,18.2654526 16.2487898,18.2391549 C16.311859,18.1903162 16.3747038,18.1399305 16.4382219,18.0895449 C16.578276,18.0079997 16.7205746,17.9266755 16.8644443,17.8457933 C16.8209018,17.9003778 16.7652393,17.9297694 16.7194524,17.9655697 C16.6254096,18.0391593 16.532938,18.108771 16.4395686,18.1801507 C16.975096,17.9408189 17.5198256,17.6740844 18.0674731,17.3056947 C18.2748609,17.1660292 18.4833709,17.0279107 18.6927788,16.8915601 C19.784707,16.3667098 20.805037,15.7954516 21.8401805,15.2785568 L20.73905,15.4858451 L22.7689367,13.7725125 C23.0946074,13.4969385 24.114713,12.8949627 26.6,12.9784968 C24.2493804,12.7497725 21.9389366,13.0456776 19.7299422,13.8571515 C18.8896176,14.1652111 18.0775732,14.5422194 17.3939116,14.869726 L16.3031056,15.3749083 L16.3031056,14.273054 C16.3031056,14.0624509 16.3848038,13.8739468 16.5250824,13.7358282" id="Fill-27" fill="#7D5DA7"></path>
                <path d="M52.2550491,43.6693984 C51.8458201,44.1177773 51.4500747,44.5779497 51.0266879,45.0138674 C48.5465936,47.5681804 45.8175011,49.8278762 42.7531149,51.6885927 C42.1306194,52.06621 41.5056518,52.4442724 40.8476492,52.7500156 C40.2278504,53.0381796 39.6646829,53.4921215 38.945105,53.5203816 C38.8026277,53.5259446 38.6547569,53.6151753 38.5107065,53.6696929 C37.8410181,53.9231437 37.1749254,54.1886107 36.4843373,54.3695199 C36.4632129,54.3735252 36.4420885,54.3775306 36.4207394,54.3817585 C36.4005139,54.398225 36.3805131,54.4146915 36.3602877,54.4311581 C36.3593887,54.424705 36.3548942,54.4169167 36.3575909,54.4115762 C36.3701757,54.3855413 36.3863561,54.3637343 36.4200652,54.3793108 C36.4391671,54.3644019 36.4580442,54.349493 36.477146,54.3345842 C36.5366989,54.2992034 36.5998473,54.268273 36.6555798,54.2275518 C36.733785,54.1708091 36.8843525,54.1409913 36.8686216,54.04553 C36.8497445,53.931822 36.7041209,54.012597 36.6176008,53.9945728 C36.6095106,53.9930152 36.605915,53.9767712 36.5773746,53.9284842 C40.113464,52.6919377 43.2470663,50.7606822 46.1089728,48.3590183 C46.0795335,48.35034 46.0541393,48.3518976 46.0366105,48.3641362 C45.9541355,48.421324 45.8718852,48.4791794 45.7925563,48.5410401 C42.8095216,50.8628191 39.6042312,52.759584 35.9906107,53.8717415 C34.3593127,54.3735252 32.7041936,54.7166519 31.03222,54.7549254 C27.7273752,54.8305824 24.7200699,54.002361 21.9251322,52.5775622 C20.7778976,51.9925557 19.6890922,51.323214 18.6544461,50.5784379 C17.7144103,49.901308 16.8105558,49.1841243 15.9574896,48.4104205 C15.2313946,47.8002693 14.5637288,47.1333753 13.905951,46.457358 C12.6173627,45.1335834 11.4299018,43.7272538 10.3795248,42.2143368 C8.45001325,39.4352781 7.23738288,36.3656076 7.08883791,32.8729256 C7.08569172,32.8026092 7.08524227,32.7318476 7.08277027,32.6268179 C7.2221014,32.7338503 7.27019312,32.8386575 7.2789575,32.9897489 C7.43918831,35.7690301 8.27450096,38.3104369 9.5999446,40.6749399 C10.9804465,43.1366843 12.7922008,45.2688759 14.8113787,47.2410752 C15.1992586,47.6198051 15.5979254,47.9880766 15.9914235,48.3612435 C16.0527742,48.4095304 16.1161473,48.4553697 16.1748013,48.5065494 C18.0189163,50.1207132 20.0347233,51.5072385 22.3159336,52.5452967 C23.7121664,53.1805928 25.1715477,53.6683577 26.7138536,53.9560768 C30.4121964,54.6456678 34.0770548,54.1547876 37.7064062,52.68949 C40.0907665,51.7268663 42.2908502,50.4255663 44.3569961,48.8892847 C46.3107783,47.4366707 48.1294991,45.8387509 49.7518079,44.0396726 C49.9329384,43.8389591 50.1401373,43.6404708 50.2277811,43.339178 C50.0302455,43.4114972 49.9154097,43.5280979 49.7996749,43.6360204 C49.2816777,44.120225 48.768175,44.6095476 48.2530993,45.0968675 C45.7792974,47.4371158 43.0899817,49.4898675 40.0629003,51.0922377 C37.7859598,52.2978539 35.4121617,53.1748072 32.9021787,53.5800171 C28.6703324,54.2631551 24.8454679,53.443167 21.3082548,51.5913513 C19.5209959,50.6556525 17.8953161,49.5094493 16.3993042,48.2028089 C13.9351656,46.0499229 11.7422732,43.6734038 10.0700748,40.8671976 C9.06689063,39.1836074 8.32012067,37.3863092 7.88482323,35.452606 C7.30794736,32.8922849 8.00864816,30.647498 8.7666545,28.0130776 C8.40394408,27.4630069 7.93313967,26.9799149 7.32188048,26.6303351 L6.92995547,26.406257 L6.96860862,25.9598808 C7.17580751,23.559107 7.88257595,20.5074607 8.9943036,19.1013536 C10.809204,16.8051644 13.7958344,13.7975771 16.7359462,12.239711 C16.9937088,12.1030834 17.302934,11.9121608 17.6337331,11.7085545 C18.4139875,11.2285778 19.2987402,10.6847376 20.0318018,10.4924799 L20.4778862,10.3754341 L20.8322817,10.7572793 C21.0664479,11.0443308 21.1068989,11.5603559 21.0545373,11.9782494 C23.3921543,11.2706342 25.8201117,11.0830494 28.2916663,11.4223931 C29.7905997,11.6277796 31.5522397,11.9277372 33.2545516,12.5948537 C33.2747771,12.602642 35.1869846,13.487161 35.4739618,13.6573892 C35.6418334,13.7441722 35.7474554,13.850982 35.8180199,13.9597946 C36.5537782,14.0650468 37.2356018,14.2270417 37.8210173,14.5238841 C38.6259918,14.9315416 40.5047149,16.6972419 41.2885649,17.1805565 C41.2121575,14.3122671 40.8020295,10.95421 40.9388887,8.08569804 C24.493095,1.18266666 10.1091774,13.8523172 6.80186071,18.7439856 C6.72882423,18.8450099 6.65376519,18.9451442 6.58162762,19.0470586 C6.35173124,19.3899627 6.12228432,19.7330893 5.89238794,20.0759934 C5.39708821,20.858153 4.95482421,21.6618971 4.55975301,22.4836654 C4.17479456,23.2195407 3.98287715,23.6559034 3.98287715,23.6559034 L4.06063292,23.59115 C3.94826909,23.8579521 3.83905146,24.1260893 3.73635093,24.3964517 C2.4273124,27.8404017 1.99381278,31.3123893 2.46394301,34.807964 C2.85946366,37.7496852 3.87747989,40.4430735 5.36652525,42.9415338 C7.18479662,45.9925126 9.51477282,48.6304933 12.2092573,50.970074 C13.433124,52.0330545 14.7383422,52.9987935 16.1210914,53.8717415 C16.3215484,53.9854495 16.539759,54.0746802 16.7020123,54.2402355 C17.0391038,54.430713 17.3759705,54.6214131 17.713062,54.8118907 C17.9467787,54.8704135 18.1312801,55.0099339 18.3333103,55.1214167 C19.1513189,55.5268491 19.9873057,55.8991259 20.8491362,56.225341 C22.9085404,57.0046078 25.0612065,57.4961556 27.3163484,57.6766197 C27.3590466,57.6799576 27.4096103,57.7097753 27.4457915,57.6481371 C27.4336562,57.6394588 27.4239929,57.6261076 27.4114082,57.6241049 C27.3021905,57.6065258 27.1931976,57.5880566 27.0826316,57.5753729 C24.2870197,57.2593938 21.6954606,56.4380706 19.2717729,55.2142077 C17.4905816,54.3145573 15.8440022,53.2313274 14.3041684,52.0034592 C12.5396069,50.5969071 10.928085,49.0443815 9.45005126,47.3619039 C8.22708343,45.969593 7.1115354,44.499845 6.18273605,42.8972523 C4.46581686,39.9341691 3.35543757,36.7523483 3.21003879,33.2216153 C3.16913835,32.2342918 3.19610567,31.2460782 3.35296557,30.251634 C3.35543757,30.2287144 3.35835903,30.2055722 3.36128049,30.1826526 C3.35341502,30.0860787 3.35229138,29.9901724 3.41409149,29.9004966 C3.44712645,29.9995182 3.42173223,30.1023227 3.40510238,30.2046822 C3.40802384,30.2178109 3.40510238,30.2304945 3.39723691,30.2427332 C3.35319029,30.4260901 3.51589311,30.5464737 3.51117383,30.7191496 C3.49229671,31.4065154 3.46735194,32.0936588 3.49881381,32.7776869 C3.57117611,34.3675959 3.85096203,35.908328 4.29861949,37.4050009 C4.87909099,39.3464924 5.76451791,41.1466834 6.75421845,42.8919118 C8.07359445,45.2183637 9.73343282,47.2960378 11.5721544,49.2406445 C12.3128567,50.0241393 13.0733351,50.785827 13.9385365,51.4458228 C14.2264126,51.6654506 14.5648524,51.8169871 14.8520544,52.0334995 C15.7192783,52.6872648 16.5984129,53.3261212 17.5285606,53.9002241 C18.5748925,54.5459786 19.6634732,55.1254221 20.8037413,55.623868 C22.2233458,56.2444777 23.699357,56.7313526 25.2452584,57.0531173 C27.9599683,57.6178743 30.7308602,57.6483596 33.5563608,57.1212085 C34.8188807,56.8857818 36.0609504,56.5466606 37.2796484,56.0996169 C37.4032486,56.0544452 37.5493216,56.0313031 37.6255043,55.8853296 C37.5962897,55.8822143 37.5733675,55.8724234 37.5549398,55.8784315 C36.5393956,56.2159951 35.5146375,56.5083871 34.4752722,56.7329102 C31.4129086,57.3940187 28.4015582,57.4262842 25.4421198,56.8259238 C23.922062,56.5177329 22.4676247,56.05222 21.0756617,55.4438489 C20.2358545,55.0766901 19.4081826,54.6863891 18.6317486,54.213088 C18.0737499,53.9447282 17.5824952,53.5833549 17.069442,53.2520219 C17.602496,53.5537597 18.13555,53.8550524 18.6686039,54.1565677 C19.8771892,54.8183437 21.1298211,55.4006799 22.4480734,55.8661928 C24.370169,56.5446579 26.3688966,56.9661117 28.4647066,57.0729216 C31.5290928,57.2297986 34.539769,56.7044276 37.5081965,55.6532407 C38.1826041,55.4142537 38.854315,55.1639181 39.4997328,54.8434886 C39.495463,54.8259094 39.4909685,54.8085528 39.4864739,54.7907512 C38.8480227,55.0397517 38.2167627,55.309224 37.5708955,55.5379751 C34.9779879,56.4565398 32.3430563,56.9765702 29.6535159,56.9879188 C25.7432549,57.0043853 22.2145814,55.9718901 18.9600757,54.1966214 C18.0222872,53.6850468 17.132141,53.1069385 16.2727825,52.4867738 C14.9808233,51.5548579 13.7720133,50.5352689 12.6501729,49.4217762 L12.2076842,49.006998 C12.3863427,49.1089124 12.5555626,49.2201727 12.6733199,49.3859504 C12.7297265,49.4286744 12.7890546,49.4685056 12.842315,49.5145673 C14.0079773,50.5245879 15.2293721,51.4687425 16.5327924,52.3183258 C17.3454076,52.8481471 18.1928555,53.3252311 19.0450227,53.7983097 C20.3886693,54.5441985 21.7777109,55.2004115 23.2575424,55.7001925 C27.4554548,57.1180933 31.7947209,57.1699405 36.2733181,55.8343724 C40.0181795,54.717542 43.3690934,52.8098736 46.4757283,50.4255663 C46.58989,50.3381157 46.7233782,50.2548931 46.7725936,50.0955684 C44.9752219,51.3661605 43.134253,52.559093 41.1627174,53.535513 C39.1853389,54.5146032 37.1450366,55.2811864 34.9537173,55.7671712 C35.039788,55.6530182 35.1011387,55.6527957 35.1573206,55.6376643 C35.5571111,55.5301869 35.9589241,55.4304977 36.3564673,55.3121168 C38.6161037,54.6396598 40.7539378,53.6645749 42.7955885,52.4525056 C43.4879743,52.0412877 44.1702474,51.615606 44.7783605,51.0833369 C44.8567904,51.0150231 44.933872,50.9489345 44.9772444,50.7951729 C44.3911547,51.0459535 43.8545051,51.3140907 43.3589807,51.6080403 C42.2333199,52.2751568 41.129233,52.971646 39.9357045,53.5130384 C37.1241369,54.7883035 34.2280718,55.6087366 31.2045861,55.7658361 C31.1225605,55.7702865 31.0232309,55.814123 30.9578351,55.7293427 C31.0257029,55.6628091 31.104807,55.6808333 31.1764951,55.6761603 C32.9264493,55.5666802 34.650335,55.2328995 36.3535458,54.7035232 C38.077881,54.1674712 39.7332249,53.4531804 41.3337351,52.5933611 C41.4213789,52.5464093 41.516214,52.4665244 41.5998127,52.4683046 C41.8894866,52.4743127 42.1184841,52.3020818 42.2825352,52.1282933 C42.4207427,51.9816522 42.5699619,51.8770676 42.7326647,51.8127592 C42.9744717,51.7175204 43.2034691,51.5991395 43.3917909,51.4344743 C43.6380924,51.2186294 43.9158558,51.0548543 44.1835064,50.8746127 C47.0103554,48.9702821 49.5531487,46.7553129 51.8390783,44.2606355 C52.0563899,44.0234286 52.2968485,43.7975703 52.44,43.5047333 C52.3703344,43.5527977 52.3101074,43.6090954 52.2550491,43.6693984" id="Fill-29" fill="#7D5DA7"></path>
                <path d="M21.1324722,17.9201999 C21.1363901,17.9162224 21.1459671,17.9175482 21.1529321,17.9162224 C21.1524968,17.9230726 21.1544557,17.9323536 21.1505379,17.9361102 C21.14662,17.9396458 21.1370431,17.938099 21.1302957,17.9385409 C21.130731,17.9332375 21.1285544,17.9241775 21.1324722,17.9201999 L21.1324722,17.9201999 Z M21.1683859,16.913434 C21.1783982,16.9083516 21.1940696,16.9152018 21.2073467,16.9165277 C21.2010346,16.9280184 21.1975521,16.9450336 21.1886281,16.9492321 C21.1773099,16.9543145 21.1616385,16.9487902 21.147273,16.9476853 C21.1544557,16.9353106 21.1585913,16.9182955 21.1683859,16.913434 L21.1683859,16.913434 Z M21.2265007,17.8790984 C21.2295479,17.8760048 21.2371659,17.8771097 21.2430427,17.8760048 C21.2421721,17.8815292 21.243478,17.8890423 21.2399955,17.892136 C21.2367306,17.8950087 21.2291126,17.8934619 21.2236711,17.8939038 C21.2243241,17.8897053 21.2232358,17.8824131 21.2265007,17.8790984 L21.2265007,17.8790984 Z M21.3279295,17.8364501 L21.3305414,17.8499296 L21.3166113,17.8470569 L21.3279295,17.8364501 Z M25.3358914,16.1252132 C25.7553192,16.071737 26.1775765,16.0381487 26.5941747,15.9608072 C27.1542098,15.8565066 27.6637481,16.0306355 28.1952699,16.0763775 C29.1322894,16.1570337 30.0460194,16.3344773 30.9395071,16.6036259 C28.8841588,16.2379109 26.8016031,16.0551639 24.6635446,16.2469709 C24.8870798,16.1444381 25.1130092,16.1537191 25.3358914,16.1252132 L25.3358914,16.1252132 Z M14.9986407,23.1095965 C14.9986407,23.1095965 16.7170538,23.2512421 17.6205538,23.0015394 C19.4094883,22.5072164 21.8278909,21.0405998 24.0007747,20.1133851 C26.1736586,19.1861705 29.3832495,20.0042231 30.44194,20.1107334 C31.5008482,20.2170228 32.2992192,20.3591103 32.3878062,19.7178384 C31.7115415,19.4332215 28.8843764,18.4368415 27.4265004,18.2593979 C25.9686244,18.0819543 25.6913276,17.8684916 25.6913276,17.8684916 L25.7564075,17.8331355 C26.3262372,17.809491 26.9039026,17.7138085 27.4663319,17.7398837 C28.4753963,17.7867305 29.4648714,17.9482639 30.4489051,18.1268124 C31.8536724,18.3818185 33.2183907,18.7550467 34.587462,19.1167841 C34.9206971,19.2047325 35.2517555,19.3032877 35.6043621,19.3262692 C36.572942,19.3954346 36.6219152,18.6670983 36.616909,18.6217982 C36.5966668,18.4443546 36.2553784,18.4003804 36.1073707,18.3270165 C33.5242007,17.0455776 30.344429,16.1422283 28.5287226,15.962796 C28.4952032,15.9592603 28.4531951,15.9669945 28.4281644,15.8923047 C29.7713345,15.9490955 31.0204761,16.2865256 32.2898599,16.5627454 C32.7815502,16.6696977 33.2610517,16.7983056 33.7277113,16.9527677 C34.4758033,17.1998187 35.1905935,17.5129415 35.8694701,17.9078253 C36.4386468,18.0958757 37.285338,17.590725 37.2381061,17.5427732 C36.9590681,17.2588193 35.9375972,16.4465121 35.5749782,16.2611133 C34.5245588,15.7239211 34.7600652,15.8695442 32.5826105,15.0892785 C32.4498388,15.0415477 27.8918541,13.4145026 23.4794829,14.2712259 C23.6020245,14.1647156 25.3419859,12.6318062 32.6394193,14.7330654 C32.9084451,14.7556049 33.1805181,14.7613503 33.4519381,14.7653279 C33.6719908,14.7686425 33.89422,14.7666537 34.1138374,14.709642 C34.184141,14.691301 34.2709867,14.6630161 34.2838286,14.5825809 C34.2955821,14.5098798 34.2148309,14.4857935 34.1630282,14.4539729 C33.9370987,14.316305 32.1327105,13.456709 32.1142096,13.4491958 C30.6384856,12.8560966 29.0678625,12.5524758 27.4672026,12.3275224 C24.8992687,11.9666689 22.3609363,12.2163716 19.8441521,13.1685565 C19.0494813,13.4693046 18.2807118,13.831042 17.5180367,14.2078058 C17.4956179,14.2186337 17.4731991,14.2292405 17.4509979,14.2400683 C17.4505626,14.1994088 17.4771169,14.1823936 17.5139012,14.1744385 C17.8730376,13.8973348 18.2711348,13.6792316 18.6446366,13.4237836 C18.8932025,13.2538531 19.6330235,12.7252789 19.804103,12.3849761 C19.9214209,12.1516257 19.9120616,11.3406443 19.7374995,11.3874912 C18.8416175,11.6285759 17.51216,12.6187686 16.6941997,13.063151 C14.0359375,14.5074491 10.5427377,17.3328462 8.72441939,19.6915423 C7.50705592,21.2704146 6.6096503,25.8680379 6.89238857,28.7385141 C7.58149509,35.7352721 9.0546072,36.8330801 8.95992579,37.1347121 C11.212255,38.0930843 9.72238319,26.8591146 12.0354391,27.5931963 C12.8801714,26.0359796 13.9826112,24.3718105 14.9986407,23.1095965 L14.9986407,23.1095965 Z" id="Fill-31" fill="#7BC142"></path>
                <path d="M52.1696094,23.1989945 C50.7826736,19.9097663 48.8402967,16.9674935 46.501843,14.2767355 C45.4394146,13.0539698 44.2849684,11.9181115 43.0422829,10.8648938 C42.8606921,10.7249887 42.6579861,10.6075403 42.5204038,10.4207009 C42.214789,10.1862532 41.9091741,9.95180562 41.603337,9.71713343 C41.3817385,9.62842959 41.2185957,9.46472047 41.0352268,9.32706109 C40.2855258,8.81482448 39.514265,8.3340272 38.7112203,7.89567303 C36.7928481,6.84851856 34.7457842,6.07690742 32.5578041,5.60329628 C32.5162405,5.59431361 32.4704538,5.55793381 32.4275566,5.61474918 C32.4380031,5.62507925 32.4455601,5.63990065 32.4575625,5.64349371 C32.5624717,5.67515762 32.6671587,5.70794435 32.7736238,5.73466779 C35.47437,6.41420659 37.9092869,7.57274613 40.126606,9.11215077 C41.7567001,10.2437423 43.2309862,11.5417378 44.5814704,12.9702065 C46.1293263,14.6070731 47.5080382,16.369697 48.7389437,18.2455025 C49.7573636,19.7974829 50.6606499,21.4127911 51.3632307,23.1372387 C52.6625939,26.3251874 53.3380583,29.6532657 53.0222193,33.205237 C52.9339799,34.1984955 52.7792832,35.1836695 52.4965617,36.1585135 C52.4907828,36.1811948 52.4852262,36.2036514 52.4794473,36.2265572 C52.4745575,36.3240192 52.4632219,36.4203583 52.3907634,36.501876 C52.3712041,36.3983507 52.4094337,36.2988677 52.4392173,36.1989355 C52.4383282,36.1850124 52.4425512,36.1726612 52.4521086,36.1616575 C52.5187883,35.9840252 52.3749826,35.8423236 52.4020989,35.670081 C52.5096754,34.9847034 52.623253,34.3006733 52.6814865,33.6121519 C52.8166238,32.0114405 52.7423872,30.4334104 52.4981176,28.8778369 C52.1809449,26.8594315 51.5459328,24.943204 50.802233,23.0682967 C49.810485,20.5690941 48.4524437,18.2744716 46.9019206,16.0896623 C46.277355,15.2095855 45.6303406,14.3485968 44.8675259,13.5756383 C44.6139211,13.3185094 44.3016383,13.1229118 44.0482558,12.8691515 C43.282774,12.1020317 42.5035117,11.348835 41.6660158,10.6538011 C40.7236108,9.87163531 39.7314182,9.15010254 38.6778805,8.50335048 C37.3660704,7.69805434 35.9820241,7.01896468 34.5079603,6.49639799 C31.9192358,5.57836937 29.2058204,5.1878479 26.3663806,5.34841309 C25.09769,5.42004986 23.8354451,5.59790668 22.5825353,5.886924 C22.4556218,5.91611767 22.3089267,5.92038444 22.215353,6.05647185 C22.2435806,6.06343342 22.2649181,6.07623372 22.2838107,6.07241609 C23.323568,5.866713 24.366437,5.70704609 25.4148626,5.61766854 C28.5036842,5.35380269 31.4607024,5.71288482 34.2854727,6.69805888 C35.7357541,7.20378306 37.1017969,7.85839496 38.3878242,8.648196 C39.1637525,9.12450194 39.9245668,9.62281542 40.6247027,10.197257 C41.136802,10.5383738 41.5717753,10.9637031 42.0320869,11.3616353 C41.5484375,10.9906511 41.0647881,10.619667 40.5811387,10.2489073 C39.4818143,9.42991264 38.3289239,8.68435123 37.0966848,8.04725554 C35.300114,7.11867229 33.3944109,6.43733696 31.3533482,6.05781925 C28.3683246,5.50313953 25.3479608,5.63765498 22.3002583,6.30394434 C21.6079018,6.45530229 20.9168788,6.61878684 20.2423035,6.85570469 C20.2440816,6.87367003 20.2463042,6.89185993 20.2485269,6.90982527 C20.9068768,6.74387048 21.5610038,6.5563573 22.2240213,6.41128722 C24.8858711,5.82876123 27.537719,5.65090441 30.1762309,5.98887728 C34.0129754,6.48045376 37.3393986,7.97180113 40.3006398,10.1712073 C41.1536942,10.8049345 41.9514045,11.4988455 42.7137747,12.2309329 C43.8595526,13.3315343 44.912868,14.5084883 45.8681645,15.768532 C45.995078,15.9259532 46.1217693,16.0833745 46.2482383,16.2410203 C46.0864291,16.1157121 45.9348441,15.982544 45.8408259,15.8013187 C45.7910384,15.7512403 45.737917,15.7038568 45.6919081,15.650859 C44.679934,14.4885018 43.6048365,13.3849811 42.4370543,12.3658975 C41.708913,11.7301492 40.9398749,11.1426828 40.1652802,10.5585848 C38.9445989,9.63763682 37.6676845,8.80045221 36.2814155,8.10811311 C32.3488747,6.14427743 28.1002726,5.52851557 23.5349423,6.28305964 C19.717535,6.9143166 16.1837382,8.38769864 12.8273092,10.3699488 C12.7039519,10.4427084 12.5628134,10.508731 12.4936889,10.6616609 C14.421174,9.62371369 16.3813321,8.6690807 18.4417319,7.94822163 C20.5079105,7.22534146 22.6083181,6.72343492 24.8200806,6.52177403 C24.7211725,6.62462557 24.6607163,6.61721487 24.6038164,6.62507471 C24.1975153,6.68054268 23.7905475,6.72815082 23.38558,6.79507169 C21.0824665,7.17436483 18.8591462,7.87231809 16.6996161,8.81998951 C15.9672517,9.14134444 15.242889,9.47886818 14.5774265,9.93226832 C14.4916321,9.99065566 14.4076158,10.0465728 14.344937,10.1947868 C14.9523882,10.0198493 15.5133859,9.82133237 16.0377099,9.59182522 C17.2279408,9.07038137 18.4010573,8.51682449 19.6419647,8.13012065 C22.5647541,7.21927816 25.5113258,6.77463612 28.4965717,7.00998201 C28.5774763,7.01649444 28.6803851,6.98550424 28.7337288,7.07869942 C28.6588254,7.13641305 28.5834774,7.10834222 28.5123525,7.10362632 C26.7820168,6.98572881 25.0483471,7.09576648 23.309343,7.40432111 C21.5487792,7.71669338 19.8328907,8.21657882 18.1514533,8.86894505 C18.0596577,8.90465115 17.9560821,8.97179659 17.8742884,8.95922086 C17.5911224,8.91565492 17.3444078,9.05825477 17.1605944,9.21096012 C17.0058977,9.33941226 16.8463112,9.42519674 16.6782786,9.46808897 C16.4288969,9.53231505 16.1890726,9.62079432 15.9828103,9.76137307 C15.7132025,9.94506862 15.4195899,10.0728471 15.1337567,10.2185908 C12.1142819,11.7566481 9.33307564,13.6427837 6.76746672,15.8421898 C6.52364163,16.0512614 6.25847907,16.2461853 6.08,16.5206058 C6.15468116,16.4815312 6.22091623,16.4330248 6.28292826,16.3798025 C6.74235074,15.9843406 7.19021541,15.5749555 7.66186248,15.1938658 C10.4255098,12.9605501 13.3956417,11.0535298 16.6422716,9.58980412 C17.3015106,9.29247782 17.9636391,8.99560066 18.6484386,8.77530074 C19.2938972,8.56757656 19.9053492,8.18626232 20.6141534,8.25161123 C20.7548473,8.26463609 20.9113222,8.19434672 21.0597954,8.15841605 C21.7494848,7.99178757 22.4371738,7.81280792 23.1377541,7.72140928 C23.1590916,7.72006188 23.1804291,7.71893904 23.2017666,7.71759164 C23.2235486,7.70389308 23.2453306,7.68974537 23.2673348,7.67582224 C23.2675571,7.68255924 23.2706688,7.69086821 23.2675571,7.69580867 C23.2517763,7.72028644 23.233106,7.74027288 23.2019888,7.72006188 C23.1813182,7.73241304 23.1606475,7.74476421 23.1404213,7.75733995 C23.077298,7.78496165 23.0112852,7.80786745 22.9514958,7.84110332 C22.8674795,7.88781319 22.7158945,7.89836783 22.718784,7.99582977 C22.7225625,8.11193075 22.8759256,8.04995034 22.958386,8.07936858 C22.965943,8.08206338 22.9672766,8.09868131 22.9890586,8.15078078 C19.3610213,8.92890436 16.0374876,10.4541613 12.9188825,12.485367 C12.9468879,12.4979427 12.9717817,12.4997393 12.9904519,12.4898583 C13.0786913,12.443373 13.1669306,12.3959895 13.2527251,12.3445637 C16.4797956,10.4085743 19.8691199,8.92710782 23.5573911,8.28394883 C25.2223808,7.99335954 26.8900378,7.86513196 28.5345791,8.04411161 C31.7849875,8.39757957 34.6268723,9.61720126 37.1824792,11.4058749 C38.2317939,12.140208 39.2126509,12.9515674 40.1303845,13.8311952 C40.9643241,14.6308771 41.7573669,15.4658161 42.4935097,16.351058 C43.1265214,17.0555237 43.6946317,17.8096186 44.2520732,18.5715734 C45.3436183,20.0635944 46.3255866,21.6252312 47.1590816,23.2753472 C48.6904899,26.3069975 49.4810877,29.5360419 49.1734725,33.0500614 C49.1670268,33.1210245 49.1583585,33.1919876 49.1470229,33.2970848 C49.0245547,33.1720011 48.9907704,33.0610652 49.0018837,32.908809 C49.205701,30.1068904 48.7167172,27.4554315 47.7236356,24.9171543 C46.6896572,22.2742289 45.1898107,19.9052749 43.4656984,17.6699381 C43.1347453,17.2405666 42.7915676,16.8201778 42.4539465,16.3957467 C42.4001583,16.3393805 42.3437029,16.2852599 42.2930264,16.2264234 C40.6940495,14.3717272 38.8972564,12.7225094 36.7950707,11.3874605 C35.5083766,10.5704868 34.1405557,9.89274458 32.6656028,9.4045366 C29.1282498,8.23409503 25.470429,8.24914099 21.7212571,9.24374685 C19.2578902,9.89723592 16.9314388,10.9136247 14.7058959,12.1824265 C12.6012653,13.3825109 10.6106569,14.744957 8.78563608,16.33444 C8.58204102,16.5116231 8.35288545,16.6831921 8.22819459,16.9735568 C8.43134512,16.9268469 8.55892543,16.8251182 8.68606121,16.7319231 C9.25750542,16.3149027 9.82405979,15.8918191 10.3926146,15.4712057 C13.1224776,13.4507792 16.0265966,11.7460935 19.2027684,10.5359036 C21.5923432,9.62551022 24.033928,9.05623367 26.5481936,8.97673706 C30.7867938,8.84289532 34.4310565,10.1602035 37.6594607,12.4730158 C39.2906661,13.6412117 40.7360576,14.9993911 42.0334205,16.5012931 C44.1702795,18.9755688 46.0121925,21.6384806 47.287551,24.6636185 C48.0530329,26.478791 48.5517963,28.3741339 48.7278305,30.3655912 C48.9620982,33.0195204 49.3955156,34.2627215 48.9872141,37.7437298 C48.8138472,39.2200312 45.0993487,46.2276347 44.5914723,47.0414644 C46.5594097,47.4416422 49.437746,41.3058066 51.3787893,41.9296528 C53.0964559,38.6651269 53.9670693,35.2597976 53.9599568,31.7147879 C53.9537333,28.7195174 53.3053853,25.892672 52.1696094,23.1989945 L52.1696094,23.1989945 Z M52.3883185,36.5131043 L52.4000986,36.5413997 C52.3554232,36.5445437 52.3807615,36.5261292 52.3883185,36.5131043 L52.3883185,36.5131043 Z M52.3563123,36.6422302 L52.3638693,36.6265105 L52.3725377,36.635044 L52.3563123,36.6422302 Z M52.333419,36.7318323 L52.3436432,36.7224005 L52.3458658,36.7340779 L52.333419,36.7318323 Z M40.9872175,13.0400467 C40.2037321,12.3093067 39.3773495,11.6263994 38.4960674,11.0016549 C36.8675292,9.84715754 35.1107439,8.90599856 33.1725901,8.25655169 C31.6013963,7.72994281 29.9773034,7.38208901 28.2865309,7.2567808 C28.2347431,7.25296317 28.1840666,7.24375593 28.1327233,7.23701893 C27.8299979,7.22601516 27.5274948,7.2150114 27.2247694,7.20378306 C27.1503105,7.20243566 27.0758516,7.20063913 27.0013927,7.19906716 C26.9567174,7.20086369 26.886926,7.23544696 26.8880374,7.16605586 C26.8887042,7.13484109 26.9587177,7.14000612 26.9985032,7.15168359 C27.0749625,7.13394282 27.1503105,7.13034975 27.2243248,7.14853966 C27.526828,7.13484109 27.827553,7.13776045 28.1247218,7.17324199 C29.5965629,7.23409956 31.0235064,7.47191569 32.4115535,7.86400912 C34.3212574,8.40341831 36.0822658,9.21185838 37.7210282,10.2475599 C39.0575097,11.0919307 40.3039738,12.0382547 41.4059654,13.1462668 C41.6306756,13.3724054 41.7751481,13.6722019 41.944292,13.9495418 C41.6255635,13.6463768 41.30928,13.3405169 40.9872175,13.0400467 L40.9872175,13.0400467 Z M26.7760156,7.19727063 C26.698445,7.2237695 26.6230971,7.21613423 26.5484159,7.20108826 L26.4846258,7.20108826 C26.4448403,7.20804983 26.3774939,7.23477326 26.379272,7.18491946 C26.3812724,7.13394282 26.4441735,7.15505209 26.4830699,7.16246279 C26.5041851,7.16178909 26.5255226,7.16111539 26.5470823,7.16021712 C26.6233193,7.13888329 26.6988896,7.13192172 26.7726816,7.15527666 C26.7984644,7.14898879 26.8269144,7.14180266 26.8251363,7.17885616 C26.824914,7.18447033 26.7931301,7.19098276 26.7760156,7.19727063 L26.7760156,7.19727063 Z M26.1959031,7.20580416 C26.1790109,7.20153739 26.1478938,7.19614779 26.1483383,7.19300386 C26.1525613,7.16470846 26.1745656,7.17122089 26.1934582,7.17458939 C26.2150179,7.16538216 26.2347995,7.16156452 26.2454682,7.18626686 C26.2290206,7.19277929 26.2123507,7.19929173 26.1959031,7.20580416 L26.1959031,7.20580416 Z M25.2992847,7.24757357 L25.3272901,7.2298328 C25.3286237,7.23814176 25.3301795,7.24622617 25.3315131,7.25453513 C25.3208444,7.25228947 25.3099534,7.2500438 25.2992847,7.24757357 L25.2992847,7.24757357 Z M25.2368281,7.2561071 C25.2543871,7.2358961 25.2735019,7.23297673 25.2939503,7.24847183 C25.2735019,7.23297673 25.2543871,7.2358961 25.2368281,7.2561071 L25.2368281,7.2561071 Z M25.1928196,7.26643717 C25.2003766,7.2257906 25.2152684,7.2453279 25.2286043,7.25588253 L25.1928196,7.26643717 Z M25.0712404,7.27856377 C25.0701291,7.2716022 25.0667951,7.260823 25.0685732,7.25970017 C25.080131,7.2534123 25.0928001,7.2493701 25.1048025,7.24442963 C25.1059138,7.2507175 25.10947,7.2614967 25.1074697,7.2628441 C25.0961341,7.26913197 25.0836873,7.27339873 25.0712404,7.27856377 L25.0712404,7.27856377 Z M24.9472163,7.2662126 C24.9589964,7.2628441 24.9705542,7.25925103 24.982112,7.25565797 C24.974555,7.2951817 24.9605523,7.2769918 24.9472163,7.2662126 L24.9472163,7.2662126 Z M24.8878715,7.27519527 C24.9034301,7.27317417 24.9189886,7.2709285 24.9347695,7.26868283 C24.9189886,7.2709285 24.9034301,7.27317417 24.8878715,7.27519527 L24.8878715,7.27519527 Z M24.8465301,7.2911395 C24.8411958,7.25094207 24.8609774,7.26980567 24.8745356,7.27474613 C24.8652004,7.28013574 24.8558653,7.2857499 24.8465301,7.2911395 L24.8465301,7.2911395 Z M29.0033367,7.09531735 C29.12336,7.05040401 29.2044868,7.07330982 29.3253992,7.12608299 C29.1862611,7.17324199 29.1026893,7.16291192 29.0028922,7.10295262 C28.8979829,7.15056076 28.8266357,7.13394282 28.7386187,7.07735202 C28.8484177,7.02278231 28.9204317,7.03580718 29.0033367,7.09531735 L29.0033367,7.09531735 Z M29.3725194,7.11463009 C29.4203065,7.10811765 29.4978771,7.09082602 29.4943208,7.14472202 C29.4898755,7.21613423 29.4245295,7.17863159 29.3827436,7.16875066 C29.3547382,7.17391569 29.3262882,7.17503853 29.3265105,7.14023069 C29.3265105,7.13281999 29.3562941,7.12316362 29.3725194,7.11463009 L29.3725194,7.11463009 Z M31.6307354,7.52715909 C31.7489805,7.53479436 31.8643362,7.55028946 31.9590213,7.61990513 C31.987249,7.60553287 32.0125872,7.60912593 32.030813,7.63068433 C32.0357028,7.63674764 32.0305907,7.65089534 32.0303685,7.66144997 C32.0063638,7.6524673 31.9828037,7.6430355 31.958799,7.63405284 C31.8392203,7.64326007 31.7338665,7.60777853 31.6316244,7.56219149 C30.9366007,7.42924802 30.2420215,7.29473257 29.5483313,7.15617492 C30.2580246,7.22287123 30.9577159,7.32459994 31.6307354,7.52715909 L31.6307354,7.52715909 Z M32.1208305,7.6538147 C32.1432793,7.6652676 32.1659503,7.67627137 32.1886214,7.68772427 C32.2161823,7.66841154 32.2412983,7.67110634 32.2608576,7.69288931 C32.2653029,7.69827891 32.258635,7.71332488 32.2570791,7.72365494 C32.234408,7.71197748 32.2112925,7.70030001 32.1886214,7.68884711 C32.161505,7.70793528 32.1366113,7.70568961 32.1174965,7.68413121 C32.1128289,7.67896617 32.1192746,7.66414477 32.1208305,7.6538147 L32.1208305,7.6538147 Z M32.5460241,7.79080038 C32.4588961,7.82111689 32.4017739,7.77418245 32.2944197,7.73196391 C32.4277789,7.71040551 32.4926804,7.73735351 32.5460241,7.79080038 L32.5460241,7.79080038 Z M32.6240392,7.80360068 C32.6271509,7.80764288 32.6227056,7.81752382 32.6218166,7.82493452 C32.5993678,7.81393075 32.5771412,7.80315155 32.5546924,7.79237235 C32.5824756,7.77440701 32.6055912,7.78047032 32.6240392,7.80360068 L32.6240392,7.80360068 Z M32.7285039,7.82650649 C32.7396172,7.83144695 32.7460629,7.84447182 32.762955,7.86288629 C32.7442848,7.86198802 32.7331715,7.86266172 32.7236141,7.85996692 C32.7173907,7.85839496 32.711834,7.85233166 32.7089446,7.84649292 C32.6989426,7.82560822 32.7073887,7.81662555 32.7285039,7.82650649 L32.7285039,7.82650649 Z M32.855862,7.86670392 C32.8660862,7.87119526 32.8723096,7.88354643 32.8872014,7.90038893 C32.8705315,7.89971523 32.8603073,7.90038893 32.8514167,7.89814326 C32.8460823,7.89657129 32.8403034,7.89095713 32.8376362,7.88601666 C32.8280788,7.86670392 32.8358581,7.85794582 32.855862,7.86670392 L32.855862,7.86670392 Z M32.9914438,7.90982073 C33.0001122,7.9181297 33.0058911,7.92913346 33.0141149,7.94058636 C33.0018903,7.9403618 32.9881098,7.94395486 32.9823309,7.9390144 C32.9752185,7.93317566 32.9747739,7.91992623 32.9714399,7.90982073 C32.9783302,7.90982073 32.9881098,7.90667679 32.9914438,7.90982073 L32.9914438,7.90982073 Z M33.1105781,7.9524884 C33.1210245,7.95832713 33.1325823,7.9632676 33.1414729,7.97090287 C33.1450292,7.9740468 33.1428065,7.98325403 33.1434733,7.98976647 C33.1312487,7.98639797 33.1188019,7.9828049 33.106355,7.9794364 C33.1079109,7.97022917 33.1092445,7.9612465 33.1105781,7.9524884 L33.1105781,7.9524884 Z M33.4188601,8.07105961 C33.3430676,8.07218244 33.283945,8.06432261 33.2297123,8.01357054 C33.3121727,7.9888682 33.3639605,8.0164899 33.4188601,8.07105961 L33.4188601,8.07105961 Z M33.5375498,8.09621108 C33.5475517,8.10160068 33.5622212,8.11574838 33.5599986,8.12203625 C33.5491076,8.15190362 33.5308818,8.13214175 33.5197686,8.12473105 C33.5106557,8.11866775 33.507544,8.10407091 33.5015428,8.09216888 C33.5144342,8.09329171 33.5282146,8.09127061 33.5375498,8.09621108 L33.5375498,8.09621108 Z M27.7813218,6.48382226 C27.780655,6.47798353 27.7799882,6.47192023 27.7793214,6.46608149 C27.7853226,6.46630606 27.7937687,6.46428496 27.7971026,6.46720432 C27.8002144,6.47012369 27.798214,6.47820809 27.7986585,6.48427139 C27.7922128,6.48404683 27.7862116,6.48382226 27.7813218,6.48382226 L27.7813218,6.48382226 Z M27.3259001,6.46720432 C27.4961554,6.41218549 27.596397,6.44654419 27.6948606,6.46293756 C27.5890623,6.50605436 27.4894874,6.50044019 27.3259001,6.46720432 L27.3259001,6.46720432 Z M27.0542918,6.47394133 L26.9845005,6.47304306 C26.9531611,6.47371676 26.9218217,6.47461503 26.8907045,6.47551329 C26.868478,6.47641156 26.8464737,6.47753439 26.8244695,6.47843266 C26.8026875,6.47888179 26.7809055,6.47933093 26.7593457,6.47955549 C26.737786,6.48045376 26.7164485,6.48135203 26.6953333,6.48225029 C26.6622158,6.48472053 26.6293205,6.48741533 26.596203,6.48988556 C26.5541948,6.48988556 26.5119644,6.48943643 26.469734,6.48921186 C26.4428399,6.49594886 26.4139454,6.50156303 26.4157235,6.46428496 C26.4159458,6.45777252 26.4477297,6.45013726 26.4652887,6.44295112 C26.5088527,6.44317569 26.552639,6.44362482 26.5964252,6.44429852 C26.628876,6.44295112 26.6613267,6.44182829 26.6939997,6.44070546 C26.7153372,6.44025632 26.7364524,6.44003176 26.7575676,6.43958262 C26.7789051,6.44070546 26.8002426,6.44182829 26.82158,6.44295112 C26.8429175,6.44317569 26.8640327,6.44340026 26.8855924,6.44340026 C26.9175987,6.44317569 26.9493826,6.44295112 26.9813888,6.44272656 C27.0045044,6.44182829 27.0278423,6.44070546 27.0509579,6.43980719 C27.1463097,6.41353289 27.2363272,6.41937162 27.3639075,6.45507772 C27.2312151,6.5085246 27.1427535,6.49258036 27.0542918,6.47394133 L27.0542918,6.47394133 Z M26.3112588,6.49684713 C26.2676948,6.49662256 26.2239085,6.49617343 26.1801222,6.49572429 C26.1621187,6.49437689 26.1305571,6.49774539 26.1285567,6.49123296 C26.1165543,6.45103552 26.1525613,6.45709882 26.1761215,6.45193379 C26.2194632,6.45058639 26.2628049,6.44946356 26.3063689,6.44834072 C26.3337076,6.44250199 26.3639357,6.43598956 26.3619353,6.47416589 C26.361713,6.48135203 26.32904,6.48921186 26.3112588,6.49684713 L26.3112588,6.49684713 Z M26.0218693,6.5058298 C25.956301,6.52514253 25.890955,6.53434976 25.8267203,6.51413876 C25.7947141,6.51683356 25.7627079,6.5193038 25.730924,6.5219986 C25.6233475,6.5415359 25.5162156,6.56197147 25.4097505,6.5401885 C25.3775221,6.54310787 25.3452936,6.5455781 25.3132874,6.5482729 C25.1637028,6.57364894 25.0132292,6.61047787 24.8098564,6.56736107 C25.0118956,6.48494509 25.1610356,6.48269943 25.311287,6.49617343 L25.4077501,6.48786446 C25.514882,6.46406039 25.6220139,6.44856529 25.7282568,6.46967456 C25.760263,6.46720432 25.7922692,6.46473409 25.8242754,6.46248842 C25.8891769,6.44654419 25.9538561,6.43598956 26.0169795,6.45709882 C26.0443181,6.45126009 26.0749907,6.44497222 26.0727681,6.48337313 C26.0723235,6.49033469 26.0396505,6.49819453 26.0218693,6.5058298 L26.0218693,6.5058298 Z M42.1663351,11.5563346 C42.5997526,11.78674 42.8686936,12.1920829 43.2256518,12.504006 C42.8726944,12.1880407 42.5195148,11.8722999 42.1663351,11.5563346 L42.1663351,11.5563346 Z" id="Fill-33" fill="#EEB23E"></path>
                <path d="M10.7316352,53.0077048 C10.912983,53.1405413 11.0860281,53.2822792 11.2726196,53.4068989 C9.74383625,52.2698006 8.27098666,50.9551304 6.9849471,49.4966682 C5.70568077,48.0550959 4.66828427,46.4275068 3.9175483,44.7809738 C3.82075667,44.576926 3.67808188,44.1416697 3.59964351,43.9289488 C2.89020239,42.2710037 2.15519779,40.1202855 1.74596366,38.3422854 C1.52943882,37.4594479 1.21131555,36.8176332 1.21131555,36.8176332 C1.13615455,36.5978368 1.02100966,36.3819205 1.01663983,36.6163243 C1.05815317,37.0778283 1.27598896,38.2144702 1.20541628,38.2311319 C1.18618905,38.2354684 1.13375115,38.0097378 1.09442272,37.7805834 C1.01707682,37.7983863 0.724517019,37.1410512 0.695020699,36.9068756 C0.604346826,36.685025 0.312224011,35.3014259 0.273551058,35.0576642 C0.154691812,34.3396169 0.0093951242,36.5300491 0.158187672,37.4866086 C0.206474241,37.9670566 0.0594296228,37.5062373 0,37.5169647 C0.108371665,37.9875983 0.0884889604,38.2393485 0.215650874,38.7058739 C0.215650874,38.7058739 0.264811408,39.0662669 0.372090616,39.5058598 C0.475436983,39.9463656 0.6050023,40.4742878 0.715340386,40.8193887 C0.715340386,40.8193887 0.807325207,41.095789 1.02013569,41.7339518 C1.09857406,41.9621931 1.1175828,41.9551177 1.13637305,41.9482704 C1.1175828,41.9551177 1.1175828,41.9551177 1.09857406,41.9621931 C1.21830727,42.1751423 1.32733441,42.6489713 1.43920193,42.8644312 C1.42041168,42.8721914 1.42041168,42.8721914 1.40162144,42.8797233 C1.62207912,43.3095018 1.74618215,43.7808202 1.96642134,44.2101422 L1.92971481,44.2274885 C2.03043928,44.4475132 2.13072677,44.6661684 2.112592,44.675298 C2.09467571,44.6844277 2.09467571,44.6844277 2.07632245,44.6935573 C2.16022309,44.9229399 2.39597516,45.3449581 2.36341996,45.3625327 C2.38133625,45.3529466 2.38133625,45.3529466 2.39903404,45.3431322 C2.84366375,46.2024609 3.17140064,46.8499816 3.54851656,47.4726239 C4.48977691,49.1800975 6.11141904,51.0236028 7.71361546,52.4133644 C7.88709752,52.575644 8.08679853,52.7055133 7.93975391,52.5117364 C8.10930313,52.6778961 8.29414673,52.8257965 8.47440202,52.9778052 C8.83644204,53.2806815 8.69333027,53.0800573 9.05471481,53.3824771 C12.0532889,55.6571304 15.3011615,57.5549572 19,58.4457831 C18.05,58.1951741 17.425989,57.9374897 16.5437213,57.624799 C16.5513684,57.604029 16.5629485,57.5688799 16.3483901,57.4819199 C15.0606026,56.9549107 13.5947447,56.2482755 13.0321297,55.8203229 C12.83658,55.6931925 12.6674678,55.5192726 12.075575,55.1545429 L12.6687787,55.5174467 C12.6788293,55.4991874 12.6984936,55.4626687 12.6984936,55.4626687 C11.9154209,54.9694392 10.9523114,54.3264833 10.2293238,53.7437832 C10.2293238,53.7437832 10.2529209,53.709547 10.2642824,53.6924289 L9.89525069,53.4148874 C9.75301288,53.2170021 10.1856256,53.5036733 10.7687787,53.9224961 C11.3672263,54.3184949 12.1306348,54.8274731 12.6309798,55.1047863 C12.6412489,55.086527 12.6611316,55.0500084 12.6711822,55.0317491 L12.2813937,54.7934651 L12.3019319,54.757403 C13.462776,55.4822975 14.4726426,56.0111327 15.7180428,56.5623355 C15.5111316,56.4678436 15.0981831,56.2788598 14.8914903,56.1843679 C14.9000115,56.1651956 14.9083142,56.1460233 14.7055543,56.0446842 C15.5192157,56.445476 16.5553013,56.9138272 17.4220561,57.1694575 C17.6422953,57.2214966 17.4454347,57.0945944 16.8214236,56.8359969 C16.1921688,56.590181 15.7785649,56.4119245 15.1632935,56.1273075 L15.1796803,56.088963 C15.5876035,56.2815987 16.1995975,56.570324 16.6260925,56.715029 C16.8408694,56.7807625 16.2319342,56.48519 16.4467111,56.5509235 C16.6536224,56.6390246 16.862937,56.7198221 17.0803358,56.7761977 C16.4484591,56.5484128 15.6186293,56.2055943 15.0175598,55.8976967 C14.825069,55.7780983 14.6327967,55.6584998 14.6504945,55.6206118 C13.6373505,55.1426744 12.8964466,54.6142957 12.3788408,54.1712792 C12.2127875,54.0142492 11.2599471,53.4265277 10.7316352,53.0077048" id="Fill-35" fill="#EEB23E"></path>
                <path d="M22.1217173,61.1067461 L23.1425838,61.3148427 C20.2398416,60.7793881 17.3291064,59.8292948 14.5893298,58.6044783 C11.8497752,57.4043136 9.34245779,55.8461428 7.40418796,53.915308 C7.17661332,53.6619053 6.72235214,53.1553221 6.49433345,52.9014753 C4.63599227,50.9206706 2.91508396,47.9511292 2.0600694,45.3757944 C1.84470608,44.7328491 1.62468026,44.1780727 1.48058666,43.773428 C1.34315378,43.4327447 1.22104056,43.1307048 1.22104056,43.1307048 C1.12046367,42.80157 0.978368292,42.4755446 0.999238551,42.8217801 C1.06451362,43.5131407 1.53564862,45.1794684 1.47192772,45.1994564 C1.45283366,45.2052307 1.35114665,44.873653 1.25079178,44.5405207 C1.1779679,44.5636179 0.757898423,43.5826543 0.699506102,43.2328653 C0.561851199,42.9023981 0.164428174,40.817434 0.173087111,40.4432154 C0.159321621,39.9088712 0.0190024301,40.439662 0.00279467541,41.3091373 C-0.018075584,42.1708395 0.0798370161,43.352793 0.233255625,44.0625869 C0.362029566,44.7790434 0.134010881,44.0870166 0.0738423671,44.0996756 C0.251905644,44.8088032 0.309631894,45.1723616 0.542757132,45.8670535 C0.542757132,45.8670535 0.569844065,46.0023052 0.636229251,46.2150657 C0.713937664,46.429825 0.818510985,46.7183176 0.93374146,47.0374584 C1.14621846,47.6917302 1.52832183,48.4248434 1.75056789,48.9272069 C1.75056789,48.9272069 1.78808995,49.0111562 1.90154424,49.2099252 C2.02099317,49.4158009 2.2032749,49.730722 2.47503232,50.2002165 C2.65642596,50.518691 2.67374383,50.5078086 2.69128373,50.4973705 C2.67374383,50.5078086 2.67374383,50.5078086 2.65642596,50.5184689 C2.87001308,50.8169554 3.27076647,51.4294747 3.48923812,51.7237416 C3.47258632,51.7357343 3.47258632,51.7357343 3.45593451,51.7472829 C3.88000042,52.344256 4.35579793,52.9012532 4.8302633,53.4584725 L4.79940196,53.4853452 C4.9161866,53.6263712 5.03030696,53.764288 5.12111479,53.8739996 C5.2163631,53.9726067 5.27786376,54.0403436 5.27031494,54.0472284 C5.25521731,54.0612199 5.25521731,54.0612199 5.24011967,54.0752115 C5.48678838,54.3488241 6.03851811,54.8365298 6.00987701,54.8656234 C6.02408654,54.8509656 6.02408654,54.8509656 6.03829608,54.8363077 C6.54428886,55.3715403 7.04406497,55.7730758 7.50543092,56.1504036 C7.9707933,56.5208468 8.36621811,56.9121662 8.83335668,57.2015471 C9.43881623,57.6101894 10.065146,58.0816827 10.7631896,58.4832181 C11.4730004,58.8616564 12.2101202,59.2551967 12.9630038,59.6351897 C13.7300968,59.9547746 14.5096232,60.2796896 15.2891496,60.6046047 C16.0680099,60.9179711 16.8735131,61.1522742 17.6399401,61.4194463 C17.981191,61.5382635 18.3337652,61.617549 18.0058357,61.4603105 C18.3433122,61.5857904 18.6996608,61.6606341 19.0451302,61.7627947 C19.7405095,61.9542347 19.4092496,61.7994392 20.1039628,61.9904351 C22.9099026,62.6522579 25.7915526,63.0400239 28.6909645,62.9967167 C30.1378951,62.952077 31.5903764,62.846363 33.0193231,62.5547612 C34.4580388,62.2613827 35.8388063,61.9058195 37.24,61.2200111 C35.8203783,61.8611797 34.7884106,62.080825 33.3650145,62.4290593 C33.360796,62.4090713 33.3523591,62.3693175 32.9962326,62.4337231 C30.8583631,62.8481397 28.3235147,62.926981 27.2478082,62.813716 C26.8885733,62.7863992 26.5348891,62.6889025 25.4618469,62.6196109 L26.5351111,62.692678 C26.5364432,62.6720238 26.5384414,62.6311595 26.5384414,62.6311595 C25.8246342,62.574527 25.0217952,62.5210038 24.2289474,62.3821987 C23.8315244,62.3235674 23.4343234,62.2649361 23.0480016,62.2076373 C22.6670083,62.1250205 22.2966722,62.0446246 21.9474284,61.9686704 C21.9474284,61.9686704 21.9556433,61.9286945 21.9596397,61.9084845 L21.2624843,61.7667922 C20.9301143,61.6257662 21.7202978,61.7554657 22.8088817,61.9615636 C23.9045703,62.123688 25.3110926,62.3206802 26.1985226,62.3417786 C26.2000768,62.3215686 26.2029631,62.2804823 26.2040732,62.2600501 L25.4982588,62.2125233 L25.5018112,62.171659 C27.6121497,62.3648758 29.388342,62.3233453 31.4902435,62.0734961 C31.1392235,62.1143603 30.4389597,62.2109687 30.0848314,62.2165209 C30.0832772,62.1960887 30.0819451,62.1754345 29.730481,62.196755 C31.1374473,62.131239 32.8958777,61.8949371 34.2451178,61.4856286 C34.5808181,61.3796925 34.2240255,61.4107849 33.1976084,61.6284313 C32.1649746,61.8298653 31.4707054,61.9251411 30.423196,62.0321876 L30.4196436,61.9915455 C31.116133,61.9204773 32.1629764,61.8145412 32.8450342,61.650418 C33.184731,61.5682454 32.1456585,61.7141573 32.4857993,61.6319847 C32.8286044,61.5664687 33.1751839,61.5184976 33.5077759,61.4087861 C32.4900178,61.6437554 31.1096943,61.8682866 30.0621849,61.9104833 C29.7124971,61.9109275 29.3634753,61.9113717 29.3616991,61.8705074 C28.4949173,61.9329142 27.7087301,61.8900512 27.0153491,61.8591809 C26.321746,61.7852256 25.7171745,61.7070505 25.203855,61.6162164 C24.8666004,61.5149442 23.1363671,61.3599267 22.1217173,61.1067461" id="Fill-37" fill="#EEB23E"></path>
                <path d="M39.8970754,6.46649161 C39.686372,6.37298369 39.4824728,6.26958551 39.2681405,6.18506874 C41.0510677,6.98100995 42.809273,7.96643956 44.4044042,9.12809565 C45.991824,10.2764898 47.3676333,11.6525847 48.460161,13.0985858 C48.6010079,13.2759361 48.8362064,13.6666014 48.959816,13.8560898 C50.0119721,15.3241192 51.1707274,17.2751979 51.9200966,18.9270963 C52.3061215,19.744841 52.7143735,20.3207239 52.7143735,20.3207239 C52.8257356,20.5225752 52.9699846,20.7143113 52.9230357,20.4884088 C52.7896734,20.0498656 52.3521633,18.9902591 52.4070505,18.9664325 C52.4227002,18.959914 52.5186394,19.1682838 52.6025579,19.3827226 C52.6640225,19.3561987 53.0588929,19.9464675 53.1328318,20.1672001 C53.2602972,20.3668035 53.797829,21.6552348 53.8758505,21.8833851 C53.9824496,22.2178558 53.9872125,21.857086 53.8933146,21.2969376 C53.8053136,20.7385874 53.6150228,19.9911984 53.4635159,19.5429898 C53.3176793,19.0920838 53.5433519,19.5115208 53.5916617,19.4933137 C53.396608,19.0599405 53.3594117,18.8180786 53.1462134,18.3923479 C53.1462134,18.3923479 53.0255523,18.0563038 52.8329934,17.6546243 C52.6442903,17.2511466 52.4131743,16.7687716 52.2362651,16.4583523 C52.2362651,16.4583523 52.0992739,16.22211 51.7590639,15.6354377 C51.6365883,15.4311139 51.621619,15.4396555 51.6068766,15.448197 C51.621619,15.4396555 51.621619,15.4396555 51.6365883,15.4311139 C51.4814525,15.2458963 51.2757389,14.814546 51.1249124,14.6270806 C51.1394281,14.6180895 51.1394281,14.6180895 51.1539437,14.6088736 C50.8559197,14.2343923 50.6354637,13.8088863 50.3349448,13.4366529 C50.34878,13.4267626 50.34878,13.4267626 50.3630689,13.4168724 C50.2197271,13.2249114 50.0768389,13.0340743 50.0904473,13.0239593 C50.1045093,13.0138442 50.1045093,13.0138442 50.1181177,13.0037292 C49.987477,12.8016532 49.6753911,12.437287 49.6994326,12.4186304 C49.6858242,12.429195 49.6858242,12.429195 49.6726694,12.4397595 C49.3692021,12.0735951 49.1031578,11.7526112 48.849588,11.4466875 C48.5982862,11.1484062 48.3449432,10.8905851 48.1045281,10.6213002 C46.8221632,9.17440005 44.8441823,7.71603614 42.9614602,6.6825039 C42.755293,6.56022431 42.5321152,6.46784028 42.7210452,6.61956587 C42.5180532,6.49279071 42.3025869,6.38624563 42.0914299,6.2749802 C41.6675282,6.053798 41.8553241,6.20956961 41.4321029,5.98883697 C37.9726209,4.36503598 34.3037963,3.18472327 30.4,3.03614458 C31.4013514,3.08919234 32.0885756,3.20877458 33.0409368,3.34184355 C33.0377615,3.36005062 33.0329986,3.38904706 33.2677434,3.43108067 C34.6750788,3.68485577 36.2947052,4.08765912 36.9508568,4.37694925 C37.1744882,4.45809434 37.3824699,4.58239694 38.0526836,4.81886408 L37.3815627,4.58441994 C37.3761193,4.60060401 37.3652326,4.63297213 37.3652326,4.63297213 C38.2554488,4.95305694 39.3575023,5.38215939 40.2039448,5.80069724 C40.2039448,5.80069724 40.189656,5.83171669 40.1823982,5.84722642 L40.6106092,6.04323341 C40.7981783,6.194959 40.3060078,5.99760334 39.6344333,5.70381764 C38.9512916,5.43543193 38.0778592,5.09264448 37.5162859,4.92046403 C37.5108425,4.93642332 37.499729,4.96856666 37.4940588,4.98475073 L37.936105,5.13917366 L37.9245379,5.17131701 C36.6045231,4.69658449 35.4754795,4.38211916 34.1017115,4.09215469 C34.3305595,4.14317945 34.7873481,4.24545373 35.0157424,4.29647849 C35.0116599,4.31288733 35.0073506,4.32952095 35.2334768,4.38818818 C34.3280646,4.15913873 33.1829178,3.91188221 32.2516496,3.82646632 C32.0180387,3.81567695 32.2439382,3.88873001 32.9300283,4.01370694 C33.6188402,4.12901839 34.0747216,4.2205033 34.7562756,4.37582535 L34.7483373,4.40909259 C34.2958581,4.30254751 33.6158917,4.14565201 33.1538865,4.08541133 C32.9225437,4.06001135 33.6016029,4.22005375 33.3707137,4.19465376 C33.142773,4.14992281 32.9136982,4.11260955 32.6814482,4.09665027 C33.3700333,4.19397942 34.2815692,4.36750854 34.9545046,4.54463412 C35.1747339,4.61926064 35.3942827,4.69411193 35.3856641,4.72692961 C36.5103983,4.99576488 37.3702224,5.35226382 37.9903118,5.66335748 C38.1923965,5.77597159 39.2774396,6.16348998 39.8970754,6.46649161" id="Fill-39" fill="#EDDF45"></path>
                <g id="Group-43" transform="translate(12.920000, 0.000000)">
                    <mask id="mask-2" fill="white">
                        <use xlink:href="#path-1"></use>
                    </mask>
                    <g id="Clip-42"></g>
                    <path d="M14.7329139,1.17492723 L13.6832713,1.20609831 C16.6542104,1.05336 19.7290878,1.3107441 22.6984657,1.87560867 C25.6633826,2.41642699 28.4909048,3.36224675 30.851597,4.79945639 C31.1362004,4.99293976 31.7049613,5.3794612 31.9900109,5.57316723 C34.2866896,7.08229301 36.6708013,9.61115855 38.1025174,11.9496578 C38.4622865,12.5330024 38.7972978,13.0332983 39.0227948,13.4022304 C39.229333,13.7139412 39.4075448,13.9826805 39.4075448,13.9826805 C39.5759426,14.285708 39.7769048,14.5782708 39.6696209,14.2467441 C39.4423396,13.5854718 38.5954435,12.0614284 38.6404983,12.034933 C38.6549961,12.0264723 38.8309774,12.3277186 39.0062896,12.6309687 C39.0593739,12.5991296 39.670513,13.4745918 39.8076848,13.8023335 C39.8902109,13.9588569 40.1841822,14.5059094 40.4223926,15.080348 C40.6728704,15.6501108 40.8742787,16.2399123 40.9291474,16.415361 C41.0596278,16.9343595 41.0585126,16.3877523 40.86045,15.5445745 C40.6679635,14.7069629 40.2878974,13.587253 39.9713987,12.9351094 C39.6758661,12.2718333 40.0467874,12.8968135 40.0925113,12.8752164 C39.7606226,12.2259672 39.6122987,11.891546 39.2302252,11.2690149 C39.2302252,11.2690149 39.1713417,11.1447759 39.0573665,10.954187 C38.9333543,10.7653793 38.7649565,10.5093311 38.5784922,10.2254516 C38.2216226,9.63988048 37.6818574,9.0169041 37.351307,8.58006361 C37.351307,8.58006361 37.2966613,8.50658892 37.1416461,8.33915566 C36.9806087,8.16838265 36.7314691,7.90365108 36.3592096,7.50844627 C36.1105161,7.24082024 36.0984717,7.25262072 36.0864274,7.2644212 C36.0984717,7.25262072 36.0984717,7.25262072 36.1105161,7.24082024 C35.8397413,6.99501398 35.3053291,6.49738988 35.027863,6.25915373 C35.0392383,6.24646265 35.0392383,6.24646265 35.0503904,6.23377157 C34.5066104,5.74616675 33.9119765,5.32023614 33.3260413,4.88495422 C33.3360783,4.87137253 33.3360783,4.87137253 33.3458922,4.85756819 C33.2000217,4.74713349 33.0563817,4.63870265 32.9444139,4.55409542 C32.8291004,4.48062072 32.7537117,4.42985639 32.7581726,4.42273157 C32.7675404,4.40870458 32.7675404,4.40870458 32.7771313,4.39445494 C32.473123,4.18872578 31.8298657,3.83560193 31.847263,3.80665735 L31.8298657,3.83560193 C31.216273,3.43193639 30.6385904,3.15718554 30.1035091,2.89779759 C29.5661974,2.64597976 29.092007,2.35764723 28.5709774,2.18553831 C27.8877952,1.93060337 27.1709335,1.61800193 26.4007643,1.38867181 C25.6234578,1.18472386 24.8171557,0.971201928 23.99814,0.773710843 C23.1766709,0.636780723 22.3424883,0.498069398 21.510313,0.359580723 C20.6796991,0.231333976 19.8415017,0.186135904 19.0338613,0.0995248193 C18.6745383,0.0621195181 18.3132078,0.0583344578 18.6694083,0.12936 C18.3114235,0.0843845783 17.9471935,0.0932906024 17.5874243,0.0725840964 C16.8656557,0.0456433735 17.2247557,0.109766747 16.5038791,0.0828260241 C13.6176965,0.0714708434 10.7205848,0.353346506 7.90733739,1.05848096 C6.50885478,1.43297928 5.11907087,1.86759325 3.79553087,2.47698795 C2.46485348,3.08816386 1.19662826,3.75299855 0.00245347826,4.72553639 C0.619614783,4.23036145 1.15201957,3.92288096 1.71052043,3.59536193 C2.26500652,3.27674892 2.83399043,2.99353735 3.48349304,2.66802217 C3.49085348,2.68316241 3.50512826,2.71366554 3.83724,2.5696106 C5.82299609,1.67522313 8.27714348,1.02597398 9.34819826,0.87613012 C9.70417565,0.81690506 10.0697439,0.82069012 11.1325461,0.642124337 L10.0686287,0.817127711 C10.0717513,0.833603855 10.0775504,0.866778795 10.0775504,0.866778795 C10.7868287,0.756789398 11.5826478,0.623421687 12.3880578,0.575106506 C12.789313,0.540373012 13.1905683,0.505862169 13.5808943,0.472241928 C13.9718896,0.464671807 14.3517326,0.457101687 14.7099404,0.450199518 C14.7099404,0.450199518 14.7108326,0.48404241 14.7115017,0.500741205 L15.4252409,0.479589398 C15.7821104,0.527904578 14.9800461,0.577110361 13.8688435,0.622976386 C12.7603174,0.71337253 11.3404226,0.843623133 10.4676535,1.02486072 C10.470553,1.04133687 10.4761291,1.07473446 10.4788057,1.09143325 L11.1800543,0.976100241 L11.1849613,1.00949783 C9.0765313,1.30495518 7.34861348,1.75315084 5.34969783,2.47921446 C5.68381696,2.35876048 6.34647913,2.10382554 6.69152739,2.01721446 C6.69665739,2.0332453 6.70178739,2.0494988 7.04081348,1.94819277 C5.67868696,2.33493687 4.01455957,2.97260819 2.78469783,3.67551614 C2.47890522,3.85274602 2.81547783,3.73095614 3.76943478,3.27919807 C4.2563387,3.07235566 4.65603261,2.88621976 5.06665565,2.72635663 C5.48129348,2.57673542 5.8959313,2.42689157 6.39376435,2.24698988 L6.40424739,2.27882892 C5.73846261,2.50838169 4.73878174,2.85593928 4.10667652,3.16965398 C3.79107,3.32484145 4.77290739,2.9365388 4.45707783,3.09172627 C4.13611826,3.2344453 3.80757522,3.36135614 3.50490522,3.54170313 C4.44904826,3.07769928 5.75162217,2.54422843 6.76758522,2.25856771 C7.10906478,2.17418313 7.45009826,2.08979855 7.45924304,2.12230554 C8.29565609,1.86380819 9.07563913,1.72287036 9.76216696,1.58905735 C10.4582857,1.49754795 11.0680865,1.42763566 11.5917926,1.38911711 C11.9448704,1.40336675 13.6792565,1.16090024 14.7329139,1.17492723" id="Fill-41" fill="#EDDF45" mask="url(#mask-2)"></path>
                </g>
                <polygon id="Fill-44" fill="#7D5DA7" points="65.7837003 20.9183046 66.4270563 20.969053 64.5908752 24.6479803 62.7621698 20.9694962 63.4086041 20.9183046 63.4086041 18.9759036 59.28 18.9759036 59.28 20.9116563 60.3903718 21.0124883 63.5185419 27.09299 63.5185419 29.8475872 62.3527615 29.9515217 62.3527615 31.8795181 66.8105193 31.8795181 66.8105193 29.9515217 65.6456184 29.8475872 65.6456184 27.1483922 68.8014928 21.0124883 69.92 20.9120995 69.92 18.9759036 65.7837003 18.9759036"></polygon>
                <polygon id="Fill-46" fill="#7D5DA7" points="76.9497593 29.7935146 73.2412318 29.7935146 73.2412318 26.2513199 77.5530338 26.2513199 77.5530338 24.1568953 73.2412318 24.1568953 73.2412318 21.0703282 76.9137628 21.0703282 76.9788676 22.8104003 79.0040035 22.8104003 79.0040035 18.9759036 69.92 18.9759036 69.92 20.9123211 71.0981074 21.0162557 71.0981074 29.8475872 69.92 29.9513001 69.92 31.8795181 79.04 31.8795181 79.04 28.0527777 77.014864 28.0527777"></polygon>
                <path d="M83.5258225,26.360573 L84.7513048,22.81173 L85.964683,26.360573 L83.5258225,26.360573 Z M83.0174506,29.9506352 L82.3055929,29.8901361 L82.7874728,28.494444 L86.6918421,28.494444 L87.1702963,29.8901361 L86.4566116,29.9506352 L86.4566116,31.8795181 L90.44,31.8795181 L90.44,29.9473111 L89.4570563,29.8693048 L85.6433536,18.9759036 L83.8617681,18.9759036 L80.0096977,29.8701913 L79.04,29.9484192 L79.04,31.8795181 L83.0174506,31.8795181 L83.0174506,29.9506352 Z" id="Fill-48" fill="#7D5DA7"></path>
                <path d="M93.6572549,24.4556878 L93.6572549,21.0714022 L95.295596,21.0714022 C95.9831007,21.0714022 96.4858641,21.2204154 96.7885987,21.5126765 C97.0848738,21.7998374 97.2291357,22.2142804 97.2291357,22.7795107 C97.2291357,23.3052702 97.0833666,23.7057432 96.7838617,24.0033262 C96.4800506,24.3035701 95.9467123,24.4556878 95.1976272,24.4556878 L93.6572549,24.4556878 Z M99.2983245,29.274004 L99.2983245,28.2113977 C99.2983245,27.3871683 99.1273635,26.6817947 98.789963,26.1156774 C98.6319208,25.8506911 98.4329687,25.6205189 98.1915992,25.4264912 C98.4004559,25.2377855 98.5834747,25.0213615 98.739579,24.779215 C99.120258,24.189371 99.312966,23.5194767 99.312966,22.787937 C99.312966,21.5749871 98.9477897,20.6217015 98.2282029,19.9555769 C97.5277793,19.3056397 96.540985,18.9759036 95.295596,18.9759036 L90.44,18.9759036 L90.44,20.9017666 L91.5813913,21.0135265 L91.5813913,29.8500998 L90.44,29.9618597 L90.44,31.8795181 L94.7977849,31.8795181 L94.7977849,29.9618597 L93.6572549,29.8500998 L93.6572549,26.5509646 L95.5830432,26.5509646 C96.1247788,26.5633824 96.5231138,26.7110651 96.8023789,27.0028827 C97.0792756,27.2933698 97.2144942,27.6940646 97.2144942,28.2275852 L97.2144942,29.2578165 C97.2144942,29.9148496 97.3376551,30.4887279 97.5805318,30.9619336 C97.8832664,31.5535516 98.4456723,31.8795181 99.1663357,31.8795181 L100.32,31.8795181 L100.32,29.9292631 L99.3807907,29.8614088 C99.3672257,29.836795 99.2983245,29.6946559 99.2983245,29.274004 L99.2983245,29.274004 Z" id="Fill-50" fill="#7D5DA7"></path>
                <path d="M110.548299,29.8227332 C109.690038,29.8227332 109.026875,29.4650314 108.522216,28.7288917 C107.975644,27.9316229 107.698847,26.8470696 107.698847,25.5052561 L107.698847,25.3419575 C107.698847,24.0092161 107.974793,22.9302789 108.519663,22.1336581 C109.021982,21.3977344 109.683656,21.0400326 110.542129,21.0400326 C111.421879,21.0400326 112.102062,21.3996784 112.620976,22.1397062 C113.178611,22.936111 113.461791,24.0133202 113.461791,25.3419575 L113.461791,25.5052561 C113.461791,26.8503096 113.181803,27.934863 112.63055,28.7291077 C112.118657,29.4650314 111.438048,29.8227332 110.548299,29.8227332 M110.542129,18.9759036 C109.072405,18.9759036 107.865436,19.5999376 106.952709,20.8313733 C106.08147,22.0085921 105.64,23.5314165 105.64,25.3575097 L105.64,25.5052561 C105.64,27.3330773 106.083172,28.8550377 106.95739,30.0285845 C107.870968,31.2565641 109.079001,31.8795181 110.548299,31.8795181 C112.034618,31.8795181 113.257757,31.2593721 114.182611,30.0367926 C115.069807,28.8647578 115.52,27.3399894 115.52,25.5052561 L115.52,25.3575097 C115.52,23.5288245 115.068956,22.0044881 114.179207,20.8264052 C113.251374,19.5984256 112.027384,18.9759036 110.542129,18.9759036" id="Fill-52" fill="#7D5DA7"></path>
                <polygon id="Fill-54" fill="#7D5DA7" points="116.28 20.9123211 117.450579 21.016034 117.450579 29.8475872 116.28 29.9513001 116.28 31.8795181 120.752599 31.8795181 120.752599 29.9513001 119.581798 29.8475872 119.581798 26.4345903 123.949206 26.4345903 123.949206 24.3328527 119.581798 24.3328527 119.581798 21.0701066 123.320934 21.0701066 123.385684 22.8104003 125.4 22.8104003 125.4 18.9759036 116.28 18.9759036"></polygon>
                <path d="M134.86915,29.8227332 C134.010038,29.8227332 133.346875,29.4650314 132.842216,28.7288917 C132.295644,27.9316229 132.01906,26.8470696 132.01906,25.5052561 L132.01906,25.3419575 C132.01906,24.0092161 132.294793,22.9302789 132.839663,22.1336581 C133.341982,21.3977344 134.003656,21.0400326 134.862129,21.0400326 C135.74273,21.0400326 136.4227,21.3996784 136.940976,22.1397062 C137.498611,22.936111 137.781791,24.0133202 137.781791,25.3419575 L137.781791,25.5052561 C137.781791,26.8503096 137.501803,27.934863 136.95055,28.7291077 C136.438657,29.4650314 135.758048,29.8227332 134.86915,29.8227332 M134.862129,18.9759036 C133.392618,18.9759036 132.185436,19.5999376 131.272709,20.8313733 C130.40147,22.0085921 129.96,23.5314165 129.96,25.3575097 L129.96,25.5052561 C129.96,27.3317813 130.403172,28.8537417 131.27739,30.0285845 C132.190968,31.2565641 133.399639,31.8795181 134.86915,31.8795181 C136.355469,31.8795181 137.577757,31.2593721 138.502611,30.0367926 C139.389807,28.8647578 139.84,27.3399894 139.84,25.5052561 L139.84,25.3575097 C139.84,23.5288245 139.388956,22.0044881 138.499207,20.8264052 C137.571374,19.5984256 136.347384,18.9759036 134.862129,18.9759036" id="Fill-56" fill="#7D5DA7"></path>
                <path d="M143.896588,21.0703282 L145.640192,21.0703282 C146.319718,21.0703282 146.799138,21.2407454 147.104484,21.5902224 C147.432775,21.9665141 147.592287,22.4356599 147.592287,23.024696 C147.592287,23.6070839 147.432775,24.0695814 147.104484,24.4392249 C146.796049,24.7867074 146.317292,24.9553517 145.640192,24.9553517 L143.896588,24.9553517 L143.896588,21.0703282 Z M145.640192,18.9759036 L140.6,18.9759036 L140.6,20.9125427 L141.768654,21.0162557 L141.768654,29.8475872 L140.6,29.9515217 L140.6,31.8795181 L145.065462,31.8795181 L145.065462,29.9515217 L143.896588,29.8475872 L143.896588,27.0495547 L145.640192,27.0495547 C146.907686,27.0495547 147.916606,26.6730414 148.63739,25.930652 C149.355747,25.1924731 149.72,24.2096382 149.72,23.0089618 C149.72,21.8189227 149.355747,20.8398551 148.639155,20.1005682 C147.917489,19.3541898 146.908568,18.9759036 145.640192,18.9759036 L145.640192,18.9759036 Z" id="Fill-58" fill="#7D5DA7"></path>
                <polygon id="Fill-60" fill="#7D5DA7" points="156.74882 29.7935146 153.040202 29.7935146 153.040202 26.2513199 157.352109 26.2513199 157.352109 24.1568953 153.040202 24.1568953 153.040202 21.0703282 156.713933 21.0703282 156.778151 22.8104003 158.803336 22.8104003 158.803336 18.9759036 149.72 18.9759036 149.72 20.9123211 150.897247 21.0162557 150.897247 29.8475872 149.72 29.9513001 149.72 31.8795181 158.84 31.8795181 158.84 28.0527777 156.815037 28.0527777"></polygon>
                <g id="Group-64" transform="translate(159.600000, 18.216867)">
                    <mask id="mask-4" fill="white">
                        <use xlink:href="#path-3"></use>
                    </mask>
                    <g id="Clip-63"></g>
                    <polygon id="Fill-62" fill="#7D5DA7" mask="url(#mask-4)" points="6.87235019 0.185898072 6.87235019 2.06509446 8.01278038 2.16595771 8.01278038 8.30958361 3.16175774 0.185898072 0.209803019 0.185898072 0.209803019 2.06509446 1.34937283 2.16595771 1.34937283 10.7363234 0.209803019 10.8369716 0.209803019 12.7082107 4.57062566 12.7082107 4.57062566 10.8369716 3.43019547 10.7363234 3.43019547 4.57140651 8.28121811 12.7082107 10.0869351 12.7082107 10.0869351 2.16595771 11.2258596 2.06509446 11.2258596 0.185898072"></polygon>
                </g>
                <path d="M66.9579316,42.2360468 L62.882521,42.2360468 L62.8667352,42.2031636 L65.8860519,39.4168894 C66.5583946,38.8021623 67.0802162,38.2299529 67.4508495,37.7002613 C67.8214829,37.1701508 68.0062437,36.6398308 68.0062437,36.1101392 C68.0062437,35.3213616 67.70031,34.6724946 67.0877756,34.1620721 C66.4759082,33.6524874 65.6523773,33.3975904 64.6169606,33.3975904 C63.4083446,33.3975904 62.4638632,33.6824384 61.7832941,34.2527627 C61.1025026,34.8226682 60.7752247,35.5266197 60.8014603,36.3639891 L60.8172461,36.4042029 L62.3071166,36.4042029 C62.3071166,35.7758617 62.4941008,35.2903634 62.8667352,34.9477081 C63.2398142,34.6042149 63.8234451,34.4328872 64.6169606,34.4328872 C65.1681305,34.4328872 65.6123569,34.5985598 65.9494176,34.9307428 C66.2855889,35.2622975 66.4532299,35.6709287 66.4532299,36.1568459 C66.4532299,36.5487214 66.3336134,36.9320095 66.0950474,37.305663 C65.8558143,37.6799449 65.4000264,38.1857596 64.7270167,38.8224787 L60.9671003,42.3629718 L60.9671003,43.2650602 L68.4,43.2650602 L68.4,41.1209507 L67.0842182,41.1209507 L66.9579316,42.2360468 Z" id="Fill-65" fill="#7D5DA7"></path>
                <path d="M75.9047254,40.2215134 C75.9047254,41.1201763 75.7201887,41.7962306 75.3513464,42.2507882 C74.9825042,42.7044562 74.4404564,42.9315126 73.7238156,42.9315126 C73.0189685,42.9315126 72.4785395,42.7031219 72.1009098,42.24723 C71.7239738,41.790671 71.5350434,41.1155062 71.5350434,40.2215134 L71.5350434,37.1923899 C71.5350434,36.2990642 71.7209676,35.6261233 72.0930473,35.1749015 C72.4646645,34.7230126 73.0023186,34.4970681 73.7083219,34.4970681 C74.4240377,34.4970681 74.9688605,34.7230126 75.3434839,35.1749015 C75.7174137,35.6261233 75.9047254,36.2990642 75.9047254,37.1923899 L75.9047254,40.2215134 Z M73.7083219,33.3975904 C72.5382017,33.3975904 71.614593,33.7511845 70.9368021,34.4583729 C70.2587799,35.1653389 69.92,36.1760845 69.92,37.4908322 L69.92,39.9381933 C69.92,41.2529409 70.2617861,42.2625747 70.9453583,42.9673168 C71.6282367,43.6713917 72.5550829,44.0240964 73.7238156,44.0240964 C74.8994858,44.0240964 75.825407,43.6729484 76.5031979,42.9706526 C77.1812201,42.2679119 77.52,41.2569439 77.52,39.9381933 L77.52,37.4908322 C77.52,36.1760845 77.1782139,35.1653389 76.4955667,34.4583729 C75.8117633,33.7511845 74.8828358,33.3975904 73.7083219,33.3975904 L73.7083219,33.3975904 Z" id="Fill-67" fill="#7D5DA7"></path>
                <polygon id="Fill-69" fill="#7D5DA7" points="83.2869502 34.1566265 79.8 34.7800096 79.8 35.6137366 81.6746051 35.5867531 81.6746051 42.9802378 79.8325516 43.1701848 79.8325516 44.0240964 85.12 44.0240964 85.12 43.1701848 83.2869502 42.9802378"></polygon>
                <path d="M92.0492333,42.428219 C91.6370215,42.763807 91.1021195,42.9314897 90.4440746,42.9314897 C89.7701841,42.9314897 89.2305284,42.7651413 88.8266921,42.4315549 C88.4226294,42.0981909 88.2213904,41.6378417 88.2213904,41.0516192 C88.2213904,40.4791849 88.4255722,40.0123863 88.8350676,39.6507787 C89.243884,39.2889486 89.7751641,39.1081448 90.428229,39.1081448 C91.0747293,39.1081448 91.6105367,39.2905053 92.0331614,39.6541145 C92.455786,40.0186133 92.6672115,40.4840775 92.6672115,41.0516192 C92.6672115,41.6331714 92.4607661,42.0917416 92.0492333,42.428219 M88.5502996,36.2702141 C88.5502996,35.7358086 88.7223375,35.3068165 89.0675451,34.9827929 C89.4127527,34.6589917 89.8659367,34.4968688 90.428229,34.4968688 C90.9789766,34.4968688 91.4353297,34.6645515 91.7966093,35.0008066 C92.1576625,35.3361721 92.3383023,35.7600493 92.3383023,36.2702141 C92.3383023,36.7955014 92.1612843,37.2162651 91.8086067,37.5333946 C91.4550235,37.8496345 91.0007077,38.008644 90.4440746,38.008644 C89.8765759,38.008644 89.4195437,37.8496345 89.0718461,37.5333946 C88.7239221,37.2162651 88.5502996,36.7955014 88.5502996,36.2702141 M92.016863,38.5612855 C92.6002073,38.3635799 93.0626723,38.061573 93.4056163,37.6572663 C93.7481075,37.2529596 93.9187872,36.781046 93.9187872,36.2421928 C93.9187872,35.334393 93.5939525,34.6327496 92.943604,34.1388193 C92.2934819,33.6446667 91.4550235,33.3975904 90.428229,33.3975904 C89.3901162,33.3975904 88.5539215,33.6446667 87.9203241,34.1388193 C87.2860475,34.6327496 86.9691356,35.334393 86.9691356,36.2421928 C86.9691356,36.781046 87.1350617,37.2529596 87.4666873,37.6572663 C87.7985393,38.061573 88.2553452,38.3635799 88.8384631,38.5612855 C88.1645726,38.7698882 87.6298969,39.0965804 87.2337571,39.5406951 C86.8380699,39.9856994 86.64,40.4985329 86.64,41.0803076 C86.64,42.0352543 86.9881504,42.7651413 87.6828665,43.268412 C88.3787145,43.7716827 89.2993435,44.0240964 90.4440746,44.0240964 C91.5677536,44.0240964 92.481139,43.7716827 93.1846834,43.268412 C93.8880014,42.7651413 94.24,42.0352543 94.24,41.0803076 C94.24,40.4985329 94.0376291,39.9856994 93.6337928,39.5406951 C93.2299565,39.0965804 92.6912063,38.7698882 92.016863,38.5612855" id="Fill-71" fill="#7D5DA7"></path>
            </g>
        </g>
    </g>
</svg>