<svg width="207" height="64" viewBox="0 0 207 64" fill="none" xmlns="http://www.w3.org/2000/svg">
<path fill-rule="evenodd" clip-rule="evenodd" d="M136.315 18.4931V18.5267C136.315 20.0463 137.328 21.0539 138.528 21.0539C139.728 21.0539 140.725 20.0463 140.725 18.5267V18.4931C140.725 16.9743 139.728 15.9667 138.528 15.9667C137.328 15.9667 136.315 16.9571 136.315 18.4931ZM143.26 21.8895C143.26 22.6071 142.685 23.1871 141.976 23.1871C141.266 23.1871 140.691 22.6071 140.691 21.8895V21.7707C140.066 22.6235 139.205 23.2551 137.869 23.2551C135.757 23.2551 133.745 21.5823 133.745 18.5267V18.4931C133.745 15.4375 135.723 13.7647 137.869 13.7647C139.238 13.7647 140.083 14.3963 140.691 15.1303V11.8183C140.691 11.1023 141.266 10.5215 141.976 10.5215C142.685 10.5215 143.26 11.1023 143.26 11.8183V21.8895ZM81.8693 17.1451V17.1107C81.8693 15.0619 80.3811 13.3547 78.2854 13.3547C76.1906 13.3547 74.7365 15.0275 74.7365 17.0763V17.1107C74.7365 19.1587 76.2238 20.8659 78.3195 20.8659C80.4151 20.8659 81.8693 19.1923 81.8693 17.1451ZM72.0161 17.1451V17.1107C72.0161 13.7143 74.6689 10.9307 78.3193 10.9307C81.9696 10.9307 84.5892 13.6799 84.5892 17.0763V17.1107C84.5892 20.5071 81.9356 23.2899 78.2852 23.2899C74.6349 23.2899 72.0161 20.5415 72.0161 17.1451ZM93.4132 18.5267V18.4931C93.4132 16.9735 92.3995 15.9667 91.2 15.9667C89.9997 15.9667 89.003 16.9735 89.003 18.4931V18.5267C89.003 20.0455 89.9997 21.0539 91.2 21.0539C92.3995 21.0539 93.4132 20.0635 93.4132 18.5267ZM86.4685 15.1303C86.4685 14.4135 87.0427 13.8335 87.7523 13.8335C88.4628 13.8335 89.0361 14.4135 89.0361 15.1303V15.2491C89.6622 14.3963 90.5235 13.7647 91.8593 13.7647C93.9711 13.7647 95.9824 15.4375 95.9824 18.4931V18.5267C95.9824 21.5823 94.0052 23.2551 91.8593 23.2551C90.4903 23.2551 89.6452 22.6235 89.0361 21.8895V24.6216C89.0361 25.3384 88.4628 25.9183 87.7523 25.9183C87.0427 25.9183 86.4685 25.3384 86.4685 24.6216V15.1303ZM101.748 15.8475C102.829 15.8475 103.505 16.6323 103.657 17.7931H99.7866C99.9902 16.6151 100.682 15.8475 101.748 15.8475ZM97.2684 18.5607C97.2684 21.3607 99.2806 23.2899 102.001 23.2899C103.319 23.2899 104.349 22.8631 105.144 22.1799C105.33 22.0095 105.482 21.7539 105.482 21.4123C105.482 20.8315 105.059 20.3883 104.485 20.3883C104.214 20.3883 104.045 20.4563 103.859 20.5923C103.336 20.9847 102.744 21.2075 102.034 21.2075C100.886 21.2075 100.074 20.5923 99.8207 19.4143H104.907C105.583 19.4143 106.107 18.9195 106.107 18.1691C106.107 16.2743 104.772 13.7643 101.748 13.7643C99.1111 13.7643 97.2684 15.9147 97.2684 18.5271V18.5607ZM107.9 15.1299C107.9 14.4139 108.475 13.8331 109.185 13.8331C109.895 13.8331 110.47 14.4139 110.47 15.1299V15.2331C111.06 14.4647 111.822 13.7643 113.122 13.7643C115.066 13.7643 116.198 15.0619 116.198 17.1607V21.8899C116.198 22.6075 115.623 23.1875 114.914 23.1875C114.204 23.1875 113.629 22.6075 113.629 21.8899V17.9799C113.629 16.7511 113.054 16.1203 112.075 16.1203C111.094 16.1203 110.47 16.7511 110.47 17.9799V21.8899C110.47 22.6075 109.895 23.1875 109.185 23.1875C108.475 23.1875 107.9 22.6075 107.9 21.8899V15.1299ZM123.434 12.4499V21.7708C123.434 22.5048 124.008 23.0848 124.735 23.0848H131.377C132.019 23.0848 132.542 22.5728 132.542 21.9239C132.542 21.276 132.019 20.7459 131.377 20.7459H126.019V18.2375H130.532C131.174 18.2375 131.697 17.7255 131.697 17.0767C131.697 16.4279 131.174 15.8987 130.532 15.8987H126.019V13.4739H131.292C131.934 13.4739 132.459 12.9619 132.459 12.3139C132.459 11.6651 131.934 11.1367 131.292 11.1367H124.735C124.008 11.1367 123.434 11.7167 123.434 12.4499ZM152.336 23.1875C153.047 23.1875 153.622 22.6075 153.622 21.8899V15.1299C153.622 14.4139 153.047 13.8331 152.336 13.8331C151.627 13.8331 151.053 14.4139 151.053 15.1299V19.0399C151.053 20.2687 150.427 20.9003 149.448 20.9003C148.467 20.9003 147.893 20.2687 147.893 19.0399V15.1299C147.893 14.4139 147.318 13.8331 146.608 13.8331C145.899 13.8331 145.324 14.4139 145.324 15.1299V19.8591C145.324 21.9579 146.456 23.2555 148.4 23.2555C149.701 23.2555 150.461 22.5559 151.053 21.7883V21.8899C151.053 22.6075 151.627 23.1875 152.336 23.1875ZM155.314 18.5611V18.5267C155.314 15.9151 157.291 13.7647 160.062 13.7647C161.432 13.7647 162.394 14.1407 163.155 14.7895C163.325 14.9263 163.561 15.2335 163.561 15.6767C163.561 16.3255 163.037 16.8375 162.394 16.8375C162.056 16.8375 161.803 16.7007 161.651 16.5811C161.195 16.2231 160.722 16.0011 160.046 16.0011C158.761 16.0011 157.849 17.1447 157.849 18.4931V18.5267C157.849 19.9267 158.743 21.0539 160.147 21.0539C160.823 21.0539 161.347 20.8147 161.837 20.4223C161.973 20.3191 162.226 20.1823 162.529 20.1823C163.138 20.1823 163.611 20.6787 163.611 21.2923C163.611 21.6339 163.459 21.9075 163.24 22.1123C162.48 22.8111 161.515 23.2895 160.029 23.2895C157.308 23.2895 155.314 21.1727 155.314 18.5611ZM170.593 19.3983V19.8587C170.593 20.7975 169.781 21.4635 168.582 21.4635C167.754 21.4635 167.179 21.0539 167.179 20.3535V20.3191C167.179 19.5007 167.855 19.0567 168.954 19.0567C169.578 19.0567 170.153 19.1927 170.593 19.3983ZM164.695 20.4223V20.4559C164.695 22.2655 166.098 23.2551 167.805 23.2551C169.055 23.2551 169.917 22.7947 170.542 22.0943V22.1123C170.542 22.6579 171.033 23.1871 171.775 23.1871C172.469 23.1871 173.026 22.6407 173.026 21.9411V17.7763C173.026 16.5475 172.722 15.5399 172.046 14.8575C171.404 14.2087 170.389 13.8335 168.988 13.8335C167.788 13.8335 166.909 14.0039 166.098 14.3111C165.691 14.4643 165.405 14.8575 165.405 15.3179C165.405 15.9151 165.878 16.3763 166.469 16.3763C166.587 16.3763 166.69 16.3591 166.841 16.3083C167.331 16.1551 167.906 16.0527 168.616 16.0527C169.9 16.0527 170.559 16.6491 170.559 17.7255V17.8787C169.917 17.6567 169.258 17.5027 168.346 17.5027C166.198 17.5027 164.695 18.4243 164.695 20.4223ZM175.411 20.4907V16.1547H175.326C174.718 16.1547 174.228 15.6599 174.228 15.0455C174.228 14.4303 174.718 13.9355 175.326 13.9355H175.411V12.7919C175.411 12.0751 175.986 11.4943 176.695 11.4943C177.406 11.4943 177.98 12.0751 177.98 12.7919V13.9355H179.112C179.72 13.9355 180.211 14.4303 180.211 15.0455C180.211 15.6599 179.72 16.1547 179.112 16.1547H177.98V20.0639C177.98 20.6611 178.233 20.9511 178.807 20.9511C178.856 20.9511 178.93 20.9459 178.995 20.9414C179.045 20.9379 179.09 20.9347 179.112 20.9347C179.686 20.9347 180.177 21.4123 180.177 22.0095C180.177 22.4699 179.873 22.8459 179.518 22.9827C179.044 23.1703 178.605 23.2383 178.047 23.2383C176.475 23.2383 175.411 22.6076 175.411 20.4907ZM183.236 13.8331C182.527 13.8331 181.952 14.4139 181.952 15.1299V21.8899C181.952 22.6075 182.527 23.1875 183.236 23.1875C183.947 23.1875 184.522 22.6075 184.522 21.8899V15.1299C184.522 14.4139 183.947 13.8331 183.236 13.8331ZM183.236 10.5391C182.425 10.5391 181.801 10.9987 181.801 11.7499V11.7843C181.801 12.5355 182.425 13.0139 183.236 13.0139C184.048 13.0139 184.673 12.5355 184.673 11.7843V11.7499C184.673 10.9987 184.048 10.5391 183.236 10.5391ZM193.597 18.5611V18.5267C193.597 17.1791 192.635 16.0011 191.215 16.0011C189.744 16.0011 188.865 17.1447 188.865 18.4931V18.5267C188.865 19.8759 189.829 21.054 191.249 21.054C192.719 21.054 193.597 19.9095 193.597 18.5611ZM186.33 18.5611V18.5267C186.33 15.8987 188.426 13.7647 191.249 13.7647C194.053 13.7647 196.132 15.8643 196.132 18.4931V18.5267C196.132 21.1563 194.037 23.2895 191.214 23.2895C188.409 23.2895 186.33 21.1899 186.33 18.5611ZM199.475 13.8331C198.766 13.8331 198.191 14.4139 198.191 15.1299V21.8899C198.191 22.6075 198.766 23.1875 199.475 23.1875C200.183 23.1875 200.758 22.6075 200.758 21.8899V17.9799C200.758 16.7511 201.384 16.1203 202.364 16.1203C203.344 16.1203 203.918 16.7511 203.918 17.9799V21.8899C203.918 22.6075 204.493 23.1875 205.203 23.1875C205.913 23.1875 206.488 22.6075 206.488 21.8899V17.1607C206.488 15.0619 205.355 13.7643 203.411 13.7643C202.11 13.7643 201.35 14.4647 200.758 15.2331V15.1299C200.758 14.4139 200.183 13.8331 199.475 13.8331Z" fill="#333333"/>
<path fill-rule="evenodd" clip-rule="evenodd" d="M72.0204 33.501C72.0204 33.7779 72.1121 34.1162 72.2037 34.394L78.1752 51.3203C78.6018 52.5204 79.4849 53.2593 80.6123 53.2593H81.1005C82.2262 53.2593 83.0801 52.5507 83.5067 51.3203L87.711 38.979L91.9161 51.3203C92.3427 52.5507 93.1959 53.2593 94.3223 53.2593H94.8106C95.9379 53.2593 96.8211 52.5204 97.2476 51.3203L103.219 34.394C103.311 34.1162 103.402 33.7468 103.402 33.4707C103.402 32.178 102.366 31.1933 101.086 31.1933C99.9288 31.1933 99.1365 31.9617 98.8315 32.885L94.5973 46.088L90.3314 33.0087C89.9656 31.87 89.1432 31.1319 87.9551 31.1319H87.5894C86.4012 31.1319 85.5781 31.9003 85.2123 33.0087L80.9472 46.088L76.7129 32.885C76.408 31.9003 75.524 31.1933 74.4267 31.1933C73.1177 31.1933 72.0204 32.178 72.0204 33.501ZM108.533 33.7466V50.55C108.533 51.8738 109.568 52.9207 110.88 52.9207H122.853C124.011 52.9207 124.956 51.9975 124.956 50.8277C124.956 49.6579 124.011 48.7035 122.853 48.7035H113.195V44.1807H121.329C122.487 44.1807 123.432 43.2575 123.432 42.0876C123.432 40.9178 122.487 39.9635 121.329 39.9635H113.195V35.5938H122.701C123.858 35.5938 124.803 34.6706 124.803 33.5008C124.803 32.3318 123.858 31.3782 122.701 31.3782H110.88C109.568 31.3782 108.533 32.4244 108.533 33.7466ZM130.478 50.55V33.7466C130.478 32.4244 131.513 31.3782 132.825 31.3782H144.646C145.803 31.3782 146.748 32.3318 146.748 33.5008C146.748 34.6706 145.803 35.5938 144.646 35.5938H135.14V39.9635H143.274C144.433 39.9635 145.377 40.9178 145.377 42.0876C145.377 43.2575 144.433 44.1807 143.274 44.1807H135.14V48.7035H144.798C145.956 48.7035 146.9 49.6579 146.9 50.8277C146.9 51.9975 145.956 52.9207 144.798 52.9207H132.825C131.513 52.9207 130.478 51.8738 130.478 50.55ZM154.769 31.1928C153.459 31.1928 152.423 32.2397 152.423 33.5627V50.7348C152.423 52.0586 153.459 53.1047 154.769 53.1047C156.08 53.1047 157.115 52.0586 157.115 50.7348V46.4266L159.797 43.9026L165.89 51.9668C166.407 52.6435 166.956 53.1047 167.871 53.1047C169.241 53.1047 170.247 52.12 170.247 50.7962C170.247 50.0892 169.972 49.5961 169.607 49.1349L163.055 40.8249L169.058 35.1626C169.577 34.6711 169.911 34.1165 169.911 33.3776C169.911 32.2086 169.058 31.1928 167.749 31.1928C166.925 31.1928 166.346 31.5319 165.768 32.116L157.115 40.7946V33.5627C157.115 32.2397 156.08 31.1928 154.769 31.1928Z" fill="#333333"/>
<rect x="1.27985" y="1.28" width="61.44" height="61.44" rx="1.7" fill="white" fill-opacity="0.01"/>
<mask id="mask0" mask-type="alpha" maskUnits="userSpaceOnUse" x="1" y="1" width="62" height="62">
<rect x="1.27985" y="1.28" width="61.44" height="61.44" rx="1.7" fill="white"/>
</mask>
<g mask="url(#mask0)">
<rect x="1.27985" y="1.28" width="61.44" height="61.44" rx="1.7" fill="#F2F2F2"/>
<rect x="1.27985" y="52.48" width="61.44" height="10.24" fill="#664BDA"/>
<path fill-rule="evenodd" clip-rule="evenodd" d="M9.23945 46.7474C14.6294 55.448 24.5165 60.5171 34.9088 59.6411C49.1402 58.4463 60.0807 46.5631 60.0771 32.3042V30.9175C60.0753 30.8534 60.0284 30.7996 59.9651 30.7889L59.9221 30.7826C59.8745 30.7426 59.8167 30.7134 59.7522 30.6994L57.8033 30.4087L55.2383 29.9446H55.2047C54.6446 29.8495 54.0846 29.7601 53.5246 29.6762L52.0573 29.4693C49.6603 29.1171 47.2801 28.8263 44.9727 28.6138H44.8943L43.8358 28.5244L43.3766 28.4852C39.7083 28.1889 36.0008 28.0323 32.3494 28.0323C29.7788 28.0323 27.1914 28.1106 24.6432 28.256C23.5984 28.3184 22.5547 28.3932 21.5122 28.4802C21.704 26.3343 22.058 24.2679 22.5619 22.3296C23.339 22.2701 24.1167 22.2177 24.8951 22.1724C27.3592 22.027 29.8682 21.9543 32.3548 21.9543C33.4749 21.9543 36.3535 22.0103 37.8768 22.0438C38.1296 22.0481 38.3436 21.8587 38.3697 21.6077L38.8401 17.4588C38.8464 17.411 38.8325 17.3627 38.8017 17.3256C38.7709 17.2884 38.7259 17.2658 38.6777 17.2631C36.5719 17.1624 34.4494 17.1121 32.3548 17.1121C29.7786 17.1121 27.1688 17.1904 24.6094 17.3358C24.5129 17.3415 24.4163 17.3472 24.3198 17.3531C24.5581 16.8382 24.8098 16.3399 25.0744 15.8596C27.0263 12.3183 29.428 10.2262 31.9082 9.87818C31.9983 9.87545 32.0885 9.87326 32.1788 9.87161C39.8547 9.73122 47.0724 13.5086 51.3236 19.8911C51.3651 19.9581 51.432 20.0055 51.5091 20.0223C51.5861 20.0392 51.6667 20.0241 51.7325 19.9805L55.4512 17.5818C55.585 17.4938 55.6247 17.3155 55.5408 17.1792C53.0995 13.5059 49.8116 10.4706 45.9528 8.32787C35.2278 2.38135 21.8541 4.25233 13.1792 12.9129C11.2582 14.8297 9.66778 16.9805 8.42217 19.2852C4.75947 19.9552 1.12413 20.7783 -2.47419 21.7531C-2.49738 21.7589 -2.51662 21.775 -2.52644 21.7968C-2.53626 21.8186 -2.53558 21.8437 -2.52459 21.8649L-0.379629 26.1256C-0.358021 26.1658 -0.312064 26.1864 -0.267621 26.1759C1.88291 25.6097 4.04683 25.0999 6.22191 24.6468C5.63152 26.6735 5.27669 28.7627 5.16511 30.8712C2.58359 31.4139 0.0173883 32.0335 -2.53006 32.7292L-3.28611 32.936C-5.15106 33.4616 -7.0104 34.0208 -8.82493 34.6135C-8.86214 34.628 -8.89138 34.6577 -8.90529 34.695C-8.91919 34.7324 -8.91645 34.774 -8.89774 34.8092L-6.60716 38.8071C-6.55782 38.8994 -6.44853 38.9421 -6.34955 38.9078C-2.49592 37.6892 1.40827 36.6543 5.34977 35.8053C5.62875 37.9765 6.17104 40.1326 6.98498 42.2266C3.81542 42.8502 0.667771 43.5895 -2.45158 44.4433C-2.49251 44.4569 -2.52571 44.4872 -2.54282 44.5267C-2.55994 44.5662 -2.55934 44.6112 -2.54118 44.6502L-0.49143 48.7935C-0.451314 48.8771 -0.356675 48.9196 -0.267413 48.8942C2.87498 48.058 6.04625 47.3421 9.23945 46.7474ZM14.702 45.8514C15.3153 46.6585 15.9871 47.4292 16.7157 48.1571C18.0561 49.4962 19.542 50.6437 21.1323 51.588C21.0301 51.4122 20.9291 51.2337 20.8293 51.0525C19.8742 49.3361 19.0684 47.4279 18.421 45.3788C17.1789 45.5182 15.9391 45.6758 14.702 45.8514ZM12.0381 41.3334C13.7698 41.0616 15.5069 40.8241 17.2484 40.621C16.854 38.4641 16.6144 36.2107 16.538 33.907C14.4424 34.1681 12.3536 34.4808 10.2735 34.8447C10.5329 37.084 11.1282 39.2719 12.0381 41.3334ZM10.2488 29.905C12.3664 29.545 14.4927 29.2361 16.6257 28.9787C16.7729 26.8599 17.0606 24.7951 17.4808 22.8205C15.5956 23.0407 13.7158 23.3027 11.8428 23.6063C11.3816 24.7051 11.0152 25.8435 10.7486 27.0091C10.5173 27.9699 10.3512 28.9371 10.2488 29.905ZM15.0682 18.2418C16.346 18.0741 17.6264 17.9248 18.909 17.794C19.4605 16.2762 20.1023 14.8468 20.8293 13.528C20.9271 13.3505 21.0262 13.1755 21.1264 13.0032C18.8284 14.362 16.7711 16.1299 15.0682 18.2418ZM44.1828 51.5432C44.2241 51.5177 44.2652 51.4921 44.3063 51.4663C46.7644 49.9633 48.8694 48.0306 50.5483 45.7983C49.3252 45.6293 48.0999 45.4779 46.8729 45.344C46.2248 47.397 45.4197 49.3107 44.4687 51.0357C44.3745 51.2073 44.2792 51.3765 44.1828 51.5432ZM53.1802 41.2913C54.0739 39.2473 54.666 37.0637 54.9192 34.8071C54.7094 34.7705 54.4965 34.7339 54.2806 34.6974L52.6565 34.5128C51.8948 34.3898 51.094 34.2724 50.1195 34.1382C49.6331 34.0702 49.1806 34.0097 48.7574 33.9557C48.6779 36.2366 48.4368 38.4664 48.0441 40.6018C49.7599 40.7986 51.4723 41.0285 53.1802 41.2913ZM43.927 33.4396C43.8661 35.7596 43.6231 38.0101 43.2094 40.1353C39.7225 39.8623 36.2249 39.725 32.7247 39.7241C30.0197 39.7241 27.2867 39.8024 24.5929 39.9701C23.7557 40.021 22.9193 40.0797 22.0837 40.1464C21.6647 38.0018 21.4186 35.7326 21.3589 33.3983C25.0374 33.0801 28.7323 32.9198 32.4334 32.9193C36.2708 32.9237 40.1057 33.0974 43.927 33.4396ZM25.0632 48.7041C24.4229 47.542 23.8594 46.2735 23.3772 44.9193C23.8792 44.8826 24.3815 44.8488 24.8841 44.818C27.4827 44.6614 30.1205 44.5775 32.7247 44.5775C35.7934 44.5761 38.8601 44.6834 41.919 44.8991C41.4325 46.2621 40.8622 47.5374 40.2124 48.7041C38.0674 52.5958 35.3736 54.7429 32.635 54.7429C29.8964 54.7429 27.2082 52.6181 25.0632 48.7041Z" fill="#0D59F2"/>
</g>
</svg>
