<svg width="184" height="166" viewBox="0 0 184 166" fill="none" xmlns="http://www.w3.org/2000/svg">
<path fill-rule="evenodd" clip-rule="evenodd" d="M56.2038 73.3354C64.5565 86.7909 79.8785 94.6302 95.9834 93.2754C118.038 91.4277 134.992 73.0505 134.987 50.9992V48.8547C134.984 48.7556 134.911 48.6723 134.813 48.6558L134.746 48.6461C134.673 48.5842 134.583 48.539 134.483 48.5175L131.463 48.0678L127.488 47.3501H127.436C126.568 47.2031 125.7 47.0647 124.832 46.935L122.558 46.6151C118.844 46.0703 115.155 45.6207 111.579 45.2921H111.458L109.818 45.1537L109.106 45.0932C103.421 44.6349 97.6758 44.3927 92.0172 44.3927C88.0335 44.3927 84.0239 44.5138 80.0749 44.7386C78.4558 44.8352 76.8384 44.9508 75.2229 45.0854C75.5201 41.7669 76.0687 38.5711 76.8497 35.5736C78.0539 35.4816 79.2592 35.4005 80.4655 35.3305C84.2842 35.1057 88.1724 34.9932 92.0258 34.9932C93.7616 34.9932 98.2226 35.0797 100.583 35.1316C100.975 35.1382 101.307 34.8453 101.347 34.4571L102.076 28.0409C102.086 27.9669 102.064 27.8923 102.016 27.8349C101.969 27.7774 101.899 27.7424 101.824 27.7382C98.561 27.5826 95.2717 27.5048 92.0258 27.5048C88.0335 27.5048 83.9891 27.6258 80.0228 27.8507C79.8731 27.8595 79.7235 27.8684 79.5738 27.8775C79.9431 27.0812 80.3331 26.3105 80.7432 25.5678C83.768 20.0912 87.4898 16.8558 91.3333 16.3176C91.473 16.3133 91.6128 16.31 91.7528 16.3074C103.648 16.0903 114.833 21.932 121.421 31.8024C121.486 31.9061 121.589 31.9793 121.709 32.0054C121.828 32.0315 121.953 32.0081 122.055 31.9408L127.818 28.2311C128.025 28.095 128.087 27.8194 127.957 27.6085C124.173 21.9278 119.078 17.2337 113.098 13.92C96.4778 4.72378 75.7527 7.61723 62.3092 21.0107C59.3322 23.975 56.8675 27.3013 54.9372 30.8656C49.2613 31.9016 43.6277 33.1745 38.0515 34.6819C38.0156 34.691 37.9858 34.7159 37.9706 34.7496C37.9553 34.7833 37.9564 34.8221 37.9734 34.8549L41.2974 41.4441C41.3309 41.5062 41.4022 41.5381 41.471 41.5219C44.8036 40.6463 48.1569 39.8579 51.5275 39.1572C50.6126 42.2914 50.0627 45.5224 49.8898 48.7831C45.8893 49.6225 41.9125 50.5805 37.9648 51.6564L36.7931 51.9763C33.903 52.7892 31.0216 53.6539 28.2096 54.5705C28.152 54.5929 28.1067 54.6388 28.0851 54.6966C28.0636 54.7544 28.0678 54.8187 28.0968 54.8732L31.6465 61.0559C31.723 61.1986 31.8923 61.2647 32.0457 61.2116C38.0176 59.327 44.0679 57.7267 50.176 56.4136C50.6083 59.7714 51.4487 63.1058 52.7101 66.3441C47.7982 67.3085 42.9203 68.4518 38.0863 69.7723C38.0228 69.7932 37.9714 69.8401 37.9449 69.9012C37.9184 69.9624 37.9193 70.0318 37.9474 70.0922L41.1239 76.4998C41.1861 76.6291 41.3327 76.6948 41.4711 76.6555C46.3408 75.3624 51.2553 74.2551 56.2038 73.3354ZM64.669 71.9499C65.6194 73.198 66.6606 74.3899 67.7897 75.5156C69.867 77.5865 72.1696 79.3611 74.6342 80.8215C74.4758 80.5496 74.3192 80.2735 74.1646 79.9933C72.6845 77.3389 71.4357 74.3878 70.4325 71.2189C68.5076 71.4346 66.5863 71.6783 64.669 71.9499ZM60.5409 64.9627C63.2245 64.5424 65.9165 64.1751 68.6154 63.861C68.0041 60.5254 67.6328 57.0406 67.5145 53.4779C64.2668 53.8818 61.0298 54.3653 57.8063 54.9281C58.2083 58.3911 59.1308 61.7748 60.5409 64.9627ZM57.768 47.2889C61.0497 46.7321 64.3447 46.2544 67.6503 45.8564C67.8784 42.5797 68.3243 39.3865 68.9754 36.3328C66.054 36.6733 63.1408 37.0785 60.2381 37.5481C59.5234 39.2474 58.9556 41.0077 58.5425 42.8103C58.184 44.2962 57.9267 45.7921 57.768 47.2889ZM65.2365 29.2519C67.2168 28.9925 69.201 28.7616 71.1887 28.5593C72.0434 26.212 73.038 24.0014 74.1646 21.9619C74.3162 21.6874 74.4697 21.4168 74.625 21.1503C71.0637 23.2517 67.8755 25.9858 65.2365 29.2519ZM110.355 80.7521C110.419 80.7127 110.483 80.673 110.547 80.6332C114.356 78.3088 117.618 75.3199 120.22 71.8676C118.324 71.6064 116.426 71.3722 114.524 71.1651C113.52 74.3401 112.272 77.2996 110.798 79.9673C110.652 80.2327 110.505 80.4943 110.355 80.7521ZM124.298 64.8977C125.683 61.7366 126.601 58.3598 126.993 54.8699C126.668 54.8133 126.338 54.7568 126.004 54.7002L123.487 54.4149C122.307 54.2246 121.066 54.043 119.555 53.8355C118.802 53.7304 118.1 53.6368 117.445 53.5532C117.321 57.0807 116.948 60.529 116.339 63.8314C118.998 64.1358 121.652 64.4912 124.298 64.8977ZM109.959 52.7551C109.865 56.3429 109.488 59.8234 108.847 63.11C103.443 62.6877 98.023 62.4754 92.5986 62.4741C88.4067 62.4741 84.1714 62.5951 79.9968 62.8545C78.6996 62.9331 77.4034 63.024 76.1085 63.127C75.4592 59.8104 75.0779 56.3013 74.9853 52.6912C80.6858 52.1991 86.4118 51.9513 92.1473 51.9504C98.0941 51.9573 104.037 52.2258 109.959 52.7551ZM80.7259 76.3615C79.7336 74.5644 78.8603 72.6025 78.1131 70.5084C78.891 70.4516 79.6694 70.3993 80.4481 70.3516C84.4752 70.1095 88.5629 69.9798 92.5986 69.9798C97.3543 69.9775 102.107 70.1435 106.847 70.4771C106.093 72.585 105.209 74.5572 104.202 76.3615C100.878 82.3799 96.7038 85.7004 92.4598 85.7004C88.2158 85.7004 84.0499 82.4145 80.7259 76.3615Z" fill="#0D59F2"/>
<path fill-rule="evenodd" clip-rule="evenodd" d="M86.974 114.08C87.8333 115.015 89.049 115.541 90.3186 115.528C91.6051 115.536 92.8111 114.903 93.5347 113.839V115.335H96.4853V101.136H93.5347V106.314C92.7599 105.326 91.5736 104.751 90.3186 104.754C89.0441 104.739 87.8228 105.265 86.9579 106.201C85.9926 107.279 85.4926 108.695 85.567 110.141C85.4907 111.589 85.9974 113.008 86.974 114.08ZM91.0704 113.027C90.3803 113.027 89.7232 112.732 89.2654 112.215C88.7657 111.648 88.5012 110.912 88.5257 110.157C88.4958 109.394 88.7606 108.648 89.2654 108.075C89.7217 107.555 90.3828 107.261 91.0744 107.271C91.7639 107.26 92.4229 107.554 92.8754 108.075C93.3734 108.645 93.635 109.384 93.607 110.141C93.6347 110.9 93.3732 111.641 92.8754 112.215C92.4176 112.732 91.7605 113.027 91.0704 113.027ZM24.1494 114.177C22.698 115.656 20.6975 116.465 18.626 116.412C16.5667 116.476 14.5727 115.685 13.1186 114.225C11.6707 112.816 10.8778 110.866 10.9317 108.846V108.806C10.8922 106.787 11.693 104.842 13.1427 103.435C14.5998 101.968 16.5988 101.168 18.6662 101.224C20.7245 101.166 22.7162 101.957 24.1736 103.411C25.6079 104.82 26.3989 106.756 26.3604 108.766C26.4082 110.799 25.607 112.759 24.1494 114.177ZM15.5145 112.078C16.3215 112.96 17.4717 113.447 18.6662 113.413C19.8522 113.457 20.997 112.974 21.7937 112.095C22.6069 111.224 23.0483 110.07 23.0238 108.879V108.806C23.0515 107.597 22.6041 106.425 21.7776 105.542C20.9721 104.658 19.8217 104.168 18.626 104.199C17.4392 104.164 16.2954 104.645 15.4904 105.518C14.6844 106.393 14.2467 107.544 14.2683 108.734C14.221 109.97 14.6697 111.174 15.5145 112.078ZM87.4242 145.605C84.8209 148.164 81.2887 149.554 77.6396 149.456C74.0092 149.559 70.4928 148.184 67.8951 145.645C65.3442 143.218 63.9294 139.832 63.9957 136.311V136.239C63.9315 132.699 65.3616 129.295 67.9353 126.864C70.5447 124.306 74.0835 122.921 77.736 123.029C81.3644 122.937 84.8747 124.321 87.4644 126.864C90.0227 129.276 91.4519 132.651 91.404 136.166V136.239C91.4556 139.782 90.0106 143.183 87.4242 145.605ZM73.0487 141.087C74.2571 142.365 75.9362 143.093 77.6953 143.1C79.4543 143.108 81.1397 142.395 82.359 141.127C83.5697 139.817 84.2216 138.086 84.1761 136.303V136.231C84.2053 134.444 83.5427 132.716 82.3269 131.407C81.1342 130.082 79.4218 129.344 77.6396 129.389C75.8824 129.334 74.1909 130.058 73.0166 131.366C71.8168 132.682 71.1716 134.41 71.2156 136.19V136.263C71.1845 138.046 71.8409 139.774 73.0487 141.087ZM24.0288 149.456C20.3725 149.574 16.8178 148.242 14.1396 145.75C11.5267 143.319 10.0906 139.878 10.2 136.311V136.239C10.1324 132.706 11.5464 129.306 14.0994 126.864C16.7016 124.315 20.2267 122.931 23.868 123.029C27.6439 122.948 31.3159 124.268 34.1753 126.735L30.0508 131.688C28.365 130.169 26.1855 129.312 23.9163 129.276C22.1517 129.244 20.4618 129.987 19.2933 131.31C18.0496 132.661 17.3831 134.444 17.436 136.279V136.351C17.3692 138.234 18.0717 140.063 19.3817 141.416C20.6838 142.739 22.4797 143.456 24.3344 143.394C25.7645 143.45 27.1794 143.084 28.4026 142.341V139.254H23.3776V134.1H35.0597V145.533C31.9713 148.12 28.057 149.512 24.0288 149.456ZM41.8535 146.064V123.552H48.8885V142.775H61.1978V148.942H44.772C44.0017 148.953 43.2592 148.654 42.7107 148.113C42.1622 147.572 41.8535 146.834 41.8535 146.064ZM96.6944 123.535H109.727C112.823 123.535 115.138 124.299 116.658 125.827C117.737 126.913 118.319 128.397 118.266 129.927V130C118.266 132.637 116.958 134.513 114.342 135.628C115.777 136.028 117.075 136.812 118.097 137.895C119.003 139.002 119.464 140.406 119.391 141.834V141.907C119.461 143.937 118.507 145.868 116.851 147.044C115.157 148.288 112.796 148.91 109.767 148.91L96.6944 148.942V123.535ZM103.561 133.666H107.983C110.212 133.666 111.327 132.926 111.327 131.447V131.374C111.327 129.927 110.258 129.204 108.111 129.204H103.536L103.561 133.666ZM109.004 143.314H103.561V138.635H108.931C111.231 138.635 112.38 139.396 112.38 140.918V140.99C112.411 141.684 112.072 142.342 111.488 142.719C110.735 143.155 109.872 143.361 109.004 143.314ZM122.133 148.942L132.947 123.359H139.741L150.554 148.942H143.005L141.156 144.407H131.355L129.538 148.942H122.133ZM133.389 138.924H139.089L136.259 131.688L133.389 138.924ZM154.285 146.064V123.552H161.352V142.775H173.653V148.942H157.163C155.574 148.942 154.285 147.653 154.285 146.064ZM28.8046 104.223V118.655H31.9563V113.879C32.7887 114.944 34.0701 115.56 35.4215 115.544C36.7794 115.561 38.0804 115 38.9993 114C40.041 112.84 40.5739 111.311 40.4787 109.755C40.5605 108.214 40.0252 106.704 38.9913 105.558C38.0679 104.571 36.7729 104.017 35.4215 104.03C34.0374 104.011 32.736 104.688 31.9563 105.831V104.223H28.8046ZM34.6256 112.866C33.892 112.876 33.1916 112.561 32.712 112.006C32.1628 111.394 31.8743 110.592 31.908 109.771C31.8802 108.96 32.1685 108.17 32.712 107.568C33.1933 107.017 33.8941 106.708 34.6256 106.724C35.3656 106.713 36.0722 107.031 36.5552 107.592C37.1017 108.193 37.3905 108.984 37.3592 109.795C37.3947 110.612 37.1057 111.41 36.5552 112.014C36.0685 112.568 35.3628 112.88 34.6256 112.866ZM47.988 115.608C46.4366 115.66 44.9307 115.08 43.8153 114C42.7273 112.906 42.1445 111.409 42.2073 109.867V109.819C42.1708 108.301 42.7308 106.829 43.767 105.719C44.7711 104.609 46.2108 103.995 47.7066 104.038C49.2473 103.941 50.7417 104.586 51.7267 105.775C52.673 107.002 53.1646 108.519 53.1176 110.068V110.872H45.3349C45.447 111.501 45.7773 112.071 46.2675 112.48C46.7807 112.866 47.4112 113.062 48.0524 113.035C49.0654 113.024 50.0331 112.614 50.7458 111.894L52.5467 113.502C51.4527 114.894 49.7574 115.677 47.988 115.608ZM45.2946 108.903H50.0382C49.9766 108.263 49.7118 107.66 49.2825 107.182C48.8641 106.746 48.2781 106.512 47.6745 106.539C47.0733 106.517 46.4903 106.747 46.0665 107.174C45.6331 107.654 45.363 108.259 45.2946 108.903ZM55.3688 115.335V104.223H58.5204V105.831C59.2496 104.741 60.465 104.074 61.7766 104.046C62.8192 103.986 63.8358 104.386 64.5585 105.14C65.2599 105.989 65.6159 107.071 65.5554 108.171V115.407H62.4038V109.176C62.4436 108.574 62.2668 107.978 61.9053 107.496C61.545 107.099 61.0251 106.887 60.4902 106.917C59.9491 106.891 59.4234 107.102 59.0511 107.496C58.6686 107.969 58.4791 108.569 58.5204 109.176V115.375L55.3688 115.335ZM73.2417 101.723V115.335H83.6052V112.673H76.2165V109.811H82.6485V107.15H76.2165V104.352H83.5088V101.723H73.2417ZM100.296 114.498C100.97 115.21 101.923 115.587 102.901 115.528C104.13 115.497 105.268 114.874 105.956 113.855V115.359H108.915V104.907H105.956V110.728C106.002 111.308 105.824 111.883 105.458 112.336C105.108 112.704 104.615 112.901 104.107 112.874C103.606 112.905 103.118 112.707 102.781 112.336C102.438 111.873 102.273 111.302 102.314 110.728V104.907H99.3636V111.66C99.2984 112.691 99.6324 113.707 100.296 114.498ZM116.746 115.608C115.306 115.634 113.916 115.076 112.894 114.062C111.872 113.047 111.304 111.662 111.319 110.221V110.141C111.369 107.874 112.788 105.864 114.907 105.057C117.025 104.25 119.422 104.807 120.967 106.467L119.142 108.412C118.552 107.708 117.689 107.289 116.77 107.262C116.076 107.242 115.411 107.537 114.961 108.066C114.48 108.621 114.222 109.334 114.238 110.068C114.211 110.82 114.473 111.553 114.969 112.119C115.453 112.661 116.156 112.957 116.883 112.923C117.802 112.885 118.668 112.486 119.295 111.813L121.023 113.566C120.504 114.144 119.886 114.626 119.198 114.989C118.44 115.384 117.601 115.596 116.746 115.608ZM126.161 115.528C125.24 115.571 124.334 115.286 123.604 114.724C122.914 114.145 122.536 113.275 122.583 112.376C122.52 111.406 122.949 110.469 123.725 109.884C124.634 109.296 125.707 109.014 126.788 109.08C127.655 109.081 128.516 109.225 129.337 109.506V109.329C129.337 108.058 128.589 107.423 127.094 107.423C126.109 107.444 125.135 107.634 124.215 107.986L123.476 105.735C124.746 105.193 126.115 104.919 127.496 104.931C128.768 104.782 130.046 105.153 131.041 105.96C131.855 106.87 132.264 108.071 132.175 109.289V115.335H129.313V114.209C128.51 115.095 127.355 115.579 126.161 115.528ZM127.053 113.485C127.656 113.514 128.25 113.332 128.734 112.971C129.143 112.66 129.379 112.174 129.369 111.66V111.13C128.778 110.865 128.135 110.733 127.488 110.744C126.961 110.715 126.437 110.844 125.984 111.114C125.629 111.351 125.424 111.757 125.445 112.183C125.432 112.545 125.597 112.891 125.888 113.108C126.223 113.36 126.634 113.492 127.053 113.485ZM138.414 115.512C137.604 115.563 136.805 115.31 136.171 114.804C135.578 114.148 135.286 113.273 135.367 112.392V107.439H134.121V104.907H135.367V102.246H138.325V104.907H140.778V107.439H138.325V111.894C138.325 112.569 138.639 112.907 139.274 112.907C139.785 112.906 140.288 112.779 140.737 112.537V114.909C140.032 115.317 139.229 115.525 138.414 115.512ZM143.664 103.765V101.136H146.776V103.765H143.664ZM143.744 115.335V104.883H146.695V115.335H143.744ZM149.067 110.181C149.041 111.624 149.625 113.01 150.675 114C152.949 116.085 156.44 116.085 158.715 114C159.778 112.989 160.362 111.575 160.323 110.109C160.347 108.666 159.763 107.28 158.715 106.29C156.443 104.197 152.947 104.197 150.675 106.29C149.62 107.289 149.036 108.688 149.067 110.141V110.181ZM156.657 112.223C156.152 112.765 155.435 113.059 154.695 113.027L154.719 113.019C153.957 113.045 153.223 112.73 152.717 112.159C152.194 111.612 151.906 110.882 151.913 110.125C151.891 109.382 152.156 108.659 152.653 108.107C153.17 107.575 153.881 107.275 154.623 107.275C155.364 107.275 156.075 107.575 156.592 108.107C157.114 108.655 157.402 109.384 157.396 110.141V110.197C157.417 110.942 157.152 111.667 156.657 112.223ZM165.452 104.883H162.494V115.335H165.452V109.522C165.401 108.941 165.58 108.363 165.951 107.914C166.299 107.542 166.793 107.342 167.302 107.367C167.802 107.333 168.29 107.536 168.62 107.914C168.969 108.373 169.136 108.946 169.087 109.522V115.335H172.045V108.589C172.103 107.557 171.77 106.541 171.113 105.743C170.435 105.037 169.484 104.661 168.508 104.714C167.28 104.747 166.143 105.37 165.452 106.386V104.883Z" fill="#F2F2F2"/>
</svg>
