<svg width="184" height="184" viewBox="0 0 184 184" fill="none" xmlns="http://www.w3.org/2000/svg">
<path d="M19 54.0028L20.2393 74.7089L67.1617 62.9451L61.7863 91.4681L140.016 73.4601L134.315 45.5384L162.106 38.4616L164.12 37.8141L169 36.596L163.872 17L19 54.0028Z" fill="#DBD5F6"/>
<path fill-rule="evenodd" clip-rule="evenodd" d="M52.9405 153.212C59.8318 162.109 70.3388 167 82.5146 167C109.895 167 138.233 142.483 145.866 112.36C149.806 96.6469 147.411 81.6478 139.314 71.2136C132.423 62.3321 121.916 57.4255 109.74 57.4255C82.3292 57.4255 53.9448 81.9428 46.389 112.081C42.4489 127.794 44.8439 142.778 52.9405 153.212ZM76.8591 108.836C80.1348 95.9017 91.6771 85.3898 102.601 85.3898H102.663C106.946 85.3088 111.019 87.2517 113.665 90.638C117.079 95.0477 118.022 101.569 116.26 108.541C112.985 121.459 101.442 131.987 90.5182 131.987C86.2139 132.085 82.1149 130.14 79.455 126.738C76.0402 122.329 75.0976 115.792 76.8591 108.836Z" fill="#DBD5F6"/>
<path d="M160.876 35.0556L161.059 52.2751C161.059 52.2751 165.84 53.4904 165.809 57.3606C165.778 61.2308 162.113 61.6982 162.113 61.6982L165.809 98.5L155.5 95.5L158.433 61.9786C158.433 61.9786 153.515 60.4455 153.729 56.5566C153.943 52.6677 158.998 52.3125 158.998 52.3125L158.86 35.7286L160.876 35.0556Z" fill="#DBD5F6"/>
<path fill-rule="evenodd" clip-rule="evenodd" d="M18.6966 127.158C22.6576 127.158 25.2747 125.966 27.5028 123.979C27.998 123.545 28.4224 122.859 28.4224 121.992C28.4224 120.583 27.2553 119.426 25.876 119.426C25.2394 119.426 24.6735 119.679 24.2491 120.041C22.693 121.305 21.1722 122.028 18.8734 122.028C14.6294 122.028 11.694 118.415 11.694 114.079V114.007C11.694 109.671 14.7002 106.131 18.8734 106.131C20.8186 106.131 22.4101 106.781 23.9308 107.937C24.3198 108.19 24.815 108.479 25.5577 108.479C27.0431 108.479 28.2455 107.287 28.2455 105.769C28.2455 104.794 27.7504 103.999 27.1845 103.565C25.1333 102.012 22.6223 101 18.9088 101C11.305 101 6 106.889 6 114.079V114.151C6 121.414 11.4111 127.158 18.6966 127.158ZM58.4125 114.079C58.4125 121.269 52.86 127.158 45.2208 127.158C37.5817 127.158 32.0999 121.341 32.0999 114.151V114.079C32.0999 106.889 37.6524 101 45.2916 101C52.9307 101 58.4125 106.817 58.4125 114.007V114.079ZM37.7945 114.079C37.7945 118.415 40.9067 122.028 45.2922 122.028C49.6776 122.028 52.7192 118.487 52.7192 114.151V114.079C52.7192 109.743 49.6069 106.13 45.2215 106.13C40.836 106.13 37.7945 109.671 37.7945 114.007V114.079ZM68.7514 124.196C68.7514 125.713 67.5226 126.942 66.0048 126.942C64.4869 126.942 63.2582 125.713 63.2582 124.196V104.071C63.2582 102.517 64.4869 101.289 66.0409 101.289H66.6192C67.9563 101.289 68.7514 101.939 69.5103 102.915L80.2437 117.006V103.963C80.2437 102.445 81.4725 101.217 82.9903 101.217C83.2068 101.217 83.4175 101.242 83.6195 101.289H83.703C85.0402 101.289 85.8353 101.939 86.5942 102.915L97.3276 117.006V103.963C97.3276 102.445 98.5563 101.217 100.074 101.217C101.592 101.217 102.821 102.445 102.821 103.963V124.087C102.821 125.641 101.592 126.869 100.038 126.869H99.8573C98.5202 126.869 97.7251 126.219 96.9662 125.243L85.8353 110.647V124.196C85.8353 125.713 84.6065 126.942 83.0887 126.942C82.8432 126.942 82.6053 126.909 82.379 126.849C81.2738 126.733 80.5635 126.119 79.8823 125.243L68.7514 110.647V124.196ZM153.349 123.979C151.121 125.966 148.504 127.158 144.543 127.158C137.258 127.158 131.847 121.414 131.847 114.151V114.079C131.847 106.889 137.152 101 144.755 101C148.469 101 150.98 102.012 153.031 103.565C153.597 103.999 154.092 104.794 154.092 105.769C154.092 107.287 152.89 108.479 151.404 108.479C150.662 108.479 150.166 108.19 149.777 107.937C148.257 106.781 146.665 106.131 144.72 106.131C140.547 106.131 137.541 109.671 137.541 114.007V114.079C137.541 118.415 140.476 122.028 144.72 122.028C147.019 122.028 148.54 121.305 150.096 120.041C150.52 119.679 151.086 119.426 151.723 119.426C153.102 119.426 154.269 120.583 154.269 121.992C154.269 122.859 153.845 123.545 153.349 123.979ZM128.31 124.268C128.31 125.641 127.214 126.725 125.87 126.725H111.971C110.45 126.725 109.247 125.496 109.247 123.943V104.216C109.247 102.662 110.45 101.434 111.971 101.434H125.693C127.037 101.434 128.133 102.554 128.133 103.927C128.133 105.3 127.037 106.384 125.693 106.384H114.659V111.514H124.101C125.445 111.514 126.542 112.634 126.542 114.007C126.542 115.38 125.445 116.464 124.101 116.464H114.659V121.775H125.87C127.214 121.775 128.31 122.895 128.31 124.268ZM167.532 126.942C169.052 126.942 170.255 125.713 170.255 124.16V106.564H175.489C176.868 106.564 178 105.408 178 103.999C178 102.59 176.868 101.434 175.489 101.434H159.574C158.195 101.434 157.063 102.59 157.063 103.999C157.063 105.408 158.195 106.564 159.574 106.564H164.808V124.16C164.808 125.713 166.011 126.942 167.532 126.942Z" fill="#664BDA"/>
</svg>
