<svg width="184" height="184" viewBox="0 0 184 184" fill="none" xmlns="http://www.w3.org/2000/svg">
<g clip-path="url(#clip0)">
<path fill-rule="evenodd" clip-rule="evenodd" d="M41.0577 134.93C33.6551 135.085 26.6063 131.764 22.0084 125.954C16.5278 119.012 14.8428 109.042 17.3525 98.6364C18.9197 92.2825 21.7721 86.3178 25.7331 81.1111L26.4071 77.5599L6.00987 82.7181C5.67846 82.7946 5.33895 82.8304 4.99887 82.8246C2.70342 82.8474 0.794649 81.0616 0.662234 78.7673L0.00597389 66.8352C-0.10124 64.7904 1.24484 62.9528 3.2252 62.4406L86.1623 41.1421C86.5088 41.0459 86.8669 40.9981 87.2265 41.0001C89.1842 41.0037 90.8915 42.333 91.3769 44.2317L94.3123 55.5157C94.6049 56.6239 94.4411 57.8034 93.8576 58.7897C93.2742 59.776 92.3198 60.4867 91.2084 60.7626L90.6408 60.9135V61.2687C92.3786 62.41 93.4305 64.3462 93.4432 66.4268C93.436 68.0232 92.7984 69.5519 91.6695 70.6794L94.3832 87.3524C94.5854 88.5886 94.2374 89.8514 93.4308 90.8091C92.6243 91.7668 91.4398 92.3235 90.1885 92.333L82.5528 92.3951C81.9137 92.3947 81.2829 92.249 80.7082 91.969C80.6668 94.8796 80.304 97.7766 79.6263 100.607C75.0591 119.873 58.085 134.93 41.0577 134.93ZM77.8437 77.9683C78.3216 78.9412 78.745 79.9401 79.1119 80.9602L80.2737 71.0345C78.6459 69.7851 77.7398 67.8113 77.8526 65.761C77.8917 65.2062 78.0174 64.661 78.2251 64.1452L75.3251 64.882L77.7728 76.9207C77.843 77.2652 77.8668 77.6175 77.8437 77.9683ZM30.8059 67.5543L8.9453 73.0854L8.76794 69.8715L84.1492 50.5085L84.495 51.8402L83.9807 51.9822C82.704 52.3344 81.6624 53.259 81.1605 54.4858L69.2414 57.5488C67.0097 58.106 65.6159 60.3282 66.0843 62.5826L66.9711 66.8441C63.5467 65.1748 59.783 64.321 55.9743 64.3494C49.2698 64.3494 42.4057 66.6577 36.0825 71.0967C35.9558 70.1384 35.5014 69.2537 34.7966 68.5931C34.0032 67.8431 32.9524 67.4267 31.8612 67.43C31.5059 67.4314 31.1518 67.4731 30.8059 67.5543Z" fill="white"/>
<path d="M22.0084 125.954L21.2235 126.574L21.2243 126.575L22.0084 125.954ZM41.0577 134.93V133.93H41.0472L41.0367 133.93L41.0577 134.93ZM17.3525 98.6364L16.3816 98.3969L16.3804 98.4019L17.3525 98.6364ZM25.7331 81.1111L26.529 81.7166L26.6717 81.5291L26.7156 81.2976L25.7331 81.1111ZM26.4071 77.5599L27.3896 77.7464L27.6819 76.206L26.162 76.5904L26.4071 77.5599ZM6.00987 82.7181L6.23502 83.6924L6.24505 83.6901L6.25503 83.6875L6.00987 82.7181ZM4.99887 82.8246L5.01599 81.8247L5.00247 81.8245L4.98895 81.8246L4.99887 82.8246ZM0.662234 78.7673L-0.336261 78.8222L-0.336105 78.8249L0.662234 78.7673ZM0.00597389 66.8352L-0.992658 66.8876L-0.992517 66.8901L0.00597389 66.8352ZM3.2252 62.4406L2.97646 61.472L2.97477 61.4724L3.2252 62.4406ZM86.1623 41.1421L86.411 42.1107L86.4204 42.1083L86.4298 42.1057L86.1623 41.1421ZM87.2265 41.0001L87.221 42L87.2246 42.0001L87.2265 41.0001ZM91.3769 44.2317L90.408 44.4794L90.4091 44.4834L91.3769 44.2317ZM94.3123 55.5157L93.3445 55.7675L93.3454 55.771L94.3123 55.5157ZM93.8576 58.7897L94.7183 59.2988V59.2988L93.8576 58.7897ZM91.2084 60.7626L90.9675 59.7921L90.9594 59.7941L90.9514 59.7962L91.2084 60.7626ZM90.6408 60.9135L90.3838 59.9471L89.6408 60.1447V60.9135H90.6408ZM90.6408 61.2687H89.6408V61.8083L90.0918 62.1045L90.6408 61.2687ZM93.4432 66.4268L94.4432 66.4313L94.4432 66.4207L93.4432 66.4268ZM91.6695 70.6794L90.9628 69.9719L90.6002 70.3341L90.6825 70.8401L91.6695 70.6794ZM94.3832 87.3524L93.3962 87.5131L93.3963 87.5138L94.3832 87.3524ZM93.4308 90.8091L92.666 90.1649V90.1649L93.4308 90.8091ZM90.1885 92.333L90.1809 91.333L90.1804 91.333L90.1885 92.333ZM82.5528 92.3951L82.5522 93.3952L82.561 93.3951L82.5528 92.3951ZM80.7082 91.969L81.1462 91.07L79.7307 90.3804L79.7083 91.9548L80.7082 91.969ZM79.6263 100.607L78.6537 100.375L78.6532 100.377L79.6263 100.607ZM79.1119 80.9602L78.1709 81.2986L80.1051 81.0765L79.1119 80.9602ZM77.8437 77.9683L76.8459 77.9025L76.8283 78.1693L76.9462 78.4092L77.8437 77.9683ZM80.2737 71.0345L81.2669 71.1508L81.3329 70.587L80.8826 70.2413L80.2737 71.0345ZM77.8526 65.761L76.8551 65.6906L76.8545 65.6983L76.8541 65.706L77.8526 65.761ZM78.2251 64.1452L79.1527 64.5186L79.8886 62.6907L77.9788 63.176L78.2251 64.1452ZM75.3251 64.882L75.0788 63.9128L74.1553 64.1475L74.3452 65.0813L75.3251 64.882ZM77.7728 76.9207L76.7928 77.1199L76.7929 77.1204L77.7728 76.9207ZM8.9453 73.0854L7.94682 73.1405L8.01372 74.3526L9.19059 74.0548L8.9453 73.0854ZM30.8059 67.5543L30.5773 66.5808L30.5689 66.5828L30.5606 66.5849L30.8059 67.5543ZM8.76794 69.8715L8.51915 68.903L7.72423 69.1071L7.76946 69.9266L8.76794 69.8715ZM84.1492 50.5085L85.117 50.2571L84.8663 49.2918L83.9004 49.5399L84.1492 50.5085ZM84.495 51.8402L84.7612 52.8041L85.7105 52.5419L85.4629 51.5888L84.495 51.8402ZM83.9807 51.9822L84.2466 52.9462L84.2469 52.9461L83.9807 51.9822ZM81.1605 54.4858L81.4094 55.4544L81.8959 55.3294L82.0861 54.8645L81.1605 54.4858ZM69.2414 57.5488L69.4837 58.519L69.4903 58.5173L69.2414 57.5488ZM66.0843 62.5826L65.1052 62.786L65.1052 62.7864L66.0843 62.5826ZM66.9711 66.8441L66.5329 67.743L68.3655 68.6363L67.9501 66.6404L66.9711 66.8441ZM55.9743 64.3494V65.3494L55.9818 65.3493L55.9743 64.3494ZM36.0825 71.0967L35.0912 71.2278L35.3074 72.8627L36.6571 71.9151L36.0825 71.0967ZM34.7966 68.5931L34.1097 69.3198L34.1127 69.3227L34.7966 68.5931ZM31.8612 67.43L31.8582 66.4301L31.8574 66.4301L31.8612 67.43ZM21.2243 126.575C26.0163 132.63 33.3629 136.092 41.0787 135.93L41.0367 133.93C33.9473 134.079 27.1964 130.898 22.7926 125.334L21.2243 126.575ZM16.3804 98.4019C13.8159 109.034 15.5113 119.338 21.2235 126.574L22.7933 125.335C17.5442 118.685 15.8696 109.049 18.3246 98.8709L16.3804 98.4019ZM24.9373 80.5057C20.8934 85.8212 17.9816 91.9104 16.3816 98.3969L18.3234 98.8759C19.8579 92.6546 22.6507 86.8145 26.529 81.7166L24.9373 80.5057ZM25.4247 77.3734L24.7507 80.9247L26.7156 81.2976L27.3896 77.7464L25.4247 77.3734ZM6.25503 83.6875L26.6523 78.5294L26.162 76.5904L5.7647 81.7486L6.25503 83.6875ZM4.98176 83.8245C5.40332 83.8317 5.82419 83.7873 6.23502 83.6924L5.78471 81.7437C5.53272 81.802 5.27457 81.8292 5.01599 81.8247L4.98176 83.8245ZM-0.336105 78.8249C-0.172991 81.6511 2.17868 83.8526 5.00879 83.8246L4.98895 81.8246C3.22816 81.8421 1.76229 80.4721 1.66057 78.7097L-0.336105 78.8249ZM-0.992517 66.8901L-0.336257 78.8222L1.66072 78.7124L1.00446 66.7803L-0.992517 66.8901ZM2.97477 61.4724C0.533439 62.1039 -1.12472 64.3687 -0.992654 66.8876L1.0046 66.7829C0.922244 65.2121 1.95623 63.8017 3.47562 63.4087L2.97477 61.4724ZM85.9135 40.1735L2.97646 61.472L3.47393 63.4091L86.411 42.1107L85.9135 40.1735ZM87.2319 40.0001C86.7801 39.9976 86.3301 40.0577 85.8947 40.1786L86.4298 42.1057C86.6874 42.0341 86.9537 41.9986 87.221 42L87.2319 40.0001ZM92.3457 43.984C91.7475 41.6439 89.6429 40.0045 87.2283 40.0001L87.2246 42.0001C88.7255 42.0028 90.0355 43.022 90.408 44.4793L92.3457 43.984ZM95.2801 55.2639L92.3447 43.9799L90.4091 44.4834L93.3445 55.7674L95.2801 55.2639ZM94.7183 59.2988C95.4381 58.0821 95.6401 56.6274 95.2792 55.2604L93.3454 55.771C93.5697 56.6205 93.4441 57.5246 92.997 58.2805L94.7183 59.2988ZM91.4493 61.7332C92.821 61.3927 93.9985 60.5156 94.7183 59.2988L92.997 58.2805C92.5498 59.0364 91.8186 59.5808 90.9675 59.7921L91.4493 61.7332ZM90.8978 61.88L91.4654 61.729L90.9514 59.7962L90.3838 59.9471L90.8978 61.88ZM91.6408 61.2687V60.9135H89.6408V61.2687H91.6408ZM94.4432 66.4207C94.4284 64.0058 93.2075 61.758 91.1898 60.4328L90.0918 62.1045C91.5496 63.062 92.4325 64.6866 92.4432 66.4329L94.4432 66.4207ZM92.3762 71.3869C93.6919 70.0728 94.4348 68.2914 94.4432 66.4313L92.4432 66.4223C92.4372 67.755 91.9049 69.0309 90.9628 69.9719L92.3762 71.3869ZM95.3703 87.1918L92.6565 70.5188L90.6825 70.8401L93.3962 87.5131L95.3703 87.1918ZM94.1957 91.4533C95.1904 90.2723 95.6193 88.7151 95.3701 87.1911L93.3963 87.5138C93.5514 88.462 93.2844 89.4306 92.666 90.1649L94.1957 91.4533ZM90.1961 93.333C91.7398 93.3213 93.201 92.6344 94.1957 91.4533L92.666 90.1649C92.0476 90.8992 91.1397 91.3258 90.1809 91.333L90.1961 93.333ZM82.561 93.3951L90.1967 93.333L90.1804 91.333L82.5447 91.3952L82.561 93.3951ZM80.2702 92.868C80.9811 93.2144 81.7614 93.3946 82.5522 93.3951L82.5535 91.3951C82.0659 91.3948 81.5847 91.2837 81.1462 91.07L80.2702 92.868ZM80.5988 100.84C81.2937 97.9378 81.6657 94.9674 81.7081 91.9832L79.7083 91.9548C79.668 94.7917 79.3143 97.6155 78.6537 100.375L80.5988 100.84ZM41.0577 135.93C58.6429 135.93 75.9486 120.455 80.5993 100.838L78.6532 100.377C74.1695 119.29 57.5271 133.93 41.0577 133.93V135.93ZM80.0529 80.6218C79.6735 79.5667 79.2356 78.5337 78.7413 77.5274L76.9462 78.4092C77.4077 79.3488 77.8166 80.3134 78.1709 81.2986L80.0529 80.6218ZM79.2804 70.9183L78.1187 80.844L80.1051 81.0765L81.2669 71.1508L79.2804 70.9183ZM76.8541 65.706C76.7231 68.0858 77.7748 70.3771 79.6648 71.8278L80.8826 70.2413C79.517 69.193 78.7564 67.5368 78.8511 65.8159L76.8541 65.706ZM77.2974 63.7717C77.0508 64.3843 76.9016 65.0318 76.8551 65.6906L78.8501 65.8313C78.8819 65.3806 78.984 64.9377 79.1527 64.5186L77.2974 63.7717ZM75.5714 65.8512L78.4713 65.1144L77.9788 63.176L75.0788 63.9128L75.5714 65.8512ZM78.7527 76.7214L76.3051 64.6828L74.3452 65.0813L76.7928 77.1199L78.7527 76.7214ZM78.8416 78.0341C78.8705 77.5944 78.8406 77.1528 78.7526 76.721L76.7929 77.1204C76.8453 77.3776 76.8632 77.6406 76.8459 77.9025L78.8416 78.0341ZM9.19059 74.0548L31.0511 68.5238L30.5606 66.5849L8.70002 72.1159L9.19059 74.0548ZM7.76946 69.9266L7.94682 73.1405L9.94378 73.0303L9.76642 69.8164L7.76946 69.9266ZM83.9004 49.5399L8.51915 68.903L9.01673 70.8401L84.3979 51.477L83.9004 49.5399ZM85.4629 51.5888L85.117 50.2571L83.1813 50.7598L83.5271 52.0916L85.4629 51.5888ZM84.2469 52.9461L84.7612 52.8041L84.2288 50.8763L83.7145 51.0183L84.2469 52.9461ZM82.0861 54.8645C82.4708 53.9242 83.2689 53.2159 84.2466 52.9462L83.7147 51.0182C82.1391 51.4529 80.8541 52.5939 80.235 54.1072L82.0861 54.8645ZM69.4903 58.5173L81.4094 55.4544L80.9116 53.5173L68.9925 56.5802L69.4903 58.5173ZM67.0634 62.3792C66.704 60.6495 67.7736 58.9459 69.4837 58.519L68.9992 56.5785C66.2458 57.266 64.5278 60.0069 65.1052 62.786L67.0634 62.3792ZM67.9501 66.6404L67.0633 62.3789L65.1052 62.7864L65.9921 67.0478L67.9501 66.6404ZM55.9818 65.3493C59.6361 65.3221 63.2472 66.1413 66.5329 67.743L67.4093 65.9452C63.8462 64.2083 59.93 63.3198 55.9669 63.3494L55.9818 65.3493ZM36.6571 71.9151C42.836 67.5774 49.5029 65.3494 55.9743 65.3494V63.3494C49.0367 63.3494 41.9754 65.7379 35.508 70.2782L36.6571 71.9151ZM34.1127 69.3227C34.6489 69.8252 34.9947 70.4984 35.0912 71.2278L37.0739 70.9656C36.9169 69.7785 36.354 68.6822 35.4805 67.8635L34.1127 69.3227ZM31.8642 68.43C32.6988 68.4275 33.5026 68.7459 34.1097 69.3198L35.4836 67.8664C34.5039 66.9402 33.2061 66.426 31.8582 66.4301L31.8642 68.43ZM31.0344 68.5279C31.3067 68.4639 31.5854 68.4311 31.865 68.43L31.8574 66.4301C31.4263 66.4317 30.9969 66.4823 30.5773 66.5808L31.0344 68.5279Z" fill="#B3B3B3"/>
<ellipse cx="49.0554" cy="98.0321" rx="16.1486" ry="16.1642" fill="#664BDA"/>
<path d="M86.3471 55.6392L86.4516 63.8189C86.4516 63.8189 89.1781 64.3962 89.1607 66.2347C89.1433 68.0731 87.0527 68.2952 87.0527 68.2952L90.1886 87.8965L82.7234 87.9675L84.9534 68.4284C84.9534 68.4284 82.1485 67.7001 82.2705 65.8528C82.3924 64.0055 85.2757 63.8367 85.2757 63.8367L85.1973 55.9589L86.3471 55.6392Z" fill="#664BDA"/>
<path d="M4.26562 66.4861L4.97551 78.3584L31.8536 71.6134L28.7745 87.9676L73.5861 77.6423L70.3206 61.6329L86.2398 57.5752L87.3933 57.2039L90.1885 56.5056L87.2514 45.2698L4.26562 66.4861Z" fill="#664BDA"/>
<path fill-rule="evenodd" clip-rule="evenodd" d="M23.7074 123.37C27.6549 128.471 33.6735 131.275 40.648 131.275C56.3318 131.275 72.5644 117.218 76.9367 99.9466C79.1937 90.937 77.8218 82.3369 73.1839 76.3543C69.2364 71.2619 63.2178 68.4486 56.2433 68.4486C40.5418 68.4486 24.2827 82.5061 19.9546 99.7863C17.6976 108.796 19.0695 117.387 23.7074 123.37ZM37.4084 97.9257C39.2848 90.5097 45.8965 84.4825 52.1541 84.4825H52.1895C54.643 84.436 56.9761 85.5501 58.4913 87.4916C60.4473 90.02 60.9873 93.7592 59.9783 97.7565C58.1019 105.164 51.4902 111.2 45.2326 111.2C42.7671 111.256 40.4191 110.141 38.8954 108.191C36.9393 105.662 36.3994 101.914 37.4084 97.9257Z" fill="url(#paint0_radial)"/>
<path d="M23.7074 123.37L24.1028 123.064L24.1025 123.063L23.7074 123.37ZM76.9367 99.9466L77.4214 100.069L77.4217 100.068L76.9367 99.9466ZM73.1839 76.3543L72.7888 76.6606L72.7888 76.6606L73.1839 76.3543ZM19.9546 99.7863L20.4396 99.9078L20.4396 99.9078L19.9546 99.7863ZM37.4084 97.9257L36.9237 97.803L36.9237 97.8031L37.4084 97.9257ZM52.1895 84.4825V84.9826L52.1989 84.9824L52.1895 84.4825ZM58.4913 87.4916L58.8868 87.1857L58.8855 87.184L58.4913 87.4916ZM59.9783 97.7565L60.4629 97.8793L60.463 97.8789L59.9783 97.7565ZM45.2326 111.2V110.7L45.2212 110.7L45.2326 111.2ZM38.8954 108.191L38.4999 108.497L38.5014 108.498L38.8954 108.191ZM40.648 130.775C33.8134 130.775 27.9469 128.031 24.1028 123.064L23.312 123.676C27.3629 128.911 33.5336 131.775 40.648 131.775V130.775ZM76.452 99.8239C74.2932 108.351 69.202 116.097 62.7072 121.709C56.2103 127.324 48.343 130.775 40.648 130.775V131.775C48.6368 131.775 56.7277 128.198 63.3611 122.466C69.9967 116.732 75.2079 108.813 77.4214 100.069L76.452 99.8239ZM72.7888 76.6606C77.3115 82.4947 78.6807 90.9272 76.4517 99.8251L77.4217 100.068C79.7067 90.9467 78.3322 82.1792 73.5791 76.0479L72.7888 76.6606ZM56.2433 68.9486C63.0775 68.9486 68.9444 71.7013 72.7888 76.6606L73.5791 76.0479C69.5285 70.8225 63.3581 67.9486 56.2433 67.9486V68.9486ZM20.4396 99.9078C22.5764 91.3766 27.6629 83.6292 34.1608 78.0157C40.6609 72.4004 48.5392 68.9486 56.2433 68.9486V67.9486C48.2459 67.9486 40.1439 71.5255 33.5071 77.259C26.868 82.9944 21.6609 90.9158 19.4696 99.6649L20.4396 99.9078ZM24.1025 123.063C19.5798 117.229 18.2106 108.806 20.4396 99.9078L19.4696 99.6648C17.1846 108.786 18.5592 117.545 23.3122 123.676L24.1025 123.063ZM52.1541 83.9825C48.8676 83.9825 45.5355 85.5611 42.8014 88.0536C40.0637 90.5495 37.8874 93.9945 36.9237 97.803L37.8932 98.0483C38.8059 94.4409 40.8736 91.1643 43.4752 88.7926C46.0804 86.4175 49.1829 84.9825 52.1541 84.9825V83.9825ZM52.1895 83.9825H52.1541V84.9825H52.1895V83.9825ZM58.8855 87.184C57.2738 85.1189 54.7915 83.9331 52.18 83.9826L52.1989 84.9824C54.4945 84.9389 56.6783 85.9812 58.0971 87.7993L58.8855 87.184ZM60.463 97.8789C61.4977 93.7799 60.9631 89.8695 58.8868 87.1857L58.0958 87.7976C59.9316 90.1706 60.4768 93.7385 59.4935 97.6342L60.463 97.8789ZM45.2326 111.7C48.5193 111.7 51.8514 110.119 54.5853 107.625C57.3229 105.128 59.4993 101.683 60.4629 97.8793L59.4936 97.6338C58.5808 101.237 56.5132 104.513 53.9115 106.886C51.306 109.263 48.2036 110.7 45.2326 110.7V111.7ZM38.5014 108.498C40.1219 110.573 42.6199 111.76 45.2441 111.7L45.2212 110.7C42.9142 110.753 40.7163 109.709 39.2894 107.883L38.5014 108.498ZM36.9237 97.8031C35.8889 101.893 36.4236 105.813 38.4999 108.497L39.2909 107.885C37.4551 105.512 36.9099 101.935 37.8932 98.0483L36.9237 97.8031Z" fill="#B3B3B3"/>
<path fill-rule="evenodd" clip-rule="evenodd" d="M56.5264 67.8386C40.7265 67.8386 24.3246 82.0049 19.9609 99.4102C17.686 108.513 19.0757 117.207 23.767 123.267C27.7856 128.446 33.8931 131.275 40.9743 131.275C56.7742 131.275 73.1761 117.109 77.5399 99.7038C79.8147 90.6008 78.425 81.907 73.7337 75.8472C69.7151 70.6683 63.6076 67.8386 56.5264 67.8386ZM76.8848 99.5704C81.1955 82.4142 72.0784 68.4971 56.5263 68.4971C40.9566 68.4971 24.9088 82.4142 20.5981 99.5704C16.2874 116.726 25.3868 130.635 40.9566 130.635C56.5263 130.635 72.5741 116.726 76.8848 99.5704ZM60.6422 97.5237C58.7479 105.078 52.0031 111.209 45.5946 111.209C39.2215 111.209 35.557 105.078 37.4512 97.5237C39.3455 89.969 46.1257 83.8469 52.4988 83.8469C58.8719 83.8469 62.5364 89.969 60.6422 97.5237ZM39.5225 107.677C40.9704 109.559 43.2291 110.628 45.5947 110.551L45.577 110.56C51.6934 110.56 58.1638 104.651 60.0049 97.3814C60.9874 93.4838 60.4652 89.8533 58.571 87.3973C57.1203 85.5186 54.8635 84.4503 52.4988 84.5232C46.3825 84.5232 39.912 90.4406 38.0709 97.7106C37.1061 101.599 37.6283 105.239 39.5225 107.677Z" fill="#B3B3B3"/>
<rect x="70.5576" y="92.1492" width="112.442" height="23.8321" rx="11.916" fill="white" stroke="#B3B3B3" stroke-width="2"/>
<path fill-rule="evenodd" clip-rule="evenodd" d="M74.9355 104.002V104.047C74.9355 108.646 78.4175 112.371 83.2662 112.371C88.1148 112.371 91.6403 108.602 91.6403 104.002V103.957C91.6403 99.3531 88.1583 95.6338 83.3096 95.6338C78.461 95.6338 74.9355 99.4028 74.9355 104.002ZM88.0231 104.002V104.047C88.0231 106.822 86.0962 109.089 83.3096 109.089C80.5231 109.089 78.5479 106.777 78.5479 104.002V103.958C78.5479 101.183 80.4845 98.9156 83.2662 98.9156C86.0479 98.9156 88.0231 101.228 88.0231 104.002Z" fill="#333333"/>
<path d="M94.4244 109.909V97.4006C94.4204 96.9323 94.6069 96.482 94.9422 96.1504C95.2775 95.8188 95.7336 95.6336 96.2085 95.6363H105.204C105.794 95.6037 106.354 95.8955 106.658 96.3946C106.963 96.8937 106.963 97.5182 106.658 98.0173C106.354 98.5164 105.794 98.8082 105.204 98.7756H97.9575V102.028H104.159C105.045 102.028 105.763 102.737 105.763 103.61C105.761 104.027 105.59 104.425 105.289 104.717C104.988 105.01 104.582 105.172 104.159 105.168H97.9575V108.534H105.324C105.753 108.527 106.168 108.691 106.474 108.988C106.78 109.286 106.953 109.692 106.953 110.116C106.952 110.533 106.781 110.932 106.48 111.224C106.179 111.517 105.771 111.678 105.349 111.673H96.2085C95.7336 111.676 95.2775 111.491 94.9422 111.159C94.6069 110.827 94.4204 110.377 94.4244 109.909Z" fill="#333333"/>
<path d="M108.478 98.1106C108.401 97.8934 108.356 97.6657 108.345 97.4351C108.35 96.9551 108.546 96.4976 108.89 96.1667C109.234 95.8359 109.695 95.6599 110.169 95.6789C110.959 95.6714 111.66 96.1933 111.889 96.9598L115.086 106.937L118.299 97.0498C118.513 96.2222 119.248 95.6421 120.093 95.6338H120.37C121.22 95.6278 121.963 96.2139 122.164 97.0498L125.382 106.937L128.575 96.9598C128.796 96.201 129.484 95.6798 130.265 95.6789C130.723 95.6681 131.166 95.8445 131.495 96.1683C131.823 96.4922 132.009 96.9361 132.01 97.4001C131.996 97.6369 131.952 97.8709 131.876 98.0956L127.369 110.91C127.136 111.751 126.392 112.342 125.53 112.371H125.164C124.303 112.353 123.558 111.755 123.345 110.91L120.177 101.578L117.004 110.91C116.795 111.755 116.051 112.354 115.19 112.371H114.824C113.96 112.344 113.214 111.752 112.981 110.91L108.478 98.1106Z" fill="#333333"/>
<path d="M134.794 109.909V97.4006C134.79 96.9315 134.977 96.4804 135.314 96.1486C135.65 95.8169 136.108 95.6323 136.584 95.6363H145.583C146.173 95.6037 146.733 95.8955 147.038 96.3946C147.343 96.8937 147.343 97.5182 147.038 98.0173C146.733 98.5164 146.173 98.8082 145.583 98.7756H138.334V102.028H144.538C144.968 102.022 145.383 102.185 145.691 102.483C145.998 102.78 146.171 103.186 146.173 103.61C146.17 104.027 145.999 104.425 145.698 104.717C145.397 105.01 144.99 105.172 144.568 105.168H138.354V108.534H145.718C146.604 108.534 147.322 109.242 147.322 110.116C147.321 110.533 147.151 110.932 146.849 111.224C146.548 111.517 146.141 111.678 145.718 111.673H136.584C136.108 111.677 135.65 111.493 135.314 111.161C134.977 110.829 134.79 110.378 134.794 109.909Z" fill="#333333"/>
<path d="M149.411 109.909V97.4006C149.405 96.9319 149.592 96.4808 149.928 96.1489C150.265 95.817 150.723 95.6323 151.2 95.6363H160.22C160.812 95.6037 161.373 95.8955 161.679 96.3946C161.985 96.8937 161.985 97.5182 161.679 98.0173C161.373 98.5164 160.812 98.8083 160.22 98.7756H152.954V102.028H159.173C160.061 102.028 160.782 102.737 160.782 103.61C160.779 104.027 160.608 104.425 160.306 104.717C160.004 105.01 159.596 105.172 159.173 105.168H152.949V108.534H160.336C161.222 108.537 161.939 109.244 161.939 110.116C161.938 110.532 161.768 110.93 161.467 111.223C161.166 111.515 160.759 111.677 160.336 111.673H151.175C150.703 111.671 150.251 111.483 149.92 111.152C149.589 110.821 149.405 110.373 149.411 109.909Z" fill="#333333"/>
<path d="M164.723 97.3828C164.723 96.4252 165.502 95.6488 166.464 95.6488C167.425 95.6488 168.204 96.4252 168.204 97.3828V102.672L174.617 96.3221C174.983 95.8963 175.513 95.646 176.076 95.6343C176.505 95.6236 176.92 95.7884 177.224 96.0903C177.528 96.3923 177.695 96.8051 177.685 97.2327C177.675 97.7405 177.443 98.2185 177.048 98.5405L172.6 102.687L177.461 108.765C177.766 109.098 177.939 109.53 177.948 109.981C177.951 110.442 177.764 110.885 177.43 111.204C177.096 111.524 176.645 111.693 176.183 111.672C175.586 111.658 175.037 111.344 174.724 110.838L170.203 104.939L168.204 106.775V109.928C168.204 110.885 167.425 111.662 166.464 111.662C165.502 111.662 164.723 110.885 164.723 109.928L164.723 97.3828Z" fill="#333333"/>
<path fill-rule="evenodd" clip-rule="evenodd" d="M146.883 117.807C144.606 115.161 141.391 113.554 137.561 113.554C133.714 113.554 130.48 115.178 128.188 117.852C127.677 118.449 127.213 119.1 126.801 119.799C126.292 118.363 125.453 117.135 124.354 116.151C122.551 114.536 119.988 113.554 116.859 113.554C112.439 113.554 109.693 115.148 107.347 117.87C106.629 118.717 106.186 119.893 106.186 120.998C106.186 122.307 106.712 123.478 107.558 124.324C108.404 125.17 109.576 125.695 110.884 125.695C112.49 125.695 113.678 124.938 114.35 124.207C115.093 123.409 115.638 122.879 116.52 122.879C116.794 122.879 117.069 122.89 117.244 123.06C117.384 123.195 117.389 123.416 117.389 123.645C117.389 124.927 116.42 125.706 114.791 127.016L114.791 127.016C114.583 127.183 114.364 127.359 114.134 127.547L107.382 133.073C105.894 134.278 105.167 135.79 105.167 137.487C105.167 139.007 105.773 140.193 106.722 141.027C107.6 141.798 108.834 142.285 110.307 142.285H123.208C124.477 142.285 125.622 141.78 126.45 140.965C127.186 140.239 127.677 139.268 127.783 138.172C127.905 138.328 128.03 138.481 128.159 138.63C130.425 141.262 133.631 142.866 137.493 142.866C141.355 142.866 144.585 141.243 146.87 138.576C146.925 138.512 146.979 138.447 147.033 138.382C147.222 139.48 147.76 140.364 148.514 141.027C149.391 141.798 150.625 142.285 152.098 142.285H164.999C166.268 142.285 167.413 141.78 168.241 140.965C169.076 140.142 169.595 139.003 169.595 137.724C169.595 136.455 169.081 135.306 168.249 134.475L168.167 134.395C167.343 133.611 166.227 133.129 164.999 133.129L163.482 133.129L163.578 133.051C167.259 130.017 168.948 127.704 169.136 123.937C169.545 124.057 169.974 124.122 170.413 124.122L170.537 124.119C170.623 124.116 170.712 124.11 170.805 124.101L170.834 124.099L170.834 137.666C170.834 139.021 171.381 140.246 172.263 141.133C173.149 142.025 174.375 142.575 175.729 142.575C177.083 142.575 178.308 142.025 179.195 141.133C180.077 140.246 180.624 139.021 180.624 137.666V118.463C180.624 117.108 180.077 115.883 179.195 114.996C178.35 114.146 177.198 113.588 175.793 113.555L175.661 113.554H175.661C174.767 113.554 173.825 113.741 172.585 114.086L169.217 115.078C168.193 115.378 167.36 115.97 166.774 116.732C166.769 116.74 166.763 116.747 166.757 116.754C166.564 116.544 166.359 116.343 166.145 116.151C164.342 114.536 161.779 113.554 158.651 113.554C154.23 113.554 151.485 115.148 149.138 117.87C148.718 118.366 148.391 118.976 148.193 119.618C147.801 118.97 147.363 118.364 146.883 117.807ZM150.169 124.978C150.348 125.991 150.441 127.049 150.441 128.142C150.441 129.652 150.265 131.097 149.934 132.45L155.925 127.547C156.155 127.359 156.374 127.183 156.582 127.016C158.211 125.706 159.181 124.927 159.181 123.645C159.181 123.416 159.175 123.195 159.035 123.06C158.86 122.89 158.585 122.879 158.311 122.879C157.429 122.879 156.884 123.409 156.142 124.207C155.469 124.938 154.281 125.695 152.675 125.695C151.749 125.695 150.891 125.432 150.169 124.978ZM121.787 133.051C122.962 132.082 123.934 131.187 124.719 130.295C124.849 131.491 125.093 132.634 125.441 133.707C124.779 133.339 124.018 133.129 123.208 133.129L121.691 133.129L121.787 133.051Z" fill="#F5F5F5"/>
<path d="M146.883 117.807L146.505 118.133V118.133L146.883 117.807ZM128.188 117.852L128.568 118.178V118.178L128.188 117.852ZM126.801 119.799L126.33 119.966L126.688 120.975L127.232 120.053L126.801 119.799ZM124.354 116.151L124.02 116.524V116.524L124.354 116.151ZM107.347 117.87L106.968 117.543L106.965 117.547L107.347 117.87ZM107.558 124.324L107.205 124.678L107.558 124.324ZM114.35 124.207L113.984 123.867L113.983 123.869L114.35 124.207ZM117.244 123.06L116.897 123.419L117.244 123.06ZM114.791 127.016L114.478 126.626L114.477 126.627L114.791 127.016ZM114.791 127.016L115.104 127.405L115.106 127.404L114.791 127.016ZM114.134 127.547L113.818 127.159L113.818 127.16L114.134 127.547ZM107.382 133.073L107.697 133.462L107.699 133.46L107.382 133.073ZM106.722 141.027L107.052 140.651L106.722 141.027ZM126.45 140.965L126.099 140.608L126.45 140.965ZM127.783 138.172L128.176 137.864L127.405 136.88L127.285 138.124L127.783 138.172ZM128.159 138.63L128.538 138.304V138.304L128.159 138.63ZM146.87 138.576L147.25 138.901L146.87 138.576ZM147.033 138.382L147.526 138.297L147.341 137.222L146.647 138.064L147.033 138.382ZM148.514 141.027L148.184 141.402L148.514 141.027ZM168.241 140.965L168.592 141.321L168.241 140.965ZM168.249 134.475L168.602 134.121L168.598 134.117L168.249 134.475ZM168.167 134.395L168.516 134.037L168.512 134.033L168.167 134.395ZM164.999 133.129L164.999 133.629H164.999V133.129ZM163.482 133.129L163.165 132.743L162.084 133.629L163.482 133.629L163.482 133.129ZM163.578 133.051L163.895 133.437L163.896 133.437L163.578 133.051ZM169.136 123.937L169.278 123.457L168.669 123.278L168.637 123.912L169.136 123.937ZM170.413 124.122V124.622L170.422 124.621L170.413 124.122ZM170.537 124.119L170.547 124.619L170.555 124.619L170.537 124.119ZM170.805 124.101L170.851 124.599L170.856 124.599L170.805 124.101ZM170.834 124.099L171.334 124.099L171.334 123.544L170.782 123.601L170.834 124.099ZM170.834 137.666H171.334V137.666L170.834 137.666ZM172.263 141.133L171.908 141.486L172.263 141.133ZM179.195 141.133L179.549 141.486L179.195 141.133ZM179.195 114.996L179.549 114.643V114.643L179.195 114.996ZM175.793 113.555L175.805 113.055L175.799 113.055L175.793 113.555ZM175.661 113.554L175.667 113.054H175.661V113.554ZM175.661 113.554V113.054H175.661L175.661 113.554ZM172.585 114.086L172.451 113.604L172.443 113.606L172.585 114.086ZM169.217 115.078L169.358 115.558L169.359 115.557L169.217 115.078ZM166.774 116.732L166.378 116.428L166.378 116.428L166.774 116.732ZM166.757 116.754L166.39 117.093L166.795 117.532L167.156 117.057L166.757 116.754ZM166.145 116.151L165.811 116.524V116.524L166.145 116.151ZM149.138 117.87L148.759 117.543L148.757 117.547L149.138 117.87ZM148.193 119.618L147.765 119.876L148.342 120.83L148.671 119.765L148.193 119.618ZM150.169 124.978L150.435 124.554L149.48 123.954L149.676 125.065L150.169 124.978ZM149.934 132.45L149.449 132.331L149.093 133.785L150.251 132.837L149.934 132.45ZM155.925 127.547L155.609 127.159L155.609 127.16L155.925 127.547ZM156.582 127.016L156.896 127.405L156.582 127.016ZM159.035 123.06L158.688 123.419V123.419L159.035 123.06ZM156.142 124.207L155.775 123.867L155.774 123.869L156.142 124.207ZM124.719 130.295L125.217 130.241L125.094 129.111L124.344 129.964L124.719 130.295ZM121.787 133.051L122.104 133.437L122.105 133.437L121.787 133.051ZM125.441 133.707L125.197 134.144L126.308 134.762L125.916 133.553L125.441 133.707ZM123.208 133.129L123.208 133.629H123.208V133.129ZM121.691 133.129L121.374 132.743L120.293 133.629L121.691 133.629L121.691 133.129ZM137.561 114.054C141.24 114.054 144.318 115.594 146.505 118.133L147.262 117.481C144.893 114.729 141.542 113.054 137.561 113.054V114.054ZM128.568 118.178C130.768 115.61 133.865 114.054 137.561 114.054V113.054C133.562 113.054 130.191 114.746 127.809 117.527L128.568 118.178ZM127.232 120.053C127.629 119.378 128.077 118.751 128.568 118.178L127.809 117.527C127.278 118.146 126.797 118.821 126.37 119.545L127.232 120.053ZM124.02 116.524C125.058 117.453 125.849 118.61 126.33 119.966L127.272 119.632C126.734 118.115 125.847 116.817 124.687 115.779L124.02 116.524ZM116.859 114.054C119.882 114.054 122.321 115.001 124.02 116.524L124.687 115.779C122.781 114.071 120.094 113.054 116.859 113.054V114.054ZM107.726 118.196C108.867 116.872 110.088 115.843 111.543 115.141C112.996 114.441 114.712 114.054 116.859 114.054V113.054C114.587 113.054 112.719 113.464 111.108 114.241C109.499 115.017 108.173 116.145 106.968 117.543L107.726 118.196ZM106.686 120.998C106.686 120.016 107.085 118.953 107.729 118.193L106.965 117.547C106.174 118.481 105.686 119.771 105.686 120.998H106.686ZM107.912 123.971C107.156 123.215 106.686 122.17 106.686 120.998H105.686C105.686 122.444 106.268 123.741 107.205 124.678L107.912 123.971ZM110.884 125.195C109.713 125.195 108.667 124.726 107.912 123.971L107.205 124.678C108.141 125.614 109.438 126.195 110.884 126.195V125.195ZM113.983 123.869C113.386 124.517 112.325 125.195 110.884 125.195V126.195C112.655 126.195 113.969 125.359 114.718 124.546L113.983 123.869ZM116.52 122.379C115.392 122.379 114.708 123.088 113.984 123.867L114.717 124.548C115.477 123.729 115.884 123.379 116.52 123.379V122.379ZM117.592 122.7C117.41 122.525 117.194 122.449 117.013 122.415C116.836 122.381 116.656 122.379 116.52 122.379V123.379C116.658 123.379 116.752 123.383 116.825 123.397C116.893 123.41 116.903 123.425 116.897 123.419L117.592 122.7ZM117.889 123.645C117.889 123.536 117.889 123.378 117.861 123.225C117.831 123.066 117.763 122.866 117.592 122.7L116.897 123.419C116.866 123.389 116.87 123.367 116.878 123.409C116.882 123.43 116.885 123.459 116.887 123.5C116.889 123.542 116.889 123.588 116.889 123.645H117.889ZM115.105 127.405C115.906 126.761 116.598 126.207 117.08 125.646C117.581 125.063 117.889 124.437 117.889 123.645H116.889C116.889 124.135 116.713 124.539 116.322 124.994C115.913 125.47 115.306 125.96 114.478 126.626L115.105 127.405ZM115.106 127.404L115.106 127.404L114.477 126.627L114.477 126.627L115.106 127.404ZM114.45 127.934C114.678 127.748 114.896 127.573 115.104 127.405L114.478 126.626C114.27 126.793 114.049 126.971 113.818 127.159L114.45 127.934ZM107.699 133.46L114.451 127.933L113.818 127.16L107.066 132.686L107.699 133.46ZM105.667 137.487C105.667 135.952 106.316 134.579 107.697 133.462L107.068 132.685C105.471 133.977 104.667 135.628 104.667 137.487H105.667ZM107.052 140.651C106.209 139.91 105.667 138.86 105.667 137.487H104.667C104.667 139.153 105.338 140.475 106.392 141.402L107.052 140.651ZM110.307 141.785C108.946 141.785 107.832 141.337 107.052 140.651L106.392 141.402C107.368 142.26 108.722 142.785 110.307 142.785V141.785ZM123.208 141.785H110.307V142.785H123.208V141.785ZM126.099 140.608C125.361 141.334 124.342 141.785 123.208 141.785V142.785C124.612 142.785 125.882 142.225 126.8 141.321L126.099 140.608ZM127.285 138.124C127.191 139.099 126.755 139.962 126.099 140.608L126.8 141.321C127.617 140.517 128.163 139.437 128.281 138.22L127.285 138.124ZM128.538 138.304C128.414 138.16 128.294 138.014 128.176 137.864L127.389 138.481C127.516 138.643 127.646 138.801 127.78 138.956L128.538 138.304ZM137.493 142.366C133.781 142.366 130.712 140.829 128.538 138.304L127.78 138.956C130.138 141.695 133.481 143.366 137.493 143.366V142.366ZM146.491 138.251C144.296 140.811 141.204 142.366 137.493 142.366V143.366C141.507 143.366 144.873 141.676 147.25 138.901L146.491 138.251ZM146.647 138.064C146.596 138.127 146.543 138.189 146.491 138.251L147.25 138.901C147.307 138.835 147.363 138.768 147.419 138.7L146.647 138.064ZM148.844 140.651C148.171 140.06 147.695 139.276 147.526 138.297L146.541 138.467C146.75 139.683 147.349 140.669 148.184 141.402L148.844 140.651ZM152.098 141.785C150.737 141.785 149.623 141.337 148.844 140.651L148.184 141.402C149.16 142.26 150.513 142.785 152.098 142.785V141.785ZM164.999 141.785H152.098V142.785H164.999V141.785ZM167.89 140.608C167.153 141.334 166.133 141.785 164.999 141.785V142.785C166.403 142.785 167.673 142.225 168.592 141.321L167.89 140.608ZM169.095 137.724C169.095 138.863 168.634 139.876 167.89 140.608L168.592 141.321C169.519 140.408 170.095 139.142 170.095 137.724H169.095ZM167.895 134.828C168.637 135.57 169.095 136.593 169.095 137.724H170.095C170.095 136.317 169.524 135.043 168.602 134.121L167.895 134.828ZM167.818 134.753L167.9 134.833L168.598 134.117L168.516 134.037L167.818 134.753ZM164.999 133.629C166.094 133.629 167.087 134.058 167.823 134.758L168.512 134.033C167.598 133.164 166.36 132.629 164.999 132.629V133.629ZM163.482 133.629L164.999 133.629L164.999 132.629L163.482 132.629L163.482 133.629ZM163.261 132.664L163.165 132.743L163.799 133.516L163.895 133.437L163.261 132.664ZM168.637 123.912C168.547 125.717 168.1 127.152 167.245 128.501C166.381 129.862 165.087 131.159 163.26 132.665L163.896 133.437C165.751 131.908 167.141 130.531 168.089 129.036C169.046 127.529 169.538 125.923 169.636 123.962L168.637 123.912ZM170.413 123.622C170.023 123.622 169.641 123.564 169.278 123.457L168.995 124.417C169.448 124.55 169.925 124.622 170.413 124.622V123.622ZM170.528 123.619L170.403 123.622L170.422 124.621L170.547 124.619L170.528 123.619ZM170.759 123.604C170.674 123.611 170.594 123.617 170.519 123.62L170.555 124.619C170.651 124.615 170.751 124.609 170.851 124.599L170.759 123.604ZM170.782 123.601L170.754 123.604L170.856 124.599L170.885 124.596L170.782 123.601ZM171.334 137.666L171.334 124.099L170.334 124.099L170.334 137.666L171.334 137.666ZM172.617 140.781C171.825 139.984 171.334 138.884 171.334 137.666H170.334C170.334 139.158 170.936 140.509 171.908 141.486L172.617 140.781ZM175.729 142.075C174.513 142.075 173.414 141.582 172.617 140.781L171.908 141.486C172.885 142.468 174.236 143.075 175.729 143.075V142.075ZM178.84 140.781C178.044 141.582 176.944 142.075 175.729 142.075V143.075C177.221 143.075 178.573 142.468 179.549 141.486L178.84 140.781ZM180.124 137.666C180.124 138.884 179.633 139.984 178.84 140.781L179.549 141.486C180.521 140.509 181.124 139.158 181.124 137.666H180.124ZM180.124 118.463V137.666H181.124V118.463H180.124ZM178.84 115.349C179.633 116.146 180.124 117.245 180.124 118.463H181.124C181.124 116.971 180.521 115.62 179.549 114.643L178.84 115.349ZM175.782 114.055C177.052 114.085 178.082 114.586 178.84 115.349L179.549 114.643C178.617 113.706 177.344 113.092 175.805 113.056L175.782 114.055ZM175.655 114.054L175.788 114.055L175.799 113.055L175.667 113.054L175.655 114.054ZM175.661 114.054H175.661V113.054H175.661V114.054ZM172.718 114.568C173.947 114.226 174.836 114.054 175.661 114.054L175.661 113.054C174.698 113.054 173.704 113.256 172.451 113.604L172.718 114.568ZM169.359 115.557L172.726 114.566L172.443 113.606L169.076 114.598L169.359 115.557ZM167.171 117.037C167.692 116.359 168.436 115.827 169.358 115.558L169.077 114.598C167.95 114.928 167.027 115.582 166.378 116.428L167.171 117.037ZM167.156 117.057C167.161 117.05 167.166 117.044 167.171 117.037L166.378 116.428C166.371 116.436 166.365 116.444 166.359 116.452L167.156 117.057ZM165.811 116.524C166.014 116.705 166.207 116.895 166.39 117.093L167.125 116.415C166.92 116.193 166.704 115.981 166.479 115.779L165.811 116.524ZM158.651 114.054C161.673 114.054 164.112 115.001 165.811 116.524L166.479 115.779C164.572 114.071 161.885 113.054 158.651 113.054V114.054ZM149.517 118.196C150.658 116.872 151.879 115.843 153.334 115.141C154.788 114.44 156.503 114.054 158.651 114.054V113.054C156.378 113.054 154.51 113.464 152.899 114.241C151.29 115.017 149.965 116.145 148.759 117.543L149.517 118.196ZM148.671 119.765C148.851 119.183 149.146 118.635 149.52 118.193L148.757 117.547C148.29 118.098 147.932 118.768 147.715 119.47L148.671 119.765ZM146.505 118.133C146.966 118.669 147.387 119.252 147.765 119.876L148.621 119.359C148.215 118.688 147.761 118.06 147.262 117.481L146.505 118.133ZM149.676 125.065C149.85 126.048 149.941 127.077 149.941 128.142H150.941C150.941 127.02 150.845 125.933 150.661 124.891L149.676 125.065ZM149.941 128.142C149.941 129.614 149.77 131.019 149.449 132.331L150.42 132.569C150.761 131.176 150.941 129.691 150.941 128.142H149.941ZM150.251 132.837L156.242 127.933L155.609 127.16L149.618 132.063L150.251 132.837ZM156.241 127.934C156.469 127.748 156.687 127.573 156.896 127.405L156.269 126.626C156.061 126.793 155.84 126.971 155.609 127.159L156.241 127.934ZM156.896 127.405C157.697 126.761 158.389 126.207 158.872 125.646C159.372 125.063 159.681 124.437 159.681 123.645H158.681C158.681 124.135 158.504 124.539 158.113 124.994C157.704 125.47 157.097 125.96 156.269 126.626L156.896 127.405ZM159.681 123.645C159.681 123.536 159.68 123.378 159.652 123.225C159.622 123.066 159.554 122.866 159.383 122.7L158.688 123.419C158.657 123.389 158.661 123.367 158.669 123.409C158.673 123.43 158.676 123.459 158.678 123.5C158.68 123.542 158.681 123.588 158.681 123.645H159.681ZM159.383 122.7C159.201 122.525 158.986 122.449 158.804 122.415C158.627 122.381 158.447 122.379 158.311 122.379V123.379C158.449 123.379 158.543 123.383 158.616 123.397C158.684 123.41 158.694 123.425 158.688 123.419L159.383 122.7ZM158.311 122.379C157.183 122.379 156.499 123.088 155.775 123.867L156.508 124.548C157.269 123.729 157.675 123.379 158.311 123.379V122.379ZM155.774 123.869C155.177 124.517 154.116 125.195 152.675 125.195V126.195C154.446 126.195 155.761 125.359 156.509 124.546L155.774 123.869ZM152.675 125.195C151.845 125.195 151.079 124.959 150.435 124.554L149.903 125.401C150.703 125.904 151.652 126.195 152.675 126.195V125.195ZM124.344 129.964C123.583 130.829 122.634 131.705 121.469 132.665L122.105 133.437C123.291 132.459 124.285 131.545 125.095 130.625L124.344 129.964ZM125.916 133.553C125.58 132.513 125.342 131.405 125.217 130.241L124.222 130.348C124.355 131.578 124.606 132.754 124.965 133.861L125.916 133.553ZM123.208 133.629C123.931 133.629 124.609 133.816 125.197 134.144L125.684 133.27C124.95 132.862 124.105 132.629 123.208 132.629V133.629ZM121.691 133.629L123.208 133.629L123.208 132.629L121.691 132.629L121.691 133.629ZM121.47 132.664L121.374 132.743L122.008 133.516L122.104 133.437L121.47 132.664Z" fill="#B3B3B3"/>
<path fill-rule="evenodd" clip-rule="evenodd" d="M123.208 139.964C124.464 139.964 125.483 138.98 125.483 137.724C125.483 136.469 124.464 135.451 123.208 135.451H114.924L118.795 132.466C123.004 129.209 125.041 127.241 125.041 123.272V123.204C125.041 118.759 121.782 115.876 116.859 115.876C113.261 115.876 111.02 117.165 109.119 119.37C108.745 119.811 108.508 120.422 108.508 120.999C108.508 122.322 109.56 123.373 110.884 123.373C111.699 123.373 112.31 123 112.65 122.627C113.974 121.202 115.026 120.557 116.52 120.557C118.387 120.557 119.711 121.643 119.711 123.645C119.711 125.613 118.557 126.936 115.603 129.344L108.847 134.875C107.965 135.587 107.489 136.469 107.489 137.487C107.489 139.047 108.677 139.964 110.307 139.964H123.208ZM137.492 140.544C143.862 140.544 148.119 135.126 148.119 128.21V128.142C148.119 121.225 143.862 115.876 137.561 115.876C131.225 115.876 126.934 121.293 126.934 128.21V128.278C126.934 135.195 131.123 140.544 137.492 140.544ZM132.448 128.065C132.448 132.396 134.531 135.61 137.706 135.61C140.881 135.61 142.896 132.43 142.896 128.132V128.065C142.896 123.767 140.779 120.519 137.638 120.519C134.496 120.519 132.448 123.666 132.448 127.997V128.065ZM164.999 139.964C166.255 139.964 167.274 138.98 167.274 137.724C167.274 136.469 166.255 135.451 164.999 135.451H156.715L160.585 132.466C164.795 129.209 166.832 127.241 166.832 123.272V123.204C166.832 118.759 163.573 115.876 158.65 115.876C155.052 115.876 152.811 117.165 150.91 119.37C150.536 119.811 150.299 120.422 150.299 120.999C150.299 122.322 151.351 123.373 152.675 123.373C153.49 123.373 154.101 123 154.441 122.627C155.765 121.202 156.817 120.557 158.311 120.557C160.178 120.557 161.502 121.643 161.502 123.645C161.502 125.613 160.348 126.936 157.394 129.344L150.638 134.875C149.755 135.587 149.28 136.469 149.28 137.487C149.28 139.048 150.468 139.964 152.098 139.964H164.999ZM178.302 137.666C178.302 139.096 177.151 140.254 175.729 140.254C174.306 140.254 173.155 139.096 173.155 137.666V121.187L171.327 121.664C171.056 121.732 170.684 121.8 170.413 121.8C169.194 121.8 168.144 120.778 168.144 119.553C168.144 118.497 168.821 117.612 169.871 117.306L173.223 116.318C174.205 116.046 174.95 115.876 175.661 115.876H175.729C177.151 115.876 178.302 117.033 178.302 118.463V137.666Z" fill="#FF5547"/>
</g>
<defs>
<radialGradient id="paint0_radial" cx="0" cy="0" r="1" gradientUnits="userSpaceOnUse" gradientTransform="translate(48.5211 99.8758) rotate(-57.2472) scale(33.2382 32.4592)">
<stop stop-color="white"/>
<stop offset="0.52" stop-color="#FDFDFD"/>
<stop offset="0.71" stop-color="#F6F7F7"/>
<stop offset="0.85" stop-color="#EBEBEC"/>
<stop offset="0.95" stop-color="#DADBDC"/>
<stop offset="1" stop-color="#D0D2D3"/>
</radialGradient>
<clipPath id="clip0">
<rect width="184" height="184" fill="white"/>
</clipPath>
</defs>
</svg>
