<svg width="185" height="184" viewBox="0 0 185 184" fill="none" xmlns="http://www.w3.org/2000/svg">
<path d="M56.0125 29.2711H139.354C140.848 29.2711 142.06 30.4826 142.06 31.977V130.037L126.375 142.918H56.0125C54.5181 142.918 53.3066 141.707 53.3066 140.212V31.977C53.3066 30.4826 54.5181 29.2711 56.0125 29.2711Z" fill="white" stroke="#2DAA2A" stroke-linecap="round" stroke-linejoin="round"/>
<path d="M66.8359 60.1182C70.4225 60.1182 73.33 57.2107 73.33 53.6241C73.33 50.0375 70.4225 47.1299 66.8359 47.1299C63.2493 47.1299 60.3418 50.0375 60.3418 53.6241C60.3418 57.2107 63.2493 60.1182 66.8359 60.1182Z" fill="#B9EDB6"/>
<path d="M66.8359 96.9182C70.4225 96.9182 73.33 94.0107 73.33 90.424C73.33 86.8374 70.4225 83.9299 66.8359 83.9299C63.2493 83.9299 60.3418 86.8374 60.3418 90.424C60.3418 94.0107 63.2493 96.9182 66.8359 96.9182Z" fill="#B9EDB6"/>
<path d="M131.777 51.4594H76.5771V56.8711H131.777V51.4594Z" fill="#B9EDB6"/>
<path d="M102.554 60.1182H76.5771V65.5299H102.554V60.1182Z" fill="#B9EDB6"/>
<path d="M123.118 87.177H76.5771V92.5888H123.118V87.177Z" fill="#B9EDB6"/>
<path d="M131.777 96.9182H76.5771V102.33H131.777V96.9182Z" fill="#B9EDB6"/>
<path d="M100.389 106.659H76.5771V112.071H100.389V106.659Z" fill="#B9EDB6"/>
<path fill-rule="evenodd" clip-rule="evenodd" d="M76.9941 48.216C76.9941 48.4497 76.9006 48.6834 76.7324 48.8516L68.6943 56.8897C68.5261 57.0579 68.2924 57.1514 68.0587 57.1514C67.8251 57.1514 67.5914 57.0579 67.4232 56.8897L62.7685 52.2351C62.6003 52.0668 62.5068 51.8332 62.5068 51.5995C62.5068 51.3658 62.6003 51.1322 62.7685 50.9639L64.0397 49.6928C64.2079 49.5246 64.4416 49.4311 64.6753 49.4311C64.9089 49.4311 65.1426 49.5246 65.3108 49.6928L68.0587 52.4501L74.1901 46.3093C74.3584 46.1411 74.592 46.0476 74.8257 46.0476C75.0594 46.0476 75.293 46.1411 75.4613 46.3093L76.7324 47.5805C76.9006 47.7487 76.9941 47.9824 76.9941 48.216Z" fill="#2DAA2A"/>
<path fill-rule="evenodd" clip-rule="evenodd" d="M76.9941 85.016C76.9941 85.2497 76.9006 85.4833 76.7324 85.6516L68.6943 93.6897C68.5261 93.8579 68.2924 93.9514 68.0587 93.9514C67.8251 93.9514 67.5914 93.8579 67.4232 93.6897L62.7685 89.0351C62.6003 88.8668 62.5068 88.6332 62.5068 88.3995C62.5068 88.1658 62.6003 87.9322 62.7685 87.7639L64.0397 86.4928C64.2079 86.3245 64.4416 86.2311 64.6753 86.2311C64.9089 86.2311 65.1426 86.3245 65.3108 86.4928L68.0587 89.25L74.1901 83.1093C74.3584 82.9411 74.592 82.8476 74.8257 82.8476C75.0594 82.8476 75.293 82.9411 75.4613 83.1093L76.7324 84.3804C76.9006 84.5487 76.9941 84.7823 76.9941 85.016Z" fill="#2DAA2A"/>
<path d="M125.63 143.44V129.248H143.032L125.63 143.44Z" fill="#DBF5D6" stroke="#2DAA2A" stroke-linecap="round" stroke-linejoin="round"/>
<path d="M24.624 86.6358V50.377H49.5181" stroke="#2DAA2A" stroke-width="2" stroke-linecap="square" stroke-linejoin="round" stroke-dasharray="4 8"/>
<path d="M127.636 86.6358H156.119V34.0424" stroke="#2DAA2A" stroke-width="2" stroke-linecap="square" stroke-linejoin="round" stroke-dasharray="4 8"/>
<path d="M146.93 11.4123H163.166C171.534 11.4123 178.319 18.1965 178.319 26.5652V46.0476C178.319 54.4163 171.534 61.2005 163.166 61.2005H146.93C138.562 61.2005 131.777 54.4163 131.777 46.0476V26.5652C131.777 18.1965 138.562 11.4123 146.93 11.4123Z" fill="url(#paint0_linear)"/>
<mask id="mask0" mask-type="alpha" maskUnits="userSpaceOnUse" x="132" y="12" width="45" height="48">
<path d="M145.848 12.4946H163.166C170.339 12.4946 176.154 18.3097 176.154 25.4829V46.0476C176.154 53.2208 170.339 59.0358 163.166 59.0358H145.848C138.675 59.0358 132.86 53.2208 132.86 46.0476V25.4829C132.86 18.3097 138.675 12.4946 145.848 12.4946Z" fill="white"/>
</mask>
<g mask="url(#mask0)">
<path d="M145.848 12.4946H163.166C170.339 12.4946 176.154 18.3097 176.154 25.4829V46.0476C176.154 53.2208 170.339 59.0358 163.166 59.0358H145.848C138.675 59.0358 132.86 53.2208 132.86 46.0476V25.4829C132.86 18.3097 138.675 12.4946 145.848 12.4946Z" fill="#2DAA2A"/>
<path d="M141.707 30.3058H165.518V42.2165C161.55 43.6564 157.581 44.3764 153.612 44.3764C149.644 44.3764 145.675 43.6564 141.707 42.2165V30.3058Z" fill="white"/>
<path d="M129.079 27.3494L154.22 21.8837L178.661 27.3499L154.222 36.4655L129.079 27.3494Z" fill="white" stroke="#2DAA2A" stroke-width="2" stroke-linecap="round"/>
<path d="M172.013 28.1412H170.93V40.0471H172.013V28.1412Z" fill="white"/>
<path d="M169.782 44.3765H173.095L172.242 40.0471H170.635L169.782 44.3765Z" fill="white"/>
</g>
<path d="M15.9654 85.0123H32.2007C40.5695 85.0123 47.3537 91.7965 47.3537 100.165V119.648C47.3537 128.016 40.5695 134.801 32.2007 134.801H15.9654C7.5967 134.801 0.8125 128.016 0.8125 119.648V100.165C0.8125 91.7965 7.5967 85.0123 15.9654 85.0123Z" fill="url(#paint1_linear)"/>
<path d="M14.8833 86.0946H32.2009C39.3741 86.0946 45.1891 91.9096 45.1891 99.0828V119.648C45.1891 126.821 39.3741 132.636 32.2009 132.636H14.8833C7.71005 132.636 1.89502 126.821 1.89502 119.648V99.0828C1.89502 91.9096 7.71005 86.0946 14.8833 86.0946Z" fill="#2DAA2A"/>
<path d="M15.7227 106.337C15.1019 105.086 14.8164 103.683 14.8965 102.277C14.985 100.863 15.6006 99.541 16.6118 98.5936C17.7396 97.5917 19.2695 97.2381 20.7461 97.1137C22.2226 96.9893 23.7211 97.0646 25.1757 96.7666C27.6034 96.2544 29.7329 94.7496 31.0881 92.5887C31.2339 93.7688 31.2234 94.9642 31.0567 96.1412C30.8368 97.3068 30.2619 98.4528 29.2911 99.088C30.4661 98.5216 30.3404 99.8509 30.0828 100.647C30.6671 101.38 32.0808 101.501 32.1531 102.451C32.2712 103.397 32.1699 104.359 31.8578 105.257C31.5028 106.131 31.8829 107.673 30.975 107.742" fill="white"/>
<path d="M15.7227 106.337C15.1019 105.086 14.8164 103.683 14.8965 102.277C14.985 100.863 15.6006 99.541 16.6118 98.5936C17.7396 97.5917 19.2695 97.2381 20.7461 97.1137C22.2226 96.9893 23.7211 97.0646 25.1757 96.7666C27.6034 96.2544 29.7329 94.7496 31.0881 92.5887C31.2339 93.7688 31.2234 94.9642 31.0567 96.1412C30.8368 97.3068 30.2619 98.4528 29.2911 99.088C30.4661 98.5216 30.3404 99.8509 30.0828 100.647C30.6671 101.38 32.0808 101.501 32.1531 102.451C32.2712 103.397 32.1699 104.359 31.8578 105.257C31.5028 106.131 31.8829 107.673 30.975 107.742" stroke="white"/>
<path d="M27.33 119.28V117.614C32.6069 116.29 36.0475 111.361 35.3608 106.108C34.6741 100.855 30.0743 96.9182 24.6243 96.9182C19.1743 96.9182 14.5746 100.855 13.8878 106.108C13.2011 111.361 16.6417 116.29 21.9186 117.614V119.28C17.3405 120.482 14.1553 124.51 14.1398 129.118V133.718H35.1088V129.118C35.0933 124.51 31.9081 120.482 27.33 119.28Z" fill="white"/>
<path d="M30.2236 97.4117C30.2236 97.4117 36.1935 97.8906 31.9438 106.071L30.2236 97.4117Z" fill="white"/>
<path d="M93 152C99.6274 152 105 157.166 105 163.538V164.462C105 170.834 99.6274 176 93 176C86.3726 176 81 170.834 81 164.462V163.538C81 157.166 86.3726 152 93 152Z" fill="#2DAA2A"/>
<path d="M94.5994 157.8V169H92.0074V159.88H89.7674V157.8H94.5994Z" fill="#DBF5D6"/>
<defs>
<linearGradient id="paint0_linear" x1="140.497" y1="17.0312" x2="178.045" y2="49.8599" gradientUnits="userSpaceOnUse">
<stop stop-color="white" stop-opacity="0"/>
<stop offset="1" stop-color="#DBF5D6"/>
</linearGradient>
<linearGradient id="paint1_linear" x1="24.0831" y1="85.0123" x2="24.0831" y2="134.801" gradientUnits="userSpaceOnUse">
<stop stop-color="white" stop-opacity="0"/>
<stop offset="1" stop-color="#B9EDB6"/>
</linearGradient>
</defs>
</svg>
