<?xml version="1.0" encoding="UTF-8"?>
<svg width="183px" height="167px" viewBox="0 0 183 167" version="1.1" xmlns="http://www.w3.org/2000/svg" xmlns:xlink="http://www.w3.org/1999/xlink">
    <!-- Generator: Sketch 51.3 (57544) - http://www.bohemiancoding.com/sketch -->
    <title>step2</title>
    <desc>Created with Sketch.</desc>
    <defs>
        <linearGradient x1="14.430305%" y1="-63.6982286%" x2="50%" y2="100%" id="linearGradient-1">
            <stop stop-color="#FFFFFF" stop-opacity="0" offset="0%"></stop>
            <stop stop-color="#E1F2F1" offset="100%"></stop>
        </linearGradient>
        <linearGradient x1="43.0584856%" y1="-24.0107058%" x2="100%" y2="121.483157%" id="linearGradient-2">
            <stop stop-color="#FFFFFF" stop-opacity="0" offset="0%"></stop>
            <stop stop-color="#20AAA3" offset="100%"></stop>
        </linearGradient>
    </defs>
    <g id="Page-2" stroke="none" stroke-width="1" fill="none" fill-rule="evenodd">
        <g id="submit-your-entry" transform="translate(-589.000000, -282.000000)">
            <g id="step2" transform="translate(568.000000, 280.000000)">
                <g id="2" transform="translate(92.000000, 143.000000)">
                    <path d="M12.5,0 L12.5,0 C19.4035594,-1.26816328e-15 25,5.59644063 25,12.5 L25,13.5 C25,20.4035594 19.4035594,26 12.5,26 L12.5,26 C5.59644063,26 8.45442189e-16,20.4035594 0,13.5 L0,12.5 C-8.45442189e-16,5.59644063 5.59644063,1.26816328e-15 12.5,0 Z" id="Rectangle-path" fill="#20AAA3" fill-rule="nonzero"></path>
                    <text font-family="Helvetica-Bold, Helvetica" font-size="18" font-weight="bold" fill="#E1F2F1">
                        <tspan x="8.49462891" y="19">2</tspan>
                    </text>
                </g>
                <g>
                    <rect id="Rectangle-11" fill-rule="nonzero" x="0" y="0" width="209" height="136"></rect>
                    <circle id="Oval-3" fill="#E1F2F1" fill-rule="nonzero" cx="103.5" cy="67.5" r="65.5"></circle>
                    <g id="browser" transform="translate(40.000000, 29.000000)">
                        <path d="M2.5638852,-1 L125.436115,-1 C126.399896,-1 126.913364,-0.900844821 127.448445,-0.614680494 C127.948639,-0.347173602 128.347174,0.0513610384 128.61468,0.551555437 C128.900845,1.08663621 129,1.60010387 129,2.5638852 L129,83.4361148 C129,84.3998961 128.900845,84.9133638 128.61468,85.4484446 C128.347174,85.948639 127.948639,86.3471736 127.448445,86.6146805 C126.913364,86.9008448 126.399896,87 125.436115,87 L2.5638852,87 C1.60010387,87 1.08663621,86.9008448 0.551555437,86.6146805 C0.0513610384,86.3471736 -0.347173602,85.948639 -0.614680494,85.4484446 C-0.900844821,84.9133638 -1,84.3998961 -1,83.4361148 L-1,2.5638852 C-1,1.60010387 -0.900844821,1.08663621 -0.614680494,0.551555437 C-0.347173602,0.0513610384 0.0513610384,-0.347173602 0.551555437,-0.614680494 C1.08663621,-0.900844821 1.60010387,-1 2.5638852,-1 Z" id="Rectangle-5" stroke="#20AAA3" stroke-width="2" fill="#FFFFFF" fill-rule="nonzero" stroke-linecap="round" stroke-linejoin="round"></path>
                        <text id="www" font-family="Helvetica-Bold, Helvetica" font-size="16" font-weight="bold" letter-spacing="0.200000003" fill="#BAE1DF">
                            <tspan x="10.9714286" y="27.0192503">ww</tspan>
                            <tspan x="36.2620536" y="27.0192503">w</tspan>
                        </text>
                        <g id="Group-3" transform="translate(57.600000, 61.297872)">
                            <ellipse id="Oval-2" fill="#E1F2F1" fill-rule="nonzero" cx="7.31428571" cy="8.23404255" rx="7.31428571" ry="7.31914894"></ellipse>
                            <path d="M19.2,2.32265922 C19.2,2.57294577 19.0938249,2.82323232 18.9027097,3.00343864 L9.77164977,11.6132961 C9.58053456,11.7935024 9.31509677,11.893617 9.04965899,11.893617 C8.7842212,11.893617 8.51878341,11.7935024 8.3276682,11.6132961 L3.04014747,6.62758794 C2.84903226,6.44738162 2.74285714,6.19709506 2.74285714,5.94680851 C2.74285714,5.69652196 2.84903226,5.4462354 3.04014747,5.26602909 L4.48412903,3.90447023 C4.67524424,3.72426392 4.94068203,3.62414929 5.20611982,3.62414929 C5.4715576,3.62414929 5.73699539,3.72426392 5.9281106,3.90447023 L9.04965899,6.85785157 L16.0147465,0.28032094 C16.2058618,0.100114621 16.4712995,0 16.7367373,0 C17.0021751,0 17.2676129,0.100114621 17.4587281,0.28032094 L18.9027097,1.64187979 C19.0938249,1.82208611 19.2,2.07237266 19.2,2.32265922 Z" id="Check---FontAwesome" fill="#20AAA3"></path>
                        </g>
                        <polygon id="Rectangle-6" fill="#E1F2F1" fill-rule="nonzero" points="10.9714286 32.9361702 43.8857143 32.9361702 43.8857143 53.9787234 10.9714286 53.9787234"></polygon>
                        <polygon id="Rectangle-6" fill="#BAE1DF" fill-rule="nonzero" points="49.3714286 32.9361702 117.028571 32.9361702 117.028571 37.5106383 49.3714286 37.5106383"></polygon>
                        <polygon id="Rectangle-6" fill="#BAE1DF" fill-rule="nonzero" points="49.3714286 41.1702128 117.028571 41.1702128 117.028571 45.7446809 49.3714286 45.7446809"></polygon>
                        <polygon id="Rectangle-6" fill="#BAE1DF" fill-rule="nonzero" points="49.3714286 49.4042553 78.6285714 49.4042553 78.6285714 53.9787234 49.3714286 53.9787234"></polygon>
                        <path d="M-0.5,-0.5 L128.5,-0.5 L128.5,12.393617 L-0.5,12.393617 L-0.5,-0.5 Z" id="Rectangle-5" stroke="#20AAA3" fill="#BAE1DF" fill-rule="nonzero" stroke-linecap="round" stroke-linejoin="round"></path>
                        <circle id="Oval" fill="#20AAA3" fill-rule="nonzero" cx="120.228571" cy="5.94680851" r="3.5"></circle>
                        <circle id="Oval" fill="#E1F2F1" fill-rule="nonzero" cx="112" cy="5.94680851" r="3.5"></circle>
                    </g>
                    <g id="pin" transform="translate(35.500000, 82.500000) rotate(-13.000000) translate(-35.500000, -82.500000) translate(23.000000, 65.000000)">
                        <path d="M13.0734627,17.1072265 C13.8134239,17.1072265 14.5005204,16.922726 15.1347728,16.5537195 C15.7690252,16.184713 16.2711342,15.6905154 16.6411148,15.0711116 C17.0110953,14.4517079 17.1960829,13.7730097 17.1960829,13.0349968 C17.1960829,12.2969838 17.0110953,11.6116963 16.6411148,10.9791138 C16.2711342,10.3465313 15.7690252,9.84574427 15.1347728,9.47673779 C14.5005204,9.10773131 13.8134239,8.92323084 13.0734627,8.92323084 C12.3335016,8.92323084 11.6530118,9.10773131 11.0319729,9.47673779 C10.4109341,9.84574427 9.91543183,10.3465313 9.54545125,10.9791138 C9.17547067,11.6116963 8.99048316,12.2969838 8.99048316,13.0349968 C8.99048316,14.1683738 9.38688497,15.130412 10.1797005,15.9211402 C10.972516,16.7118683 11.9370938,17.1072265 13.0734627,17.1072265 Z M13.0734627,1.52995941 C15.1876375,1.52995941 17.1300064,2.04392502 18.9006277,3.07187164 C20.6448219,4.09981826 22.0322283,5.4835718 23.0628884,7.22317377 C24.0935486,8.98913335 24.608871,10.9263883 24.608871,13.0349968 C24.608871,14.6428107 24.2124692,16.4878154 23.4196537,18.5700663 C22.7325469,20.3360259 21.7811825,22.2469236 20.565532,24.3028168 C19.561299,25.9369884 18.4117337,27.6370285 17.1168017,29.402988 C16.2182774,30.6417955 15.2669131,31.8542272 14.2626801,33.0403194 L13.0734627,34.4240868 L11.8842454,33.0403194 C10.8800124,31.8542272 9.928648,30.6417955 9.03012373,29.402988 C7.7351917,27.6370285 6.58562643,25.9369884 5.58139342,24.3028168 C4.36574294,22.2469236 3.41437858,20.3360259 2.72727179,18.5700663 C1.93445626,16.4878154 1.53805444,14.6428107 1.53805444,13.0349968 C1.53805444,10.9263883 2.0533768,8.98913335 3.08403699,7.22317377 C4.11469718,5.4835718 5.50210355,4.09981826 7.24629771,3.07187164 C9.01691906,2.04392502 10.959288,1.52995941 13.0734627,1.52995941 Z" id="location_on---material" fill="url(#linearGradient-1)"></path>
                        <path d="M11.5354083,15.5772671 C12.2753694,15.5772671 12.9624659,15.3927666 13.5967184,15.0237601 C14.2309708,14.6547536 14.7330797,14.1605559 15.1030603,13.5411522 C15.4730409,12.9217485 15.6580284,12.2430503 15.6580284,11.5050374 C15.6580284,10.7670244 15.4730409,10.0817369 15.1030603,9.44915439 C14.7330797,8.81657185 14.2309708,8.31578486 13.5967184,7.94677838 C12.9624659,7.5777719 12.2753694,7.39327142 11.5354083,7.39327142 C10.7954471,7.39327142 10.1149573,7.5777719 9.4939185,7.94677838 C8.87287967,8.31578486 8.3773774,8.81657185 8.00739681,9.44915439 C7.63741623,10.0817369 7.45242872,10.7670244 7.45242872,11.5050374 C7.45242872,12.6384144 7.84883054,13.6004526 8.64164607,14.3911807 C9.4344616,15.1819089 10.3990394,15.5772671 11.5354083,15.5772671 Z M11.5354083,0 C13.649583,0 15.5919519,0.513965601 17.3625733,1.54191222 C19.1067675,2.56985884 20.4941738,3.95361238 21.524834,5.69321436 C22.5554942,7.45917394 23.0708166,9.3964289 23.0708166,11.5050374 C23.0708166,13.1128513 22.6744147,14.957856 21.8815992,17.0401069 C21.1944924,18.8060664 20.2431281,20.7169642 19.0274776,22.7728574 C18.0232446,24.407029 16.8736793,26.1070691 15.5787473,27.8730286 C14.680223,29.1118361 13.7288586,30.3242678 12.7246256,31.51036 L11.5354083,32.8941274 L10.3461909,31.51036 C9.34195793,30.3242678 8.39059356,29.1118361 7.4920693,27.8730286 C6.19713726,26.1070691 5.04757199,24.407029 4.04333899,22.7728574 C2.82768851,20.7169642 1.87632414,18.8060664 1.18921735,17.0401069 C0.396401819,14.957856 0,13.1128513 0,11.5050374 C0,9.3964289 0.515322364,7.45917394 1.54598255,5.69321436 C2.57664274,3.95361238 3.96404911,2.56985884 5.70824327,1.54191222 C7.47886462,0.513965601 9.42123354,0 11.5354083,0 Z" id="location_on---material" fill="#20AAA3"></path>
                    </g>
                    <g id="pic" transform="translate(170.000000, 83.000000) rotate(15.000000) translate(-170.000000, -83.000000) translate(143.000000, 57.000000)" fill-rule="nonzero">
                        <path d="M2.53614352,2.23462222 L50.705635,2.23462222 C51.8102045,2.23462222 52.705635,3.13005272 52.705635,4.23462222 L52.705635,49.1757987 C52.705635,50.2803682 51.8102045,51.1757987 50.705635,51.1757987 L2.53614352,51.1757987 C1.43157402,51.1757987 0.536143519,50.2803682 0.536143519,49.1757987 L0.536143519,4.23462222 C0.536143519,3.13005272 1.43157402,2.23462222 2.53614352,2.23462222 Z" id="Rectangle-4" fill="url(#linearGradient-2)"></path>
                        <path d="M3.83050847,-0.5 L52,-0.5 C53.3807119,-0.5 54.5,0.619288125 54.5,2 L54.5,46.9411765 C54.5,48.3218883 53.3807119,49.4411765 52,49.4411765 L3.83050847,49.4411765 C2.4497966,49.4411765 1.33050847,48.3218883 1.33050847,46.9411765 L1.33050847,2 C1.33050847,0.619288125 2.4497966,-0.5 3.83050847,-0.5 Z" id="Rectangle-4" stroke="#E1F2F1" fill="#FFFFFF" stroke-linecap="round" stroke-linejoin="round"></path>
                        <polygon id="Rectangle-4" fill="#E1F2F1" points="6.4336989 3.82352941 50.164008 3.82352941 50.164008 32.8823529 6.4336989 32.8823529"></polygon>
                        <circle id="Oval-4" fill="#BAE1DF" cx="16.5" cy="13.5" r="4.5"></circle>
                        <polygon id="Rectangle-4" fill="#BAE1DF" points="6.4336989 36.7058824 50.164008 36.7058824 50.164008 39.7647059 6.4336989 39.7647059"></polygon>
                        <polygon id="Rectangle-4" fill="#BAE1DF" points="6.4336989 42.8235294 31.7512463 42.8235294 31.7512463 45.8823529 6.4336989 45.8823529"></polygon>
                        <polygon id="Path-4" fill="#BAE1DF" points="6.44960092 32.8753729 23.0122207 19.0259226 33.7725174 27.3649418 42.6615609 21.2080114 50.1833115 27.9395865 50.1591405 32.9063403"></polygon>
                    </g>
                </g>
            </g>
        </g>
    </g>
</svg>