<svg width="184" height="184" viewBox="0 0 184 184" fill="none" xmlns="http://www.w3.org/2000/svg">
<g clip-path="url(#clip0)">
<path d="M25.5485 33H162.383C163.457 33 164.029 33.1104 164.624 33.4291C165.181 33.727 165.625 34.1708 165.923 34.7279C166.242 35.3238 166.352 35.8956 166.352 36.9689V127.031C166.352 128.104 166.242 128.676 165.923 129.272C165.625 129.829 165.181 130.273 164.624 130.571C164.029 130.89 163.457 131 162.383 131H25.5485C24.4752 131 23.9033 130.89 23.3075 130.571C22.7504 130.273 22.3066 129.829 22.0087 129.272C21.69 128.676 21.5796 128.104 21.5796 127.031V36.9689C21.5796 35.8956 21.69 35.3238 22.0087 34.7279C22.3066 34.1708 22.7504 33.727 23.3075 33.4291C23.9033 33.1104 24.4752 33 25.5485 33Z" fill="white" stroke="#2DAA2A" stroke-width="2" stroke-linecap="round" stroke-linejoin="round"/>
<path d="M36.5903 53.0179L38.1997 59.6116L39.8325 53.0179H41.4106L43.0513 59.5726L44.7622 53.0179H46.1685L43.7388 61.3851H42.2778L40.5747 54.9085L38.9263 61.3851H37.4653L35.0513 53.0179H36.5903ZM48.1528 53.0179L49.7622 59.6116L51.395 53.0179H52.9731L54.6138 59.5726L56.3247 53.0179H57.731L55.3013 61.3851H53.8403L52.1372 54.9085L50.4888 61.3851H49.0278L46.6138 53.0179H48.1528ZM63.0903 52.8694H65.3481L66.645 59.0023L67.9731 52.8694H70.2935L67.8247 61.3851H65.5356L64.1997 55.1819L62.8481 61.3851H60.5356L58.145 52.8694H60.5356L61.8638 58.9788L63.0903 52.8694Z" fill="#B9EDB6"/>
<path d="M94.9843 119.698C99.4829 119.698 103.13 116.048 103.13 111.547C103.13 107.045 99.4829 103.396 94.9843 103.396C90.4857 103.396 86.8389 107.045 86.8389 111.547C86.8389 116.048 90.4857 119.698 94.9843 119.698Z" fill="#DBF5D6"/>
<path fill-rule="evenodd" clip-rule="evenodd" d="M108.22 104.964C108.22 105.242 108.102 105.521 107.889 105.722L97.7206 115.31C97.5078 115.511 97.2122 115.622 96.9166 115.622C96.6209 115.622 96.3253 115.511 96.1125 115.31L90.2241 109.758C90.0113 109.557 89.8931 109.278 89.8931 109C89.8931 108.721 90.0113 108.442 90.2241 108.242L91.8322 106.725C92.045 106.525 92.3406 106.413 92.6362 106.413C92.9318 106.413 93.2274 106.525 93.4403 106.725L96.9166 110.014L104.673 102.689C104.886 102.489 105.182 102.377 105.477 102.377C105.773 102.377 106.068 102.489 106.281 102.689L107.889 104.206C108.102 104.406 108.22 104.685 108.22 104.964Z" fill="#2DAA2A"/>
<path d="M34.9106 70.7925H71.5652V94.2263H34.9106V70.7925Z" fill="#DBF5D6"/>
<path d="M77.6753 70.7925H153.021V75.8868H77.6753V70.7925Z" fill="#B9EDB6"/>
<path d="M77.6753 79.9623H153.021V85.0566H77.6753V79.9623Z" fill="#B9EDB6"/>
<path d="M77.6753 89.132H110.257V94.2263H77.6753V89.132Z" fill="#B9EDB6"/>
<path d="M22.1362 33.5568H165.795V47.9156H22.1362V33.5568Z" fill="#B9EDB6" stroke="#2DAA2A" stroke-linecap="round" stroke-linejoin="round"/>
<path d="M156.584 44.634C158.736 44.634 160.481 42.8889 160.481 40.7362C160.481 38.5836 158.736 36.8385 156.584 36.8385C154.431 36.8385 152.686 38.5836 152.686 40.7362C152.686 42.8889 154.431 44.634 156.584 44.634Z" fill="#2DAA2A"/>
<path d="M147.42 44.634C149.573 44.634 151.318 42.8889 151.318 40.7362C151.318 38.5836 149.573 36.8385 147.42 36.8385C145.268 36.8385 143.522 38.5836 143.522 40.7362C143.522 42.8889 145.268 44.634 147.42 44.634Z" fill="#DBF5D6"/>
<path fill-rule="evenodd" clip-rule="evenodd" d="M18.2059 93.1234C19.0089 92.938 19.7082 92.5657 20.304 92.0064C20.8998 91.4471 21.3208 90.785 21.5671 90.0203C21.8134 89.2555 21.8441 88.4727 21.6592 87.6718C21.4743 86.871 21.1019 86.1738 20.542 85.58C19.9821 84.9863 19.3118 84.5687 18.5311 84.3272C17.7505 84.0857 16.9587 84.0576 16.1557 84.243C15.3528 84.4283 14.6606 84.799 14.0792 85.355C13.4977 85.911 13.0855 86.5785 12.8425 87.3576C12.5995 88.1367 12.5705 88.9266 12.7554 89.7275C13.0393 90.9573 13.7104 91.9019 14.7688 92.5613C15.8272 93.2207 16.9729 93.408 18.2059 93.1234ZM14.3036 76.2206C16.5977 75.6909 18.8341 75.7621 21.0129 76.4339C23.163 77.1124 25.0152 78.2663 26.5693 79.8958C28.1301 81.5538 29.1746 83.5268 29.7028 85.8148C30.1056 87.5595 30.1376 89.6608 29.799 92.1188C29.4958 94.2072 28.9422 96.519 28.1381 99.0544C27.4578 101.079 26.6363 103.212 25.6736 105.453C25.009 107.022 24.2804 108.576 23.4878 110.114L22.5441 111.914L20.907 110.71C19.5202 109.675 18.1841 108.597 16.8988 107.478C15.0513 105.887 13.378 104.33 11.8789 102.808C10.0448 100.882 8.53379 99.0467 7.34581 97.3026C5.9639 95.2417 5.07157 93.339 4.66879 91.5944C4.14056 89.3064 4.21442 87.0752 4.89039 84.9007C5.57295 82.7549 6.73177 80.9058 8.36687 79.3535C10.0306 77.7945 12.0095 76.7502 14.3036 76.2206Z" fill="url(#paint0_linear)"/>
<path fill-rule="evenodd" clip-rule="evenodd" d="M16.1537 91.8485C16.9566 91.6632 17.656 91.2908 18.2517 90.7315C18.8475 90.1722 19.2686 89.5102 19.5149 88.7454C19.7612 87.9806 19.7919 87.1978 19.607 86.397C19.4221 85.5962 19.0497 84.8989 18.4898 84.3052C17.9298 83.7115 17.2595 83.2939 16.4789 83.0523C15.6982 82.8108 14.9064 82.7828 14.1035 82.9681C13.3006 83.1535 12.6084 83.5242 12.0269 84.0802C11.4455 84.6361 11.0333 85.3037 10.7903 86.0828C10.5473 86.8619 10.5182 87.6518 10.7031 88.4526C10.9871 89.6824 11.6582 90.627 12.7166 91.2864C13.7749 91.9458 14.9206 92.1332 16.1537 91.8485ZM12.2514 74.9457C14.5455 74.4161 16.7819 74.4872 18.9607 75.1591C21.1108 75.8375 22.9629 76.9915 24.5171 78.6209C26.0778 80.279 27.1223 82.252 27.6505 84.54C28.0533 86.2846 28.0854 88.3859 27.7467 90.844C27.4436 92.9323 26.89 95.2442 26.0859 97.7796C25.4056 99.8044 24.5841 101.937 23.6214 104.178C22.9567 105.747 22.2281 107.301 21.4356 108.84L20.4918 110.639L18.8547 109.435C17.4679 108.4 16.1319 107.323 14.8465 106.203C12.999 104.612 11.3258 103.055 9.82669 101.533C7.99257 99.607 6.48154 97.7718 5.29357 96.0277C3.91166 93.9669 3.01932 92.0642 2.61654 90.3196C2.08831 88.0315 2.16217 85.8003 2.83814 83.6259C3.52071 81.4801 4.67953 79.631 6.31463 78.0786C7.9784 76.5197 9.9573 75.4754 12.2514 74.9457Z" fill="#2DAA2A"/>
<path d="M136.231 68.8427L176.994 79.7651C177.929 80.0156 178.483 80.9764 178.233 81.9111L168.043 119.942C167.792 120.877 166.831 121.432 165.897 121.181L125.134 110.259C124.199 110.008 123.644 109.047 123.895 108.113L134.085 70.0817C134.336 69.147 135.296 68.5923 136.231 68.8427Z" fill="url(#paint1_linear)"/>
<path d="M137.947 66.8221L178.71 77.7444C179.878 78.0575 180.571 79.2585 180.258 80.4269L170.068 118.458C169.755 119.626 168.554 120.32 167.385 120.007L126.623 109.084C125.454 108.771 124.761 107.57 125.074 106.402L135.264 68.3708C135.577 67.2024 136.778 66.509 137.947 66.8221Z" fill="white" stroke="#DBF5D6" stroke-linecap="round" stroke-linejoin="round"/>
<path d="M139.169 71.0712L176.176 80.987L169.587 105.578L132.58 95.6619L139.169 71.0712Z" fill="#DBF5D6"/>
<path d="M144.473 85.3504C146.577 85.9139 148.738 84.6658 149.302 82.5627C149.865 80.4595 148.617 78.2978 146.514 77.7342C144.411 77.1707 142.249 78.4188 141.686 80.5219C141.122 82.6251 142.37 84.7869 144.473 85.3504Z" fill="#B9EDB6"/>
<path d="M131.713 98.8975L168.72 108.813L168.026 111.402L131.02 101.486L131.713 98.8975Z" fill="#B9EDB6"/>
<path d="M130.327 104.074L151.751 109.815L151.058 112.404L129.633 106.663L130.327 104.074Z" fill="#B9EDB6"/>
<path d="M132.595 95.6596L149.752 87.6952L156.967 97.1919L165.885 93.9972L170.724 101.399L169.577 105.597L132.595 95.6596Z" fill="#B9EDB6"/>
<path d="M92 152C98.6274 152 104 157.166 104 163.538V164.462C104 170.834 98.6274 176 92 176C85.3726 176 80 170.834 80 164.462V163.538C80 157.166 85.3726 152 92 152Z" fill="#2DAA2A"/>
<path d="M96.2733 167.888V170H87.8092V168.32L92.1293 164.24C92.5879 163.803 92.8973 163.429 93.0573 163.12C93.2173 162.8 93.2973 162.485 93.2973 162.176C93.2973 161.728 93.1426 161.387 92.8333 161.152C92.5346 160.907 92.0919 160.784 91.5052 160.784C91.0146 160.784 90.5719 160.88 90.1773 161.072C89.7826 161.253 89.4519 161.531 89.1853 161.904L87.2973 160.688C87.7346 160.037 88.3373 159.531 89.1053 159.168C89.8733 158.795 90.7533 158.608 91.7453 158.608C92.5773 158.608 93.3026 158.747 93.9213 159.024C94.5506 159.291 95.0359 159.675 95.3773 160.176C95.7293 160.667 95.9053 161.248 95.9053 161.92C95.9053 162.528 95.7773 163.099 95.5213 163.632C95.2653 164.165 94.7693 164.773 94.0333 165.456L91.4573 167.888H96.2733Z" fill="#DBF5D6"/>
</g>
<defs>
<linearGradient id="paint0_linear" x1="0.150097" y1="55.5404" x2="30.3356" y2="107.377" gradientUnits="userSpaceOnUse">
<stop stop-color="white" stop-opacity="0"/>
<stop offset="1" stop-color="#DBF5D6"/>
</linearGradient>
<linearGradient id="paint1_linear" x1="156.213" y1="63.5385" x2="162.287" y2="130.796" gradientUnits="userSpaceOnUse">
<stop stop-color="white" stop-opacity="0"/>
<stop offset="1" stop-color="#34C431"/>
</linearGradient>
<clipPath id="clip0">
<rect width="184" height="184" fill="white"/>
</clipPath>
</defs>
</svg>
