<?xml version="1.0" encoding="UTF-8"?>
<svg width="165px" height="169px" viewBox="0 0 165 169" version="1.1" xmlns="http://www.w3.org/2000/svg" xmlns:xlink="http://www.w3.org/1999/xlink">
    <!-- Generator: Sketch 52.3 (67297) - http://www.bohemiancoding.com/sketch -->
    <title>step1</title>
    <desc>Created with Sketch.</desc>
    <defs>
        <linearGradient x1="18.7363735%" y1="11.2856658%" x2="94.6629724%" y2="82.3008662%" id="linearGradient-1">
            <stop stop-color="#FFFFFF" stop-opacity="0" offset="0%"></stop>
            <stop stop-color="#E1F2F1" offset="100%"></stop>
        </linearGradient>
        <path d="M13.8265472,1.54397233 L29.8265472,1.54397233 C36.4539642,1.54397233 41.8265472,6.91655533 41.8265472,13.5439723 L41.8265472,32.5439723 C41.8265472,39.1713893 36.4539642,44.5439723 29.8265472,44.5439723 L13.8265472,44.5439723 C7.19913023,44.5439723 1.82654723,39.1713893 1.82654723,32.5439723 L1.82654723,13.5439723 C1.82654723,6.91655533 7.19913023,1.54397233 13.8265472,1.54397233 Z" id="path-2"></path>
        <linearGradient x1="50%" y1="3.061617e-15%" x2="50%" y2="100%" id="linearGradient-4">
            <stop stop-color="#FFFFFF" stop-opacity="0" offset="0%"></stop>
            <stop stop-color="#E1F2F1" offset="100%"></stop>
        </linearGradient>
    </defs>
    <g id="Page-2" stroke="none" stroke-width="1" fill="none" fill-rule="evenodd">
        <g id="submit-your-entry" transform="translate(-267.000000, -280.000000)">
            <g id="step1" transform="translate(248.000000, 280.000000)">
                <g>
                    <rect id="Rectangle-11" fill-rule="nonzero" x="0" y="0" width="209" height="136"></rect>
                    <circle id="Oval-3" fill="#E1F2F1" fill-rule="nonzero" cx="107.326547" cy="67.0439723" r="65.5"></circle>
                    <g id="Group" transform="translate(19.000000, 0.000000)">
                        <g id="Group-2" transform="translate(49.000000, 17.000000)">
                            <path d="M2.82654723,0.043972332 L79.8265472,0.043972332 C81.2072591,0.043972332 82.3265472,1.16326046 82.3265472,2.54397233 L82.3265472,93.1426467 L67.8356321,105.043972 L2.82654723,105.043972 C1.44583536,105.043972 0.326547231,103.924684 0.326547231,102.543972 L0.326547231,2.54397233 C0.326547231,1.16326046 1.44583536,0.043972332 2.82654723,0.043972332 Z" id="Rectangle-2" stroke="#20AAA3" fill="#FFFFFF" fill-rule="nonzero" stroke-linecap="round" stroke-linejoin="round"></path>
                            <circle id="Oval-2" fill="#BAE1DF" fill-rule="nonzero" cx="12.8265472" cy="22.5439723" r="6"></circle>
                            <circle id="Oval-2" fill="#BAE1DF" fill-rule="nonzero" cx="12.8265472" cy="56.5439723" r="6"></circle>
                            <rect id="Rectangle-3" fill="#BAE1DF" fill-rule="nonzero" x="21.8265472" y="20.5439723" width="51" height="5"></rect>
                            <rect id="Rectangle-3" fill="#BAE1DF" fill-rule="nonzero" x="21.8265472" y="28.5439723" width="24" height="5"></rect>
                            <rect id="Rectangle-3" fill="#BAE1DF" fill-rule="nonzero" x="21.8265472" y="53.5439723" width="43" height="5"></rect>
                            <rect id="Rectangle-3" fill="#BAE1DF" fill-rule="nonzero" x="21.8265472" y="62.5439723" width="51" height="5"></rect>
                            <rect id="Rectangle-3" fill="#BAE1DF" fill-rule="nonzero" x="21.8265472" y="71.5439723" width="22" height="5"></rect>
                            <path d="M22.2115336,17.5474025 C22.2115336,17.7632894 22.1251788,17.9791763 21.9697403,18.1346149 L14.5432317,25.5611234 C14.3877932,25.716562 14.1719063,25.8029167 13.9560194,25.8029167 C13.7401325,25.8029167 13.5242457,25.716562 13.3688071,25.5611234 L9.06834053,21.2606568 C8.91290198,21.1052183 8.82654723,20.8893314 8.82654723,20.6734445 C8.82654723,20.4575576 8.91290198,20.2416708 9.06834053,20.0862322 L10.2427651,18.9118076 C10.3982037,18.7563691 10.6140906,18.6700143 10.8299774,18.6700143 C11.0458643,18.6700143 11.2617512,18.7563691 11.4171898,18.9118076 L13.9560194,21.4592728 L19.6208911,15.7857656 C19.7763296,15.6303271 19.9922165,15.5439723 20.2081034,15.5439723 C20.4239902,15.5439723 20.6398771,15.6303271 20.7953157,15.7857656 L21.9697403,16.9601902 C22.1251788,17.1156288 22.2115336,17.3315157 22.2115336,17.5474025 Z" id="Check---FontAwesome" fill="#20AAA3"></path>
                            <path d="M22.2115336,51.5474025 C22.2115336,51.7632894 22.1251788,51.9791763 21.9697403,52.1346149 L14.5432317,59.5611234 C14.3877932,59.716562 14.1719063,59.8029167 13.9560194,59.8029167 C13.7401325,59.8029167 13.5242457,59.716562 13.3688071,59.5611234 L9.06834053,55.2606568 C8.91290198,55.1052183 8.82654723,54.8893314 8.82654723,54.6734445 C8.82654723,54.4575576 8.91290198,54.2416708 9.06834053,54.0862322 L10.2427651,52.9118076 C10.3982037,52.7563691 10.6140906,52.6700143 10.8299774,52.6700143 C11.0458643,52.6700143 11.2617512,52.7563691 11.4171898,52.9118076 L13.9560194,55.4592728 L19.6208911,49.7857656 C19.7763296,49.6303271 19.9922165,49.5439723 20.2081034,49.5439723 C20.4239902,49.5439723 20.6398771,49.6303271 20.7953157,49.7857656 L21.9697403,50.9601902 C22.1251788,51.1156288 22.2115336,51.3315157 22.2115336,51.5474025 Z" id="Check---FontAwesome" fill="#20AAA3"></path>
                            <path d="M67.1471039,105.525717 L67.1471039,92.4142116 L83.2254802,92.4142116 L67.1471039,105.525717 Z" id="Path-3" stroke="#20AAA3" fill="#E1F2F1" fill-rule="nonzero" stroke-linecap="round" stroke-linejoin="round"></path>
                        </g>
                        <path d="M22.8265472,70.0439723 L22.8265472,36.5439723 L45.8265472,36.5439723" id="Path-2" stroke="#20AAA3" stroke-width="2" stroke-linecap="square" stroke-linejoin="round" stroke-dasharray="4,8" fill-rule="nonzero"></path>
                        <path d="M118,70.0439723 L144.315805,70.0439723 L144.315805,21.4521755" id="Path-2" stroke="#20AAA3" stroke-width="2" stroke-linecap="square" stroke-linejoin="round" stroke-dasharray="4,8" fill-rule="nonzero"></path>
                        <g id="org" transform="translate(121.000000, 0.000000)">
                            <path d="M14.8265472,0.543972332 L29.8265472,0.543972332 C37.5585337,0.543972332 43.8265472,6.81198583 43.8265472,14.5439723 L43.8265472,32.5439723 C43.8265472,40.2759588 37.5585337,46.5439723 29.8265472,46.5439723 L14.8265472,46.5439723 C7.09456073,46.5439723 0.826547231,40.2759588 0.826547231,32.5439723 L0.826547231,14.5439723 C0.826547231,6.81198583 7.09456073,0.543972332 14.8265472,0.543972332 Z" id="Rectangle-path" fill="url(#linearGradient-1)" fill-rule="nonzero"></path>
                            <mask id="mask-3" fill="white">
                                <use xlink:href="#path-2"></use>
                            </mask>
                            <use id="Rectangle-path" fill="#20AAA3" fill-rule="nonzero" xlink:href="#path-2"></use>
                            <g id="Group-5" mask="url(#mask-3)" fill="#FFFFFF" fill-rule="nonzero">
                                <g transform="translate(1.000000, 11.000000)">
                                    <path d="M9,7 L31,7 L31,18.0043645 C27.3333333,19.3347882 23.6666667,20 20,20 C16.3333333,20 12.6666667,19.3347882 9,18.0043645 L9,7 Z" id="Rectangle-8" stroke="none"></path>
                                    <path d="M-2.66653167,4.26845943 L20.5615317,-0.781319013 L43.1428985,4.26896656 L20.563371,12.690989 L-2.66653167,4.26845943 Z" id="Rectangle-7" stroke="#20AAA3" stroke-width="2" stroke-linecap="round"></path>
                                    <rect id="Rectangle-9" stroke="none" x="36" y="5" width="1" height="11"></rect>
                                    <polygon id="Rectangle-9" stroke="none" points="34.939566 20 38 20 37.2124504 16 35.7271157 16"></polygon>
                                </g>
                            </g>
                        </g>
                        <g id="user" transform="translate(0.000000, 68.000000)" fill-rule="nonzero">
                            <path d="M14.8265472,0.543972332 L29.8265472,0.543972332 C37.5585337,0.543972332 43.8265472,6.81198583 43.8265472,14.5439723 L43.8265472,32.5439723 C43.8265472,40.2759588 37.5585337,46.5439723 29.8265472,46.5439723 L14.8265472,46.5439723 C7.09456073,46.5439723 0.826547231,40.2759588 0.826547231,32.5439723 L0.826547231,14.5439723 C0.826547231,6.81198583 7.09456073,0.543972332 14.8265472,0.543972332 Z" id="Rectangle-path" fill="url(#linearGradient-4)"></path>
                            <path d="M13.8265472,1.54397233 L29.8265472,1.54397233 C36.4539642,1.54397233 41.8265472,6.91655533 41.8265472,13.5439723 L41.8265472,32.5439723 C41.8265472,39.1713893 36.4539642,44.5439723 29.8265472,44.5439723 L13.8265472,44.5439723 C7.19913023,44.5439723 1.82654723,39.1713893 1.82654723,32.5439723 L1.82654723,13.5439723 C1.82654723,6.91655533 7.19913023,1.54397233 13.8265472,1.54397233 Z" id="Rectangle-path" fill="#20AAA3"></path>
                            <path d="M14.6021047,20.2462195 C14.0284799,19.0902077 13.7647569,17.7943052 13.8387399,16.4951391 C13.9205535,15.1886416 14.4893107,13.9672776 15.42352,13.0919412 C16.4655274,12.1662714 17.8790584,11.8395644 19.2432463,11.7246119 C20.6074343,11.6096595 21.99194,11.6792359 23.3358103,11.403955 C25.5787866,10.9306788 27.5462645,9.54040849 28.7983673,7.54397233 C28.933125,8.63424986 28.9233584,9.73866401 28.769342,10.8261677 C28.5661651,11.9030907 28.0350025,12.9618634 27.1381215,13.548726 C28.2236668,13.0253898 28.1075657,14.2535661 27.8695585,14.9886569 C28.4094286,15.6662714 29.715566,15.7781988 29.7823242,16.6554676 C29.8914564,17.5299348 29.7978973,18.4189263 29.5094866,19.2479481 C29.181501,20.0556404 29.5327068,21.480446 28.6938763,21.5439723" id="Shape" stroke="#FFFFFF" fill="#FFFFFF"></path>
                            <path d="M25.3263622,32.2043133 L25.3263622,30.6651218 C30.2017682,29.4421064 33.3805792,24.887752 32.7461101,20.0346813 C32.111641,15.1816106 27.8618449,11.5439723 22.8265472,11.5439723 C17.7912496,11.5439723 13.5414535,15.1816106 12.9069844,20.0346813 C12.2725153,24.887752 15.4513262,29.4421064 20.3267322,30.6651218 L20.3267322,32.2043133 C16.0969496,33.3150288 13.1541275,37.0368437 13.1397641,41.2937396 L13.1397641,45.5439723 L32.5133303,45.5439723 L32.5133303,41.2937396 C32.498967,37.0368437 29.5561448,33.3150288 25.3263622,32.2043133 Z" id="Shape" fill="#FFFFFF"></path>
                            <path d="M28,12 C28,12 33.5156145,12.4423821 29.5893017,20" id="Shape" fill="#FFFFFF"></path>
                        </g>
                    </g>
                </g>
                <g id="1" transform="translate(92.000000, 143.000000)">
                    <path d="M12.5,0 L12.5,0 C19.4035594,-1.26816328e-15 25,5.59644063 25,12.5 L25,13.5 C25,20.4035594 19.4035594,26 12.5,26 L12.5,26 C5.59644063,26 8.45442189e-16,20.4035594 0,13.5 L0,12.5 C-8.45442189e-16,5.59644063 5.59644063,1.26816328e-15 12.5,0 Z" id="Rectangle-path" fill="#20AAA3" fill-rule="nonzero"></path>
                    <text font-family="Helvetica-Bold, Helvetica" font-size="18" font-weight="bold" fill="#E1F2F1">
                        <tspan x="7.49462891" y="19">1</tspan>
                    </text>
                </g>
            </g>
        </g>
    </g>
</svg>